<svg version="1.1" id="Layer_1" xmlns="http://www.w3.org/2000/svg" xmlns:xlink="http://www.w3.org/1999/xlink" x="0px" y="0px"
	 width="1024.191px" height="1024.191px" viewBox="0 0 1024.191 1024.191" enable-background="new 0 0 1024.191 1024.191"
	 xml:space="preserve">
<path fill-rule="evenodd" clip-rule="evenodd" fill="#D9A75A" d="M506.07,195.292c119.243-2.177,212.344,86.896,209.079,208.438
	c-2.537,94.235-99.219,197.438-196.965,193.832c-117.066-4.327-205.7-73.368-208.685-202.066
	C306.795,278.615,390.434,195.644,506.07,195.292z"/>
<path fill="currentColor" d="M125.342,689.246c-0.015-6.445-0.029-12.893-0.044-19.334c0.988-3.416,0.581-6.93,0.583-10.396
	c0.013-16.473-0.054-32.943-0.128-49.416c-0.067-14.957,0.528-29.92-0.437-44.865c-0.084-19.271-0.22-38.541-0.243-57.812
	c-0.04-33.403-0.041-66.806,0.001-100.209c0.028-22.099,0.158-44.196,0.243-66.289c0.116-1.142,0.332-2.287,0.334-3.434
	c0.056-31.458,0.145-62.916,0.105-94.374c-0.02-15.956-0.278-31.911-0.429-47.866c0.018-22.265,0.056-44.528,0.024-66.792
	c-0.003-2.521-0.185-4.472,3.486-4.212c14.248,1.008,28.547-0.556,42.764,0.275c13.485,0.789,26.938,0.438,40.401,0.515
	c28.754,0.165,57.517,0.408,86.261-0.141c11.631-0.223,23.268-0.507,34.899-0.473c14.229,0.041,28.459,0.597,42.688,0.592
	c15.465-0.005,30.938-0.835,46.39-0.491c14.131,0.313,28.268,0.882,42.389,0.51c56.105-1.48,112.216-0.463,168.323-0.64
	c49.92-0.157,99.841-0.042,149.762-0.056c36.254-0.01,72.508-0.05,108.762-0.041c9.512,0.003,8.7-1.146,8.7,8.403
	c-0.01,93.479-0.033,186.958-0.053,280.438c-0.012,57.806-0.046,115.61-0.032,173.417c0.017,62.955,0.118,125.91,0.103,188.865
	c-0.012,41.641-0.165,83.279-0.252,124.916c-1.163-0.031-2.329-0.088-3.494-0.088c-102.455-0.02-204.909-0.037-307.364-0.049
	c-122.444-0.016-244.889-0.033-367.333-0.029c-31.815,0-63.63,0.082-95.444,0.125c-0.141-0.193-0.327-0.322-0.555-0.383
	c0.034-0.828,0.091-1.658,0.091-2.488c-0.03-56.432-0.041-112.863-0.115-169.295C125.709,715.169,125.476,702.207,125.342,689.246z
	 M892.817,514.847c0.044-17.469,0.127-34.937,0.126-52.406c0-87.396-0.016-174.79-0.04-262.185
	c-0.006-22.297-0.068-44.595-0.105-66.892c-0.033-2.001-1.489-1.279-2.518-1.285c-15.812-0.099-31.62-0.267-47.432-0.253
	c-27.111,0.023-54.224,0.211-81.336,0.242c-39.923,0.047-79.846,0.056-119.77,0.007c-24.725-0.03-49.448-0.269-74.172-0.278
	c-19.95-0.009-39.9,0.259-59.852,0.267c-24.265,0.01-48.528-0.125-72.794-0.198c-1.309-0.139-2.616-0.398-3.925-0.399
	c-31.445-0.034-62.891-0.048-94.336-0.034c-1.478,0.001-2.953,0.278-4.43,0.427c-12.97,0.074-25.938,0.223-38.906,0.209
	c-51.293-0.056-102.586-0.093-153.877-0.357c-4.993-0.026-6.703,1.002-6.646,6.375c0.319,30.487,0.281,60.979,0.269,91.47
	c-0.045,106.465-0.158,212.93-0.19,319.395c-0.024,79.475,0.033,158.949,0.061,238.424c0.012,33.654,0.117,67.313-0.037,100.967
	c-0.018,4.025,1.183,4.934,4.985,4.855c14.821-0.293,29.647-0.268,44.472-0.359c27.316,0.059,54.632,0.156,81.948,0.16
	c20.818,0,41.636-0.121,62.454-0.188c0.875,0.004,1.751,0.008,2.626,0.012c1.491,0.078,2.981,0.221,4.474,0.223
	c44.158,0.02,88.315,0.049,132.475,0.018c26.485-0.02,52.971-0.141,79.456-0.217c6.211,0.338,12.421,0.428,18.63-0.033
	c8.317,0.084,16.634,0.246,24.951,0.234c29.132-0.043,58.263-0.146,87.396-0.229c1.872-0.012,3.743-0.021,5.616-0.031
	c1.824,0.084,3.648,0.24,5.474,0.24c44.328,0.008,88.655,0.006,132.983-0.012c22.498-0.008,44.997-0.127,67.493,0.016
	c3.71,0.021,5.088-0.947,4.755-4.74c-0.35-3.973-0.232-7.99-0.232-11.99c-0.001-73.15,0.016-146.305,0.017-219.457
	c0.001-23.488-0.031-46.979-0.048-70.471c-0.234-1.604-0.67-3.207-0.674-4.811c-0.057-20.633-0.066-41.266-0.029-61.896
	C892.13,518.058,892.577,516.453,892.817,514.847z"/>
<path fill-rule="evenodd" clip-rule="evenodd" fill="currentColor" d="M898.704,632.12c-1.31,6.702-1.297,13.405,0.005,20.104
	c-1.069,2.38-0.497,4.898-0.501,7.34c-0.117,79.429-0.188,158.855-0.266,238.283c-15.425,0.055-30.85,0.158-46.274,0.158
	c-144.209-0.001-288.418-0.022-432.627-0.032c-96.19-0.007-192.382-0.032-288.572,0.1c-3.837,0.005-4.508-1.083-4.505-4.608
	c0.092-121.908,0.097-243.818,0.083-365.727c-0.014-123.319-0.064-246.637-0.088-369.956c-0.002-8.887,0.232-17.776,0.032-26.658
	c-0.076-3.375,1.038-4.012,4.217-4.009c124.255,0.089,248.51,0.081,372.765,0.081c129.556,0,259.111-0.006,388.667-0.006
	c6.243,0,6.248,0.012,6.248,6.061c0,81.382,0,162.765-0.008,244.147c0,2.146-0.134,4.299,0.819,6.315
	c-0.948,1.243-0.547,2.701-0.548,4.055c-0.016,26.779-0.037,53.558,0.065,80.335c0.017,4.151-0.656,8.355,0.49,12.469
	c-1.083,2.326-1.078,4.653-0.001,6.977c-0.994,1.403-0.554,3.018-0.554,4.525c-0.021,45.483-0.007,90.965,0.024,136.448
	C898.177,629.727,897.818,631.027,898.704,632.12z M894.294,755.653c1.399-1.62,0.719-3.574,0.72-5.348
	c0.054-54.233,0.066-108.467,0.043-162.7c-0.009-18.069-0.133-36.139-0.204-54.209c-0.24-9.185-0.631-18.369-0.681-27.554
	c-0.053-9.865,0.368-19.709,0.21-29.602c-0.558-35.031-0.612-70.083,0.465-105.117c0.06-23.464,0.157-46.928,0.164-70.393
	c0.004-18.178-0.104-36.357-0.163-54.536c0.737-4.212-0.792-8.27-0.774-12.466c0.126-31.135-0.106-62.271,0.854-93.401
	c0.293-9.498-0.001-9.506-9.267-9.413c-0.779,0.008-1.56,0.001-2.339,0.001c-64.222-0.003-128.442-0.01-192.664-0.008
	c-95.872,0.002-191.744,0.013-287.616,0.016c-35.065,0.001-70.131,0.016-105.197-0.022c-26.185-0.029-52.372-0.193-78.557-0.189
	c-28.057,0.004-56.115,0.251-84.171,0.087c-4.508-0.026-5.582,1.057-5.578,5.558c0.148,199.878,0.147,399.757,0.226,599.636
	c0.002,6.676-0.631,13.373,0.308,20.038c1.965,1.354,4.204,0.771,6.314,0.778c8.878,0.029,17.755-0.111,26.632-0.11
	c95.948,0.006,191.896,0.034,287.844,0.002c2.414-0.001,4.934,0.802,7.277-0.499c0.718-0.971,1.412-1.959,2.157-2.907
	c7.467-9.502,12.793-20.17,16.322-31.638c4.332-14.076,6.755-28.556,8.937-43.142c2.406-16.076,3.881-32.221,5.388-48.367
	c1.148-12.301,1.502-24.703,1.739-37.036c0.229-11.952,1.315-23.86,1.254-35.817c-0.087-17.12,0.214-34.303-3.928-51.041
	c-2.034-8.22-5.078-16.449-11.976-22.025c-13.386-10.818-29.559-16.759-44.672-24.527c-2.459-1.265-4.536-2.777-6.026-4.767
	c-4.602-6.143-10.45-11.043-15.774-16.456c-1.757-1.786-2.208-4.933-6.333-5.575c3.322,7.544,8.85,13.245,11.51,20.939
	c-17.746-3.637-34.89-8.256-53.28-10.796c1.569,1.564,2.655,1.901,3.813,2.332c16.548,6.148,33.586,10.984,50.021,17.283
	c16.532,6.337,31.563,16.1,46.47,25.907c-5.231,4.715-10.805,8.768-16.986,11.189c-14.713,5.766-25.279,7.229-39.131-4.704
	c-2.028-1.748-2.673-0.659-4.096,0.414c-10.83,8.165-22.742,11.215-35.873,6.668c-10.667-3.695-17.757-10.998-20.862-22.022
	c-0.464-1.646-0.514-3.806-3.778-2.286c-9.583,4.462-19.543,4.332-29.111,0.07c-15.78-7.029-24.518-23.558-14.724-40.371
	c1.907-3.275-0.958-3.038-1.91-3.742c-9.6-7.105-14.957-16.018-15.137-28.455c-0.178-12.258,12.295-29.029,24.933-30.148
	c5.21-0.46,6.251-2.951,6.263-7.972c0.026-10.785,7.74-22.564,21.024-22.967c2.369-0.072,3.183-0.576,3.149-3.128
	c-0.037-2.69-0.288-5.407,0.85-8.149c6.654-16.042,20.946-23.66,37.256-20.915c2.669,0.45,3.709,0.013,4.076-2.649
	c2.211-16.061,15.512-27.631,31.774-25.622c6.291,0.777,8.007-0.322,9.92-5.835c4.321-12.454,23.64-23.173,38.26-20.036
	c11.92,2.557,18.167-9.749,27.967-2.261c3.422,2.615,6.75-3.638,9.421-3.911c6.424-4.377,6.78-5.048,16.176-6.222
	c6.398-0.533,10.612,2.203,18.486,4.266c5.866,0,9.581,11.909,12.553,8.848c11.501-11.849,25.019-4.165,39.652,1.755
	c9.927,4.016,17.542,10.804,20.202,21.819c0.643,2.665,2.459,2.467,4.332,1.971c18.656-4.956,35.074,10.871,35.854,26.025
	c0.091,1.78,0.48,2.688,2.438,2.16c4.436-1.197,8.79-0.708,13.321-0.064c14.875,2.116,26.438,15.059,27.115,28.856
	c0.12,2.438,0.755,3.006,3.199,3.125c10.407,0.51,19.945,9.913,20.382,19.813c0.138,3.102-0.987,6.971,0.481,9.091
	c1.341,1.934,5.453,1.862,8.271,2.873c12.124,4.351,20.055,12.786,21.928,25.52c2.064,14.037-2.776,25.641-15.466,32.998
	c-2.18,1.264-1.988,1.48-0.877,3.45c4.602,8.161,5.113,16.725,0.931,25.215c-7.127,14.464-26.536,21.826-42.498,16.01
	c-3.85-1.403-5.068-1.125-6.713,3.18c-8.334,21.822-37.844,28.582-55.194,13.335c-1.789-1.571-2.624-2.249-4.77-0.26
	c-6.487,6.013-14.681,8.771-23.231,8.434c-9.813-0.387-18.902-3.95-26.702-10.277c-6.541-5.306-6.641-5.379,0.455-9.978
	c18.326-11.877,37.559-21.824,58.601-28.149c10.161-3.054,20.056-6.994,30.07-10.533c-16.463,1.888-32.626,4.872-49.28,8.942
	c4.142-6.898,7.901-13.162,11.89-19.804c-5.207,4.629-10.026,8.705-14.6,13.04c-3.888,3.685-6.815,9.086-11.351,11.248
	c-12.411,5.916-24.766,11.885-36.856,18.446c-9.252,5.02-15.385,12.542-19.341,22.059c-2.917,7.016-3.964,14.374-4.688,21.937
	c-1.441,15.067-1.548,30.208-1.221,45.23c0.264,12.049,0.581,24.181,1.137,36.258c0.882,19.185,2.283,38.302,4.019,57.412
	c1.347,14.836,3.079,29.577,6.592,44.114c4.573,18.927,10.866,36.963,23.63,52.125c1.122,1.294,2.624,0.696,3.947,0.698
	c30.059,0.022,60.116-0.014,90.175-0.002c74.917,0.026,149.835,0.084,224.752,0.063c3.021,0,6.156,0.606,9.089-0.758
	C894.118,755.947,894.235,755.829,894.294,755.653z M513.114,333.537c-0.51-0.033-1.02-0.066-1.529-0.1
	c-0.973,14.974-1.941,29.948-2.928,44.92c-0.079,1.186,0.539,2.761-0.808,3.411c-1.705,0.822-2.281-1.103-3.159-1.932
	c-7.783-7.352-15.479-14.796-23.224-22.189c-0.6-0.574-1.083-1.689-2.28-0.95c1.38,3.732,4.848,5.84,6.922,9.012
	c0.563,0.862,1.473,1.896,0.859,2.985c-0.913,1.62-1.808-0.464-2.712-0.212c-2.145,0.599-3.917-2.071-6.727-0.276
	c8.496,3.016,14.955,8.245,20.68,14.604c5.646,6.273,10.048,12.675,8.718,21.868c-0.703,4.857-0.792,9.907-0.893,14.827
	c-0.31,15.055-2.416,30.02-2.056,45.095c0.017,0.71,0.207,1.599-0.999,1.949c-2.867-2.379-6.032-4.615-8.732-7.314
	c-11.298-11.296-23.516-21.654-33.978-33.807c-7.534-8.75-11.422-17.999-8.017-29.876c1.303-4.544,1.828-9.636,1.79-14.627
	c-3.933,6.79-5.139,14.508-7.655,22.482c-6.502-10.924-12.614-21.194-18.727-31.464c-0.61,1.941-0.45,3.535,0.066,5.004
	c4.67,13.295,10.147,26.255,16.274,38.946c0.384,0.795,1.75,1.834,0.581,2.822c-0.823,0.696-2.029,0.396-3.108,0.027
	c-10.834-3.696-21.68-7.348-32.026-12.327c-4.122-1.983-8.37-3.707-12.56-5.549c2.542,3.75,6.029,5.914,9.49,8.136
	c11.043,7.091,21.872,14.565,34.62,18.458c7.886,2.407,14.318,6.971,19.601,13.252c5.788,6.882,12.109,13.308,17.925,20.134
	c4.128,4.846,8.833,9.108,12.871,14.052c5.887,7.207,13.255,13.118,19.16,20.374c1.201,1.476,1.724,1.426,3.352-0.25
	c12.385-12.751,23.99-26.211,36.09-39.218c4.518-4.854,8.661-10.057,13.223-14.866c4.728-4.982,9.031-10.368,16.41-12.187
	c5.405-1.333,10.647-3.723,15.637-6.277c10.125-5.184,19.168-12.164,28.808-18.167c0.523-0.326,1.533-1.016,0.848-2.661
	c-14.934,6.605-29.704,13.413-45.844,17.484c6.574-15.257,12.735-30.143,16.841-45.927c-5.9,9.782-11.801,19.563-17.912,29.695
	c-2.288-6.886-4.239-12.754-6.502-19.561c-0.689,1.525-1.094,1.977-1.004,2.288c1.875,6.557,1.776,13.381,2.75,20.058
	c0.172,1.181,1.473,2.121,0.735,3.47c-2.57,4.708-4.447,10.01-7.855,14.006c-10.789,12.648-23.699,23.233-35.4,35.014
	c-2.393,2.408-5.056,4.558-7.671,6.733c-1.753,1.457-3.005,1.604-3.154-1.332c-0.56-11.098-1.311-22.186-1.823-33.285
	c-0.436-9.434-0.635-18.879-0.96-28.319c-0.036-1.081,0.098-2.315-0.368-3.208c-1.455-2.796-0.109-5.032,1.675-6.619
	c7.256-6.454,10.167-17.311,21.113-20.41c-5.562-0.032-3.159-2.684-1.846-4.525c3.384-4.741,6.965-9.34,10.467-13.996
	c-10.381,9.627-20.826,18.959-31.833,28.739C514.567,365.483,513.629,349.531,513.114,333.537z"/>
<path fill-rule="evenodd" clip-rule="evenodd" fill="#E0C497" d="M898.109,897.846c0.079-79.428,0.149-158.854,0.266-238.283
	c0.004-2.441-0.568-4.96,0.501-7.34c0.05,26.18,0.145,52.356,0.144,78.532c-0.003,53.921-0.048,107.841-0.13,161.761
	C898.887,894.287,899.659,896.265,898.109,897.846z"/>
<path fill-rule="evenodd" clip-rule="evenodd" fill="#E0C497" d="M898.871,632.12c-0.886-1.093-0.526-2.393-0.527-3.598
	c-0.032-45.482-0.046-90.965-0.025-136.448c0-1.507-0.44-3.122,0.554-4.525c0.054,28.917,0.142,57.831,0.152,86.745
	C899.03,593.569,898.926,612.844,898.871,632.12z"/>
<path fill-rule="evenodd" clip-rule="evenodd" fill="#E0C497" d="M898.873,480.573c-1.146-4.114-0.474-8.318-0.49-12.469
	c-0.103-26.778-0.08-53.556-0.065-80.335c0.001-1.354-0.399-2.812,0.548-4.055C898.867,416.002,898.87,448.287,898.873,480.573z"/>
<path fill-rule="evenodd" clip-rule="evenodd" fill="#D9A75A" d="M692.872,778.131c-19.483,0.616-38.197,0.963-56.885,1.856
	c-29.784,1.425-59.604,1.541-89.389,2.554c-21.275,0.724-42.53,0.745-63.78,0.527c-25.633-0.262-51.277-1.054-76.876-2.381
	c-24.706-1.28-49.422-1.888-74.147-2.701c13.477-1.061,26.99-1.444,40.448-2.242c20.211-1.196,40.433-1.053,60.637-1.953
	c37.616-1.675,75.305-2.316,112.932-0.967c17.533,0.631,35.117-0.466,52.542,1.149c13.271,1.229,26.537-0.418,39.673,1.041
	C656.017,777.012,674.193,774.666,692.872,778.131z"/>
<path fill-rule="evenodd" clip-rule="evenodd" fill="#E0C497" d="M130.24,756.03c43.308-0.059,86.615-0.15,129.923-0.167
	c63.411-0.025,126.822,0,190.232,0.023c2.638,0.001,5.278,0.202,7.914,0.313c-2.345,1.303-4.866,0.5-7.28,0.501
	c-95.947,0.032-191.896,0.004-287.843-0.002c-8.877-0.001-17.755,0.14-26.632,0.11C134.443,756.8,132.205,757.384,130.24,756.03z"/>
<path fill-rule="evenodd" clip-rule="evenodd" fill="#E0C497" d="M566.145,756.003c34.103-0.055,68.206-0.143,102.309-0.157
	c73.979-0.03,147.957-0.023,221.936-0.023c1.24,0,2.482,0.115,3.722,0.18c-2.936,1.367-6.069,0.761-9.092,0.761
	c-74.917,0.021-149.835-0.037-224.751-0.063c-30.06-0.012-60.117,0.024-90.176,0.002C568.77,756.7,567.268,757.297,566.145,756.003z
	"/>
<path fill-rule="evenodd" clip-rule="evenodd" fill="#E0C497" d="M894.461,755.653c-0.019-53.111-0.041-106.223-0.056-159.333
	c-0.004-19.313-0.006-38.628,0.041-57.941c0.004-1.663-0.522-3.434,0.573-4.985c0.071,18.073,0.195,36.143,0.204,54.212
	c0.023,54.233,0.011,108.467-0.042,162.7C895.18,752.079,895.86,754.033,894.461,755.653z"/>
<path fill-rule="evenodd" clip-rule="evenodd" fill="#E0C497" d="M895.014,371.123c-0.914-1.076-0.586-2.376-0.586-3.589
	c-0.014-39.252-0.012-78.505,0.007-117.758c0.001-1.21-0.339-2.512,0.58-3.585c0.059,18.182,0.168,36.361,0.163,54.539
	C895.171,324.195,895.073,347.659,895.014,371.123z"/>
<path fill-rule="evenodd" clip-rule="evenodd" fill="#36364B" d="M537.744,250.668"/>
</svg>
