<svg version="1.1" id="Layer_1" xmlns="http://www.w3.org/2000/svg" xmlns:xlink="http://www.w3.org/1999/xlink" x="0px" y="0px"
	 width="1024.191px" height="1024.191px" viewBox="0 0 1024.191 1024.191" enable-background="new 0 0 1024.191 1024.191"
	 xml:space="preserve">
<path fill="currentColor" d="M125.342,689.246c-0.015-6.445-0.029-12.893-0.044-19.334c0.988-3.416,0.581-6.93,0.583-10.396
	c0.013-16.473-0.054-32.943-0.128-49.416c-0.067-14.957,0.528-29.92-0.437-44.865c-0.084-19.271-0.22-38.541-0.243-57.812
	c-0.04-33.403-0.041-66.806,0.001-100.209c0.028-22.099,0.158-44.196,0.243-66.289c0.116-1.142,0.332-2.287,0.334-3.434
	c0.056-31.458,0.145-62.916,0.105-94.374c-0.02-15.956-0.278-31.911-0.429-47.866c0.018-22.265,0.056-44.528,0.024-66.792
	c-0.003-2.521-0.185-4.472,3.486-4.212c14.248,1.008,28.547-0.556,42.764,0.275c13.485,0.789,26.938,0.438,40.401,0.515
	c28.754,0.165,57.517,0.408,86.261-0.141c11.631-0.223,23.268-0.507,34.899-0.473c14.229,0.041,28.459,0.597,42.688,0.592
	c15.465-0.005,30.938-0.835,46.39-0.491c14.131,0.313,28.268,0.882,42.389,0.51c56.105-1.48,112.216-0.463,168.323-0.64
	c49.92-0.157,99.841-0.042,149.762-0.056c36.254-0.01,72.508-0.05,108.762-0.041c9.512,0.003,8.7-1.146,8.7,8.403
	c-0.01,93.479-0.033,186.958-0.053,280.438c-0.012,57.806-0.046,115.61-0.032,173.417c0.017,62.955,0.118,125.91,0.103,188.865
	c-0.012,41.641-0.165,83.279-0.252,124.916c-1.163-0.031-2.329-0.088-3.494-0.088c-102.455-0.02-204.909-0.037-307.364-0.049
	c-122.444-0.016-244.889-0.033-367.333-0.029c-31.815,0-63.63,0.082-95.444,0.125c-0.141-0.193-0.327-0.322-0.555-0.383
	c0.034-0.828,0.091-1.658,0.091-2.488c-0.03-56.432-0.041-112.863-0.115-169.295C125.709,715.169,125.476,702.207,125.342,689.246z
	 M892.817,514.847c0.044-17.469,0.127-34.937,0.126-52.406c0-87.396-0.016-174.79-0.04-262.185
	c-0.006-22.297-0.068-44.595-0.105-66.892c-0.033-2.001-1.489-1.279-2.518-1.285c-15.812-0.099-31.62-0.267-47.432-0.253
	c-27.111,0.023-54.224,0.211-81.336,0.242c-39.923,0.047-79.846,0.056-119.77,0.007c-24.725-0.03-49.448-0.269-74.172-0.278
	c-19.95-0.009-39.9,0.259-59.852,0.267c-24.265,0.01-48.528-0.125-72.794-0.198c-1.309-0.139-2.616-0.398-3.925-0.399
	c-31.445-0.034-62.891-0.048-94.336-0.034c-1.478,0.001-2.953,0.278-4.43,0.427c-12.97,0.074-25.938,0.223-38.906,0.209
	c-51.293-0.056-102.586-0.093-153.877-0.357c-4.993-0.026-6.703,1.002-6.646,6.375c0.319,30.487,0.281,60.979,0.269,91.47
	c-0.045,106.465-0.158,212.93-0.19,319.395c-0.024,79.475,0.033,158.949,0.061,238.424c0.012,33.654,0.117,67.313-0.037,100.967
	c-0.018,4.025,1.183,4.934,4.985,4.855c14.821-0.293,29.647-0.268,44.472-0.359c27.316,0.059,54.632,0.156,81.948,0.16
	c20.818,0,41.636-0.121,62.454-0.188c0.875,0.004,1.751,0.008,2.626,0.012c1.491,0.078,2.981,0.221,4.474,0.223
	c44.158,0.02,88.315,0.049,132.475,0.018c26.485-0.02,52.971-0.141,79.456-0.217c6.211,0.338,12.421,0.428,18.63-0.033
	c8.317,0.084,16.634,0.246,24.951,0.234c29.132-0.043,58.263-0.146,87.396-0.229c1.872-0.012,3.743-0.021,5.616-0.031
	c1.824,0.084,3.648,0.24,5.474,0.24c44.328,0.008,88.655,0.006,132.983-0.012c22.498-0.008,44.997-0.127,67.493,0.016
	c3.71,0.021,5.088-0.947,4.755-4.74c-0.35-3.973-0.232-7.99-0.232-11.99c-0.001-73.15,0.016-146.305,0.017-219.457
	c0.001-23.488-0.031-46.979-0.048-70.471c-0.234-1.604-0.67-3.207-0.674-4.811c-0.057-20.633-0.066-41.266-0.029-61.896
	C892.13,518.058,892.577,516.453,892.817,514.847z"/>
<path fill-rule="evenodd" clip-rule="evenodd" fill="currentColor" d="M580.334,434.606c1.256,8.746-0.591,16.604-1.143,24.457
	c-0.377,5.366-0.914,10.833-1.418,16.212c-1.555,16.614-1.858,33.344-3.326,49.968c-1.479,16.767-2.588,33.558-3.991,50.324
	c-1.472,17.596-2.516,35.22-4.019,52.807c-1.475,17.258-2.752,34.523-3.903,51.804c-1.195,17.943-2.568,35.875-3.974,53.804
	c-1.365,17.44-2.831,34.872-4.179,52.313c-1.321,17.104-2.813,34.197-3.94,51.318c-0.118,1.798-0.853,3.594-0.75,5.358
	c0.14,2.373-0.875,2.677-2.889,2.674c-22.718-0.022-45.437-0.025-68.153,0.126c-3.304,0.022-4.063-1.733-3.993-4.268
	c0.337-12.105-1.134-24.134-2.166-36.125c-1.3-15.111-2.243-30.265-3.529-45.375c-0.906-10.659-1.564-21.42-2.381-32.111
	c-1.031-13.505-0.903-27.081-2.801-40.545c-0.779-5.525-0.53-11.208-1.002-16.836c-1.461-17.46-2.176-34.981-3.277-52.473
	c-0.903-14.345-1.769-28.696-2.968-43.019c-1.542-18.426-2.862-36.859-4.054-55.312c-0.979-15.168-2.317-30.308-2.954-45.508
	c-0.607-14.508-1.343-29.044-2.931-43.468c-1.552-14.095-1.852-28.283-3.795-42.349c-0.694-5.025-0.005-10.246-1.154-15.318
	c-0.232-1.024-0.608-2.588,0.49-3.232c1.311-0.769,2.324,0.405,3.473,1.167c23.066,15.286,46.184,30.495,69.298,45.711
	c5.156,3.396,10.336,6.757,16.002,10.458c-10.385,6.812-18.697,15.317-27.433,23.274c-11.659,10.62-20.259,23.761-27.781,37.573
	c-0.262,0.481-1.228,0.606-0.646,1.54c0.807,1.293,1.673,0.412,2.558,0.23c9.356-1.924,18.273-5.177,27.071-8.824
	c24.162-10.019,46.289-23.521,67.141-39.198C574.568,439.697,577.101,437.337,580.334,434.606z"/>
<path fill-rule="evenodd" clip-rule="evenodd" fill="#D9A75A" d="M516.987,180.737c22.892,22.689,36.67,73.146,31.733,114.922
	c8.246-4.739,15.061-20.366,18.529-43.372c11.403,24.939,14.56,49.604,8.03,75.094c-7.067,27.589-25.417,45.637-51.201,58.133
	c1.166-10.22,0.911-19.711-1.784-28.955c-2.699-9.258-7.494-17.771-9.67-27.502c-5.365,10.699-15.349,22.241-12.043,56.39
	c-23.331-14.654-38.749-33.611-36.963-62.73c0.655-10.67,4.484-20.438,8.972-29.946c8.128-17.222,19.217-32.7,29.128-48.871
	c9.744-15.897,16.348-32.711,15.687-51.757C517.28,188.544,516.187,184.985,516.987,180.737z"/>
<path fill-rule="evenodd" clip-rule="evenodd" fill="#D9A75A" d="M588.457,387.123c-1.505,8.771-4.035,17.515-4.262,26.317
	c-0.301,11.711-6.098,18.707-14.815,25.629c-19.507,15.489-40.972,27.196-63.778,36.779c-6.242,2.622-12.541,5.017-19.251,6.511
	C521.671,452.003,553.825,418.438,588.457,387.123z"/>
</svg>
