<svg version="1.1" id="Layer_1" xmlns="http://www.w3.org/2000/svg" xmlns:xlink="http://www.w3.org/1999/xlink" x="0px" y="0px"
	 width="1024.191px" height="1024.191px" viewBox="0 0 1024.191 1024.191" enable-background="new 0 0 1024.191 1024.191"
	 xml:space="preserve">
<path fill="currentColor" d="M899.796,126.2c0.054,48.969,0.149,97.938,0.153,146.906c0.007,95.109-0.043,190.219-0.063,285.327
	c-0.021,113.857-0.029,227.719-0.046,341.572c-1.326,0.072-2.65,0.211-3.979,0.211c-69.614,0.02-139.229,0.021-208.847,0.027
	c-93.43,0.006-186.857,0-280.29,0.02c-50.13,0.016-100.259,0.066-150.388,0.104c-1.899-1.363-1.486-2.65,0.033-4.041
	c4.744-4.345,9.374-8.814,14.184-13.082c7.995-7.1,16.052-14.127,24.163-21.09c10.216-8.771,19.469-18.533,28.902-28.086
	c14.137-14.318,29.053-27.873,42.248-43.131c5.409-6.254,11.639-11.734,17.076-18.031c6.862-7.947,13.807-15.844,20.764-23.714
	c6.104-6.907,12.039-13.935,17.841-21.086c5.977-7.364,12.219-14.521,18.018-22.021c11.617-15.033,23.104-30.178,33.317-46.229
	c3.554-5.582,7.021-11.22,10.522-16.83c-0.374-0.271-0.749-0.536-1.124-0.806c-3.402,4.572-6.86,9.105-10.199,13.727
	c-15.371,21.266-32.122,41.424-48.811,61.65c-27.963,33.895-58.623,65.203-90.222,95.629
	c-20.771,20.003-42.396,39.078-64.284,57.859c-11.545,9.908-23.143,19.744-34.877,29.416c-2.813-0.096-5.628-0.271-8.444-0.272
	c-33.065-0.03-66.13-0.039-99.196-0.052c-0.051-29.989-0.143-59.979-0.147-89.969c-0.019-115.979-0.023-231.955-0.009-347.935
	c0.01-81.815,0.057-163.636,0.089-245.454c0.012-30.322,0.03-60.646,0.044-90.965c28.982,0.031,57.966,0.091,86.95,0.084
	c114.939-0.029,229.877-0.106,344.817-0.113c92.284-0.005,184.566,0.051,276.854,0.114C856.5,125.958,878.148,126.111,899.796,126.2
	z M197.212,133.86c-18.656,0.088-37.312,0.188-55.968,0.258c-7.135,0.027-7.13-0.004-7.13,7.012
	c-0.005,151.998-0.01,303.996-0.017,455.995c-0.004,96.664,0.016,193.33-0.103,289.996c-0.005,4.01,0.766,5.432,5.086,5.305
	c10.76-0.316,21.537-0.061,32.307-0.059c16.766,0.002,33.532-0.021,50.297-0.027c1.819-0.002,3.615,0.183,5.135-1.297
	c8.274-8.039,16.858-15.779,24.845-24.092c12.368-12.875,24.351-26.119,36.477-39.229c4.371-4.725,8.921-9.313,12.973-14.301
	c8.302-10.219,17.807-19.363,25.95-29.736c7.687-9.793,16.074-19.025,23.938-28.688c6.266-7.697,12.294-15.594,18.254-23.531
	c4.107-5.471,7.918-11.162,11.879-16.779c-1.48-0.877-2.016-0.084-2.536,0.496c-14.175,15.809-28.107,31.832-42.556,47.389
	c-17.645,19-34.893,38.393-53.442,56.523c-15.707,15.355-30.459,31.689-47.077,46.113c-1.097,0.951-2.068,2.74-3.684,1.731
	c-1.78-1.11-0.748-3.067-0.248-4.513c2.087-6.023,4.125-12.086,6.591-17.959c3.794-9.035,6.176-18.729,11.945-26.867
	c13.636-19.238,27.2-38.529,41.051-57.613c10.241-14.109,20.86-27.945,31.365-41.863c4.854-6.428,9.833-12.76,14.756-19.135
	c-1.722-0.104-2.932,0.381-3.704,1.254c-4.051,4.573-7.85,9.379-11.996,13.86c-10.688,11.56-20.823,23.593-31.013,35.584
	c-8.675,10.214-17.383,20.397-26.162,30.521c-0.978,1.127-1.953,3.271-3.928,2.273c-2.346-1.188-0.872-3.201-0.354-4.824
	c7.937-24.896,17.208-49.318,26.397-73.76c8.577-22.814,19.579-44.563,31.722-65.643c13.355-23.184,29.08-44.778,45.736-65.764
	c11.268-14.195,22.588-28.359,33.861-42.553c15.634-19.685,30.151-40.062,42.044-62.237c12.402-23.143,21.896-47.139,21.166-74.031
	c-0.084-3.094-0.611-6.173-0.833-9.266c-0.288-4.029,1.586-4.069,4.488-2.427c1.354,0.765,2.32,1.787,3.251,2.995
	c2.635,3.417,5.642,6.48,9.128,9.047c11.353,10.55,21.979,21.728,31.346,34.137c21.217,28.112,35.956,58.609,36.033,94.725
	c0.004,2.004,0.346,3.804,2.229,4.98c2.139-19.637,0.469-38.891-4.81-57.818c-3.267-11.7-8.452-22.704-12.618-34.08
	c-1.248-5.672-2.111-11.457-3.39-17.074c-2.989-13.146-3.952-26.549-4.507-39.804c-0.688-16.573-0.982-33.274,1.677-49.891
	c2.091-13.063,4.893-26.004,9.323-38.294c8.578-23.784,20.224-45.875,40.634-62.228c7.034-5.637,14.482-10.206,22.752-13.597
	c13.236-5.431,26.835-4.715,40.443-2.054c17.016,3.326,33.394,9.006,46.024,21.087c13.31,12.728,28.877,20.944,45.509,27.848
	c26.771,11.111,53.003,23.337,78.017,38.059c1.536,0.904,3.779,1.626,2.839,3.8c-0.883,2.034-3.375,1.347-4.979,1.033
	c-16.396-3.206-32.753-6.598-49.125-9.923c-15.178-3.082-30.427-5.705-45.712-8.234c-16.068-2.66-32.114-4.823-48.349-5.531
	c-12.188-0.531-24.27,0.921-36.303,2.872c-29.833,4.837-44.874,27.723-45.938,55.182c-0.336,8.669,2.313,16.996,2.652,25.559
	c1.146,29.064,0.479,58.127-2.918,86.992c-2.343,19.896-5.604,39.714-10.694,59.188c-7.235,27.669-16.755,54.457-28.873,80.367
	c-14.386,30.756-32.874,59.366-46.753,90.393c-11.188,25.006-19.605,50.785-21.359,78.201c-1.518,23.711,1.02,47.041,9.82,69.508
	c7.828,19.979,18.497,37.965,33.885,53.021c6.535,6.395,13.445,10.936,23.568,10.081c8.328-0.7,16.838,0.142,25.297-0.063
	c16.701-0.408,33.421-0.086,50.133-0.08c21.271,0.01,42.541,0.006,63.813,0.006c47.035-0.004,94.069-0.004,141.105-0.016
	c22.938-0.008,45.879-0.015,68.818-0.105c1.783-0.008,4.42,1.25,4.428-2.674c0.016-7.313,0.748-14.629,0.76-21.94
	c0.083-55.558,0.079-111.11,0.075-166.666c-0.008-105.052-0.041-210.103-0.05-315.15c-0.004-46.996,0.078-93.993,0.02-140.989
	c-0.045-36.44,0.453-72.885-0.615-109.323c-0.061-1.989-0.885-1.675-1.83-1.666c-3.986,0.035-7.976,0.266-11.961,0.268
	c-35.253,0.021-70.506,0.009-105.759,0.008c-26.115-0.001-52.23,0.035-78.351-0.01c-17.154-0.03-34.311-0.176-51.463-0.27
	c-1.646-0.126-3.287-0.36-4.934-0.362c-64.31-0.05-128.617-0.146-192.929-0.067c-16.97,0.021-33.947-0.542-50.911,0.396
	c-2.815,0.104-5.635,0.305-8.452,0.296c-20.935-0.062-41.868-0.162-62.805-0.251c-0.977-0.125-1.951-0.357-2.928-0.359
	c-24.637-0.037-49.274-0.155-73.912-0.029C229.133,133.562,213.166,132.922,197.212,133.86z M500.92,892.25
	c-37.05-42.238-49.412-92.377-50.612-146.482c-2.693,8.982-5.112,17.93-6.333,27.23c-3.226,24.633-3.496,49.115,3.18,73.266
	c3.962,14.344,10.384,27.455,21.494,37.719c3.685,3.4,7.363,7.604,12.627,8.119C487.637,892.728,494.11,892.25,500.92,892.25z
	 M666.101,246.999c-4.172-8.195-14.52-12.582-23.767-10.371c3.94,2.297,5.918,6.851,10.188,8.521
	C656.786,246.819,661.321,246.892,666.101,246.999z"/>
<path fill="currentColor" d="M899.796,126.2c-21.646-0.089-43.296-0.242-64.944-0.257c-92.281-0.063-184.565-0.119-276.853-0.114
	c-114.938,0.007-229.878,0.084-344.817,0.113c-28.984,0.007-57.968-0.053-86.95-0.084c1.045-1.255,2.467-0.746,3.739-0.746
	c145.619-0.015,291.239-0.007,436.858-0.012c107.465-0.004,214.93-0.041,322.395,0.038
	C892.727,125.141,896.481,123.882,899.796,126.2z"/>
<path fill="currentColor" d="M256.341,900.365c50.129-0.033,100.258-0.088,150.387-0.102c93.434-0.021,186.861-0.016,280.291-0.021
	c69.615-0.004,139.229-0.01,208.847-0.025c1.327,0,2.651-0.141,3.979-0.213c-1.423,1.813-3.404,0.949-5.12,0.949
	c-147.064,0.043-294.136,0.041-441.202,0.045c-63.956,0.002-127.914,0.018-191.873-0.016
	C259.884,900.984,257.98,901.642,256.341,900.365z"/>
<path fill="currentColor" d="M126.256,900.179c33.065,0.016,66.131,0.021,99.196,0.055c2.816,0.002,5.631,0.178,8.444,0.271
	c-1.209,0.84-2.579,0.463-3.874,0.463c-33.194,0.037-66.389,0.056-99.583,0.041C129.023,901.005,127.416,901.615,126.256,900.179z"
	/>
<path fill="#C0982A" d="M477.108,394.028c1.156-3.354,3.931-4.45,7.062-5.043c2.203-0.466,2.495,1.813,3.692,2.725
	c10.972,8.354,19.497,18.976,27.391,30.152c-0.084,4.859,8.427,15.127,12.99,15.54c0.303,0.024,0.692-0.935,1.047-1.434
	c4.166,11.377,9.354,22.382,12.618,34.081c5.275,18.932,6.947,38.185,4.81,57.817c-1.887-1.178-2.229-2.979-2.229-4.98
	c-0.077-36.111-14.816-66.608-36.033-94.724C499.086,415.756,488.458,404.578,477.108,394.028z"/>
<path fill="currentColor" d="M641.959,133.858c-14.48,0.085-28.962,0.236-43.443,0.244c-66.957,0.033-133.913,0.028-200.869,0.021
	c-1.485-0.001-2.978-0.195-4.462-0.299c16.971-0.938,33.945-0.376,50.915-0.396c64.313-0.077,128.619,0.021,192.932,0.067
	C638.672,133.498,640.316,133.732,641.959,133.858z"/>
<path fill="currentColor" d="M321.932,133.869c-24.449,0.094-48.896,0.248-73.347,0.261c-17.127,0.01-34.254-0.172-51.377-0.27
	c15.958-0.938,31.925-0.299,47.885-0.38c24.637-0.126,49.274-0.008,73.911,0.029C319.981,133.512,320.957,133.744,321.932,133.869z"
	/>
<path fill="currentColor" d="M515.252,421.862c-7.894-11.177-16.419-21.799-27.391-30.152c-1.197-0.912-1.489-3.19-3.692-2.725
	c-4.811-5.448-10.779-9.637-15.992-14.602c-6.29-5.991-11.445-13.115-13.838-21.696c-2.54-9.115-4.031-18.482-7.173-27.477
	c-7.912-22.648-22.597-37.816-48.664-41.349c-10.922-1.48-21.76-3.193-32.74-2.567c-17.175,0.979-34.262,2.749-51.294,5.468
	c-24.86,3.968-49.514,8.899-74.133,14.071c-6.427,1.35-12.85,2.726-19.302,3.945c-1.267,0.239-3.152,1.232-3.817-0.847
	c-0.549-1.719,0.223-2.879,1.984-3.931c17.875-10.679,36.545-19.798,55.47-28.402c16.283-7.403,32.712-14.487,49.005-21.871
	c3.243-1.47,6.067-3.776,8.585-6.373c20.919-21.577,46.655-32.147,76.463-32.146c15.918,0.002,29.893,6.171,42.422,16.267
	c18.989,15.298,31.598,34.877,39.807,57.407c7.254,19.91,11.772,40.548,15.331,61.466c3.804,22.384,4.744,45.152,9.563,67.388
	C516.39,416.239,517.385,419.313,515.252,421.862z M359.268,246.468c14.118-0.168,19.304-2.501,23.098-10.215
	C372.343,234.177,365.135,238.833,359.268,246.468z"/>
<path fill="currentColor" d="M124.342,690.246c-0.015-6.445-0.029-12.893-0.044-19.334c0.988-3.416,0.581-6.93,0.583-10.396
	c0.013-16.473-0.054-32.943-0.128-49.416c-0.067-14.957,0.528-29.92-0.437-44.865c-0.084-19.271-0.22-38.541-0.243-57.813
	c-0.04-33.403-0.041-66.806,0.001-100.209c0.028-22.099,0.158-44.196,0.243-66.289c0.116-1.142,0.332-2.287,0.334-3.434
	c0.056-31.458,0.145-62.916,0.105-94.374c-0.02-15.956-0.278-31.911-0.429-47.866c0.018-22.265,0.056-44.528,0.024-66.792
	c-0.003-2.521-0.185-4.472,3.486-4.212c14.248,1.008,28.547-0.556,42.764,0.275c13.485,0.789,26.938,0.438,40.401,0.515
	c28.754,0.165,57.517,0.408,86.261-0.141c11.631-0.223,23.268-0.507,34.899-0.473c14.229,0.041,28.459,0.597,42.688,0.592
	c15.465-0.005,30.938-0.835,46.39-0.491c14.131,0.313,28.268,0.882,42.389,0.51c56.105-1.48,112.216-0.463,168.323-0.64
	c49.92-0.157,99.841-0.042,149.762-0.056c36.254-0.01,72.508-0.05,108.762-0.041c9.512,0.003,8.7-1.146,8.7,8.403
	c-0.01,93.479-0.033,186.958-0.053,280.438c-0.012,57.806-0.046,115.611-0.032,173.417c0.017,62.955,0.118,125.91,0.103,188.865
	c-0.012,41.641-0.165,83.279-0.252,124.916c-1.163-0.031-2.329-0.088-3.494-0.088c-102.455-0.02-204.909-0.037-307.364-0.049
	c-122.444-0.016-244.889-0.033-367.333-0.029c-31.815,0-63.63,0.082-95.444,0.125c-0.141-0.193-0.327-0.322-0.555-0.383
	c0.034-0.828,0.091-1.658,0.091-2.488c-0.03-56.432-0.041-112.863-0.115-169.295C124.709,716.17,124.476,703.207,124.342,690.246z
	 M891.817,515.848c0.044-17.47,0.127-34.938,0.126-52.406c0-87.396-0.016-174.79-0.04-262.185
	c-0.006-22.297-0.068-44.595-0.105-66.892c-0.033-2.001-1.489-1.279-2.518-1.285c-15.812-0.099-31.62-0.267-47.432-0.253
	c-27.111,0.023-54.224,0.211-81.336,0.242c-39.923,0.047-79.846,0.056-119.77,0.007c-24.725-0.03-49.448-0.269-74.172-0.278
	c-19.95-0.009-39.9,0.259-59.852,0.267c-24.265,0.01-48.528-0.125-72.794-0.198c-1.309-0.139-2.616-0.398-3.925-0.399
	c-31.445-0.034-62.891-0.048-94.336-0.034c-1.478,0.001-2.953,0.278-4.43,0.427c-12.97,0.074-25.938,0.223-38.906,0.209
	c-51.293-0.056-102.586-0.093-153.877-0.357c-4.993-0.026-6.703,1.002-6.646,6.375c0.319,30.487,0.281,60.979,0.269,91.47
	c-0.045,106.465-0.158,212.93-0.19,319.395c-0.024,79.475,0.033,158.949,0.061,238.424c0.012,33.654,0.117,67.313-0.037,100.967
	c-0.018,4.025,1.183,4.934,4.985,4.855c14.821-0.293,29.647-0.268,44.472-0.359c27.316,0.059,54.632,0.156,81.948,0.16
	c20.818,0,41.636-0.121,62.454-0.188c0.875,0.004,1.751,0.008,2.626,0.012c1.491,0.078,2.981,0.221,4.474,0.223
	c44.158,0.02,88.315,0.049,132.475,0.018c26.485-0.02,52.971-0.141,79.456-0.217c6.211,0.338,12.421,0.428,18.63-0.033
	c8.317,0.084,16.634,0.246,24.951,0.234c29.132-0.043,58.263-0.146,87.396-0.229c1.872-0.012,3.743-0.021,5.616-0.031
	c1.824,0.084,3.648,0.24,5.474,0.24c44.328,0.008,88.655,0.006,132.983-0.012c22.498-0.008,44.997-0.127,67.493,0.016
	c3.71,0.021,5.088-0.947,4.755-4.74c-0.35-3.973-0.232-7.99-0.232-11.99c-0.001-73.15,0.016-146.305,0.017-219.457
	c0.001-23.488-0.031-46.979-0.048-70.471c-0.234-1.604-0.67-3.207-0.674-4.811c-0.057-20.633-0.066-41.266-0.029-61.896
	C891.13,519.059,891.577,517.453,891.817,515.848z"/>
</svg>
