<svg version="1.1" id="Layer_1" xmlns="http://www.w3.org/2000/svg" xmlns:xlink="http://www.w3.org/1999/xlink" x="0px" y="0px"
	 width="1024.191px" height="1024.191px" viewBox="0 0 1024.191 1024.191" enable-background="new 0 0 1024.191 1024.191"
	 xml:space="preserve">
<path fill="currentColor" d="M899.796,126.2c0.054,48.969,0.149,97.938,0.153,146.906c0.007,95.109-0.043,190.219-0.063,285.327
	c-0.021,113.857-0.03,227.718-0.046,341.572c-1.326,0.072-2.651,0.211-3.979,0.211c-69.614,0.019-139.229,0.021-208.846,0.027
	c-93.43,0.006-186.858,0-280.29,0.02c-50.13,0.015-100.259,0.066-150.388,0.103c-1.899-1.363-1.486-2.65,0.033-4.041
	c4.744-4.345,9.374-8.814,14.184-13.082c7.995-7.099,16.052-14.127,24.163-21.09c10.216-8.771,19.469-18.533,28.902-28.086
	c14.137-14.318,29.053-27.873,42.248-43.13c5.409-6.254,11.639-11.735,17.076-18.032c6.863-7.947,13.807-15.843,20.764-23.714
	c6.104-6.907,12.039-13.934,17.841-21.086c5.976-7.364,12.219-14.52,18.017-22.021c11.618-15.033,23.104-30.178,33.318-46.229
	c3.554-5.582,7.02-11.219,10.522-16.83c-0.374-0.27-0.749-0.536-1.124-0.805c-3.402,4.572-6.86,9.105-10.199,13.726
	c-15.371,21.266-32.122,41.424-48.811,61.651c-27.962,33.894-58.623,65.203-90.221,95.629
	c-20.771,20.002-42.396,39.078-64.284,57.859c-11.545,9.908-23.143,19.744-34.877,29.416c-2.813-0.096-5.628-0.271-8.444-0.273
	c-33.065-0.03-66.13-0.039-99.196-0.051c-0.051-29.99-0.143-59.979-0.147-89.969c-0.019-115.979-0.023-231.955-0.009-347.935
	c0.01-81.815,0.057-163.636,0.089-245.454c0.012-30.322,0.03-60.646,0.044-90.965c28.982,0.031,57.966,0.091,86.95,0.084
	c114.939-0.029,229.877-0.106,344.817-0.113c92.284-0.005,184.567,0.051,276.854,0.114C856.5,125.958,878.148,126.111,899.796,126.2
	z M197.212,133.86c-18.656,0.088-37.312,0.188-55.968,0.258c-7.135,0.027-7.13-0.004-7.13,7.012
	c-0.005,151.998-0.01,303.996-0.017,455.995c-0.004,96.664,0.016,193.33-0.103,289.996c-0.005,4.01,0.766,5.432,5.086,5.305
	c10.76-0.317,21.537-0.061,32.307-0.059c16.766,0.002,33.532-0.021,50.297-0.027c1.819-0.002,3.615,0.183,5.135-1.297
	c8.274-8.039,16.858-15.779,24.845-24.092c12.368-12.875,24.351-26.119,36.477-39.228c4.371-4.725,8.921-9.313,12.973-14.301
	c8.302-10.219,17.807-19.363,25.95-29.736c7.687-9.793,16.075-19.026,23.938-28.688c6.266-7.697,12.294-15.594,18.254-23.531
	c4.107-5.471,7.918-11.162,11.879-16.779c-1.481-0.877-2.016-0.084-2.536,0.496c-14.175,15.808-28.108,31.832-42.556,47.388
	c-17.645,19-34.893,38.393-53.442,56.524c-15.707,15.355-30.459,31.689-47.077,46.113c-1.097,0.951-2.068,2.74-3.684,1.732
	c-1.78-1.111-0.748-3.068-0.248-4.513c2.087-6.024,4.125-12.086,6.591-17.959c3.794-9.035,6.176-18.729,11.945-26.867
	c13.636-19.239,27.2-38.53,41.051-57.614c10.241-14.109,20.86-27.945,31.365-41.863c4.854-6.428,9.833-12.76,14.756-19.135
	c-1.722-0.104-2.932,0.381-3.704,1.254c-4.051,4.574-7.85,9.379-11.996,13.861c-10.688,11.559-20.824,23.592-31.013,35.584
	c-8.675,10.213-17.383,20.397-26.162,30.521c-0.978,1.127-1.953,3.271-3.928,2.273c-2.346-1.187-0.872-3.201-0.354-4.824
	c7.937-24.896,17.208-49.318,26.397-73.76c8.577-22.814,19.579-44.563,31.722-65.642c13.355-23.184,29.08-44.778,45.736-65.764
	c11.268-14.195,22.588-28.359,33.861-42.553c15.634-19.684,30.152-40.061,42.044-62.237c12.403-23.142,21.896-47.139,21.166-74.031
	c-0.084-3.094-0.611-6.173-0.833-9.266c-0.288-4.029,1.586-4.069,4.489-2.427c1.354,0.765,2.32,1.787,3.251,2.995
	c2.634,3.417,5.641,6.48,9.128,9.047c11.352,10.55,21.979,21.728,31.345,34.137c21.217,28.113,35.956,58.61,36.033,94.725
	c0.004,2.004,0.346,3.804,2.23,4.98c2.139-19.636,0.469-38.89-4.81-57.818c-3.266-11.7-8.452-22.704-12.618-34.08
	c-1.248-5.672-2.111-11.457-3.389-17.074c-2.99-13.146-3.953-26.549-4.507-39.804c-0.688-16.573-0.983-33.274,1.676-49.891
	c2.091-13.063,4.893-26.004,9.324-38.294c8.578-23.784,20.223-45.875,40.634-62.228c7.034-5.637,14.482-10.206,22.751-13.597
	c13.237-5.431,26.835-4.715,40.444-2.054c17.016,3.326,33.393,9.006,46.024,21.087c13.31,12.728,28.877,20.944,45.509,27.848
	c26.771,11.111,53.003,23.337,78.017,38.059c1.536,0.904,3.779,1.626,2.839,3.8c-0.883,2.034-3.375,1.347-4.979,1.033
	c-16.395-3.206-32.753-6.598-49.125-9.923c-15.178-3.082-30.427-5.705-45.712-8.234c-16.068-2.66-32.114-4.823-48.348-5.531
	c-12.188-0.531-24.27,0.921-36.303,2.872c-29.833,4.837-44.874,27.723-45.938,55.182c-0.336,8.669,2.313,16.996,2.653,25.559
	c1.146,29.064,0.479,58.127-2.918,86.992c-2.343,19.896-5.604,39.714-10.695,59.188c-7.235,27.669-16.755,54.457-28.873,80.367
	c-14.385,30.756-32.874,59.367-46.753,90.393c-11.187,25.006-19.605,50.785-21.359,78.201c-1.518,23.711,1.02,47.041,9.82,69.508
	c7.828,19.978,18.497,37.965,33.885,53.021c6.535,6.395,13.445,10.936,23.568,10.082c8.329-0.701,16.838,0.141,25.297-0.064
	c16.701-0.408,33.421-0.086,50.133-0.08c21.271,0.01,42.541,0.006,63.813,0.006c47.035-0.004,94.069-0.004,141.105-0.016
	c22.939-0.008,45.879-0.014,68.818-0.105c1.784-0.008,4.42,1.25,4.428-2.674c0.016-7.313,0.748-14.629,0.76-21.94
	c0.083-55.558,0.079-111.111,0.075-166.666c-0.008-105.052-0.041-210.103-0.05-315.151c-0.004-46.996,0.078-93.993,0.02-140.989
	c-0.045-36.44,0.453-72.885-0.615-109.323c-0.061-1.989-0.885-1.675-1.83-1.666c-3.987,0.035-7.976,0.266-11.961,0.268
	c-35.253,0.021-70.506,0.009-105.759,0.008c-26.115-0.001-52.231,0.035-78.351-0.01c-17.154-0.03-34.31-0.176-51.463-0.27
	c-1.646-0.126-3.287-0.36-4.933-0.362c-64.31-0.05-128.617-0.146-192.929-0.067c-16.97,0.021-33.947-0.542-50.911,0.396
	c-2.815,0.104-5.635,0.305-8.452,0.296c-20.935-0.062-41.868-0.162-62.805-0.251c-0.976-0.125-1.951-0.357-2.928-0.359
	c-24.637-0.037-49.274-0.155-73.911-0.029C229.133,133.562,213.166,132.922,197.212,133.86z M500.92,892.25
	c-37.05-42.238-49.412-92.377-50.612-146.482c-2.694,8.982-5.113,17.929-6.333,27.23c-3.226,24.633-3.496,49.115,3.179,73.266
	c3.962,14.343,10.384,27.455,21.494,37.718c3.685,3.401,7.364,7.604,12.627,8.12C487.637,892.728,494.11,892.25,500.92,892.25z
	 M666.101,246.999c-4.172-8.195-14.52-12.582-23.767-10.371c3.94,2.297,5.918,6.851,10.188,8.521
	C656.786,246.819,661.321,246.892,666.101,246.999z"/>
<path fill="currentColor" d="M899.796,126.2c-21.646-0.089-43.296-0.242-64.944-0.257c-92.282-0.063-184.566-0.119-276.853-0.114
	c-114.938,0.007-229.878,0.084-344.817,0.113c-28.984,0.007-57.968-0.053-86.95-0.084c1.045-1.255,2.467-0.746,3.739-0.746
	c145.619-0.015,291.239-0.007,436.858-0.012c107.465-0.004,214.93-0.041,322.395,0.038
	C892.727,125.141,896.481,123.882,899.796,126.2z"/>
<path fill="currentColor" d="M256.341,900.365c50.129-0.033,100.258-0.088,150.387-0.101c93.433-0.021,186.861-0.016,280.291-0.021
	c69.615-0.004,139.229-0.01,208.846-0.025c1.327,0,2.652-0.141,3.979-0.213c-1.423,1.813-3.405,0.949-5.12,0.949
	c-147.065,0.043-294.136,0.041-441.203,0.045c-63.956,0.002-127.914,0.018-191.872-0.016
	C259.884,900.984,257.98,901.642,256.341,900.365z"/>
<path fill="currentColor" d="M126.256,900.179c33.065,0.015,66.131,0.021,99.196,0.054c2.816,0.002,5.631,0.178,8.444,0.271
	c-1.209,0.84-2.579,0.463-3.874,0.463c-33.194,0.037-66.389,0.055-99.583,0.041C129.023,901.005,127.416,901.615,126.256,900.179z"
	/>
<path fill="#C0982A" d="M477.108,394.028c1.157-3.354,3.931-4.45,7.062-5.043c2.203-0.466,2.495,1.813,3.692,2.725
	c10.972,8.354,19.497,18.976,27.391,30.152c-0.084,4.86,8.427,15.127,12.99,15.54c0.303,0.025,0.693-0.934,1.047-1.433
	c4.166,11.377,9.354,22.382,12.618,34.081c5.276,18.931,6.947,38.184,4.81,57.817c-1.887-1.178-2.229-2.978-2.23-4.98
	c-0.077-36.112-14.816-66.609-36.033-94.724C499.086,415.756,488.458,404.578,477.108,394.028z"/>
<path fill="currentColor" d="M641.959,133.858c-14.48,0.085-28.962,0.236-43.443,0.244c-66.957,0.033-133.913,0.028-200.869,0.021
	c-1.486-0.001-2.978-0.195-4.462-0.299c16.97-0.938,33.945-0.376,50.915-0.396c64.312-0.077,128.619,0.02,192.931,0.067
	C638.672,133.498,640.316,133.732,641.959,133.858z"/>
<path fill="currentColor" d="M321.932,133.869c-24.449,0.094-48.896,0.248-73.347,0.261c-17.127,0.01-34.254-0.172-51.377-0.27
	c15.958-0.938,31.925-0.299,47.885-0.38c24.637-0.126,49.274-0.008,73.911,0.029C319.981,133.512,320.957,133.744,321.932,133.869z"
	/>
<path fill="currentColor" d="M515.252,421.862c-7.894-11.177-16.419-21.799-27.391-30.152c-1.197-0.912-1.489-3.19-3.692-2.725
	c-4.811-5.448-10.779-9.637-15.992-14.602c-6.29-5.991-11.446-13.115-13.838-21.696c-2.54-9.115-4.031-18.482-7.173-27.477
	c-7.912-22.648-22.597-37.816-48.664-41.349c-10.922-1.48-21.76-3.193-32.74-2.567c-17.175,0.979-34.262,2.749-51.294,5.468
	c-24.86,3.968-49.514,8.899-74.133,14.071c-6.427,1.35-12.85,2.726-19.302,3.945c-1.267,0.239-3.152,1.232-3.817-0.847
	c-0.549-1.719,0.223-2.879,1.984-3.931c17.875-10.679,36.545-19.798,55.47-28.402c16.283-7.403,32.712-14.487,49.005-21.871
	c3.243-1.47,6.067-3.776,8.585-6.373c20.919-21.577,46.655-32.147,76.463-32.146c15.918,0.002,29.892,6.171,42.422,16.267
	c18.989,15.298,31.597,34.877,39.806,57.407c7.254,19.91,11.773,40.548,15.331,61.466c3.804,22.384,4.744,45.152,9.564,67.388
	C516.39,416.239,517.385,419.313,515.252,421.862z M359.268,246.468c14.118-0.168,19.303-2.501,23.097-10.215
	C372.343,234.177,365.135,238.833,359.268,246.468z"/>
</svg>
