<svg version="1.1" id="Layer_1" xmlns="http://www.w3.org/2000/svg" xmlns:xlink="http://www.w3.org/1999/xlink" x="0px" y="0px"
	 width="1024.191px" height="1024.19px" viewBox="0 0 1024.191 1024.19" enable-background="new 0 0 1024.191 1024.19"
	 xml:space="preserve"><style type="text/css">:root{--cover-ink:#333C5D;--cover-paper:#E9D094;}@media (prefers-color-scheme: dark){:root{--cover-ink:#E9D094;--cover-paper:#333C5D;}}</style>
<path fill-rule="evenodd" clip-rule="evenodd" fill="currentColor" d="M897.96,124.874c0.049,19.123,0.12,38.245,0.141,57.368
	c0.03,28.135-0.52,56.284,0.187,84.401c0.688,27.409,0.898,54.819,0.316,82.204c-0.453,21.327,0.153,42.619,0.125,63.927
	c-0.024,18.6-0.612,37.2-0.575,55.8c0.058,28.461,0.575,56.921,0.631,85.382c0.034,17.735-0.629,35.472-0.609,53.207
	c0.026,24.104,0.574,48.209,0.584,72.313c0.009,22.056-0.51,44.111-0.597,66.169c-0.115,29.197-0.037,58.395-0.042,87.593
	c-0.003,20.364-0.092,40.729,0.06,61.092c0.035,4.696-0.641,5.769-6.14,5.313c-10.684-0.885-21.582,1-32.3,0.31
	c-22.312-1.437-44.56,0.56-66.839,0.231c-18.373-0.271-36.754-0.014-55.131-0.066c-15.937-0.046-31.86-0.485-47.812-0.131
	c-16.386,0.363-32.831-1.191-49.188-0.478c-11.455,0.5-22.886,0.457-34.321,0.533c-11.493,0.077-22.991-0.77-34.484-0.73
	c-18.507,0.063-37.012,0.756-55.518,0.748c-19.281-0.007-38.561-0.647-57.843-0.791c-19.555-0.146-39.111-0.021-58.667-0.017
	c-25.107,0.006-50.233-0.588-75.313,0.252c-13.607,0.456-27.15-0.413-40.688-0.049c-12.669,0.341-25.304-0.864-38.03,0.423
	c-9.868,0.998-19.974-0.629-29.973-0.595c-15.337,0.053-30.716,1.36-45.998,0.582c-13.851-0.705-27.664-0.097-41.488-0.503
	c-3.849-0.113-3.255-2.28-3.256-4.566c-0.015-36.832-0.043-73.664-0.045-110.497c-0.012-219.326-0.017-438.652-0.019-657.979
	c0-0.496,0.089-0.992,0.133-1.484c3.329,0.026,6.661,0.069,9.993,0.069c165.604,0.002,331.206,0.003,496.81-0.003
	C720.698,124.9,809.33,124.885,897.96,124.874z M417.875,694.174c-1.636-0.187-3.272-0.372-4.908-0.558
	c11.02-2.449,21.634-5.681,32.261-9.103c33.75-10.87,63.468-28.494,89.473-52.396c16.413-15.086,30.427-32.318,42.385-51.102
	c18.111-28.45,37.78-55.377,64.813-76.353c22.112-17.157,46.096-31.009,71.925-41.251c49.024-19.441,100.155-29.239,152.916-30.36
	c1.221-0.025,3.395,0.569,3.353-1.056c-0.05-1.885-2.299-0.96-3.462-0.964c-28.15-0.083-56.145,0.865-84.054,5.788
	c-23.292,4.107-45.847,10.141-67.762,18.78c-18.336,7.229-35.731,16.433-53.434,26.661c1.313-2.123,1.988-3.636,3.031-4.827
	c4.87-5.563,7.002-13.542,16.02-15.509c3.051-0.666,6.443-5.439,7.391-8.953c2.346-8.699,8.605-17.134,16.958-16.167
	c8.116,0.938,10.788-2.957,13.411-8.354c2.151-4.426,7.847-6.143,7.385-12.92c-0.53-7.793,8.769-15.732,17.576-17.132
	c7.836-1.245,18.254,3.379,20.795,9.875c1.008,2.576,2.363,1.935,3.734,1.546c2.238-0.636,0.669-2.162,0.271-3.125
	c-4.17-10.073,2.354-20.928,13.149-21.335c2.731-0.104,3.813-0.714,4.817-3.356c2.703-7.114,8.047-10.916,15.862-10.927
	c6.085-0.009,10.702,1.838,15.82,6.047c4.97,4.087,9.685,6.866,9.587,13.906c-0.015,1.065,0.859,1.271,1.78,1.131
	c0.959-0.146,1.609-0.383,2.305-1.399c8.024-11.742,16.879-14.738,30.246-10.354c1.89,0.62,3.954,1.985,5.271-0.396
	c4.468-8.082,11.896-10.851,20.407-11.559c2.378-0.197,2.772-0.898,2.941-3.202c1.459-19.825,0.502-39.674,0.764-59.507
	c0.205-15.558,0.055-31.119,0.072-46.68c0.019-15.713,0.071-31.427,0.066-47.141c-0.005-14.995,0.428-30.014-0.264-44.979
	c-0.526-11.403-1.041-22.752-0.14-34.138c-0.605-0.176-1.21-0.506-1.815-0.506c-117.439-0.03-234.879-0.042-352.317-0.043
	c-130.098-0.001-260.195,0.003-390.293,0.034c-4.271,0.001-8.598-0.85-12.81,0.582c-0.155,2.473-0.446,4.945-0.446,7.418
	c-0.003,51.992,0.021,103.984,0.057,155.977c0.004,5.997-1.714,12.653,6.204,15.651c1.209,0.458,2.178,2.055,2.842,3.34
	c1.251,2.424,2.826,2.489,5.234,1.758c9.863-2.993,19.985,1.635,24.59,11.025c0.327,0.667,0.042,1.931,1.237,1.776
	c1.35-0.174,1.101-1.438,1.119-2.375c0.049-2.541-2.12-4.878-0.306-7.635c8.949-13.609,27.698-12.887,35.188,1.514
	c1.348,2.591,2.612,3.872,5.893,3.875c9.249,0.009,16.309,12.324,11.369,19.839c-1.707,2.598-0.636,2.462,1.21,3.465
	c2.815,1.527,3.613,1.856,5.143-1.916c4.313-10.63,22.752-9.676,30.973,0.694c4.841,6.107,1.942,15.367,9.34,20.25
	c2.188,1.443,4.634,3.715,4.878,6.634c0.263,3.134,0.964,3.218,3.893,2.438c12.523-3.331,25.138,4.979,27.26,17.651
	c0.207,1.233,0.314,2.614,1.624,2.744c13.043,1.291,15.101,14.262,22.712,21.304c0.582,0.54,1.09,2.199,0.851,2.398
	c-0.787,0.655-1.585,0.124-2.537-0.475c-17.995-11.289-36.546-21.474-56.428-29.175c-15.131-5.86-30.384-11.181-46.138-15.17
	c-14.267-3.612-28.669-6.038-43.244-8.057c-14.673-2.032-29.346-1.546-44.041-2.229c14.422,1.326,28.749,3.349,42.966,5.832
	c24.573,4.291,48.491,11.257,71.94,19.734c42.183,15.25,80.986,36.629,114.788,66.216c28.721,25.141,50.237,55.955,67.128,90.11
	c12.45,25.174,25.593,49.959,48.7,67.429c9.164,6.929,19.304,12.104,30.394,15.353c-32.738-19.335-55.474-47.151-71.351-82.757
	c20.661,16.736,42.689,28.115,66.493,36.144c14.46,4.877,29.536,6.643,44.595,8.323c3.243,0.362,2.753,0.958,1.195,3.013
	c-9.545,12.589-20.578,23.705-32.207,34.39c-23.625,21.707-51.506,36.118-80.987,47.517
	c-36.275,14.026-74.563,18.677-113.043,20.975c-19.476,1.163-39,2.737-58.572,2.089c-5.795-0.192-11.603-0.029-17.404-0.029
	c70.073,2.449,140.114,5.038,210.148,8.795c-11.414,1.265-22.839,2.589-34.303,3.294c-19.445,1.195-38.922,1.875-58.372,3.004
	c-21.076,1.222-42.12,3.092-63.208,3.959c-16.863,0.693-33.733,1.18-50.6,1.953c-22.635,1.037-45.286,1.623-67.913,3.056
	c-18.155,1.149-36.371,1.459-54.566,1.795c-4.092,0.075-4.822,1.416-4.815,5.146c0.087,51.826,0.082,103.652-0.104,155.478
	c-0.016,4.476,1.498,6.274,5.648,5.608c9.958-1.598,19.882,0.12,29.819,0.015c15.733-0.168,31.464-0.602,47.197-0.656
	c30.702-0.108,61.404-0.034,92.106-0.032c33.601,0.003,67.2,0.008,100.801,0.018c48.036,0.015,96.073,0.047,144.109,0.049
	c29.101,0.002,58.203-0.124,87.304-0.027c16.002,0.053,32.004,0.67,48.005,0.633c23.065-0.054,46.131-0.422,69.195-0.748
	c23.937-0.339,47.85,1.112,71.812,0.28c18.768-0.652,37.592,0.188,56.387,0.591c4.503,0.097,5.98-1.271,5.95-5.937
	c-0.205-32.054-0.02-64.109-0.173-96.164c-0.1-20.947-0.632-41.892-0.76-62.839c-0.016-2.655-0.923-2.938-3.076-3.035
	c-7.099-0.318-14.19-0.792-21.282-1.243c-14.457-0.922-28.905-2.007-43.371-2.771c-21.606-1.139-43.222-2.129-64.84-3.043
	c-11.581-0.49-23.181-0.556-34.763-1.051c-20.795-0.889-41.591-1.82-62.37-3.006c-10.602-0.604-21.222-0.658-31.8-1.189
	c-14.354-0.723-28.666-2.105-43.068-1.76c-6.232,0.149-12.471,0.025-18.707,0.025c0-0.504,0.001-1.008,0.001-1.512
	c1.383-0.199,2.766-0.397,4.148-0.597c1.491,0.051,2.987,0.195,4.475,0.139c41.923-1.603,83.856-2.694,125.81-3.055
	c20.525-0.177,41.05-0.429,61.575-0.614c6.237-0.057,12.477-0.009,18.715-0.009c-0.998-1.113-1.986-1.191-2.977-1.242
	c-89.914-4.599-179.88-7.711-269.902-8.971C478.461,693.844,448.167,694.183,417.875,694.174z"/>
<path fill-rule="evenodd" clip-rule="evenodd" fill="var(--cover-paper, #E9D094)" d="M897.96,124.874c-88.631,0.011-177.263,0.026-265.895,0.029
	c-165.604,0.006-331.206,0.005-496.81,0.003c-3.332,0-6.664-0.043-9.993-0.069c1.236-1.298,2.823-0.739,4.258-0.739
	c186.409-0.011,372.818-0.002,559.227,0.01c67.634,0.005,135.268,0.01,202.901,0.062C893.75,124.17,895.988,123.516,897.96,124.874z
	"/>
<path fill-rule="evenodd" clip-rule="evenodd" fill="none" d="M890.638,132.807c-0.901,11.386-0.387,22.734,0.14,34.138
	c0.691,14.966,0.259,29.984,0.264,44.979c0.005,15.714-0.048,31.428-0.066,47.141c-0.018,15.561,0.133,31.122-0.072,46.68
	c-0.262,19.833,0.695,39.682-0.764,59.507c-0.169,2.304-0.563,3.005-2.941,3.202c-8.512,0.708-15.939,3.477-20.407,11.559
	c-1.317,2.382-3.382,1.017-5.271,0.396c-13.367-4.384-22.222-1.388-30.246,10.354c-0.695,1.017-1.346,1.253-2.305,1.399
	c-0.921,0.141-1.795-0.065-1.78-1.131c0.098-7.04-4.617-9.819-9.587-13.906c-5.118-4.209-9.735-6.056-15.82-6.047
	c-7.815,0.011-13.159,3.813-15.862,10.927c-1.004,2.643-2.086,3.253-4.817,3.356c-10.796,0.407-17.319,11.262-13.149,21.335
	c0.398,0.963,1.968,2.489-0.271,3.125c-1.371,0.389-2.727,1.03-3.734-1.546c-2.541-6.496-12.959-11.12-20.795-9.875
	c-8.808,1.399-18.106,9.339-17.576,17.132c0.462,6.777-5.233,8.494-7.385,12.92c-2.623,5.396-5.295,9.292-13.411,8.354
	c-8.353-0.967-14.612,7.468-16.958,16.167c-0.947,3.514-4.34,8.287-7.391,8.953c-9.018,1.967-11.149,9.945-16.02,15.509
	c-1.043,1.191-1.718,2.704-3.031,4.827c17.702-10.229,35.098-19.433,53.434-26.661c21.915-8.64,44.47-14.673,67.762-18.78
	c27.909-4.923,55.903-5.871,84.054-5.788c1.163,0.004,3.412-0.921,3.462,0.964c0.042,1.625-2.132,1.03-3.353,1.056
	c-52.761,1.121-103.892,10.919-152.916,30.36c-25.829,10.242-49.813,24.094-71.925,41.251
	c-27.032,20.976-46.701,47.902-64.813,76.353c-11.958,18.783-25.972,36.016-42.385,51.102
	c-26.005,23.902-55.723,41.526-89.473,52.396c-10.627,3.422-21.241,6.653-32.261,9.103c1.636,0.186,3.272,0.371,4.91,0.558
	c0.122,0.588,0.224,1.687,0.366,1.692c7.781,0.302,15.361,2.062,23.036,3.034c14.547,1.844,29.248,2.447,43.811,4.192
	c21.054,2.523,42.241,2.551,63.337,4.123c7.547,0.563,15.16-1.42,22.624,0.804c-1.383,0.199-2.766,0.397-4.148,0.597
	c0,0.504-0.001,1.008-0.001,1.512c6.236,0,12.475,0.124,18.707-0.025c14.402-0.346,28.715,1.037,43.068,1.76
	c10.578,0.531,21.198,0.586,31.8,1.189c20.779,1.186,41.575,2.117,62.37,3.006c11.582,0.495,23.182,0.561,34.763,1.051
	c21.618,0.914,43.233,1.904,64.84,3.043c14.466,0.764,28.914,1.849,43.371,2.771c7.092,0.451,14.184,0.925,21.282,1.243
	c2.153,0.097,3.061,0.38,3.076,3.035c0.128,20.947,0.66,41.892,0.76,62.839c0.153,32.055-0.032,64.11,0.173,96.164
	c0.03,4.665-1.447,6.033-5.95,5.937c-18.795-0.403-37.619-1.243-56.387-0.591c-23.962,0.832-47.875-0.619-71.812-0.28
	c-23.064,0.326-46.13,0.694-69.195,0.748c-16.001,0.037-32.003-0.58-48.005-0.633c-29.101-0.097-58.203,0.029-87.304,0.027
	c-48.036-0.002-96.073-0.034-144.109-0.049c-33.601-0.01-67.2-0.015-100.801-0.018c-30.702-0.002-61.404-0.076-92.106,0.032
	c-15.733,0.055-31.464,0.488-47.197,0.656c-9.937,0.105-19.861-1.612-29.819-0.015c-4.15,0.666-5.664-1.133-5.648-5.608
	c0.186-51.825,0.192-103.651,0.104-155.478c-0.006-3.729,0.723-5.07,4.815-5.146c18.195-0.336,36.411-0.646,54.566-1.795
	c22.627-1.433,45.278-2.019,67.913-3.056c16.866-0.773,33.736-1.26,50.6-1.953c21.088-0.867,42.132-2.737,63.208-3.959
	c19.45-1.129,38.927-1.809,58.372-3.004c11.464-0.705,22.889-2.029,34.303-3.294c-70.034-3.757-140.075-6.346-210.148-8.795
	c5.802,0,11.609-0.163,17.404,0.029c19.572,0.648,39.097-0.926,58.572-2.089c38.479-2.298,76.768-6.948,113.043-20.975
	c29.481-11.398,57.362-25.81,80.987-47.517c11.629-10.685,22.662-21.801,32.207-34.39c1.558-2.055,2.048-2.65-1.195-3.013
	c-15.059-1.681-30.135-3.446-44.595-8.323c-23.804-8.028-45.832-19.407-66.493-36.144c15.877,35.605,38.612,63.422,71.351,82.757
	c-11.09-3.248-21.229-8.424-30.394-15.353c-23.107-17.47-36.25-42.255-48.7-67.429c-16.891-34.155-38.407-64.97-67.128-90.11
	c-33.802-29.587-72.605-50.966-114.788-66.216c-23.449-8.478-47.367-15.443-71.94-19.734c-14.218-2.483-28.544-4.506-42.966-5.832
	c14.694,0.684,29.367,0.197,44.041,2.229c14.575,2.019,28.977,4.444,43.244,8.057c15.754,3.989,31.007,9.31,46.138,15.17
	c19.882,7.701,38.433,17.886,56.428,29.175c0.952,0.599,1.75,1.13,2.537,0.475c0.239-0.199-0.269-1.858-0.851-2.398
	c-7.611-7.042-9.669-20.013-22.712-21.304c-1.31-0.13-1.417-1.511-1.624-2.744c-2.122-12.672-14.736-20.982-27.26-17.651
	c-2.929,0.779-3.63,0.695-3.893-2.438c-0.244-2.919-2.69-5.19-4.878-6.634c-7.397-4.883-4.499-14.143-9.34-20.25
	c-8.221-10.37-26.661-11.324-30.973-0.694c-1.53,3.772-2.328,3.443-5.143,1.916c-1.846-1.003-2.917-0.867-1.21-3.465
	c4.94-7.515-2.12-19.83-11.369-19.839c-3.281-0.003-4.545-1.284-5.893-3.875c-7.49-14.4-26.239-15.123-35.188-1.514
	c-1.813,2.757,0.355,5.094,0.306,7.635c-0.018,0.938,0.231,2.201-1.119,2.375c-1.195,0.154-0.91-1.109-1.237-1.776
	c-4.605-9.391-14.728-14.019-24.59-11.025c-2.408,0.731-3.983,0.666-5.234-1.758c-0.664-1.285-1.632-2.882-2.842-3.34
	c-7.917-2.998-6.199-9.654-6.204-15.651c-0.036-51.992-0.06-103.984-0.057-155.977c0-2.473,0.291-4.945,0.443-7.415
	c5.159,0.053,10.32,0.146,15.482,0.147c211.604,0.021,423.207,0.046,634.811,0.034C819.34,133.057,854.989,132.895,890.638,132.807z
	"/>
<path fill-rule="evenodd" clip-rule="evenodd" fill="var(--cover-paper, #E9D094)" d="M571.051,708.02c-7.464-2.224-15.077-0.241-22.624-0.804
	c-21.096-1.572-42.283-1.6-63.337-4.123c-14.563-1.745-29.264-2.349-43.811-4.192c-7.675-0.973-15.255-2.732-23.036-3.034
	c-0.143-0.006-0.244-1.104-0.366-1.692c30.289,0.009,60.584-0.33,90.869,0.094c90.022,1.26,179.988,4.372,269.902,8.971
	c0.99,0.051,1.979,0.129,2.977,1.242c-6.238,0-12.478-0.048-18.715,0.009c-20.525,0.186-41.05,0.438-61.575,0.614
	c-41.953,0.36-83.887,1.452-125.81,3.055C574.039,708.215,572.542,708.07,571.051,708.02z"/>
</svg>
