<svg version="1.1" id="Layer_1" xmlns="http://www.w3.org/2000/svg" xmlns:xlink="http://www.w3.org/1999/xlink" x="0px" y="0px"
	 width="1024.191px" height="1024.191px" viewBox="0 0 1024.191 1024.191" enable-background="new 0 0 1024.191 1024.191"
	 xml:space="preserve">
<path fill="currentColor" d="M897.96,124.874c0.049,19.123,0.12,38.245,0.141,57.368c0.03,28.135-0.52,56.284,0.188,84.401
	c0.688,27.409,0.897,54.819,0.315,82.204c-0.452,21.327,0.153,42.619,0.125,63.927c-0.023,18.6-0.611,37.2-0.574,55.8
	c0.058,28.461,0.574,56.921,0.631,85.382c0.034,17.734-0.629,35.471-0.609,53.207c0.026,24.104,0.574,48.209,0.584,72.313
	c0.009,22.057-0.51,44.111-0.597,66.168c-0.115,29.197-0.037,58.396-0.042,87.594c-0.003,20.363-0.092,40.729,0.06,61.092
	c0.035,4.697-0.641,5.77-6.14,5.313c-10.684-0.885-21.582,1-32.3,0.311c-22.313-1.438-44.561,0.561-66.839,0.23
	c-18.373-0.27-36.754-0.014-55.131-0.064c-15.938-0.047-31.86-0.486-47.813-0.131c-16.386,0.361-32.831-1.191-49.188-0.479
	c-11.455,0.5-22.887,0.457-34.321,0.533c-11.493,0.076-22.991-0.77-34.484-0.73c-18.507,0.063-37.012,0.756-55.518,0.748
	c-19.281-0.008-38.562-0.646-57.843-0.791c-19.556-0.146-39.111-0.021-58.667-0.018c-25.107,0.006-50.233-0.588-75.313,0.252
	c-13.607,0.457-27.15-0.412-40.688-0.049c-12.669,0.342-25.304-0.863-38.03,0.424c-9.868,0.998-19.974-0.629-29.973-0.596
	c-15.337,0.053-30.716,1.359-45.998,0.582c-13.851-0.705-27.664-0.098-41.488-0.502c-3.849-0.113-3.255-2.281-3.256-4.566
	c-0.015-36.832-0.043-73.664-0.045-110.498c-0.012-219.326-0.017-438.651-0.019-657.979c0-0.496,0.089-0.992,0.133-1.484
	c3.329,0.026,6.661,0.069,9.993,0.069c165.604,0.002,331.206,0.003,496.811-0.003C720.698,124.9,809.33,124.885,897.96,124.874z
	 M417.875,694.173c-1.636-0.186-3.272-0.371-4.908-0.557c11.021-2.449,21.634-5.682,32.262-9.104
	c33.75-10.871,63.468-28.494,89.473-52.396c16.413-15.086,30.427-32.318,42.385-51.102c18.111-28.449,37.78-55.377,64.813-76.353
	c22.111-17.157,46.096-31.009,71.925-41.251c49.023-19.441,100.154-29.239,152.916-30.36c1.221-0.024,3.395,0.569,3.353-1.056
	c-0.05-1.885-2.299-0.96-3.462-0.964c-28.149-0.083-56.145,0.865-84.054,5.788c-23.292,4.106-45.847,10.141-67.762,18.779
	c-18.336,7.229-35.731,16.434-53.435,26.661c1.313-2.123,1.988-3.636,3.031-4.827c4.87-5.563,7.002-13.542,16.02-15.509
	c3.052-0.666,6.443-5.438,7.392-8.953c2.346-8.698,8.604-17.134,16.958-16.167c8.116,0.938,10.788-2.957,13.411-8.354
	c2.15-4.426,7.847-6.144,7.385-12.92c-0.53-7.793,8.769-15.732,17.576-17.132c7.836-1.245,18.254,3.379,20.795,9.875
	c1.008,2.576,2.362,1.935,3.733,1.546c2.238-0.636,0.67-2.162,0.271-3.125c-4.17-10.073,2.354-20.928,13.148-21.335
	c2.731-0.104,3.813-0.714,4.817-3.356c2.703-7.114,8.047-10.916,15.862-10.927c6.085-0.009,10.702,1.838,15.82,6.047
	c4.97,4.087,9.685,6.866,9.587,13.906c-0.016,1.065,0.858,1.271,1.779,1.131c0.959-0.146,1.609-0.383,2.306-1.399
	c8.023-11.742,16.879-14.738,30.246-10.354c1.89,0.62,3.953,1.985,5.271-0.396c4.468-8.082,11.896-10.851,20.407-11.559
	c2.378-0.197,2.771-0.898,2.94-3.202c1.459-19.825,0.502-39.674,0.765-59.507c0.205-15.558,0.055-31.119,0.071-46.68
	c0.02-15.713,0.071-31.427,0.066-47.141c-0.005-14.995,0.428-30.014-0.264-44.979c-0.526-11.403-1.041-22.752-0.141-34.138
	c-0.604-0.176-1.21-0.506-1.814-0.506c-117.439-0.03-234.879-0.042-352.317-0.043c-130.098-0.001-260.195,0.003-390.293,0.034
	c-4.271,0.001-8.598-0.85-12.81,0.582c-0.155,2.473-0.446,4.945-0.446,7.418c-0.003,51.992,0.021,103.984,0.057,155.977
	c0.004,5.997-1.714,12.653,6.204,15.651c1.209,0.458,2.178,2.055,2.842,3.34c1.251,2.424,2.826,2.489,5.234,1.758
	c9.863-2.993,19.985,1.635,24.59,11.025c0.327,0.667,0.042,1.931,1.237,1.776c1.35-0.174,1.101-1.438,1.119-2.375
	c0.049-2.541-2.12-4.878-0.306-7.635c8.949-13.609,27.698-12.887,35.188,1.514c1.348,2.591,2.612,3.872,5.893,3.875
	c9.249,0.009,16.309,12.324,11.369,19.839c-1.707,2.598-0.636,2.462,1.21,3.465c2.815,1.527,3.613,1.856,5.143-1.916
	c4.313-10.63,22.752-9.676,30.973,0.694c4.841,6.107,1.942,15.367,9.34,20.25c2.188,1.443,4.634,3.715,4.878,6.634
	c0.263,3.134,0.964,3.218,3.893,2.438c12.523-3.331,25.138,4.979,27.26,17.651c0.207,1.233,0.313,2.614,1.624,2.744
	c13.043,1.291,15.101,14.262,22.712,21.304c0.582,0.54,1.09,2.199,0.851,2.398c-0.786,0.655-1.585,0.124-2.536-0.475
	c-17.995-11.289-36.546-21.474-56.428-29.175c-15.131-5.86-30.384-11.181-46.138-15.17c-14.267-3.612-28.669-6.038-43.244-8.057
	c-14.673-2.032-29.346-1.546-44.041-2.229c14.422,1.326,28.749,3.349,42.966,5.832c24.573,4.291,48.491,11.257,71.94,19.734
	c42.183,15.25,80.986,36.629,114.788,66.216c28.721,25.141,50.236,55.955,67.128,90.111c12.45,25.174,25.593,49.959,48.7,67.428
	c9.164,6.93,19.304,12.105,30.394,15.354c-32.738-19.336-55.474-47.15-71.351-82.758c20.661,16.736,42.688,28.115,66.492,36.145
	c14.461,4.877,29.536,6.643,44.596,8.324c3.243,0.361,2.753,0.957,1.194,3.012c-9.545,12.59-20.577,23.705-32.206,34.391
	c-23.625,21.707-51.507,36.117-80.987,47.518c-36.275,14.025-74.563,18.676-113.043,20.975c-19.477,1.162-39,2.736-58.572,2.088
	c-5.795-0.191-11.603-0.029-17.404-0.029c70.073,2.449,140.114,5.039,210.148,8.797c-11.414,1.264-22.839,2.588-34.303,3.293
	c-19.445,1.195-38.922,1.875-58.372,3.004c-21.076,1.223-42.12,3.092-63.208,3.959c-16.863,0.693-33.733,1.18-50.6,1.953
	c-22.635,1.037-45.286,1.623-67.913,3.057c-18.155,1.148-36.371,1.459-54.566,1.795c-4.092,0.074-4.822,1.416-4.815,5.146
	c0.087,51.824,0.082,103.65-0.104,155.477c-0.016,4.477,1.498,6.275,5.648,5.609c9.958-1.6,19.882,0.119,29.819,0.014
	c15.733-0.168,31.464-0.602,47.197-0.656c30.702-0.107,61.404-0.033,92.106-0.031c33.602,0.004,67.2,0.008,100.801,0.018
	c48.036,0.016,96.073,0.047,144.109,0.049c29.101,0.002,58.203-0.123,87.304-0.027c16.002,0.055,32.004,0.672,48.006,0.635
	c23.064-0.055,46.131-0.422,69.194-0.748c23.938-0.34,47.851,1.111,71.813,0.279c18.768-0.652,37.592,0.188,56.387,0.592
	c4.503,0.096,5.979-1.271,5.95-5.938c-0.205-32.055-0.021-64.109-0.173-96.164c-0.101-20.947-0.632-41.893-0.761-62.84
	c-0.016-2.654-0.923-2.938-3.075-3.035c-7.1-0.316-14.19-0.791-21.282-1.242c-14.457-0.922-28.905-2.008-43.371-2.771
	c-21.606-1.139-43.222-2.129-64.84-3.043c-11.581-0.49-23.182-0.555-34.763-1.051c-20.796-0.889-41.592-1.82-62.37-3.006
	c-10.603-0.604-21.223-0.658-31.801-1.189c-14.354-0.723-28.666-2.105-43.067-1.76c-6.232,0.148-12.471,0.025-18.707,0.025
	c0-0.504,0.001-1.008,0.001-1.512c1.383-0.199,2.766-0.396,4.147-0.598c1.491,0.051,2.987,0.195,4.476,0.139
	c41.923-1.602,83.855-2.693,125.81-3.055c20.525-0.178,41.05-0.43,61.575-0.613c6.237-0.057,12.477-0.01,18.715-0.01
	c-0.998-1.113-1.985-1.191-2.977-1.242c-89.914-4.598-179.88-7.711-269.902-8.971C478.461,693.843,448.167,694.183,417.875,694.173z
	"/>
<path fill="currentColor" d="M897.96,124.874c-88.631,0.011-177.263,0.026-265.895,0.029c-165.604,0.006-331.206,0.005-496.811,0.003
	c-3.332,0-6.664-0.043-9.993-0.069c1.236-1.298,2.823-0.739,4.258-0.739c186.409-0.011,372.818-0.002,559.227,0.01
	c67.634,0.005,135.268,0.01,202.901,0.062C893.75,124.17,895.988,123.516,897.96,124.874z"/>
<path fill="none" d="M890.638,132.807c-0.9,11.386-0.387,22.734,0.141,34.138c0.69,14.966,0.259,29.984,0.264,44.979
	c0.005,15.714-0.048,31.428-0.066,47.141c-0.018,15.561,0.134,31.122-0.071,46.68c-0.263,19.833,0.694,39.682-0.765,59.507
	c-0.169,2.304-0.563,3.005-2.94,3.202c-8.512,0.708-15.939,3.477-20.407,11.559c-1.317,2.382-3.382,1.017-5.271,0.396
	c-13.367-4.384-22.223-1.388-30.246,10.354c-0.695,1.017-1.347,1.253-2.306,1.399c-0.921,0.141-1.795-0.065-1.779-1.131
	c0.098-7.04-4.617-9.819-9.587-13.906c-5.118-4.209-9.735-6.056-15.82-6.047c-7.815,0.011-13.159,3.813-15.862,10.927
	c-1.004,2.643-2.086,3.253-4.816,3.356c-10.797,0.407-17.319,11.262-13.149,21.335c0.398,0.963,1.968,2.489-0.271,3.125
	c-1.37,0.389-2.727,1.03-3.733-1.546c-2.541-6.496-12.959-11.12-20.795-9.875c-8.809,1.399-18.106,9.339-17.576,17.132
	c0.462,6.777-5.233,8.495-7.385,12.92c-2.623,5.396-5.295,9.292-13.411,8.354c-8.354-0.967-14.612,7.469-16.958,16.167
	c-0.947,3.515-4.34,8.287-7.392,8.953c-9.018,1.967-11.148,9.945-16.02,15.509c-1.043,1.191-1.718,2.704-3.031,4.827
	c17.702-10.229,35.099-19.433,53.435-26.661c21.915-8.64,44.47-14.673,67.762-18.779c27.909-4.924,55.903-5.871,84.054-5.788
	c1.163,0.004,3.412-0.921,3.462,0.964c0.042,1.625-2.132,1.03-3.353,1.056c-52.761,1.121-103.893,10.919-152.916,30.36
	c-25.829,10.242-49.813,24.094-71.925,41.251c-27.032,20.976-46.701,47.902-64.813,76.353
	c-11.958,18.783-25.972,36.016-42.385,51.102c-26.005,23.902-55.723,41.525-89.473,52.396c-10.627,3.422-21.241,6.652-32.262,9.104
	c1.637,0.186,3.272,0.371,4.91,0.557c0.122,0.588,0.225,1.688,0.366,1.693c7.781,0.301,15.361,2.061,23.036,3.033
	c14.547,1.844,29.248,2.447,43.811,4.191c21.055,2.523,42.241,2.551,63.337,4.123c7.548,0.564,15.16-1.42,22.624,0.805
	c-1.383,0.199-2.766,0.396-4.147,0.598c0,0.504-0.001,1.008-0.001,1.512c6.236,0,12.475,0.123,18.707-0.025
	c14.401-0.346,28.715,1.037,43.067,1.76c10.578,0.531,21.198,0.586,31.801,1.189c20.778,1.186,41.574,2.117,62.369,3.006
	c11.582,0.494,23.183,0.561,34.764,1.051c21.618,0.914,43.232,1.904,64.84,3.043c14.466,0.764,28.914,1.85,43.371,2.771
	c7.092,0.451,14.184,0.924,21.282,1.242c2.152,0.098,3.061,0.381,3.075,3.035c0.128,20.947,0.66,41.893,0.761,62.84
	c0.152,32.055-0.032,64.109,0.173,96.164c0.029,4.664-1.447,6.033-5.95,5.936c-18.795-0.402-37.619-1.242-56.387-0.59
	c-23.963,0.832-47.875-0.619-71.813-0.281c-23.064,0.326-46.13,0.695-69.195,0.748c-16.001,0.037-32.003-0.58-48.005-0.633
	c-29.101-0.096-58.203,0.029-87.304,0.027c-48.036-0.002-96.073-0.033-144.109-0.049c-33.601-0.01-67.199-0.016-100.801-0.018
	c-30.702-0.002-61.404-0.076-92.106,0.031c-15.733,0.055-31.464,0.488-47.197,0.656c-9.937,0.105-19.861-1.611-29.819-0.016
	c-4.15,0.666-5.664-1.133-5.648-5.607c0.186-51.824,0.192-103.65,0.104-155.479c-0.006-3.729,0.723-5.068,4.815-5.145
	c18.195-0.336,36.411-0.646,54.566-1.795c22.627-1.434,45.278-2.02,67.913-3.057c16.866-0.773,33.736-1.26,50.601-1.953
	c21.088-0.867,42.132-2.736,63.208-3.959c19.449-1.129,38.927-1.809,58.372-3.004c11.464-0.705,22.889-2.029,34.303-3.295
	c-70.034-3.756-140.075-6.346-210.148-8.795c5.802,0,11.609-0.162,17.404,0.029c19.572,0.648,39.097-0.926,58.572-2.088
	c38.479-2.299,76.768-6.949,113.043-20.977c29.48-11.396,57.361-25.809,80.986-47.516c11.629-10.686,22.662-21.801,32.207-34.391
	c1.559-2.055,2.049-2.65-1.194-3.014c-15.06-1.68-30.136-3.445-44.596-8.322c-23.804-8.027-45.832-19.406-66.492-36.145
	c15.877,35.605,38.611,63.422,71.351,82.758c-11.09-3.248-21.229-8.424-30.394-15.354c-23.107-17.469-36.25-42.254-48.7-67.428
	c-16.892-34.156-38.407-64.971-67.128-90.111c-33.803-29.587-72.605-50.966-114.788-66.216
	c-23.449-8.478-47.367-15.443-71.94-19.734c-14.218-2.483-28.544-4.506-42.966-5.832c14.694,0.684,29.367,0.197,44.041,2.229
	c14.575,2.019,28.977,4.444,43.244,8.057c15.754,3.989,31.007,9.31,46.138,15.17c19.882,7.701,38.434,17.886,56.428,29.175
	c0.952,0.599,1.75,1.13,2.537,0.475c0.239-0.199-0.269-1.858-0.851-2.398c-7.611-7.042-9.669-20.013-22.712-21.304
	c-1.311-0.13-1.417-1.511-1.624-2.744c-2.122-12.672-14.736-20.982-27.26-17.651c-2.929,0.779-3.63,0.695-3.893-2.438
	c-0.244-2.919-2.69-5.19-4.878-6.634c-7.397-4.883-4.499-14.143-9.34-20.25c-8.221-10.37-26.661-11.324-30.973-0.694
	c-1.53,3.772-2.328,3.443-5.143,1.916c-1.846-1.003-2.917-0.867-1.21-3.465c4.94-7.515-2.12-19.83-11.369-19.839
	c-3.281-0.003-4.545-1.284-5.893-3.875c-7.49-14.4-26.239-15.123-35.188-1.514c-1.813,2.757,0.355,5.094,0.306,7.635
	c-0.018,0.938,0.231,2.201-1.119,2.375c-1.195,0.154-0.91-1.109-1.237-1.776c-4.605-9.391-14.728-14.019-24.59-11.025
	c-2.408,0.731-3.983,0.666-5.234-1.758c-0.664-1.285-1.632-2.882-2.842-3.34c-7.917-2.998-6.199-9.654-6.204-15.651
	c-0.036-51.992-0.06-103.984-0.057-155.977c0-2.473,0.291-4.945,0.443-7.415c5.159,0.053,10.32,0.146,15.482,0.147
	c211.604,0.021,423.207,0.046,634.811,0.034C819.34,133.057,854.989,132.895,890.638,132.807z"/>
<path fill="currentColor" d="M571.051,708.021c-7.464-2.225-15.077-0.242-22.624-0.805c-21.096-1.572-42.283-1.6-63.337-4.123
	c-14.563-1.746-29.264-2.35-43.811-4.191c-7.676-0.975-15.255-2.732-23.036-3.035c-0.144-0.006-0.244-1.104-0.366-1.691
	c30.289,0.008,60.584-0.33,90.869,0.094c90.021,1.26,179.988,4.371,269.902,8.971c0.989,0.051,1.979,0.129,2.977,1.242
	c-6.238,0-12.479-0.049-18.715,0.01c-20.525,0.186-41.05,0.438-61.575,0.613c-41.953,0.359-83.887,1.451-125.81,3.055
	C574.039,708.214,572.542,708.07,571.051,708.021z"/>
<path fill="currentColor" d="M124.342,689.246c-0.015-6.445-0.029-12.893-0.044-19.334c0.988-3.416,0.581-6.93,0.583-10.396
	c0.013-16.473-0.054-32.943-0.128-49.416c-0.067-14.957,0.528-29.92-0.437-44.865c-0.084-19.271-0.22-38.541-0.243-57.812
	c-0.04-33.403-0.041-66.806,0.001-100.209c0.028-22.099,0.158-44.196,0.243-66.289c0.116-1.142,0.332-2.287,0.334-3.434
	c0.056-31.458,0.145-62.916,0.105-94.374c-0.02-15.956-0.278-31.911-0.429-47.866c0.018-22.265,0.056-44.528,0.024-66.792
	c-0.003-2.521-0.185-4.472,3.486-4.212c14.248,1.008,28.547-0.556,42.764,0.275c13.485,0.789,26.938,0.438,40.401,0.515
	c28.754,0.165,57.517,0.408,86.261-0.141c11.631-0.223,23.268-0.507,34.899-0.473c14.229,0.041,28.459,0.597,42.688,0.592
	c15.465-0.005,30.938-0.835,46.39-0.491c14.131,0.313,28.268,0.882,42.389,0.51c56.105-1.48,112.216-0.463,168.323-0.64
	c49.92-0.157,99.841-0.042,149.762-0.056c36.254-0.01,72.508-0.05,108.762-0.041c9.512,0.003,8.7-1.146,8.7,8.403
	c-0.01,93.479-0.033,186.958-0.053,280.438c-0.012,57.806-0.046,115.61-0.032,173.417c0.017,62.955,0.118,125.91,0.103,188.865
	c-0.012,41.641-0.165,83.279-0.252,124.916c-1.163-0.031-2.329-0.088-3.494-0.088c-102.455-0.02-204.909-0.037-307.364-0.049
	c-122.444-0.016-244.889-0.033-367.333-0.029c-31.815,0-63.63,0.082-95.444,0.125c-0.141-0.193-0.327-0.322-0.555-0.383
	c0.034-0.828,0.091-1.658,0.091-2.488c-0.03-56.432-0.041-112.863-0.115-169.295C124.709,715.169,124.476,702.207,124.342,689.246z
	 M891.817,514.847c0.044-17.469,0.127-34.937,0.126-52.406c0-87.396-0.016-174.79-0.04-262.185
	c-0.006-22.297-0.068-44.595-0.105-66.892c-0.033-2.001-1.489-1.279-2.518-1.285c-15.812-0.099-31.62-0.267-47.432-0.253
	c-27.111,0.023-54.224,0.211-81.336,0.242c-39.923,0.047-79.846,0.056-119.77,0.007c-24.725-0.03-49.448-0.269-74.172-0.278
	c-19.95-0.009-39.9,0.259-59.852,0.267c-24.265,0.01-48.528-0.125-72.794-0.198c-1.309-0.139-2.616-0.398-3.925-0.399
	c-31.445-0.034-62.891-0.048-94.336-0.034c-1.478,0.001-2.953,0.278-4.43,0.427c-12.97,0.074-25.938,0.223-38.906,0.209
	c-51.293-0.056-102.586-0.093-153.877-0.357c-4.993-0.026-6.703,1.002-6.646,6.375c0.319,30.487,0.281,60.979,0.269,91.47
	c-0.045,106.465-0.158,212.93-0.19,319.395c-0.024,79.475,0.033,158.949,0.061,238.424c0.012,33.654,0.117,67.313-0.037,100.967
	c-0.018,4.025,1.183,4.934,4.985,4.855c14.821-0.293,29.647-0.268,44.472-0.359c27.316,0.059,54.632,0.156,81.948,0.16
	c20.818,0,41.636-0.121,62.454-0.188c0.875,0.004,1.751,0.008,2.626,0.012c1.491,0.078,2.981,0.221,4.474,0.223
	c44.158,0.02,88.315,0.049,132.475,0.018c26.485-0.02,52.971-0.141,79.456-0.217c6.211,0.338,12.421,0.428,18.63-0.033
	c8.317,0.084,16.634,0.246,24.951,0.234c29.132-0.043,58.263-0.146,87.396-0.229c1.872-0.012,3.743-0.021,5.616-0.031
	c1.824,0.084,3.648,0.24,5.474,0.24c44.328,0.008,88.655,0.006,132.983-0.012c22.498-0.008,44.997-0.127,67.493,0.016
	c3.71,0.021,5.088-0.947,4.755-4.74c-0.35-3.973-0.232-7.99-0.232-11.99c-0.001-73.15,0.016-146.305,0.017-219.457
	c0.001-23.488-0.031-46.979-0.048-70.471c-0.234-1.604-0.67-3.207-0.674-4.811c-0.057-20.633-0.066-41.266-0.029-61.896
	C891.13,518.058,891.577,516.453,891.817,514.847z"/>
</svg>
