<svg version="1.1" id="Layer_1" xmlns="http://www.w3.org/2000/svg" xmlns:xlink="http://www.w3.org/1999/xlink" x="0px" y="0px"
	 width="1024.191px" height="1024.19px" viewBox="0 0 1024.191 1024.19" enable-background="new 0 0 1024.191 1024.19"
	 xml:space="preserve">
<path fill-rule="evenodd" clip-rule="evenodd" fill="currentColor" d="M125.342,689.246c-0.015-6.446-0.029-12.893-0.044-19.334
	c0.988-3.416,0.581-6.93,0.583-10.397c0.013-16.473-0.054-32.944-0.128-49.416c-0.067-14.956,0.528-29.919-0.437-44.865
	c-0.084-19.271-0.22-38.541-0.243-57.812c-0.04-33.403-0.041-66.806,0.001-100.209c0.028-22.099,0.158-44.196,0.243-66.289
	c0.116-1.142,0.332-2.287,0.334-3.434c0.056-31.458,0.145-62.916,0.105-94.374c-0.02-15.956-0.278-31.911-0.429-47.866
	c0.018-22.265,0.056-44.528,0.024-66.792c-0.003-2.521-0.185-4.472,3.486-4.212c14.248,1.008,28.547-0.556,42.764,0.275
	c13.485,0.789,26.938,0.438,40.401,0.515c28.754,0.165,57.517,0.408,86.261-0.141c11.631-0.223,23.267-0.507,34.899-0.473
	c14.229,0.041,28.459,0.597,42.688,0.592c15.464-0.005,30.938-0.835,46.389-0.491c14.131,0.313,28.268,0.882,42.389,0.51
	c56.105-1.48,112.216-0.463,168.323-0.64c49.92-0.157,99.841-0.042,149.762-0.056c36.254-0.01,72.508-0.05,108.762-0.041
	c9.511,0.003,8.7-1.146,8.7,8.403c-0.01,93.479-0.033,186.958-0.053,280.438c-0.012,57.806-0.046,115.611-0.032,173.417
	c0.016,62.955,0.118,125.911,0.102,188.866c-0.011,41.64-0.165,83.279-0.252,124.916c-1.163-0.032-2.329-0.088-3.494-0.088
	c-102.455-0.02-204.909-0.037-307.364-0.049c-122.444-0.015-244.889-0.034-367.333-0.03c-31.815,0.001-63.63,0.082-95.444,0.126
	c-0.141-0.193-0.327-0.322-0.555-0.383c0.034-0.828,0.091-1.658,0.091-2.489c-0.03-56.432-0.041-112.862-0.115-169.294
	C125.709,715.169,125.476,702.207,125.342,689.246z M892.817,514.848c0.044-17.47,0.127-34.938,0.126-52.407
	c0-87.395-0.015-174.789-0.04-262.184c-0.006-22.297-0.068-44.595-0.105-66.892c-0.033-2.001-1.489-1.279-2.518-1.285
	c-15.811-0.099-31.62-0.267-47.431-0.253c-27.112,0.023-54.224,0.211-81.336,0.242c-39.923,0.047-79.846,0.056-119.77,0.007
	c-24.724-0.03-49.448-0.269-74.172-0.278c-19.95-0.009-39.9,0.259-59.851,0.267c-24.265,0.01-48.529-0.125-72.794-0.198
	c-1.309-0.139-2.616-0.398-3.925-0.399c-31.445-0.034-62.891-0.048-94.336-0.034c-1.477,0.001-2.953,0.278-4.43,0.427
	c-12.969,0.074-25.938,0.223-38.906,0.209c-51.293-0.056-102.586-0.093-153.877-0.357c-4.993-0.026-6.703,1.002-6.646,6.375
	c0.319,30.487,0.281,60.979,0.269,91.47c-0.045,106.465-0.158,212.93-0.19,319.395c-0.024,79.475,0.033,158.948,0.061,238.423
	c0.012,33.655,0.117,67.313-0.037,100.968c-0.018,4.025,1.183,4.932,4.985,4.855c14.821-0.294,29.647-0.268,44.472-0.36
	c27.316,0.058,54.632,0.157,81.948,0.16c20.818,0.001,41.636-0.12,62.454-0.187c0.875,0.004,1.751,0.008,2.626,0.011
	c1.491,0.078,2.981,0.222,4.473,0.223c44.158,0.019,88.316,0.05,132.475,0.018c26.485-0.019,52.971-0.141,79.456-0.217
	c6.211,0.339,12.421,0.427,18.63-0.033c8.317,0.083,16.634,0.247,24.951,0.235c29.132-0.044,58.263-0.148,87.395-0.229
	c1.872-0.011,3.744-0.021,5.617-0.031c1.824,0.084,3.648,0.24,5.473,0.24c44.328,0.008,88.656,0.006,132.984-0.011
	c22.498-0.008,44.997-0.128,67.493,0.014c3.71,0.023,5.088-0.946,4.755-4.739c-0.35-3.974-0.233-7.991-0.233-11.99
	c-0.001-73.152,0.016-146.305,0.017-219.457c0.001-23.49-0.031-46.98-0.048-70.471c-0.234-1.604-0.67-3.207-0.674-4.811
	c-0.056-20.632-0.066-41.265-0.029-61.896C892.13,518.059,892.577,516.453,892.817,514.848z"/>
<path fill-rule="evenodd" clip-rule="evenodd" fill="#E9D094" d="M126.305,900.296c31.814-0.044,63.629-0.125,95.444-0.126
	c122.444-0.004,244.889,0.016,367.333,0.03c102.455,0.012,204.909,0.029,307.364,0.049c1.165,0,2.331,0.056,3.494,0.088
	c-1.62,1.322-3.531,0.682-5.292,0.682c-205.708-0.003-411.415-0.046-617.123-0.071c-48.637-0.007-97.273,0.046-145.909,0.026
	C129.848,900.973,127.939,901.555,126.305,900.296z"/>
<path fill-rule="evenodd" clip-rule="evenodd" fill="#E9D094" d="M125.342,689.246c0.134,12.961,0.367,25.923,0.384,38.884
	c0.074,56.432,0.085,112.862,0.115,169.294c0,0.831-0.057,1.661-0.091,2.489c-1.039-1.136-0.644-2.534-0.644-3.822
	c-0.032-67.792-0.045-135.584-0.044-203.377C125.062,691.558,125.244,690.402,125.342,689.246z"/>
<path fill-rule="evenodd" clip-rule="evenodd" fill="#E9D094" d="M125.328,195.25c0.151,15.955,0.409,31.91,0.429,47.866
	c0.04,31.458-0.049,62.916-0.105,94.374c-0.002,1.146-0.218,2.292-0.334,3.434c-0.074-16.964-0.188-33.922-0.215-50.88
	c-0.047-30.11-0.046-60.221-0.047-90.33C125.055,198.226,125.233,196.737,125.328,195.25z"/>
<path fill-rule="evenodd" clip-rule="evenodd" fill="#E9D094" d="M125.316,565.233c0.965,14.946,0.37,29.909,0.437,44.865
	c0.075,16.472,0.141,32.943,0.128,49.416c-0.003,3.468,0.405,6.981-0.583,10.397c-0.069-26.594-0.162-53.184-0.195-79.772
	C125.092,581.837,125.24,573.535,125.316,565.233z"/>
<path fill-rule="evenodd" clip-rule="evenodd" fill="#E9D094" d="M682.39,892.785c1.511-1.075,3.234-0.555,4.851-0.556
	c65.99-0.05,131.981-0.068,197.972-0.082c6.969-0.001,6.964,0.022,6.964-6.999c-0.001-97.651-0.006-195.304,0.034-292.955
	c0.001-1.936-0.627-4.002,0.62-5.826c0.017,23.494,0.049,46.984,0.048,70.475c-0.001,73.152-0.018,146.305-0.017,219.457
	c0,3.999-0.116,8.017,0.233,11.99c0.333,3.793-1.045,4.763-4.755,4.739c-22.496-0.142-44.995-0.021-67.493-0.014
	c-44.328,0.017-88.656,0.019-132.984,0.011C686.039,893.025,684.214,892.869,682.39,892.785z"/>
<path fill-rule="evenodd" clip-rule="evenodd" fill="#E9D094" d="M892.817,514.848c-1.067-1.509-0.586-3.229-0.586-4.851
	c-0.034-123.432-0.049-246.864-0.021-370.296c0-2.106-0.606-4.326,0.588-6.34c0.037,22.301,0.1,44.599,0.105,66.896
	c0.025,87.395,0.04,174.789,0.04,262.184C892.944,479.909,892.861,497.378,892.817,514.848z"/>
<path fill-rule="evenodd" clip-rule="evenodd" fill="#E9D094" d="M329.394,892.82c1.329-1.037,2.888-0.596,4.34-0.597
	c68.914-0.026,137.828-0.032,206.742,0.006c1.771,0.001,3.671-0.57,5.325,0.614c-26.489,0.076-52.975,0.198-79.46,0.217
	c-44.158,0.032-88.316,0.001-132.475-0.018C332.375,893.042,330.885,892.898,329.394,892.82z"/>
<path fill-rule="evenodd" clip-rule="evenodd" fill="#E9D094" d="M182.366,892.836c1.48-1.135,3.213-0.646,4.824-0.646
	c45.084-0.021,90.168-0.006,135.252,0.033c1.449,0.001,3.009-0.459,4.33,0.587c-20.822,0.066-41.64,0.188-62.458,0.187
	C236.998,892.993,209.682,892.894,182.366,892.836z"/>
<path fill-rule="evenodd" clip-rule="evenodd" fill="#E9D094" d="M564.427,892.811c1.157-0.969,2.547-0.588,3.834-0.589
	c34.896-0.025,69.791-0.026,104.687-0.008c1.291,0.001,2.678-0.358,3.83,0.603c-29.137,0.081-58.268,0.186-87.399,0.229
	C581.061,893.058,572.745,892.894,564.427,892.811z"/>
<path fill-rule="evenodd" clip-rule="evenodd" fill="#E9D094" d="M434.927,131.866c-20.774,0.089-41.55,0.23-62.324,0.247
	c-13.459,0.011-26.917-0.162-40.371-0.253c1.481-0.149,2.958-0.427,4.435-0.428c31.445-0.014,62.891,0,94.336,0.034
	C432.311,131.468,433.619,131.728,434.927,131.866z"/>
<path fill-rule="evenodd" clip-rule="evenodd" fill="currentColor" d="M393.594,770.209c-17.052-5.966-33.463-12.478-48.819-21.814
	c-14.366-8.734-26.701-19.721-37.697-32.111c-10.679-12.033-18.529-26.07-24.858-40.914c-7.219-16.933-12.257-34.586-13.772-52.811
	c-0.947-11.389-1.541-22.912-0.663-34.598c1.894-25.177,5.824-49.862,12.915-74.015c12.942-44.09,32.613-85.023,58.285-123.149
	c10.147-15.071,20.457-30.074,32.7-43.424c11.182-12.192,22.286-24.505,34.898-35.441c15.931-13.813,32.129-27.174,49.818-38.633
	c28.294-18.328,58.74-31.803,92-37.822c18.075-3.271,36.399-3.82,54.932-2.667c25.712,1.6,49.806,8.316,72.427,19.934
	c28.646,14.71,51.227,36.222,67.245,64.364c13.192,23.176,21.087,48.021,24.197,74.513c1.475,12.567,2.535,25.124,1.809,37.74
	c-0.9,15.639-2.903,31.124-5.648,46.601c-3.791,21.372-9.138,42.22-16.106,62.739c-12.603,37.104-30.825,71.25-53.679,102.973
	c-10.451,14.509-22.023,28.089-34.449,40.983c-20.357,21.124-42.15,40.43-67.12,56.027c-22.065,13.783-45.269,24.896-70.536,31.452
	c-2.524,0.655-4.98,1.573-8.938,2.84c34.562,2.979,67.766,5.248,100.873,8.71c33.189,3.47,66.207,7.935,99.917,12.982
	c-2.044,1.74-3.906,1.468-5.506,1.312c-14.004-1.368-28.059-1.476-42.102-1.961c-14.389-0.497-28.767-1.966-43.143-1.888
	c-12.286,0.066-24.524-0.919-36.748-1.385c-12.524-0.477-25.123-1.141-37.651-1.539c-12.076-0.384-24.194-0.961-36.243-1.502
	c-10.5-0.472-21.082-0.692-31.61-1.448c-15.513-1.115-31.14-1.304-46.743-1.438c-13.413-0.115-26.904-0.116-40.271-0.942
	c-30.947-1.913-61.885,0.112-92.799-0.965c-8.11-0.283-16.304-1.48-24.309-0.489c-7.234,0.896-14.418-1.569-21.545,0.493
	c-0.803,0.232-2.07,0.32-2.69-1.371C299.041,775.44,346.298,772.729,393.594,770.209z M700.737,475.346
	c-11.275,1.809-20.292,3.326-29.332,4.69c-14.604,2.204-29.236,4.235-43.836,6.474c-15.669,2.402-31.312,4.969-46.97,7.445
	c-12.787,2.021-25.578,4.019-38.368,6.021c-3.967,0.621-7.348,1.909-8.116,6.54c-0.701,4.23,2.884,5.068,5.32,6.637
	c20.703,13.323,41.433,26.605,62.208,39.816c17.583,11.182,35.29,22.17,52.8,33.465c2.451,1.581,2.936,0.922,4.187-1.086
	c6.151-9.867,11.464-20.189,16.46-30.653c11.303-23.672,20.667-48.093,26.914-73.613
	C702.476,479.148,706.378,473.024,700.737,475.346z M562.212,692.049c0.483-0.297,0.923-0.523,1.315-0.814
	c4.187-3.11,8.521-6.044,12.52-9.381c11.895-9.93,22.893-20.811,33.749-31.861c13.507-13.746,25.196-28.883,35.923-44.835
	c1.432-2.13,2.32-3.467-0.467-5.13c-8.28-4.939-16.471-10.03-24.691-15.068c-18.002-11.03-35.986-22.089-54.006-33.089
	c-12.968-7.916-25.965-15.787-39-23.594c-1.628-0.975-3.456-1.968-5.47-0.327c-1.808,1.474-1.847,2.926-1.29,5.151
	c4.451,17.806,8.566,35.695,13.036,53.496c4.622,18.408,9.552,36.739,14.302,55.116c4.028,15.584,8.002,31.183,11.972,46.782
	C560.463,689.907,560.652,691.348,562.212,692.049z M457.452,735.029c7.777-0.623,17.946-2.71,27.983-5.459
	c21.291-5.833,40.868-15.537,59.915-26.479c2.222-1.276,1.456-2.388,1.018-4.004c-5.164-19.076-10.17-38.197-15.433-57.246
	c-4.787-17.326-10.075-34.517-14.705-51.883c-4.118-15.449-8.268-30.878-12.987-46.158c-0.899-2.914-1.799-2.432-4.128-1.875
	c-2.84,0.679-2.479,2.919-2.876,4.481c-8.357,32.899-16.563,65.838-24.825,98.762c-7.061,28.13-14.181,56.245-21.215,84.382
	C448.781,735.22,448.906,735.25,457.452,735.029z M709.189,396.105c-0.771-10.621-2.62-21.077-5.263-31.414
	c-1.009-3.942-2.268-3.896-5.439-1.604c-23.132,16.717-46.63,32.933-69.606,49.857c-27.63,20.351-55.884,39.818-83.62,60.012
	c-1.459,1.063-2.858,2.233-4.151,3.491c-1.621,1.579-1.661,3.829-0.984,5.593c0.708,1.844,2.623,0.295,3.854,0.158
	c11.325-1.255,22.627-2.726,33.937-4.131c10.797-1.343,21.617-2.526,32.387-4.06c17.771-2.529,35.505-5.302,53.26-7.938
	c13.2-1.959,26.399-3.926,39.619-5.741c2.681-0.368,3.697-1.926,4.003-4.166c1.352-9.895,2.601-19.807,2.992-29.796
	C710.571,416.269,710.867,406.163,709.189,396.105z M429.138,735.3c3.619,1.035,5.261-1.026,6.295-5.489
	c5.012-21.618,10.472-43.132,15.657-64.709c4.492-18.694,8.946-37.392,13.799-56.003c5.521-21.17,10.206-42.559,15.224-63.859
	c0.33-1.399,0.668-3.325-0.808-3.914c-1.447-0.577-1.9,1.35-2.663,2.37c-1.088,1.456-2.453,2.712-3.492,4.199
	c-17.429,24.959-34.79,49.965-52.238,74.91c-18.751,26.807-37.564,53.569-56.387,80.326c-1.835,2.608-3.045,4.663,0.335,7.294
	C383.53,724.953,404.651,733.056,429.138,735.3z M537.257,459.099c0.867-0.48,1.992-1.105,3.118-1.729
	c10.773-5.953,20.446-13.561,30.518-20.549c23.912-16.594,47.568-33.558,71.378-50.301c17.423-12.252,34.931-24.382,52.383-36.593
	c2.222-1.555,3.498-2.978,1.852-6.288c-10.292-20.691-25.892-36.287-45.197-48.547c-2.425-1.54-3.611-0.442-4.795,1.214
	c-14.515,20.328-29.111,40.6-43.454,61.05c-14.814,21.124-29.376,42.424-44.041,63.652c-7.854,11.371-15.678,22.764-23.563,34.113
	c-0.675,0.972-1.483,1.598-0.47,2.907C535.562,458.775,536.026,459.226,537.257,459.099z M518.321,441.861
	c-0.381,1.822,0.118,3.174,1.985,3.941c2.302,0.946,3.407-0.55,4.478-2.046c18.13-25.316,36.172-50.696,54.383-75.954
	c12.665-17.565,25.589-34.944,38.333-52.453c6.042-8.299,11.895-16.735,17.923-25.044c1.471-2.026,1.354-2.605-1.157-3.801
	c-9.327-4.442-19.325-6.406-29.271-8.518c-13.188-2.801-26.641-1.606-39.981-2.107c-3.034-0.114-4.255,1.101-5.016,4.072
	c-4.802,18.747-9.731,37.463-14.822,56.134c-6.127,22.468-11.992,45-17.476,67.634C524.616,416.451,520.744,428.987,518.321,441.861
	z M319.934,629.841c1.013,4.297,1.903,8.627,3.061,12.884c4.968,18.273,12.686,35.164,24.745,49.972
	c4.299,5.278,4.566,5.541,8.227-0.001c16.281-24.646,32.931-49.035,49.915-73.204c13.776-19.604,27.216-39.448,40.623-59.309
	c5.294-7.841,10.104-16.01,15.111-24.044c0.553-0.889,1.795-2.095,0.901-2.848c-0.924-0.778-2.356-1.901-3.987-0.581
	c-1.005,0.814-2.369,1.168-3.449,1.908c-5.004,3.428-9.955,6.933-14.943,10.383c-22.562,15.604-45.108,31.229-67.703,46.784
	c-16.229,11.175-32.563,22.199-48.727,33.467C322.262,626.26,319.186,626.647,319.934,629.841z M546.122,278.837
	c-9.839,2.027-18.618,4.91-27.385,8.14c-19.517,7.188-36.836,18.182-53.828,29.836c-2.428,1.665-3.064,3.587-2.265,6.75
	c7.999,31.641,15.772,63.338,23.596,95.023c2.005,8.122,3.882,16.276,6.01,24.366c0.366,1.394,0.936,4.362,2.291,3.688
	c2.452-1.221,6.035-0.73,7.036-4.984c2.131-9.059,5.151-17.904,7.622-26.889c6.45-23.456,12.467-47.036,19.29-70.382
	C534.752,322.954,539.549,301.149,546.122,278.837z M477.482,457.69c0.1-3.996-1.749-7.437-2.366-11.111
	c-2.961-17.638-7.649-34.892-11.525-52.325c-4.122-18.544-8.281-37.079-12.334-55.638c-0.563-2.58-0.788-6.255-2.649-7.057
	c-2.206-0.95-4.438,2.182-6.253,3.886c-22.464,21.108-43.085,43.82-60.711,69.215c-2.971,4.28-1.598,5.57,1.863,7.718
	c12.235,7.592,24.293,15.472,36.503,23.106c15.4,9.631,30.861,19.166,46.367,28.628c1.639,1,3.718,3.361,5.628,1.334
	C474.137,463.183,478.125,461.883,477.482,457.69z M317.399,613.957c20.799-14.899,41.17-29.501,61.551-44.09
	c20.925-14.979,41.866-29.935,62.782-44.926c4.091-2.933,8.116-5.959,12.13-8.997c1.344-1.017,2.765-2.309,2.16-4.141
	c-0.564-1.711-2.309-0.645-3.461-0.681c-7.12-0.228-14.16,0.83-21.212,1.601c-6.533,0.713-13.045,1.625-19.578,2.331
	c-8.493,0.919-17.008,1.639-25.495,2.597c-9.251,1.044-18.472,2.35-27.724,3.382c-10.109,1.128-20.237,2.1-30.363,3.072
	c-1.967,0.188-2.568,1.009-3.091,3.004c-2.908,11.118-4.665,22.411-6.195,33.783C316.559,578.323,314.726,595.73,317.399,613.957z
	 M331.892,509.719c7.528-0.905,15.075-1.681,22.582-2.74c20.575-2.902,41.126-5.987,61.703-8.875
	c12.741-1.788,25.513-3.367,38.276-4.996c2.309-0.295,3.984-1.461,5.267-3.291c3.334-4.76,3.123-5.538-1.846-8.821
	c-3.382-2.235-6.648-4.643-9.998-6.927c-13.877-9.463-27.718-18.979-41.666-28.337c-10.734-7.201-21.591-14.22-32.44-21.246
	c-1.515-0.981-2.848-2.027-4.505,0.719c-8.236,13.649-16.216,27.43-22.806,41.956c-5.846,12.887-11.403,25.902-15.659,39.431
	C330.319,508.12,328.935,509.744,331.892,509.719z M497.042,465.137c-4.339-0.581-8.737,1.109-12.02,3.871
	c-9.865,8.299-16.113,18.517-13.824,32.184c1.37,8.184,7.187,14.793,17.679,9.43c12.663-6.474,19.099-17.263,20.966-30.926
	C511,471.216,505.464,465.079,497.042,465.137z M518.957,497.727c5.053-8.845,8.296-17.984,3.426-27.939
	c-1.893-3.867-5.079-6.435-9.68-6.568c-1.15-0.033-2.552-0.092-3.067,1.172c-0.69,1.691,0.872,2.035,1.909,2.849
	c5.947,4.666,8.959,10.606,8.695,18.428C520.1,489.788,518.358,493.576,518.957,497.727z"/>
<path fill-rule="evenodd" clip-rule="evenodd" fill="#C0982A" d="M497.042,465.137c8.423-0.058,13.959,6.079,12.801,14.559
	c-1.867,13.663-8.303,24.452-20.966,30.926c-10.492,5.363-16.309-1.246-17.679-9.43c-2.289-13.667,3.959-23.885,13.824-32.184
	C488.304,466.246,492.703,464.556,497.042,465.137z M500.129,484.698c0.034-7.443-4.484-10.507-11.155-7.563
	c-6.44,2.843-11.275,12.018-9.875,18.739c0.821,3.943,5.491,6.808,9.179,5.014C493.351,498.421,501.272,491.231,500.129,484.698z"/>
<path fill-rule="evenodd" clip-rule="evenodd" fill="#C0982A" d="M518.957,497.727c-0.599-4.15,1.144-7.938,1.283-12.06
	c0.264-7.821-2.748-13.762-8.695-18.428c-1.037-0.813-2.6-1.157-1.909-2.849c0.516-1.264,1.917-1.205,3.067-1.172
	c4.601,0.134,7.787,2.701,9.68,6.568C527.252,479.742,524.009,488.882,518.957,497.727z"/>
<path fill-rule="evenodd" clip-rule="evenodd" fill="currentColor" d="M500.129,484.698c1.143,6.533-6.778,13.723-11.852,16.19
	c-3.688,1.794-8.357-1.07-9.179-5.014c-1.4-6.722,3.435-15.896,9.875-18.739C495.645,474.191,500.164,477.255,500.129,484.698z"/>
</svg>
