<svg version="1.1" id="Layer_1" xmlns="http://www.w3.org/2000/svg" xmlns:xlink="http://www.w3.org/1999/xlink" x="0px" y="0px"
	 width="1024.191px" height="1024.191px" viewBox="0 0 1024.191 1024.191" enable-background="new 0 0 1024.191 1024.191"
	 xml:space="preserve">
<path fill-rule="evenodd" clip-rule="evenodd" fill="currentColor" d="M511.955,127.612c111.231-0.007,222.462-0.009,333.693-0.004
	c16.046,0.001,32.093,0.12,48.138,0c3.204-0.024,4.143,0.844,4.138,4.151c-0.101,68.543-0.102,137.088-0.063,205.633
	c0.027,49.227,0.212,98.454,0.199,147.68c-0.019,76.024-0.173,152.048-0.223,228.073c-0.039,59.354,0.007,118.707-0.028,178.061
	c-0.005,7.334,0.703,6.27-6.112,6.265c-74.152-0.062-148.306-0.135-222.459-0.199c-34.271-0.029-68.543-0.047-102.813-0.065
	c-17.404-0.01-34.807-0.013-52.209-0.016c-34.853-0.006-69.705-0.036-104.557-0.006c-32.84,0.027-65.682,0.286-98.52,0.042
	c-6.508-0.048-13.269-0.937-19.595-0.589c-12.428,0.685-24.821,0.411-37.214,0.466c-41.393,0.182-82.788-0.04-124.181,0.05
	c-3.436,0.009-3.657-1.417-3.657-4.129c0.012-59.201,0.06-118.401-0.108-177.601c-0.258-90.821,0.29-181.643-0.297-272.465
	c-0.411-63.711,0.015-127.428,0.078-191.143c0.039-39.102,0.09-78.204,0.153-117.306c0.011-6.796,0.049-6.762,6.607-6.764
	c117.153-0.037,234.305-0.084,351.458-0.128C493.573,127.615,502.764,127.619,511.955,127.612z M528.556,131.33
	c-10.878-0.031-21.756-0.063-32.634-0.094c-18.684-0.05-37.367-0.138-56.051-0.145c-101.849-0.033-203.697-0.03-305.545-0.137
	c-3.517-0.004-5.142,0.716-4.742,4.55c0.337,3.24,0.197,6.534,0.196,9.803c-0.008,95.618-0.022,191.237-0.048,286.855
	c-0.002,8.576-0.038,8.595,8.591,8.592c77.392-0.021,154.784-0.036,232.175-0.08c41.733-0.022,83.467-0.098,125.2-0.149
	c1.311,2.576,0.06,5.199,0.115,7.798c0.111,5.246-1.631,6.52-6.979,6.213c-5.082-0.291-10.194-0.063-15.293-0.063
	c0.014,0.637,0.027,1.273,0.041,1.911c5.929,0,11.858,0,18.958,0c-3.472,2.092-6.357,0.68-9.148,2.39
	c2.407,0.183,4.323,0.26,6.22,0.495c1.435,0.177,3.636-0.654,3.982,1.322c0.268,1.526,0.929,3.706-2.92,5.187
	c5.453-0.149,6.093,1.416,3.747,4.196c-0.847,1.004-1.178,1.677,0.088,2.626c2.416,1.811,0.887,2.337-0.978,2.716
	c-2.036,0.413-4.42,0.009-5.905,2.551c1.643,0.429,3.131,0.801,4.611,1.21c1.192,0.33,3.383-0.621,3.234,1.499
	c-0.127,1.807-2.249,1.188-3.521,1.359c-11.848,1.601-23.869,0.358-34.398,2.191c10.782,1.164,22.931,1.04,35.056,1.5
	c1.317,0.05,3.472-0.914,3.6,1.652c0.107,2.153-1.673,2.241-3.228,2.557c-1.163,0.236-2.352,0.61-2.61,1.823
	c1.087,2.024,3.595,0.834,4.973,2.633c-9.208,1.824-18.147,1.42-27.474,1.742c6.418,3.118,14.08-1.438,19.688,4.324
	c-1.925,2.235-5.06,0.294-7.127,2.626c5.227,0.398,10.169-0.227,14.808,2.012c-3.988,0.314-7.907,0.756-11.247,2.582
	c2.375,1.857,6.282,0.588,9.42,2.9c-3.542,0.257-6.723,0.488-9.906,0.72c3.362,1.767,7.115,0.205,10.401,2.377
	c-3.528,3.156-8.695,0.701-12.106,4.602c4.582-0.148,7.996,2.859,12.265,2.991c1.322,0.041,3.626,1.178,2.676,2.295
	c-2.062,2.427-1.962,7.189-6.774,6.937c-1.239-0.064-2.488,0.102-3.733,0.104c-7.012,0.012-14.026,0.006-20.343,0.006
	c7.522,3.906,16.884,1.49,25.427,3.986c-10.42,1.07-20.887-0.07-30.532,1.94c11.124,0.879,23.068-0.859,34.569,2.367
	c-0.052,2.223-2.293,1.498-2.517,2.946c1.091,1.572,3.249,0.914,4.974,2.704c-8.68,6.434-19.833,2.324-28.739,7.067
	c8.902,0.571,17.657,1.135,27.48,1.766c-3.933,3.591-7.849,1.961-11.409,3.342c2.555,0.584,4.66,1.051,6.756,1.551
	c1.046,0.25,1.557,1.056,1.621,2.03c0.09,1.352-1.088,1.259-1.94,1.438c-1.982,0.413-3.946,0.727-6.013,0.399
	c-2.153-0.341-2.173-0.209-4.592,1.374c4.369,0.444,8.955-0.329,12.726,2.68c0.661,0.528,2.035,0.434,1.791,1.765
	c-0.231,1.259-1.387,0.873-2.238,1.093c-6.197,1.6-12.469-0.034-19.115,0.173c1.984,2.004,5.035-0.319,6.354,2.378
	c-1.724,1.756-4.032,0.54-6.007,1.582c6.43,0.26,12.676,0.045,19.419,1.624c-2.558,1.948-5.096,1.274-7.75,1.935
	c5.686,2.644,11.466,0.247,16.996,2.112c-2.034,2.291-5.677,0.324-6.686,3.23c-1.065,3.069-3.415,3.285-5.95,3.301
	c-6.676,0.042-13.353,0.015-20.029,0.015c6.646,2.039,13.461,1.609,20.183,2.225c1.915,0.175,5.692-0.424,5.44,2.803
	c-0.177,2.265-3.456,1.865-5.544,2.039c-5.958,0.493-11.917,0.942-17.876,1.41c5.06-0.277,9.677,1.963,14.383,2.932
	c2.83,0.583,9.371-2.483,8.622,5.124c-0.087,0.885,1.363,1.032,2.293,1.201c1.118,0.202,2.542-0.351,3.222,1.109
	c-4.699,4.838-10.868,4.901-17.108,5.43c3.913,1.414,8.037,1.649,12.079,4.488c-2.977,0.39-5.103,0.668-8.36,1.095
	c1.581,0.563,1.972,0.71,2.367,0.843c1.886,0.634,5.361-0.888,5.419,1.941c0.066,3.252-3.447,2.071-5.573,2.419
	c-0.156,0.026-0.301,0.119-0.544,0.219c3.182,1.216,8.018,0.032,7.444,5.939c-0.118,1.219,1.679,0.962,2.712,1.132
	c6.774,1.122,13.56,1.28,20.487,0.006c-1,1.862-1.606,3.924-3.84,3.896c-5.708-0.071-10.271,3.897-15.862,4.307
	c-1.784,0.131-4.903-0.816-5.044,1.921c-0.15,2.922,3.196,2.16,5.047,2.963c0.144,0.062,0.132,0.484,0.171,0.646
	c-4.729,1.85-9.874,1.087-13.946,1.98c8.231,4.28,17.48,6.831,27.321,7.218c-1.921,1.916-4.236,0.757-6.898,2.016
	c2.01,0.18,3.299,0.295,4.894,0.438c-4.004,2.923-8.536,2.563-12.667,3.658c-2.534,0.672-4.484,0.792-2.866,5.137
	c1.408,3.774,4.108,3.212,7.37,5.06c-4.18,0-7.144,0-10.871,0c11.573,5.11,27.217,5.015,41.799-0.056c-4.013,0-7.596,0-11.181,0
	c3.472-1.989,7.119-2.903,10.957-3.342c-1.636-1.357-3.648-0.558-5.393-1.06c-0.524-0.151-1.373-0.644-1.363-0.958
	c0.081-2.526,3.318-0.729,3.924-2.887c-2.799,0.669-3.548-0.604-3.649-3.229c-0.257-6.617,6.055-1.582,7.766-4.551
	c-7.536-0.982-7.536-0.982-9.116-3.237c4.37-1.738,9.096-1.679,12.766-2.646c-2.502-3.503-9.137,4.021-11.017-3.914
	c-0.043-0.181-1.165-0.13-1.786-0.144c-0.622-0.014-1.255,0.104-1.863,0.021c-0.464-0.063-1.277,0.18-1.164-1.298
	c4.993,1.039,5.534-3.679,5.661-6.089c0.146-2.764,1.2-2.276,2.668-2.485c5.81-0.83,11.683-1.402,17.097-4.105
	c-5.838,0.319-11.574-1.116-17.39-0.173c-3.104,0.504-4.777-1.205-2.729-4.043c1.243-1.723-0.024-1.588-0.69-2.151
	c-0.914-0.774-2.553,0.098-3.239-1.48c1.421-1.493,3.899-0.575,5.181-2.265c-1.228-1.088-3.407-0.849-4.223-3.525
	c15.643-3.297,31.748-1.171,47.208-4.688c-9.367-0.27-18.792,0.484-28.038-0.481c-9.271-0.968-18.901-0.825-28.476-4.456
	c11.409-7.976,23.905-8.929,36.088-10.995c-3.771-0.514-7.429-0.438-11.125-0.052c-3.717,0.389-7.487,0.28-11.112-1.018
	c4.467-1.731,9.431-0.878,14.322-3.006c-4.787-0.85-9.295,0.511-13.215-1.705c3.504-1.203,7.513,0.353,10.922-1.922
	c-3.29-0.354-6.551-0.418-9.809-0.336c-3.315,0.083-6.341-0.691-9.42-2.313c11.066-2.615,22.038-3.031,32.842-4.647
	c-3.469-0.361-6.864-0.248-10.285,0.036c-4.936,0.411-9.921,0.231-14.885,0.279c-1.056,0.011-2.416,0.229-2.507-1.321
	c-0.087-1.499,1.387-1.4,2.34-1.775c0.288-0.113,0.613-0.137,0.897-0.259c1.244-0.538,3.679,0.088,3.332-2.007
	c-0.234-1.411-1.749-2.81-3.719-3.035c-2.449-0.28-4.876-0.754-7.867-1.232c3.179-0.829,5.801-1.512,8.83-2.301
	c-4.22-2.766-8.518,0.649-12.906-1.731c10.409-2.732,20.74-1.538,30.446-4.901c-4.99,0-9.981,0-14.972,0
	c5.545-3.046,11.861-1.279,17.478-3.533c-1.431-0.988-3.442-0.23-4.909-2.031c14.087-1.473,27.197-6.631,41.174-7.118
	c-24.562-1.535-49.148,6.514-73.938-0.915c4.164-1.065,8.063-2.041,11.947-3.078c0.892-0.238,2.731,0.294,2.261-1.43
	c-0.801-2.927,1.434-2.668,2.881-3.013c2.567-0.609,5.191-0.994,7.804-1.392c8.817-1.342,17.642-2.648,26.462-3.969
	c-0.018-0.212-0.036-0.423-0.055-0.634c-8.526,0-17.054,0-25.581,0c5.743-2.552,11.702-3.07,17.705-3.272
	c-9.941-1.924-19.82,1.17-29.741-0.126c3.813-1.978,7.876-2.557,12.073-2.814c-3.339,0.565-6.346-1.072-9.569-1.208
	c-1.467-0.063-3.771,0.103-3.767-1.652c0.004-1.73,2.11-2.201,3.911-2.56c4.71-0.938,9.621-1.091,14.722-3.237
	c-5.893-1.896-11.538,0.196-16.785-2.569c6.622-0.727,13.245-1.452,19.868-2.179c-5.279-1.502-10.623-1.635-15.919-2.398
	c8.013-1.226,16.095-1.053,23.848-3.009c-9.567-0.751-19.302,1.013-30.13-1.703c6.834-3.932,13.587-1.846,20.051-3.933
	c-3.066-1.589-5.89-0.992-8.6-1.246c-3.891-0.364-8.712,1.774-10.849-3.803c-0.117-0.308-1.212-0.243-1.812-0.344
	c6.448-5.073,15.138-3.154,22.144-6.753c-5.457-0.748-10.803-1.05-16.162-0.465c0-0.129,0-0.256,0-0.497
	c7.271-1.41,14.692-1.337,22.073-1.653c-7.182-1.491-14.345-2.737-21.493-4.061c-1.374-0.254-3.523,0.236-3.358-2.202
	c0.139-2.044,2.024-1.405,3.269-1.768c1.907-0.557,4.194-0.192,5.866-2.082c-2.271-1.166-4.414-1.465-6.578-1.708
	c-1.293-0.146-2.635-0.432-2.453-2.134c0.158-1.503,1.505-1.215,2.549-1.373c5.493-0.831,10.892-2.252,16.494-2.358
	c-6.091-1.259-12.343,0.53-18.464-1.236c0.622-1.295,2.354-0.462,2.581-1.957c-0.831-1.115-3.598-0.008-3.201-2.499
	c0.32-2.007,2.467-0.857,3.407-1.631c3.186-2.621,7.521-0.826,12.046-3.291c-5.896-0.369-10.559-0.661-15.222-0.952
	c3.51-2.504,7.246-1.847,11.411-2.402c-2.5-1.289-4.942-0.511-6.82-2.29c2.849-0.608,5.518-1.177,8.186-1.746
	c-1.379-0.758-2.605-0.885-3.831-0.884c-9.779,0.014-9.779,0.022-9.235-9.772c4.828,0.049,9.655,0.142,14.483,0.142
	c67.912-0.005,135.824-0.05,203.736-0.027c46.728,0.017,93.454,0.142,140.182,0.174c7.61,0.006,7.644-0.098,7.647-7.738
	c0.043-96.734,0.082-193.47,0.105-290.205c0.003-11.868-0.042-11.885-11.97-11.882c-95.335,0.022-190.668,0.036-286.002,0.086
	C574.03,131.103,551.293,131.247,528.556,131.33z M496.711,689.555c2.836,1.514,6.418,0.974,9.745,2.146
	c-1.157,2.137-3.455,0.728-4.52,2.042c6.592,4.795,13.226,5.111,20.064,0.61c-2.051-1.101-4.716,0.592-6.629-1.735
	c3.787-2.249,8.126-2.017,11.587-3.813c-1.438-2.267-5.229,0.208-5.602-2.142c-0.405-2.563,3.297-1.98,4.872-3.319
	c1.001-0.849,2.063-1.619,1.476-3.033c-0.572-1.378-1.821-0.613-2.859-0.626c-8.988-0.116-17.572,2.087-26.132,4.313
	c0.955,1.723,3.883,0.534,4.223,3.262C500.698,688.084,498.477,688.905,496.711,689.555z M527.98,674.744
	c-10.648-3.578-21.061-1.658-31.456,0.851C507.129,679.719,517.604,678.496,527.98,674.744z M478.294,562.747
	c-1.252-3.416-3.934-2.947-6.155-2.958c-11.939-0.055-23.879,0.01-35.819,0.023c-0.102,0-0.203-0.139-0.307-0.208
	c-0.006-0.005-0.039,0.027-1.049,0.794C449.962,559.947,463.793,562.788,478.294,562.747z M501.381,702.69
	c7.299,2.212,16.523,1.523,23.875-1.14C517.155,701.428,509.179,701.406,501.381,702.69z M548.656,497.558
	c10.405,0.783,20.759,0.175,31.086-1.137C569.398,497.289,558.977,496.067,548.656,497.558z M587.992,607.377
	c-3.567-1.606-6.944,0.116-10.417,0C581.048,607.377,584.521,607.377,587.992,607.377z M593.631,606.527
	c-0.173,0.016-0.347,0.04-0.52,0.047c-0.289,0.011-0.577,0.011-0.865,0.016c0.173-0.021,0.346-0.053,0.519-0.059
	C593.053,606.521,593.341,606.528,593.631,606.527z"/>
<path fill-rule="evenodd" clip-rule="evenodd" fill="#CCA761" d="M528.556,131.33c-0.052,66.484-0.103,132.969-0.156,199.454
	c-0.026,32.696-0.07,65.393-0.078,98.089c-0.001,3.89,0.17,7.779,0.264,11.667c-0.543,9.794-0.543,9.786,9.236,9.772
	c1.226-0.001,2.452,0.126,3.831,0.884c-2.668,0.569-5.337,1.137-8.186,1.746c1.878,1.779,4.32,1.001,6.82,2.29
	c-4.165,0.555-7.901-0.102-11.411,2.402c4.663,0.291,9.326,0.583,15.222,0.952c-4.525,2.464-8.86,0.67-12.046,3.291
	c-0.94,0.773-3.087-0.376-3.407,1.631c-0.396,2.491,2.37,1.384,3.201,2.499c-0.228,1.495-1.959,0.662-2.581,1.957
	c6.121,1.767,12.373-0.022,18.464,1.236c-5.603,0.106-11.001,1.527-16.494,2.358c-1.044,0.158-2.391-0.13-2.549,1.373
	c-0.182,1.702,1.16,1.989,2.453,2.134c2.164,0.243,4.307,0.542,6.578,1.708c-1.672,1.89-3.959,1.525-5.866,2.082
	c-1.244,0.363-3.13-0.276-3.269,1.768c-0.165,2.438,1.984,1.947,3.358,2.202c7.148,1.324,14.312,2.57,21.493,4.061
	c-7.381,0.316-14.802,0.243-22.073,1.653c0,0.24,0,0.368,0,0.497c5.359-0.585,10.705-0.283,16.162,0.465
	c-7.006,3.6-15.695,1.681-22.144,6.753c0.6,0.102,1.694,0.037,1.812,0.344c2.137,5.578,6.958,3.439,10.849,3.803
	c2.71,0.253,5.533-0.343,8.6,1.246c-6.464,2.087-13.217,0.001-20.051,3.933c10.828,2.716,20.563,0.951,30.13,1.703
	c-7.753,1.956-15.835,1.783-23.848,3.009c5.296,0.763,10.64,0.896,15.919,2.398c-6.623,0.727-13.246,1.452-19.868,2.179
	c5.247,2.766,10.893,0.673,16.785,2.569c-5.101,2.146-10.012,2.3-14.722,3.237c-1.801,0.358-3.907,0.829-3.911,2.56
	c-0.004,1.755,2.3,1.59,3.767,1.652c3.224,0.136,6.23,1.773,9.569,1.208c-4.197,0.258-8.26,0.837-12.073,2.814
	c9.921,1.296,19.8-1.798,29.741,0.126c-6.003,0.202-11.962,0.721-17.705,3.272c8.527,0,17.055,0,25.581,0
	c0.019,0.211,0.037,0.422,0.055,0.634c-8.82,1.32-17.645,2.627-26.462,3.969c-2.612,0.397-5.236,0.782-7.804,1.392
	c-1.447,0.345-3.682,0.086-2.881,3.013c0.471,1.724-1.369,1.191-2.261,1.43c-3.884,1.037-7.783,2.013-11.947,3.078
	c24.79,7.429,49.377-0.62,73.938,0.915c-13.977,0.487-27.087,5.646-41.174,7.118c1.467,1.801,3.479,1.043,4.909,2.031
	c-5.616,2.254-11.933,0.487-17.478,3.533c4.99,0,9.981,0,14.972,0c-9.706,3.363-20.037,2.169-30.446,4.901
	c4.389,2.381,8.687-1.034,12.906,1.731c-3.029,0.789-5.651,1.472-8.83,2.301c2.991,0.479,5.418,0.952,7.867,1.232
	c1.97,0.226,3.484,1.624,3.719,3.035c0.347,2.095-2.088,1.469-3.332,2.007c-0.284,0.122-0.609,0.146-0.897,0.259
	c-0.953,0.375-2.427,0.276-2.34,1.775c0.091,1.551,1.451,1.332,2.507,1.321c4.964-0.048,9.949,0.132,14.885-0.279
	c3.421-0.284,6.816-0.397,10.285-0.036c-10.804,1.616-21.775,2.032-32.842,4.647c3.079,1.621,6.104,2.396,9.42,2.313
	c3.258-0.082,6.519-0.018,9.809,0.336c-3.409,2.274-7.418,0.719-10.922,1.922c3.92,2.216,8.428,0.855,13.215,1.705
	c-4.892,2.128-9.855,1.274-14.322,3.006c3.625,1.298,7.396,1.406,11.112,1.018c3.696-0.387,7.354-0.462,11.125,0.052
	c-12.183,2.066-24.679,3.02-36.088,10.995c9.574,3.631,19.205,3.488,28.476,4.456c9.246,0.966,18.671,0.212,28.038,0.481
	c-15.46,3.518-31.565,1.392-47.208,4.688c0.815,2.677,2.995,2.438,4.222,3.529c-1.28,1.686-3.759,0.768-5.18,2.261
	c0.687,1.578,2.325,0.706,3.239,1.48c0.666,0.563,1.934,0.429,0.69,2.151c-2.048,2.838-0.375,4.547,2.729,4.043
	c5.815-0.943,11.552,0.492,17.39,0.173c-5.414,2.703-11.287,3.275-17.097,4.105c-1.468,0.209-2.522-0.278-2.668,2.485
	c-0.127,2.41-0.668,7.128-5.661,6.089c-0.113,1.478,0.7,1.234,1.164,1.298c0.608,0.083,1.241-0.034,1.863-0.021
	c0.621,0.014,1.743-0.037,1.786,0.144c1.88,7.936,8.515,0.411,11.017,3.914c-3.67,0.968-8.396,0.908-12.766,2.646
	c1.58,2.255,1.58,2.255,9.116,3.237c-1.711,2.969-8.022-2.066-7.766,4.551c0.102,2.625,0.851,3.898,3.649,3.229
	c-0.605,2.157-3.843,0.36-3.924,2.887c-0.01,0.314,0.839,0.807,1.363,0.958c1.744,0.502,3.757-0.298,5.393,1.06
	c-3.838,0.438-7.485,1.353-10.957,3.342c3.585,0,7.168,0,11.181,0c-14.582,5.07-30.226,5.166-41.799,0.056c3.727,0,6.69,0,10.871,0
	c-3.262-1.848-5.962-1.285-7.37-5.06c-1.619-4.345,0.332-4.465,2.866-5.137c4.13-1.095,8.663-0.735,12.667-3.658
	c-1.595-0.144-2.884-0.259-4.894-0.438c2.662-1.259,4.977-0.1,6.898-2.016c-9.84-0.387-19.089-2.938-27.321-7.218
	c4.072-0.894,9.216-0.131,13.946-1.98c-0.039-0.162-0.027-0.585-0.171-0.646c-1.852-0.803-5.198-0.041-5.047-2.963
	c0.142-2.737,3.261-1.79,5.044-1.921c5.591-0.409,10.154-4.378,15.862-4.307c2.233,0.027,2.84-2.034,3.84-3.896
	c-6.927,1.274-13.712,1.116-20.487-0.006c-1.033-0.17-2.83,0.087-2.712-1.132c0.573-5.907-4.262-4.724-7.444-5.939
	c0.243-0.1,0.388-0.192,0.544-0.219c2.126-0.348,5.64,0.833,5.573-2.419c-0.058-2.829-3.533-1.308-5.419-1.941
	c-0.395-0.133-0.787-0.279-2.367-0.843c3.257-0.427,5.383-0.705,8.36-1.095c-4.042-2.839-8.167-3.074-12.079-4.488
	c6.24-0.528,12.409-0.592,17.108-5.43c-0.679-1.46-2.104-0.907-3.222-1.109c-0.93-0.169-2.38-0.316-2.293-1.201
	c0.749-7.607-5.792-4.541-8.622-5.124c-4.706-0.969-9.323-3.209-14.383-2.932c5.959-0.468,11.919-0.917,17.876-1.41
	c2.088-0.174,5.367,0.226,5.544-2.039c0.252-3.227-3.525-2.628-5.44-2.803c-6.722-0.615-13.538-0.186-20.183-2.225
	c6.676,0,13.353,0.027,20.029-0.015c2.535-0.016,4.885-0.231,5.95-3.301c1.009-2.906,4.652-0.939,6.686-3.23
	c-5.53-1.865-11.31,0.531-16.996-2.112c2.654-0.66,5.191,0.014,7.75-1.935c-6.743-1.579-12.989-1.364-19.419-1.624
	c1.975-1.042,4.283,0.174,6.007-1.582c-1.319-2.697-4.37-0.374-6.354-2.378c6.646-0.207,12.918,1.427,19.115-0.173
	c0.852-0.22,2.007,0.166,2.238-1.093c0.244-1.331-1.13-1.236-1.791-1.765c-3.771-3.009-8.357-2.235-12.726-2.68
	c2.419-1.583,2.439-1.715,4.592-1.374c2.067,0.327,4.031,0.014,6.013-0.399c0.852-0.18,2.03-0.087,1.94-1.438
	c-0.064-0.975-0.574-1.78-1.621-2.03c-2.096-0.5-4.201-0.967-6.756-1.551c3.56-1.381,7.476,0.249,11.409-3.342
	c-9.823-0.631-18.578-1.194-27.48-1.766c8.906-4.743,20.059-0.634,28.739-7.067c-1.726-1.79-3.883-1.132-4.974-2.704
	c0.224-1.448,2.464-0.724,2.517-2.946c-11.501-3.227-23.446-1.488-34.569-2.367c9.645-2.011,20.111-0.87,30.532-1.94
	c-8.542-2.496-17.905-0.08-25.427-3.986c6.317,0,13.331,0.006,20.343-0.006c1.245-0.002,2.494-0.168,3.733-0.104
	c4.813,0.253,4.712-4.51,6.774-6.937c0.95-1.117-1.354-2.254-2.676-2.295c-4.27-0.132-7.684-3.14-12.265-2.991
	c3.412-3.9,8.578-1.445,12.106-4.602c-3.286-2.173-7.039-0.61-10.401-2.377c3.183-0.232,6.364-0.463,9.906-0.72
	c-3.138-2.312-7.044-1.042-9.42-2.9c3.339-1.826,7.258-2.268,11.247-2.582c-4.638-2.239-9.581-1.614-14.808-2.012
	c2.067-2.333,5.202-0.392,7.127-2.626c-5.607-5.762-13.269-1.207-19.688-4.324c9.327-0.321,18.266,0.083,27.474-1.742
	c-1.378-1.799-3.886-0.609-4.973-2.633c0.258-1.213,1.447-1.587,2.61-1.823c1.555-0.315,3.335-0.403,3.228-2.557
	c-0.128-2.566-2.282-1.602-3.6-1.652c-12.125-0.46-24.274-0.336-35.056-1.5c10.529-1.833,22.55-0.59,34.398-2.191
	c1.272-0.172,3.394,0.448,3.521-1.359c0.149-2.12-2.042-1.169-3.234-1.499c-1.479-0.409-2.968-0.781-4.611-1.21
	c1.484-2.542,3.869-2.138,5.905-2.551c1.865-0.379,3.394-0.905,0.978-2.716c-1.266-0.949-0.935-1.622-0.088-2.626
	c2.346-2.781,1.706-4.345-3.747-4.196c3.849-1.481,3.188-3.661,2.92-5.187c-0.347-1.976-2.547-1.145-3.982-1.322
	c-1.897-0.234-3.813-0.312-6.22-0.495c2.792-1.71,5.676-0.298,9.148-2.39c-7.1,0-13.029,0-18.958,0
	c-0.014-0.637-0.027-1.273-0.041-1.911c5.1,0,10.211-0.228,15.293,0.063c5.347,0.307,7.09-0.967,6.979-6.213
	c-0.055-2.6,1.196-5.222-0.115-7.798c0.763-14.782,0.338-29.574,0.336-44.36c-0.008-88.31-0.07-176.621-0.113-264.931
	C506.799,131.267,517.678,131.298,528.556,131.33z M487.035,498.376c2.122,0.495,4.193,0.9,6.112-0.5
	C491.062,497.493,488.978,496.778,487.035,498.376z"/>
<path fill-rule="evenodd" clip-rule="evenodd" fill="#CCA761" d="M496.711,689.555c1.766-0.65,3.986-1.471,6.225-2.297
	c-0.339-2.728-3.268-1.539-4.223-3.262c8.561-2.226,17.144-4.429,26.132-4.313c1.038,0.013,2.287-0.752,2.859,0.626
	c0.587,1.414-0.475,2.185-1.476,3.033c-1.575,1.339-5.277,0.757-4.872,3.319c0.372,2.35,4.163-0.125,5.602,2.142
	c-3.461,1.797-7.8,1.564-11.587,3.813c1.913,2.327,4.578,0.635,6.629,1.735c-6.839,4.501-13.473,4.185-20.064-0.61
	c1.064-1.314,3.362,0.095,4.52-2.042C503.13,690.529,499.548,691.069,496.711,689.555z"/>
<path fill-rule="evenodd" clip-rule="evenodd" fill="#CCA761" d="M527.98,674.744c-10.377,3.752-20.852,4.976-31.456,0.851
	C506.92,673.085,517.332,671.166,527.98,674.744z"/>
<path fill-rule="evenodd" clip-rule="evenodd" fill="#CCA761" d="M478.294,562.747c-14.501,0.041-28.333-2.8-43.33-2.349
	c1.01-0.767,1.042-0.799,1.049-0.794c0.104,0.069,0.205,0.208,0.307,0.208c11.94-0.014,23.879-0.078,35.819-0.023
	C474.361,559.799,477.042,559.331,478.294,562.747z"/>
<path fill-rule="evenodd" clip-rule="evenodd" fill="#CCA761" d="M501.381,702.69c7.798-1.284,15.774-1.262,23.875-1.14
	C517.904,704.213,508.681,704.902,501.381,702.69z"/>
<path fill-rule="evenodd" clip-rule="evenodd" fill="#CCA761" d="M548.656,497.558c10.32-1.491,20.742-0.269,31.086-1.137
	C569.415,497.733,559.062,498.341,548.656,497.558z"/>
<path fill-rule="evenodd" clip-rule="evenodd" fill="#CCA761" d="M587.992,607.377c-3.472,0-6.944,0-10.417,0
	C581.048,607.494,584.425,605.771,587.992,607.377z"/>
<path fill-rule="evenodd" clip-rule="evenodd" fill="#CCA761" d="M593.631,606.528c-0.29,0-0.578-0.007-0.866,0.003
	c-0.173,0.006-0.346,0.038-0.519,0.059c0.288-0.005,0.576-0.005,0.865-0.016C593.284,606.567,593.458,606.542,593.631,606.528z"/>
<path fill-rule="evenodd" clip-rule="evenodd" fill="currentColor" d="M487.035,498.376c1.942-1.599,4.026-0.884,6.112-0.5
	C491.229,499.276,489.157,498.871,487.035,498.376z"/>
<path fill="currentColor" d="M125.342,689.246c-0.015-6.445-0.029-12.893-0.044-19.334c0.988-3.416,0.581-6.93,0.583-10.396
	c0.013-16.473-0.054-32.943-0.128-49.416c-0.067-14.957,0.528-29.92-0.437-44.865c-0.084-19.271-0.22-38.541-0.243-57.812
	c-0.04-33.403-0.041-66.806,0.001-100.209c0.028-22.099,0.158-44.196,0.243-66.289c0.116-1.142,0.332-2.287,0.334-3.434
	c0.056-31.458,0.145-62.916,0.105-94.374c-0.02-15.956-0.278-31.911-0.429-47.866c0.018-22.265,0.056-44.528,0.024-66.792
	c-0.003-2.521-0.185-4.472,3.486-4.212c14.248,1.008,28.547-0.556,42.764,0.275c13.485,0.789,26.938,0.438,40.401,0.515
	c28.754,0.165,57.517,0.408,86.261-0.141c11.631-0.223,23.268-0.507,34.899-0.473c14.229,0.041,28.459,0.597,42.688,0.592
	c15.465-0.005,30.938-0.835,46.39-0.491c14.131,0.313,28.268,0.882,42.389,0.51c56.105-1.48,112.216-0.463,168.323-0.64
	c49.92-0.157,99.841-0.042,149.762-0.056c36.254-0.01,72.508-0.05,108.762-0.041c9.512,0.003,8.7-1.146,8.7,8.403
	c-0.01,93.479-0.033,186.958-0.053,280.438c-0.012,57.806-0.046,115.61-0.032,173.417c0.017,62.955,0.118,125.91,0.103,188.865
	c-0.012,41.641-0.165,83.279-0.252,124.916c-1.163-0.031-2.329-0.088-3.494-0.088c-102.455-0.02-204.909-0.037-307.364-0.049
	c-122.444-0.016-244.889-0.033-367.333-0.029c-31.815,0-63.63,0.082-95.444,0.125c-0.141-0.193-0.327-0.322-0.555-0.383
	c0.034-0.828,0.091-1.658,0.091-2.488c-0.03-56.432-0.041-112.863-0.115-169.295C125.709,715.169,125.476,702.207,125.342,689.246z
	 M892.817,514.847c0.044-17.469,0.127-34.937,0.126-52.406c0-87.396-0.016-174.79-0.04-262.185
	c-0.006-22.297-0.068-44.595-0.105-66.892c-0.033-2.001-1.489-1.279-2.518-1.285c-15.812-0.099-31.62-0.267-47.432-0.253
	c-27.111,0.023-54.224,0.211-81.336,0.242c-39.923,0.047-79.846,0.056-119.77,0.007c-24.725-0.03-49.448-0.269-74.172-0.278
	c-19.95-0.009-39.9,0.259-59.852,0.267c-24.265,0.01-48.528-0.125-72.794-0.198c-1.309-0.139-2.616-0.398-3.925-0.399
	c-31.445-0.034-62.891-0.048-94.336-0.034c-1.478,0.001-2.953,0.278-4.43,0.427c-12.97,0.074-25.938,0.223-38.906,0.209
	c-51.293-0.056-102.586-0.093-153.877-0.357c-4.993-0.026-6.703,1.002-6.646,6.375c0.319,30.487,0.281,60.979,0.269,91.47
	c-0.045,106.465-0.158,212.93-0.19,319.395c-0.024,79.475,0.033,158.949,0.061,238.424c0.012,33.654,0.117,67.313-0.037,100.967
	c-0.018,4.025,1.183,4.934,4.985,4.855c14.821-0.293,29.647-0.268,44.472-0.359c27.316,0.059,54.632,0.156,81.948,0.16
	c20.818,0,41.636-0.121,62.454-0.188c0.875,0.004,1.751,0.008,2.626,0.012c1.491,0.078,2.981,0.221,4.474,0.223
	c44.158,0.02,88.315,0.049,132.475,0.018c26.485-0.02,52.971-0.141,79.456-0.217c6.211,0.338,12.421,0.428,18.63-0.033
	c8.317,0.084,16.634,0.246,24.951,0.234c29.132-0.043,58.263-0.146,87.396-0.229c1.872-0.012,3.743-0.021,5.616-0.031
	c1.824,0.084,3.648,0.24,5.474,0.24c44.328,0.008,88.655,0.006,132.983-0.012c22.498-0.008,44.997-0.127,67.493,0.016
	c3.71,0.021,5.088-0.947,4.755-4.74c-0.35-3.973-0.232-7.99-0.232-11.99c-0.001-73.15,0.016-146.305,0.017-219.457
	c0.001-23.488-0.031-46.979-0.048-70.471c-0.234-1.604-0.67-3.207-0.674-4.811c-0.057-20.633-0.066-41.266-0.029-61.896
	C892.13,518.058,892.577,516.453,892.817,514.847z"/>
</svg>
