<svg version="1.1" id="Layer_1" xmlns="http://www.w3.org/2000/svg" xmlns:xlink="http://www.w3.org/1999/xlink" x="0px" y="0px"
	 width="1024.191px" height="1024.19px" viewBox="0 0 1024.191 1024.19" enable-background="new 0 0 1024.191 1024.19"
	 xml:space="preserve">
<path fill-rule="evenodd" clip-rule="evenodd" fill="#333C5D" d="M899.714,125.179c0.044,56.496,0.095,112.993,0.129,169.489
	c0.011,17.999-0.03,35.997-0.031,53.996c-0.003,139.26-0.011,278.52,0.003,417.779c0.004,41.831,0.02,83.662,0.199,125.492
	c0.017,4.019-0.84,5.332-5.146,5.328c-169.319-0.163-338.64-0.216-507.959-0.229c-83.159-0.006-166.318,0.097-249.478,0.151
	c-1,0.001-2.005-0.048-2.999,0.034c-8.027,0.664-8.124,0.672-8.13-7.357c-0.061-84.329-0.088-168.657-0.125-252.986
	c-0.072-161.992-0.079-323.984-0.4-485.976c-0.018-8.739,0.621-17.437,0.469-26.155c64.621,0.042,129.245,0.096,193.869,0.114
	c82.615,0.024,165.229,0.034,247.844,0.023c51.133-0.006,102.266-0.079,153.399-0.088c45.472-0.008,90.943,0.007,136.415,0.063
	C871.754,124.877,885.734,125.067,899.714,125.179z M483.896,521.123c0.14-0.783,0.117-1.487-0.839-1.742
	c-0.277-0.126-0.565-0.165-0.866-0.118c-0.44,0.001-0.882,0.002-1.323,0.003c-1.15-0.122-1.755,0.335-1.645,1.55
	c-0.218,1.983,0.335,4.367,1.939,4.776c1.599,0.408,3.014-1.403,2.741-3.553C484.001,521.733,483.999,521.428,483.896,521.123z
	 M487.22,530.832c-0.573-0.478-1.147-0.954-1.721-1.431c-0.119,0.566-0.238,1.133-0.357,1.699c-3.141,3.492,0.675,6.376,0.764,9.54
	c0.108,3.844,1.536,3.819,4.635,2.969c2.58-0.709,4.87-3.443,8.343-0.917c1.33,0.968,4.557-1.197,4.758-3.747
	c0.095-1.212,0.172-4.045-2.636-3.829C495.817,535.513,491.619,532.887,487.22,530.832z M480.099,489.116
	c-0.236-2.459-0.284-3.896,3.314-4.234c6.194-0.583,12.373-2.107,18.357-3.907c5.196-1.562,9.087-4.625,11.729-10.084
	c5.688-11.748,12.299-22.92,22.828-31.441c11.36-9.192,23.681-11.62,37.184-6.886c13.695,4.801,19.571,15.86,21.598,29.479
	c2.472,16.608,0.525,33.124-2.242,49.4c-5.507,32.388-14.379,63.988-25.168,94.992c-8.281,23.798-16.168,47.711-23.137,71.915
	c-5.953,20.68-10.053,41.796-13.38,63.042c-1.138,7.268-1.446,14.664-2.134,22.002c3.765-7.659,6.341-15.598,9.539-23.277
	c7.619-18.296,14.273-36.96,20.633-55.696c9.994-29.446,19.841-58.952,28.74-88.761c4.83-16.178,10.12-32.218,14.957-48.393
	c4.055-13.558,7.746-27.223,11.61-40.837c3.592-12.656,6.958-25.384,10.875-37.938c3.043-9.75,4.89-20.083,11.637-28.317
	c4.583-5.593,9.445-10.959,13.955-16.608c11.365-14.239,24.29-27.065,36.639-40.399c10.734-11.591,22.257-22.454,33.51-33.56
	c17.269-17.042,34.272-34.374,52.059-50.859c8.241-7.639,16.188-15.612,24.716-22.978c10.249-8.851,19.781-18.526,29.732-27.728
	c11.154-10.313,22.379-20.55,33.672-30.711c8.321-7.486,16.915-14.674,25.14-22.264c2.358-2.177,5.791-3.613,5.729-8.045
	c-0.227-16.495-0.341-33,0.047-49.488c0.117-5.01-1.407-5.84-5.991-5.83c-68.488,0.147-136.976,0.09-205.464,0.109
	c-102.982,0.03-205.965,0.103-308.947,0.119c-77.318,0.012-154.638-0.04-231.958-0.047c-6.771,0-6.806,0.058-6.802,6.592
	c0.009,15.331,0.141,30.662,0.012,45.992c-0.026,3.107,0.837,5.331,3.162,7.341c10.633,9.197,21.34,18.318,31.724,27.791
	c18.02,16.438,35.879,33.054,53.696,49.711c13.11,12.258,26.327,24.42,38.995,37.124c21.848,21.91,44.661,42.823,65.917,65.356
	c18.559,19.675,37.055,39.361,54.037,60.42c5.573,6.91,11.019,13.893,13.316,22.822c2.09,8.12,4.76,16.089,7.079,24.152
	c7.03,24.437,14.25,48.821,20.956,73.348c7.791,28.495,16.127,56.825,25.781,84.733c6.757,19.531,13.05,39.22,20.314,58.584
	c11.977,31.922,25.075,63.333,40.903,93.552c2.192,4.186,3.942,8.768,8.128,12.999c0.174-13.934,1.805-26.729,2.995-39.567
	c1.24-13.364,2.94-26.703,5.284-39.835c4.645-26.023,11.653-51.558,19.75-76.739c5.787-18.001,12.137-35.819,18.085-53.77
	c6.972-21.037,12.6-42.416,17.325-64.096c3.927-18.021,7.004-36.03,6.642-54.482c-0.157-8.007-0.876-16.271-4.999-23.245
	c-7.898-13.358-25.22-14.523-37.103-6.904c-10.937,7.012-17.118,18.025-22.728,29.422c-3.694,7.506-2.851,14.38,1.456,21.096
	c1.86,2.9,3.736,5.802,6.137,8.359c1.612,1.717,3.521,3.797,1.157,6.418c-4.471,2.934-9.187,2.56-13.986,1.031
	c-2.875-1.962-3.926-1.006-3.977,2.265c-0.156,10.117,3.897,18.734,8.89,27.225c6.516,11.082,9.072,22.978,5.06,35.621
	c-1.548,4.876-4.148,9.229-9.796,9.904c-6.517,0.778-11.856-2.466-14.779-8.449c-1.022-2.094-1.779-4.317-2.729-6.659
	c-9.582,12.935-13.4,14.429-24.013,10.154c-4.321-1.74-5.931-5.406-7.578-9.172c-1.672-3.82-1.498-7.758-0.13-11.693
	c-2.525-0.402-4.172,0.924-6.037,1.33c-6.683,1.457-12.106-0.56-16.552-5.818c-3.743-4.427-2.517-8.767-0.355-13.188
	c3.389-6.934,8.721-12.12,14.692-16.902c5.85-4.686,12.813-7.102,19.255-10.571c3.795-3.354,8.149-6.032,11.094-10.407
	c1.391-2.066,1.542-2.845-0.704-4.054C485.085,497.323,481.825,493.869,480.099,489.116z M510.055,536.049
	c1.187-0.266,1.925-0.998,2.054-2.264c0.123-1.214-0.462-1.806-1.683-1.708c-1.254,0.101-2.228,0.671-2.244,2.019
	C508.169,535.174,508.982,535.764,510.055,536.049z"/>
<path fill-rule="evenodd" clip-rule="evenodd" fill="#E9D094" d="M899.714,125.179c-13.98-0.111-27.96-0.302-41.94-0.319
	c-45.472-0.057-90.943-0.071-136.415-0.063c-51.134,0.009-102.267,0.082-153.399,0.088c-82.614,0.011-165.229,0.001-247.844-0.023
	c-64.624-0.019-129.248-0.072-193.869-0.114c1.276-1.202,2.852-0.679,4.293-0.679c192.422,0.002,384.844,0.031,577.267,0.046
	c62.308,0.005,124.615-0.031,186.924,0.015C896.386,124.129,898.432,123.094,899.714,125.179z"/>
<path fill-rule="evenodd" clip-rule="evenodd" fill="none" d="M479.065,514.137c-6.442,3.47-13.405,5.886-19.255,10.571
	c-5.972,4.782-11.304,9.969-14.692,16.902c-2.161,4.421-3.388,8.761,0.355,13.188c4.445,5.259,9.869,7.275,16.552,5.818
	c1.865-0.406,3.512-1.732,6.037-1.33c-1.368,3.936-1.542,7.873,0.13,11.693c1.647,3.766,3.257,7.432,7.578,9.172
	c10.612,4.274,14.431,2.78,24.013-10.154c0.95,2.342,1.707,4.565,2.729,6.659c2.923,5.983,8.263,9.228,14.779,8.449
	c5.647-0.676,8.248-5.028,9.796-9.904c4.013-12.644,1.456-24.539-5.06-35.621c-4.992-8.49-9.046-17.107-8.89-27.225
	c0.051-3.271,1.102-4.227,3.977-2.265c-2.004,0.135-2.075,1.376-2.034,3.042c0.234,9.589,4.165,17.924,8.798,25.979
	c3.876,6.738,9.156,12.181,16.29,15.504c2.078,0.969,4.453,1.997,6.681-0.018c2.046-1.851,2.582-4.234,2.165-6.788
	c-1.705-10.438-4.551-20.531-10.095-29.637c-2.081-3.418-3.61-7.459-7.818-9.113c2.363-2.621,0.455-4.701-1.157-6.418
	c-2.4-2.558-4.276-5.459-6.137-8.359c-4.307-6.716-5.15-13.59-1.456-21.096c5.609-11.396,11.791-22.41,22.728-29.422
	c11.883-7.619,29.204-6.454,37.103,6.904c4.123,6.974,4.842,15.238,4.999,23.245c0.362,18.452-2.715,36.462-6.642,54.482
	c-4.726,21.68-10.354,43.059-17.325,64.096c-5.948,17.95-12.298,35.769-18.085,53.77c-8.097,25.182-15.105,50.716-19.75,76.739
	c-2.344,13.132-4.044,26.471-5.284,39.835c-1.19,12.838-2.821,25.634-2.995,39.567c-4.186-4.231-5.936-8.813-8.128-12.999
	c-15.828-30.219-28.927-61.63-40.903-93.552c-7.265-19.364-13.558-39.053-20.314-58.584c-9.654-27.908-17.99-56.238-25.781-84.733
	c-6.706-24.526-13.926-48.911-20.956-73.348c-2.319-8.063-4.989-16.032-7.079-24.152c-2.298-8.93-7.743-15.912-13.316-22.822
	c-16.982-21.059-35.479-40.745-54.037-60.42c-21.256-22.533-44.069-43.446-65.917-65.356
	c-12.668-12.704-25.885-24.866-38.995-37.124c-17.817-16.657-35.676-33.273-53.696-49.711
	c-10.384-9.473-21.091-18.594-31.724-27.791c-2.324-2.01-3.188-4.233-3.162-7.341c0.128-15.33-0.003-30.661-0.012-45.992
	c-0.004-6.534,0.03-6.592,6.802-6.592c77.319,0.007,154.639,0.059,231.958,0.047c102.982-0.017,205.965-0.089,308.947-0.119
	c68.488-0.02,136.976,0.038,205.464-0.109c4.584-0.01,6.108,0.82,5.991,5.83c-0.388,16.488-0.273,32.993-0.047,49.488
	c0.062,4.432-3.371,5.868-5.729,8.045c-8.225,7.59-16.818,14.777-25.14,22.264c-11.293,10.161-22.518,20.398-33.672,30.711
	c-9.951,9.201-19.483,18.877-29.732,27.728c-8.528,7.365-16.475,15.339-24.716,22.978c-17.786,16.485-34.79,33.817-52.059,50.859
	c-11.253,11.105-22.775,21.969-33.51,33.56c-12.349,13.334-25.273,26.16-36.639,40.399c-4.51,5.649-9.372,11.016-13.955,16.608
	c-6.747,8.234-8.594,18.567-11.637,28.317c-3.917,12.555-7.283,25.282-10.875,37.938c-3.864,13.614-7.556,27.279-11.61,40.837
	c-4.837,16.175-10.127,32.215-14.957,48.393c-8.899,29.809-18.746,59.314-28.74,88.761c-6.359,18.736-13.014,37.4-20.633,55.696
	c-3.198,7.68-5.774,15.618-9.539,23.277c0.688-7.338,0.996-14.734,2.134-22.002c3.327-21.246,7.427-42.362,13.38-63.042
	c6.969-24.204,14.855-48.117,23.137-71.915c10.789-31.004,19.661-62.604,25.168-94.992c2.768-16.276,4.714-32.792,2.242-49.4
	c-2.026-13.618-7.902-24.678-21.598-29.479c-13.503-4.734-25.823-2.307-37.184,6.886c-10.529,8.521-17.141,19.693-22.828,31.441
	c-2.643,5.459-6.533,8.522-11.729,10.084c-5.984,1.8-12.163,3.324-18.357,3.907c-3.599,0.339-3.551,1.775-3.314,4.234
	c-4.525-2.574-8.701,0.046-12.854,1.107c-10.824,2.766-21.223,6.528-28.896,15.316c-3.014,3.451-2.472,7.016,1.576,8.998
	c7.778,3.81,16.021,3.852,24.447,3.012C469.462,517.042,473.637,512.925,479.065,514.137z"/>
<path fill-rule="evenodd" clip-rule="evenodd" fill="#333C5D" d="M479.065,514.137c-5.428-1.212-9.603,2.905-14.692,3.413
	c-8.427,0.84-16.669,0.798-24.447-3.012c-4.048-1.982-4.59-5.547-1.576-8.998c7.673-8.788,18.071-12.551,28.896-15.316
	c4.153-1.062,8.329-3.682,12.854-1.107c1.726,4.753,4.986,8.207,9.355,10.56c2.246,1.209,2.095,1.987,0.704,4.054
	C487.214,508.104,482.86,510.782,479.065,514.137z"/>
<path fill-rule="evenodd" clip-rule="evenodd" fill="#333C5D" d="M531.101,509.06c4.208,1.654,5.737,5.695,7.818,9.113
	c5.544,9.105,8.39,19.199,10.095,29.637c0.417,2.554-0.119,4.938-2.165,6.788c-2.228,2.015-4.603,0.986-6.681,0.018
	c-7.134-3.323-12.414-8.766-16.29-15.504c-4.633-8.055-8.563-16.39-8.798-25.979c-0.041-1.666,0.03-2.907,2.034-3.042
	C521.915,511.619,526.63,511.993,531.101,509.06z"/>
<path fill-rule="evenodd" clip-rule="evenodd" fill="#C0982A" d="M487.22,530.832c4.398,2.055,8.597,4.681,13.785,4.284
	c2.808-0.216,2.73,2.617,2.636,3.829c-0.201,2.55-3.428,4.715-4.758,3.747c-3.473-2.526-5.763,0.208-8.343,0.917
	c-3.099,0.851-4.526,0.875-4.635-2.969c-0.089-3.164-3.904-6.048-0.764-9.54C485.875,531.326,486.673,532.05,487.22,530.832z"/>
<path fill-rule="evenodd" clip-rule="evenodd" fill="#C0982A" d="M483.057,519.381c0.956,0.255,0.979,0.959,0.839,1.743
	c-0.094,0.094-0.281,0.208-0.266,0.275c0.052,0.223,0.177,0.428,0.273,0.64c0.272,2.149-1.143,3.961-2.741,3.553
	c-1.604-0.409-2.157-2.793-1.939-4.773c0.849-0.198,1.387-0.728,1.645-1.553c0.441-0.001,0.883-0.002,1.323-0.003
	C482.412,519.803,482.716,519.726,483.057,519.381z"/>
<path fill-rule="evenodd" clip-rule="evenodd" fill="#C0982A" d="M510.055,536.049c-1.073-0.285-1.886-0.875-1.873-1.953
	c0.017-1.348,0.99-1.918,2.244-2.019c1.221-0.098,1.806,0.494,1.683,1.708C511.98,535.051,511.242,535.783,510.055,536.049z"/>
<path fill-rule="evenodd" clip-rule="evenodd" fill="#C0982A" d="M487.22,530.832c-0.547,1.218-1.345,0.494-2.078,0.269
	c0.119-0.566,0.238-1.133,0.357-1.699C486.073,529.878,486.647,530.354,487.22,530.832z"/>
<path fill-rule="evenodd" clip-rule="evenodd" fill="#E9D094" d="M480.868,519.266c-0.258,0.825-0.796,1.354-1.645,1.553
	C479.113,519.601,479.717,519.144,480.868,519.266z"/>
<path fill-rule="evenodd" clip-rule="evenodd" fill="#E9D094" d="M483.057,519.381c-0.341,0.345-0.646,0.422-0.866-0.118
	C482.492,519.216,482.78,519.255,483.057,519.381z"/>
<path fill-rule="evenodd" clip-rule="evenodd" fill="#E9D094" d="M483.904,522.039c-0.097-0.212-0.222-0.417-0.273-0.64
	c-0.016-0.067,0.172-0.182,0.266-0.275C483.999,521.428,484.001,521.733,483.904,522.039z"/>
</svg>
