<?xml version="1.0" encoding="utf-8"?>
<!-- Generator: Adobe Illustrator 16.0.0, SVG Export Plug-In . SVG Version: 6.00 Build 0)  -->
<!DOCTYPE svg PUBLIC "-//W3C//DTD SVG 1.1//EN" "http://www.w3.org/Graphics/SVG/1.1/DTD/svg11.dtd">
<svg version="1.1" id="Layer_1" xmlns="http://www.w3.org/2000/svg" xmlns:xlink="http://www.w3.org/1999/xlink" x="0px" y="0px"
	 width="1024.191px" height="1024.191px" viewBox="0 0 1024.191 1024.191" enable-background="new 0 0 1024.191 1024.191"
	 xml:space="preserve">
<path fill-rule="evenodd" clip-rule="evenodd" fill="currentColor" d="M512.087,897.656c-127.151,0-254.303-0.034-381.453,0.136
	c-4.632,0.007-4.696-1.962-4.699-5.277c-0.039-41.164-0.197-82.328-0.204-123.492c-0.033-178.324-0.023-356.647-0.037-534.972
	c-0.002-34.498,0.051-68.997-0.17-103.493c-0.029-4.505,1.218-5.398,5.569-5.391c87.489,0.158,174.978,0.127,262.467,0.147
	c71.491,0.018,142.983,0.076,214.476,0.073c76.324-0.004,152.648-0.063,228.972-0.088c18.831-0.006,37.664,0.197,56.49-0.089
	c4.71-0.071,5.792,1.369,5.782,5.827c-0.142,61.996-0.15,123.992-0.125,185.988c0.031,76.491,0.172,152.981,0.176,229.472
	c0.003,73.329-0.136,146.657-0.159,219.985c-0.014,41.997,0.015,83.995,0.227,125.991c0.021,4.295-1.326,5.166-5.344,5.163
	c-127.322-0.1-254.645-0.082-381.967-0.082C512.087,897.588,512.087,897.623,512.087,897.656z M483.397,521.593
	c0.138-0.744,0.054-1.387-0.774-1.688c-0.297-0.129-0.606-0.174-0.928-0.135c-0.458,0.002-0.917,0.003-1.376,0.004
	c-1.073-0.105-1.674,0.306-1.594,1.459c-0.176,2.052,0.248,4.402,2.145,4.869c1.354,0.333,2.845-1.47,2.535-3.525
	C483.498,522.249,483.495,521.921,483.397,521.593z M484.65,531.612c-2.952,3.34,0.582,6.11,0.685,9.102
	c0.158,4.621,2.042,4.312,5.3,3.218c2.493-0.838,4.75-2.746,7.962-0.727c1.322,0.832,4.288-1.279,4.526-3.57
	c0.133-1.279,0.267-4.156-2.497-3.977c-5.236,0.341-9.464-2.247-13.895-4.319c-0.571-0.472-1.144-0.944-1.715-1.416
	C484.895,530.486,484.772,531.048,484.65,531.612z M481.558,494.553c-1.51-8.516-1.509-8.512,7.647-9.964
	c0.985-0.156,1.949-0.457,2.937-0.594c11.253-1.552,19.217-6.257,24.075-17.773c5.092-12.071,13.399-22.563,25.036-29.813
	c18.996-11.834,46.865-4.598,52.35,21.032c2.984,13.948,2.221,27.907,0.458,41.772c-5,39.328-16.268,77.119-29.186,114.451
	c-13.063,37.751-25.403,75.694-31.89,115.258c-0.995,6.07-1.778,12.178-2.59,18.276c-0.81,6.092-1.53,12.194-2.472,19.742
	c1.113-1.736,1.442-2.105,1.613-2.537c19.82-50.166,37.234-101.166,53.442-152.607c15.411-48.911,29.46-98.217,43.778-147.448
	c2.215-7.617,3.858-15.543,8.904-22.092c6.807-8.834,14.079-17.273,21.497-25.586c32.953-36.931,68.215-71.595,103.938-105.81
	c26.31-25.199,53.147-49.828,79.964-74.48c15.934-14.648,32.056-29.093,48.183-43.531c2.443-2.188,3.338-4.518,3.303-7.779
	c-0.164-15.497-0.116-30.996-0.085-46.494c0.016-7.721,0.319-6.366-6.409-6.373c-67.992-0.067-135.985-0.067-203.978-0.044
	c-103.489,0.035-206.979,0.128-310.469,0.151c-77.658,0.018-155.316,0.027-232.973-0.19c-5.283-0.015-6.35,1.685-6.268,6.446
	c0.267,15.495,0.231,30.997,0.123,46.494c-0.021,3.107,0.891,5.223,3.263,7.273c10.91,9.434,21.764,18.939,32.443,28.635
	c42.004,38.132,83.131,77.195,123.69,116.857c25.341,24.78,49.858,50.34,73.438,76.818c15.554,17.467,28.105,36.012,33.942,59.422
	c9.176,36.796,20.296,73.111,30.845,109.558c6.893,23.811,15.12,47.2,22.869,70.742c13.701,41.622,29.419,82.388,48.468,121.858
	c4.355,9.025,9.037,17.853,14.858,27.399c0.813-9.705,1.54-18.118,2.221-26.536c3.845-47.529,13.885-93.78,29.183-138.88
	c12.674-37.361,25.726-74.575,33.771-113.329c3.846-18.523,6.49-37.084,5.066-56.007c-0.626-8.321-1.754-16.825-8.473-22.822
	c-9.102-8.124-22.206-9.039-32.87-2.166c-12.25,7.895-19.062,20.063-24.677,33.046c-1.696,3.921-1.467,7.73-0.162,11.67
	c1.934,5.843,5.813,10.42,9.501,15.146c3.031,3.884,2.332,5.82-2.481,6.781c-3.652,0.729-7.268,0.4-10.848-0.709
	c-2.414-0.748-4.095-0.45-3.806,2.876c0.533,6.132,0.602,12.305,3.734,17.908c2.518,4.503,5.067,9.008,7.229,13.686
	c4.679,10.128,6.495,20.603,2.846,31.521c-1.675,5.012-4.326,9.179-10.132,9.737c-5.671,0.546-11.904-3.546-14.297-9.07
	c-0.941-2.175-1.725-4.418-2.743-7.053c-5.894,10.996-11.672,14.795-19.115,12.73c-4.911-1.362-9.347-3.42-11.521-8.653
	c-1.979-4.766-1.415-9.623-0.728-14.767c-1.494,0.605-2.538,1.136-3.643,1.46c-7.239,2.118-15.381-0.042-19.2-5.047
	c-3.406-4.464-2.669-10.095,2.335-17.455c0.841-1.236,1.788-2.406,2.751-3.554c7.039-8.388,15.843-14.587,26.185-17.637
	c7.452-2.198,10.357-8.179,14.595-13.226c0.521-0.622,2.341-2.285-0.479-2.673C486.792,499.714,484.558,496.565,481.558,494.553z
	 M511.594,534.592c0.146-1.25-0.197-2.017-1.488-2.014c-1.268,0.003-2.233,0.554-2.417,1.847c-0.159,1.126,0.705,1.908,1.643,2.044
	C510.635,536.658,511.279,535.644,511.594,534.592z"/>
<path fill-rule="evenodd" clip-rule="evenodd" fill="currentColor" d="M490.549,500.602c-2.642,6.374-8.103,10.091-13.742,13.007
	c-10.646,5.504-22.069,5.819-33.529,2.697c-7.83-2.133-9.111-7.159-3.037-12.49c10.216-8.965,22.856-12.517,35.808-15.21
	c1.39-0.289,2.043,0.221,2.729,1.423c0.872,1.53,1.173,3.444,2.781,4.524C484.558,496.565,486.792,499.714,490.549,500.602z"/>
<path fill-rule="evenodd" clip-rule="evenodd" fill="#E9D094" d="M486.731,531.338c4.431,2.072,8.658,4.66,13.895,4.319
	c2.764-0.18,2.63,2.697,2.497,3.977c-0.238,2.291-3.204,4.402-4.526,3.57c-3.212-2.02-5.469-0.111-7.962,0.727
	c-3.258,1.094-5.142,1.403-5.3-3.218c-0.103-2.991-3.637-5.762-0.685-9.103C485.395,531.902,486.147,532.266,486.731,531.338z"/>
<path fill-rule="evenodd" clip-rule="evenodd" fill="#E9D094" d="M483.405,522.578c0.31,2.056-1.181,3.858-2.535,3.525
	c-1.896-0.467-2.32-2.817-2.145-4.866c0.531-0.485,1.063-0.974,1.594-1.462c0.459-0.001,0.918-0.002,1.377-0.004
	c0.309,0.045,0.617,0.09,0.927,0.135c0.828,0.301,0.912,0.943,0.774,1.689C483.4,521.923,483.403,522.25,483.405,522.578z"/>
<path fill-rule="evenodd" clip-rule="evenodd" fill="#E9D094" d="M511.594,534.592c-0.314,1.052-0.959,2.065-2.263,1.877
	c-0.938-0.136-1.802-0.918-1.643-2.044c0.184-1.293,1.149-1.844,2.417-1.847C511.396,532.576,511.74,533.342,511.594,534.592z"/>
<path fill-rule="evenodd" clip-rule="evenodd" fill="#E9D094" d="M486.731,531.338c-0.584,0.928-1.337,0.563-2.081,0.272
	c0.122-0.563,0.244-1.125,0.366-1.688C485.588,530.394,486.16,530.867,486.731,531.338z"/>
<path fill-rule="evenodd" clip-rule="evenodd" fill="currentColor" d="M514.549,510.577c5.772,2.231,10.921,2.435,15.911,0.704
	c2.154-0.747,3.002-0.057,4.07,1.411c7.721,10.608,12.137,22.55,13.807,35.457c0.886,6.842-2.896,9.272-9.085,6.221
	c-5.803-2.861-10.258-7.214-13.96-12.522C518.84,532.596,515.339,522.425,514.549,510.577z"/>
</svg>
