<svg version="1.1" id="Layer_1" xmlns="http://www.w3.org/2000/svg" xmlns:xlink="http://www.w3.org/1999/xlink" x="0px" y="0px"
	 width="1024.191px" height="1024.191px" viewBox="0 0 1024.191 1024.191" enable-background="new 0 0 1024.191 1024.191"
	 xml:space="preserve">
<path fill="currentColor" d="M512.087,897.656c-127.151,0-254.303-0.034-381.453,0.136c-4.632,0.007-4.696-1.962-4.699-5.277
	c-0.039-41.164-0.197-82.328-0.204-123.491c-0.033-178.324-0.023-356.647-0.037-534.973c-0.002-34.498,0.051-68.997-0.17-103.493
	c-0.029-4.505,1.218-5.398,5.569-5.391c87.489,0.158,174.979,0.127,262.467,0.147c71.491,0.018,142.983,0.076,214.477,0.073
	c76.324-0.004,152.647-0.063,228.972-0.088c18.831-0.006,37.664,0.197,56.49-0.089c4.71-0.071,5.792,1.369,5.782,5.827
	c-0.143,61.996-0.15,123.992-0.125,185.988c0.03,76.491,0.172,152.981,0.176,229.472c0.003,73.329-0.136,146.657-0.159,219.985
	c-0.014,41.997,0.016,83.994,0.228,125.99c0.021,4.295-1.326,5.166-5.345,5.163c-127.321-0.1-254.645-0.082-381.967-0.082
	C512.087,897.588,512.087,897.623,512.087,897.656z M483.397,521.593c0.138-0.744,0.054-1.387-0.774-1.688
	c-0.297-0.129-0.606-0.174-0.928-0.135c-0.458,0.002-0.917,0.003-1.376,0.004c-1.073-0.105-1.675,0.306-1.595,1.459
	c-0.176,2.052,0.248,4.401,2.146,4.869c1.354,0.332,2.845-1.471,2.535-3.525C483.498,522.249,483.495,521.921,483.397,521.593z
	 M484.65,531.612c-2.952,3.34,0.582,6.109,0.685,9.102c0.158,4.621,2.042,4.313,5.3,3.218c2.493-0.838,4.75-2.745,7.962-0.727
	c1.322,0.832,4.288-1.279,4.526-3.57c0.133-1.278,0.267-4.155-2.497-3.977c-5.236,0.341-9.464-2.247-13.895-4.319
	c-0.571-0.472-1.145-0.943-1.716-1.416C484.895,530.486,484.772,531.048,484.65,531.612z M481.558,494.553
	c-1.51-8.516-1.509-8.512,7.647-9.964c0.985-0.156,1.949-0.457,2.937-0.594c11.253-1.552,19.218-6.257,24.075-17.773
	c5.092-12.07,13.399-22.563,25.036-29.813c18.996-11.834,46.865-4.598,52.351,21.032c2.983,13.947,2.221,27.906,0.457,41.771
	c-5,39.328-16.268,77.119-29.186,114.451c-13.063,37.751-25.403,75.694-31.89,115.258c-0.995,6.07-1.778,12.178-2.591,18.276
	c-0.81,6.092-1.529,12.193-2.472,19.742c1.113-1.736,1.442-2.105,1.613-2.537c19.82-50.166,37.233-101.166,53.442-152.607
	c15.41-48.911,29.46-98.217,43.777-147.448c2.215-7.616,3.858-15.543,8.904-22.092c6.807-8.834,14.079-17.272,21.497-25.586
	c32.953-36.931,68.215-71.595,103.938-105.81c26.311-25.199,53.147-49.828,79.964-74.48c15.935-14.648,32.057-29.093,48.184-43.531
	c2.442-2.188,3.338-4.518,3.303-7.779c-0.164-15.497-0.116-30.996-0.085-46.494c0.016-7.721,0.319-6.366-6.409-6.373
	c-67.992-0.067-135.984-0.067-203.978-0.044c-103.489,0.035-206.979,0.128-310.47,0.151c-77.658,0.018-155.315,0.027-232.973-0.19
	c-5.283-0.015-6.35,1.685-6.268,6.446c0.267,15.495,0.231,30.997,0.123,46.494c-0.021,3.107,0.891,5.223,3.263,7.273
	c10.91,9.434,21.764,18.939,32.443,28.635c42.004,38.132,83.131,77.195,123.69,116.857c25.341,24.78,49.858,50.34,73.438,76.818
	c15.554,17.467,28.104,36.012,33.941,59.422c9.177,36.796,20.296,73.11,30.846,109.558c6.893,23.811,15.119,47.2,22.868,70.742
	c13.701,41.622,29.419,82.388,48.469,121.857c4.354,9.025,9.037,17.854,14.857,27.399c0.813-9.705,1.54-18.118,2.222-26.536
	c3.845-47.529,13.885-93.78,29.183-138.88c12.674-37.361,25.726-74.575,33.771-113.329c3.847-18.522,6.49-37.084,5.066-56.007
	c-0.626-8.321-1.754-16.825-8.473-22.822c-9.103-8.124-22.206-9.039-32.87-2.166c-12.25,7.896-19.063,20.063-24.677,33.046
	c-1.696,3.921-1.468,7.73-0.162,11.67c1.934,5.844,5.813,10.421,9.501,15.146c3.03,3.884,2.332,5.82-2.481,6.781
	c-3.652,0.729-7.268,0.399-10.848-0.709c-2.414-0.748-4.096-0.45-3.807,2.876c0.533,6.132,0.603,12.305,3.734,17.907
	c2.518,4.503,5.067,9.009,7.229,13.687c4.68,10.128,6.495,20.603,2.847,31.521c-1.675,5.013-4.326,9.18-10.132,9.737
	c-5.672,0.546-11.904-3.546-14.298-9.07c-0.94-2.175-1.725-4.418-2.742-7.053c-5.895,10.996-11.673,14.795-19.115,12.73
	c-4.911-1.362-9.347-3.42-11.521-8.653c-1.979-4.766-1.415-9.623-0.728-14.767c-1.494,0.604-2.538,1.136-3.644,1.46
	c-7.238,2.117-15.381-0.042-19.199-5.048c-3.406-4.464-2.669-10.095,2.335-17.455c0.841-1.235,1.788-2.405,2.751-3.554
	c7.039-8.388,15.843-14.587,26.185-17.637c7.452-2.198,10.357-8.179,14.595-13.227c0.521-0.622,2.342-2.284-0.479-2.673
	C486.792,499.714,484.558,496.565,481.558,494.553z M511.594,534.592c0.146-1.25-0.196-2.017-1.487-2.014
	c-1.269,0.003-2.233,0.554-2.417,1.847c-0.159,1.126,0.704,1.908,1.643,2.044C510.635,536.658,511.279,535.644,511.594,534.592z"/>
<path fill="currentColor" d="M490.549,500.602c-2.642,6.374-8.103,10.092-13.742,13.008c-10.646,5.504-22.068,5.818-33.528,2.696
	c-7.83-2.133-9.111-7.158-3.037-12.489c10.216-8.966,22.855-12.518,35.808-15.21c1.391-0.289,2.043,0.221,2.729,1.423
	c0.872,1.529,1.173,3.443,2.78,4.523C484.558,496.565,486.792,499.714,490.549,500.602z"/>
<path fill="#E9D094" d="M486.731,531.338c4.431,2.072,8.657,4.66,13.895,4.319c2.764-0.181,2.63,2.697,2.497,3.977
	c-0.238,2.291-3.204,4.402-4.526,3.57c-3.212-2.021-5.469-0.111-7.962,0.727c-3.258,1.095-5.142,1.403-5.3-3.218
	c-0.103-2.991-3.637-5.762-0.685-9.103C485.395,531.902,486.147,532.266,486.731,531.338z"/>
<path fill="#E9D094" d="M483.405,522.578c0.31,2.056-1.182,3.857-2.535,3.524c-1.896-0.467-2.32-2.816-2.146-4.865
	c0.531-0.485,1.063-0.975,1.595-1.462c0.459-0.001,0.918-0.002,1.377-0.005c0.309,0.046,0.617,0.091,0.927,0.136
	c0.828,0.301,0.912,0.942,0.774,1.688C483.4,521.923,483.403,522.25,483.405,522.578z"/>
<path fill="#E9D094" d="M511.594,534.592c-0.313,1.052-0.959,2.065-2.263,1.877c-0.938-0.136-1.802-0.918-1.644-2.044
	c0.185-1.293,1.149-1.844,2.418-1.847C511.396,532.576,511.74,533.342,511.594,534.592z"/>
<path fill="#E9D094" d="M486.731,531.338c-0.585,0.928-1.338,0.563-2.081,0.272c0.122-0.563,0.243-1.125,0.365-1.688
	C485.588,530.394,486.16,530.867,486.731,531.338z"/>
<path fill="currentColor" d="M514.549,510.577c5.772,2.23,10.921,2.435,15.911,0.704c2.154-0.747,3.002-0.058,4.07,1.411
	c7.721,10.607,12.137,22.55,13.807,35.457c0.886,6.842-2.896,9.271-9.085,6.221c-5.803-2.861-10.258-7.214-13.96-12.522
	C518.84,532.596,515.339,522.425,514.549,510.577z"/>
<path fill="currentColor" d="M124.342,690.246c-0.015-6.445-0.029-12.893-0.044-19.334c0.988-3.416,0.581-6.93,0.583-10.396
	c0.013-16.473-0.054-32.943-0.128-49.416c-0.067-14.957,0.528-29.92-0.437-44.865c-0.084-19.271-0.22-38.541-0.243-57.813
	c-0.04-33.403-0.041-66.806,0.001-100.209c0.028-22.099,0.158-44.196,0.243-66.289c0.116-1.142,0.332-2.287,0.334-3.434
	c0.056-31.458,0.145-62.916,0.105-94.374c-0.02-15.956-0.278-31.911-0.429-47.866c0.018-22.265,0.056-44.528,0.024-66.792
	c-0.003-2.521-0.185-4.472,3.486-4.212c14.248,1.008,28.547-0.556,42.764,0.275c13.485,0.789,26.938,0.438,40.401,0.515
	c28.754,0.165,57.517,0.408,86.261-0.141c11.631-0.223,23.268-0.507,34.899-0.473c14.229,0.041,28.459,0.597,42.688,0.592
	c15.465-0.005,30.938-0.835,46.39-0.491c14.131,0.313,28.268,0.882,42.389,0.51c56.105-1.48,112.216-0.463,168.323-0.64
	c49.92-0.157,99.841-0.042,149.762-0.056c36.254-0.01,72.508-0.05,108.762-0.041c9.512,0.003,8.7-1.146,8.7,8.403
	c-0.01,93.479-0.033,186.958-0.053,280.438c-0.012,57.806-0.046,115.611-0.032,173.417c0.017,62.955,0.118,125.91,0.103,188.865
	c-0.012,41.641-0.165,83.279-0.252,124.916c-1.163-0.031-2.329-0.088-3.494-0.088c-102.455-0.02-204.909-0.037-307.364-0.049
	c-122.444-0.016-244.889-0.033-367.333-0.029c-31.815,0-63.63,0.082-95.444,0.125c-0.141-0.193-0.327-0.322-0.555-0.383
	c0.034-0.828,0.091-1.658,0.091-2.488c-0.03-56.432-0.041-112.863-0.115-169.295C124.709,716.17,124.476,703.207,124.342,690.246z
	 M891.817,515.848c0.044-17.47,0.127-34.938,0.126-52.406c0-87.396-0.016-174.79-0.04-262.185
	c-0.006-22.297-0.068-44.595-0.105-66.892c-0.033-2.001-1.489-1.279-2.518-1.285c-15.812-0.099-31.62-0.267-47.432-0.253
	c-27.111,0.023-54.224,0.211-81.336,0.242c-39.923,0.047-79.846,0.056-119.77,0.007c-24.725-0.03-49.448-0.269-74.172-0.278
	c-19.95-0.009-39.9,0.259-59.852,0.267c-24.265,0.01-48.528-0.125-72.794-0.198c-1.309-0.139-2.616-0.398-3.925-0.399
	c-31.445-0.034-62.891-0.048-94.336-0.034c-1.478,0.001-2.953,0.278-4.43,0.427c-12.97,0.074-25.938,0.223-38.906,0.209
	c-51.293-0.056-102.586-0.093-153.877-0.357c-4.993-0.026-6.703,1.002-6.646,6.375c0.319,30.487,0.281,60.979,0.269,91.47
	c-0.045,106.465-0.158,212.93-0.19,319.395c-0.024,79.475,0.033,158.949,0.061,238.424c0.012,33.654,0.117,67.313-0.037,100.967
	c-0.018,4.025,1.183,4.934,4.985,4.855c14.821-0.293,29.647-0.268,44.472-0.359c27.316,0.059,54.632,0.156,81.948,0.16
	c20.818,0,41.636-0.121,62.454-0.188c0.875,0.004,1.751,0.008,2.626,0.012c1.491,0.078,2.981,0.221,4.474,0.223
	c44.158,0.02,88.315,0.049,132.475,0.018c26.485-0.02,52.971-0.141,79.456-0.217c6.211,0.338,12.421,0.428,18.63-0.033
	c8.317,0.084,16.634,0.246,24.951,0.234c29.132-0.043,58.263-0.146,87.396-0.229c1.872-0.012,3.743-0.021,5.616-0.031
	c1.824,0.084,3.648,0.24,5.474,0.24c44.328,0.008,88.655,0.006,132.983-0.012c22.498-0.008,44.997-0.127,67.493,0.016
	c3.71,0.021,5.088-0.947,4.755-4.74c-0.35-3.973-0.232-7.99-0.232-11.99c-0.001-73.15,0.016-146.305,0.017-219.457
	c0.001-23.488-0.031-46.979-0.048-70.471c-0.234-1.604-0.67-3.207-0.674-4.811c-0.057-20.633-0.066-41.266-0.029-61.896
	C891.13,519.059,891.577,517.453,891.817,515.848z"/>
</svg>
