<svg version="1.1" id="Layer_1" xmlns="http://www.w3.org/2000/svg" xmlns:xlink="http://www.w3.org/1999/xlink" x="0px" y="0px"
	 width="1024.191px" height="1024.191px" viewBox="0 0 1024.191 1024.191" enable-background="new 0 0 1024.191 1024.191"
	 xml:space="preserve">
<path fill="currentColor" d="M124.342,690.246c-0.015-6.445-0.029-12.893-0.044-19.334c0.988-3.416,0.581-6.93,0.583-10.396
	c0.013-16.473-0.054-32.943-0.128-49.416c-0.067-14.957,0.528-29.92-0.437-44.865c-0.084-19.271-0.22-38.541-0.243-57.812
	c-0.04-33.403-0.041-66.806,0.001-100.209c0.028-22.099,0.158-44.196,0.243-66.289c0.116-1.142,0.332-2.287,0.334-3.434
	c0.056-31.458,0.145-62.916,0.105-94.374c-0.02-15.956-0.278-31.911-0.429-47.866c0.018-22.265,0.056-44.528,0.024-66.792
	c-0.003-2.521-0.185-4.472,3.486-4.212c14.248,1.008,28.547-0.556,42.764,0.275c13.485,0.789,26.938,0.438,40.401,0.515
	c28.754,0.165,57.517,0.408,86.261-0.141c11.631-0.223,23.268-0.507,34.899-0.473c14.229,0.041,28.459,0.597,42.688,0.592
	c15.465-0.005,30.938-0.835,46.39-0.491c14.131,0.313,28.268,0.882,42.389,0.51c56.105-1.48,112.216-0.463,168.323-0.64
	c49.92-0.157,99.841-0.042,149.762-0.056c36.254-0.01,72.508-0.05,108.762-0.041c9.512,0.003,8.7-1.146,8.7,8.403
	c-0.01,93.479-0.033,186.958-0.053,280.438c-0.012,57.806-0.046,115.61-0.032,173.417c0.017,62.955,0.118,125.91,0.103,188.865
	c-0.012,41.641-0.165,83.279-0.252,124.916c-1.163-0.031-2.329-0.088-3.494-0.088c-102.455-0.02-204.909-0.037-307.364-0.049
	c-122.444-0.016-244.889-0.033-367.333-0.029c-31.815,0-63.63,0.082-95.444,0.125c-0.141-0.193-0.327-0.322-0.555-0.383
	c0.034-0.828,0.091-1.658,0.091-2.488c-0.03-56.432-0.041-112.863-0.115-169.295C124.709,716.169,124.476,703.207,124.342,690.246z
	 M891.817,515.847c0.044-17.469,0.127-34.937,0.126-52.406c0-87.396-0.016-174.79-0.04-262.185
	c-0.006-22.297-0.068-44.595-0.105-66.892c-0.033-2.001-1.489-1.279-2.518-1.285c-15.812-0.099-31.62-0.267-47.432-0.253
	c-27.111,0.023-54.224,0.211-81.336,0.242c-39.923,0.047-79.846,0.056-119.77,0.007c-24.725-0.03-49.448-0.269-74.172-0.278
	c-19.95-0.009-39.9,0.259-59.852,0.267c-24.265,0.01-48.528-0.125-72.794-0.198c-1.309-0.139-2.616-0.398-3.925-0.399
	c-31.445-0.034-62.891-0.048-94.336-0.034c-1.478,0.001-2.953,0.278-4.43,0.427c-12.97,0.074-25.938,0.223-38.906,0.209
	c-51.293-0.056-102.586-0.093-153.877-0.357c-4.993-0.026-6.703,1.002-6.646,6.375c0.319,30.487,0.281,60.979,0.269,91.47
	c-0.045,106.465-0.158,212.93-0.19,319.395c-0.024,79.475,0.033,158.949,0.061,238.424c0.012,33.654,0.117,67.313-0.037,100.967
	c-0.018,4.025,1.183,4.934,4.985,4.855c14.821-0.293,29.647-0.268,44.472-0.359c27.316,0.059,54.632,0.156,81.948,0.16
	c20.818,0,41.636-0.121,62.454-0.188c0.875,0.004,1.751,0.008,2.626,0.012c1.491,0.078,2.981,0.221,4.474,0.223
	c44.158,0.02,88.315,0.049,132.475,0.018c26.485-0.02,52.971-0.141,79.456-0.217c6.211,0.338,12.421,0.428,18.63-0.033
	c8.317,0.084,16.634,0.246,24.951,0.234c29.132-0.043,58.263-0.146,87.396-0.229c1.872-0.012,3.743-0.021,5.616-0.031
	c1.824,0.084,3.648,0.24,5.474,0.24c44.328,0.008,88.655,0.006,132.983-0.012c22.498-0.008,44.997-0.127,67.493,0.016
	c3.71,0.021,5.088-0.947,4.755-4.74c-0.35-3.973-0.232-7.99-0.232-11.99c-0.001-73.15,0.016-146.305,0.017-219.457
	c0.001-23.488-0.031-46.979-0.048-70.471c-0.234-1.604-0.67-3.207-0.674-4.811c-0.057-20.633-0.066-41.266-0.029-61.896
	C891.13,519.058,891.577,517.453,891.817,515.847z"/>
<g>
	<path fill-rule="evenodd" clip-rule="evenodd" fill="currentColor" d="M320.756,655.353c9.864-17.005,17.536-34.886,21.128-54.305
		c1.194-6.452,2.109-12.979,2.155-19.589c0.088-12.825,0.63-25.657,1.172-38.449c0.447-10.57,0.183-21.318,2.51-31.784
		c0.6-2.698-1.098-3.654-3.061-4.732c-12.607-6.927-24.44-14.98-34.347-25.484c-5.096-5.403-9.68-11.227-11.855-18.692
		c-2.119-7.271,0.804-17.614,6.823-22.282c13.973-10.835,30.108-15.805,47.345-18.494c10.507-1.638,21.013-2.346,31.49-1.559
		c12.893,0.97,25.702,2.931,38.409,5.58c29.662,6.181,58.118,16.341,86.844,25.654c17.358,5.627,34.958,10.498,52.352,16.021
		c16.799,5.334,33.785,9.934,51.119,13.039c11.144,1.997,22.427,3.145,33.731,4.185c10.574,0.973,21.027-0.042,31.523-0.186
		c5.341-0.072,10.662-1.462,15.993-2.249c1.431-0.211,2.854-0.779,4.694-0.06c-7.499,6.478-15.513,11.777-24.035,16.273
		c-4.063,2.144-7.26,3.6-5.69,9.723c2.07,8.082,1.488,16.667,2.145,25.018c1.053,13.39,0.963,26.804,1.635,40.195
		c0.563,11.218,0.949,22.427,3.429,33.378c4.023,17.777,11.876,33.988,21.306,49.48c-12.226,5.435-24.52,10.722-36.659,16.341
		c-13.512,6.254-26.965,12.652-39.917,20.033c-12.42,6.444-24.438,13.597-36.458,20.746c-21.267,12.188-41.038,26.641-61.407,40.921
		c-0.167-2.205-0.298-3.952-0.43-5.697c0.233-15.54,1.086-31.058,1.329-46.603c0.289-18.497,2.058-36.969,2.472-55.467
		c0.25-11.152,0.907-22.299,1.334-33.429c0.291-7.578-0.011-15.29,1.274-22.891c0.452-2.676,1.593-3.366,3.806-4.001
		c15.292-4.381,30.346-9.398,44.366-17.096c21.57-11.843,41.926-25.272,58.3-44.476c-3.152,0.012-5.439,1.813-7.748,2.968
		c-30.277,15.141-62.254,25.364-95.047,33.291c-3.354,0.811-6.68,1.735-10.02,2.602c-2.353,0.609-3.687,0.2-3.483-2.736
		c0.71-10.265-0.789-20.475-1.019-30.726c-0.291-13.049-1.708-26.071-2.475-39.113c-0.275-4.674-0.152-9.379-0.055-14.066
		c0.052-2.433-0.535-3.881-3.247-4.445c-3.19-0.664-6.269-1.884-9.378-2.915c-1.434-0.475-2.678-0.828-2.871,1.34
		c-0.265,2.982-0.931,5.971-0.833,8.938c0.483,14.657-0.501,29.287-1.188,43.89c-0.592,12.625-0.332,25.278-1.409,37.887
		c-0.292,3.429-2.676,2.098-3.907,1.876c-5.244-0.94-10.44-2.187-15.607-3.498c-18.892-4.799-37.82-9.49-56.126-16.295
		c-13.289-4.94-26.33-10.436-38.601-18.318c-0.092,2.1,1.194,3.066,2.219,4.173c6.458,6.97,13.565,13.234,20.983,19.144
		c12.446,9.911,25.937,18.168,40.309,24.977c11.777,5.578,24.005,9.909,36.729,12.751c3.41,0.762,4.951,2.324,4.79,6.049
		c-0.567,13.109,1.41,26.119,1.864,39.201c0.525,15.155,1.894,30.278,2.679,45.428c0.733,14.116,0.655,28.296,1.927,42.358
		c0.951,10.517,0.136,21.073,1.54,31.53c-0.676-0.305-1.479-0.464-2.01-0.933c-21.549-19.017-45.439-34.562-70.627-48.296
		c-27.531-15.012-55.81-28.29-85.325-38.941C331.912,660.468,325.667,659.423,320.756,655.353z"/>
	<path fill-rule="evenodd" clip-rule="evenodd" fill="currentColor" d="M389.196,397.698c0.297-15.674-0.517-31.304-1.443-46.947
		c-0.408-6.894-0.557-13.816-0.903-20.729c-0.728-14.525-1.795-28.996-3.598-43.431c-0.975-7.812-1.686-15.645-3.671-23.289
		c-0.591-2.277,0.939-3.215,2.497-4.216c11.699-7.527,24.586-12.227,37.814-16.226c16.863-5.098,34.146-7.989,51.589-9.87
		c7.152-0.771,14.423-0.89,21.614-1.335c11.003-0.682,21.956,0.005,32.887,0.277c14.028,0.348,28.023,1.913,41.951,4.167
		c17.193,2.783,33.852,7.176,49.9,13.872c5.483,2.287,10.58,5.362,15.743,8.313c3.077,1.759,1.702,2.638,0.017,4.017
		c-7.349,6.013-14.138,12.592-19.44,20.513c-6.211,9.279-9.643,19.736-11.915,30.545c-2.219,10.559-2.981,21.297-2.919,32.092
		c0.007,1.145,0.313,2.429-0.65,3.43c-2.236-3.329-1.292-36.103,1.509-49.775c-3.806,2.511-4.871,6.449-6.784,9.768
		c-4.018,6.972-8.98,13.339-12.609,20.586c-2.525,5.043-3.538,10.101-3.309,15.654c0.415,10.051-0.064,20.083-1.742,30.115
		c-1.033-8.415-3.158-16.669-2.762-25.409c-2.835,3.067-4.869,9.899-5.415,15.964c-0.593,6.564-1.624,13.088-0.179,19.656
		c-3.829-0.288-7.66-0.572-11.49-0.858c-1.344-0.096-2.688-0.192-4.032-0.289c-1.619-1.177-3.513-0.686-5.274-0.779
		c-19.034-1.004-38.061-1.384-57.103,0.065c-12.949,0.986-25.804,2.612-38.656,4.417c-11.51,1.615-22.785,4.312-34.112,6.762
		c-7.642,1.652-15.298,3.42-22.715,5.843C390.395,401.776,389.05,401.601,389.196,397.698z"/>
	<path fill-rule="evenodd" clip-rule="evenodd" fill="currentColor" d="M388.735,412.203c-0.899,1.708-1.38,3.023,1.524,3.032
		c3.755,0.012,7.488,0.555,11.229,0.937c14.235,1.455,28.268,4.104,42.175,7.272c22.709,5.173,44.681,12.936,66.848,19.979
		c20.639,6.558,41.296,13.011,62.21,18.679c16.811,4.556,33.626,8.893,50.857,11.573c7.536,1.172,15.077,2.149,22.678,2.68
		c8.377,0.586,16.793,1.786,25.132,1.406c6.417-0.293,12.925-0.641,19.34-1.595c8.438-1.255,16.734-3.01,24.289-7.149
		c3.659-2.005,5.889-5.185,5.115-9.542c-0.773-4.362-4.878-5.306-8.131-5.786c-12.968-1.914-26.046-3.085-39.03-4.899
		c-11.575-1.617-23.035-3.889-33.428-9.685c-6.133-3.42-11.675-7.39-13.274-14.868c-12.279-3.312-24.895-4.668-37.459-6.198
		c-12.287-1.496-24.634-2.495-36.95-3.748c-0.558-0.057-1.078-0.47-1.616-0.717c-0.326-0.024-0.651-0.048-0.978-0.072
		c-10.851-0.362-21.699-0.877-32.553-1.044c-11.426-0.176-22.858-0.017-34.287-0.009c-7.149,0.005-34.713-12.357-42.168-12.357
		l-51.558,7.261L388.735,412.203z"/>
	<path fill-rule="evenodd" clip-rule="evenodd" fill="currentColor" d="M639.034,316.371c6.188-8.453,14.306-15.072,21.504-22.563
		c2.502-2.604,5.935-3.728,9.427-4.634c2.07-0.538,4.386-0.745,6.09-2.502c-2.767-1.293-5.164,0.626-8.617,0.321
		c13.207-12.579,26.338-24.294,40.404-35.888c-4.185-0.531-6.131,2.297-8.328,3.847c-14.788,10.43-28.746,21.849-41.598,34.682
		c-6.271,6.262-13.143,11.996-19.086,18.576c-16.445,18.205-31.235,37.593-43.062,59.251c-5.799,10.619-11.724,21.134-16.621,32.202
		c-0.364,0.821-0.662,1.671-0.988,2.503c-2.562,0.271-3.884-1.523-5.29-3.177c10.79-21.754,22.449-42.972,36.769-62.687
		c4.569-6.29,9.678-12.152,14.044-18.571c2.093-3.076,3.83-6.394,5.729-9.602c2.5-0.71,4.21-2.346,5.395-4.598
		c2.237-0.163,3.755-1.466,5.293-2.986c9.273-9.166,19.189-17.589,29.968-24.93c1.952-1.329,2.842-2.945,3.362-4.945
		c3.764-14.462,11.34-26.831,21.021-37.99c0.841-0.97,1.856-4.964,4.453-1.149c0.404,0.592,1.288-0.251,1.881-0.725
		c2.556-2.045,5.088-4.125,7.738-6.042c4.089-2.959,8.465-5.012,13.517-6.292c6.531-1.655,12.64-4.916,19.06-7.106
		c3.96-1.351,8.164-1.981,12.251-2.966c1.72-0.414,2.651-0.067,2.234,1.957c-2.641,12.8-7.452,24.422-18.146,33.063
		c5.344,1.067,7.072-3.927,11.749-6.466c-13.107,32.474-29.163,60.474-64.141,71.64c-3.413,0.13-6.834,0.372-10.255,0.374
		c-5.864,0.002-11.612,0.902-17.414,1.604C650.809,311.365,645.421,315.348,639.034,316.371z"/>
	<path fill-rule="evenodd" clip-rule="evenodd" fill="currentColor" d="M496.362,770.917c0,5.362,0,10.725,0,16.176
		c-13.779-13.262-28.143-25.512-43.52-36.678c-21.087-15.314-42.842-29.572-65.231-42.844
		c-13.349-7.911-27.191-14.989-40.811-22.444c-10.363-5.673-20.583-11.644-31.493-16.227c-2.664-1.12-2.242-2.371-1.159-4.021
		c1.055-1.609,2.355-3.058,3.546-4.575c1.002,0.336,2.027,0.616,3.005,1.016c30.13,12.309,59.307,26.541,87.369,43.061
		c29.638,17.448,57.811,36.94,84.029,59.237C494.51,765.67,496.218,767.734,496.362,770.917z"/>
	<path fill-rule="evenodd" clip-rule="evenodd" fill="#D9A75A" d="M496.362,770.917c-0.145-3.184-1.853-5.247-4.265-7.299
		c-26.219-22.297-54.392-41.789-84.029-59.237c-28.062-16.52-57.239-30.752-87.369-43.061c-0.978-0.399-2.003-0.68-3.005-1.016
		c0.672-1.872,1.779-3.473,3.065-4.956c4.907,4.074,11.151,5.119,16.887,7.189c29.515,10.651,57.794,23.93,85.325,38.941
		c25.188,13.734,49.078,29.279,70.627,48.296c0.531,0.469,1.334,0.628,2.01,0.933C495.861,757.447,496.112,764.183,496.362,770.917z
		"/>
	<path fill-rule="evenodd" clip-rule="evenodd" fill="currentColor" d="M700.618,660.589c3.691,6.604,3.711,6.646-3.104,10.007
		c-20.938,10.327-41.995,20.42-62.816,30.978c-28.832,14.621-57.355,29.832-84.161,48.01c-9.641,6.538-19.049,13.421-29.045,20.485
		c0.265-3.849,0.492-7.171,0.721-10.491c2.704-1.637,5.472-3.182,8.104-4.929c14.208-9.437,28.22-19.159,42.847-27.971
		c4.539-2.733,9.849-4.367,13.483-8.55c11.761-6.492,23.521-12.983,35.281-19.475c0.992,0.342,1.734-0.268,2.521-0.676
		c14.298-7.427,28.492-15.061,42.922-22.223C678.277,670.342,689.169,664.838,700.618,660.589z"/>
	<path fill-rule="evenodd" clip-rule="evenodd" fill="#D9A75A" d="M639.034,316.371c6.387-1.023,11.774-5.006,18.342-5.8
		c5.802-0.702,11.55-1.602,17.414-1.604c3.421-0.002,6.842-0.243,10.255-0.374c0.118,2.441,3.108,0.462,3.653,2.751
		c-5.11,3.93-10.305,8.108-15.72,11.976c-1.591,1.136-2.011,3.014-3.436,4.032c-2.721,1.941-4.838,4.979-8.876,4.642
		c-1.404-0.117-3.006,0.531-3.342,2.409c-13.479,2.019-24.735,8.815-35.769,16.287c-4.425,2.998-8.432,6.836-13.838,8.236
		c5.979-11.356,13.079-22.001,21.678-31.487C632.688,323.809,635.175,319.483,639.034,316.371z"/>
	<path fill-rule="evenodd" clip-rule="evenodd" fill="#D9A75A" d="M653.537,342.581c-8.442,18.222-22.008,30.646-41.271,36.777
		c-3.946,1.256-7.743,0.33-11.494-0.205c-3.13-0.446-4.949-2.505-3.589-6.281c1.068-2.964,2.979-5.177,5.006-7.399
		c0.72-0.177,1.575-0.162,2.139-0.559c8.827-6.213,18.329-11.065,28.601-14.414C639.933,348.215,646.853,345.703,653.537,342.581z"
		/>
	<path fill-rule="evenodd" clip-rule="evenodd" fill="currentColor" d="M625.644,397.177c-6.3-1.802-12.89-2.545-18.967-5.171
		c2.942-2.307,5.888-4.614,9.319-7.304c-6.757-1.101-12.146,1.451-17.832,2.331c9.103-5.197,19.799-6.555,28.902-12.853
		C626.336,382.167,625.334,389.641,625.644,397.177z"/>
	<path fill-rule="evenodd" clip-rule="evenodd" fill="currentColor" d="M653.537,342.581c-6.685,3.122-13.604,5.634-20.608,7.918
		c-10.271,3.349-19.773,8.201-28.601,14.414c-0.563,0.397-1.419,0.382-2.139,0.559c1.677-2.32,3.196-4.773,5.527-6.545
		c5.408-1.4,9.415-5.239,13.84-8.236c11.033-7.472,22.29-14.269,35.769-16.287c0.708,0.068,1.417,0.137,2.126,0.206
		c-7.569,1.914-14.081,5.853-21.668,9.347c4.525,1.304,7.587-0.66,10.839-1.376C650.291,342.21,651.892,341.074,653.537,342.581z"/>
	<path fill-rule="evenodd" clip-rule="evenodd" fill="currentColor" d="M634.805,303.532c-1.185,2.252-2.895,3.888-5.395,4.598
		c-1.652-0.636-1.186-2.088-0.823-3.051c4.784-12.711,10.977-24.714,18.464-36.044c0.185-0.279,0.615-0.395,1.507-0.936
		c-3.287,7.771-6.068,15.075-9.459,22.084C637.014,294.491,637.723,299.577,634.805,303.532z"/>
	<path fill-rule="evenodd" clip-rule="evenodd" fill="#D9A75A" d="M697.572,656.037c-12.226,5.435-24.52,10.722-36.659,16.341
		c-13.512,6.254-26.965,12.652-39.918,20.033c0,0,0,0,0.001,0c-12.42,6.444-24.438,13.597-36.458,20.746
		c-21.267,12.188-41.038,26.641-61.407,40.921c-0.167-2.205-0.298-3.952-0.43-5.707c-0.867,3.699-0.767,7.449-0.488,11.207
		c2.704-1.637,5.472-3.182,8.104-4.929c14.208-9.437,28.22-19.159,42.847-27.971c4.539-2.733,9.849-4.367,13.483-8.55
		c11.761-6.492,23.521-12.983,35.281-19.475c0.992,0.342,1.734-0.268,2.521-0.676c14.298-7.427,28.492-15.061,42.922-22.223
		c10.907-5.413,21.799-10.917,33.248-15.166C699.604,659.072,698.588,657.555,697.572,656.037z"/>
	<path fill-rule="evenodd" clip-rule="evenodd" fill="#D9A75A" d="M549.267,413.503c0.326,0.024,0.651,0.048,0.978,0.072
		c0.538,0.247,1.059,0.66,1.616,0.717c12.316,1.253,24.663,2.251,36.95,3.748c12.564,1.53,25.18,2.887,37.46,6.202
		c-0.209-9.02-0.417-18.042-0.627-27.064c-6.3-1.802-12.89-2.545-18.967-5.171c-6.492,3.112-12.706,7.08-19.851,8.372
		c-3.912,0.708-5.662,2.574-6.87,6c-1.193,3.383-2.97,6.522-6.572,8.28c1.591-4.163,3.182-8.324,4.774-12.491
		c-2.561,0.271-3.883-1.523-5.289-3.177c-1.937,1.71-2.022,4.755-4.648,6.697c0.509-7.16,0.354-13.731-0.843-20.247
		c-3.829-0.288-7.66-0.572-11.49-0.858c-1.344-0.096-2.688-0.192-4.028-0.288c-1.623-1.178-3.517-0.687-5.278-0.78
		c-19.034-1.004-38.061-1.384-57.103,0.065c-12.949,0.986-25.804,2.612-38.656,4.417c-11.51,1.615-22.785,4.312-34.112,6.762
		c-7.642,1.652-15.298,3.42-22.715,5.843c-3.6,1.176-4.945,1-4.798-2.911c-0.792,4.81-0.658,6.932-0.461,11.788
		c1.203,1.473,11.414,0.397,27.452,1.97c18.668,1.831,29.486,3.333,29.486,3.333c7.456,0,29.604-2.325,36.753-2.33
		c11.429-0.008,22.861-0.167,34.287,0.009C527.567,412.626,538.416,413.142,549.267,413.503"/>
</g>
</svg>
