<svg version="1.1" id="Layer_1" xmlns="http://www.w3.org/2000/svg" xmlns:xlink="http://www.w3.org/1999/xlink" x="0px" y="0px"
	 width="1024.191px" height="1024.191px" viewBox="0 0 1024.191 1024.191" enable-background="new 0 0 1024.191 1024.191"
	 xml:space="preserve">
<path fill="currentColor" d="M126.84,638.354c-0.013-3.827-0.025-7.653-0.038-11.479c0.077-1.82,0.222-3.643,0.222-5.465
	c0.028-76.729,0.063-153.455,0.048-230.183c-0.004-23.291-0.153-46.583-0.235-69.874c0.074-15.847-1.71-31.693-0.002-47.537
	c0.079-0.652,0.229-1.309,0.228-1.965c-0.07-47.06-0.148-94.118-0.258-141.177c-0.003-1.451,0.369-3.006-0.604-4.344
	c0.036-0.456,0.072-0.912,0.105-1.365c1.495-0.052,2.992-0.155,4.489-0.153c33.162,0.041,66.324,0.135,99.485,0.135
	c94.658,0.002,189.314-0.039,283.972-0.051c83.99-0.011,167.98-0.001,251.972-0.01c42.829-0.004,85.657,0.021,128.486-0.125
	c3.729-0.013,4.881,0.955,4.777,4.714c-0.135,4.774-0.703,9.621,0.505,14.369c-1.905,6.915-1.042,14.001-0.666,20.935
	c0.245,4.53,0.287,9.027,0.249,13.54c-0.039,1.493-0.106,2.99-0.106,4.488c-0.016,98.556-0.025,197.112-0.009,295.667
	c0,1.786-0.454,3.664,0.549,5.365c-1.146,2.661-0.938,5.399-0.677,8.207c1.025,11.063,0.313,22.161,0.091,33.223
	c-0.073,3.656,0.544,7.193,0.487,10.822c-0.215,13.598-0.572,27.188-0.195,40.795c0.271,9.787-0.424,19.602-0.591,29.398
	c-0.101,5.93-0.09,11.861-0.003,17.791c1.286,87.945,0.453,175.895,0.818,263.844c0.009,1.832-0.181,3.688,0.036,5.494
	c0.535,4.475-1.534,5.732-5.745,5.691c-19.317-0.197-38.642-0.225-57.959-0.225c-62.481-0.002-124.968,0.059-187.447,0.047
	c-122.133-0.016-244.268-0.088-366.397-0.084c-49.972,0.002-99.945,0.096-149.917,0.314c-4.174,0.018-5.796-0.635-5.58-5.316
	c0.4-8.641-0.007-17.316-0.079-25.979c0.072-1.318,0.208-2.645,0.207-3.965c-0.013-49.74-0.026-99.48-0.068-149.225
	C126.969,689.24,126.892,663.796,126.84,638.354z M892.67,893.277c0.229-4.121,0.656-8.242,0.659-12.361
	c0.029-43.826-0.021-87.65-0.027-131.476c-0.041-204.293-0.088-408.586-0.03-612.879c0.005-4.129-0.618-5.609-5.311-5.589
	c-51.712,0.23-103.426,0.188-155.14,0.197c-32.106,0.006-64.213-0.033-96.319-0.038c-22.723-0.004-45.445,0.018-68.169,0.024
	c-13.547,0.004-27.095,0.004-40.642-0.001c-13.893-0.004-27.778-0.079-41.67-0.012c-36.939,0.177-73.894-0.655-110.817,0.943
	c-5.675,0.246-11.229-0.677-16.844-0.967c-9.486-0.491-18.885,1.287-28.351,0.905c-5.783-0.233-11.559-0.86-17.339-0.884
	c-22.216-0.09-44.433-0.002-66.648,0.01c-21.226,0.012-42.452,0.018-63.678,0.014c-14.83-0.003-29.661-0.067-44.491,0.015
	c-1.651,0.009-3.704-1.011-4.982,1.063c-1.047,2.386-0.594,4.913-0.605,7.372c-0.068,13.829-0.063,27.658-0.062,41.488
	c0.008,133.294,0.026,266.586,0.028,399.882c0.001,98.972-0.031,197.94,0.01,296.913c0.002,4.943-0.668,9.945,0.648,14.846
	c1.344,1.063,2.894,0.5,4.365,0.551c1.641,0.146,3.283,0.418,4.924,0.42c55.972,0.07,111.943,0.146,167.915,0.156
	c77.465,0.018,154.933,0.012,232.396-0.063c9.806-0.01,19.628,0.426,29.421-0.492c1.115,0.002,2.229,0.006,3.344,0.008
	c2.14,0.154,4.279,0.451,6.419,0.453c95.55,0.072,191.103,0.16,286.649,0.1C876.432,893.869,884.586,894.621,892.67,893.277z"/>
<path fill="currentColor" d="M495.908,531.164c-12.94,1.063-25.87,2.308-38.826,3.135c-12.503,0.799-25.033,1.168-37.547,1.727
	c-12.471,0.005-24.946,0.012-37.421,0.018c-9.882-0.565-19.842-0.534-29.629-1.813c-23.298-3.051-46.49-6.846-67.599-18.142
	c-2.901-1.553-5.837-3.278-8.234-5.491c-6.898-6.365-8.971-16.279,2.452-21.655c6.147-2.894,12.942-5.107,19.655-5.937
	c10.683-1.32,21.554-1.843,32.316-1.572c12.737,0.321,25.444,1.815,38.161,2.854c9.568,0.782,19.13,1.646,29.104,2.51
	c4.914-13.574,9.813-26.985,14.622-40.427c3.657-10.218,7.55-20.37,10.696-30.746c2.896-9.556,9.433-12.784,18.583-12.453
	c11.683,0.422,23.362,0.971,35.044,1.426c7.034,0.273,14.082,0.295,21.103,0.748c9.229,0.595,18.438,1.521,27.658,2.268
	c3.862,0.313,7.73,0.569,11.601,0.793c9.136,0.53,18.286,0.85,27.404,1.583c9.809,0.789,19.586,1.94,29.375,2.958
	c7.762,0.808,11.701,6.152,14.114,12.686c5.802,15.705,11.289,31.526,16.901,47.301c0.994,2.799,1.979,5.6,2.969,8.398
	c-1.487,0.218-2.971,0.468-4.462,0.649c-7.388,0.899-14.911,1.179-22.143,2.782c-23.663,5.247-47.218,10.988-70.82,16.511
	c-18.074,4.227-36.065,8.887-54.267,12.486c-22.07,4.366-44.321,7.819-66.494,11.667c1.812-0.353,3.71-0.241,5.594-0.369
	c31.789-2.135,63.352-6.124,94.561-12.501c33.028-6.749,65.959-13.969,98.919-21.046c12.94-2.778,25.845-5.729,38.765-8.601
	c8.198-1.438,16.38-3,24.604-4.273c5.537-0.855,11.124-1.473,16.712-1.885c6.139-0.454,12.32-0.965,18.453-0.719
	c13.896,0.558,27.727,2.048,40.385,8.384c3.446,1.726,6.797,4.452,9.062,7.545c3.61,4.935,0.723,12.233-5.217,16.658
	c-11.422,8.512-24.703,12.563-38.207,15.639c-12.168,2.771-24.571,4.729-36.973,6.177c-13.902,1.625-27.918,2.272-41.881,3.346
	c-4.023-0.021-8.054-0.063-12.083-0.064c-13.494,0-26.988,0.014-40.481,0.022c-21.165-0.854-42.33-1.704-63.49-2.558
	C511.269,531.176,503.588,531.17,495.908,531.164z"/>
<path fill="currentColor" d="M241.247,607.264c177.202,0.014,354.404,0.024,531.603,0.037c5.248,0.215,10.499,0.502,15.755,0.623
	c4.565,0.104,9.139,0.021,13.708,0.021c0.089,0.538,0.178,1.077,0.266,1.614c-1.52,0.461-3.024,0.966-4.558,1.367
	c-1.192,0.313-2.982,0.078-3.526,0.813c-1.757,2.369-4.082,2.096-6.443,2.099c-83.163,0.105-166.324,0.263-249.487,0.303
	c-83.794,0.04-167.589-0.039-251.383-0.063c-20.438-0.006-40.876-0.001-61.314-0.001c-0.002-0.229-0.003-0.456-0.005-0.687
	c1.452-0.093,2.904-0.187,4.433-0.284c-1.041-1.662-1.971-3.148-2.986-4.771C232.314,607.951,236.78,607.607,241.247,607.264z"/>
<path fill="#C4A760" d="M648.063,482.908c-12.92,2.872-25.822,5.821-38.764,8.601c-32.96,7.077-65.892,14.298-98.919,21.046
	c-31.209,6.377-62.771,10.366-94.561,12.501c-1.884,0.127-3.782,0.018-5.595,0.369c22.174-3.848,44.425-7.301,66.495-11.667
	c18.2-3.6,36.191-8.26,54.267-12.487c23.604-5.521,47.156-11.263,70.82-16.51c7.23-1.604,14.754-1.883,22.143-2.783
	c1.491-0.182,2.975-0.432,4.462-0.648c2.212,0.226,4.421,0.495,6.637,0.666C639.383,482.329,643.724,482.607,648.063,482.908z"/>
<path fill="#C4A760" d="M241.247,607.264c-4.466,0.345-8.933,0.688-13.941,1.073c1.015,1.623,1.945,3.109,2.986,4.771
	c-1.529,0.099-2.98,0.191-4.433,0.284c0.001,0.229,0.003,0.457,0.005,0.687c20.438,0,40.876-0.005,61.314,0.001
	c83.793,0.022,167.588,0.103,251.382,0.063c83.163-0.04,166.325-0.196,249.488-0.303c2.361-0.003,4.688,0.271,6.443-2.099
	c0.544-0.735,2.334-0.502,3.525-0.813c1.533-0.401,3.039-0.906,4.559-1.367c-0.088-0.538-0.177-1.077-0.266-1.614
	c-4.569,0-9.143,0.083-13.709-0.021c-5.255-0.121-10.506-0.408-15.754-0.623c14.271,0.073,28.536,0.118,42.803,0.235
	c4.926,0.04,9.851,0.223,14.771,0.411c4.52,0.173,9.032,0.439,13.55,0.666c0.083,0.321,0.167,0.645,0.252,0.968
	c-0.98,0.456-1.923,1.147-2.95,1.319c-2.479,0.414-5.309-0.064-7.442,0.965c-8.097,3.906-16.64,1.765-24.952,2.299
	c-8.564,0.551-17.173,0.514-25.762,0.517c-131.076,0.042-262.151,0.066-393.228,0.058c-57.259-0.005-114.518-0.071-171.777-0.171
	c-7.196-0.014-14.44,0.034-21.569-0.769c-4.735-0.532-9.305-2.526-14.12-4.589c1.053-0.364,2.099-1.026,3.16-1.051
	c18.313-0.424,36.628-0.771,54.943-1.121C240.767,607.033,241.007,607.185,241.247,607.264z"/>
<path fill="#C4A760" d="M582.436,533.737c13.494-0.01,26.988-0.022,40.482-0.022c4.029,0.001,8.059,0.043,12.083,0.064
	c-4.616,0.192-9.229,0.532-13.841,0.552c-11.691,0.049-23.384-0.031-35.075-0.105C584.867,534.218,583.651,533.907,582.436,533.737z
	"/>
<path fill="#C4A760" d="M382.114,536.042c12.475-0.006,24.95-0.013,37.421-0.018c-4.358,0.195-8.713,0.575-13.065,0.548
	C398.351,536.521,390.232,536.231,382.114,536.042z"/>
<path fill="#C4A760" d="M495.908,531.164c7.681,0.006,15.36,0.012,23.038,0.017C511.264,531.175,503.586,531.17,495.908,531.164z"/>
<path fill="currentColor" d="M124.342,690.246c-0.015-6.445-0.029-12.893-0.044-19.334c0.988-3.416,0.581-6.93,0.583-10.396
	c0.013-16.473-0.054-32.943-0.128-49.416c-0.067-14.957,0.528-29.92-0.437-44.865c-0.084-19.271-0.22-38.541-0.243-57.813
	c-0.04-33.403-0.041-66.806,0.001-100.209c0.028-22.099,0.158-44.196,0.243-66.289c0.116-1.142,0.332-2.287,0.334-3.434
	c0.056-31.458,0.145-62.916,0.105-94.374c-0.02-15.956-0.278-31.911-0.429-47.866c0.018-22.265,0.056-44.528,0.024-66.792
	c-0.003-2.521-0.185-4.472,3.486-4.212c14.248,1.008,28.547-0.556,42.764,0.275c13.485,0.789,26.938,0.438,40.401,0.515
	c28.754,0.165,57.517,0.408,86.261-0.141c11.631-0.223,23.268-0.507,34.899-0.473c14.229,0.041,28.459,0.597,42.688,0.592
	c15.465-0.005,30.938-0.835,46.39-0.491c14.131,0.313,28.268,0.882,42.389,0.51c56.105-1.48,112.216-0.463,168.323-0.64
	c49.92-0.157,99.841-0.042,149.762-0.056c36.254-0.01,72.508-0.05,108.762-0.041c9.512,0.003,8.7-1.146,8.7,8.403
	c-0.01,93.479-0.033,186.958-0.053,280.438c-0.012,57.806-0.046,115.611-0.032,173.417c0.017,62.955,0.118,125.91,0.103,188.865
	c-0.012,41.641-0.165,83.279-0.252,124.916c-1.163-0.031-2.329-0.088-3.494-0.088c-102.455-0.02-204.909-0.037-307.364-0.049
	c-122.444-0.016-244.889-0.033-367.333-0.029c-31.815,0-63.63,0.082-95.444,0.125c-0.141-0.193-0.327-0.322-0.555-0.383
	c0.034-0.828,0.091-1.658,0.091-2.488c-0.03-56.432-0.041-112.863-0.115-169.295C124.709,716.17,124.476,703.207,124.342,690.246z
	 M891.817,515.848c0.044-17.47,0.127-34.938,0.126-52.406c0-87.396-0.016-174.79-0.04-262.185
	c-0.006-22.297-0.068-44.595-0.105-66.892c-0.033-2.001-1.489-1.279-2.518-1.285c-15.812-0.099-31.62-0.267-47.432-0.253
	c-27.111,0.023-54.224,0.211-81.336,0.242c-39.923,0.047-79.846,0.056-119.77,0.007c-24.725-0.03-49.448-0.269-74.172-0.278
	c-19.95-0.009-39.9,0.259-59.852,0.267c-24.265,0.01-48.528-0.125-72.794-0.198c-1.309-0.139-2.616-0.398-3.925-0.399
	c-31.445-0.034-62.891-0.048-94.336-0.034c-1.478,0.001-2.953,0.278-4.43,0.427c-12.97,0.074-25.938,0.223-38.906,0.209
	c-51.293-0.056-102.586-0.093-153.877-0.357c-4.993-0.026-6.703,1.002-6.646,6.375c0.319,30.487,0.281,60.979,0.269,91.47
	c-0.045,106.465-0.158,212.93-0.19,319.395c-0.024,79.475,0.033,158.949,0.061,238.424c0.012,33.654,0.117,67.313-0.037,100.967
	c-0.018,4.025,1.183,4.934,4.985,4.855c14.821-0.293,29.647-0.268,44.472-0.359c27.316,0.059,54.632,0.156,81.948,0.16
	c20.818,0,41.636-0.121,62.454-0.188c0.875,0.004,1.751,0.008,2.626,0.012c1.491,0.078,2.981,0.221,4.474,0.223
	c44.158,0.02,88.315,0.049,132.475,0.018c26.485-0.02,52.971-0.141,79.456-0.217c6.211,0.338,12.421,0.428,18.63-0.033
	c8.317,0.084,16.634,0.246,24.951,0.234c29.132-0.043,58.263-0.146,87.396-0.229c1.872-0.012,3.743-0.021,5.616-0.031
	c1.824,0.084,3.648,0.24,5.474,0.24c44.328,0.008,88.655,0.006,132.983-0.012c22.498-0.008,44.997-0.127,67.493,0.016
	c3.71,0.021,5.088-0.947,4.755-4.74c-0.35-3.973-0.232-7.99-0.232-11.99c-0.001-73.15,0.016-146.305,0.017-219.457
	c0.001-23.488-0.031-46.979-0.048-70.471c-0.234-1.604-0.67-3.207-0.674-4.811c-0.057-20.633-0.066-41.266-0.029-61.896
	C891.13,519.059,891.577,517.453,891.817,515.848z"/>
</svg>
