<svg version="1.1" id="Layer_1" xmlns="http://www.w3.org/2000/svg" xmlns:xlink="http://www.w3.org/1999/xlink" x="0px" y="0px"
	 width="1024.191px" height="1024.191px" viewBox="0 0 1024.191 1024.191" enable-background="new 0 0 1024.191 1024.191"
	 xml:space="preserve">
<path fill="currentColor" d="M126.84,638.354c-0.013-3.827-0.025-7.653-0.038-11.479c0.077-1.82,0.222-3.643,0.222-5.465
	c0.028-76.729,0.063-153.455,0.048-230.183c-0.004-23.291-0.153-46.583-0.235-69.874c0.074-15.847-1.71-31.693-0.002-47.537
	c0.079-0.652,0.229-1.309,0.228-1.965c-0.07-47.06-0.148-94.118-0.258-141.177c-0.003-1.451,0.369-3.006-0.604-4.344
	c0.036-0.456,0.072-0.912,0.105-1.365c1.495-0.052,2.992-0.155,4.489-0.153c33.162,0.041,66.324,0.135,99.485,0.135
	c94.658,0.002,189.314-0.039,283.972-0.051c83.99-0.011,167.98-0.001,251.972-0.01c42.829-0.004,85.657,0.021,128.486-0.125
	c3.729-0.013,4.881,0.955,4.777,4.714c-0.134,4.774-0.703,9.621,0.505,14.369c-1.905,6.915-1.042,14.001-0.666,20.935
	c0.245,4.53,0.287,9.027,0.249,13.54c-0.039,1.493-0.106,2.99-0.106,4.488c-0.016,98.556-0.026,197.112-0.009,295.667
	c0,1.786-0.454,3.664,0.549,5.365c-1.147,2.661-0.938,5.399-0.677,8.207c1.025,11.063,0.313,22.161,0.091,33.223
	c-0.073,3.656,0.544,7.193,0.487,10.822c-0.215,13.597-0.572,27.188-0.195,40.795c0.271,9.787-0.424,19.601-0.591,29.398
	c-0.101,5.93-0.09,11.861-0.003,17.791c1.286,87.945,0.453,175.895,0.818,263.844c0.009,1.832-0.18,3.688,0.037,5.494
	c0.535,4.475-1.535,5.732-5.746,5.691c-19.317-0.197-38.641-0.224-57.959-0.224c-62.481-0.002-124.967,0.058-187.447,0.047
	c-122.133-0.016-244.267-0.088-366.397-0.084c-49.972,0.002-99.945,0.095-149.917,0.314c-4.174,0.018-5.796-0.635-5.58-5.316
	c0.4-8.641-0.007-17.317-0.079-25.979c0.072-1.318,0.208-2.644,0.207-3.965c-0.013-49.74-0.026-99.48-0.068-149.224
	C126.969,689.24,126.892,663.796,126.84,638.354z M892.67,893.277c0.229-4.121,0.656-8.242,0.659-12.361
	c0.029-43.826-0.021-87.65-0.027-131.476c-0.041-204.293-0.088-408.586-0.03-612.879c0.004-4.129-0.619-5.609-5.311-5.589
	c-51.712,0.23-103.426,0.188-155.14,0.197c-32.106,0.006-64.213-0.033-96.319-0.038c-22.723-0.004-45.445,0.018-68.169,0.024
	c-13.547,0.004-27.095,0.004-40.642-0.001c-13.892-0.004-27.778-0.079-41.669-0.012c-36.94,0.177-73.894-0.655-110.818,0.943
	c-5.675,0.246-11.229-0.677-16.844-0.967c-9.486-0.491-18.884,1.287-28.35,0.905c-5.783-0.233-11.559-0.86-17.339-0.884
	c-22.216-0.09-44.433-0.002-66.648,0.01c-21.226,0.012-42.452,0.018-63.678,0.014c-14.83-0.003-29.661-0.067-44.491,0.015
	c-1.651,0.009-3.704-1.011-4.982,1.063c-1.047,2.386-0.594,4.913-0.605,7.372c-0.068,13.829-0.063,27.658-0.062,41.488
	c0.008,133.294,0.026,266.587,0.028,399.882c0.001,98.972-0.031,197.941,0.01,296.914c0.002,4.943-0.668,9.945,0.648,14.845
	c1.344,1.063,2.894,0.5,4.365,0.551c1.641,0.146,3.283,0.418,4.924,0.42c55.972,0.07,111.943,0.146,167.915,0.156
	c77.465,0.018,154.932,0.012,232.396-0.063c9.806-0.01,19.628,0.426,29.421-0.492c1.115,0.002,2.229,0.005,3.344,0.007
	c2.14,0.155,4.279,0.452,6.419,0.454c95.55,0.072,191.102,0.16,286.649,0.099C876.432,893.869,884.586,894.621,892.67,893.277z"/>
<path fill-rule="evenodd" clip-rule="evenodd" fill="currentColor" d="M495.908,531.164c-12.94,1.063-25.87,2.308-38.826,3.135
	c-12.503,0.799-25.033,1.168-37.547,1.726c-12.471,0.005-24.946,0.012-37.421,0.018c-9.882-0.565-19.842-0.534-29.629-1.814
	c-23.298-3.05-46.49-6.845-67.599-18.141c-2.901-1.553-5.837-3.278-8.234-5.491c-6.898-6.366-8.971-16.28,2.452-21.656
	c6.147-2.893,12.942-5.107,19.655-5.936c10.682-1.32,21.554-1.843,32.316-1.572c12.737,0.321,25.445,1.815,38.161,2.854
	c9.569,0.782,19.13,1.646,29.104,2.51c4.914-13.574,9.812-26.985,14.622-40.427c3.657-10.218,7.55-20.37,10.696-30.746
	c2.897-9.556,9.433-12.784,18.583-12.453c11.683,0.422,23.362,0.971,35.044,1.426c7.034,0.273,14.082,0.295,21.103,0.748
	c9.229,0.595,18.438,1.521,27.658,2.268c3.862,0.313,7.73,0.569,11.6,0.793c9.136,0.53,18.287,0.85,27.405,1.583
	c9.808,0.789,19.586,1.94,29.375,2.958c7.761,0.808,11.701,6.152,14.114,12.686c5.802,15.705,11.289,31.526,16.901,47.301
	c0.994,2.798,1.979,5.599,2.969,8.398c-1.487,0.218-2.971,0.468-4.462,0.649c-7.388,0.9-14.911,1.179-22.142,2.783
	c-23.664,5.247-47.218,10.988-70.821,16.51c-18.074,4.227-36.065,8.887-54.266,12.487c-22.071,4.366-44.322,7.819-66.495,11.667
	c1.812-0.353,3.71-0.242,5.594-0.369c31.789-2.135,63.352-6.124,94.561-12.501c33.028-6.749,65.959-13.969,98.919-21.046
	c12.94-2.779,25.844-5.729,38.764-8.601c8.199-1.438,16.38-3,24.604-4.273c5.537-0.856,11.124-1.473,16.712-1.885
	c6.139-0.454,12.32-0.965,18.453-0.719c13.895,0.558,27.727,2.048,40.385,8.384c3.446,1.726,6.797,4.452,9.061,7.545
	c3.611,4.934,0.723,12.233-5.216,16.658c-11.422,8.512-24.704,12.564-38.208,15.639c-12.167,2.771-24.571,4.729-36.972,6.177
	c-13.903,1.624-27.918,2.272-41.881,3.345c-4.024-0.021-8.054-0.063-12.083-0.064c-13.494,0-26.988,0.014-40.482,0.022
	c-21.165-0.853-42.33-1.704-63.49-2.557C511.269,531.176,503.588,531.17,495.908,531.164z"/>
<path fill-rule="evenodd" clip-rule="evenodd" fill="currentColor" d="M241.247,607.264c177.202,0.013,354.404,0.024,531.603,0.037
	c5.248,0.215,10.499,0.502,15.754,0.623c4.566,0.104,9.139,0.021,13.708,0.021c0.089,0.538,0.178,1.077,0.266,1.615
	c-1.519,0.461-3.024,0.965-4.558,1.367c-1.192,0.312-2.982,0.078-3.526,0.813c-1.757,2.369-4.082,2.096-6.443,2.099
	c-83.163,0.105-166.325,0.263-249.488,0.303c-83.794,0.04-167.589-0.039-251.383-0.063c-20.438-0.006-40.876-0.001-61.314-0.001
	c-0.002-0.229-0.003-0.456-0.005-0.686c1.452-0.093,2.904-0.187,4.433-0.285c-1.041-1.662-1.971-3.148-2.986-4.771
	C232.314,607.951,236.78,607.607,241.247,607.264z"/>
<path fill-rule="evenodd" clip-rule="evenodd" fill="#C4A760" d="M648.063,482.908c-12.92,2.872-25.823,5.822-38.764,8.601
	c-32.96,7.077-65.892,14.298-98.919,21.046c-31.209,6.377-62.772,10.366-94.561,12.501c-1.883,0.127-3.782,0.017-5.594,0.369
	c22.173-3.848,44.424-7.301,66.495-11.667c18.2-3.6,36.191-8.26,54.266-12.487c23.604-5.521,47.157-11.263,70.821-16.51
	c7.23-1.604,14.754-1.883,22.142-2.783c1.491-0.182,2.975-0.432,4.462-0.649c2.212,0.226,4.421,0.495,6.637,0.666
	C639.383,482.329,643.724,482.607,648.063,482.908z"/>
<path fill-rule="evenodd" clip-rule="evenodd" fill="#C4A760" d="M241.247,607.264c-4.466,0.344-8.933,0.688-13.941,1.073
	c1.015,1.623,1.945,3.109,2.986,4.771c-1.529,0.099-2.98,0.192-4.433,0.285c0.001,0.229,0.003,0.457,0.005,0.686
	c20.438,0,40.876-0.005,61.314,0.001c83.794,0.023,167.589,0.103,251.383,0.063c83.163-0.04,166.325-0.197,249.488-0.303
	c2.361-0.003,4.687,0.271,6.443-2.099c0.544-0.735,2.334-0.502,3.526-0.813c1.533-0.402,3.039-0.906,4.558-1.367
	c-0.088-0.538-0.177-1.077-0.266-1.615c-4.569,0-9.142,0.083-13.708-0.021c-5.255-0.121-10.506-0.408-15.754-0.623
	c14.271,0.073,28.536,0.118,42.802,0.235c4.926,0.04,9.851,0.223,14.772,0.411c4.519,0.173,9.032,0.44,13.55,0.666
	c0.083,0.322,0.167,0.645,0.252,0.968c-0.981,0.456-1.923,1.148-2.951,1.319c-2.478,0.414-5.308-0.064-7.442,0.965
	c-8.097,3.907-16.64,1.765-24.952,2.299c-8.564,0.551-17.173,0.514-25.762,0.517c-131.076,0.042-262.151,0.066-393.227,0.057
	c-57.259-0.005-114.518-0.071-171.777-0.171c-7.196-0.013-14.44,0.035-21.569-0.768c-4.735-0.532-9.305-2.527-14.12-4.589
	c1.053-0.364,2.099-1.026,3.16-1.051c18.313-0.424,36.628-0.77,54.943-1.121C240.767,607.033,241.007,607.185,241.247,607.264z"/>
<path fill-rule="evenodd" clip-rule="evenodd" fill="#C4A760" d="M582.436,533.737c13.494-0.009,26.988-0.022,40.482-0.022
	c4.029,0.001,8.059,0.043,12.083,0.064c-4.616,0.193-9.229,0.532-13.841,0.552c-11.691,0.049-23.384-0.031-35.075-0.105
	C584.867,534.218,583.651,533.907,582.436,533.737z"/>
<path fill-rule="evenodd" clip-rule="evenodd" fill="#C4A760" d="M382.114,536.042c12.475-0.006,24.95-0.013,37.421-0.018
	c-4.358,0.196-8.713,0.576-13.065,0.548C398.351,536.521,390.232,536.231,382.114,536.042z"/>
<path fill-rule="evenodd" clip-rule="evenodd" fill="#C4A760" d="M495.908,531.164c7.681,0.006,15.361,0.012,23.038,0.017
	C511.264,531.175,503.586,531.17,495.908,531.164z"/>
</svg>
