<svg version="1.1" id="Layer_1" xmlns="http://www.w3.org/2000/svg" xmlns:xlink="http://www.w3.org/1999/xlink" x="0px" y="0px"
	 width="1024.191px" height="1024.191px" viewBox="0 0 1024.191 1024.191" enable-background="new 0 0 1024.191 1024.191"
	 xml:space="preserve">
<path fill-rule="evenodd" clip-rule="evenodd" fill="currentColor" d="M159.97,124.264c45.153,0.074,90.306,0.2,135.459,0.211
	c97.287,0.024,194.574-0.008,291.861-0.022c34.313-0.005,68.625-0.063,102.938-0.03c44.278,0.04,88.556,0.185,132.834,0.209
	c22.982,0.014,45.966-0.155,68.948-0.176c2.285-0.003,4.673-0.548,6.854,0.658c-0.055,9.605-0.467,19.225,0.437,28.823
	c-0.843,2.428-0.861,4.856-0.006,7.277c-0.157,1.788-0.451,3.585-0.455,5.383c-0.033,17.495-0.068,34.991,0.021,52.485
	c0.021,4.294-0.501,8.623,0.439,12.891c-0.925,2.744-0.938,5.49-0.006,8.228c-0.753,8.249-0.706,16.508,0.006,24.767
	c-0.229,2.43-0.657,4.86-0.655,7.29c0.012,19.929-0.32,39.862,0.698,59.779c0.19,3.719-1.574,7.434-0.034,11.15
	c-0.841,10.597-0.646,21.201,0,31.807c-0.737,5.99-0.994,11.951-0.052,17.979c0.43,2.747-0.019,5.632-0.068,8.442
	c-0.587,6.803-0.551,13.618-0.031,20.435c-1.211,2.158-0.137,4.261,0.154,6.373c-0.696,6.919-0.729,13.848-0.031,20.777
	c-0.932,4.068-0.959,8.134,0.034,12.188c-0.917,9.482-0.471,18.982-0.171,28.481c-0.479,9.583-0.569,19.167,0.019,28.75
	c-0.755,11.934-0.347,23.88-0.298,35.819c0.043,10.586-0.388,21.181,0.445,31.756c-1.084,7.415-1.113,14.83-0.003,22.236
	c-0.991,5.259-0.375,10.581-0.375,15.866c-0.001,14.943-0.484,29.894,0.354,44.831c-0.04,4.192-0.08,8.386-0.12,12.565
	c-0.519,7.103-0.587,14.219,0.023,21.334c-0.978,4.488-0.919,8.979-0.026,13.461c-0.524,13.193-0.526,26.399-0.007,39.604
	c-1.041,8.909-0.742,17.841-0.133,26.745c0.146,2.128,0.37,4.271,0.343,6.399c-0.214,16.642-0.525,33.281-0.717,49.923
	c-0.027,2.421,0.425,4.847,0.657,7.262c-0.904,7.137-0.4,14.295-0.167,21.45c-0.497,7.362-0.558,14.723,0.046,22.083
	c-0.191,2.761-0.497,5.521-0.537,8.285c-0.032,2.195-1.575,1.498-2.736,1.782c-8.631,2.113-17.269-0.538-25.889,0.093
	c-6.614-0.435-13.237-0.408-19.86-0.001c-3.711-0.001-7.423-0.002-11.126-0.003c-7.604-0.503-15.214-0.26-22.824,0.032
	c-3.094-0.002-6.187-0.003-9.271-0.005c-0.979-0.08-1.967-0.23-2.955-0.23c-120.118,0.029-240.236,0.063-360.354,0.112
	c-25.812,0.011-51.623,0.077-77.435,0.118c-1.397-0.008-2.794-0.015-4.182-0.022c-19.269,0.009-38.545,0.017-57.821,0.025
	c-5.405-0.003-10.81-0.007-16.205-0.01c-27.255-0.011-54.518-0.021-81.781-0.031c-2.071,0.003-4.142,0.005-6.204,0.008
	c-8.59,0.011-17.188,0.022-25.787,0.033c-8.416-0.004-16.832-0.009-25.237-0.013c-6.243-0.432-12.495-0.365-18.747,0.006
	c-3.257,0.258-4.503-0.875-4.5-4.491c0.081-102.299,0.016-204.598,0.01-306.896c-0.006-107.463,0.016-214.926,0.048-322.388
	c0.004-14.481,0.14-28.962,0.216-43.431c0.603-6.08,0.573-12.172,0.003-18.265c-0.093-25.826-0.181-51.653-0.293-77.479
	c-0.007-1.728-0.254-3.492,2.391-3.073C138.711,125.143,149.344,124.422,159.97,124.264z M338.57,892.982
	c1.482,0.112,2.966,0.322,4.449,0.323c72.203,0.056,144.406,0.104,216.609,0.111c5.137,0,10.297,0.393,15.411-0.475
	c5.352,1.023,10.704,0.981,16.058,0.018c1.479,0.109,2.96,0.311,4.439,0.313c30.23,0.054,60.461,0.204,90.69,0.069
	c14.927-0.066,29.865,0.657,44.783-0.404c1.043,0.733,2.093,0.742,3.15,0.031c6.939,0.652,13.876,0.673,20.811-0.065
	c2.398,0.007,4.797,0.015,7.196,0.021c8.283,0.623,16.566,0.79,24.849-0.027c1.134,0.107,2.267,0.214,3.4,0.322
	c10.593,1.015,21.162-0.424,31.746-0.296c7.604,0.553,15.209,0.705,22.812-0.024c4.395-0.029,8.79,0.004,13.182-0.102
	c11.302-0.273,22.657,2.314,34.125-0.969c0-13.061,0-26.457,0-39.853c0.446-7.593,0.367-15.187,0.001-22.78
	c0.286-5.066-1.674-10.132-0.002-15.198c0.081-1.321,0.234-2.644,0.235-3.965c0.017-65.631,0.041-131.261,0.012-196.892
	c-0.009-20.31-0.169-40.619-0.26-60.93c0.003-2.083,0.007-4.167,0.011-6.25c0.069-7.642,0.208-15.283,0.197-22.924
	c-0.032-22.948-0.122-45.896-0.188-68.845c-0.001-1.065-0.002-2.131-0.002-3.195c0.071-24.958,0.194-49.916,0.198-74.874
	c0.003-21.294-0.133-42.589-0.207-63.883c0-1.426-0.001-2.853-0.001-4.279c-0.008-16.584-0.017-33.168-0.024-49.752
	c0.017-2.729,0.034-5.459,0.051-8.188c0.072-16.812,0.213-33.623,0.201-50.435c-0.015-22.142-0.149-44.284-0.233-66.427
	c0.133-0.989-0.277-1.655-1.199-2.019c-1.645-0.104-3.29-0.296-4.935-0.298c-68.957-0.045-137.914-0.102-206.871-0.098
	c-147.075,0.009-294.15,0.048-441.225,0.099c-1.961,0.001-3.986-0.438-5.887,0.47c-3.047,0.481-6.093,0.468-9.14-0.004
	c-2.24-0.926-4.596-0.493-6.892-0.501c-19.329-0.068-38.659-0.125-57.988-0.061c-8.297,0.027-16.61-0.479-24.892,0.479
	c-1.458,1.936-0.77,4.18-0.771,6.266c-0.063,125.124-0.092,250.248-0.1,375.371c-0.006,98.134,0.017,196.267,0.033,294.399
	c0.004,26.991,0.052,53.982,0.019,80.973c-0.003,2.636-0.067,5.327,3.406,5.261c7.785-0.147,15.604,0.87,23.356-0.561
	c1.312,0.13,2.624,0.371,3.935,0.372c26.483,0.033,52.967,0.166,79.449,0.002c15.799-0.099,31.609,0.729,47.4-0.384
	c4.406,1.074,8.812,1.077,13.199,0.017C314.968,893.588,326.769,893.681,338.57,892.982z"/>
<path fill-rule="evenodd" clip-rule="evenodd" fill="currentColor" d="M810.652,529.74c2.637,5.937,6.47,11.596,4.409,19.353
	c-2.455-2.941-1.839-6.813-5.055-9.342c-0.397,4.558-1.009,8.189,2.624,11.815c3.256,3.249,6.393,7.478,2.601,12.613
	c-0.175-0.263-0.415-0.436-0.716-0.523c-0.075-0.488-0.15-0.977-0.226-1.465c-0.147,0.208-0.296,0.415-0.444,0.623
	c-4.536-0.513-2.091-5.151-4.497-7.971c-1.047,4.957-2.093,9.133-3.626,13.174c-0.541,1.426-0.624,3.849,0.225,4.836
	c3.6,4.189-0.019,9.687,3.2,14.271c1.485,2.115,0.679,8.701-1.07,9.665c-4.425,2.439-0.4,7.932-4.822,9.839
	c-1.223,0.528-0.876,2.776,0.31,4.413c4.194,5.792,4.401,11.869,0.367,18.507c-1.311-5.166-2.524-9.949-3.94-15.526
	c-3.153,5.026-2.051,10.006-2.683,14.65c-0.235-0.043-0.473-0.069-0.713-0.076c-3.307-1.797-3.467-4.428-2.133-7.577
	c1.063-2.51,1.743-5.114,0.985-8.069c-2.652,2.001-1.07,5.606-3.219,7.25c-3.013-0.101-0.264-3.955-3.102-4.288
	c-0.765,2.028-0.858,3.828,0.68,5.574c1.097,1.246,2.443,3.079,1.702,4.455c-1.877,3.48,0.317,5.837,1.514,8.586
	c0.845,1.94,1.906,3.866,1.738,6.114c-1.758-0.217-1.099-2.788-2.893-2.965c-0.163-0.017-0.331,0.019-1.149,0.072
	c4.709,8.187,7.088,16.521,2.515,25.357c-1.794-3.582-3.072-7.232-5.94-11.202c0.23,8.654,0.995,16.505-0.61,24.304
	c-2.52-9.078-2.84-18.321-1.904-27.846c-3.121,1.662-3.121,1.662-4.464,15.225c-2.286-1.094-2.442-2.605-2.553-4.973
	c-0.248-5.329,1.568-10.076,2.932-14.988c2.45-4.23,2.673-9.239,4.746-13.607c0.581-1.225,0.236-2.833-1.213-2.423
	c-5.294,1.499-2.395-2.719-2.242-3.645c0.879-5.346,1.039-5.319,0.154-9.053c-2.944,9.992-2.438,19.361-2.259,28.701
	c-1.717-0.642-1.837-0.624-1.987-1.652c-0.403-2.76-1.108-5.349-3.499-7.924c-1.493,2.942,0.34,5.938-1.356,8.509
	c-4.222-4.277,2.069-11.596-4.757-15.17c-0.4,1.55,0.689,3.866-1.572,3.92c-1.594,0.039-1.377-2.073-1.77-3.109
	c-0.522-1.378-0.111-3.411,1.949-3.587c3.069-0.262,4.394-2.289,3.56-4.604c-1.065-2.959-0.158-5.933-1.041-8.772
	c-0.267,0-0.623-0.11-0.835,0.018c-1.602,0.964,0.031,4.608-2.481,4.08c-2.312-0.486-1.31-3.369-1.375-5.282
	c-0.045-1.312-0.009-2.626-0.009-4.896c-2.687,2.968-3.471,6.29-2.867,8.543c2.335,8.725,0.317,17.241-0.155,25.838
	c-0.109,1.986-0.017,3.984-0.017,6.916c-2.909-3.881-4.056-7.76-2.661-11.049c2.236-5.273-0.181-10.143,0.823-15.756
	c-3.588,2.141-2.974,4.968-3.315,7.475c-0.176,1.291,0.843,3.436-1.594,3.451c-2.281,0.015-0.946-2.009-1.245-3.071
	c-1.573-5.586-2.352-11.118-0.299-16.891c1.06-2.981,2.855-5.182,4.973-7.222c1.948-1.878,1.474-3.908-0.071-5.123
	c-2.024-1.593-2.664,1.039-3.524,2.132c-1.381,1.752-1.63,4.26-3.564,5.84c-1.104-1.485-0.886-3.523-2.63-4.839
	c-1.96,2.039,0.295,4.889-2.069,7.288c-1.834-4.398-2.063-9.573-6.203-13.376c-1.297,5.696,0.495,9.941,3.413,14.024
	c2.927,4.094,2.772,6.232-0.613,9.609c-0.227-3.356-0.95-6.316-2.571-8.908c-0.58-0.928-1.574-1.806-2.949-1.359
	c-1.324,0.43-0.921,1.619-0.945,2.513c-0.11,3.961,0.265,7.607,2.862,11.114c2.484,3.354,4.985,7.21,3.645,11.901
	c-0.228,0.794-0.147,2.165-1.517,2.241c-1.271,0.071-1.541-1.034-1.962-1.92c-0.142-0.299-0.273-0.609-0.462-0.878
	c-1.273-1.804,0.254-6.142-2.52-5.591c-2.615,0.52-0.951,4.534-1.055,6.958c-0.244,5.696-0.078,11.409-0.655,17.11
	c-3.801-7.811-2-15.679-0.317-23.656c-1.472-1.505-2.149,1.992-3.968,0.259c5.767-4.718,2.829-10.606,2.2-16.397
	c-0.47-4.332-0.093-8.756-0.482-13.149c-6.248,11.396-4.43,23.861-5.379,36.025c-5.402-9.702-1.859-19.932-1.889-30.046
	c-2.211,0.112-1.289,2.401-2.031,3.553c-0.77,1.195-0.432,3.006-2.116,3.903c-2.843-2.443-0.112-4.801,0.341-7.063
	c0.529-2.64,3.389-4.739-0.327-7.783c-1.682-1.377-1.19-5.59,0.203-8.073c1.469-2.615,2.611-4.646,0.615-7.601
	c-0.864-1.28-0.393-3.464-0.55-5.541c-3.695,1.791-1.848,5.799-3.998,8.796c-1.128-2.773-0.757-4.845-0.624-6.888
	c-0.032-0.193-0.061-0.387-0.086-0.581c1.799-3.262,3.732-6.457,5.353-9.804c1.298-2.681-0.734-5.841-3.345-5.574
	c-1.775-1.479-0.875-3.506-0.607-5.066c0.647-3.777-1.219-6.536-2.824-9.78c-2.416,5.051-3.466,9.965-1.438,14.979
	c0.646,1.597,0.516,2.752-0.129,4.101c0.013,0.748-0.119,1.43-0.848,1.836c-5.155-6.396-5.563-14.862-0.573-22.166
	c-3.402,0.003-5.046-0.996-2.359-4.241c1.467-1.772,0.772-2.948-0.525-4.688c-2.264-3.035-4.579-6.236-5.024-10.393
	c-2.049,4.084-4.678,7.961-2.329,12.92c1.247,2.63,1.675,5.477-0.301,7.922c-0.92,1.138-0.311,1.499,0.162,2.379
	c2.074,3.864,2.205,8.239,2.769,12.45c0.146,1.085,1.466,4.467-2.681,3.137c-1.773-0.569-0.983,1.809-1.137,2.927
	c-0.391,2.848,1.265,6.508-3.103,7.765c1.762-8.821-3.707-17.057-1.74-25.929c-1.021,3.581-2.855,6.903-1.364,10.746
	c0.668,1.721,1.027,4.168-0.279,5.65c-1.734,1.969-2.145,1.893-1.053,3.693c1.395,2.3,2.97,4.489,4.467,6.726
	c-0.087,4.023,3.687,7.927,0.249,12.553c-2.492-4.229-2.103-9.387-5.903-13.196c-0.587,6.825-1.42,12.967,4.273,17.936
	c4.037,3.522,1.736,7.547,0.2,12.017c-2.828-3.351-2.732-7.217-5.042-10.9c-2.529,8.548,2.375,16.626-1.174,25.1
	c-2.407-3.035-0.898-6.062-1.569-8.609c-0.592-2.248,2.372-5.851-2.503-6.693c-0.956-0.165-0.002-1.676,0.296-2.572
	c0.823-2.477,1.666-4.935,2.346-7.476c1.741-6.516-2.901-11.977-2.139-19c-2.648,3.43-4.364,6.483-5.059,9.945
	c-0.72,3.59,1.925,7.068,0.505,11.143c-3.168-1.94-3.315-5.046-3.36-8.011c-0.043-2.825,0.254-5.671,0.606-8.481
	c0.128-1.019-0.184-1.704-0.883-2.062c-1.353-0.692-0.728,0.895-1.249,1.29c-1.395,1.061-2.14,0.638-2.363-0.891
	c-0.167-1.142,0.052-2.338-0.081-3.488c-0.511-4.433,2.766-9.307-1.869-13.404c-0.715-0.633-0.204-3.662,0.241-5.676
	c0.476-2.146,2.778-5.665-2.05-6.55c-0.344-0.063-0.619-1.445-0.624-2.217c-0.012-1.655-0.321-3.561,0.362-4.928
	c3.25-6.507,5.691-12.957,0.851-19.703c-1.043,0.521-1.097,2.176-1.818,3.805c-0.899-5.077-1.798-10.153-2.951-16.669
	c-4.803,10.665,2.428,20.213-1.098,30.24c-2.707-8.495-3.415-16.809-4.989-25.192c-1.35,2.91-4.75,4.601-2.623,9.354
	c1.737,3.881,1.575,8.676,1.881,13.091c0.086,1.229-0.687,3.374-2.547,3.074c-1.777-0.287-0.801-2.205-0.938-3.393
	c-0.274-2.36,0.702-4.846-0.825-7.692c-2.21,2.997-1.885,6.341-2.877,9.325c-2.68-5.406,0.068-11.61-3.082-17.242
	c-2.341,3.544-2.343,7.284-2.94,11.105c-3.268-5.849-6.277-11.655-5.536-18.828c-3.032,8.012,2.412,16.155-1.586,24.634
	c-1.744-3.656-1.914-6.88-2.199-10.21c-0.277-3.257-1.969-6.925-1.51-9.674c0.82-4.901-0.557-8.706-2.512-12.713
	c4.228-8.082,1.919-16.285,0.624-24.765c-2.066,1.877-2.604,3.813-2.451,6.322c0.375,6.149,2.106,12.227,1.09,18.454
	c-1.763,1.671-0.715,4.562-3.193,6.556c0-1.539-0.116-2.729,0.022-3.89c0.334-2.797-0.79-5.093-1.802-7.634
	c-1.908-4.788,1.816-10.019-0.851-15.243c-0.701-1.374,1.964-5,3.752-6.992c3.188-3.552-1.318-5.9-0.938-8.919
	c0.011-0.08-0.995-0.484-1.124-0.351c-0.416,0.433-0.854,1.026-0.908,1.595c-0.312,3.228-0.004,6.447,0.103,9.854
	c-2.302-6.68-4.617-13.235-7.393-20.958c-0.978,3.262-1.429,5.508,0.16,7.988c3.212,5.013,4.504,10.425,3.163,16.329
	c-0.778,3.429,1.162,7.218-1.439,10.834c-1.068-1.712-1.968-3.152-3.04-4.871c-1.868,4.896,1.156,8.078,2.775,11.631
	c2.315,5.081,1.574,6.897-3.068,7.666c0.01-0.347-0.187-0.534-0.583-0.564l0.022-0.466l-0.354-0.215
	c-0.888-2.734,0.078-6.075-2.968-8.978c-0.201,2.13,0.012,3.68-0.527,4.896c-1.84,4.153-0.996,7.418,2.887,9.922
	c2.438,3.693,3.16,7.837,3.162,12.16c0.001,4.253-2.161,8.229-0.701,13.007c-3.161-1.229-2.308-3.11-2.331-4.593
	c-0.069-4.48,0.004-8.963-0.054-13.444c-0.01-0.735,0.202-1.797-0.882-2.06c-0.974-0.236-1.492,0.52-1.899,1.248
	c-2.404,4.299-2.203,8.69-0.158,12.998c1.818,3.83,2.207,7.845,2.006,11.965c-0.052,1.054,0.101,2.555-1.644,2.533
	c-1.443-0.018-1.146-1.299-1.414-2.195c-0.786-2.629-1.643-5.237-2.981-7.819c-0.823,7.511,0.801,15.117-1.352,23.336
	c-2.647-4.516-2.287-9.201-2.219-13.011c0.073-4.105,0.154-8.667,1.658-12.806c1.442-3.968,0.022-7.542-1.418-11.321
	c-3.747,5.121-1.173,11.612-4.289,16.771c-2.879-3.412-3.053-8.061-0.314-13.142c1.898-3.523,4.699-6.345,3.213-11.222
	c-1.094-3.589,1.755-7.634,0.391-11.994c-2.165,4.424-2.366,9.055-3.553,13.411c-0.457,1.679,1.153,4.854-2.932,4.163
	c-1.13-0.191-0.537,0.806-0.301,1.327c2.554,5.643-2.036,10.156-2.112,15.443c-1.033-2.854-1.574-5.68-4.037-9.02
	c-0.455,8.84-3.897,16.051-3.356,24.052c-3.911-13.52,1.206-27.232-2.157-41.211c-6.448,7.745-2.813,17.344-5.447,25.601
	c-4.188-6.751-4.411-23.189,2.755-29.301c2.556-2.18,1.7-4.616,1.218-6.668c-0.47-1.996-0.691-4.036-0.973-6.457
	c-4.432,3.563-4.107,8.607-5.742,13.109c-2.559-6.764-4.204-13.658-5.184-21.291c-2.102,4.084,0.619,8.962-3.27,13.354
	c-1.268-6.923,0.678-13.945-6.092-18.588c-0.332,3.125,0.12,5.521,0.386,8.148c0.705,6.991,5.63,12.717,5.191,19.908
	c-0.132,2.164-0.391,3.943-2.62,5.084c-1.807-2.891-1.936-6.337-2.996-10.543c-3.58,7.989,1.874,15.778-2.085,23.105
	c-4.638-9.991-0.953-20.161-1.955-30.213c-1.943,3.146-5.264,5.104-5.871,9.173c-3.158-3.841-3.395-12.614-0.743-16.435
	c2.559-3.686,2.559-3.686-1.293-8.014c-0.759,4.833-1.47,9.352-2.377,15.13c-2.024-5.281-2.363-9.289-1.96-13.353
	c0.272-2.745-1.012-4.297-4.257-5.756c0,7.427,0,14.297,0,21.167c-3.94-6.931-2.177-14.374-3.042-21.4
	c-2.494-0.824-1.095,2.813-3.239,2.26c-1.501-1.151,0.339-3.508-1.88-5.134c-0.656,2.703-1.182,4.792,0.426,7.069
	c2.231,3.162,3.361,6.355,2.047,10.571c-0.799,2.565-0.793,5.866,0.677,8.739c1.904,3.722,0.862,7.821,1.138,11.752
	c0.056,0.799-0.008,1.771-1.007,2.037c-1.082,0.286-1.309-0.736-1.744-1.387c-1.23-1.844-1.051-4.393-3.233-6.447
	c0,7.435,0,14.336,0,21.237c-4.467-4.807-2.862-10.407-2.232-16.012c-2.513,0.067-1.438,3.499-4.284,3.322
	c-1.379-3.465,2.477-4.831,3.389-7.307c1.042-2.829,1.381-5.733,1.191-8.769c-0.187-2.992-2.455-5.858-0.428-9.022
	c-5.177,4.413-1.53,11.571-5.94,16.74c-4.128-10.394-2.916-21.261-4.616-31.358c-3.29,3.776-4.411,7.599-2.615,13.322
	c1.63,5.194,1.624,10.345,1.278,16.251c-2.422-2.291-2.777-4.881-2.623-7.273c0.187-2.893-1.263-5.446-1.128-8.271
	c0.025-0.526-0.638-1.585-0.813-1.55c-6.719,1.342-2.229-3.216-1.916-4.351c1.114-4.055,1.756-8.344,4.199-11.945
	c0.372-0.549,0.854-1.582,0.296-1.604c-2.135-0.085-3.019-2.894-5.418-2.238c-2.392,0.652-4.823,1.568-7.246,1.601
	c-4.117,0.054-5.076,1.331-2.871,4.893c0.949,1.534,1.535,3.294,2.487,4.826c2.142,3.445,1.284,5-2.775,4.758
	c-3.634-1.835-1.865-7.162-6.227-9.163c1.062,6.786,2.063,13.186,3.063,19.584c1.351-2.157,3.011-3.925,1.31-6.433
	c-0.916-1.348,0.343-2.788,1.853-3.515c2.867,4.599,6.003,9.137,3.646,15.14c-2.328-1.294-0.836-4.166-3.311-5.531
	c-1.111,4.664-2.366,9.113-1.408,13.893c0.192,0.958,0.025,1.99-0.001,2.987c-0.038,1.519-0.153,3.732-1.68,3.724
	c-2.292-0.012-0.854-2.199-1.063-3.467c-0.391-2.37,0.694-5.648-3.992-5.168c-1.814,0.186-1.112-3.616-3.781-4.442
	c-1.008,5.051-0.166,9.559,2.523,13.605c2.395,3.603,3.531,7.179,1.424,11.296c-2.161-0.604-2.037-2.889-2.881-4.737
	c-1.476,3.436-0.881,6.691-1.238,9.826c-0.364,3.198,0.128,6.358-0.138,9.57c-2.502-2.667-3.712-5.813-2.971-9.106
	c0.882-3.917,1.086-7.8,1.063-11.757c-0.005-0.882,1.9-1.957-0.29-2.548c-1.525-0.411-1.873,0.886-2.511,1.835
	c-1.795,2.674-0.896,6.238-3.14,9.082c-1.549-4.22-0.508-8.82-2.181-12.564c-3.311-7.413-0.214-14.747-0.51-22.088
	c-0.048-1.186,0.358-2.499-0.831-2.586c-1.206-0.088-2.071,1.002-2.098,2.638c-0.035,2.196-0.513,4.385-0.895,7.287
	c-4.998-6.497,0.282-12.589-1.003-18.826c-8.801,3.112-15.905,8.598-22.93,14.033c-14.254,11.029-29.533,20.567-44.291,30.854
	c-18.757,13.075-36.467,27.378-51.721,44.32c-14.572,16.186-26.046,34.711-33.327,55.32c-3.281,9.287-5.59,19.015-3.679,29.471
	c2.448,13.395,13.661,20.168,25.37,21.164c14.309,1.219,28.639,2.259,42.979,3.001c9.135,0.473,18.305,0.263,27.448,0.359
	c6.272,0.72,12.568,0.797,18.874,0.388c19.923,0.963,39.86,1.24,59.802,1.575c19.223,0.322,38.467,0.757,57.641,2.042
	c9.973,0.668,19.912,0.362,29.859,0.781c20.047,0.846,40.106,1.363,60.158,2.093c16.392,0.596,32.78,1.289,49.169,1.965
	c16.228,0.669,32.469,1.125,48.677,2.126c15.53,0.96,31.064,1.599,46.607,1.997c-5.066,1.201-10.211,0.522-15.316,0.68
	c-11.196,0.346-22.419-0.488-33.596,0.753c-21.739,0.066-43.479,0.106-65.218,0.21c-15.937,0.076-31.872,0.235-47.801,0.357
	c-7.933-0.423-15.872-0.367-23.809,0.122c-0.774-0.024-1.549-0.049-2.313-0.073c-2.806-0.09-5.621-0.261-8.436-0.252
	c-21.083,0.059-42.167,0.153-63.25,0.237c-0.769,0.008-1.537,0.017-2.296,0.025c-9.223-0.392-18.455-0.661-27.686,0.071
	c-28.342-0.157-56.683-0.346-85.024-0.464c-27.417-0.115-54.835-0.158-82.242-0.23c-13.548-0.857-27.116-0.522-40.683-0.354
	c-7.338,0.212-14.743,1.137-21.996,0.454c-8.971-0.846-17.901-0.642-26.85-0.728c-19.468-0.186-38.937-0.239-58.397-0.345
	c-3.855-1.182-8.009,0.078-11.836-1.409c15.901-0.914,31.222-4.102,45.716-11c12.524-5.961,21.785-15.165,27.713-27.546
	c8.805-18.391,18.59-36.185,30.835-52.521c13.716-18.298,29.178-35.01,46.34-50.145c6.897-6.083,13.72-12.246,21.446-17.294
	c0.276-0.181,0.697-0.401,0.732-0.648c0.957-6.741,4.11-13.1,3.954-19.96c-0.056-2.412,0.008-4.938-0.498-8.049
	c-3.688,4.206-6.068,8.08-4.184,13.614c0.94,2.762,0.144,5.533-1.809,7.901c-4.328-6.616-3.573-16.816,1.595-22.533
	c2.533-2.803,2.38-2.671,0.078-5.36c-1.917-2.239,1.468-4.649,0.205-7.051c-3.635,3.955-3.635,3.955-3.784,11.774
	c-2.852-2.815-3.453-5.586-1.531-9.095c0.919-1.68,1.91-2.09-0.571-3.913c-2.398-1.762-2.7-6.09-1.713-9.293
	c1.023-3.32,0.282-5.716-2.634-8.608c-1.072,8.292,0.724,16.396-2.143,24.937c-1.729-3.793-1.217-6.707-0.917-9.594
	c0.1-0.969,0.597-1.99,0.405-2.878c-0.501-2.319-0.607-5.829-4.352-1.995c-0.452-8.024,5.847-14.715,2.904-22.596
	c-3.496,1.297-3.496,1.297-2.813,8.976c-0.296-0.136-0.625-0.229-0.876-0.425c-1.109-0.86-1.129-3.467-2.879-2.851
	c-1.912,0.674,0.044,2.625-0.253,3.761c-0.851,3.253-0.369,6.56-0.765,10.061c-2.652-0.69-2.693-2.756-2.793-4.598
	c-0.098-1.805,0.13-3.582-0.559-5.374c-0.569-1.482,0.35-4.479-2.234-3.84c-2.97,0.733-0.684,3.046-0.348,4.769
	c1.256,6.445,4.019,12.421,5.708,18.716c0.998,3.717-1.032,5.787-4.571,5.239c-1.137-1.063-0.437-4.566-3.554-2.904
	c-1.167,0.622-0.492,10.717,0.567,12.066l-0.112-0.106c2.898,4.095,4.887,8.442,3.711,14.33c-1.664-2.358-3.059-4.336-4.887-6.928
	c-2.441,8.138,2.386,15.975-1.879,24.576c-1.745-10.398,0.554-20.12-3.924-29.314c-2.608,4.42,1.017,8.329-0.001,12.215
	c-0.426,1.624,1.04,4.595-1.023,4.688c-2.874,0.13-1.576-2.978-1.816-4.745c-0.154-1.139,0.037-2.325,0.082-3.49
	c0.057-1.482-0.573-3.055-1.887-3.144c-2.167-0.147-1.332,1.908-1.288,2.99c0.153,3.8-1.366,7.403-0.977,11.28
	c0.201,1.999,0.244,3.958,1.33,5.607c2.385,3.62,0.771,6.685-1.183,11.206c-1.311-4.196-2.24-7.172-3.577-11.453
	c-3.789,8.622,1.272,16.661-2.574,24.466c-1.787-5.432-0.355-10.598-1.124-15.568c-1.675-0.162-1.237,2.426-3.482,2.005
	c-0.917-3.958,2.439-6.546,3.643-9.792c1.313-3.539,1.603-7.314,0.326-10.67c-1.449-3.81,1.808-7.247,0.327-11.036
	c-2.343,0.924-1.984,4.151-4.53,4.428c-1.042-2.832,0.73-5.66,0.137-9.23c-3.49,3.394-3.819,6.781-3.043,10.655
	c0.699,3.494,1.109,7.059,1.415,10.612c0.092,1.066,0.9,3.006-1.269,3.1c-1.665,0.072-2.074-1.676-2.196-2.809
	c-0.351-3.258,0.199-6.576-0.748-9.834c-0.174-0.598,0.625-1.668-0.47-1.947c-1.34-0.343-1.687,0.859-1.791,1.814
	c-0.268,2.425-1.831,4.442-2.262,6.872c-0.354-9.985,3.358-19.219,5.228-28.773c4.515-4.004,5.896-9.105,3.477-14.488
	c-1.682,5.109-3.209,9.753-4.737,14.396c-3.138-4.988-1.793-10.29-0.606-16.803c-5.44,5.23-6.38,10.717-6.374,16.621
	c0.003,2.394,1.181,5.275-2.132,6.65c-0.101-0.194-0.256-0.33-0.465-0.405c-1.137-1.532,3.319-5.739-2.488-5.128
	c-0.832,0.088-0.26-0.926-0.129-1.494c1.36-5.912,0.4-12.66,6.179-16.992c0.247-0.185,0.057-0.951,0.07-1.447
	c1.52-0.807,3.966-0.795,4.059-3.013c0.211-5.032,3.829-7.367,7.234-9.945c0.919-0.696,1.993-1.259,1.621-2.553
	c-3.541-2.526-4.836,1.829-7.138,2.43c-2.431-3.524,2.745-5.965,0.892-9.528c-7.484,4.712-7.644,12.071-7.749,19.452
	c-2.318,1.619-3.793,1.883-3.828-1.803c-0.054-5.492,1.452-10.718,2.609-15.968c0.545-2.475,2.488-4.382,5.441-5.229
	c1.418-0.407,5.388-1.974,0.95-4.488c-0.449-0.254-0.86-1.553-0.798-1.592c4.274-2.704-1.546-6.227,0.829-9.216
	c2.561-3.224,1.434-7.533,3.379-11.728c-5.671,1.697-7.154,5.95-8.464,9.98c-0.741,2.278-1.149,4.69-2.046,6.968
	c-0.47,1.191,0.772,3.57-2.394,1.518c-2.175-1.41-1.454,2.681-3.235,3.356c-0.587-1.576-0.819-3.739,0.307-4.461
	c3.893-2.493,2.882-6.463,3.421-9.87c0.81-5.114,4.246-10.105,9.266-10.771c4.184-0.555,5.363-2.434,4.928-6.192
	c5.144,2.211,5.144,2.211,8.747-11.341c-5.79,5.746-13.148,7.446-16.896,14.368c-1.271-4.5,0.863-8.343,5.865-11.159
	c3.926-2.21,7.919-4.301,12.114-6.57c-2.563-1.641-4.51-0.007-7.691,0.187c4.936-6.616,13.48-2.916,17.787-8.553
	c-0.113-0.696-1.062-0.246-1.681-0.325c-0.901-0.116-1.579-0.44-2.02-1.508c0.897-0.439,1.901-1.391,2.739-1.263
	c3.63,0.555,4.977-1.576,5.958-4.439c0.936-2.729,2.942-4.019,5.714-4.856c1.539-0.466,3.789-0.208,4.693-2.506
	c-1.438-0.212-2.834-0.419-5.131-0.759c4.851-2.595,8.976-3.401,13.48-1.78c3.369,1.213,9.71-2.102,9.354-5.486
	c-0.307-2.911,1.512-3.521,2.775-4.601c2.935-2.511,6.365-4.038,4.242-9.381c-1.011-2.542,2.76-4.907,4.906-6.939
	c0.694-0.657,1.969-0.617,2.18-2.077c-0.896-0.168-1.918-0.358-3.037-0.568c3.543-6.687,11.509-5.028,17.366-9.028
	c-3.013-1.017-5.215-1.76-7.418-2.503c7.007-3.366,16.971,0.831,21.108-9.232c-2.556,0-5.293,0-8.916,0
	c4.401-6.496,11.873-2.126,16.578-6.627c3.944-3.774,9.813-5.537,16.022-8.821c-5.806-1.354-9.454,2.77-14.555,0.88
	c6.151-2.26,10.977-6.233,17.406-5.443c1.599,0.196,2.99-0.115,4.188-0.987c4.299-3.132,9.018-4.579,14.336-3.955
	c1.191,0.14,2.584,0.098,3.045-1.11c0.688-1.805-2.847-0.431-1.82-2.84c6.339-1.786,12.843-2.659,18.137,3.398
	c1.611,1.844,4.111,1.804,3.856-0.232c-0.324-2.58,8.932-2.153,1.692-6.064c-0.72-0.39,0.559-2.006,1.486-1.906
	c1.956,0.209,3.322-1.4,5.159-1.317c3.196,4.055,6.705,2.729,10.41-3.93c-3.917-1.212-6.175,2.558-9.488,3.156
	c-0.926-0.488-2.546,0.148-2.694-1.59c-0.115-1.355,0.622-1.934,1.889-2.465c4.992-2.091,10.005-3.079,15.331-1.373
	c1.041,0.333,2.422,0.876,3.259-0.18c0.975-1.229-0.938-1.89-1.11-3.295c5.864-0.847,11.258,0.199,15.286,4.37
	c2.792,2.89,4.444,2.285,6.51-0.288c-0.584-0.839-1.444-0.379-2.192-0.476c-1.362-0.176-2.299-1.096-1.877-2.325
	c0.357-1.042,1.747-0.773,2.646-0.438c2.261,0.844,4.404,1.896,6.794,2.512c2.248,0.579,3.452-0.017,4.486-1.778
	c1.853-0.497,4.245-0.416,3.706-3.469c2.64-0.284,5.279-0.568,9.101-0.979c-3.236-2.249-6.178-1.051-8.399-2.91
	c0.646-0.428,1.396-1.331,1.936-1.22c5.924,1.225,10.714-1.43,15.522-4.224c3.081-1.789,5.982-0.956,8.707,0.971
	c-1.055,2.321-3.817,2.092-5.409,3.611c5.228,2.918,5.16,2.82,10.143-0.601c1.969-1.353,5.432-2.435,6.164,0.149
	c1.204,4.248,4.015,2.41,6.258,2.831c0.727,0.137,1.75,0.197,1.937-0.943c0.163-0.996-0.648-1.611-1.32-1.893
	c-5.315-2.222-9.946-7.124-16.571-4.373c0.021-0.873-1.575-1.747-0.262-2.553c4.316-2.646,13.247-1.451,17.04,2.184
	c1.437,1.377,2.955,2.697,4.208,4.229c1.535,1.875,2.985,1.987,5.063,0.797c7.424-4.254,11.576-3.737,17.602,1.826
	c0.617,0.57,0.897,1.636,2.289,1.311c7.003-1.634,9.942-0.426,13.434,5.44c0.693,1.167,1.152,2.284,2.847,2.217
	c0.727-0.028,1.752,0.347,2.173,0.896c3.363,4.395,5.979,4.363,10.657,7.28c4.801,2.993,7.634,0.198,11.297-0.659
	c2.877-0.673,6.044-2.476,4.626,3.377c-0.63,2.603,1.848,1.33,3.06,0.841c5.244-2.118,10.686-2.905,16.325-3.078
	c3.363-0.104,5.894,1.132,9.026,3.412c-4.432,1.409-8.482-0.39-12.434,1.112c0.915,2.493,2.978,2.724,5.072,2.57
	c2.762-0.202,5.116,0.655,7.525,1.924c3.281,1.728,6.348,3.166,10.683,2.323c4.252-0.827,8.056,2.645,11.504,5.348
	c0.22,0.172,0.396,0.654,0.319,0.909c-1.164,3.833,1.421,5.213,4.218,6.285c3.208,1.229,5.222,4.381,8.646,5.204
	c2.596,5.967,7.578,1.669,11.658,3.388c-2.482-5.789-4.751-4.508-11.666-4.358c2.326-3.538,7.521-4.757,12.366-2.802
	c2.916,1.177,4.949,2.905,3.073,6.421c6.16,0.866,12.708,0.054,17.324,5.534c3.049,3.619,2.836,4.724-2.236,6.497
	c13.523,4.022,20.291,14.055,26.277,24.829c-0.39,0.393-0.778,0.785-1.168,1.178c-2.22-1.985-4.44-3.972-6.537-5.847
	c-2.508,1.684,1.263,5.692-3.046,6.041c-0.254-3.977-1.224-7.753-3.285-11.188c-0.356-0.594-0.561-1.711-1.676-1.258
	c-0.392,0.159-0.796,0.669-0.902,1.093c-0.803,3.191,2.815,10.653,5.832,12.143c0.991,0.642,1.857,1.356,1.984,2.664
	c0.155,1.6,0.053,4.154,2.318,3.375c1.823-0.628,5.924,1.111,5.044-4.234c2.464,4.119,5.556,5.24,9.486,4.536
	c0.911-0.163,1.988,0.073,2.881,0.411c3.987,1.508,4.157,2.994,0.403,6.135c4.292,0.776,7.759,2.985,11.923,3.741
	c4.283,0.778,7.542,3.692,8.528,8.559c-3.714,0.324-6.241-3.683-10.276-2.839c1.01,1.762,1.9,3.4,2.871,4.989
	c1.101,1.799,1.207,4.161,4.969,2.433c2.275-1.045,6.224,0.689,8.129,4.046c1.114,1.961,0.892,2.776-1.036,3.827
	c-1.919,1.047-3.017,0.932-3.753-1.212c-0.315-0.919-0.676-1.91-1.304-2.611c-0.703-0.786-1.675-2.009-2.866-0.991
	c-0.843,0.72-0.357,1.801,0.304,2.663c0.588,0.767,1.013,1.663,1.624,2.407c0.955,1.161-0.023,5.075,4.073,2.106
	c1.141-0.826,7.946,0.885,9.473,5.265c1.902,5.46,6.854,9.94,4.592,16.952c-0.597,1.85,2.95,5.131,4.773,7.624
	c0.872,1.193,2.282,2.02,1.799,4.007c-1.535,0.307-3.251-1.591-5.172,0.417c6.681,2.729,11.438,6.802,9.901,15.41
	c-2.656-2.136-2.38-5.69-4.965-7.318c-1.021-0.644-1.93-1.553-3.084-1.003c-1.104,0.526-1.552,1.758-1.384,2.992
	c0.239,1.761,0.02,4.38,1.059,5.101c4.804,3.331,3.03,9.019,5.238,13.248c1.215,2.327,1.523,4.856,0.193,8.186
	c-1.012,2.532-2.201,7.079,0.933,11.053c5.064,6.421,10.893,12.847,10.585,22.221c-3.038-0.52-3.019-4.322-6.267-5.902
	c0.61,6.204-0.822,12.232,3.002,17.424c2.575,3.496,3.719,7.139,2.826,11.601c-2.859-0.641-3.462-2.703-3.918-5.067
	c-0.194-1.009-0.846-2.332-2.36-1.658c-0.308,0.136-0.219,1.163-0.313,1.779c-0.093,0.137-0.165,0.298-0.285,0.404
	c-0.101,0.089-0.341,0.194-0.378,0.156c-2.537-2.64-1.988-5.59-0.731-8.527c1.768-4.131,0.435-7.797-1.319-11.446
	c-1.176,6.957-4.053,13.821-0.498,20.864c0.518,1.025,0.516,2.253,1.911,2.461C809.842,531.737,810.838,531.405,810.652,529.74z
	 M384.866,481.64c1.579-4.021,0.974-7.868-0.925-11.897c-2.562,3.391-2.676,7.049-2.365,10.804c-2.453-0.454-3.16,0.58-3.029,2.997
	c0.205,3.789,0.054,7.597,0.054,11.396c-0.485,0.103-0.972,0.206-1.457,0.309c-0.366-5.785-1.362-11.232-6.733-14.385
	c-0.24-0.141-0.346-0.561-0.454-0.872c-0.603-1.726-0.448-4.698-3.069-4.027c-2.388,0.61-1.021,3.464-1.313,5.323
	c-0.202,1.285,0.79,1.899,1.428,2.832c2.014,2.947,5.578,6.925,4.01,9.563c-3.359,5.654-1.244,10.566-0.372,15.835
	c0.092,0.554-0.094,1.153-0.189,2.132c-2.648-1.862-1.684-5.223-4.344-7.463c-1.081,5.174-0.92,9.579,1.147,13.84
	c3.502-2.19,6.877-4.427,10.373-6.457c4.594-2.668,9.363-5.048,7.135-11.884c-0.354-1.089,0.679-2.558,0.631-3.834
	c-0.104-2.752,2.447-5.104,1.111-7.99C386.789,485.569,386.485,483.432,384.866,481.64z M434.877,443.421
	c-1.223-2.383-1.414-4.12-3.016-5.044c-1.893,6.972,5.542,10.863,6.119,18.011c-2.661-2.19-3.962-4.65-7.137-6.044
	c0.736,9.146,6.18,16.307,7.193,24.602c12.95-7.04,12.95-7.04,11.332-18.481c-1.359,0.022-1.454,2.654-3.1,1.7
	c-1.143-0.662-0.582-2.146-0.487-3.202c0.187-2.094-0.227-3.215-2.609-3.72c-1.549-0.328-1.872-7.1-0.425-7.414
	c6.062-1.32,1.35-5.183,2.514-7.6c-2.184,0.819-1.178,3.539-3.392,4.202c-3.205-3.4,0.914-7.185-0.29-11.446
	C438.161,433.449,436.896,438.131,434.877,443.421z M394.563,464.017c0.13,8.611,0.137,16.013,1.444,23.303
	c0.263,1.466,0.935,3.069,0.317,4.261c-0.813,1.564-0.045,4.454-2.151,4.605c-2.063,0.147-1.764-2.602-2.437-4.105
	c-0.271-0.608-0.357-1.271-1.917-1.161c0.44,4.361-1.9,8.71,0.008,13.352c3.146-1.88,5.988-3.705,8.95-5.312
	c3.043-1.649,7.074-2.454,4.862-7.531c-0.56-1.282,0.931-1.939,1.529-2.877c2.892-4.526,3.459-9.792,5.397-14.852
	c-2.362-0.122-2.734,2.377-4.56,1.69c-0.32-0.626-0.412-1.152,0.041-1.828c1.002-1.495,1.16-3.155-0.014-4.597
	c-0.551-0.677-1.561-0.457-2.298,0.001c-1.813,1.125-1.312,3.033-1.101,4.537c0.338,2.407,1.362,4.714,1.771,7.117
	c0.269,1.575,0.604,3.726-1.182,4.475c-1.079,0.453-2.963-0.021-4.02-0.752c-1.327-0.918-2.064-2.603-1.441-4.383
	C399.676,474.499,397.771,469.788,394.563,464.017z M468.888,440.188c2.034-5.762,4.406-11.239,6.486-16.82
	c-1.795,1.503-2.797,3.698-5.521,4.283c0.033-0.751-0.047-1.234,0.09-1.646c1.865-5.627,6.929-10.011,6.341-16.655
	c-0.077-0.875,0.5-1.911-0.398-2.542c-0.372-0.261-1.181,0.102-1.791,0.181c0.59,3.234-3.427,4.253-3.438,7.322
	c-0.012,3.08-1.036,5.081-4.766,1.744c0.876,3.526,0.733,6.245-1.515,8.807c-1.175-1.311-0.537-3.431-2.394-3.708
	c-0.294-0.044-0.839,0.56-1.021,0.973c-0.904,2.041,0.685,3.318,1.917,4.106c2.508,1.604,3.373,4.078,3.737,6.578
	C466.988,435.375,467.564,437.778,468.888,440.188z M452.858,463.665c1.99-1.887,3.642-3.391,5.218-4.969
	c1.295-1.296,2.206-2.557-0.336-3.658c-1.257-0.545-0.714-2.036-1.043-3.078c-1.125-3.565-1.257-7.135,0.546-11.713
	c-2.614,2.014-2.364,4.421-4.305,5.021c-2.426-0.648-0.177-3.594-2.649-4.587c-1.398,3.995-2.037,9.512-0.341,11.691
	C452.727,455.943,452.426,459.349,452.858,463.665z M715.276,516.54c-1.969,1.376-3.045,3.112-3.501,4.974
	c-0.406,1.653-1.153,2.633-2.594,1.953c-1.163-0.548-0.588-1.925-0.174-3.084c1.404-3.935,3.658-7.741,2.289-12.291
	c-3.313,2.738-3.906,6.098-3.613,10.224c0.373,5.269-0.918,10.664,1.213,16.132C716.871,521.331,716.871,521.331,715.276,516.54z
	 M487.843,490.625c-7.35,9.606-4.283,19.518-4.456,28.961c2.219,0.264,1.752-2.342,3.372-3.076
	c2.536-1.149,3.075-10.62,0.612-11.682c-2.545-1.098-1.743-2.64-1.223-3.916C487.336,498.002,487.699,495.015,487.843,490.625z
	 M572.092,466.735c1.572-3.981,2.498-7.248,0.584-10.823c-0.619-1.157-0.201-2.898,1.003-4.129c0.548-0.56,1.991-0.928,1.104-2.181
	c-0.71-1.005-1.617-0.707-2.626-0.244c-1.187,0.543-2.77,1.463-3.706,1.074c-2.667-1.107-2.495-0.064-3.012,2.15
	c-0.686,2.935,0.593,4.759,2.228,6.379C569.739,461.017,571.064,463.371,572.092,466.735z M414.493,488.821
	c1.994-3.789,4.945-8.062,3.687-11.801c-1.406-4.178,2.923-8.498-1.378-12.241C409.451,472.11,417.034,480.993,414.493,488.821z
	 M512.123,435.884c-0.958,1.633-4.145,1.998-3.177,4.351c1.209,2.938-0.592,4.756-1.701,6.782c-0.784,1.434-2.29,2.537-1.345,4.377
	c0.612,1.194,1.937,1.454,3.028,1.071c1.835-0.643,3.04-1.689,3.91-3.865C514.6,444.202,512.499,440.232,512.123,435.884z
	 M680.829,572.442c0.172-5.778,4.234-12.085-2.205-17.214c0.617,7.909-1.387,15.751,2.289,23.276
	c2.14-3.098,4.655-5.812,5.624-9.786C684.208,569.629,683.76,572.469,680.829,572.442z M651.435,496.571
	c-1.304,8.421,0.239,12.98,4.865,16.516c1.185-2.143,2.223-4.407,3.622-6.422c0.942-1.358,0.186-2.354-0.385-3.145
	c-1.093-1.518-1.349,0.441-1.977,0.77c-1.814,0.943-2.512-0.533-3.137-1.53C653.421,501.163,652.75,499.357,651.435,496.571z
	 M459.93,455.142c3.857-3.648,5.722-7.154,6.528-11.232c0.188-0.951-0.237-2.709-0.903-1.978c-2.559,2.813-2.991-0.174-3.909-1.219
	c-0.616-0.701-0.792-1.954-2.029-1.517c-1.128,0.399-1.256,1.665-0.938,2.548C460.136,445.803,459.578,450.095,459.93,455.142z
	 M375.621,462.954c-0.81,0.076-1.312,1.843-2.871,1.651c-1.891-0.231-2.154,0.737-1.788,2.413c1.077,4.933,2.019,9.896,3.014,14.846
	C373.919,475.489,381.032,470.063,375.621,462.954z M467.172,292.345c3.699-0.704,7.178-1.953,11.092-1.829
	c3.545,0.113,7.479,1.087,11.217-0.978C480.937,284.902,473.593,285.61,467.172,292.345z M547.167,475.22
	c0.806-5.485,4.397-9.686,3.254-15.195c-2.465,2.815-0.811,7.276-4.353,9.587c-1.262-4.449,1.397-8.642-0.146-12.857
	C541.953,459.291,542.42,470,547.167,475.22z M559.453,280.609c6.888,0.611,12.874,0.187,18.329-2.464
	C571.73,275.048,565.645,274.385,559.453,280.609z M753.972,597.041c3.536-6.327,7.057-12.673,5.128-20.62
	c-0.764,0.46-1.113,0.559-1.283,0.79C753.437,583.188,757.325,590.819,753.972,597.041z M784.957,409.668
	c0.179,1.908-1.828,4.107,1.604,5.063c0.957,0.267,1.059,1.072,1.014,1.974c-0.31,6.188,0.031,6.476,6.241,5.009
	C789.949,418.33,791.679,411.366,784.957,409.668z M796.977,449.933c-1.348-7.392-2.598-13.709-7.391-20.041
	C789.3,438.026,791.504,444.005,796.977,449.933z M356.471,349.404c-6.919,1.756-3.371,10.163-8.891,12.507
	c3.468,0.983,7.924,1.443,7.607-2.635C354.92,355.828,356.436,353.169,356.471,349.404z M497.001,505.628
	c0.683-0.102,1.366-0.203,2.049-0.305c-1.462-5.933-2.778-11.908-4.505-17.763c-0.359-1.218-0.761-4.057-2.674-3.346
	c-2.234,0.831-1.028,3.438-0.827,5.284c0.077,0.704,0.675,1.671,1.289,1.94c3.048,1.341,2.668,4.273,3.263,6.706
	C496.196,500.607,496.543,503.131,497.001,505.628z M431.894,300.414c-0.319-0.048-1.822,0.354-2.241,2.024
	c-0.576,2.298,1.364,1.995,2.752,2.308c2.347,0.53,4.646,1.264,6.987,1.82c1.211,0.288,2.394-0.054,2.933-1.231
	c0.806-1.76-1.025-1.676-1.824-2.193C438.288,301.708,435.837,300.859,431.894,300.414z M530.004,474.904
	c-3.57,5.023-3.783,10.395-2.031,16.039C534.063,486.112,529.633,480.26,530.004,474.904z M358.659,513.409
	c3.499-0.235,4.536-1.706,4.097-4.051c-0.722-3.855,0.881-7.438,1.244-11.162c0.119-1.222,1.33-2.961-0.065-3.383
	c-2.012-0.608-1.683,1.778-2.267,2.955c-2.112,4.258,0.586,9.567-2.98,13.571C358.301,511.774,358.243,513.339,358.659,513.409z
	 M293.923,414.198c6.282-2.359,7.156-8.296,9.166-13.512C298.018,403.793,295.987,408.969,293.923,414.198z M641.814,495.333
	c-4.205,4.261-2.67,9.054-3.184,14.076C643.589,505.251,643.99,503.317,641.814,495.333z M582.524,482.1
	c-4.609,5.803-4.265,10.777-2.174,16.328C584.008,493.59,582.121,488.379,582.524,482.1z M288.606,495.068
	c-4.154,4.245-3.181,8.738-2.633,13.444C292.728,505.115,288.941,500.118,288.606,495.068z M750.529,584.206
	c-3.014,4.396-1.298,8.627-1.674,13.504C752.402,593.176,754.311,589.282,750.529,584.206z M485.433,481.313
	c-0.274-0.121-0.549-0.242-0.824-0.363c-1.202,2.227-2.533,4.396-3.565,6.698c-0.808,1.801,0.159,4.149,1.362,4.6
	c1.963,0.735,2.644-1.93,2.881-3.152C485.774,486.587,485.433,483.917,485.433,481.313z M565.873,465.175
	c-1.146,5.598-1.097,10.166,3.569,14.805C569.629,474.035,568.543,469.746,565.873,465.175z M555.9,500.301
	c0.704-1.094,1.273-2.465,2.589-2.729c6.083-1.224,1.304-4.72,1.308-7.033c0.002-1.112-1.677-1.417-2.14,0.46
	C556.922,493.985,555.178,496.742,555.9,500.301z M322.757,464.122c-1.699-3.03-1.116-5.014,0.731-6.36
	c2.948-2.147-0.629-2.581-1.06-3.561c-0.62-1.411-1.884-0.271-2.625,0.69C317.441,457.956,318.266,461.767,322.757,464.122z
	 M695.985,534.244c-1.225,3.262-2.009,6.469-0.709,9.621c0.492,1.192,0.958,2.815,2.574,2.418c1.464-0.361,0.917-2.107,0.724-2.989
	C697.904,540.235,696.877,537.254,695.985,534.244z M576.501,472.647c0.647,2.192,1.169,3.96,1.853,6.272
	c3.456-4.145,6.247-7.739,3.896-12.903C580.025,468.064,582.428,473.664,576.501,472.647z M571.472,416.022
	c0.12-0.007,0.24-0.014,0.361-0.021c-0.082-1.474-0.004-2.979-0.291-4.412c-0.279-1.387-1.22-2.523-2.823-2.058
	c-1.987,0.577-0.482,1.66-0.265,2.645c0.528,2.377,0.828,4.804,1.282,7.199c0.233,1.231,0.535,3.215,1.767,3.005
	c2.456-0.417,0.23-1.892,0.181-2.914C571.628,418.317,571.543,417.171,571.472,416.022z M571.496,440.774
	c1.463-1.239,4.907,1.639,5.002-1.831c0.065-2.392-4.702,0.031-5.094-3.272c-1.283,1.069-3.694,1.024-3.688,3.352
	C567.725,442.007,570.022,440.375,571.496,440.774z M753.298,577.03c0.364-4.908-3.059-8.011-2.979-12.37
	C747.609,568.876,748.386,572.297,753.298,577.03z M311.903,388.71c2.625,0.113,5.559,2.293,7.772-0.536
	c0.792-1.014,1.866-2.246,1.076-3.326c-0.617-0.846-2.124-0.505-3.184,0.194C315.69,386.28,313.793,387.489,311.903,388.71z
	 M798.441,562.33c-1.697,4.726-0.131,7.875,2.965,11.231C802.109,569.109,801.085,565.803,798.441,562.33z M656.27,487.629
	c1.157,3.968-0.105,7.935,0.204,11.876C658.712,495.551,660.307,491.601,656.27,487.629z M522.359,435.27
	c-1.99,3.928-1.617,7.937-1.484,11.944c0.495,0.007,0.99,0.013,1.484,0.02C522.359,443.245,522.359,439.258,522.359,435.27z
	 M586.996,285.054c1.927,0.138,3.081,1.228,3.474-0.271c0.376-1.433-1.083-1.876-2.192-2.056c-1.129-0.183-2.308-0.072-3.465-0.061
	c-1.184,0.011-2.44,0.099-2.958,1.336c-0.186,0.443,0.188,1.257,0.523,1.755c1.001,1.49,1.88,0.385,2.878-0.149
	C586.093,285.159,587.098,285.023,586.996,285.054z M327.144,446.456c-0.277,1.705-0.652,2.49,0,3.142
	C327.144,448.891,327.144,448.144,327.144,446.456z M288.175,429.046c-0.371,0.252-0.677,0.389-0.885,0.615
	c-0.517,0.564,0.05,0.932,0.365,1.21c0.564,0.498,0.806,0.053,0.798-0.465C288.447,429.973,288.283,429.541,288.175,429.046z"/>
<path fill-rule="evenodd" clip-rule="evenodd" fill="#EAC766" d="M639.04,648.978c-0.042,14.82-11.396,25.702-26.684,25.582
	c-13.333-0.104-24.12-11.201-24.331-25.03c-0.221-14.616,9.295-24.169,24.248-24.349C627.27,625.002,639.078,635.502,639.04,648.978
	z"/>
</svg>
