<svg version="1.1" id="Layer_1" xmlns="http://www.w3.org/2000/svg" xmlns:xlink="http://www.w3.org/1999/xlink" x="0px" y="0px"
	 width="1024.191px" height="1024.191px" viewBox="0 0 1024.191 1024.191" enable-background="new 0 0 1024.191 1024.191"
	 xml:space="preserve">
<path fill="currentColor" d="M159.97,124.264c45.153,0.074,90.306,0.2,135.459,0.211c97.287,0.024,194.574-0.008,291.861-0.022
	c34.313-0.005,68.625-0.063,102.938-0.03c44.277,0.04,88.556,0.185,132.834,0.209c22.981,0.014,45.966-0.155,68.947-0.176
	c2.285-0.003,4.673-0.548,6.854,0.658c-0.056,9.604-0.467,19.225,0.437,28.823c-0.843,2.428-0.86,4.856-0.006,7.277
	c-0.157,1.788-0.451,3.585-0.455,5.383c-0.033,17.495-0.067,34.991,0.021,52.485c0.021,4.294-0.501,8.623,0.438,12.891
	c-0.925,2.744-0.938,5.49-0.006,8.228c-0.753,8.249-0.706,16.508,0.006,24.767c-0.229,2.43-0.657,4.86-0.655,7.29
	c0.013,19.929-0.319,39.862,0.698,59.779c0.19,3.719-1.573,7.434-0.034,11.15c-0.841,10.597-0.646,21.201,0,31.807
	c-0.736,5.99-0.993,11.951-0.052,17.979c0.431,2.747-0.019,5.632-0.067,8.442c-0.588,6.803-0.552,13.618-0.031,20.435
	c-1.211,2.158-0.137,4.262,0.154,6.373c-0.696,6.919-0.729,13.849-0.031,20.777c-0.933,4.068-0.959,8.134,0.034,12.188
	c-0.917,9.482-0.472,18.982-0.172,28.481c-0.479,9.583-0.568,19.167,0.02,28.75c-0.755,11.934-0.347,23.88-0.298,35.819
	c0.043,10.586-0.389,21.181,0.444,31.756c-1.084,7.415-1.112,14.83-0.003,22.235c-0.99,5.26-0.375,10.581-0.375,15.866
	c-0.001,14.943-0.483,29.895,0.354,44.831c-0.04,4.192-0.08,8.386-0.12,12.565c-0.519,7.103-0.587,14.219,0.023,21.334
	c-0.979,4.487-0.92,8.979-0.026,13.461c-0.524,13.192-0.526,26.398-0.007,39.604c-1.041,8.909-0.742,17.841-0.133,26.745
	c0.146,2.128,0.369,4.271,0.343,6.399c-0.214,16.642-0.525,33.28-0.717,49.923c-0.027,2.421,0.425,4.847,0.656,7.262
	c-0.903,7.137-0.399,14.295-0.167,21.45c-0.497,7.362-0.558,14.723,0.047,22.083c-0.191,2.761-0.497,5.521-0.537,8.285
	c-0.032,2.195-1.575,1.498-2.736,1.782c-8.631,2.112-17.27-0.538-25.889,0.093c-6.614-0.436-13.237-0.408-19.86-0.001
	c-3.711-0.001-7.423-0.002-11.126-0.003c-7.604-0.503-15.214-0.26-22.824,0.031c-3.094-0.002-6.187-0.003-9.271-0.005
	c-0.979-0.08-1.967-0.229-2.955-0.229c-120.118,0.029-240.236,0.063-360.354,0.112c-25.812,0.011-51.623,0.076-77.435,0.117
	c-1.397-0.008-2.794-0.015-4.183-0.021c-19.269,0.009-38.545,0.017-57.82,0.024c-5.405-0.003-10.81-0.007-16.205-0.01
	c-27.255-0.011-54.518-0.021-81.781-0.031c-2.071,0.004-4.142,0.006-6.204,0.009c-8.59,0.011-17.188,0.021-25.787,0.032
	c-8.416-0.004-16.832-0.009-25.237-0.013c-6.243-0.432-12.495-0.365-18.747,0.006c-3.257,0.259-4.503-0.875-4.5-4.491
	c0.081-102.299,0.016-204.598,0.01-306.896c-0.006-107.463,0.016-214.926,0.048-322.388c0.004-14.481,0.14-28.962,0.216-43.431
	c0.603-6.08,0.573-12.172,0.003-18.265c-0.093-25.826-0.181-51.653-0.293-77.479c-0.007-1.728-0.254-3.492,2.391-3.073
	C138.711,125.143,149.344,124.422,159.97,124.264z M338.57,892.982c1.481,0.111,2.966,0.321,4.448,0.322
	c72.203,0.057,144.406,0.104,216.609,0.111c5.137,0,10.297,0.393,15.411-0.475c5.352,1.022,10.704,0.98,16.058,0.018
	c1.479,0.109,2.96,0.312,4.439,0.313c30.229,0.054,60.461,0.203,90.689,0.068c14.928-0.065,29.865,0.657,44.783-0.404
	c1.043,0.733,2.093,0.742,3.15,0.031c6.938,0.652,13.876,0.673,20.811-0.064c2.398,0.007,4.797,0.015,7.196,0.021
	c8.283,0.623,16.566,0.79,24.849-0.026c1.135,0.106,2.268,0.214,3.4,0.321c10.593,1.016,21.162-0.424,31.746-0.296
	c7.604,0.553,15.209,0.705,22.812-0.023c4.396-0.029,8.79,0.004,13.183-0.103c11.302-0.272,22.657,2.314,34.125-0.969
	c0-13.062,0-26.457,0-39.854c0.445-7.593,0.367-15.187,0.001-22.779c0.286-5.066-1.674-10.132-0.002-15.198
	c0.081-1.321,0.233-2.645,0.234-3.965c0.018-65.631,0.041-131.262,0.013-196.893c-0.01-20.31-0.169-40.619-0.261-60.93
	c0.003-2.083,0.008-4.167,0.012-6.25c0.068-7.642,0.208-15.283,0.196-22.924c-0.031-22.948-0.122-45.896-0.188-68.845
	c-0.001-1.065-0.002-2.132-0.002-3.195c0.071-24.958,0.193-49.916,0.198-74.874c0.003-21.294-0.134-42.589-0.207-63.883
	c0-1.426-0.001-2.853-0.001-4.279c-0.009-16.584-0.018-33.168-0.024-49.752c0.018-2.729,0.034-5.459,0.051-8.188
	c0.072-16.812,0.213-33.623,0.201-50.435c-0.015-22.142-0.148-44.284-0.232-66.427c0.133-0.989-0.277-1.655-1.199-2.019
	c-1.646-0.104-3.29-0.296-4.936-0.298c-68.957-0.045-137.914-0.102-206.871-0.098c-147.074,0.009-294.149,0.048-441.225,0.099
	c-1.961,0.001-3.986-0.438-5.887,0.47c-3.047,0.481-6.093,0.468-9.14-0.004c-2.24-0.926-4.596-0.493-6.892-0.501
	c-19.329-0.068-38.659-0.125-57.988-0.061c-8.297,0.027-16.61-0.479-24.892,0.479c-1.458,1.936-0.77,4.18-0.771,6.266
	c-0.063,125.124-0.092,250.248-0.1,375.371c-0.006,98.134,0.017,196.267,0.033,294.398c0.004,26.991,0.052,53.982,0.019,80.974
	c-0.003,2.636-0.067,5.327,3.406,5.261c7.785-0.147,15.604,0.87,23.356-0.562c1.312,0.131,2.624,0.371,3.935,0.372
	c26.483,0.033,52.967,0.166,79.449,0.002c15.799-0.099,31.609,0.729,47.4-0.384c4.406,1.074,8.812,1.077,13.199,0.018
	C314.968,893.588,326.769,893.681,338.57,892.982z"/>
<path fill="currentColor" d="M810.652,529.74c2.637,5.937,6.47,11.596,4.408,19.353c-2.455-2.94-1.839-6.813-5.055-9.342
	c-0.396,4.558-1.009,8.189,2.624,11.815c3.256,3.249,6.394,7.478,2.602,12.612c-0.176-0.263-0.415-0.436-0.717-0.522
	c-0.074-0.488-0.149-0.978-0.226-1.465c-0.147,0.208-0.296,0.415-0.444,0.622c-4.536-0.513-2.091-5.15-4.497-7.971
	c-1.047,4.957-2.093,9.133-3.626,13.174c-0.541,1.427-0.624,3.85,0.226,4.836c3.6,4.189-0.02,9.688,3.2,14.271
	c1.484,2.115,0.679,8.701-1.07,9.665c-4.425,2.438-0.4,7.932-4.822,9.839c-1.223,0.528-0.876,2.776,0.311,4.413
	c4.193,5.792,4.4,11.869,0.366,18.507c-1.311-5.166-2.523-9.949-3.939-15.525c-3.153,5.025-2.051,10.006-2.684,14.649
	c-0.234-0.043-0.473-0.069-0.713-0.076c-3.307-1.797-3.467-4.428-2.133-7.577c1.063-2.51,1.743-5.113,0.985-8.068
	c-2.652,2.001-1.07,5.605-3.22,7.25c-3.013-0.102-0.264-3.955-3.102-4.288c-0.765,2.028-0.857,3.828,0.68,5.574
	c1.098,1.245,2.443,3.078,1.702,4.454c-1.877,3.48,0.317,5.838,1.515,8.587c0.845,1.939,1.905,3.865,1.737,6.113
	c-1.758-0.217-1.099-2.788-2.893-2.965c-0.163-0.017-0.331,0.02-1.149,0.072c4.709,8.187,7.088,16.521,2.516,25.356
	c-1.794-3.582-3.072-7.231-5.94-11.201c0.23,8.653,0.995,16.505-0.61,24.304c-2.52-9.078-2.84-18.321-1.903-27.846
	c-3.121,1.661-3.121,1.661-4.464,15.225c-2.286-1.094-2.442-2.605-2.554-4.973c-0.248-5.329,1.568-10.076,2.933-14.988
	c2.45-4.23,2.673-9.239,4.746-13.607c0.581-1.225,0.235-2.833-1.213-2.423c-5.295,1.499-2.396-2.719-2.242-3.645
	c0.879-5.347,1.039-5.319,0.153-9.054c-2.943,9.992-2.438,19.361-2.259,28.701c-1.717-0.642-1.837-0.624-1.986-1.651
	c-0.403-2.761-1.108-5.35-3.5-7.925c-1.492,2.942,0.341,5.938-1.355,8.51c-4.222-4.277,2.069-11.597-4.757-15.17
	c-0.4,1.55,0.688,3.865-1.572,3.92c-1.594,0.039-1.377-2.073-1.771-3.109c-0.521-1.378-0.11-3.411,1.949-3.587
	c3.069-0.262,4.395-2.289,3.561-4.604c-1.065-2.959-0.158-5.933-1.041-8.771c-0.268,0-0.623-0.11-0.835,0.018
	c-1.603,0.964,0.03,4.608-2.481,4.08c-2.312-0.485-1.31-3.369-1.375-5.281c-0.045-1.313-0.009-2.626-0.009-4.896
	c-2.688,2.968-3.471,6.29-2.867,8.543c2.335,8.726,0.317,17.241-0.155,25.838c-0.108,1.986-0.017,3.984-0.017,6.916
	c-2.909-3.881-4.056-7.76-2.661-11.049c2.236-5.272-0.181-10.143,0.823-15.756c-3.588,2.141-2.975,4.968-3.315,7.475
	c-0.176,1.291,0.843,3.437-1.594,3.451c-2.281,0.015-0.946-2.009-1.245-3.071c-1.573-5.586-2.352-11.117-0.299-16.891
	c1.06-2.98,2.854-5.182,4.973-7.222c1.948-1.878,1.475-3.908-0.07-5.123c-2.024-1.593-2.664,1.039-3.524,2.132
	c-1.381,1.752-1.63,4.26-3.564,5.84c-1.104-1.484-0.886-3.522-2.63-4.839c-1.96,2.039,0.295,4.889-2.068,7.288
	c-1.834-4.398-2.063-9.573-6.203-13.376c-1.297,5.696,0.495,9.941,3.413,14.024c2.927,4.094,2.771,6.231-0.613,9.608
	c-0.227-3.355-0.95-6.315-2.571-8.908c-0.58-0.928-1.573-1.806-2.948-1.358c-1.324,0.43-0.922,1.619-0.945,2.513
	c-0.11,3.961,0.265,7.607,2.862,11.114c2.483,3.354,4.984,7.21,3.645,11.9c-0.228,0.795-0.146,2.165-1.517,2.241
	c-1.271,0.071-1.541-1.034-1.962-1.92c-0.143-0.299-0.273-0.608-0.462-0.878c-1.273-1.804,0.254-6.142-2.521-5.591
	c-2.615,0.52-0.951,4.534-1.055,6.958c-0.244,5.696-0.078,11.409-0.655,17.11c-3.801-7.812-2-15.68-0.317-23.656
	c-1.472-1.505-2.148,1.992-3.968,0.259c5.768-4.718,2.829-10.606,2.2-16.396c-0.47-4.332-0.093-8.757-0.482-13.149
	c-6.248,11.396-4.43,23.861-5.379,36.025c-5.401-9.702-1.858-19.933-1.889-30.047c-2.211,0.112-1.289,2.401-2.031,3.554
	c-0.77,1.194-0.432,3.006-2.116,3.902c-2.843-2.442-0.111-4.801,0.342-7.063c0.528-2.641,3.389-4.739-0.327-7.783
	c-1.683-1.377-1.19-5.59,0.203-8.073c1.469-2.614,2.61-4.646,0.614-7.601c-0.863-1.28-0.393-3.464-0.55-5.541
	c-3.695,1.791-1.848,5.799-3.998,8.796c-1.128-2.773-0.757-4.845-0.624-6.888c-0.032-0.193-0.061-0.388-0.086-0.581
	c1.799-3.263,3.732-6.457,5.354-9.805c1.298-2.681-0.734-5.841-3.346-5.573c-1.774-1.479-0.875-3.506-0.606-5.066
	c0.646-3.777-1.219-6.536-2.824-9.78c-2.416,5.052-3.466,9.966-1.438,14.979c0.646,1.597,0.516,2.752-0.13,4.101
	c0.014,0.748-0.118,1.431-0.848,1.836c-5.155-6.396-5.563-14.861-0.573-22.166c-3.401,0.003-5.046-0.995-2.358-4.24
	c1.467-1.772,0.771-2.948-0.525-4.688c-2.264-3.035-4.579-6.236-5.023-10.393c-2.05,4.084-4.679,7.961-2.329,12.92
	c1.247,2.63,1.675,5.477-0.302,7.922c-0.92,1.138-0.311,1.499,0.162,2.379c2.074,3.864,2.205,8.239,2.77,12.45
	c0.146,1.085,1.466,4.467-2.682,3.137c-1.772-0.569-0.982,1.81-1.137,2.927c-0.391,2.849,1.265,6.508-3.104,7.766
	c1.763-8.821-3.706-17.058-1.739-25.93c-1.021,3.581-2.855,6.903-1.364,10.746c0.668,1.722,1.027,4.168-0.279,5.65
	c-1.733,1.969-2.145,1.893-1.053,3.693c1.396,2.3,2.97,4.488,4.467,6.726c-0.087,4.022,3.688,7.927,0.249,12.553
	c-2.492-4.229-2.103-9.387-5.902-13.196c-0.587,6.825-1.421,12.968,4.272,17.937c4.037,3.521,1.736,7.547,0.2,12.017
	c-2.828-3.351-2.732-7.217-5.042-10.899c-2.529,8.548,2.375,16.626-1.174,25.1c-2.407-3.035-0.898-6.062-1.569-8.608
	c-0.592-2.248,2.372-5.852-2.503-6.693c-0.956-0.165-0.002-1.676,0.296-2.572c0.823-2.477,1.666-4.935,2.347-7.476
	c1.74-6.517-2.901-11.978-2.14-19c-2.647,3.43-4.364,6.482-5.059,9.944c-0.72,3.591,1.925,7.068,0.505,11.144
	c-3.168-1.94-3.315-5.046-3.36-8.011c-0.043-2.825,0.254-5.672,0.606-8.481c0.128-1.019-0.185-1.704-0.883-2.062
	c-1.354-0.692-0.729,0.895-1.249,1.289c-1.396,1.062-2.141,0.639-2.363-0.891c-0.167-1.142,0.052-2.338-0.081-3.488
	c-0.511-4.433,2.766-9.307-1.869-13.403c-0.715-0.634-0.204-3.662,0.241-5.677c0.476-2.146,2.778-5.664-2.05-6.55
	c-0.344-0.063-0.619-1.444-0.624-2.217c-0.013-1.655-0.321-3.561,0.361-4.928c3.25-6.507,5.691-12.957,0.852-19.703
	c-1.043,0.521-1.097,2.176-1.818,3.805c-0.898-5.077-1.798-10.152-2.951-16.669c-4.803,10.665,2.429,20.213-1.098,30.24
	c-2.707-8.495-3.415-16.809-4.989-25.192c-1.35,2.91-4.75,4.602-2.623,9.354c1.737,3.881,1.575,8.676,1.881,13.091
	c0.087,1.229-0.687,3.374-2.547,3.074c-1.776-0.287-0.801-2.205-0.938-3.394c-0.274-2.359,0.702-4.846-0.825-7.691
	c-2.21,2.997-1.885,6.341-2.877,9.324c-2.68-5.405,0.068-11.609-3.082-17.241c-2.341,3.544-2.343,7.284-2.94,11.104
	c-3.268-5.849-6.276-11.655-5.535-18.828c-3.032,8.013,2.412,16.155-1.586,24.635c-1.744-3.656-1.914-6.881-2.199-10.211
	c-0.277-3.257-1.969-6.925-1.51-9.674c0.819-4.9-0.558-8.706-2.513-12.713c4.229-8.082,1.919-16.285,0.624-24.765
	c-2.065,1.877-2.604,3.813-2.451,6.321c0.375,6.149,2.106,12.228,1.091,18.454c-1.764,1.671-0.716,4.563-3.193,6.557
	c0-1.539-0.116-2.729,0.022-3.891c0.334-2.797-0.79-5.093-1.803-7.634c-1.908-4.788,1.816-10.019-0.851-15.243
	c-0.701-1.374,1.964-5,3.752-6.991c3.188-3.553-1.318-5.9-0.938-8.92c0.012-0.079-0.994-0.483-1.124-0.351
	c-0.416,0.433-0.854,1.026-0.907,1.595c-0.313,3.229-0.005,6.447,0.103,9.854c-2.302-6.681-4.617-13.235-7.393-20.958
	c-0.979,3.262-1.43,5.508,0.159,7.988c3.213,5.013,4.505,10.425,3.163,16.328c-0.777,3.43,1.162,7.219-1.438,10.834
	c-1.068-1.712-1.968-3.151-3.04-4.87c-1.868,4.896,1.156,8.077,2.774,11.631c2.315,5.081,1.574,6.896-3.067,7.666
	c0.01-0.348-0.188-0.534-0.583-0.564l0.021-0.466l-0.354-0.215c-0.888-2.734,0.078-6.075-2.968-8.979
	c-0.201,2.13,0.012,3.681-0.527,4.896c-1.84,4.152-0.996,7.418,2.887,9.922c2.438,3.693,3.16,7.837,3.162,12.16
	c0.001,4.253-2.161,8.229-0.701,13.007c-3.161-1.229-2.308-3.11-2.331-4.593c-0.068-4.48,0.005-8.963-0.054-13.444
	c-0.01-0.735,0.202-1.797-0.882-2.06c-0.974-0.236-1.492,0.52-1.899,1.248c-2.403,4.299-2.202,8.689-0.157,12.997
	c1.817,3.83,2.207,7.846,2.006,11.966c-0.053,1.054,0.101,2.555-1.645,2.532c-1.442-0.018-1.146-1.299-1.414-2.194
	c-0.786-2.629-1.643-5.237-2.98-7.819c-0.823,7.511,0.801,15.117-1.353,23.336c-2.646-4.516-2.287-9.201-2.219-13.011
	c0.073-4.105,0.154-8.667,1.658-12.806c1.442-3.969,0.021-7.542-1.418-11.321c-3.747,5.121-1.173,11.612-4.289,16.771
	c-2.879-3.411-3.053-8.061-0.314-13.142c1.898-3.523,4.699-6.345,3.213-11.222c-1.094-3.589,1.756-7.635,0.392-11.994
	c-2.165,4.424-2.366,9.055-3.553,13.411c-0.457,1.679,1.152,4.854-2.933,4.163c-1.13-0.191-0.537,0.806-0.301,1.327
	c2.554,5.643-2.036,10.155-2.112,15.442c-1.033-2.854-1.574-5.68-4.037-9.02c-0.455,8.84-3.896,16.051-3.355,24.052
	c-3.911-13.521,1.206-27.232-2.157-41.211c-6.448,7.745-2.813,17.344-5.447,25.601c-4.188-6.751-4.411-23.188,2.755-29.301
	c2.557-2.18,1.7-4.616,1.219-6.668c-0.471-1.996-0.691-4.036-0.974-6.457c-4.432,3.563-4.106,8.607-5.741,13.109
	c-2.56-6.765-4.204-13.658-5.185-21.291c-2.102,4.084,0.619,8.962-3.27,13.354c-1.269-6.923,0.678-13.944-6.093-18.588
	c-0.332,3.125,0.12,5.521,0.387,8.148c0.705,6.99,5.63,12.717,5.19,19.907c-0.132,2.164-0.391,3.943-2.62,5.084
	c-1.807-2.891-1.936-6.337-2.996-10.543c-3.58,7.989,1.874,15.778-2.085,23.105c-4.638-9.991-0.952-20.161-1.955-30.213
	c-1.942,3.146-5.264,5.104-5.87,9.173c-3.158-3.841-3.396-12.614-0.743-16.435c2.559-3.687,2.559-3.687-1.293-8.015
	c-0.759,4.833-1.471,9.353-2.377,15.13c-2.024-5.28-2.363-9.289-1.96-13.353c0.271-2.745-1.013-4.297-4.258-5.756
	c0,7.427,0,14.297,0,21.167c-3.939-6.932-2.177-14.374-3.042-21.4c-2.493-0.824-1.095,2.813-3.238,2.26
	c-1.501-1.15,0.339-3.508-1.88-5.134c-0.656,2.703-1.183,4.792,0.426,7.069c2.23,3.162,3.36,6.354,2.047,10.57
	c-0.799,2.565-0.793,5.866,0.677,8.739c1.904,3.723,0.862,7.821,1.138,11.752c0.057,0.8-0.008,1.771-1.007,2.037
	c-1.082,0.286-1.309-0.735-1.744-1.387c-1.229-1.844-1.051-4.394-3.232-6.447c0,7.436,0,14.336,0,21.237
	c-4.467-4.807-2.862-10.407-2.232-16.012c-2.513,0.066-1.438,3.499-4.284,3.321c-1.379-3.465,2.478-4.831,3.39-7.307
	c1.042-2.829,1.381-5.733,1.19-8.77c-0.187-2.991-2.455-5.857-0.428-9.021c-5.177,4.413-1.53,11.571-5.939,16.74
	c-4.129-10.395-2.916-21.262-4.616-31.358c-3.29,3.776-4.411,7.599-2.615,13.322c1.63,5.193,1.624,10.345,1.278,16.251
	c-2.422-2.291-2.777-4.881-2.623-7.273c0.187-2.893-1.264-5.445-1.128-8.271c0.024-0.526-0.639-1.585-0.813-1.55
	c-6.719,1.342-2.229-3.217-1.916-4.352c1.114-4.055,1.756-8.344,4.199-11.945c0.372-0.549,0.854-1.581,0.296-1.604
	c-2.135-0.085-3.019-2.894-5.418-2.238c-2.392,0.652-4.823,1.568-7.246,1.602c-4.117,0.054-5.076,1.331-2.871,4.893
	c0.949,1.534,1.535,3.294,2.487,4.826c2.142,3.445,1.284,5-2.775,4.758c-3.634-1.835-1.865-7.162-6.227-9.163
	c1.062,6.786,2.063,13.187,3.063,19.584c1.352-2.157,3.012-3.925,1.311-6.433c-0.916-1.349,0.343-2.788,1.853-3.516
	c2.867,4.6,6.003,9.138,3.646,15.141c-2.328-1.294-0.836-4.166-3.312-5.531c-1.11,4.664-2.366,9.113-1.408,13.894
	c0.192,0.958,0.025,1.989-0.001,2.986c-0.038,1.52-0.152,3.732-1.68,3.725c-2.292-0.013-0.854-2.199-1.063-3.468
	c-0.392-2.369,0.693-5.647-3.992-5.168c-1.814,0.187-1.112-3.615-3.781-4.441c-1.008,5.051-0.166,9.559,2.523,13.604
	c2.395,3.604,3.53,7.18,1.424,11.296c-2.161-0.604-2.037-2.889-2.881-4.736c-1.477,3.436-0.882,6.69-1.238,9.826
	c-0.364,3.197,0.128,6.357-0.138,9.569c-2.502-2.667-3.713-5.813-2.972-9.105c0.882-3.917,1.086-7.801,1.063-11.758
	c-0.005-0.882,1.899-1.956-0.29-2.548c-1.525-0.411-1.873,0.887-2.511,1.835c-1.796,2.675-0.896,6.238-3.141,9.082
	c-1.549-4.22-0.508-8.819-2.181-12.563c-3.312-7.413-0.214-14.747-0.51-22.088c-0.049-1.187,0.357-2.499-0.831-2.586
	c-1.206-0.089-2.071,1.002-2.099,2.638c-0.035,2.196-0.513,4.385-0.895,7.287c-4.998-6.497,0.282-12.589-1.003-18.826
	c-8.801,3.112-15.905,8.598-22.931,14.033c-14.254,11.028-29.532,20.566-44.29,30.854c-18.758,13.075-36.468,27.378-51.722,44.32
	c-14.572,16.186-26.046,34.711-33.327,55.32c-3.28,9.287-5.59,19.015-3.679,29.471c2.448,13.395,13.661,20.168,25.37,21.164
	c14.309,1.219,28.639,2.259,42.979,3.001c9.136,0.473,18.306,0.263,27.448,0.358c6.272,0.721,12.568,0.798,18.874,0.389
	c19.923,0.963,39.86,1.24,59.802,1.575c19.224,0.321,38.468,0.757,57.642,2.042c9.973,0.668,19.912,0.361,29.858,0.78
	c20.048,0.847,40.106,1.363,60.158,2.094c16.393,0.596,32.78,1.289,49.169,1.965c16.229,0.669,32.47,1.125,48.678,2.126
	c15.529,0.96,31.063,1.599,46.606,1.997c-5.065,1.201-10.211,0.521-15.315,0.68c-11.196,0.346-22.42-0.488-33.597,0.753
	c-21.739,0.066-43.479,0.106-65.218,0.21c-15.938,0.076-31.872,0.235-47.801,0.357c-7.934-0.423-15.872-0.367-23.81,0.122
	c-0.773-0.024-1.549-0.049-2.313-0.073c-2.807-0.09-5.621-0.261-8.437-0.252c-21.083,0.059-42.167,0.153-63.25,0.237
	c-0.769,0.008-1.537,0.017-2.296,0.024c-9.223-0.392-18.455-0.661-27.686,0.071c-28.342-0.157-56.684-0.346-85.024-0.464
	c-27.417-0.115-54.835-0.158-82.242-0.23c-13.548-0.856-27.115-0.521-40.683-0.354c-7.338,0.212-14.743,1.137-21.996,0.454
	c-8.971-0.847-17.901-0.643-26.85-0.729c-19.468-0.186-38.937-0.239-58.397-0.345c-3.855-1.183-8.009,0.078-11.836-1.409
	c15.901-0.914,31.222-4.102,45.716-11c12.524-5.961,21.785-15.165,27.713-27.546c8.805-18.391,18.59-36.185,30.835-52.521
	c13.716-18.298,29.178-35.01,46.34-50.145c6.896-6.083,13.72-12.246,21.445-17.294c0.276-0.182,0.697-0.401,0.732-0.648
	c0.957-6.74,4.11-13.1,3.954-19.96c-0.057-2.412,0.008-4.938-0.498-8.049c-3.688,4.206-6.068,8.08-4.185,13.614
	c0.94,2.762,0.145,5.533-1.809,7.9c-4.328-6.615-3.573-16.815,1.595-22.532c2.533-2.804,2.38-2.671,0.078-5.36
	c-1.917-2.239,1.468-4.649,0.205-7.051c-3.635,3.955-3.635,3.955-3.784,11.773c-2.852-2.814-3.453-5.586-1.53-9.095
	c0.919-1.68,1.909-2.09-0.571-3.913c-2.398-1.762-2.7-6.09-1.713-9.293c1.022-3.32,0.281-5.716-2.635-8.607
	c-1.071,8.292,0.725,16.396-2.143,24.937c-1.729-3.793-1.217-6.707-0.917-9.594c0.1-0.969,0.597-1.99,0.405-2.878
	c-0.501-2.319-0.607-5.829-4.353-1.995c-0.452-8.024,5.848-14.715,2.904-22.596c-3.496,1.297-3.496,1.297-2.813,8.976
	c-0.297-0.136-0.625-0.229-0.877-0.425c-1.108-0.86-1.129-3.467-2.879-2.852c-1.912,0.675,0.044,2.625-0.253,3.762
	c-0.851,3.253-0.369,6.56-0.765,10.061c-2.652-0.689-2.693-2.756-2.793-4.598c-0.098-1.806,0.13-3.582-0.559-5.374
	c-0.569-1.482,0.35-4.479-2.234-3.84c-2.97,0.732-0.685,3.046-0.348,4.769c1.256,6.445,4.019,12.421,5.708,18.716
	c0.997,3.717-1.032,5.787-4.571,5.239c-1.137-1.063-0.438-4.566-3.554-2.904c-1.167,0.622-0.492,10.718,0.566,12.066l-0.112-0.106
	c2.898,4.096,4.888,8.442,3.711,14.33c-1.663-2.357-3.059-4.336-4.887-6.928c-2.44,8.138,2.386,15.975-1.879,24.576
	c-1.745-10.398,0.554-20.12-3.924-29.314c-2.608,4.42,1.017,8.329-0.001,12.215c-0.426,1.625,1.04,4.596-1.023,4.688
	c-2.874,0.13-1.575-2.978-1.815-4.745c-0.154-1.139,0.037-2.325,0.082-3.49c0.057-1.481-0.573-3.055-1.888-3.144
	c-2.167-0.147-1.332,1.908-1.287,2.99c0.152,3.8-1.366,7.402-0.978,11.279c0.201,1.999,0.244,3.958,1.33,5.607
	c2.385,3.62,0.771,6.685-1.183,11.206c-1.312-4.196-2.24-7.172-3.577-11.453c-3.789,8.622,1.272,16.661-2.574,24.466
	c-1.787-5.432-0.355-10.598-1.124-15.567c-1.675-0.162-1.237,2.426-3.482,2.005c-0.917-3.958,2.439-6.546,3.643-9.792
	c1.313-3.539,1.603-7.314,0.326-10.67c-1.449-3.811,1.808-7.247,0.327-11.036c-2.343,0.924-1.984,4.15-4.53,4.428
	c-1.042-2.832,0.73-5.66,0.137-9.229c-3.49,3.394-3.819,6.78-3.043,10.654c0.699,3.494,1.109,7.06,1.415,10.612
	c0.092,1.065,0.9,3.006-1.269,3.1c-1.665,0.072-2.074-1.676-2.196-2.809c-0.351-3.258,0.199-6.576-0.748-9.834
	c-0.174-0.599,0.625-1.668-0.47-1.947c-1.34-0.343-1.687,0.859-1.791,1.814c-0.268,2.425-1.831,4.441-2.262,6.872
	c-0.354-9.985,3.358-19.22,5.228-28.773c4.515-4.004,5.896-9.104,3.477-14.488c-1.682,5.109-3.209,9.753-4.737,14.396
	c-3.138-4.988-1.793-10.29-0.606-16.803c-5.44,5.229-6.38,10.717-6.374,16.62c0.003,2.395,1.181,5.275-2.132,6.65
	c-0.101-0.194-0.256-0.33-0.465-0.405c-1.137-1.531,3.319-5.738-2.488-5.128c-0.832,0.088-0.26-0.926-0.129-1.494
	c1.36-5.911,0.4-12.659,6.179-16.991c0.247-0.186,0.057-0.951,0.07-1.447c1.52-0.807,3.966-0.795,4.059-3.013
	c0.211-5.032,3.829-7.367,7.234-9.945c0.919-0.696,1.993-1.259,1.621-2.553c-3.541-2.526-4.836,1.829-7.138,2.43
	c-2.431-3.524,2.745-5.965,0.892-9.528c-7.484,4.712-7.644,12.071-7.749,19.452c-2.318,1.619-3.793,1.883-3.828-1.803
	c-0.054-5.492,1.452-10.718,2.609-15.968c0.545-2.476,2.488-4.383,5.441-5.229c1.418-0.407,5.388-1.974,0.95-4.488
	c-0.449-0.254-0.86-1.553-0.798-1.592c4.274-2.704-1.546-6.227,0.829-9.216c2.561-3.224,1.434-7.533,3.379-11.729
	c-5.671,1.697-7.154,5.95-8.464,9.98c-0.741,2.278-1.149,4.69-2.046,6.968c-0.47,1.191,0.772,3.57-2.394,1.519
	c-2.175-1.41-1.454,2.681-3.235,3.355c-0.587-1.576-0.819-3.739,0.307-4.461c3.893-2.493,2.882-6.463,3.421-9.87
	c0.81-5.113,4.246-10.104,9.266-10.771c4.184-0.556,5.363-2.434,4.928-6.192c5.144,2.211,5.144,2.211,8.747-11.341
	c-5.79,5.746-13.148,7.446-16.896,14.368c-1.271-4.5,0.863-8.343,5.865-11.159c3.926-2.21,7.919-4.301,12.114-6.57
	c-2.563-1.641-4.51-0.007-7.691,0.187c4.936-6.616,13.48-2.916,17.787-8.553c-0.113-0.696-1.062-0.246-1.681-0.325
	c-0.901-0.116-1.579-0.44-2.021-1.508c0.897-0.439,1.901-1.391,2.739-1.263c3.63,0.555,4.977-1.576,5.958-4.439
	c0.936-2.729,2.942-4.019,5.714-4.856c1.539-0.466,3.789-0.208,4.693-2.506c-1.438-0.212-2.834-0.419-5.131-0.759
	c4.851-2.595,8.976-3.401,13.479-1.78c3.369,1.213,9.71-2.102,9.354-5.486c-0.308-2.911,1.512-3.521,2.774-4.601
	c2.936-2.511,6.365-4.038,4.242-9.381c-1.011-2.542,2.76-4.907,4.906-6.939c0.693-0.657,1.969-0.617,2.18-2.077
	c-0.896-0.168-1.918-0.358-3.037-0.568c3.543-6.687,11.509-5.028,17.366-9.028c-3.013-1.017-5.215-1.76-7.418-2.503
	c7.007-3.366,16.971,0.831,21.108-9.232c-2.557,0-5.293,0-8.916,0c4.4-6.496,11.873-2.126,16.577-6.627
	c3.944-3.774,9.813-5.537,16.022-8.821c-5.806-1.354-9.454,2.77-14.555,0.88c6.15-2.26,10.977-6.233,17.405-5.443
	c1.6,0.196,2.99-0.115,4.188-0.987c4.299-3.132,9.018-4.579,14.336-3.955c1.191,0.14,2.584,0.098,3.045-1.11
	c0.688-1.805-2.847-0.431-1.82-2.84c6.34-1.786,12.844-2.659,18.138,3.398c1.61,1.844,4.11,1.804,3.855-0.232
	c-0.324-2.58,8.933-2.153,1.692-6.064c-0.721-0.39,0.559-2.006,1.485-1.906c1.956,0.209,3.322-1.4,5.159-1.317
	c3.196,4.055,6.705,2.729,10.41-3.93c-3.917-1.212-6.175,2.558-9.488,3.156c-0.926-0.488-2.546,0.148-2.693-1.59
	c-0.115-1.355,0.622-1.934,1.889-2.465c4.992-2.091,10.005-3.079,15.331-1.373c1.041,0.333,2.422,0.876,3.259-0.18
	c0.976-1.229-0.938-1.89-1.109-3.295c5.863-0.847,11.258,0.199,15.285,4.37c2.792,2.89,4.444,2.285,6.511-0.288
	c-0.584-0.839-1.444-0.379-2.192-0.476c-1.362-0.176-2.299-1.096-1.877-2.325c0.357-1.042,1.747-0.773,2.646-0.438
	c2.261,0.844,4.403,1.896,6.794,2.512c2.248,0.579,3.451-0.017,4.485-1.778c1.854-0.497,4.245-0.416,3.706-3.469
	c2.641-0.284,5.279-0.568,9.102-0.979c-3.236-2.249-6.179-1.051-8.399-2.91c0.646-0.428,1.396-1.331,1.937-1.22
	c5.924,1.225,10.714-1.43,15.521-4.224c3.081-1.789,5.982-0.956,8.707,0.971c-1.055,2.321-3.817,2.092-5.409,3.611
	c5.229,2.918,5.16,2.82,10.144-0.601c1.969-1.353,5.432-2.435,6.164,0.149c1.203,4.248,4.015,2.41,6.258,2.831
	c0.727,0.137,1.75,0.197,1.937-0.943c0.163-0.996-0.647-1.611-1.319-1.893c-5.315-2.222-9.946-7.124-16.571-4.373
	c0.021-0.873-1.575-1.747-0.262-2.553c4.315-2.646,13.246-1.451,17.039,2.184c1.438,1.377,2.955,2.697,4.209,4.229
	c1.534,1.875,2.984,1.987,5.063,0.797c7.424-4.254,11.576-3.737,17.602,1.826c0.617,0.57,0.897,1.636,2.289,1.311
	c7.003-1.634,9.942-0.426,13.435,5.44c0.692,1.167,1.151,2.284,2.847,2.217c0.728-0.028,1.752,0.347,2.173,0.896
	c3.363,4.395,5.979,4.363,10.657,7.28c4.801,2.993,7.634,0.198,11.297-0.659c2.877-0.673,6.044-2.476,4.626,3.377
	c-0.63,2.603,1.849,1.33,3.061,0.841c5.243-2.118,10.686-2.905,16.324-3.078c3.363-0.104,5.895,1.132,9.026,3.412
	c-4.432,1.409-8.482-0.39-12.434,1.112c0.914,2.493,2.978,2.724,5.071,2.57c2.763-0.202,5.116,0.655,7.525,1.924
	c3.281,1.728,6.348,3.166,10.683,2.323c4.252-0.827,8.057,2.645,11.504,5.348c0.221,0.172,0.396,0.654,0.319,0.909
	c-1.164,3.833,1.421,5.213,4.218,6.285c3.208,1.229,5.223,4.381,8.646,5.204c2.596,5.967,7.578,1.669,11.658,3.388
	c-2.482-5.789-4.751-4.508-11.666-4.358c2.325-3.538,7.521-4.757,12.365-2.802c2.916,1.177,4.949,2.905,3.073,6.421
	c6.16,0.866,12.708,0.054,17.324,5.534c3.049,3.619,2.836,4.724-2.236,6.497c13.523,4.022,20.291,14.055,26.277,24.829
	c-0.39,0.393-0.778,0.785-1.168,1.178c-2.22-1.985-4.44-3.972-6.537-5.847c-2.508,1.684,1.263,5.692-3.046,6.041
	c-0.254-3.977-1.225-7.753-3.285-11.188c-0.356-0.594-0.561-1.711-1.676-1.258c-0.393,0.159-0.796,0.669-0.902,1.093
	c-0.803,3.191,2.815,10.653,5.832,12.143c0.991,0.642,1.857,1.356,1.984,2.664c0.154,1.6,0.053,4.154,2.317,3.375
	c1.823-0.628,5.925,1.111,5.044-4.234c2.465,4.119,5.557,5.24,9.486,4.536c0.911-0.163,1.988,0.073,2.881,0.411
	c3.987,1.508,4.157,2.994,0.403,6.135c4.292,0.776,7.759,2.985,11.923,3.741c4.283,0.778,7.542,3.692,8.528,8.559
	c-3.714,0.324-6.241-3.683-10.276-2.839c1.01,1.762,1.9,3.4,2.871,4.989c1.101,1.799,1.207,4.161,4.969,2.433
	c2.275-1.045,6.225,0.689,8.129,4.046c1.114,1.961,0.893,2.776-1.036,3.827c-1.919,1.047-3.017,0.932-3.753-1.212
	c-0.314-0.919-0.676-1.91-1.304-2.611c-0.703-0.786-1.675-2.009-2.866-0.991c-0.843,0.72-0.356,1.801,0.305,2.663
	c0.588,0.767,1.013,1.663,1.624,2.407c0.954,1.161-0.023,5.075,4.072,2.106c1.142-0.826,7.946,0.885,9.474,5.265
	c1.901,5.46,6.854,9.94,4.592,16.953c-0.597,1.85,2.95,5.131,4.772,7.624c0.872,1.192,2.282,2.02,1.8,4.007
	c-1.535,0.307-3.251-1.591-5.172,0.417c6.681,2.729,11.438,6.802,9.9,15.41c-2.656-2.137-2.38-5.69-4.965-7.318
	c-1.021-0.645-1.93-1.553-3.084-1.003c-1.104,0.525-1.552,1.758-1.384,2.992c0.239,1.761,0.02,4.38,1.059,5.101
	c4.804,3.331,3.03,9.02,5.238,13.248c1.215,2.327,1.522,4.856,0.192,8.186c-1.012,2.532-2.2,7.079,0.934,11.054
	c5.063,6.421,10.893,12.847,10.585,22.221c-3.038-0.52-3.019-4.322-6.267-5.902c0.609,6.204-0.822,12.232,3.002,17.425
	c2.574,3.496,3.719,7.139,2.825,11.601c-2.858-0.641-3.462-2.703-3.918-5.067c-0.193-1.009-0.846-2.332-2.359-1.657
	c-0.309,0.136-0.22,1.163-0.313,1.778c-0.093,0.138-0.165,0.298-0.285,0.404c-0.101,0.089-0.341,0.194-0.378,0.156
	c-2.537-2.641-1.987-5.59-0.73-8.527c1.768-4.131,0.435-7.797-1.319-11.446c-1.176,6.957-4.053,13.821-0.498,20.864
	c0.519,1.025,0.517,2.253,1.911,2.461C809.842,531.737,810.838,531.405,810.652,529.74z M384.866,481.64
	c1.579-4.021,0.974-7.867-0.925-11.896c-2.563,3.391-2.677,7.049-2.365,10.804c-2.453-0.454-3.16,0.58-3.029,2.997
	c0.205,3.789,0.054,7.597,0.054,11.396c-0.484,0.103-0.972,0.205-1.457,0.309c-0.365-5.785-1.361-11.232-6.732-14.385
	c-0.24-0.142-0.346-0.562-0.454-0.872c-0.604-1.727-0.448-4.698-3.069-4.027c-2.388,0.61-1.021,3.464-1.313,5.323
	c-0.202,1.285,0.79,1.898,1.428,2.832c2.014,2.947,5.578,6.925,4.01,9.563c-3.358,5.654-1.243,10.566-0.372,15.835
	c0.093,0.555-0.094,1.153-0.188,2.133c-2.648-1.862-1.685-5.224-4.344-7.464c-1.081,5.175-0.92,9.579,1.146,13.841
	c3.502-2.19,6.877-4.428,10.373-6.457c4.594-2.668,9.363-5.049,7.135-11.885c-0.354-1.089,0.68-2.558,0.632-3.834
	c-0.104-2.752,2.446-5.104,1.11-7.989C386.789,485.569,386.485,483.432,384.866,481.64z M434.877,443.421
	c-1.223-2.383-1.414-4.12-3.016-5.044c-1.894,6.972,5.542,10.863,6.119,18.011c-2.661-2.189-3.963-4.649-7.138-6.044
	c0.736,9.146,6.181,16.308,7.193,24.603c12.95-7.04,12.95-7.04,11.332-18.481c-1.359,0.022-1.454,2.654-3.101,1.7
	c-1.143-0.662-0.582-2.146-0.486-3.202c0.187-2.094-0.228-3.215-2.609-3.72c-1.549-0.328-1.872-7.101-0.425-7.414
	c6.062-1.32,1.35-5.184,2.514-7.601c-2.184,0.819-1.178,3.539-3.392,4.202c-3.205-3.399,0.914-7.185-0.29-11.445
	C438.161,433.449,436.896,438.131,434.877,443.421z M394.563,464.017c0.131,8.611,0.138,16.014,1.444,23.304
	c0.263,1.466,0.936,3.068,0.317,4.261c-0.813,1.563-0.045,4.454-2.151,4.604c-2.063,0.147-1.764-2.602-2.437-4.104
	c-0.271-0.608-0.357-1.271-1.917-1.161c0.439,4.361-1.9,8.71,0.008,13.353c3.146-1.881,5.988-3.705,8.95-5.313
	c3.043-1.649,7.073-2.454,4.861-7.531c-0.56-1.282,0.932-1.938,1.529-2.877c2.892-4.525,3.459-9.792,5.397-14.852
	c-2.362-0.122-2.734,2.377-4.561,1.689c-0.32-0.626-0.412-1.151,0.041-1.828c1.002-1.494,1.16-3.154-0.014-4.597
	c-0.552-0.677-1.562-0.457-2.298,0.001c-1.813,1.125-1.313,3.033-1.102,4.537c0.338,2.407,1.362,4.714,1.771,7.117
	c0.269,1.575,0.604,3.726-1.183,4.475c-1.079,0.453-2.963-0.021-4.02-0.752c-1.327-0.918-2.064-2.603-1.441-4.383
	C399.676,474.499,397.771,469.788,394.563,464.017z M468.888,440.188c2.034-5.763,4.406-11.239,6.486-16.82
	c-1.795,1.503-2.797,3.698-5.521,4.283c0.033-0.751-0.047-1.234,0.091-1.646c1.864-5.627,6.929-10.011,6.341-16.655
	c-0.077-0.875,0.5-1.911-0.398-2.542c-0.372-0.261-1.181,0.102-1.791,0.181c0.59,3.234-3.427,4.253-3.438,7.322
	c-0.013,3.08-1.036,5.081-4.767,1.744c0.876,3.526,0.733,6.245-1.515,8.807c-1.175-1.312-0.537-3.432-2.394-3.708
	c-0.295-0.044-0.84,0.56-1.021,0.973c-0.904,2.041,0.686,3.318,1.917,4.106c2.508,1.604,3.373,4.077,3.737,6.577
	C466.988,435.375,467.564,437.778,468.888,440.188z M452.858,463.665c1.989-1.887,3.642-3.391,5.218-4.969
	c1.295-1.296,2.206-2.558-0.336-3.658c-1.257-0.545-0.714-2.036-1.043-3.078c-1.125-3.564-1.257-7.135,0.546-11.713
	c-2.614,2.014-2.364,4.421-4.306,5.021c-2.426-0.647-0.177-3.594-2.648-4.587c-1.398,3.995-2.037,9.513-0.341,11.691
	C452.727,455.943,452.426,459.349,452.858,463.665z M715.276,516.54c-1.97,1.376-3.045,3.112-3.501,4.974
	c-0.406,1.653-1.153,2.634-2.595,1.953c-1.163-0.548-0.588-1.925-0.174-3.084c1.404-3.935,3.658-7.741,2.289-12.291
	c-3.313,2.738-3.906,6.099-3.613,10.225c0.373,5.269-0.918,10.663,1.214,16.132C716.871,521.331,716.871,521.331,715.276,516.54z
	 M487.843,490.625c-7.35,9.606-4.283,19.518-4.456,28.961c2.22,0.264,1.752-2.342,3.372-3.076c2.536-1.148,3.075-10.62,0.612-11.682
	c-2.545-1.098-1.743-2.64-1.223-3.916C487.336,498.002,487.699,495.015,487.843,490.625z M572.092,466.735
	c1.572-3.981,2.498-7.248,0.584-10.823c-0.619-1.157-0.201-2.898,1.003-4.129c0.548-0.561,1.991-0.929,1.104-2.182
	c-0.71-1.005-1.617-0.707-2.626-0.243c-1.188,0.543-2.771,1.463-3.706,1.073c-2.667-1.106-2.495-0.063-3.012,2.15
	c-0.687,2.935,0.593,4.759,2.228,6.379C569.739,461.017,571.064,463.371,572.092,466.735z M414.493,488.821
	c1.994-3.789,4.945-8.063,3.687-11.801c-1.405-4.179,2.924-8.498-1.378-12.241C409.451,472.11,417.034,480.993,414.493,488.821z
	 M512.123,435.884c-0.958,1.633-4.146,1.998-3.177,4.352c1.209,2.938-0.593,4.756-1.701,6.781c-0.784,1.435-2.29,2.537-1.345,4.377
	c0.611,1.194,1.937,1.454,3.027,1.071c1.835-0.643,3.04-1.688,3.91-3.865C514.6,444.202,512.499,440.232,512.123,435.884z
	 M680.829,572.442c0.172-5.778,4.233-12.085-2.205-17.215c0.617,7.909-1.387,15.752,2.289,23.276
	c2.14-3.098,4.655-5.812,5.624-9.786C684.208,569.629,683.76,572.469,680.829,572.442z M651.435,496.571
	c-1.304,8.421,0.239,12.979,4.865,16.516c1.186-2.143,2.224-4.407,3.622-6.422c0.942-1.358,0.187-2.354-0.385-3.145
	c-1.093-1.519-1.35,0.44-1.978,0.77c-1.813,0.943-2.512-0.533-3.137-1.53C653.421,501.163,652.75,499.357,651.435,496.571z
	 M459.93,455.142c3.857-3.647,5.723-7.153,6.528-11.231c0.188-0.951-0.237-2.709-0.903-1.979c-2.559,2.813-2.99-0.174-3.908-1.219
	c-0.616-0.701-0.793-1.954-2.029-1.517c-1.128,0.398-1.256,1.665-0.938,2.548C460.136,445.803,459.578,450.095,459.93,455.142z
	 M375.621,462.954c-0.811,0.076-1.313,1.843-2.871,1.651c-1.891-0.231-2.154,0.736-1.788,2.412c1.077,4.934,2.02,9.896,3.014,14.847
	C373.919,475.489,381.032,470.063,375.621,462.954z M467.172,292.345c3.699-0.704,7.178-1.953,11.092-1.829
	c3.545,0.113,7.479,1.087,11.218-0.978C480.938,284.902,473.593,285.61,467.172,292.345z M547.167,475.22
	c0.806-5.484,4.397-9.686,3.254-15.194c-2.465,2.814-0.811,7.275-4.353,9.587c-1.263-4.449,1.396-8.643-0.146-12.857
	C541.953,459.291,542.42,470,547.167,475.22z M559.453,280.609c6.888,0.611,12.874,0.187,18.329-2.464
	C571.73,275.048,565.645,274.385,559.453,280.609z M753.972,597.041c3.536-6.327,7.058-12.673,5.128-20.62
	c-0.764,0.46-1.112,0.56-1.282,0.79C753.438,583.188,757.325,590.819,753.972,597.041z M784.957,409.668
	c0.179,1.908-1.828,4.107,1.604,5.063c0.957,0.267,1.06,1.072,1.015,1.974c-0.311,6.188,0.03,6.476,6.241,5.009
	C789.949,418.33,791.679,411.366,784.957,409.668z M796.977,449.933c-1.348-7.392-2.598-13.709-7.391-20.041
	C789.3,438.026,791.504,444.005,796.977,449.933z M356.471,349.404c-6.919,1.756-3.371,10.163-8.891,12.507
	c3.468,0.983,7.924,1.443,7.607-2.635C354.92,355.828,356.436,353.169,356.471,349.404z M497.001,505.628
	c0.683-0.102,1.366-0.203,2.049-0.305c-1.462-5.934-2.777-11.908-4.505-17.764c-0.359-1.218-0.761-4.057-2.674-3.346
	c-2.234,0.831-1.028,3.438-0.827,5.284c0.077,0.704,0.675,1.671,1.289,1.94c3.048,1.341,2.668,4.272,3.263,6.705
	C496.196,500.607,496.543,503.131,497.001,505.628z M431.894,300.414c-0.318-0.048-1.821,0.354-2.24,2.024
	c-0.576,2.298,1.363,1.995,2.752,2.308c2.347,0.53,4.646,1.264,6.986,1.82c1.212,0.288,2.395-0.054,2.934-1.231
	c0.806-1.76-1.025-1.676-1.824-2.193C438.288,301.708,435.837,300.859,431.894,300.414z M530.004,474.904
	c-3.57,5.022-3.783,10.395-2.031,16.039C534.063,486.112,529.633,480.26,530.004,474.904z M358.659,513.409
	c3.499-0.235,4.536-1.706,4.097-4.051c-0.722-3.855,0.881-7.438,1.244-11.162c0.119-1.223,1.33-2.961-0.065-3.383
	c-2.012-0.608-1.683,1.777-2.267,2.954c-2.112,4.259,0.586,9.567-2.98,13.571C358.301,511.774,358.243,513.339,358.659,513.409z
	 M293.923,414.198c6.282-2.359,7.156-8.296,9.166-13.512C298.018,403.793,295.987,408.969,293.923,414.198z M641.814,495.333
	c-4.205,4.261-2.67,9.054-3.185,14.076C643.589,505.251,643.99,503.317,641.814,495.333z M582.524,482.1
	c-4.609,5.804-4.266,10.777-2.175,16.328C584.008,493.59,582.121,488.379,582.524,482.1z M288.606,495.068
	c-4.154,4.245-3.181,8.737-2.633,13.443C292.728,505.115,288.941,500.118,288.606,495.068z M750.529,584.206
	c-3.015,4.396-1.298,8.627-1.674,13.504C752.402,593.176,754.311,589.282,750.529,584.206z M485.433,481.313
	c-0.273-0.121-0.549-0.242-0.823-0.363c-1.202,2.227-2.533,4.396-3.565,6.698c-0.808,1.801,0.159,4.148,1.362,4.6
	c1.963,0.735,2.644-1.93,2.881-3.152C485.774,486.587,485.433,483.917,485.433,481.313z M565.873,465.175
	c-1.146,5.599-1.097,10.166,3.569,14.805C569.629,474.035,568.543,469.746,565.873,465.175z M555.9,500.301
	c0.703-1.094,1.272-2.465,2.589-2.729c6.083-1.225,1.304-4.721,1.308-7.033c0.002-1.112-1.677-1.417-2.14,0.46
	C556.922,493.985,555.178,496.742,555.9,500.301z M322.757,464.122c-1.699-3.03-1.116-5.014,0.731-6.36
	c2.947-2.146-0.629-2.581-1.061-3.561c-0.62-1.411-1.884-0.271-2.625,0.689C317.441,457.956,318.266,461.767,322.757,464.122z
	 M695.985,534.244c-1.226,3.262-2.01,6.469-0.709,9.621c0.491,1.191,0.958,2.814,2.573,2.418c1.465-0.361,0.917-2.107,0.725-2.989
	C697.904,540.235,696.877,537.254,695.985,534.244z M576.501,472.647c0.647,2.191,1.169,3.96,1.853,6.271
	c3.456-4.145,6.247-7.739,3.896-12.903C580.025,468.064,582.428,473.664,576.501,472.647z M571.472,416.022
	c0.12-0.007,0.24-0.014,0.361-0.021c-0.082-1.474-0.004-2.979-0.291-4.412c-0.279-1.387-1.22-2.523-2.823-2.058
	c-1.986,0.577-0.481,1.66-0.265,2.645c0.528,2.377,0.828,4.804,1.282,7.199c0.232,1.231,0.534,3.215,1.767,3.005
	c2.456-0.417,0.23-1.892,0.181-2.914C571.628,418.317,571.543,417.171,571.472,416.022z M571.496,440.774
	c1.463-1.239,4.907,1.639,5.002-1.831c0.064-2.393-4.702,0.03-5.094-3.272c-1.283,1.069-3.694,1.024-3.688,3.353
	C567.725,442.007,570.021,440.375,571.496,440.774z M753.298,577.03c0.364-4.908-3.059-8.012-2.979-12.37
	C747.609,568.876,748.386,572.297,753.298,577.03z M311.903,388.71c2.625,0.113,5.559,2.293,7.771-0.536
	c0.792-1.014,1.866-2.246,1.076-3.326c-0.617-0.846-2.124-0.505-3.184,0.194C315.69,386.28,313.793,387.489,311.903,388.71z
	 M798.441,562.33c-1.697,4.726-0.132,7.875,2.965,11.231C802.109,569.109,801.085,565.803,798.441,562.33z M656.27,487.629
	c1.157,3.968-0.104,7.936,0.204,11.876C658.712,495.551,660.307,491.601,656.27,487.629z M522.359,435.27
	c-1.99,3.929-1.617,7.938-1.484,11.944c0.495,0.007,0.99,0.013,1.484,0.021C522.359,443.245,522.359,439.258,522.359,435.27z
	 M586.996,285.054c1.927,0.138,3.081,1.228,3.474-0.271c0.376-1.433-1.083-1.876-2.191-2.056c-1.13-0.183-2.309-0.072-3.466-0.061
	c-1.184,0.011-2.439,0.099-2.958,1.336c-0.186,0.443,0.188,1.257,0.523,1.755c1.001,1.49,1.88,0.385,2.878-0.149
	C586.093,285.159,587.098,285.023,586.996,285.054z M327.144,446.456c-0.276,1.705-0.651,2.49,0,3.142
	C327.144,448.891,327.144,448.144,327.144,446.456z M288.175,429.046c-0.371,0.252-0.677,0.389-0.885,0.615
	c-0.517,0.563,0.05,0.932,0.365,1.21c0.564,0.498,0.806,0.053,0.798-0.465C288.447,429.973,288.283,429.541,288.175,429.046z"/>
<path fill="#EAC766" d="M639.04,648.978c-0.042,14.82-11.396,25.702-26.685,25.582c-13.332-0.104-24.119-11.2-24.33-25.029
	c-0.222-14.616,9.295-24.169,24.248-24.35C627.27,625.002,639.078,635.502,639.04,648.978z"/>
<path fill="currentColor" d="M124.342,690.246c-0.015-6.445-0.029-12.893-0.044-19.334c0.988-3.416,0.581-6.93,0.583-10.396
	c0.013-16.473-0.054-32.943-0.128-49.416c-0.067-14.957,0.528-29.92-0.437-44.865c-0.084-19.271-0.22-38.541-0.243-57.813
	c-0.04-33.403-0.041-66.806,0.001-100.209c0.028-22.099,0.158-44.196,0.243-66.289c0.116-1.142,0.332-2.287,0.334-3.434
	c0.056-31.458,0.145-62.916,0.105-94.374c-0.02-15.956-0.278-31.911-0.429-47.866c0.018-22.265,0.056-44.528,0.024-66.792
	c-0.003-2.521-0.185-4.472,3.486-4.212c14.248,1.008,28.547-0.556,42.764,0.275c13.485,0.789,26.938,0.438,40.401,0.515
	c28.754,0.165,57.517,0.408,86.261-0.141c11.631-0.223,23.268-0.507,34.899-0.473c14.229,0.041,28.459,0.597,42.688,0.592
	c15.465-0.005,30.938-0.835,46.39-0.491c14.131,0.313,28.268,0.882,42.389,0.51c56.105-1.48,112.216-0.463,168.323-0.64
	c49.92-0.157,99.841-0.042,149.762-0.056c36.254-0.01,72.508-0.05,108.762-0.041c9.512,0.003,8.7-1.146,8.7,8.403
	c-0.01,93.479-0.033,186.958-0.053,280.438c-0.012,57.806-0.046,115.611-0.032,173.417c0.017,62.955,0.118,125.91,0.103,188.865
	c-0.012,41.641-0.165,83.279-0.252,124.916c-1.163-0.031-2.329-0.088-3.494-0.088c-102.455-0.02-204.909-0.037-307.364-0.049
	c-122.444-0.016-244.889-0.033-367.333-0.029c-31.815,0-63.63,0.082-95.444,0.125c-0.141-0.193-0.327-0.322-0.555-0.383
	c0.034-0.828,0.091-1.658,0.091-2.488c-0.03-56.432-0.041-112.863-0.115-169.295C124.709,716.17,124.476,703.207,124.342,690.246z
	 M891.817,515.848c0.044-17.47,0.127-34.938,0.126-52.406c0-87.396-0.016-174.79-0.04-262.185
	c-0.006-22.297-0.068-44.595-0.105-66.892c-0.033-2.001-1.489-1.279-2.518-1.285c-15.812-0.099-31.62-0.267-47.432-0.253
	c-27.111,0.023-54.224,0.211-81.336,0.242c-39.923,0.047-79.846,0.056-119.77,0.007c-24.725-0.03-49.448-0.269-74.172-0.278
	c-19.95-0.009-39.9,0.259-59.852,0.267c-24.265,0.01-48.528-0.125-72.794-0.198c-1.309-0.139-2.616-0.398-3.925-0.399
	c-31.445-0.034-62.891-0.048-94.336-0.034c-1.478,0.001-2.953,0.278-4.43,0.427c-12.97,0.074-25.938,0.223-38.906,0.209
	c-51.293-0.056-102.586-0.093-153.877-0.357c-4.993-0.026-6.703,1.002-6.646,6.375c0.319,30.487,0.281,60.979,0.269,91.47
	c-0.045,106.465-0.158,212.93-0.19,319.395c-0.024,79.475,0.033,158.949,0.061,238.424c0.012,33.654,0.117,67.313-0.037,100.967
	c-0.018,4.025,1.183,4.934,4.985,4.855c14.821-0.293,29.647-0.268,44.472-0.359c27.316,0.059,54.632,0.156,81.948,0.16
	c20.818,0,41.636-0.121,62.454-0.188c0.875,0.004,1.751,0.008,2.626,0.012c1.491,0.078,2.981,0.221,4.474,0.223
	c44.158,0.02,88.315,0.049,132.475,0.018c26.485-0.02,52.971-0.141,79.456-0.217c6.211,0.338,12.421,0.428,18.63-0.033
	c8.317,0.084,16.634,0.246,24.951,0.234c29.132-0.043,58.263-0.146,87.396-0.229c1.872-0.012,3.743-0.021,5.616-0.031
	c1.824,0.084,3.648,0.24,5.474,0.24c44.328,0.008,88.655,0.006,132.983-0.012c22.498-0.008,44.997-0.127,67.493,0.016
	c3.71,0.021,5.088-0.947,4.755-4.74c-0.35-3.973-0.232-7.99-0.232-11.99c-0.001-73.15,0.016-146.305,0.017-219.457
	c0.001-23.488-0.031-46.979-0.048-70.471c-0.234-1.604-0.67-3.207-0.674-4.811c-0.057-20.633-0.066-41.266-0.029-61.896
	C891.13,519.059,891.577,517.453,891.817,515.848z"/>
</svg>
