<svg version="1.1" id="Layer_1" xmlns="http://www.w3.org/2000/svg" xmlns:xlink="http://www.w3.org/1999/xlink" x="0px" y="0px"
	 width="1024.191px" height="1024.191px" viewBox="0 0 1024.191 1024.191" enable-background="new 0 0 1024.191 1024.191"
	 xml:space="preserve">
<g>
	<path fill-rule="evenodd" clip-rule="evenodd" fill="currentColor" d="M303.968,898.374c-21.249-0.001-42.497-0.002-63.74-0.003
		c-1.176-0.854-2.547-0.555-3.839-0.559c-13.413-0.034-26.83-0.227-40.238,0.026c-10.392,0.195-20.807-0.813-31.177,0.534
		c-11.818,0.06-23.641-0.04-35.453,0.271c-3.904,0.103-4.858-0.94-4.853-4.896c0.136-98.796,0.131-197.592,0.116-296.388
		c-0.015-90.796-0.099-181.593-0.102-272.389c-0.002-65.307,0.143-130.612,0-195.918c-0.011-5.132,1.139-7.327,6.396-6.275
		c0.642,0.128,1.329,0.029,1.987,0.035c1.667,1.138,3.554,0.545,5.324,0.547c51.33,0.054,102.659,0.071,153.988,0.072
		c105.826,0.001,211.652-0.007,317.479-0.05c1.767-0.001,3.661,0.615,5.316-0.591c2.627,0.004,5.255,0.009,7.875,0.014
		c0.813,0.819,1.86,0.544,2.827,0.545c56.996,0.041,113.992,0.073,170.988,0.088c1.125,0,2.355,0.316,3.313-0.642
		c1.617,0.002,3.235,0.003,4.847,0.005c9.045,1.191,18.099,0.99,27.153,0.02c3.956-0.006,7.911-0.011,11.859-0.017
		c6.71,0.903,13.429,1.021,20.147,0.019c7.415,1.448,14.927,0.189,22.38,0.8c3.721,0.304,7.479,0.202,11.17-0.569
		c-0.033,23.309-0.071,46.622-0.09,69.935c-0.056,72.145-0.137,144.288-0.146,216.433c-0.01,76.975,0.06,153.948,0.078,230.923
		c0.018,70.979-0.004,141.956,0.033,212.935c0.007,14.647,0.192,29.296,0.296,43.943c-0.205,0.253-0.433,0.482-0.679,0.686
		c-24.797-0.034-49.6-0.088-74.403-0.056c-2.282,0.003-4.649-0.531-6.871,0.508c-43.256,0.006-86.512,0.012-129.76,0.017
		c-10.933-1.172-21.908-0.35-32.864-0.511c-7.786-0.114-15.606-0.596-23.375,0.518c-55.579-0.003-111.159-0.006-166.731-0.009
		c-6.744-0.792-13.495-0.936-20.246,0.005c-14.253-0.003-28.507-0.006-42.754-0.008c-10.085-0.973-20.177-0.748-30.268,0.004
		c-11.24,0.006-22.48,0.012-33.714,0.018C325.487,897.438,314.728,897.563,303.968,898.374z M890.829,598.026
		c-0.003-3.61-0.006-7.222-0.009-10.832c0.94-1.361,0.521-2.913,0.522-4.367c0.026-62.152,0.023-124.305-0.007-186.457
		c0-1.454,0.441-3.005-0.51-4.365c0.002-45.258,0.004-90.515,0.006-135.772c1.086-9.409,0.865-18.817-0.009-28.226
		c-0.045-31.262-0.158-62.524-0.045-93.785c0.014-3.726-0.857-5.281-4.638-4.456c-15.032-0.491-30.064-0.354-45.097,0.033
		c-3.298-0.009-6.595-0.018-9.893-0.026c-18.022-0.464-36.046-0.545-54.068,0.024c-1.324-0.009-2.647-0.018-3.972-0.026
		c-1.649-0.106-3.298-0.305-4.947-0.305c-136.225-0.005-272.449-0.004-408.675,0.028c-16.805,0.004-33.609,0.186-50.414,0.284
		c-1.984,0.008-3.969,0.017-5.954,0.024c-0.816-0.103-1.633-0.296-2.449-0.295c-54.93,0.019-109.86,0.048-164.79,0.115
		c-1.244,0.001-2.687-0.552-3.72,0.722c-1.01,1.528-0.532,3.247-0.533,4.868c-0.032,91.308-0.048,182.615-0.032,273.923
		c0.016,90.623,0.099,181.247,0.096,271.871c-0.002,67.981-0.1,135.963-0.114,203.944c0,1.947-0.55,3.996,0.549,5.86
		c5.873,1.643,11.852,0.568,17.768,0.574c123.101,0.118,246.201,0.18,369.302,0.197c121.935,0.018,243.87-0.021,365.805-0.076
		c1.75-0.001,3.649,0.698,5.272-0.612c0.966-2.073,0.445-4.267,0.447-6.396c0.055-56.104,0.073-112.206,0.098-168.31
		c0.968-10.061,1.017-20.121,0.025-30.183c-0.006-2.277-0.012-4.555-0.019-6.832c0.861-1.007,0.533-2.226,0.535-3.354
		c0.038-24.649,0.059-49.298,0.05-73.946C891.412,600.584,891.759,599.195,890.829,598.026z"/>
	<path fill-rule="evenodd" clip-rule="evenodd" fill="currentColor" d="M307.042,487.803c-1.305-0.008-2.609-0.017-3.907-0.024
		c-11.029-0.586-22.065-0.251-33.102-0.02c-1.011-9.256,0.447-18.333,1.474-27.511c1.457-13.016,4.442-25.629,8.265-38.053
		c8.919-28.997,22.751-55.609,42.025-78.951c22.796-27.605,49.93-50.206,82.451-65.852c19.62-9.438,40.132-16.508,61.463-20.453
		c11.218-2.074,22.813-2.725,34.297-3.604c10.33-0.792,20.493-0.031,30.661,0.425c15.846,0.71,31.421,3.972,46.649,8.417
		c29.369,8.572,56.449,21.802,80.787,40.498c19.243,14.782,36.16,31.792,50.283,51.562c13.4,18.76,24.327,38.894,31.684,60.701
		c5.879,17.429,10.199,35.326,11.686,53.828c0.371,4.616,0.482,9.234,0.886,13.831c0.354,4.041-0.704,5.945-5.012,5.152
		c-0.799-0.147-1.659,0.04-2.483,0.072c-12.682-0.556-25.369-0.51-38.059-0.032c-1.324,0.011-2.648,0.021-3.965,0.03
		c-1.143-0.111-2.293-0.32-3.442-0.32c-113.411-0.016-226.822-0.029-340.233-0.002C341.98,487.501,324.511,487.696,307.042,487.803z
		"/>
	<path fill-rule="evenodd" clip-rule="evenodd" fill="currentColor" d="M355.564,495.744c1.007-0.01,2.013-0.019,3.019-0.027
		c3.54,1.28,7.249,0.783,10.854,0.785c93.106,0.062,186.212,0.071,279.317-0.034c8.277-0.01,16.602,0.629,24.849-0.746
		c24.986,0.012,49.974,0.094,74.96-0.048c3.374-0.02,4.151,0.998,4.048,4.18c-0.604,18.578-3.545,36.722-8.523,54.656
		c-8.553,30.81-22.579,58.837-42.171,83.969c-11.908,15.275-25.835,28.633-41.173,40.619c-14.2,11.097-29.595,20.104-45.603,28.075
		c-20.221,10.069-41.9,16.012-63.988,20.199c-7.865,1.491-15.952,2.588-24.066,2.403c-10,0.024-20.007,0.05-30.015,0.075
		c-21.998-0.926-43.262-5.718-64.182-12.265c-26.792-8.386-50.846-21.983-72.832-39.205c-20.378-15.963-37.644-34.982-51.743-56.666
		c-15.763-24.241-27.81-50.205-33.517-78.768c-2.825-14.139-5.075-28.357-5.263-42.848c-0.044-3.424,0.716-4.631,4.316-4.521
		c9.381,0.283,18.772,0.177,28.153,0.227c6.556,1.329,13.206,0.626,19.794,0.589C333.053,496.331,344.339,497.306,355.564,495.744z"
		/>
</g>
<path fill-rule="evenodd" clip-rule="evenodd" fill="#F3CE87" d="M673.604,495.722c-8.247,1.375-16.571,0.736-24.849,0.746
	c-93.105,0.105-186.211,0.096-279.317,0.034c-3.605-0.002-7.314,0.495-10.854-0.785c7.574-1.218,15.225,0.166,22.814-1.07
	c-6.045,0-12.091-0.013-18.136,0.007c-1.948,0.007-4.091-0.097-3.574-2.747c0.764-3.921-1.72-3.302-3.976-3.314
	c-14.617-0.085-29.233-0.167-43.851-0.313c-1.606-0.017-3.313,0.57-4.826-0.477c17.476-0.106,34.945-0.302,52.414-0.306
	c113.411-0.027,226.822-0.014,340.233,0.002c1.149,0,2.3,0.209,3.442,0.32c-11.031,1.296-22.115,0.282-33.156,0.865
	c-2.124,0.112-4.892-1.192-4.982,3.017c-0.043,2.031-2.198,3.012-4.522,2.944c-4.135-0.12-8.275-0.034-12.423,1.076
	C656.562,495.722,665.082,495.722,673.604,495.722z M503.199,495.276c0.06-0.136,0.119-0.271,0.179-0.407
	c-16.794,0-33.589,0-50.384,0c0.001,0.136,0.002,0.271,0.002,0.407C469.73,495.276,486.465,495.276,503.199,495.276z
	 M431.464,495.141c0.001-0.113,0.001-0.228,0.002-0.341c-8.901,0-17.803,0-26.704,0c-0.001,0.113-0.001,0.228-0.002,0.341
	C413.661,495.141,422.563,495.141,431.464,495.141z"/>
</svg>
