<svg version="1.1" id="Layer_1" xmlns="http://www.w3.org/2000/svg" xmlns:xlink="http://www.w3.org/1999/xlink" x="0px" y="0px"
	 width="1024.191px" height="1024.191px" viewBox="0 0 1024.191 1024.191" enable-background="new 0 0 1024.191 1024.191"
	 xml:space="preserve">
<g>
	<path fill="currentColor" d="M303.968,898.374c-21.249-0.001-42.497-0.002-63.74-0.003c-1.176-0.854-2.547-0.555-3.839-0.56
		c-13.413-0.033-26.83-0.227-40.238,0.026c-10.392,0.195-20.807-0.813-31.177,0.534c-11.818,0.06-23.641-0.04-35.453,0.271
		c-3.904,0.104-4.858-0.939-4.853-4.896c0.136-98.796,0.131-197.592,0.116-296.388c-0.015-90.796-0.099-181.593-0.102-272.389
		c-0.002-65.307,0.143-130.612,0-195.918c-0.011-5.132,1.139-7.327,6.396-6.275c0.642,0.128,1.329,0.029,1.987,0.035
		c1.667,1.138,3.554,0.545,5.324,0.547c51.33,0.054,102.659,0.071,153.988,0.072c105.826,0.001,211.652-0.007,317.479-0.05
		c1.768-0.001,3.661,0.615,5.316-0.591c2.627,0.004,5.255,0.009,7.875,0.014c0.813,0.819,1.86,0.544,2.827,0.545
		c56.996,0.041,113.992,0.073,170.988,0.088c1.125,0,2.354,0.316,3.313-0.642c1.617,0.002,3.235,0.003,4.847,0.005
		c9.045,1.191,18.1,0.99,27.153,0.02c3.956-0.006,7.911-0.011,11.859-0.017c6.71,0.903,13.429,1.021,20.146,0.019
		c7.415,1.448,14.927,0.189,22.38,0.8c3.722,0.304,7.479,0.202,11.17-0.569c-0.032,23.309-0.07,46.622-0.09,69.935
		c-0.056,72.145-0.137,144.288-0.146,216.433c-0.011,76.975,0.06,153.948,0.078,230.923c0.018,70.979-0.005,141.956,0.032,212.936
		c0.008,14.646,0.192,29.296,0.297,43.942c-0.205,0.253-0.434,0.482-0.68,0.687c-24.797-0.034-49.6-0.088-74.402-0.057
		c-2.282,0.003-4.649-0.53-6.871,0.509c-43.256,0.006-86.513,0.012-129.761,0.017c-10.933-1.172-21.907-0.35-32.863-0.511
		c-7.786-0.114-15.606-0.597-23.375,0.518c-55.579-0.003-111.159-0.006-166.731-0.009c-6.744-0.792-13.495-0.936-20.246,0.005
		c-14.253-0.003-28.507-0.006-42.754-0.008c-10.085-0.973-20.177-0.748-30.268,0.004c-11.24,0.006-22.48,0.012-33.714,0.018
		C325.487,897.438,314.728,897.563,303.968,898.374z M890.829,598.026c-0.003-3.61-0.006-7.223-0.009-10.832
		c0.939-1.361,0.521-2.913,0.521-4.367c0.026-62.152,0.023-124.305-0.007-186.457c0-1.454,0.441-3.005-0.51-4.365
		c0.002-45.258,0.004-90.515,0.006-135.772c1.086-9.409,0.865-18.817-0.009-28.226c-0.045-31.262-0.158-62.524-0.045-93.785
		c0.014-3.726-0.857-5.281-4.639-4.456c-15.031-0.491-30.063-0.354-45.097,0.033c-3.298-0.009-6.595-0.018-9.893-0.026
		c-18.022-0.464-36.047-0.545-54.068,0.024c-1.324-0.009-2.647-0.018-3.972-0.026c-1.649-0.106-3.299-0.305-4.947-0.305
		c-136.225-0.005-272.449-0.004-408.675,0.028c-16.806,0.004-33.609,0.186-50.414,0.284c-1.984,0.008-3.97,0.017-5.954,0.024
		c-0.816-0.103-1.633-0.296-2.449-0.295c-54.93,0.019-109.86,0.048-164.79,0.115c-1.244,0.001-2.687-0.552-3.72,0.722
		c-1.01,1.528-0.532,3.247-0.533,4.868c-0.032,91.308-0.048,182.615-0.032,273.923c0.016,90.623,0.099,181.247,0.096,271.871
		c-0.002,67.981-0.1,135.963-0.114,203.944c0,1.947-0.55,3.996,0.549,5.859c5.873,1.644,11.852,0.568,17.768,0.574
		c123.101,0.118,246.201,0.181,369.302,0.197c121.935,0.018,243.87-0.021,365.805-0.076c1.75-0.001,3.649,0.698,5.272-0.611
		c0.966-2.073,0.444-4.268,0.446-6.396c0.056-56.104,0.073-112.206,0.099-168.31c0.968-10.062,1.017-20.121,0.024-30.184
		c-0.006-2.276-0.012-4.555-0.019-6.832c0.861-1.007,0.533-2.226,0.535-3.354c0.038-24.649,0.059-49.298,0.05-73.946
		C891.412,600.584,891.759,599.195,890.829,598.026z"/>
	<path fill="currentColor" d="M307.042,487.803c-1.305-0.008-2.609-0.017-3.907-0.023c-11.029-0.586-22.065-0.251-33.102-0.021
		c-1.011-9.256,0.447-18.333,1.474-27.511c1.457-13.016,4.442-25.629,8.265-38.053c8.919-28.997,22.751-55.609,42.025-78.951
		c22.796-27.605,49.93-50.206,82.451-65.852c19.62-9.438,40.132-16.508,61.463-20.453c11.218-2.074,22.813-2.725,34.297-3.604
		c10.33-0.792,20.493-0.031,30.661,0.425c15.846,0.71,31.421,3.972,46.649,8.417c29.369,8.572,56.448,21.802,80.787,40.498
		c19.242,14.782,36.159,31.792,50.282,51.563c13.4,18.76,24.327,38.894,31.685,60.701c5.879,17.429,10.199,35.326,11.686,53.828
		c0.371,4.616,0.482,9.234,0.886,13.831c0.354,4.041-0.703,5.945-5.012,5.152c-0.799-0.146-1.659,0.04-2.482,0.072
		c-12.683-0.557-25.369-0.51-38.06-0.032c-1.324,0.011-2.647,0.021-3.965,0.03c-1.143-0.111-2.293-0.32-3.442-0.32
		c-113.411-0.016-226.821-0.029-340.232-0.002C341.98,487.501,324.511,487.696,307.042,487.803z"/>
	<path fill="currentColor" d="M355.564,495.744c1.007-0.01,2.013-0.02,3.019-0.027c3.54,1.28,7.249,0.783,10.854,0.785
		c93.105,0.063,186.212,0.071,279.316-0.034c8.277-0.01,16.603,0.629,24.85-0.746c24.985,0.013,49.974,0.095,74.96-0.048
		c3.374-0.02,4.15,0.998,4.048,4.18c-0.604,18.578-3.545,36.723-8.523,54.656c-8.553,30.811-22.579,58.837-42.171,83.969
		c-11.908,15.275-25.835,28.634-41.173,40.619c-14.2,11.098-29.595,20.104-45.604,28.075
		c-20.221,10.069-41.899,16.012-63.987,20.199c-7.865,1.491-15.952,2.588-24.066,2.403c-10,0.023-20.007,0.05-30.015,0.074
		c-21.998-0.926-43.263-5.718-64.183-12.265c-26.792-8.386-50.846-21.983-72.832-39.205c-20.378-15.963-37.644-34.982-51.742-56.666
		c-15.764-24.241-27.811-50.205-33.518-78.768c-2.825-14.14-5.075-28.357-5.263-42.849c-0.044-3.424,0.716-4.631,4.316-4.521
		c9.381,0.283,18.772,0.177,28.153,0.227c6.556,1.329,13.206,0.626,19.794,0.589C333.053,496.331,344.339,497.306,355.564,495.744z"
		/>
</g>
<path fill="#F3CE87" d="M673.604,495.722c-8.246,1.375-16.57,0.736-24.849,0.746c-93.104,0.105-186.211,0.097-279.316,0.034
	c-3.605-0.002-7.314,0.495-10.854-0.785c7.574-1.218,15.225,0.166,22.814-1.069c-6.046,0-12.092-0.014-18.137,0.007
	c-1.947,0.007-4.091-0.098-3.573-2.747c0.764-3.921-1.721-3.303-3.977-3.314c-14.617-0.085-29.233-0.167-43.851-0.313
	c-1.606-0.018-3.313,0.569-4.826-0.478c17.476-0.105,34.945-0.302,52.414-0.306c113.411-0.027,226.822-0.014,340.232,0.002
	c1.149,0,2.301,0.209,3.442,0.32c-11.031,1.296-22.115,0.281-33.156,0.864c-2.124,0.112-4.892-1.191-4.981,3.018
	c-0.043,2.031-2.198,3.012-4.522,2.943c-4.135-0.119-8.274-0.033-12.423,1.076C656.563,495.722,665.082,495.722,673.604,495.722z
	 M503.199,495.276c0.06-0.137,0.119-0.271,0.179-0.407c-16.794,0-33.589,0-50.384,0c0.001,0.136,0.002,0.271,0.002,0.407
	C469.73,495.276,486.465,495.276,503.199,495.276z M431.464,495.141c0.001-0.112,0.001-0.228,0.002-0.341c-8.9,0-17.803,0-26.704,0
	c-0.001,0.113-0.001,0.229-0.002,0.341C413.661,495.141,422.563,495.141,431.464,495.141z"/>
<path fill="currentColor" d="M124.342,690.246c-0.015-6.445-0.029-12.893-0.044-19.334c0.988-3.416,0.581-6.93,0.583-10.396
	c0.013-16.473-0.054-32.943-0.128-49.416c-0.067-14.957,0.528-29.92-0.437-44.865c-0.084-19.271-0.22-38.541-0.243-57.813
	c-0.04-33.403-0.041-66.806,0.001-100.209c0.028-22.099,0.158-44.196,0.243-66.289c0.116-1.142,0.332-2.287,0.334-3.434
	c0.056-31.458,0.145-62.916,0.105-94.374c-0.02-15.956-0.278-31.911-0.429-47.866c0.018-22.265,0.056-44.528,0.024-66.792
	c-0.003-2.521-0.185-4.472,3.486-4.212c14.248,1.008,28.547-0.556,42.764,0.275c13.485,0.789,26.938,0.438,40.401,0.515
	c28.754,0.165,57.517,0.408,86.261-0.141c11.631-0.223,23.268-0.507,34.899-0.473c14.229,0.041,28.459,0.597,42.688,0.592
	c15.465-0.005,30.938-0.835,46.39-0.491c14.131,0.313,28.268,0.882,42.389,0.51c56.105-1.48,112.216-0.463,168.323-0.64
	c49.92-0.157,99.841-0.042,149.762-0.056c36.254-0.01,72.508-0.05,108.762-0.041c9.512,0.003,8.7-1.146,8.7,8.403
	c-0.01,93.479-0.033,186.958-0.053,280.438c-0.012,57.806-0.046,115.611-0.032,173.417c0.017,62.955,0.118,125.91,0.103,188.865
	c-0.012,41.641-0.165,83.279-0.252,124.916c-1.163-0.031-2.329-0.088-3.494-0.088c-102.455-0.02-204.909-0.037-307.364-0.049
	c-122.444-0.016-244.889-0.033-367.333-0.029c-31.815,0-63.63,0.082-95.444,0.125c-0.141-0.193-0.327-0.322-0.555-0.383
	c0.034-0.828,0.091-1.658,0.091-2.488c-0.03-56.432-0.041-112.863-0.115-169.295C124.709,716.17,124.476,703.207,124.342,690.246z
	 M891.817,515.848c0.044-17.47,0.127-34.938,0.126-52.406c0-87.396-0.016-174.79-0.04-262.185
	c-0.006-22.297-0.068-44.595-0.105-66.892c-0.033-2.001-1.489-1.279-2.518-1.285c-15.812-0.099-31.62-0.267-47.432-0.253
	c-27.111,0.023-54.224,0.211-81.336,0.242c-39.923,0.047-79.846,0.056-119.77,0.007c-24.725-0.03-49.448-0.269-74.172-0.278
	c-19.95-0.009-39.9,0.259-59.852,0.267c-24.265,0.01-48.528-0.125-72.794-0.198c-1.309-0.139-2.616-0.398-3.925-0.399
	c-31.445-0.034-62.891-0.048-94.336-0.034c-1.478,0.001-2.953,0.278-4.43,0.427c-12.97,0.074-25.938,0.223-38.906,0.209
	c-51.293-0.056-102.586-0.093-153.877-0.357c-4.993-0.026-6.703,1.002-6.646,6.375c0.319,30.487,0.281,60.979,0.269,91.47
	c-0.045,106.465-0.158,212.93-0.19,319.395c-0.024,79.475,0.033,158.949,0.061,238.424c0.012,33.654,0.117,67.313-0.037,100.967
	c-0.018,4.025,1.183,4.934,4.985,4.855c14.821-0.293,29.647-0.268,44.472-0.359c27.316,0.059,54.632,0.156,81.948,0.16
	c20.818,0,41.636-0.121,62.454-0.188c0.875,0.004,1.751,0.008,2.626,0.012c1.491,0.078,2.981,0.221,4.474,0.223
	c44.158,0.02,88.315,0.049,132.475,0.018c26.485-0.02,52.971-0.141,79.456-0.217c6.211,0.338,12.421,0.428,18.63-0.033
	c8.317,0.084,16.634,0.246,24.951,0.234c29.132-0.043,58.263-0.146,87.396-0.229c1.872-0.012,3.743-0.021,5.616-0.031
	c1.824,0.084,3.648,0.24,5.474,0.24c44.328,0.008,88.655,0.006,132.983-0.012c22.498-0.008,44.997-0.127,67.493,0.016
	c3.71,0.021,5.088-0.947,4.755-4.74c-0.35-3.973-0.232-7.99-0.232-11.99c-0.001-73.15,0.016-146.305,0.017-219.457
	c0.001-23.488-0.031-46.979-0.048-70.471c-0.234-1.604-0.67-3.207-0.674-4.811c-0.057-20.633-0.066-41.266-0.029-61.896
	C891.13,519.059,891.577,517.453,891.817,515.848z"/>
</svg>
