<svg version="1.1" id="Layer_1" xmlns="http://www.w3.org/2000/svg" xmlns:xlink="http://www.w3.org/1999/xlink" x="0px" y="0px"
	 width="1024.191px" height="1024.191px" viewBox="0 0 1024.191 1024.191" enable-background="new 0 0 1024.191 1024.191"
	 xml:space="preserve">
<path fill="currentColor" d="M125.342,689.246c-0.015-6.445-0.029-12.894-0.044-19.334c0.988-3.416,0.581-6.93,0.583-10.396
	c0.013-16.473-0.054-32.942-0.128-49.416c-0.067-14.957,0.528-29.92-0.437-44.864c-0.084-19.271-0.22-38.541-0.243-57.813
	c-0.04-33.403-0.041-66.806,0.001-100.209c0.028-22.099,0.158-44.196,0.243-66.289c0.116-1.142,0.332-2.287,0.334-3.434
	c0.056-31.458,0.145-62.916,0.105-94.374c-0.02-15.956-0.278-31.911-0.429-47.866c0.018-22.265,0.056-44.528,0.024-66.792
	c-0.003-2.521-0.185-4.472,3.486-4.212c14.248,1.008,28.547-0.556,42.764,0.275c13.485,0.789,26.938,0.438,40.401,0.515
	c28.754,0.165,57.517,0.408,86.261-0.141c11.631-0.223,23.269-0.507,34.899-0.473c14.229,0.041,28.459,0.597,42.688,0.592
	c15.466-0.005,30.938-0.835,46.391-0.491c14.131,0.313,28.268,0.882,42.389,0.51c56.105-1.48,112.216-0.463,168.323-0.64
	c49.92-0.157,99.841-0.042,149.762-0.056c36.254-0.01,72.508-0.05,108.762-0.041c9.513,0.003,8.7-1.146,8.7,8.403
	c-0.01,93.479-0.033,186.958-0.053,280.438c-0.012,57.806-0.046,115.61-0.032,173.417c0.018,62.955,0.118,125.91,0.104,188.865
	c-0.013,41.641-0.165,83.279-0.252,124.916c-1.163-0.031-2.329-0.088-3.494-0.088c-102.455-0.021-204.909-0.037-307.364-0.049
	c-122.444-0.017-244.889-0.033-367.333-0.029c-31.815,0-63.63,0.082-95.444,0.125c-0.141-0.193-0.327-0.322-0.555-0.383
	c0.034-0.828,0.091-1.658,0.091-2.488c-0.03-56.432-0.041-112.862-0.115-169.295C125.709,715.169,125.476,702.207,125.342,689.246z
	 M892.817,514.847c0.044-17.469,0.127-34.937,0.126-52.405c0-87.396-0.017-174.791-0.04-262.186
	c-0.006-22.297-0.068-44.595-0.105-66.892c-0.033-2.001-1.489-1.279-2.518-1.285c-15.813-0.099-31.62-0.267-47.433-0.253
	c-27.11,0.023-54.224,0.211-81.336,0.242c-39.923,0.047-79.846,0.056-119.77,0.007c-24.726-0.03-49.448-0.269-74.172-0.278
	c-19.95-0.009-39.9,0.259-59.853,0.267c-24.265,0.01-48.527-0.125-72.794-0.198c-1.309-0.139-2.616-0.398-3.925-0.399
	c-31.445-0.034-62.891-0.048-94.336-0.034c-1.479,0.001-2.953,0.278-4.43,0.427c-12.971,0.074-25.938,0.223-38.906,0.209
	c-51.293-0.056-102.586-0.093-153.877-0.357c-4.993-0.026-6.703,1.002-6.646,6.375c0.319,30.487,0.281,60.979,0.269,91.47
	c-0.045,106.465-0.158,212.93-0.19,319.395c-0.024,79.475,0.033,158.949,0.061,238.424c0.012,33.654,0.117,67.313-0.037,100.967
	c-0.018,4.025,1.183,4.935,4.985,4.855c14.821-0.293,29.647-0.269,44.472-0.359c27.316,0.059,54.632,0.156,81.948,0.16
	c20.818,0,41.636-0.121,62.454-0.188c0.875,0.005,1.751,0.009,2.626,0.013c1.491,0.078,2.981,0.221,4.475,0.223
	c44.158,0.021,88.314,0.049,132.475,0.018c26.485-0.02,52.972-0.141,79.456-0.217c6.211,0.338,12.421,0.429,18.63-0.033
	c8.317,0.084,16.634,0.246,24.951,0.234c29.132-0.043,58.263-0.146,87.396-0.229c1.872-0.013,3.742-0.021,5.615-0.031
	c1.824,0.084,3.648,0.24,5.475,0.24c44.328,0.008,88.655,0.006,132.982-0.013c22.498-0.008,44.997-0.127,67.493,0.017
	c3.71,0.021,5.088-0.947,4.755-4.74c-0.35-3.973-0.231-7.99-0.231-11.99c-0.001-73.149,0.016-146.305,0.017-219.457
	c0.001-23.487-0.031-46.979-0.048-70.471c-0.234-1.604-0.67-3.207-0.674-4.811c-0.057-20.634-0.066-41.267-0.029-61.896
	C892.13,518.058,892.577,516.453,892.817,514.847z"/>
<path fill="#D9A75A" d="M1110.987,180.737c22.892,22.689,36.67,73.146,31.732,114.922c8.246-4.739,15.062-20.366,18.529-43.372
	c11.403,24.939,14.56,49.604,8.03,75.094c-7.067,27.589-25.417,45.637-51.201,58.133c1.166-10.22,0.911-19.711-1.784-28.955
	c-2.699-9.258-7.494-17.771-9.67-27.502c-5.365,10.699-15.349,22.241-12.043,56.39c-23.331-14.654-38.749-33.611-36.963-62.73
	c0.655-10.67,4.483-20.438,8.972-29.946c8.128-17.222,19.217-32.7,29.128-48.871c9.744-15.897,16.349-32.711,15.688-51.757
	C1111.28,188.544,1110.188,184.985,1110.987,180.737z"/>
<g>
	<path fill-rule="evenodd" clip-rule="evenodd" fill="currentColor" d="M895.098,892.6c-18.15,0.087-36.301,0.25-54.451,0.249
		c-83.883-0.001-167.767-0.068-251.648-0.074c-110.893-0.008-221.786,0.02-332.678,0.033c-39.765,0.004-79.531,0.017-119.296,0.016
		c-6.391-0.001-6.391-0.029-6.286-6.377c0.818-2.171,0.494-4.441,0.496-6.667c0.025-41.524,0.018-123.439,0.017-164.964
		c17.926-1.483,35.842-3.109,53.781-4.4c12.628-0.908,25.292-1.29,37.934-2.038c12.774-0.756,25.53-1.843,38.31-2.462
		c8.64-0.42,17.297-0.775,25.936-0.988c11.65-0.286,23.335-0.605,34.931-1.285c19.656-1.148,39.341-1.259,58.985-2.441
		c2.389-0.144,4.789-0.131,7.18-0.191c6.503,0.461,12.994,0.316,19.467-0.512c2.908,0.081,5.691,0.271,6.142-3.878
		c0.778-7.155,5.077-13.266,6.132-20.44c1.13-7.69,3.716-15.07,4.36-22.961c0.451-5.52,3.106-10.857,4.772-16.278
		c0.474-1.539,0.693-3.085-0.053-5.186c-7.758,10.302-14.161,21.21-23.322,29.901c2.52-13.48,6.99-26.279,10.188-39.404
		c3.282-13.47,6.332-27.014,8.875-40.639c2.161-11.576,9.372-19.677,17.188-27.508c5.568-5.579,11.011-11.228,14.58-18.354
		c0.366-0.73,1.722-1.81,0.422-2.714c-0.891-0.621-1.917-0.178-2.741,0.707c-1.427,1.531-3.026,2.898-4.471,4.413
		c-3.556,3.728-8.124,4.144-12.771,3.603c-3.038-0.354-5.402-6.935-3.661-11.201c1.395-3.415,0.908-6.335,0.054-9.649
		c-1.381-5.358,0.517-10.624,1.804-15.686c5.249-20.653,14.447-39.607,25.761-57.593c3.686-5.86,8.203-10.562,14.832-13.185
		c4.248-1.681,7.499-8.029,7.059-11.162c-0.376-2.681-1.736-3.135-3.872-3.141c-0.297-0.001-0.601-0.122-0.89-0.085
		c-2.935,0.375-6.556-0.548-6.716-3.005c-0.188-2.879,1.705-6.513,5.369-7.301c3.432-0.739,4.15-2.399,4.171-5.744
		c0.033-5.338,3.775-7.742,9.102-7.24c4.194,0.396,8.467,0.347,12.677,0.073c3.964-0.258,6.906,3.042,4.718,6.673
		c-3.096,5.139-1.122,10.42-2.024,15.301c-0.939,5.074,0.034,13.378-9.325,13.826c0.875,2.225,2.193,3.53,2.948,5.146
		c6.887,14.724,7.676,31.337,14.555,46.013c0.184,0.392,0.559,0.694,0.565,0.702c11.039-3.498,10.7-13.507,12.651-22.127
		c3.382-14.935,6.823-29.865,9.703-44.9c4.059-21.169,9.487-42.038,13.623-63.174c5.26-26.879,11.18-53.607,17.185-80.321
		c0.42-1.866-1.269-4.908,2.628-5.041c2.07-0.07,3.222,0.115,2.893,2.887c-0.892,7.491-2.725,14.806-4.009,22.215
		c-3.421,19.737-7.537,39.354-11.366,59.022c-3.264,16.771-6.83,33.492-9.688,50.332c-3.231,19.043-7.318,37.908-11.051,56.846
		c-2.218,11.249-4.965,22.407-6.809,33.713c-1.962,12.042-5.67,23.73-7.069,35.894c10.543-3.61,21.031-5.379,31.692-1.058
		c2.778,1.127,3.147-1.572,4.323-2.698c1.106-1.061,1.529-3.379,3.385-2.922c1.605,0.395,2.066,2.437,2.276,4.07
		c2.224,17.335,5.43,34.553,5.613,52.129c0.038,3.659,0.893,7.35,0.828,11.095c-0.032,1.898-0.616,2.511-2.518,2.795
		c-8.372,1.25-10.219,0.511-13.537-6.931c-2.589-5.806-6.901-10.42-10.169-15.67c-3.403-5.466-5.438-3.27-8.802-0.73
		c-5.135,3.875-8.17,9.13-11.031,14.673c-1.72,3.329,0.328,6.336,0.179,9.539c-0.286,6.132-1.308,11.764-5.399,16.579
		c-0.826,0.974-1.45,2.284-1.723,3.535c-3.082,14.188-9.573,27.226-13.74,41.028c-1.986,6.579-2.799,13.501-4.422,20.2
		c-1.478,6.104-1.812,12.258-1.966,18.494c-0.083,3.386,0.657,4.595,4.35,4.574c21.451-0.118,42.902,0.047,64.352,0.117
		c11.567,0.824,23.155,0.824,34.746,0.57c5.518,0.11,11.036,0.221,16.55,0.332c5.872,0.905,11.782,0.732,17.691,0.581
		c11.646,0.384,23.293,0.731,34.937,1.161c15.206,0.562,30.414,1.099,45.614,1.81c17.265,0.806,34.521,1.779,51.778,2.706
		c15.603,0.837,31.212,1.558,46.801,2.61c14.666,0.99,29.291,2.646,43.966,3.449c11.424,0.626,22.767,2.126,34.185,2.614
		c2.735,0.117,2.286,1.623,2.286,3.221c-0.007,15.129-0.048,30.257-0.016,45.387c0.031,14.535,0.138,29.069,0.211,43.601
		C895.256,821.874,895.176,877.432,895.098,892.6z M804.922,718.495c-189.901-7.668-379.799-6.951-569.697-0.179
		c23.692,0.601,47.387,0.376,71.077,0.653c35.996,0.421,71.985,1.387,107.981,1.757c40.625,0.418,81.254,0.666,121.881,0.553
		c34.47-0.097,68.946,0.083,103.412-0.864c17.821-0.49,35.652-0.62,53.48-0.918c19.771-0.331,39.543-0.782,59.316-0.967
		C769.889,718.366,787.406,718.495,804.922,718.495z M496.224,629.921c-0.341-9.664-0.342-9.592-7.978-9.747
		c-2.042-0.041-3.105,0.257-3.954,2.466c-1.639,4.28-3.783,8.363-6.584,12.086c-3.9,5.184-7.267,10.701-9.095,17.008
		c-1.144,3.95-2.741,7.724-4.217,11.554c-4.042,10.493-5.592,21.437-5.185,32.671c0.073,2.031,0.5,3.833,2.967,3.387
		c7.137-1.293,14.329-0.577,21.492-0.777c1.827-0.053,2.978-0.85,3.299-2.267c1.546-6.809,4.166-13.312,4.911-20.375
		c0.697-6.615,0.672-13.429,1.94-19.792C495.701,646.707,494.571,637.226,496.224,629.921z M458.748,622.254
		c-5.191,6.53-9.415,12.753-13.86,18.771c-8.347,11.302-14.402,23.938-17.958,37.622c-1.43,5.499-2.665,11.066-3.617,16.667
		c-0.346,2.028-1.149,5.668,2.944,4.816c4.787-0.993,9.538-0.2,14.285-0.624c2.38-0.213,4.919,0.285,7.141-0.371
		c3.586-1.062,0.792-4.521,1.9-6.634c0.068-0.13,0.187-0.239,0.23-0.376c3.845-11.823,5.93-23.922,5.796-36.386
		c-0.046-4.274,0.11-8.725,2.061-12.489C461.135,636.563,460.9,629.949,458.748,622.254z M500.116,488.606
		c-1.454,4.756-1.221,9.475-3.536,13.535c-0.577,1.014-0.33,1.926,0.136,2.953c1.775,3.916,3.776,7.661,6.532,11.013
		c3.719,4.521,7.813,8.816,9.632,14.813c0.52-0.691,1.08-1.113,1.187-1.627c1.622-7.889,3.268-15.775,4.688-23.7
		c0.27-1.508,1.024-4.228-2.756-2.768c-2.064,0.797-4.066-0.844-5.874-2.359C506.156,497.139,503.76,492.48,500.116,488.606z"/>
	<path fill-rule="evenodd" clip-rule="evenodd" fill="#D9A75A" d="M587.194,248.732c0.027,7.693-5.4,12.952-13.072,13.212
		c-9.426,0.321-13.646-6.975-13.869-13.123c-0.253-6.946,5.604-13.728,13.512-13.327
		C581.919,235.909,587.164,240.683,587.194,248.732z"/>
	<path fill-rule="evenodd" clip-rule="evenodd" fill="#D5B88B" d="M131.251,714.815c0.001,41.524,0.009,123.439-0.017,164.964
		c-0.001,2.226,0.322,4.496-0.496,6.667c-0.083-17.649-0.216-75.687-0.238-93.334c-0.032-24.539,0.004-49.078,0.068-73.617
		C130.573,717.938,129.874,716.201,131.251,714.815z"/>
	<path fill-rule="evenodd" clip-rule="evenodd" fill="#D5B88B" d="M895.098,892.6c0.078-15.168,0.158-70.726,0.237-85.892
		c1.169,5.483,0.426,51.422,0.529,56.935c0.16,8.55,0.054,17.104,0.014,25.657C895.873,890.431,896.359,891.742,895.098,892.6z"/>
	<path fill-rule="evenodd" clip-rule="evenodd" fill="#D5B88B" d="M601.332,699.236c-11.591,0.254-23.179,0.254-34.746-0.57
		C578.177,698.394,589.768,697.979,601.332,699.236z"/>
	<path fill-rule="evenodd" clip-rule="evenodd" fill="#D5B88B" d="M407.775,700.497c-6.473,0.828-12.964,0.973-19.467,0.512
		C394.777,699.984,401.275,700.193,407.775,700.497z"/>
	<path fill-rule="evenodd" clip-rule="evenodd" fill="#D5B88B" d="M635.573,700.149c-5.909,0.151-11.819,0.324-17.691-0.581
		C623.795,699.362,629.715,698.813,635.573,700.149z"/>
	<path fill-rule="evenodd" clip-rule="evenodd" fill="#D9A75A" d="M804.922,718.495c-17.516,0-35.033-0.129-52.549,0.035
		c-19.773,0.185-39.545,0.636-59.316,0.967c-17.828,0.298-35.659,0.428-53.48,0.918c-34.466,0.947-68.942,0.768-103.412,0.864
		c-40.626,0.113-81.256-0.135-121.881-0.553c-35.996-0.37-71.986-1.336-107.981-1.757c-23.689-0.277-47.384-0.053-71.077-0.653
		C425.123,711.544,615.021,710.827,804.922,718.495z"/>
</g>
</svg>
