<svg version="1.1" id="Layer_1" xmlns="http://www.w3.org/2000/svg" xmlns:xlink="http://www.w3.org/1999/xlink" x="0px" y="0px"
	 width="1024.191px" height="1024.19px" viewBox="0 0 1024.191 1024.19" enable-background="new 0 0 1024.191 1024.19"
	 xml:space="preserve">
<path fill-rule="evenodd" clip-rule="evenodd" fill="#333C5D" d="M126.206,225.346c-0.042-13.746-0.127-27.492-0.114-41.238
	c0.018-18.918,0.155-37.837,0.113-56.755c-0.005-2.303,0.987-3.036,2.894-2.972c3.964,0.133,7.943-0.405,11.897,0.384
	c2.429,0.485,4.903,0.71,7.319-0.171c31.807,0.086,63.617,0.239,95.427,0.239c120.585,0.001,241.17-0.031,361.756-0.126
	c5.779-0.005,11.605,0.675,17.357-0.535c4.092,1.433,8.246,1.164,12.414,0.465c13.626,0.054,27.256,0.155,40.886,0.146
	c31.247-0.022,62.495-0.1,93.742-0.154c0.806,0.149,1.613,0.441,2.416,0.427c21.455-0.397,42.926-0.276,64.371-0.32
	c19.936-0.042,39.911,0.017,59.865,0.305c3.158,0.046,3.418,1.386,3.407,3.9c-0.055,13.164,0.043,26.328,0.046,39.492
	c0.015,87.647,0.025,175.295,0.024,262.942c-0.002,154.135-0.035,308.27,0.072,462.404c0.004,4.718-1.144,6.23-6.062,6.224
	c-105.781-0.164-211.563-0.176-317.346-0.183c-148.123-0.011-296.246,0.007-444.37,0.013c-6.228,0-6.244,0.003-6.236-6.521
	c0.089-70.462,0.25-140.925,0.257-211.387c0.005-56.592-0.217-113.184-0.253-169.775c-0.016-25.288,0.245-50.576,0.26-75.864
	c0.016-26.816-0.109-53.633-0.174-80.446c0.175-1.121,0.504-2.244,0.505-3.368c0.049-41.255,0.072-82.509,0.066-123.764
	C126.748,227.586,126.395,226.466,126.206,225.346z M892.808,131.894c-0.718-1.019-1.79-0.661-2.737-0.661
	c-95.954,0.011-191.908,0.006-287.862,0.113c-6.278,0.007-12.614-0.665-18.861,0.645c-1.167,0.003-2.334,0.006-3.501,0.01
	c-3.389-1.169-6.907-0.68-10.36-0.686c-20.985-0.036-41.971,0.066-62.956,0.06c-122.747-0.04-245.495-0.1-368.243-0.123
	c-1.602,0-3.342-0.513-4.794,0.698c-0.944,2.251-0.461,4.615-0.461,6.919C133,238.685,133,338.501,132.999,438.317
	c-0.003,149.477,0.02,298.953-0.122,448.429c-0.005,5.086,1.172,6.547,6.426,6.539c109.649-0.168,219.299-0.147,328.949-0.137
	c138.979,0.014,277.958,0.05,416.937,0.081c7.943,0.001,7.924,0.019,7.923-8.157c-0.023-188.193-0.041-376.387-0.065-564.58
	c-0.006-48.992-0.04-97.984-0.031-146.977c0.001-3.81-1.533-7.477-0.886-11.337C893.814,152.119,892.937,141.997,892.808,131.894z"
	/>
<path fill-rule="evenodd" clip-rule="evenodd" fill="#E9D094" d="M622.856,124.172c-5.752,1.21-11.578,0.53-17.357,0.535
	c-120.586,0.095-241.171,0.127-361.756,0.126c-31.811,0-63.621-0.153-95.427-0.239c1.335-1.048,2.893-0.573,4.344-0.573
	c155.404-0.021,310.807-0.02,466.21-0.011C620.199,124.01,621.527,124.116,622.856,124.172z"/>
<path fill-rule="evenodd" clip-rule="evenodd" fill="#E9D094" d="M769.898,124.628c-31.247,0.055-62.495,0.132-93.742,0.154
	c-13.63,0.01-27.26-0.092-40.886-0.146c1.142-1.034,2.538-0.614,3.825-0.614c42.487-0.001,84.976,0.02,127.463,0.053
	C767.688,124.076,768.907,123.717,769.898,124.628z"/>
<path fill-rule="evenodd" clip-rule="evenodd" fill="#E9D094" d="M126.206,225.346c0.188,1.12,0.542,2.24,0.542,3.361
	c0.006,41.255-0.017,82.509-0.066,123.764c-0.001,1.124-0.33,2.247-0.505,3.368C126.188,312.339,126.197,268.843,126.206,225.346z"
	/>
<path fill-rule="evenodd" clip-rule="evenodd" fill="none" d="M579.846,132c1.167-0.004,2.334-0.007,3.497-0.009
	c1.327,0.047,2.657,0.134,3.987,0.134c62.83-0.015,125.661-0.021,188.491-0.064c38.995-0.026,77.991-0.109,116.986-0.167
	c0.129,10.104,1.006,20.226-0.68,30.285c-0.647,3.86,0.887,7.527,0.886,11.337c-0.009,48.992,0.025,97.984,0.031,146.977
	c0.024,188.193,0.042,376.387,0.065,564.58c0.001,8.176,0.021,8.158-7.923,8.157c-138.979-0.031-277.958-0.067-416.937-0.081
	c-109.65-0.011-219.3-0.031-328.949,0.137c-5.253,0.008-6.431-1.453-6.426-6.539c0.142-149.476,0.119-298.952,0.122-448.429
	C133,338.501,133,238.685,133.032,138.868c0-2.304-0.483-4.668,0.458-6.916c0.827,0.04,1.657,0.11,2.487,0.111
	c102.305,0.014,204.61,0.033,306.916,0.026C488.544,132.087,534.196,132.031,579.846,132z M751.36,647.824
	c1.132-1.676,0.576-3.564,0.578-5.345c0.072-61.775,0.128-123.55,0.133-185.325c0.002-23.969-0.125-47.938-0.192-71.906
	c0.097-17.32,0.294-34.642,0.19-51.961c-0.017-2.945,1.233-3.649,3.559-4.157c7.399-1.617,14.81-3.203,22.145-5.078
	c2.208-0.564,6.317-0.37,5.98-3.004c-0.421-3.289-4.372-1.957-6.797-1.846c-23.191,1.067-45.866,5.719-68.52,10.339
	c-40.881,8.336-80.971,19.719-120.836,31.924c-36.85,11.28-73.733,22.452-110.532,33.893c-30.623,9.521-60.984,19.836-91.002,31.139
	c-2.044-0.899-0.08-3.519-1.933-4.5c-0.098-7.802-0.682-9.096-7.538-10.391c-6.353-1.199-12.91-1.219-19.171,0.844
	c-2.201,0.725-5.12,1.823-5.03,4.675c0.154,4.93-1.038,9.819,0.429,14.831c1.731,5.913,0.687,7.104-5.215,9.319
	c-16.197,6.08-32.464,11.988-48.537,18.384c-26.791,10.659-53.455,21.639-80.167,32.496c-9.237,3.754-11.926,7.9-9.565,17.578
	c1.864,7.644,7.516,12.247,15.115,9.507c25.739-9.282,49.646-22.677,74.763-33.373c17.743-7.555,35.215-15.751,52.728-23.835
	c3.164-1.46,3.195-0.184,3.181,2.309c-0.026,4.476-0.876,8.914-0.927,13.333c-0.289,25.105,0.05,50.203-0.926,75.319
	c-0.759,19.532-1.316,39.081-1.976,58.621c-0.571,16.958-1.948,33.773-3.959,50.59c-0.381,3.188-1.57,3.831-4.316,3.937
	c-4.794,0.185-9.594,0.515-14.362,1.046c-17.078,1.905-34.129,4.066-51.219,5.857c-21.04,2.204-42.125,3.988-63.149,6.321
	c-3.645,0.404-7.49,0.354-11.061,1.611c10.892-0.808,21.762,0.484,32.663-0.699c12.846-1.394,25.831,0.031,38.795-0.979
	c19.875-1.547,39.847-0.228,59.802-0.922c35.179-1.224,70.414-0.714,105.624-1.001c55.771-0.455,111.553-0.962,167.329,0.626
	c32.085,0.914,64.187-0.696,96.311,0.857c24.544,1.187,49.19,0,73.777,1.188c4.812,0.232,9.651,0.003,14.474-0.154
	c14.987-0.488,29.921,2.026,45.253,0.852c-11.112-2.945-22.198-4.003-33.174-5.691c-1.105-0.17-2.183-0.374-1.815-1.679
	c1.657-5.899-0.255-12.085,1.177-17.835c1.157-4.647-0.741-4.466-4.077-4.511c-15.129-0.201-30.255-0.602-45.383-0.925
	C752.463,650.071,750.782,650.26,751.36,647.824z"/>
<path fill-rule="evenodd" clip-rule="evenodd" fill="#E9D094" d="M579.846,132c-45.65,0.031-91.302,0.087-136.953,0.09
	c-102.306,0.007-204.61-0.013-306.916-0.026c-0.83-0.001-1.66-0.071-2.487-0.111c1.455-1.214,3.195-0.701,4.797-0.701
	c122.748,0.023,245.496,0.083,368.243,0.123c20.985,0.007,41.971-0.096,62.956-0.06C572.939,131.32,576.458,130.831,579.846,132z"/>
<path fill-rule="evenodd" clip-rule="evenodd" fill="#E9D094" d="M892.808,131.894c-38.995,0.058-77.991,0.141-116.986,0.167
	c-62.83,0.043-125.661,0.05-188.491,0.064c-1.33,0-2.66-0.087-3.987-0.134c6.251-1.311,12.587-0.639,18.865-0.646
	c95.954-0.107,191.908-0.103,287.862-0.113C891.018,131.232,892.09,130.875,892.808,131.894z"/>
<path fill-rule="evenodd" clip-rule="evenodd" fill="#333C5D" d="M386.065,426.496c30.019-11.303,60.38-21.618,91.003-31.139
	c36.799-11.44,73.683-22.612,110.532-33.893c39.865-12.205,79.955-23.588,120.836-31.924c22.653-4.62,45.328-9.271,68.52-10.339
	c2.425-0.111,6.376-1.443,6.797,1.846c0.337,2.634-3.772,2.439-5.98,3.004c-7.335,1.875-14.745,3.461-22.145,5.078
	c-2.325,0.508-3.575,1.212-3.559,4.157c0.104,17.319-0.094,34.641-0.19,51.956c-1.037,13.776-0.427,27.58-0.473,41.371
	c-0.168,50.604-0.197,101.209-0.222,151.814c-0.011,23.132,0.113,46.264,0.176,69.396c-0.578,2.436,1.104,2.247,2.625,2.279
	c15.128,0.323,30.254,0.724,45.383,0.925c3.336,0.045,5.234-0.137,4.077,4.511c-1.432,5.75,0.48,11.936-1.177,17.835
	c-0.367,1.305,0.71,1.509,1.815,1.679c10.976,1.688,22.062,2.746,33.174,5.691c-15.332,1.175-30.266-1.34-45.253-0.852
	c-4.822,0.157-9.662,0.387-14.474,0.154c-24.587-1.188-49.233-0.002-73.777-1.188c-32.124-1.554-64.226,0.057-96.311-0.857
	c-55.776-1.588-111.558-1.081-167.329-0.626c-35.21,0.287-70.445-0.223-105.624,1.001c-19.955,0.694-39.927-0.625-59.802,0.922
	c-12.964,1.01-25.949-0.415-38.795,0.979c-10.901,1.184-21.771-0.108-32.663,0.699c3.57-1.257,7.416-1.207,11.061-1.611
	c21.024-2.333,42.109-4.117,63.149-6.321c17.09-1.791,34.141-3.952,51.219-5.857c4.769-0.531,9.568-0.861,14.362-1.046
	c2.746-0.105,3.936-0.748,4.316-3.937c2.011-16.816,3.388-33.632,3.959-50.59c0.659-19.54,1.217-39.089,1.976-58.621
	c0.976-25.116,0.637-50.214,0.926-75.319c0.051-4.419,0.9-8.857,0.927-13.333c0.015-2.492-0.017-3.769-3.181-2.309
	c-17.513,8.084-34.984,16.28-52.728,23.835c-25.117,10.696-49.024,24.091-74.763,33.373c-7.599,2.74-13.251-1.863-15.115-9.507
	c-2.36-9.678,0.328-13.824,9.565-17.578c26.712-10.857,53.376-21.837,80.167-32.496c16.073-6.396,32.34-12.304,48.537-18.384
	c5.901-2.215,6.946-3.406,5.215-9.319c-1.467-5.012-0.274-9.901-0.429-14.831c-0.09-2.852,2.829-3.95,5.03-4.675
	c6.261-2.063,12.818-2.043,19.171-0.844c6.856,1.295,7.44,2.589,7.538,10.391c-0.249,2.563-1.803,3.379-4.153,3.048
	c-3.7-0.521-5.484,1.633-6.646,4.691c-2.102,5.533-2.823,11.274-2.197,17.125c0.994,9.301,4.674,12.518,13.542,12.158
	c1.391,20.922-1.595,41.822,0.07,62.79c1.262,15.892-0.034,31.908,1.307,47.859c0.845,10.04,1.137,20.129,1.898,30.19
	c1.51,19.923,3.378,39.793,6.053,59.6c0.424,3.137,1.203,3.765,4.073,3.662c15.621-0.561,31.258-0.293,46.887-0.544
	c38.282-0.614,76.578-0.989,114.88,0.376c23.93,0.853,47.914-0.1,71.859,1.129c6.316,0.323,12.702-0.212,18.963,0.484
	c3.047,0.339,5.79,0.209,8.664-0.448c1.054-0.241,1.674-0.232,1.418-1.775c-0.819-4.934-1.34-9.917-1.987-14.964
	c3.926-0.503,7.863,0.667,11.774,0.604c17.479-0.275,34.918,1.114,52.378,1.053c7.776-0.027,15.582,1.165,23.344-0.262
	c0.86-1.006,0.517-2.223,0.52-3.347c0.093-37.897,0.191-75.796,0.226-113.693c0.014-15.118-0.119-30.236-0.186-45.354
	c0.811-3.513-0.822-6.821-0.795-10.32c0.1-12.614,1.171-25.186,1.087-37.817c-0.229-34.276-0.12-68.556,0.037-102.833
	c0.019-3.966-0.672-4.869-4.666-3.606c-4.847,1.532-9.975,2.158-14.964,3.253c-42.407,9.297-84.216,20.842-125.516,34.156
	c-29.574,9.534-58.811,20.079-88.068,30.567c-26.949,9.661-54.358,18.052-81.129,28.26c-14.616,5.573-29.182,11.281-43.77,16.929
	C388.391,438.754,387.939,432.511,386.065,426.496z"/>
<path fill-rule="evenodd" clip-rule="evenodd" fill="#735724" d="M384.678,459.019c-8.868,0.359-12.548-2.857-13.542-12.158
	c-0.626-5.851,0.096-11.592,2.197-17.125c1.162-3.059,2.946-5.212,6.646-4.691c2.351,0.331,3.904-0.485,4.153-3.048
	c1.853,0.981-0.111,3.601,1.933,4.5c1.873,6.015,2.325,12.258,2.97,18.471C385.809,449.101,386.838,454.554,384.678,459.019z"/>
<path fill-rule="evenodd" clip-rule="evenodd" fill="#E9D094" d="M751.36,647.824c-0.063-23.132-0.187-46.264-0.176-69.396
	c0.024-50.605,0.054-101.21,0.222-151.814c0.046-13.791-0.564-27.595,0.473-41.371c0.067,23.974,0.194,47.942,0.192,71.911
	c-0.005,61.775-0.061,123.55-0.133,185.325C751.936,644.26,752.492,646.148,751.36,647.824z"/>
<path fill-rule="evenodd" clip-rule="evenodd" fill="none" d="M384.678,459.019c2.16-4.465,1.131-9.918,4.357-14.052
	c14.588-5.647,29.153-11.355,43.77-16.929c26.771-10.208,54.18-18.599,81.129-28.26c29.258-10.488,58.494-21.033,88.068-30.567
	c41.3-13.314,83.108-24.859,125.516-34.156c4.989-1.095,10.117-1.721,14.964-3.253c3.994-1.263,4.685-0.359,4.666,3.606
	c-0.157,34.277-0.267,68.557-0.037,102.833c0.084,12.632-0.987,25.203-1.087,37.817c-0.027,3.499,1.605,6.808,0.795,10.316
	c-1.075,1.501-0.566,3.221-0.57,4.834c-0.056,24.27-0.088,48.538-0.081,72.807c0.008,28.253,0.06,56.506,0.092,84.758
	c-7.762,1.427-15.567,0.234-23.344,0.262c-17.46,0.062-34.898-1.328-52.378-1.053c-3.911,0.063-7.849-1.107-11.774-0.604
	c0.647,5.047,1.168,10.03,1.987,14.964c0.256,1.543-0.364,1.534-1.418,1.775c-2.874,0.657-5.617,0.787-8.664,0.448
	c-6.261-0.696-12.646-0.161-18.963-0.484c-23.945-1.229-47.93-0.276-71.859-1.129c-38.302-1.365-76.598-0.99-114.88-0.376
	c-15.629,0.251-31.266-0.017-46.887,0.544c-2.87,0.103-3.649-0.525-4.073-3.662c-2.675-19.807-4.543-39.677-6.053-59.6
	c-0.762-10.062-1.054-20.15-1.898-30.19c-1.341-15.951-0.045-31.968-1.307-47.859C383.083,500.841,386.069,479.94,384.678,459.019z"
	/>
<path fill-rule="evenodd" clip-rule="evenodd" fill="#E9D094" d="M746.259,648.773c-0.032-28.252-0.084-56.505-0.092-84.758
	c-0.007-24.269,0.025-48.537,0.081-72.807c0.004-1.613-0.505-3.333,0.57-4.834c0.066,15.122,0.199,30.24,0.186,45.358
	c-0.034,37.897-0.133,75.796-0.226,113.693C746.776,646.551,747.12,647.768,746.259,648.773z"/>
</svg>
