<svg version="1.1" id="Layer_1" xmlns="http://www.w3.org/2000/svg" xmlns:xlink="http://www.w3.org/1999/xlink" x="0px" y="0px"
	 width="1024.191px" height="1024.191px" viewBox="0 0 1024.191 1024.191" enable-background="new 0 0 1024.191 1024.191"
	 xml:space="preserve">
<path fill="#C0982A" d="M231.924,605.035c12.22-0.495,17.29,3.935,18.66,16.75c0.862,8.064-0.135,15.976-3.028,23.597
	c-1.601,4.217-4.06,7.182-9.157,6.465c-3.242-0.457-5.38,0.668-5.723,4.199c-2.556-1.35,0.15-4.961-2.666-6.2
	c-2.581-8.288-3.201-16.891-4.092-25.451C230.366,618.701,228.947,611.188,231.924,605.035z"/>
<g>
	<path fill="currentColor" d="M126.206,225.346c-0.042-13.746-0.127-27.492-0.114-41.238c0.018-18.918,0.155-37.837,0.113-56.755
		c-0.005-2.303,0.987-3.036,2.894-2.972c3.964,0.133,7.943-0.405,11.897,0.384c2.429,0.485,4.903,0.71,7.319-0.171
		c31.807,0.086,63.617,0.239,95.427,0.239c120.585,0.001,241.17-0.031,361.756-0.126c5.779-0.005,11.605,0.675,17.357-0.535
		c4.092,1.433,8.244,1.164,12.414,0.465c13.625,0.054,27.256,0.155,40.886,0.146c31.247-0.022,62.495-0.1,93.742-0.154
		c0.806,0.149,1.611,0.441,2.416,0.427c21.453-0.397,42.926-0.276,64.369-0.32c19.938-0.042,39.911,0.017,59.865,0.305
		c3.158,0.046,3.418,1.386,3.407,3.9c-0.055,13.164,0.043,26.328,0.046,39.492c0.016,87.647,0.025,175.295,0.024,262.942
		c-0.002,154.134-0.035,308.271,0.07,462.404c0.005,4.719-1.144,6.229-6.062,6.225c-105.781-0.164-211.563-0.176-317.347-0.184
		c-148.122-0.013-296.247,0.008-444.37,0.014c-6.228,0-6.244,0.002-6.236-6.521c0.089-70.463,0.25-140.926,0.257-211.387
		c0.005-56.592-0.217-113.184-0.253-169.774c-0.016-25.288,0.245-50.576,0.26-75.864c0.016-26.816-0.109-53.633-0.174-80.446
		c0.175-1.121,0.504-2.244,0.505-3.368c0.049-41.255,0.072-82.509,0.066-123.764C126.748,227.586,126.395,226.466,126.206,225.346z
		 M892.808,131.894c-0.718-1.019-1.79-0.661-2.735-0.661c-95.954,0.011-191.908,0.006-287.862,0.113
		c-6.278,0.007-12.614-0.665-18.861,0.645c-1.167,0.003-2.334,0.006-3.501,0.01c-3.389-1.169-6.905-0.68-10.358-0.686
		c-20.985-0.036-41.973,0.066-62.956,0.06c-122.747-0.04-245.495-0.1-368.243-0.123c-1.602,0-3.342-0.513-4.794,0.698
		c-0.944,2.251-0.461,4.615-0.461,6.919C133,238.685,133,338.501,132.999,438.317c-0.003,149.477,0.02,298.953-0.122,448.428
		c-0.005,5.086,1.172,6.547,6.426,6.539c109.649-0.168,219.297-0.146,328.949-0.137c138.979,0.014,277.958,0.051,416.938,0.079
		c7.941,0.003,7.924,0.021,7.923-8.155c-0.023-188.193-0.041-376.388-0.065-564.58c-0.006-48.992-0.04-97.984-0.031-146.977
		c0.001-3.81-1.531-7.477-0.886-11.337C893.814,152.119,892.938,141.997,892.808,131.894z"/>
	<path fill="currentColor" d="M622.856,124.172c-5.753,1.21-11.578,0.53-17.357,0.535c-120.586,0.095-241.171,0.127-361.756,0.126
		c-31.811,0-63.621-0.153-95.427-0.239c1.335-1.048,2.893-0.573,4.344-0.573c155.404-0.021,310.807-0.02,466.21-0.011
		C620.199,124.01,621.527,124.116,622.856,124.172z"/>
	<path fill="currentColor" d="M769.898,124.628c-31.247,0.055-62.495,0.132-93.742,0.154c-13.63,0.01-27.26-0.092-40.888-0.146
		c1.144-1.034,2.538-0.614,3.825-0.614c42.487-0.001,84.978,0.02,127.463,0.053C767.688,124.076,768.907,123.717,769.898,124.628z"
		/>
	<path fill="currentColor" d="M126.206,225.346c0.188,1.12,0.542,2.24,0.542,3.361c0.006,41.255-0.017,82.509-0.066,123.764
		c-0.001,1.124-0.33,2.247-0.505,3.368C126.188,312.339,126.197,268.843,126.206,225.346z"/>
	<path fill="currentColor" d="M579.846,132c-45.648,0.031-91.302,0.087-136.953,0.09c-102.306,0.007-204.608-0.013-306.916-0.026
		c-0.83-0.001-1.66-0.071-2.487-0.111c1.455-1.214,3.195-0.701,4.797-0.701c122.748,0.023,245.496,0.083,368.243,0.123
		c20.983,0.007,41.971-0.096,62.956-0.06C572.939,131.32,576.458,130.831,579.846,132z"/>
	<path fill="currentColor" d="M892.808,131.894c-38.995,0.058-77.989,0.141-116.984,0.167c-62.83,0.043-125.661,0.05-188.491,0.064
		c-1.33,0-2.66-0.087-3.987-0.134c6.251-1.311,12.587-0.639,18.865-0.646c95.954-0.105,191.908-0.103,287.862-0.113
		C891.018,131.232,892.09,130.875,892.808,131.894z"/>
	<path fill="currentColor" d="M386.065,426.496c30.019-11.303,60.38-21.618,91.003-31.139c36.799-11.44,73.683-22.612,110.53-33.893
		c39.865-12.205,79.955-23.588,120.836-31.924c22.653-4.62,45.328-9.271,68.521-10.339c2.425-0.111,6.376-1.443,6.797,1.846
		c0.337,2.634-3.771,2.439-5.979,3.004c-7.337,1.875-14.745,3.461-22.146,5.078c-2.325,0.508-3.575,1.212-3.559,4.157
		c0.104,17.319-0.096,34.641-0.19,51.956c-1.037,13.776-0.427,27.58-0.473,41.371c-0.168,50.604-0.197,101.208-0.224,151.813
		c-0.011,23.131,0.113,46.265,0.178,69.396c-0.578,2.436,1.104,2.246,2.625,2.276c15.128,0.324,30.254,0.726,45.383,0.927
		c3.336,0.045,5.232-0.138,4.077,4.512c-1.434,5.75,0.479,11.936-1.179,17.834c-0.365,1.305,0.711,1.51,1.815,1.68
		c10.976,1.688,22.062,2.746,33.174,5.691c-15.332,1.174-30.266-1.34-45.253-0.854c-4.822,0.158-9.662,0.39-14.474,0.154
		c-24.587-1.188-49.233-0.002-73.777-1.188c-32.124-1.555-64.226,0.058-96.311-0.856c-55.776-1.588-111.56-1.08-167.329-0.625
		c-35.21,0.287-70.445-0.223-105.624,1c-19.955,0.695-39.927-0.625-59.802,0.922c-12.964,1.01-25.949-0.414-38.795,0.98
		c-10.901,1.184-21.771-0.109-32.663,0.696c3.57-1.256,7.416-1.207,11.061-1.608c21.024-2.334,42.109-4.117,63.149-6.322
		c17.09-1.791,34.141-3.951,51.219-5.857c4.769-0.528,9.567-0.858,14.362-1.045c2.744-0.104,3.936-0.748,4.314-3.938
		c2.011-16.816,3.389-33.631,3.959-50.59c0.659-19.539,1.217-39.089,1.978-58.621c0.976-25.115,0.637-50.213,0.926-75.319
		c0.051-4.419,0.898-8.855,0.927-13.333c0.015-2.492-0.017-3.769-3.181-2.309c-17.515,8.084-34.984,16.278-52.729,23.835
		c-25.117,10.694-49.024,24.091-74.763,33.374c-7.599,2.737-13.251-1.863-15.115-9.507c-2.36-9.68,0.328-13.824,9.565-17.578
		c26.712-10.857,53.376-21.837,80.167-32.496c16.072-6.396,32.34-12.306,48.537-18.384c5.899-2.217,6.944-3.406,5.215-9.319
		c-1.468-5.012-0.274-9.901-0.43-14.831c-0.091-2.852,2.828-3.95,5.029-4.675c6.262-2.063,12.818-2.043,19.171-0.844
		c6.856,1.295,7.44,2.589,7.538,10.391c-0.249,2.563-1.803,3.379-4.152,3.048c-3.699-0.521-5.483,1.633-6.646,4.691
		c-2.102,5.531-2.823,11.272-2.197,17.125c0.994,9.301,4.675,12.518,13.542,12.156c1.393,20.924-1.595,41.822,0.07,62.791
		c1.262,15.894-0.034,31.908,1.307,47.859c0.847,10.039,1.139,20.129,1.898,30.189c1.51,19.924,3.378,39.793,6.053,59.6
		c0.425,3.137,1.203,3.766,4.073,3.662c15.621-0.562,31.258-0.293,46.887-0.543c38.282-0.615,76.578-0.99,114.88,0.375
		c23.932,0.854,47.914-0.101,71.859,1.129c6.315,0.324,12.702-0.211,18.963,0.483c3.047,0.341,5.79,0.209,8.664-0.446
		c1.054-0.242,1.674-0.232,1.418-1.775c-0.818-4.934-1.34-9.918-1.987-14.965c3.928-0.502,7.863,0.668,11.774,0.604
		c17.479-0.274,34.918,1.113,52.378,1.054c7.776-0.027,15.582,1.164,23.344-0.265c0.86-1.006,0.519-2.223,0.521-3.346
		c0.093-37.896,0.189-75.797,0.226-113.693c0.016-15.116-0.119-30.235-0.186-45.354c0.811-3.513-0.822-6.821-0.795-10.32
		c0.1-12.612,1.171-25.186,1.087-37.815c-0.229-34.276-0.12-68.556,0.037-102.833c0.019-3.966-0.672-4.869-4.666-3.606
		c-4.849,1.532-9.977,2.158-14.965,3.253c-42.406,9.297-84.217,20.842-125.517,34.156c-29.573,9.534-58.811,20.079-88.067,30.567
		c-26.948,9.661-54.357,18.052-81.129,28.26c-14.615,5.573-29.183,11.281-43.771,16.929
		C388.391,438.754,387.939,432.511,386.065,426.496z"/>
	<path fill="currentColor" d="M751.36,647.824c-0.063-23.131-0.188-46.265-0.178-69.396c0.024-50.604,0.056-101.209,0.224-151.813
		c0.046-13.791-0.564-27.595,0.473-41.371c0.067,23.974,0.194,47.94,0.192,71.911c-0.005,61.774-0.063,123.55-0.134,185.326
		C751.936,644.259,752.492,646.148,751.36,647.824z"/>
	<path fill="currentColor" d="M746.259,648.773c-0.032-28.253-0.084-56.507-0.092-84.759c-0.007-24.27,0.025-48.537,0.081-72.807
		c0.004-1.613-0.505-3.333,0.57-4.834c0.064,15.122,0.197,30.241,0.186,45.358c-0.034,37.896-0.133,75.797-0.226,113.692
		C746.776,646.55,747.12,647.767,746.259,648.773z"/>
</g>
</svg>
