<?xml version="1.0" encoding="utf-8"?>
<!-- Generator: Adobe Illustrator 16.0.0, SVG Export Plug-In . SVG Version: 6.00 Build 0)  -->
<!DOCTYPE svg PUBLIC "-//W3C//DTD SVG 1.1//EN" "http://www.w3.org/Graphics/SVG/1.1/DTD/svg11.dtd">
<svg version="1.1" id="Layer_1" xmlns="http://www.w3.org/2000/svg" xmlns:xlink="http://www.w3.org/1999/xlink" x="0px" y="0px"
	 width="1024.191px" height="1024.191px" viewBox="0 0 1024.191 1024.191" enable-background="new 0 0 1024.191 1024.191"
	 xml:space="preserve">
<path fill="currentColor" d="M123.342,689.246c-0.015-6.445-0.029-12.894-0.044-19.334c0.988-3.416,0.581-6.93,0.583-10.396
	c0.013-16.473-0.054-32.942-0.128-49.416c-0.067-14.957,0.528-29.92-0.437-44.864c-0.084-19.271-0.22-38.541-0.243-57.813
	c-0.04-33.403-0.041-66.806,0.001-100.209c0.028-22.099,0.158-44.196,0.243-66.289c0.116-1.142,0.332-2.287,0.334-3.434
	c0.056-31.458,0.145-62.916,0.105-94.374c-0.02-15.956-0.278-31.911-0.429-47.866c0.018-22.265,0.056-44.528,0.024-66.792
	c-0.003-2.521-0.185-4.472,3.486-4.212c14.248,1.008,28.547-0.556,42.764,0.275c13.485,0.789,26.938,0.438,40.401,0.515
	c28.754,0.165,57.517,0.408,86.261-0.141c11.63-0.223,23.268-0.507,34.899-0.473c14.229,0.041,28.459,0.597,42.688,0.592
	c15.466-0.005,30.938-0.835,46.391-0.491c14.131,0.313,28.268,0.882,42.389,0.51c56.105-1.48,112.216-0.463,168.323-0.64
	c49.92-0.157,99.841-0.042,149.762-0.056c36.254-0.01,72.508-0.05,108.762-0.041c9.513,0.003,8.7-1.146,8.7,8.403
	c-0.01,93.479-0.033,186.958-0.053,280.438c-0.012,57.806-0.046,115.61-0.032,173.417c0.018,62.955,0.118,125.91,0.104,188.865
	c-0.013,41.641-0.165,83.279-0.252,124.916c-1.163-0.031-2.329-0.088-3.494-0.088c-102.455-0.021-204.909-0.037-307.364-0.049
	c-122.444-0.017-244.889-0.033-367.333-0.029c-31.815,0-63.63,0.082-95.444,0.125c-0.141-0.193-0.327-0.322-0.555-0.383
	c0.034-0.828,0.091-1.658,0.091-2.488c-0.03-56.432-0.041-112.862-0.115-169.295C123.709,715.169,123.476,702.207,123.342,689.246z
	 M890.817,514.847c0.044-17.469,0.127-34.937,0.126-52.405c0-87.396-0.017-174.791-0.04-262.186
	c-0.006-22.297-0.068-44.595-0.105-66.892c-0.033-2.001-1.489-1.279-2.518-1.285c-15.813-0.099-31.62-0.267-47.433-0.253
	c-27.11,0.023-54.224,0.211-81.336,0.242c-39.923,0.047-79.846,0.056-119.77,0.007c-24.726-0.03-49.448-0.269-74.172-0.278
	c-19.95-0.009-39.9,0.259-59.853,0.267c-24.265,0.01-48.527-0.125-72.794-0.198c-1.309-0.139-2.616-0.398-3.925-0.399
	c-31.445-0.034-62.891-0.048-94.336-0.034c-1.479,0.001-2.953,0.278-4.43,0.427c-12.971,0.074-25.938,0.223-38.906,0.209
	c-51.293-0.056-102.586-0.093-153.877-0.357c-4.993-0.026-6.703,1.002-6.646,6.375c0.319,30.487,0.281,60.979,0.269,91.47
	c-0.045,106.465-0.158,212.93-0.19,319.395c-0.024,79.475,0.033,158.949,0.061,238.424c0.012,33.654,0.117,67.313-0.037,100.967
	c-0.018,4.025,1.183,4.935,4.985,4.855c14.821-0.293,29.647-0.269,44.472-0.359c27.316,0.059,54.632,0.156,81.948,0.16
	c20.818,0,41.636-0.121,62.454-0.188c0.875,0.005,1.751,0.009,2.626,0.013c1.491,0.078,2.981,0.221,4.475,0.223
	c44.158,0.021,88.314,0.049,132.475,0.018c26.485-0.02,52.972-0.141,79.456-0.217c6.211,0.338,12.421,0.429,18.63-0.033
	c8.317,0.084,16.634,0.246,24.951,0.234c29.132-0.043,58.263-0.146,87.396-0.229c1.872-0.013,3.742-0.021,5.615-0.031
	c1.824,0.084,3.648,0.24,5.475,0.24c44.328,0.008,88.655,0.006,132.982-0.013c22.498-0.008,44.997-0.127,67.493,0.017
	c3.71,0.021,5.088-0.947,4.755-4.74c-0.35-3.973-0.231-7.99-0.231-11.99c-0.001-73.149,0.016-146.305,0.017-219.457
	c0.001-23.487-0.031-46.979-0.048-70.471c-0.234-1.604-0.67-3.207-0.674-4.811c-0.057-20.634-0.066-41.267-0.029-61.896
	C890.13,518.058,890.577,516.453,890.817,514.847z"/>
<path fill-rule="evenodd" clip-rule="evenodd" fill="currentColor" d="M137.12,130.934c72.531,0.008,145.065-0.279,217.593,0.208
	c20.847,0.141,41.685-1.13,62.514-0.134c14.571,0.697,29.168-0.885,43.667,0.19c10.61,0.786,21.102-0.841,31.753,0.198
	c8.215,0.801,16.76,0.146,25.155-0.113c10.756-0.332,21.604,0.723,32.411,0.383c6.622-0.208,13.23-0.738,19.873-0.707
	c18.357,0.086,36.714,0.001,55.071,0c25.017,0,50.03-0.048,75.047,0.051c9.385,0.038,18.804,0.643,28.146,0.529
	c15.205-0.187,30.409,1.016,45.647-0.316c6.004-0.525,12.324,1.035,18.438,0.432c11.66-1.15,23.308,0.069,34.977-0.333
	c14.502-0.5,29.082-0.561,43.63-0.373c5.338,0.069,10.675-0.029,16.01-0.051c3.081,0.345,3.576,2.146,3.575,5.036
	c-0.074,98.843-0.061,197.686-0.027,296.529c0.006,20.904,0.13,41.809,0.199,62.713c0.001,0.755,0.001,1.51,0.001,2.262
	c-0.084,1.536-0.239,3.075-0.239,4.614c0.015,86.586,0.036,173.174,0.07,259.761c0.018,44.143,0.062,88.287,0.094,132.43
	c0,0-0.237,0.283-0.234,0.282c-0.308-0.026-0.617-0.072-0.926-0.072c-118.39,0.017-236.777,0.043-355.167,0.052
	c-109.399,0.009-218.8-0.002-328.201-0.001c-24.789,0-49.578,0.01-74.367,0.016c-0.108-0.128-0.243-0.212-0.401-0.253
	c0.01-52.073,0.016-104.151,0.025-156.229c0.016-96.096,0.035-192.19,0.051-288.286c0.017-103.847,0.055-207.693-0.031-311.539
	C131.47,133.89,131.779,130.695,137.12,130.934z M135.331,134.816c-1.696,1.703-0.774,3.825-0.773,5.721
	c0.008,76.576,0.11,153.151,0.125,229.727c0.017,82.776-0.062,165.552-0.059,248.327c0.002,52.55,0.074,105.098,0.145,157.646
	c0.001,1.171-0.588,2.48,0.495,3.521c1.685,0.1,3.368,0.252,5.054,0.293c14.678,0.354,29.276-1.149,43.91-1.844
	c10.291-0.488,20.405-2.436,30.644-3.335c10.662-0.936,21.347-3.093,31.957-2.745c11.57,0.38,23.131,0.029,34.685,0.478
	c1.064,0.572,2.156,1.032,3.408,0.822c-0.726,1.333-1.968,1.936-3.357,1.81c-9.753-0.883-19.121,2.024-28.696,2.853
	c-7.382,0.64-14.76,1.345-22.24,2.028c0.885,2.288,2.718,2.079,4.096,1.866c4.839-0.744,9.623-1.623,14.46,0.012
	c8.04,2.716,16.492,0.191,24.98,2.966c7.288,2.382,15.626,5.064,23.987,3.174c0.377-0.086,0.867,0.166,1.262,0.353
	c6.235,2.934,12.693,1.49,19.104,1.004c7.253-0.55,14.232,0.946,21.215,2.634c-2.277,0.698-4.567,0.686-6.75,1.163
	c-5.391,1.176-10.709,2.601-16.257,0.742c-0.829-0.277-2.076-0.66-2.852,0.656c-0.937,1.594-2.576,1.149-4.061,1.516
	c-4.073,1.003-8.218,0.701-12.244,1.074c-8.529,0.792-16.802,3.648-25.486,3.053c-2.92-0.199-5.865-0.031-9.832-0.031
	c3.461,3.696,7.885,0.355,10.409,4.139c-5.127,0.676-9.969,1.313-14.842,1.956c0.392,1.396,1.131,1.249,2.186,1.152
	c5.798-0.529,11.611-1.255,17.417-1.246c10.142,0.015,20.284,0.756,30.424,0.728c6.902-0.021,13.929-0.176,20.667-1.476
	c6.636-1.279,13.014-2.066,19.685-0.647c7.396,1.573,14.831,1.36,22.39,0.543c8.827-0.955,17.42-3.604,26.438-3.214
	c10.803,0.468,21.644,1.043,32.329-1.535c1.133-0.273,2.417,0.204,3.609,0.331c6.661,0.708,13.038,3.979,19.783,3.034
	c7.161-1.003,14.001-0.016,21.046,0.943c16.027,2.182,32.262,1.692,48.383,2.885c5.676,0.419,11.291-0.329,17.019-1.49
	c8.592-1.739,17.445,0.646,26.213,0.706c7.034,0.049,13.915,1.055,20.895,2.277c5.826,1.021,11.867,4.087,18.437,1.405
	c5.704-2.327,12.327,0.194,18.205-1.959c7.27-2.661,14.229-3.085,21.09,1.158c2.086,1.289,4.55,2.23,7.011,1.63
	c3.536-0.862,6.726,0.988,11.006-1.102c4.935-2.409,12.086-2.76,18.39-1.473c1.846,1.254,3.715,1.229,5.604,0.101
	c3.56-0.143,7.119-0.412,10.678-0.402c9.135,0.024,18.298-0.238,27.397,0.38c10.098,0.686,20.168,0.473,30.253,0.363
	c0.34-0.004,0.673-0.601,1.151-1.057c-1.223-1.106-3.558-0.062-4.206-2.066c3.868-0.609,7.935,0.58,11.67-1.601
	c-4.802-1.22-9.217-3.376-14.272-3.579c-6.374-0.255-12.913-0.946-18.987-2.212c-7.747-1.614-15.492-2.274-23.099-1.971
	c-9.387,0.378-18.524-1.556-27.832-1.455c-2.162,0.022-5.044,0.016-7.03-2.034c4.258-1.301,8.15,0.341,12.128,0.475
	c10.186,0.342,20.4-0.74,30.569,0.758c2.408,0.355,5.101,0.619,7.268-0.688c3.823-2.31,7.95-2.174,12.013-1.781
	c16.507,1.591,32.979,3.152,49.616,1.871c9.687-0.745,19.431-0.785,29.152-1.026c21.127-0.522,42.158,0.44,63.101,3.547
	c11.383,1.69,11.429,1.385,11.362-9.979c-0.003-0.465-0.007-0.931-0.006-1.394c0.026-191.267,0.053-382.533,0.081-573.798
	c0.003-24.179-0.074-48.358,0.126-72.536c0.031-3.782-1.092-4.84-4.669-4.586c-4.012,0.283-8.056,0.108-12.085,0.107
	c-96.561-0.021-193.122-0.06-289.683-0.065c-142.131-0.008-284.263,0.002-426.394,0.029
	C148.007,134.443,141.669,134.686,135.331,134.816z"/>
<path fill-rule="evenodd" clip-rule="evenodd" fill="currentColor" d="M578.062,525.078c1.656,6.854,1.104,13.844,0.905,20.746
	c-0.623,21.647,1.5,43.197,2.133,64.797c0.208,7.062,0.399,14.157,0.701,21.233c0.868,20.357,1.627,40.715,2.067,61.092
	c0.319,14.783,1.524,29.553,1.838,44.359c0.1,4.739,0.807,9.508,0.737,14.288c-0.032,2.277,0.889,3.202,3.236,3.523
	c3.379,0.464,6.802,1.035,9.878,2.746c4.159,2.313,8.688,2.96,13.347,2.595c13.056-1.025,25.689,1.115,38.099,4.946
	c4.818,1.487,9.882,2.183,14.451,4.468c-0.095,0.116-0.232,0.222-0.27,0.356c-0.021,0.071,0.109,0.249,0.205,0.281
	c2.344,0.797,4.334-0.775,6.531-0.986c0.361,0.394,0.724,0.786,1.087,1.179c0.286,0.211,0.571,0.422,0.856,0.634
	c-0.578,0.511-1.132,1.432-1.739,1.469c-7.436,0.452-13.252,5.639-21.336,5.672c-11.046,0.044-22.08-0.73-33.129-0.597
	c-8.828,0.105-17.625-2.156-26.574-1.662c-4.45,0.246-8.803,1.275-13.325,1.056c-15.188-0.736-30.368-1.541-45.51-2.954
	c-0.839-0.079-1.469-0.362-2.026-1.354c1.245-0.214,2.418-0.418,3.59-0.62c-8.355,0.288-16.402-2.54-24.94-1.05
	c-7.804,1.361-15.997,0.496-24.052-0.152c-3.613-0.291-7.336-0.921-11.072-0.536c-5.581,0.576-10.806-1.339-16.038-2.884
	c-2.916-0.86-6.897-2.734-8.569-0.537c-5.094,6.688-11.654,2.782-17.399,3.147c-6.509,0.415-13.089,0.659-19.752-0.354
	c-6.74-1.023-13.866-1.033-20.546,1.153c-2.859,0.935-5.841,0.897-8.576,1.099c-9.91,0.729-19.9,2.176-29.847,0.181
	c-6.562-1.315-13.201-0.824-19.795-0.693c-7.359,0.145-14.674,0.81-22.024,1.719c-8.474,1.049-17.509,0.558-26.285-0.013
	c-1.252,0.21-2.344-0.25-3.408-0.822c7.782-2.119,15.774-2.893,23.754-3.766c12.892-1.408,25.866-0.895,38.736-4.138
	c8.39-2.114,17.385-2.945,26.313-3.41c12.607-0.657,25.074-3.764,37.685-4.669c8.942-0.643,17.731-4.148,26.897-1.754
	c2.43,0.634,4.21-0.031,3.888-3.27c-1.146-11.569,1.163-23.052,0.897-34.646c-0.234-10.247,1.375-20.524,1.55-30.799
	c0.195-11.4,1.123-22.759,1.254-34.172c0.182-15.831,1.78-31.623,2.001-47.494c0.086-6.235-0.398-12.813,1.562-19.019
	c10.6,5.413,21.063,11.077,31.444,16.9c6.303,3.534,12.834,6.66,19.226,10.04c5.101,2.696,11.09,1.449,14.646-3.355
	c11.378-15.375,23.886-29.864,35.197-45.308c8.474-11.567,17.812-22.506,26.829-33.672
	C574.815,528.309,575.643,525.93,578.062,525.078z M551.076,742.748c0.831-1.041,0.472-1.574,0.127-2.082
	c-11.153-16.456-22.319-32.903-33.463-49.365c-2.08-3.073-3.717-2.996-5.736,0.223c-9.14,14.551-19.339,28.356-29.932,41.874
	c-2.347,2.995-4.88,5.846-7.327,8.763c8.577-5.657,18.364-9.459,24.68-17.978c3.772-5.087,7.877-9.927,11.744-14.944
	c3.76-4.88,4.433-5.095,8.048-0.228c5.518,7.434,11.315,14.626,17.214,21.757C540.602,735.811,545.491,739.681,551.076,742.748z
	 M495.825,736.902c3.972-0.627,6.99-1.144,10.02-1.572c6.19-0.876,12.312-0.332,18.416,0.87c1.631,0.32,3.617,0.845,4.815-0.613
	c1.321-1.608-0.79-2.778-1.383-3.957c-2.933-5.819-7.603-10.592-9.969-16.836c-1.15-3.036-3.067-3.283-5.255-0.215
	C507.305,721.825,501.848,728.864,495.825,736.902z M380.995,765.643c-0.613-0.24-1.002-0.522-1.376-0.504
	c-0.386,0.021-0.757,0.333-1.134,0.518c0.374,0.191,0.743,0.52,1.125,0.534C379.988,766.204,380.379,765.902,380.995,765.643z
	 M377.037,765.517c-0.085-0.093-0.166-0.255-0.256-0.259c-0.089-0.006-0.187,0.146-0.281,0.229c0.13,0.095,0.26,0.19,0.389,0.285
	C376.938,765.688,376.987,765.603,377.037,765.517z"/>
<path fill-rule="evenodd" clip-rule="evenodd" fill="currentColor" d="M453.309,499.337c-4.139-8.862-6.037-18.076-5.506-27.947
	c0.668-12.472,0.717-24.974,1.038-37.464c0.016-0.616-0.179-1.557,0.139-1.797c4.454-3.36,1.085-7.802,1.69-11.671
	c0.316-2.024-0.192-4.464,2.712-5.107c10.666-0.048,21.333-0.122,31.998-0.109c1.278,0.001,3.4-0.622,3.648,0.905
	c0.337,2.067-1.888,2.556-3.498,2.855c-4.244,0.789-8.541,1.289-12.779,2.097c-4.758,0.908-9.799,0.192-14.357,2.416
	c19.905,0.151,39.254,4.745,58.899,6.645c13.176,1.274,26.371,2.236,39.677,1.285c5.586-0.399,11.231-2.696,16.911-0.437
	c2.414,14.084,2.217,28.307,2.414,42.523c0.142,10.14,1.225,20.252,1.113,30.417c-0.046,4.264-0.398,8.271-3.277,11.634
	c-0.825,0.964-0.578,2.001-0.531,3.055c-0.428,1.335-1.181,2.428-2.04,3.564c-9.745,12.883-19.367,25.86-29.077,38.769
	c-10.652,14.163-21.232,28.387-32.108,42.378c-5.643,7.259-6.882,7.43-11.832,4.779c-12.883-6.896-25.888-13.574-38.595-20.781
	c-3.416-1.938-7.948-2.929-9.538-7.406c0.843-1.874-1.163-2.638-1.685-3.98c-0.529-1.358-1.424-2.354,0.099-3.519
	c2.517,0.045,4.88,0.691,7,2.03c6.085,3.845,12.005,7.974,18.255,11.526c3.317,1.885,6.647,4.131,11.849,4.991
	c-9.403-10.285-18.663-19.006-28.363-27.222c-2.999-2.54-4.929-6.284-8.804-7.799c-3.201-1.921-3.9-5.438-3.471-8.334
	c1.341-9.025,0.679-18.064,0.807-27.08c0.068-4.749,0.203-9.43,1.021-14.095c2.284-2.528,3.118,0.228,4.106,1.307
	c4.065,4.437,7.963,9.025,11.952,13.531c7.888,8.914,17.228,16.437,24.702,25.743c3.935,4.899,8.194,9.426,13.642,13.197
	c0.413-3.913,0.398-3.981-1.231-5.421c-9.844-8.698-17.731-19.114-25.847-29.34C467.478,516.702,460.359,508.046,453.309,499.337z
	 M485.024,430.517c0.003,0.442,0.006,0.884,0.009,1.326c1.635,0,3.272,0.049,4.904-0.012c2.045-0.077,3.391,0.749,3.394,2.869
	c0.01,7.283,1.843,14.479,1.779,21.66c-0.141,15.434,0.246,30.88,0.576,46.276c0.286,13.289,0.135,26.898,4.305,39.942
	c1.106,3.461,0.948,7.325,1.371,11.003c1.653-2.004,1.404-4.146,1.177-6.155c-1.299-11.452-0.47-22.965-1.14-34.442
	c-0.738-12.642-0.678-25.33-1.141-37.992c-0.479-13.13-1.339-26.25-1.642-39.383c-0.076-3.311-2.255-4.347-4.106-4.297
	C491.301,431.396,488.167,431.303,485.024,430.517z"/>
<path fill-rule="evenodd" clip-rule="evenodd" fill="currentColor" d="M572.481,301.662c-0.019,5.825-0.065,11.651-0.053,17.476
	c0.021,9.43-0.21,18.87,0.185,28.284c0.779,18.62,1.468,37.239,2.011,55.867c0.112,3.864,0.049,7.072-2.134,10.17
	c-8.478,2.703-17.262,3.751-26.043,4.812c-3.975,0.092-8.011-0.803-11.892,0.758c-13.21,0.179-26.177-2.083-39.186-3.914
	c-3.306-0.523-6.62-1.53-9.917-1.48c-10.679,0.161-21.388-0.391-32.031,0.979c-2.889-2.038-4.164-4.782-3.713-8.325
	c1.336-10.507-1.353-20.903-0.872-31.381c0.081-1.762-0.713-3.736,0.855-5.279c3.213,0.38,6.45,0.627,9.638,1.164
	c8.972,1.513,17.921,3.113,26.457,6.474c2.157,0.849,3.051,1.999,3.291,4.358c0.655,6.453,1.577,12.884,2.555,19.299
	c0.484,3.176,0.751,6.533,3.328,8.931c0.505,0.471,1.394,0.83,2.055,0.761c0.997-0.104,0.855-1.07,0.78-1.844
	c-0.773-7.951-1.648-15.896-2.273-23.859c-0.314-4.014-0.639-8.339,1.217-11.903c2.37-4.553,0.046-4.598-3.348-5.031
	c-10.862-1.385-21.7-2.964-32.532-4.578c-2.48-0.37-6.24,0.488-5.574-4.121c0.628-4.341,4.321-2.738,6.871-3.272
	c0.574-0.121,1.224,0.113,1.837,0.185c7.325,0.867,14.74,0.218,23.392,2.082c-3.495-3.21-6.433-5.027-6.35-9.028
	c0.152-7.411-0.345-14.842-0.022-22.24c0.329-7.528,0.959-15.2-0.324-22.495c-1.057-6.019-2.678-11.851-1.64-17.948
	c1.275-7.491,1.974-15.049,2.148-22.601c0.326-14.053,0.181-28.119,0.121-42.179c-0.011-2.627,0.229-4.926,2.738-6.366
	c0.545,0.274,1.142,0.859,1.625,0.776c14.291-2.444,27.702,2.518,41.4,4.939c3.104,0.548,6.081,1.832,9.116,2.778
	c0.455,1.526-0.49,2.698-1.1,3.894c-5.14,10.088-12.71,18.442-19.448,27.406c-4.356,5.793-8.055,12.079-12.047,18.146
	c0.376,0.245,0.753,0.49,1.129,0.735c10.063-18.208,26.722-31.792,35.12-51.168c7.974,1.092,15.917,2.317,23.962,2.945
	c4.724,0.369,8.315,5.459,8.604,11.884c0.333,7.379,0.18,14.792-0.028,22.182c-0.067,2.386-0.884,4.791-2.883,6.492
	c-2.57,0.981-4.81,2.547-7.553,3.355c-8.237,2.426-16.375,5.227-24.448,8.161c-15.629,5.681-31.155,11.653-47.272,15.958
	c1.111,2.554,2.958,3.485,5.824,3.446c7.86-0.105,15.651-0.994,23.392-2.097c8.549-1.219,17.227-2.362,25.434-4.886
	c7.273-2.236,14.786-2.947,22.039-5.025c3.342-0.958,5.422,0.641,5.491,4.265C572.488,293.621,572.464,297.641,572.481,301.662z
	 M492.76,305.351c11.2,13.307,23.934,22.83,39.323,27.629c11.263-9.228,24.711-16.244,34.884-28.152
	c-2.628-0.245-5.2-1.314-6.642-0.464c-4.387,2.588-9.345,3.746-13.752,6.207c-8.624,4.815-17.652,4.978-26.625,1.251
	C511.35,308.251,502.081,308.057,492.76,305.351z"/>
<path fill-rule="evenodd" clip-rule="evenodd" fill="currentColor" d="M449.655,351.503c-1.431-1.416-0.785-3.221-0.789-4.837
	c-0.027-15.763-0.698-31.571,0.267-47.276c0.861-14.037-0.31-28.078,0.889-42.028c0.915-10.648,0.727-21.255,0.562-31.867
	c-0.092-5.924,1.425-10.037,7.372-11.898c1.418-0.444,2.705-1.314,4.049-1.989c0.924,0.004,1.852,0.036,2.778,0.006
	c7.86-0.256,9.942,1.909,10.062,9.976c0.153,10.361,0.526,20.72,0.726,31.082c0.124,6.408,1.166,12.768,1.389,19.12
	c0.303,8.575-0.949,17.193-1.078,25.799c-0.237,15.797-0.22,31.601-0.116,47.4c0.02,3.129-0.932,3.91-4.042,4.466
	C464.396,350.767,457.05,351.251,449.655,351.503z"/>
<path fill-rule="evenodd" clip-rule="evenodd" fill="currentColor" d="M673.864,771.336c-0.285-0.212-0.57-0.423-0.856-0.634
	c0.473-2.721,2.622-2.575,4.578-2.59c11.776-0.094,23.582-0.642,35.316,0.037c4.751,0.274,10.091-0.263,14.489,2.928
	c2.052,1.489,4.568,1.671,7.052,1.663c-0.488,0.497,2.309,1.654-0.009,1.351c-2.273-0.299-4.558-0.824-6.853-0.754
	c-10.417,0.324-20.83,0.761-31.246,1.156C688.846,773.44,681.354,772.389,673.864,771.336z"/>
<path fill-rule="evenodd" clip-rule="evenodd" fill="currentColor" d="M741.528,773.611c5.934,1.71,11.847-0.287,17.79-0.199
	c10.162,0.151,19.906,2.466,29.767,4.308c1.771,0.33,3.546,0.646,5.309,1.405c-17.875-0.69-35.796,2.17-53.624-1.163
	c-3.839-1.323-7.906-0.231-12.015-1.139C732.65,773.807,737.757,776.281,741.528,773.611z"/>
<path fill-rule="evenodd" clip-rule="evenodd" fill="#C0982A" d="M551.076,742.748c-5.585-3.067-10.475-6.938-14.646-11.98
	c-5.898-7.131-11.696-14.323-17.214-21.757c-3.615-4.867-4.288-4.652-8.048,0.228c-3.867,5.018-7.972,9.857-11.744,14.944
	c-6.316,8.519-16.103,12.32-24.68,17.978c2.447-2.917,4.98-5.768,7.327-8.763c10.593-13.518,20.792-27.323,29.932-41.874
	c2.02-3.219,3.656-3.296,5.736-0.223c11.144,16.462,22.31,32.909,33.463,49.365C551.548,741.174,551.907,741.707,551.076,742.748z"
	/>
<path fill-rule="evenodd" clip-rule="evenodd" fill="#C0982A" d="M495.825,736.902c6.023-8.038,11.48-15.077,16.645-22.323
	c2.188-3.068,4.104-2.821,5.255,0.215c2.366,6.244,7.036,11.017,9.969,16.836c0.593,1.179,2.704,2.349,1.383,3.957
	c-1.198,1.458-3.185,0.934-4.815,0.613c-6.104-1.202-12.226-1.746-18.416-0.87C502.814,735.759,499.797,736.275,495.825,736.902z"/>
<g>
	<path fill-rule="evenodd" clip-rule="evenodd" fill="#C0982A" d="M449.655,351.503c7.396-0.252,14.742-0.737,22.069-2.045
		c3.11-0.556,4.062-1.337,4.042-4.466c-0.104-15.799-0.121-31.603,0.116-47.4c0.129-8.606,1.381-17.224,1.078-25.799
		c-0.224-6.352-1.266-12.712-1.389-19.12c-0.2-10.362-0.573-20.721-0.726-31.082c-0.119-8.067-2.201-10.232-10.062-9.976
		c-0.926,0.03-1.854-0.002-2.778-0.006c2.167-1.71,4.813-1.188,7.049-0.85c5.189,0.786,10.348,2.006,15.005,4.657
		c-2.511,1.44-2.75,3.739-2.74,6.366c0.06,14.06,0.205,28.126-0.121,42.179c-0.174,7.552-0.873,15.11-2.148,22.601
		c-1.038,6.097,0.583,11.93,1.64,17.948c1.283,7.294,0.652,14.966,0.324,22.495c-0.323,7.398,0.174,14.83,0.022,22.24
		c-0.083,4.001,2.855,5.818,6.35,9.028c-8.652-1.863-16.067-1.215-23.392-2.082c-0.614-0.072-1.263-0.306-1.837-0.185
		c-2.549,0.535-6.243-1.068-6.871,3.272c-0.666,4.609,3.094,3.751,5.574,4.121c10.832,1.614,21.67,3.192,32.532,4.578
		c3.395,0.433,5.718,0.478,3.348,5.031c-1.856,3.564-1.531,7.889-1.217,11.903c0.625,7.964,1.5,15.908,2.273,23.859
		c0.075,0.774,0.216,1.74-0.78,1.844c-0.661,0.068-1.55-0.291-2.055-0.761c-2.577-2.398-2.844-5.755-3.328-8.931
		c-0.979-6.415-1.9-12.846-2.555-19.299c-0.24-2.359-1.134-3.509-3.291-4.358c-8.536-3.36-17.485-4.96-26.457-6.474
		c-3.188-0.537-6.425-0.784-9.638-1.164c-0.183-3.088,0.369-5.953,3.084-7.826c2.318-1.6,2.145-3.152,0.287-4.873
		C451.434,355.421,450.279,353.633,449.655,351.503z"/>
	<path fill-rule="evenodd" clip-rule="evenodd" fill="#C0982A" d="M572.482,301.662c-0.019-4.021,0.006-8.041-0.07-12.061
		c-0.069-3.625-2.149-5.223-5.491-4.265c-7.253,2.078-14.766,2.789-22.039,5.025c-8.207,2.524-16.885,3.667-25.434,4.886
		c-7.74,1.104-15.532,1.992-23.392,2.097c-2.866,0.039-4.712-0.892-5.824-3.446c16.117-4.306,31.643-10.278,47.272-15.958
		c8.073-2.934,16.211-5.735,24.448-8.161c2.743-0.808,4.982-2.374,7.553-3.355c4.947,9.881,3.89,20.527,3.909,31.025
		C573.416,298.873,574.134,300.562,572.482,301.662z"/>
	<path fill-rule="evenodd" clip-rule="evenodd" fill="#C0982A" d="M450.412,579.94c1.59,4.478,6.122,5.469,9.538,7.406
		c12.707,7.207,25.712,13.886,38.595,20.781c4.95,2.65,6.189,2.479,11.832-4.779c10.875-13.991,21.456-28.215,32.108-42.378
		c9.71-12.908,19.332-25.886,29.077-38.769c0.859-1.137,1.612-2.229,2.04-3.564c2.011,1.785,3.328,4.051,4.461,6.441
		c-2.419,0.851-3.246,3.229-4.671,4.995c-9.018,11.166-18.355,22.104-26.829,33.672c-11.312,15.443-23.819,29.933-35.197,45.308
		c-3.555,4.805-9.544,6.052-14.646,3.355c-6.392-3.38-12.922-6.506-19.226-10.04c-10.382-5.823-20.844-11.487-31.444-16.9
		C446.833,583.096,446.651,579.962,450.412,579.94z"/>
	<path fill-rule="evenodd" clip-rule="evenodd" fill="#C0982A" d="M453.309,499.337c7.05,8.709,14.168,17.365,21.135,26.14
		c8.116,10.226,16.003,20.642,25.847,29.34c1.629,1.439,1.644,1.508,1.231,5.421c-5.448-3.771-9.707-8.298-13.642-13.197
		c-7.474-9.307-16.814-16.829-24.702-25.743c-3.989-4.506-7.887-9.095-11.952-13.531c-0.989-1.079-1.822-3.835-4.106-1.307
		C446.315,501.591,449.5,500.192,453.309,499.337z"/>
	<path fill-rule="evenodd" clip-rule="evenodd" fill="#C0982A" d="M448.763,555.969c3.875,1.515,5.805,5.259,8.804,7.799
		c9.7,8.216,18.96,16.937,28.363,27.222c-5.202-0.86-8.531-3.106-11.849-4.991c-6.25-3.553-12.17-7.682-18.255-11.526
		c-2.12-1.339-4.483-1.985-7-2.03C447.584,566.955,447.165,561.467,448.763,555.969z"/>
	<path fill-rule="evenodd" clip-rule="evenodd" fill="#C0982A" d="M539.852,222.921c-8.397,19.376-25.057,32.96-35.12,51.168
		c-0.376-0.246-0.753-0.49-1.129-0.735c3.993-6.066,7.691-12.353,12.047-18.146c6.738-8.963,14.309-17.318,19.448-27.406
		c0.609-1.196,1.555-2.368,1.1-3.894C537.417,223.58,538.635,223.251,539.852,222.921z"/>
	<path fill-rule="evenodd" clip-rule="evenodd" fill="#C0982A" d="M485.024,430.517c3.142,0.787,6.276,0.88,9.485,0.794
		c1.852-0.05,4.03,0.986,4.106,4.297c0.303,13.133,1.163,26.253,1.642,39.383c0.462,12.662,0.403,25.35,1.141,37.992
		c0.67,11.478-0.159,22.99,1.14,34.442c0.227,2.01,0.476,4.151-1.177,6.155c-0.423-3.678-0.264-7.542-1.371-11.003
		c-4.169-13.044-4.019-26.653-4.305-39.942c-0.33-15.396-0.716-30.842-0.576-46.276c0.064-7.181-1.77-14.377-1.779-21.66
		c-0.003-2.12-1.349-2.946-3.394-2.869c-1.632,0.061-3.269,0.012-4.904,0.012C485.031,431.401,485.028,430.958,485.024,430.517z"/>
	<path fill-rule="evenodd" clip-rule="evenodd" fill="#C0982A" d="M492.76,305.351c9.321,2.706,18.59,2.9,27.188,6.471
		c8.973,3.726,18.001,3.563,26.625-1.251c4.407-2.46,9.365-3.619,13.752-6.207c1.441-0.85,4.014,0.219,6.642,0.464
		c-10.173,11.908-23.621,18.925-34.884,28.152C516.693,328.181,503.96,318.658,492.76,305.351z"/>
	<path fill-rule="evenodd" clip-rule="evenodd" fill="#C0982A" d="M575.178,418.255c0.273-2.253-3.154-2.434-2.688-4.796
		c-8.478,2.703-17.262,3.751-26.042,4.812c-3.976,0.092-8.012-0.803-11.893,0.758c-13.21,0.179-26.177-2.083-39.184-3.912
		c-3.308-0.525-6.622-1.532-9.919-1.482c-10.679,0.161-21.388-0.391-32.031,0.979c0,0.246-0.014,0.493-0.039,0.738
		c10.666-0.048,21.333-0.122,31.998-0.109c1.278,0.001,3.4-0.622,3.648,0.905c0.337,2.067-1.888,2.556-3.498,2.855
		c-4.244,0.789-8.541,1.289-12.779,2.097c-4.758,0.908-9.799,0.192-14.357,2.416c19.905,0.151,39.254,4.745,58.899,6.645
		c13.176,1.274,26.371,2.236,39.677,1.285c5.586-0.399,11.231-2.696,16.908-0.435C576.788,427.014,574.703,422.504,575.178,418.255z
		"/>
</g>
</svg>
