<svg version="1.1" id="Layer_1" xmlns="http://www.w3.org/2000/svg" xmlns:xlink="http://www.w3.org/1999/xlink" x="0px" y="0px"
	 width="1024.191px" height="1024.191px" viewBox="0 0 1024.191 1024.191" enable-background="new 0 0 1024.191 1024.191"
	 xml:space="preserve">
<path fill="currentColor" d="M714.034,694.809c-115.64,116.221-295.854,105.512-398.13,2.508c-104.875-104.877-112.252-284.302-1.314-396.862
	c111.4-113.03,293.889-109.793,402.465,1.625C822.662,410.45,821.573,586.73,714.034,694.809z"/>
<path fill="#D9A75A" d="M724.177,295.188c-112.4-115.344-301.318-118.695-416.644-1.683
	c-114.846,116.526-107.208,302.272,1.361,410.845c105.88,106.633,292.444,117.718,412.157-2.597
	C832.379,589.867,833.505,407.376,724.177,295.188z M710.004,690.819c-113.3,113.869-289.866,103.377-390.073,2.457
	c-102.753-102.754-109.98-278.548-1.288-388.831c109.146-110.743,287.941-107.571,394.321,1.592
	C816.434,412.216,815.367,584.929,710.004,690.819z"/>
<path fill="currentColor" d="M125.342,689.246c-0.015-6.445-0.029-12.894-0.044-19.334c0.988-3.416,0.581-6.93,0.583-10.396
	c0.013-16.473-0.054-32.942-0.128-49.416c-0.067-14.957,0.528-29.92-0.437-44.864c-0.084-19.271-0.22-38.541-0.243-57.813
	c-0.04-33.403-0.041-66.806,0.001-100.209c0.028-22.099,0.158-44.196,0.243-66.289c0.116-1.142,0.332-2.287,0.334-3.434
	c0.056-31.458,0.145-62.916,0.105-94.374c-0.02-15.956-0.278-31.911-0.429-47.866c0.018-22.265,0.056-44.528,0.024-66.792
	c-0.003-2.521-0.185-4.472,3.486-4.212c14.248,1.008,28.547-0.556,42.764,0.275c13.485,0.789,26.938,0.438,40.401,0.515
	c28.754,0.165,57.517,0.408,86.261-0.141c11.631-0.223,23.269-0.507,34.899-0.473c14.229,0.041,28.459,0.597,42.688,0.592
	c15.466-0.005,30.938-0.835,46.391-0.491c14.131,0.313,28.268,0.882,42.389,0.51c56.105-1.48,112.216-0.463,168.323-0.64
	c49.92-0.157,99.841-0.042,149.762-0.056c36.254-0.01,72.508-0.05,108.762-0.041c9.513,0.003,8.7-1.146,8.7,8.403
	c-0.01,93.479-0.033,186.958-0.053,280.438c-0.012,57.806-0.046,115.61-0.032,173.417c0.018,62.955,0.118,125.91,0.104,188.865
	c-0.013,41.641-0.165,83.279-0.252,124.916c-1.163-0.031-2.329-0.088-3.494-0.088c-102.455-0.021-204.909-0.037-307.364-0.049
	c-122.444-0.017-244.889-0.033-367.333-0.029c-31.815,0-63.63,0.082-95.444,0.125c-0.141-0.193-0.327-0.322-0.555-0.383
	c0.034-0.828,0.091-1.658,0.091-2.488c-0.03-56.432-0.041-112.862-0.115-169.295C125.709,715.169,125.476,702.207,125.342,689.246z
	 M892.817,514.847c0.044-17.469,0.127-34.937,0.126-52.405c0-87.396-0.017-174.791-0.04-262.186
	c-0.006-22.297-0.068-44.595-0.105-66.892c-0.033-2.001-1.489-1.279-2.518-1.285c-15.813-0.099-31.62-0.267-47.433-0.253
	c-27.11,0.023-54.224,0.211-81.336,0.242c-39.923,0.047-79.846,0.056-119.77,0.007c-24.726-0.03-49.448-0.269-74.172-0.278
	c-19.95-0.009-39.9,0.259-59.853,0.267c-24.265,0.01-48.527-0.125-72.794-0.198c-1.309-0.139-2.616-0.398-3.925-0.399
	c-31.445-0.034-62.891-0.048-94.336-0.034c-1.479,0.001-2.953,0.278-4.43,0.427c-12.971,0.074-25.938,0.223-38.906,0.209
	c-51.293-0.056-102.586-0.093-153.877-0.357c-4.993-0.026-6.703,1.002-6.646,6.375c0.319,30.487,0.281,60.979,0.269,91.47
	c-0.045,106.465-0.158,212.93-0.19,319.395c-0.024,79.475,0.033,158.949,0.061,238.424c0.012,33.654,0.117,67.313-0.037,100.967
	c-0.018,4.025,1.183,4.935,4.985,4.855c14.821-0.293,29.647-0.269,44.472-0.359c27.316,0.059,54.632,0.156,81.948,0.16
	c20.818,0,41.636-0.121,62.454-0.188c0.875,0.005,1.751,0.009,2.626,0.013c1.491,0.078,2.981,0.221,4.475,0.223
	c44.158,0.021,88.314,0.049,132.475,0.018c26.485-0.02,52.972-0.141,79.456-0.217c6.211,0.338,12.421,0.429,18.63-0.033
	c8.317,0.084,16.634,0.246,24.951,0.234c29.132-0.043,58.263-0.146,87.396-0.229c1.872-0.013,3.742-0.021,5.615-0.031
	c1.824,0.084,3.648,0.24,5.475,0.24c44.328,0.008,88.655,0.006,132.982-0.013c22.498-0.008,44.997-0.127,67.493,0.017
	c3.71,0.021,5.088-0.947,4.755-4.74c-0.35-3.973-0.231-7.99-0.231-11.99c-0.001-73.149,0.016-146.305,0.017-219.457
	c0.001-23.487-0.031-46.979-0.048-70.471c-0.234-1.604-0.67-3.207-0.674-4.811c-0.057-20.634-0.066-41.267-0.029-61.896
	C892.13,518.058,892.577,516.453,892.817,514.847z"/>
<path fill="#D9A75A" d="M1259.987,180.737c22.892,22.689,36.67,73.146,31.732,114.922c8.246-4.739,15.062-20.366,18.529-43.372
	c11.403,24.939,14.56,49.604,8.03,75.094c-7.067,27.589-25.417,45.637-51.201,58.133c1.166-10.22,0.911-19.711-1.784-28.955
	c-2.699-9.258-7.494-17.771-9.67-27.502c-5.365,10.699-15.349,22.241-12.043,56.39c-23.331-14.654-38.749-33.611-36.963-62.73
	c0.655-10.67,4.483-20.438,8.972-29.946c8.128-17.222,19.217-32.7,29.128-48.871c9.744-15.897,16.349-32.711,15.688-51.757
	C1260.28,188.544,1259.188,184.985,1259.987,180.737z"/>
<path fill-rule="evenodd" clip-rule="evenodd" fill="#D9A75A" d="M611.239,610.113c-17.554,17.555-39.603,31.159-65.54,40.441
	c-65.666,23.5-128.461,14.294-186.64-27.363c-39.78-28.482-66.046-67.641-78.071-116.388
	c-17.223-69.82-4.037-134.523,39.191-192.313c7.75-10.362,16.133-20.068,24.913-28.849c35.969-35.969,80.639-58.647,132.769-67.408
	c0.348-0.059,13.828-0.771,14.373-0.844l24.952-0.289l-22.286,7.774c-3.898,1.185-17.759,6.536-21.59,7.608
	c-7.053,1.974-14.348,4.015-21.244,6.547c-35.277,12.952-65.064,31.42-88.537,54.893c-16.123,16.122-29.68,35.016-40.297,56.159
	c-25.736,51.253-30.357,103.464-13.734,155.182c19.588,60.941,60.127,100.614,120.493,117.917
	c46.986,13.465,91.921,7.246,133.552-18.485c10.373-6.411,19.604-13.633,27.434-21.463c16.775-16.775,27.765-36.976,32.664-60.042
	c9.029-42.516-1.308-77.403-30.723-103.697c-27.539-24.616-59.818-30.522-93.348-17.08c-9.437,3.783-17.736,9.217-24.67,16.15
	c-16.749,16.749-22.883,39.676-16.827,62.904c3.786,14.526,13.843,26.483,27.591,32.807c13.068,6.012,27.709,5.978,40.168-0.096
	c3.611-1.759,6.855-4.066,9.645-6.855c12.23-12.23,13.842-31.398,3.832-45.577c-1.035-1.467-2.513-2.718-4.225-4.166
	c-1.033-0.876-2.104-1.781-3.164-2.815l6.949-9.624c9.746,5.055,16.228,13.534,19.265,25.201
	c4.636,17.824-0.319,36.189-13.255,49.126c-7.492,7.494-17.207,12.695-28.095,15.043c-16.981,3.661-34.493,0.471-49.311-8.984
	c-14.729-9.4-25.48-24.166-30.273-41.578c-8.31-30.192,0.352-61.841,23.171-84.66c4.857-4.857,10.325-9.278,16.254-13.141
	c18.477-12.041,40.085-18.121,62.488-17.582c22.229,0.535,43.626,7.532,61.879,20.236c24.303,16.916,41.922,40.798,50.951,69.065
	c8.866,27.76,8.717,57.238-0.433,85.25c-8.603,26.332-22.149,48.871-40.266,66.988C611.244,610.109,611.24,610.113,611.239,610.113z
	"/>
</svg>
