<svg version="1.1" id="Layer_1" xmlns="http://www.w3.org/2000/svg" xmlns:xlink="http://www.w3.org/1999/xlink" x="0px" y="0px"
	 width="1024.191px" height="1024.19px" viewBox="0 0 1024.191 1024.19" enable-background="new 0 0 1024.191 1024.19"
	 xml:space="preserve">
<path fill-rule="evenodd" clip-rule="evenodd" fill="#333C5D" d="M899.796,126.2c0.054,48.969,0.149,97.938,0.153,146.906
	c0.007,95.109-0.043,190.219-0.061,285.328c-0.021,113.857-0.032,227.716-0.046,341.571c-1.326,0.072-2.653,0.212-3.98,0.212
	c-69.614,0.017-139.229,0.021-208.844,0.026c-93.43,0.006-186.86,0.001-280.291,0.021c-50.129,0.012-100.258,0.065-150.387,0.1
	c-1.899-1.363-1.486-2.649,0.033-4.041c4.744-4.343,9.374-8.813,14.184-13.082c7.995-7.097,16.052-14.127,24.163-21.09
	c10.216-8.768,19.469-18.532,28.902-28.086c14.137-14.318,29.053-27.872,42.248-43.127c5.409-6.254,11.639-11.737,17.076-18.034
	c6.864-7.947,13.807-15.842,20.764-23.714c6.104-6.907,12.039-13.932,17.841-21.085c5.974-7.366,12.218-14.52,18.015-22.021
	c11.62-15.034,23.105-30.179,33.32-46.229c3.553-5.582,7.018-11.219,10.522-16.831c-0.374-0.269-0.749-0.536-1.124-0.804
	c-3.402,4.572-6.86,9.105-10.199,13.725c-15.371,21.265-32.122,41.424-48.811,61.652c-27.961,33.892-58.623,65.204-90.219,95.63
	c-20.771,20.002-42.396,39.077-64.284,57.859c-11.545,9.907-23.143,19.743-34.877,29.416c-2.813-0.096-5.628-0.271-8.444-0.273
	c-33.065-0.032-66.13-0.039-99.196-0.052c-0.051-29.989-0.143-59.979-0.147-89.968c-0.019-115.978-0.023-231.955-0.009-347.934
	c0.01-81.817,0.057-163.636,0.089-245.454c0.012-30.322,0.03-60.646,0.044-90.965c28.982,0.031,57.966,0.091,86.95,0.084
	c114.939-0.029,229.878-0.106,344.817-0.113c92.284-0.005,184.568,0.051,276.853,0.114C856.5,125.958,878.148,126.111,899.796,126.2
	z M197.212,133.86c-18.656,0.088-37.312,0.188-55.968,0.258c-7.135,0.027-7.13-0.004-7.13,7.012
	c-0.005,151.998-0.01,303.996-0.017,455.994c-0.004,96.665,0.016,193.331-0.103,289.996c-0.005,4.01,0.766,5.433,5.086,5.305
	c10.76-0.319,21.537-0.06,32.307-0.058c16.766,0.002,33.532-0.019,50.297-0.028c1.819-0.001,3.615,0.181,5.135-1.296
	c8.274-8.04,16.858-15.779,24.845-24.093c12.368-12.874,24.351-26.119,36.477-39.226c4.371-4.725,8.921-9.312,12.973-14.3
	c8.302-10.22,17.807-19.363,25.95-29.736c7.687-9.793,16.077-19.029,23.939-28.688c6.266-7.697,12.294-15.594,18.254-23.532
	c4.107-5.47,7.918-11.161,11.879-16.779c-1.483-0.877-2.016-0.084-2.536,0.496c-14.175,15.806-28.11,31.833-42.556,47.387
	c-17.645,18.999-34.893,38.392-53.442,56.525c-15.707,15.355-30.459,31.689-47.077,46.114c-1.097,0.951-2.068,2.74-3.684,1.731
	c-1.78-1.111-0.748-3.067-0.248-4.511c2.087-6.025,4.125-12.085,6.591-17.959c3.794-9.036,6.176-18.728,11.945-26.868
	c13.636-19.24,27.2-38.531,41.051-57.615c10.241-14.109,20.86-27.945,31.365-41.863c4.853-6.428,9.833-12.759,14.756-19.134
	c-1.722-0.104-2.932,0.381-3.704,1.253c-4.051,4.575-7.85,9.379-11.996,13.862c-10.69,11.558-20.826,23.591-31.013,35.584
	c-8.675,10.213-17.383,20.398-26.162,30.521c-0.978,1.127-1.953,3.271-3.928,2.274c-2.346-1.185-0.872-3.201-0.354-4.825
	c7.937-24.895,17.208-49.317,26.397-73.76c8.577-22.813,19.579-44.562,31.722-65.64c13.355-23.184,29.08-44.78,45.736-65.764
	c11.268-14.195,22.588-28.359,33.861-42.552c15.634-19.683,30.154-40.06,42.044-62.237c12.405-23.142,21.896-47.139,21.166-74.031
	c-0.084-3.094-0.611-6.173-0.833-9.266c-0.288-4.029,1.586-4.069,4.491-2.427c1.354,0.765,2.32,1.787,3.251,2.995
	c2.632,3.417,5.639,6.48,9.127,9.047c11.351,10.55,21.979,21.728,31.344,34.137c21.217,28.113,35.956,58.61,36.033,94.725
	c0.004,2.004,0.346,3.802,2.232,4.98c2.138-19.636,0.469-38.889-4.81-57.817c-3.264-11.7-8.452-22.704-12.618-34.08
	c-1.248-5.672-2.111-11.457-3.389-17.074c-2.99-13.146-3.953-26.549-4.505-39.804c-0.689-16.573-0.985-33.274,1.674-49.891
	c2.091-13.063,4.893-26.004,9.325-38.294c8.579-23.784,20.222-45.875,40.633-62.228c7.035-5.637,14.484-10.206,22.751-13.597
	c13.239-5.431,26.835-4.715,40.446-2.054c17.014,3.326,33.391,9.006,46.024,21.087c13.31,12.728,28.877,20.944,45.509,27.848
	c26.771,11.111,53.003,23.337,78.016,38.059c1.537,0.904,3.78,1.626,2.839,3.8c-0.882,2.034-3.375,1.347-4.979,1.033
	c-16.395-3.206-32.753-6.598-49.125-9.923c-15.178-3.082-30.427-5.705-45.712-8.234c-16.068-2.66-32.114-4.823-48.348-5.531
	c-12.187-0.531-24.268,0.921-36.301,2.872c-29.833,4.837-44.874,27.723-45.938,55.182c-0.336,8.669,2.315,16.996,2.653,25.559
	c1.148,29.064,0.48,58.127-2.917,86.991c-2.342,19.895-5.603,39.713-10.696,59.189c-7.235,27.669-16.755,54.456-28.873,80.367
	c-14.385,30.756-32.874,59.366-46.753,90.393c-11.185,25.006-19.605,50.785-21.359,78.2c-1.518,23.712,1.018,47.042,9.82,69.508
	c7.828,19.977,18.497,37.965,33.885,53.021c6.535,6.395,13.445,10.937,23.568,10.083c8.329-0.702,16.838,0.141,25.297-0.065
	c16.701-0.407,33.421-0.086,50.133-0.079c21.271,0.009,42.541,0.006,63.811,0.005c47.036-0.004,94.071-0.004,141.107-0.016
	c22.939-0.007,45.879-0.013,68.818-0.106c1.784-0.007,4.42,1.251,4.428-2.673c0.016-7.314,0.748-14.628,0.76-21.942
	c0.083-55.556,0.079-111.111,0.075-166.666c-0.008-105.051-0.041-210.101-0.05-315.15c-0.004-46.996,0.078-93.993,0.02-140.989
	c-0.045-36.44,0.453-72.885-0.617-109.323c-0.059-1.989-0.883-1.675-1.83-1.666c-3.987,0.035-7.974,0.266-11.961,0.268
	c-35.252,0.021-70.505,0.009-105.757,0.008c-26.117-0.001-52.233,0.035-78.351-0.01c-17.154-0.03-34.309-0.176-51.463-0.27
	c-1.644-0.126-3.287-0.36-4.931-0.362c-64.31-0.05-128.619-0.145-192.929-0.067c-16.97,0.021-33.947-0.542-50.911,0.396
	c-2.817,0.104-5.635,0.305-8.452,0.296c-20.935-0.061-41.87-0.162-62.805-0.251c-0.976-0.125-1.951-0.357-2.928-0.359
	c-24.637-0.037-49.274-0.155-73.911-0.029C229.133,133.562,213.166,132.922,197.212,133.86z M500.92,892.249
	c-37.05-42.237-49.412-92.377-50.612-146.481c-2.696,8.982-5.115,17.927-6.333,27.229c-3.226,24.634-3.496,49.115,3.177,73.266
	c3.962,14.341,10.384,27.455,21.494,37.717c3.685,3.403,7.366,7.604,12.627,8.122C487.637,892.728,494.11,892.249,500.92,892.249z
	 M666.101,246.999c-4.172-8.195-14.52-12.582-23.767-10.371c3.94,2.297,5.918,6.851,10.187,8.521
	C656.786,246.819,661.321,246.892,666.101,246.999z"/>
<path fill-rule="evenodd" clip-rule="evenodd" fill="#E9D094" d="M899.796,126.2c-21.648-0.089-43.296-0.242-64.944-0.257
	c-92.284-0.063-184.568-0.119-276.853-0.114c-114.938,0.007-229.878,0.084-344.817,0.113c-28.984,0.007-57.968-0.053-86.95-0.084
	c1.045-1.255,2.467-0.746,3.739-0.746c145.619-0.015,291.239-0.007,436.858-0.012c107.465-0.004,214.93-0.041,322.395,0.038
	C892.727,125.141,896.481,123.882,899.796,126.2z"/>
<path fill-rule="evenodd" clip-rule="evenodd" fill="#E9D094" d="M256.341,900.365c50.129-0.034,100.258-0.088,150.387-0.1
	c93.431-0.021,186.861-0.016,280.291-0.021c69.615-0.005,139.229-0.01,208.844-0.026c1.327,0,2.654-0.14,3.98-0.212
	c-1.423,1.811-3.406,0.949-5.12,0.949c-147.067,0.042-294.136,0.04-441.203,0.044c-63.957,0.002-127.915,0.019-191.872-0.015
	C259.884,900.983,257.98,901.642,256.341,900.365z"/>
<path fill-rule="evenodd" clip-rule="evenodd" fill="#E9D094" d="M126.256,900.179c33.065,0.013,66.131,0.02,99.196,0.052
	c2.816,0.003,5.631,0.178,8.444,0.273c-1.209,0.839-2.579,0.462-3.874,0.463c-33.194,0.036-66.389,0.054-99.583,0.04
	C129.023,901.006,127.416,901.615,126.256,900.179z"/>
<path fill-rule="evenodd" clip-rule="evenodd" fill="none" d="M477.108,394.028c-3.488-2.566-6.495-5.63-9.127-9.047
	c-0.931-1.208-1.897-2.23-3.251-2.995c-2.905-1.643-4.779-1.603-4.491,2.427c0.222,3.093,0.749,6.172,0.833,9.266
	c0.73,26.893-8.761,50.89-21.166,74.031c-11.89,22.178-26.41,42.555-42.044,62.237c-11.273,14.192-22.594,28.356-33.861,42.552
	c-16.656,20.983-32.381,42.58-45.736,65.764c-12.143,21.078-23.145,42.826-31.722,65.64c-9.189,24.442-18.461,48.865-26.397,73.76
	c-0.518,1.624-1.991,3.641,0.354,4.825c1.975,0.997,2.95-1.147,3.928-2.274c8.779-10.123,17.487-20.309,26.162-30.521
	c10.187-11.993,20.322-24.026,31.013-35.584c4.146-4.483,7.945-9.287,11.996-13.862c0.772-0.872,1.982-1.357,3.704-1.253
	c-4.923,6.375-9.903,12.706-14.756,19.134c-10.505,13.918-21.124,27.754-31.365,41.863c-13.851,19.084-27.415,38.375-41.051,57.615
	c-5.769,8.141-8.151,17.832-11.945,26.868c-2.466,5.874-4.504,11.934-6.591,17.959c-0.5,1.443-1.533,3.399,0.248,4.511
	c1.616,1.009,2.587-0.78,3.684-1.731c16.618-14.425,31.37-30.759,47.077-46.114c18.55-18.134,35.798-37.526,53.442-56.525
	c14.445-15.554,28.381-31.581,42.556-47.387c0.521-0.58,1.053-1.373,2.536-0.496c-3.961,5.618-7.771,11.31-11.879,16.779
	c-5.96,7.938-11.988,15.835-18.254,23.532c-7.862,9.659-16.253,18.896-23.939,28.688c-8.144,10.373-17.648,19.517-25.95,29.736
	c-4.052,4.988-8.602,9.575-12.973,14.3c-12.126,13.106-24.108,26.352-36.477,39.226c-7.987,8.313-16.571,16.053-24.845,24.093
	c-1.52,1.477-3.315,1.295-5.135,1.296c-16.766,0.01-33.532,0.03-50.297,0.028c-10.77-0.002-21.547-0.262-32.307,0.058
	c-4.321,0.128-5.091-1.295-5.086-5.305c0.119-96.665,0.099-193.331,0.103-289.996c0.006-151.998,0.012-303.996,0.017-455.994
	c0-7.016-0.005-6.984,7.13-7.012c18.656-0.07,37.312-0.17,55.963-0.258c17.123,0.098,34.25,0.279,51.377,0.27
	c24.449-0.013,48.898-0.167,73.347-0.261c20.935,0.089,41.87,0.19,62.805,0.251c2.817,0.009,5.635-0.192,8.448-0.295
	c1.484,0.104,2.974,0.298,4.462,0.299c66.956,0.007,133.912,0.012,200.869-0.021c14.481-0.008,28.963-0.159,43.443-0.244
	c17.154,0.094,34.309,0.239,51.463,0.27c26.117,0.045,52.233,0.009,78.351,0.01c35.252,0.001,70.505,0.014,105.757-0.008
	c3.987-0.002,7.974-0.232,11.961-0.268c0.947-0.009,1.771-0.323,1.83,1.666c1.07,36.438,0.572,72.883,0.617,109.323
	c0.059,46.996-0.023,93.993-0.02,140.989c0.009,105.05,0.042,210.1,0.05,315.15c0.004,55.555,0.008,111.11-0.075,166.666
	c-0.012,7.314-0.744,14.628-0.76,21.942c-0.008,3.924-2.644,2.666-4.428,2.673c-22.939,0.094-45.879,0.1-68.818,0.106
	c-47.036,0.012-94.071,0.012-141.107,0.016c-21.27,0.001-42.54,0.004-63.811-0.005c-16.712-0.007-33.432-0.328-50.133,0.079
	c-8.459,0.206-16.968-0.637-25.297,0.065c-10.123,0.854-17.033-3.688-23.568-10.083c-15.388-15.056-26.057-33.044-33.885-53.021
	c-8.803-22.466-11.338-45.796-9.82-69.508c1.754-27.415,10.175-53.194,21.359-78.2c13.879-31.026,32.368-59.637,46.753-90.393
	c12.118-25.911,21.638-52.698,28.873-80.367c5.094-19.477,8.354-39.295,10.696-59.189c3.397-28.864,4.065-57.927,2.917-86.991
	c-0.338-8.563-2.989-16.89-2.653-25.559c1.063-27.459,16.104-50.345,45.938-55.182c12.033-1.951,24.114-3.403,36.301-2.872
	c16.233,0.708,32.279,2.871,48.348,5.531c15.285,2.529,30.534,5.152,45.712,8.234c16.372,3.325,32.73,6.717,49.125,9.923
	c1.604,0.313,4.097,1.001,4.979-1.033c0.941-2.174-1.302-2.896-2.839-3.8c-25.013-14.722-51.245-26.947-78.016-38.059
	c-16.632-6.903-32.199-15.12-45.509-27.848c-12.634-12.081-29.011-17.761-46.024-21.087c-13.611-2.661-27.207-3.377-40.446,2.054
	c-8.267,3.391-15.716,7.96-22.751,13.597c-20.411,16.353-32.054,38.443-40.633,62.228c-4.433,12.29-7.234,25.231-9.325,38.294
	c-2.659,16.616-2.363,33.317-1.674,49.891c0.552,13.255,1.515,26.658,4.505,39.804c1.277,5.617,2.141,11.402,3.389,17.073
	c-0.352,0.499-0.744,1.458-1.047,1.431c-4.563-0.413-13.074-10.678-12.99-15.54c2.133-2.55,1.138-5.623,0.595-8.125
	c-4.822-22.235-5.763-45.004-9.566-67.388c-3.556-20.918-8.077-41.556-15.331-61.466c-8.209-22.53-20.814-42.109-39.804-57.407
	c-12.532-10.096-26.504-16.265-42.422-16.267c-29.808-0.002-55.544,10.568-76.463,32.146c-2.518,2.597-5.342,4.903-8.585,6.373
	c-16.293,7.384-32.722,14.468-49.005,21.871c-18.925,8.604-37.595,17.724-55.47,28.402c-1.762,1.052-2.533,2.212-1.984,3.931
	c0.665,2.079,2.55,1.086,3.817,0.847c6.452-1.22,12.875-2.596,19.302-3.945c24.619-5.172,49.272-10.104,74.133-14.071
	c17.032-2.719,34.119-4.488,51.294-5.468c10.98-0.626,21.818,1.087,32.74,2.567c26.067,3.532,40.752,18.7,48.664,41.349
	c3.142,8.994,4.633,18.361,7.173,27.477c2.39,8.581,7.548,15.705,13.838,21.696c5.213,4.965,11.182,9.153,15.992,14.602
	C481.039,389.578,478.267,390.675,477.108,394.028z"/>
<path fill-rule="evenodd" clip-rule="evenodd" fill="none" d="M500.92,892.249c-6.811,0-13.283,0.479-19.647-0.148
	c-5.261-0.519-8.942-4.719-12.627-8.122c-11.11-10.262-17.532-23.376-21.494-37.717c-6.673-24.15-6.402-48.632-3.177-73.266
	c1.218-9.302,3.637-18.246,6.333-27.229C451.508,799.872,463.871,850.012,500.92,892.249z"/>
<path fill-rule="evenodd" clip-rule="evenodd" fill="#E9D094" d="M477.108,394.028c1.159-3.354,3.931-4.45,7.062-5.043
	c2.203-0.466,2.495,1.813,3.692,2.725c10.972,8.354,19.497,18.976,27.391,30.152c-0.084,4.862,8.427,15.127,12.99,15.54
	c0.303,0.027,0.695-0.932,1.047-1.431c4.166,11.377,9.354,22.381,12.618,34.081c5.278,18.929,6.947,38.182,4.81,57.817
	c-1.887-1.179-2.229-2.977-2.232-4.98c-0.077-36.114-14.816-66.611-36.033-94.725C499.086,415.756,488.458,404.578,477.108,394.028z
	"/>
<path fill-rule="evenodd" clip-rule="evenodd" fill="#E9D094" d="M641.959,133.858c-14.48,0.085-28.962,0.236-43.443,0.244
	c-66.957,0.033-133.913,0.028-200.869,0.021c-1.488-0.001-2.978-0.195-4.462-0.299c16.968-0.938,33.945-0.376,50.915-0.396
	c64.31-0.077,128.619,0.018,192.929,0.067C638.672,133.498,640.316,133.732,641.959,133.858z"/>
<path fill-rule="evenodd" clip-rule="evenodd" fill="none" d="M666.101,246.999c-4.78-0.107-9.315-0.18-13.58-1.85
	c-4.269-1.671-6.246-6.225-10.187-8.521C651.582,234.417,661.929,238.804,666.101,246.999z"/>
<path fill-rule="evenodd" clip-rule="evenodd" fill="#E9D094" d="M321.932,133.869c-24.449,0.094-48.898,0.248-73.347,0.261
	c-17.127,0.01-34.254-0.172-51.377-0.27c15.958-0.938,31.925-0.299,47.885-0.38c24.637-0.126,49.274-0.008,73.911,0.029
	C319.981,133.512,320.957,133.744,321.932,133.869z"/>
<path fill-rule="evenodd" clip-rule="evenodd" fill="#333C5D" d="M515.252,421.862c-7.894-11.177-16.419-21.799-27.391-30.152
	c-1.197-0.912-1.489-3.19-3.692-2.725c-4.811-5.448-10.779-9.637-15.992-14.602c-6.29-5.991-11.448-13.115-13.838-21.696
	c-2.54-9.115-4.031-18.482-7.173-27.477c-7.912-22.648-22.597-37.816-48.664-41.349c-10.922-1.48-21.76-3.193-32.74-2.567
	c-17.175,0.979-34.262,2.749-51.294,5.468c-24.86,3.968-49.514,8.899-74.133,14.071c-6.427,1.35-12.85,2.726-19.302,3.945
	c-1.267,0.239-3.152,1.232-3.817-0.847c-0.549-1.719,0.223-2.879,1.984-3.931c17.875-10.679,36.545-19.798,55.47-28.402
	c16.283-7.403,32.712-14.487,49.005-21.871c3.243-1.47,6.067-3.776,8.585-6.373c20.919-21.577,46.655-32.147,76.463-32.146
	c15.918,0.002,29.89,6.171,42.422,16.267c18.989,15.298,31.595,34.877,39.804,57.407c7.254,19.91,11.775,40.548,15.331,61.466
	c3.804,22.384,4.744,45.152,9.566,67.388C516.39,416.239,517.385,419.313,515.252,421.862z M359.268,246.468
	c14.118-0.168,19.301-2.501,23.095-10.215C372.343,234.177,365.135,238.833,359.268,246.468z"/>
<path fill-rule="evenodd" clip-rule="evenodd" fill="none" d="M359.267,246.466c5.868-7.633,13.076-12.289,23.096-10.213
	C378.569,243.967,373.386,246.3,359.267,246.466z"/>
</svg>
