<svg version="1.1" id="Layer_1" xmlns="http://www.w3.org/2000/svg" xmlns:xlink="http://www.w3.org/1999/xlink" x="0px" y="0px"
	 width="1024.191px" height="1024.191px" viewBox="0 0 1024.191 1024.191" enable-background="new 0 0 1024.191 1024.191"
	 xml:space="preserve">
<path fill="currentColor" d="M612.553,497.29c-14.511-21.119-34.248-35.373-58.392-43.578c-16.453-5.593-33.419-7.466-50.737-6.087
	c-14.133,1.126-27.779,4.36-40.799,9.958c-21.604,9.29-39.442,23.235-52.39,43.079c-9.145,14.016-14.972,29.256-16.539,45.979
	c-1.801,19.229,1.706,37.537,10.251,54.819c9.479,19.171,23.328,34.492,41.378,45.981c15.585,9.918,32.548,16.002,50.904,18.165
	c4.97,0.587,9.956,0.865,14.964,0.827c13.302,0.122,26.292-1.832,38.953-5.945c24.543-7.978,44.637-22.244,60.017-42.957
	c11.915-16.048,19.062-34.051,20.508-54.07C632.419,539.317,626.248,517.222,612.553,497.29z"/>
<path fill="currentColor" d="M125.342,689.246c-0.015-6.445-0.029-12.893-0.044-19.334c0.988-3.416,0.581-6.93,0.583-10.396
	c0.013-16.473-0.054-32.943-0.128-49.416c-0.067-14.957,0.528-29.92-0.437-44.865c-0.084-19.271-0.22-38.541-0.243-57.812
	c-0.04-33.403-0.041-66.806,0.001-100.209c0.028-22.099,0.158-44.196,0.243-66.289c0.116-1.142,0.332-2.287,0.334-3.434
	c0.056-31.458,0.145-62.916,0.105-94.374c-0.02-15.956-0.278-31.911-0.429-47.866c0.018-22.265,0.056-44.528,0.024-66.792
	c-0.003-2.521-0.185-4.472,3.486-4.212c14.248,1.008,28.547-0.556,42.764,0.275c13.485,0.789,26.938,0.438,40.401,0.515
	c28.754,0.165,57.517,0.408,86.261-0.141c11.631-0.223,23.268-0.507,34.899-0.473c14.229,0.041,28.459,0.597,42.688,0.592
	c15.465-0.005,30.938-0.835,46.39-0.491c14.131,0.313,28.268,0.882,42.389,0.51c56.105-1.48,112.216-0.463,168.323-0.64
	c49.92-0.157,99.841-0.042,149.762-0.056c36.254-0.01,72.508-0.05,108.762-0.041c9.512,0.003,8.7-1.146,8.7,8.403
	c-0.01,93.479-0.033,186.958-0.053,280.438c-0.012,57.806-0.046,115.61-0.032,173.417c0.017,62.955,0.118,125.91,0.103,188.865
	c-0.012,41.641-0.165,83.279-0.252,124.916c-1.163-0.031-2.329-0.088-3.494-0.088c-102.455-0.02-204.909-0.037-307.364-0.049
	c-122.444-0.016-244.889-0.033-367.333-0.029c-31.815,0-63.63,0.082-95.444,0.125c-0.141-0.193-0.327-0.322-0.555-0.383
	c0.034-0.828,0.091-1.658,0.091-2.488c-0.03-56.432-0.041-112.863-0.115-169.295C125.709,715.169,125.476,702.207,125.342,689.246z
	 M892.817,514.847c0.044-17.469,0.127-34.937,0.126-52.406c0-87.396-0.016-174.79-0.04-262.185
	c-0.006-22.297-0.068-44.595-0.105-66.892c-0.033-2.001-1.489-1.279-2.518-1.285c-15.812-0.099-31.62-0.267-47.432-0.253
	c-27.111,0.023-54.224,0.211-81.336,0.242c-39.923,0.047-79.846,0.056-119.77,0.007c-24.725-0.03-49.448-0.269-74.172-0.278
	c-19.95-0.009-39.9,0.259-59.852,0.267c-24.265,0.01-48.528-0.125-72.794-0.198c-1.309-0.139-2.616-0.398-3.925-0.399
	c-31.445-0.034-62.891-0.048-94.336-0.034c-1.478,0.001-2.953,0.278-4.43,0.427c-12.97,0.074-25.938,0.223-38.906,0.209
	c-51.293-0.056-102.586-0.093-153.877-0.357c-4.993-0.026-6.703,1.002-6.646,6.375c0.319,30.487,0.281,60.979,0.269,91.47
	c-0.045,106.465-0.158,212.93-0.19,319.395c-0.024,79.475,0.033,158.949,0.061,238.424c0.012,33.654,0.117,67.313-0.037,100.967
	c-0.018,4.025,1.183,4.934,4.985,4.855c14.821-0.293,29.647-0.268,44.472-0.359c27.316,0.059,54.632,0.156,81.948,0.16
	c20.818,0,41.636-0.121,62.454-0.188c0.875,0.004,1.751,0.008,2.626,0.012c1.491,0.078,2.981,0.221,4.474,0.223
	c44.158,0.02,88.315,0.049,132.475,0.018c26.485-0.02,52.971-0.141,79.456-0.217c6.211,0.338,12.421,0.428,18.63-0.033
	c8.317,0.084,16.634,0.246,24.951,0.234c29.132-0.043,58.263-0.146,87.396-0.229c1.872-0.012,3.743-0.021,5.616-0.031
	c1.824,0.084,3.648,0.24,5.474,0.24c44.328,0.008,88.655,0.006,132.983-0.012c22.498-0.008,44.997-0.127,67.493,0.016
	c3.71,0.021,5.088-0.947,4.755-4.74c-0.35-3.973-0.232-7.99-0.232-11.99c-0.001-73.15,0.016-146.305,0.017-219.457
	c0.001-23.488-0.031-46.979-0.048-70.471c-0.234-1.604-0.67-3.207-0.674-4.811c-0.057-20.633-0.066-41.266-0.029-61.896
	C892.13,518.058,892.577,516.453,892.817,514.847z"/>
<g>
	<path fill-rule="evenodd" clip-rule="evenodd" fill="currentColor" d="M376.247,424.591c-15.563-5.833-31.149-11.609-46.685-17.517
		c-15.973-6.074-31.89-12.292-47.842-18.419c-8.939-3.433-17.9-6.809-27.931-10.621c7.24-2.687,13.486-5.106,19.802-7.329
		c35.255-12.41,70.545-24.721,105.787-37.169c27.073-9.563,54.088-19.29,81.138-28.922c16.277-5.797,32.573-11.545,48.854-17.331
		c1.567-0.557,2.984-1.054,4.77-0.405c22.395,8.137,44.804,16.235,67.244,24.247c24.326,8.686,48.675,17.306,73.037,25.89
		c36.674,12.92,73.369,25.776,110.044,38.694c1.679,0.591,3.24,1.51,5.308,2.49c-11.77,4.558-23.145,8.958-34.516,13.366
		c-26.079,10.111-52.6,19.063-78.401,29.902c-2.659,1.117-5.372,2.105-8.063,3.154c-9.941,2.112-19.179,6.348-28.66,9.772
		c-34.557,12.481-68.976,25.345-103.423,38.129c-2.623,0.974-4.884,1.079-7.614,0.057c-21.255-7.96-42.575-15.75-63.892-23.545
		c-15.299-5.595-30.598-11.192-45.948-16.641C391.626,429.686,384.335,425.955,376.247,424.591z"/>
	<path fill-rule="evenodd" clip-rule="evenodd" fill="currentColor" d="M603.609,453.597c25.027-9.332,50.026-18.739,75.09-27.974
		c23.141-8.525,46.346-16.875,69.531-25.279c6.948-2.518,13.912-4.992,20.896-7.409c2.193-0.759,3.594-0.665,3.571,2.533
		c-0.145,20.483-0.141,40.969-0.007,61.453c0.017,2.619-1.321,3.511-3.226,4.249c-22.72,8.804-45.459,17.553-68.165,26.39
		c-17.717,6.895-35.808,12.82-53.157,20.68c-2.281,1.033-5.19,0.628-7.393,2.301c-4.797,0.084-8.907,2.49-13.225,4.069
		c-37.203,13.61-74.368,27.326-111.517,41.086c-2.184,0.81-4.046,0.85-6.221,0.038c-9.74-3.635-19.547-7.094-29.31-10.668
		c-27.51-10.07-54.967-20.287-82.541-30.178c-8.094-2.902-15.838-6.938-24.492-8.184c-8.756-3.321-17.517-6.632-26.268-9.967
		c-27.29-10.399-54.577-20.808-81.863-31.219c-0.307-0.117-0.578-0.324-0.867-0.487c-3.979-2.241-9.886-1.917-12.181-5.65
		c-2.295-3.734-0.633-9.056-0.656-13.676c-0.084-16.479-0.035-32.96-0.036-49.44c0-1.448,0-2.897,0-4.789
		c17.059,6.214,33.571,12.224,50.081,18.242c16.006,5.834,32.016,11.658,48.012,17.52c23.936,8.771,47.861,17.571,71.792,26.358
		c4.028,1.991,8.486,2.874,12.571,4.572c24.537,10.199,49.638,18.9,74.435,28.403c3.288,1.261,6.28,1.188,9.583-0.124
		c10.348-4.111,20.806-7.944,31.202-11.933C567.378,467.562,585.49,460.572,603.609,453.597z"/>
	<path fill-rule="evenodd" clip-rule="evenodd" fill="currentColor" d="M606.795,534.661c10.749-3.759,21.646-7.146,32.211-11.366
		c14.75-5.893,29.724-11.14,44.646-16.548c28.676-10.396,57.351-20.794,85.991-31.287c2.508-0.919,3.062-0.638,3.047,2.112
		c-0.109,20.652-0.11,41.306,0.004,61.958c0.012,2.235-0.744,3.257-2.664,3.994c-20.952,8.046-41.884,16.148-62.834,24.2
		c-20.806,7.996-41.627,15.951-62.442,23.925c-1.612-0.466-2.905,0.485-4.28,0.997c-40.711,15.131-81.424,30.257-122.106,45.461
		c-3.26,1.218-6.164,1.43-9.55,0.179c-36.357-13.441-72.744-26.804-109.184-40.019c-9.339-3.388-18.407-7.628-28.248-9.545
		c-11.036-4.284-22.056-8.611-33.11-12.845c-19.899-7.619-39.831-15.153-59.726-22.784c-8.021-3.076-15.93-6.45-23.998-9.395
		c-2.3-0.84-3.036-1.841-3.026-4.211c0.079-20.152,0.104-40.305-0.018-60.457c-0.023-3.949,1.366-3.858,4.462-2.739
		c18.164,6.571,36.43,12.862,54.591,19.44c19.625,7.106,39.184,14.396,58.752,21.658c17.05,6.328,34.071,12.735,51.116,19.078
		c0.601,0.224,1.319,0.128,1.985,0.182c0.723,0.383,1.411,0.848,2.167,1.135c27.485,10.42,55.008,20.744,82.436,31.316
		c4.007,1.545,7.46,1.708,11.461,0.175c28.229-10.814,56.522-21.462,84.788-32.184C604.615,536.58,606.252,536.386,606.795,534.661z
		"/>
	<path fill-rule="evenodd" clip-rule="evenodd" fill="currentColor" d="M601.752,618.851c9.799-2.452,19.139-6.267,28.579-9.755
		c22.646-8.368,45.198-16.994,67.851-25.347c23.342-8.606,46.769-16.979,70.126-25.544c3.017-1.106,4.409-1.155,4.381,2.789
		c-0.144,20.323-0.093,40.647-0.012,60.972c0.009,2.257-0.436,3.133-2.854,4.09c-24.524,9.71-49.341,18.634-74.03,27.898
		c-30.258,11.354-60.376,23.081-90.67,34.336c-29.887,11.104-59.871,21.947-89.485,33.763c-4.277,1.706-7.496-0.728-10.761-1.94
		c-31.965-11.88-63.859-23.944-95.915-35.587c-23.666-8.595-47.006-18.082-70.567-26.969c-26.834-10.121-53.71-20.137-80.677-29.894
		c-4.694-1.698-6.407-3.717-6.296-8.938c0.404-18.982,0.223-37.979,0.099-56.97c-0.025-3.832,0.494-4.885,4.674-3.321
		c20.279,7.584,40.729,14.71,61.058,22.164c18.94,6.944,37.799,14.114,56.705,21.154c17.8,6.628,35.615,13.217,53.426,19.823
		c0.408,0.291,0.772,0.688,1.224,0.857c26.802,10.089,53.618,20.137,80.406,30.264c2.822,1.066,5.376,1.029,8.189-0.058
		c25.469-9.842,50.97-19.597,76.462-29.377C596.558,622.153,599.627,621.367,601.752,618.851z"/>
</g>
<g>
	<g>
		<path fill="#CAA45D" d="M461.807,635.54c-2.026-1.112-4.019-2.29-5.949-3.518c-15.469-9.848-27.4-23.104-35.459-39.403
			c-7.326-14.813-10.27-30.55-8.75-46.772c1.275-13.613,6.026-26.808,14.124-39.217c10.591-16.233,25.711-28.656,44.94-36.926
			c10.925-4.696,22.732-7.578,35.096-8.563c3.118-0.249,6.25-0.375,9.308-0.375c10.292,0,20.367,1.426,30.012,4.244
			c-4.871,1.672-9.622,3.188-14.536,4.283c-2.794,0.625-4.388,2.46-4.741,5.454c-0.297,2.458,0.743,4.435,2.742,5.471
			c-4.917-0.84-9.935-1.263-15.014-1.263c-2.501,0-5.06,0.103-7.607,0.305c-6.897,0.55-13.628,1.83-20.015,3.803
			c-0.268,0.011-1.773,0.078-1.773,0.078l-0.807,0.554c-0.227,0.157-0.481,0.313-0.786,0.485c-1.395,0.493-2.8,1.031-4.183,1.601
			c-0.437,0.113-0.87,0.215-1.289,0.308l-0.436,0.095l-0.396,0.203c-2.377,1.217-5.052,1.859-7.886,2.538
			c-1.754,0.42-3.568,0.854-5.376,1.445l-1.727,0.544c-2.229,0.702-4.456,1.404-6.688,2.093l-0.066,0.021
			c-1.668,0.516-6.747,2.083-5.504,7.804l0.46,2.115l1.694,0.395c-4.184,4.06-7.906,8.577-11.107,13.483
			c-6.744,10.336-10.704,21.364-11.773,32.777c-1.27,13.556,1.186,26.699,7.302,39.068c6.669,13.487,16.539,24.456,29.333,32.599
			c0.77,0.49,1.558,0.972,2.358,1.448C466.41,628.132,464.628,632.292,461.807,635.54z"/>
		<path fill="#CAA45D" d="M563.056,605.89c-0.09-2.74-0.219-5.502-0.343-8.181c-0.051-1.101-0.102-2.201-0.149-3.302
			c-1.44-32.203-2.104-61.866-2.02-90.446c3.306,2.56,6.386,5.422,9.202,8.554c8.614,9.583,14.038,20.745,16.125,33.174
			c2.176,12.974,0.329,25.661-5.492,37.709C576.269,591.91,570.454,599.455,563.056,605.89z"/>
		<path fill="#CAA45D" d="M468.052,611.623c-10.55-7.095-18.668-16.525-24.167-28.088c-5.93-12.468-7.681-25.55-5.205-38.882
			c1.284-6.916,3.766-13.459,7.377-19.45l0.188-0.311l0.064-0.188l0.137-0.131l0.786-1.381l0.276-0.408l1.002-1.547
			c2.362-3.721,5.386-7.35,9.261-11.118c0.908-0.883,1.851-1.747,2.849-2.609c2.998,2.467,4.56,5.799,4.757,10.123l0.36,7.868
			C467.034,553.732,468.375,582.905,468.052,611.623z"/>
		<path fill="#CAA45D" d="M513.478,648.33c-0.339,0-0.679-0.001-1.018-0.005c0,0-0.577,0.004-0.835,0.004
			c-3.999,0-8.058-0.241-12.065-0.714c-6.586-0.774-13.038-2.161-19.27-4.139c5.333-2.092,10.665-4.186,15.997-6.28l2.34-0.918
			c0.144-0.058,0.296-0.108,0.446-0.163c0.712-0.253,2.096-0.745,3.142-1.86c2.895,0.298,5.816,0.45,8.701,0.45
			c0.202,0,0.403-0.001,0.604-0.004c0.269,0.004,0.809,0.005,0.813,0.005c9.124,0,18.109-1.417,26.704-4.211
			c17.393-5.652,31.675-15.876,42.449-30.388c8.683-11.694,13.593-24.653,14.596-38.518c1.229-17.021-3.11-32.877-12.899-47.123
			c-6.091-8.866-13.676-16.235-22.563-21.93c0.009-1.008,0.021-2.018,0.031-3.027c0.084-6.784,1.678-12.115,4.858-16.211
			c13.703,7.312,25.125,17.531,33.973,30.408c11.74,17.089,16.947,36.094,15.474,56.489c-1.199,16.58-7.093,32.108-17.521,46.153
			c-13.07,17.604-30.406,30.01-51.525,36.874C535.477,646.611,524.564,648.33,513.478,648.33
			C513.479,648.33,513.479,648.33,513.478,648.33z"/>
		<path fill="#CAA45D" d="M511.339,624.948c-7.34,0-14.564-1.033-21.493-3.07c-0.481-0.768-0.858-1.717-1.126-2.841
			c-0.844-3.532-1.728-7.692-1.89-11.746c-0.945-23.892-1.724-48.17-2.474-71.733c5.522,7.41,10.577,15.286,15.489,22.942
			c1.279,1.991,2.557,3.983,3.844,5.97c2.318,3.58,4.641,7.256,6.889,10.812c8.697,13.762,17.689,27.991,28.865,40.559l0.36,0.406
			c0.777,0.874,1.583,1.783,2.465,2.628c-6.287,2.628-12.988,4.423-20,5.346c-3.675,0.483-7.351,0.729-10.927,0.729
			C511.34,624.948,511.339,624.948,511.339,624.948z"/>
		<path fill="#CAA45D" d="M543.865,564.047c-0.51-0.71-0.982-1.414-1.438-2.106c-13.097-19.897-25.778-40.557-38.044-60.536
			c-2.054-3.347-4.109-6.693-6.166-10.037c-0.282-0.456-0.577-0.926-0.891-1.398c0.657-0.116,1.32-0.225,1.991-0.327l0.146-0.022
			l0.143-0.035c1.282-0.309,2.638-0.502,4.146-0.592l0.161-0.009l0.159-0.025c2.562-0.395,5.345-0.588,8.51-0.588
			c2.675,0,5.355,0.14,7.391,0.26c2.355,0.14,4.42,0.396,6.314,0.784c0.7,0.143,1.399,0.294,2.1,0.445l1.188,0.255l0.18,0.019
			c2.219,0.234,4.429,0.916,6.767,1.638l0.5,0.154c1.25,0.384,2.527,0.813,3.818,1.284c1.557,17.014,2.525,34.747,2.962,54.203
			C543.925,552.857,543.896,558.296,543.865,564.047z"/>
	</g>
</g>
</svg>
