<?xml version="1.0" encoding="utf-8"?>
<!-- Generator: Adobe Illustrator 16.0.0, SVG Export Plug-In . SVG Version: 6.00 Build 0)  -->
<!DOCTYPE svg PUBLIC "-//W3C//DTD SVG 1.1//EN" "http://www.w3.org/Graphics/SVG/1.1/DTD/svg11.dtd">
<svg version="1.1" id="Layer_1" xmlns="http://www.w3.org/2000/svg" xmlns:xlink="http://www.w3.org/1999/xlink" x="0px" y="0px"
	 width="1024.191px" height="1024.191px" viewBox="0 0 1024.191 1024.191" enable-background="new 0 0 1024.191 1024.191"
	 xml:space="preserve">
<path fill="#735724" d="M629.325,522.08c3.492-0.502,9.698,4.828,9.565,8.826c-0.065,2.02,0.295,3.842,0.761,5.646
	c0.61,2.377,0.113,4.51-1.573,5.867c-5.012,4.033-9.725,8.691-16.503,9.768c-1.699,0.268-1.793,2.336-3.277,2.811
	c-1.04-2.557-3.566-4.316-3.892-7.252c2.554-3.33,6.285-4.531,10.08-5.748c5.105-1.637,6.572-6.426,3.457-10.775
	C628.758,528.23,631.512,525.529,629.325,522.08z"/>
<path fill="#C0982A" d="M627.943,531.222c3.115,4.352,1.648,9.141-3.457,10.775c-3.795,1.217-7.526,2.418-10.08,5.748
	c-2.457-4.135-1.151-7.148,2.888-9.158C621.208,536.638,624.733,534.169,627.943,531.222z"/>
<g>
	<path fill="currentColor" d="M126.84,638.355c-0.013-3.828-0.025-7.654-0.038-11.479c0.077-1.82,0.222-3.643,0.222-5.465
		c0.028-76.729,0.063-153.455,0.048-230.183c-0.004-23.291-0.153-46.583-0.235-69.874c0.074-15.847-1.71-31.693-0.002-47.537
		c0.079-0.652,0.229-1.309,0.228-1.965c-0.07-47.06-0.148-94.118-0.258-141.177c-0.003-1.451,0.369-3.006-0.604-4.344
		c0.036-0.456,0.072-0.912,0.105-1.365c1.495-0.052,2.992-0.155,4.489-0.153c33.162,0.041,66.324,0.135,99.485,0.135
		c94.658,0.002,189.314-0.039,283.972-0.051c83.99-0.011,167.98-0.001,251.972-0.01c42.829-0.004,85.657,0.021,128.486-0.125
		c3.729-0.013,4.881,0.955,4.777,4.714c-0.133,4.774-0.703,9.621,0.505,14.369c-1.905,6.915-1.042,14.001-0.666,20.935
		c0.245,4.53,0.287,9.027,0.249,13.54c-0.039,1.493-0.106,2.99-0.106,4.488c-0.016,98.556-0.027,197.112-0.009,295.668
		c0,1.786-0.454,3.664,0.549,5.365c-1.148,2.661-0.938,5.399-0.677,8.207c1.025,11.063,0.313,22.161,0.091,33.223
		c-0.073,3.656,0.544,7.193,0.487,10.822c-0.215,13.596-0.572,27.188-0.195,40.795c0.271,9.787-0.424,19.6-0.591,29.398
		c-0.101,5.93-0.09,11.861-0.003,17.791c1.286,87.945,0.453,175.895,0.818,263.844c0.009,1.832-0.179,3.688,0.038,5.494
		c0.535,4.475-1.536,5.732-5.747,5.691c-19.317-0.197-38.64-0.223-57.959-0.223c-62.481-0.002-124.966,0.057-187.447,0.047
		c-122.133-0.016-244.266-0.088-366.397-0.084c-49.972,0.002-99.945,0.094-149.917,0.314c-4.174,0.018-5.796-0.635-5.58-5.316
		c0.4-8.641-0.007-17.318-0.079-25.979c0.072-1.318,0.208-2.643,0.207-3.965c-0.013-49.74-0.026-99.48-0.068-149.223
		C126.969,689.24,126.892,663.796,126.84,638.355z M892.67,893.277c0.229-4.121,0.656-8.242,0.659-12.361
		c0.029-43.826-0.02-87.65-0.027-131.475c-0.041-204.293-0.088-408.587-0.03-612.88c0.003-4.129-0.62-5.609-5.311-5.589
		c-51.712,0.23-103.426,0.188-155.14,0.197c-32.106,0.006-64.213-0.033-96.319-0.038c-22.723-0.004-45.445,0.018-68.169,0.024
		c-13.547,0.004-27.095,0.004-40.642-0.001c-13.891-0.004-27.778-0.079-41.668-0.012c-36.941,0.177-73.894-0.655-110.819,0.943
		c-5.675,0.246-11.229-0.677-16.844-0.967c-9.486-0.491-18.883,1.287-28.349,0.905c-5.783-0.233-11.559-0.86-17.339-0.884
		c-22.216-0.09-44.433-0.002-66.648,0.01c-21.226,0.012-42.452,0.018-63.678,0.014c-14.83-0.003-29.661-0.067-44.491,0.015
		c-1.651,0.009-3.704-1.011-4.982,1.063c-1.047,2.386-0.594,4.913-0.605,7.372c-0.068,13.829-0.063,27.658-0.062,41.488
		c0.008,133.294,0.026,266.588,0.028,399.883c0.001,98.971-0.031,197.941,0.01,296.914c0.002,4.943-0.668,9.945,0.648,14.844
		c1.344,1.063,2.894,0.5,4.365,0.551c1.641,0.146,3.283,0.418,4.924,0.42c55.972,0.07,111.943,0.146,167.915,0.156
		c77.465,0.018,154.931,0.012,232.396-0.063c9.806-0.01,19.628,0.426,29.421-0.492c1.115,0.002,2.229,0.004,3.344,0.006
		c2.14,0.156,4.279,0.453,6.419,0.455c95.55,0.072,191.101,0.16,286.649,0.098C876.432,893.869,884.586,894.621,892.67,893.277z"/>
	<path fill="currentColor" d="M899.993,143.847c-1.208-4.748-0.638-9.595-0.505-14.369c0.104-3.759-1.047-4.727-4.777-4.714
		c-42.829,0.146-85.657,0.121-128.486,0.125c-83.99,0.009-167.98-0.001-251.972,0.01c-94.657,0.012-189.313,0.053-283.972,0.051
		c-33.162,0-66.324-0.094-99.485-0.135c-1.498-0.002-2.995,0.102-4.489,0.153c1.317-1.565,3.109-0.894,4.686-0.894
		c159.665,0.002,319.329,0.051,478.994,0.063c94.665,0.007,189.33,0.011,283.995-0.194c5.249-0.011,6.719,1.464,6.238,6.421
		C899.788,134.823,900.042,139.35,899.993,143.847z"/>
	<path fill="currentColor" d="M900.009,483.844c-1.003-1.701-0.549-3.579-0.549-5.364c-0.021-98.558-0.007-197.113,0.009-295.669
		c0-1.498,0.067-2.995,0.106-4.488c0.961,1.172,0.56,2.56,0.56,3.85c0.021,99.895,0.021,199.789,0.018,299.685
		C900.152,482.518,900.059,483.181,900.009,483.844z"/>
	<path fill="currentColor" d="M126.837,321.355c0.083,23.291,0.231,46.583,0.235,69.874c0.015,76.728-0.02,153.454-0.048,230.183
		c0,1.822-0.145,3.645-0.222,5.465c-1.125-1.68-0.591-3.568-0.591-5.352c-0.013-98.275,0.002-196.551,0.047-294.825
		C126.259,324.92,125.699,323.031,126.837,321.355z"/>
	<path fill="currentColor" d="M126.84,638.355c0.052,25.441,0.129,50.885,0.151,76.328c0.042,49.74,0.055,99.48,0.068,149.223
		c0,1.322-0.135,2.646-0.207,3.965c-1.104-1.494-0.639-3.223-0.64-4.842c-0.018-73.277-0.009-146.557,0.028-219.834
		C126.242,641.58,125.734,639.851,126.84,638.355z"/>
	<path fill="currentColor" d="M126.201,126.333c0.974,1.338,0.601,2.893,0.604,4.344c0.11,47.059,0.188,94.117,0.258,141.177
		c0.001,0.656-0.149,1.313-0.228,1.965c-0.959-1.161-0.604-2.548-0.605-3.841c-0.071-47.386-0.123-94.771-0.17-142.158
		C126.06,127.324,126.152,126.829,126.201,126.333z"/>
	<path fill="currentColor" d="M132.875,132.243c0.054,28.477,0.153,56.952,0.156,85.428c0.025,223.866,0.032,447.731,0.038,671.596
		c0,1.162-0.11,2.322-0.171,3.48c-1.319-4.9-0.648-9.902-0.651-14.848c-0.042-98.973-0.009-197.943-0.01-296.914
		c-0.002-133.294-0.021-266.589-0.028-399.883c-0.001-13.83-0.006-27.659,0.062-41.488
		C132.281,137.156,131.828,134.629,132.875,132.243z"/>
	<path fill="currentColor" d="M137.26,893.294c22.31-0.07,44.62-0.199,66.929-0.205c121.09-0.033,242.179-0.037,363.269-0.037
		c1.489,0,2.979,0.172,4.463,0.264c-9.799,0.918-19.621,0.482-29.427,0.492c-77.465,0.074-154.93,0.08-232.396,0.064
		c-55.972-0.012-111.942-0.086-167.915-0.156C140.542,893.712,138.901,893.441,137.26,893.294z"/>
	<path fill="currentColor" d="M575.258,893.322c14.489-0.09,28.979-0.254,43.467-0.258c90.492-0.025,180.983-0.02,271.477-0.012
		c0.826,0,1.65,0.145,2.474,0.223c-8.088,1.346-16.242,0.594-24.348,0.6c-95.55,0.064-191.101-0.025-286.649-0.098
		C579.538,893.775,577.398,893.48,575.258,893.322z"/>
	<path fill="currentColor" d="M629.325,522.08c-2.97-6.455-10.001-8.207-14.771-12.645c-9.345-8.692-15.837-18.859-19.36-31.089
		c-2.427-8.416-0.313-16.618,0.667-24.881c2.434-20.498,3.479-40.708-11.196-58.069c-2.685,2.325-1.624,5.815-2.317,8.623
		c-4.21,17.061-12.013,32.079-24.377,44.563c-11.733,11.846-26.581,18.276-42.093,23.493c-12.104,4.071-23.455,9.735-32.766,18.596
		c-11.46,10.904-17.955,24.444-20.089,40.198c-3.033,22.412,1.146,43.088,13.921,61.896c7.82,11.516,18.603,18.133,32.69,19.785
		c-2.372,2.502-5.391,0.977-7.925,1.654c-8.383,2.248-16.796,2.775-25.368,0.879c-5.704-1.262-6.986,0.025-9.312,5.486
		c-6.151,14.447-10.765,29.604-20.819,42.229c-11.425,14.344-25.336,24.211-43.697,27.313c-10.978,1.854-21.059,0.256-30.737-7.094
		c8.401-4.314,11.068-11.871,11.224-20.023c0.287-15.119-7.202-26.137-21.123-32.936c-10.388-5.072-21.754-6.545-32.592-9.918
		c-25.976-8.086-41.835-26.295-51.86-50.564c-4.255-10.301-6.81-21.127-7.226-32.201c-0.8-21.307,5.969-40.526,17.396-58.323
		c8.201-12.77,18.176-24.326,25.285-37.855c6.114-11.637,10.58-23.807,13.306-36.612c4.623-21.723,6.171-44.021,12.011-65.515
		c6.907-25.435,16.853-49.49,33.672-70.139c11.69-14.353,25.643-26.05,41.624-35.593c15.271-9.118,31.64-15.234,48.645-19.657
		c10.502-2.731,21.315-4.517,32.285-4.577c15.914-0.089,31.801-0.191,47.557,2.854c40.94,7.911,78.696,23.991,114.095,45.487
		c19.895,12.081,37.915,26.762,50.214,47.247c8.412,14.012,12.019,28.821,10.06,45.319c-1.178,9.922-4.156,18.8-9.273,27.16
		c-0.938,1.53-2.041,3.59-3.805,3.381c-1.778-0.212-0.854-2.55-1.2-3.912c-2.254-8.89-5.352-17.428-10.493-25.25
		c1.477,8.956,3.258,17.875,4.356,26.877c1.634,13.374,1.974,26.853,0.565,40.255c-0.978,9.303-3.333,18.466-4.188,27.772
		c-0.455,4.955,0.912,10.054,2.666,14.923c4.705,13.059,12.142,24.398,21.402,34.584c2.543,2.796,5.745,4.98,8.482,7.613
		c5.044,4.849,5.222,11.426,0.675,16.725c-3.282,3.824-7.254,6.693-11.832,8.729c-10.295,4.572-11.989,10.705-7.04,20.512
		c0.743,1.475,1.593,2.895,2.306,4.379c2.149,4.482,1.07,7.814-3.318,10.377c-3.527,2.059-7.06,4.109-10.818,6.295
		c3.531,2.748,7.598,4.73,7.361,9.965c-0.098,2.129-0.476,3.857-2.156,5.275c-1.396,1.178-2.533,2.67-3.963,3.799
		c-7.052,5.563-8.052,12.531-5.572,20.775c2.854,9.484,2.794,18.703-3.192,27.395c-4.928,7.154-12.317,9.379-20.006,11.313
		c-10.71,2.695-21.675,1.563-32.527,2.176c-14.986,0.846-29.616,3.227-42.041,12.781c-13.938,10.721-23.674,24.645-31.41,40.219
		c-10.58,21.297-14.073,43.904-12.025,67.328c1.286,14.717,6.741,28.262,14.249,41.137c-3.57-3.41-7.532-6.506-10.601-10.318
		c-3.137-3.896-6.868-7.182-10.04-10.982c-7.252-8.691-14.572-17.348-21.399-26.369c-11.501-15.193-19.94-32.113-22.12-51.092
		c-2.06-17.951,1.566-35.246,11.446-50.906c7.335-11.625,16.412-21.4,28.756-27.613c10.568-5.32,22.171-5.998,33.773-6.18
		c8.089-0.127,16.164,0.432,24.078-2.387c7.736-2.756,13.033-9.902,10.933-20.238c-0.875-4.301-1.296-8.697-2.202-13.027
		c-0.955-4.566,1.177-8.428,4.537-11.434c5.98-5.35,5.718-7.973-1.45-12.316c-0.406-0.246-0.676-0.721-0.896-0.963
		c4.383-3.855,11.44-5.658,9.937-13.766c1.484-0.477,1.578-2.543,3.277-2.813c6.778-1.074,11.491-5.732,16.503-9.766
		c1.688-1.357,2.185-3.49,1.573-5.867c-0.466-1.807-0.826-3.629-0.761-5.648C639.023,526.908,632.817,521.578,629.325,522.08z"/>
</g>
</svg>
