<svg version="1.1" id="Layer_1" xmlns="http://www.w3.org/2000/svg" xmlns:xlink="http://www.w3.org/1999/xlink" x="0px" y="0px"
	 width="1024.191px" height="1024.191px" viewBox="0 0 1024.191 1024.191" enable-background="new 0 0 1024.191 1024.191"
	 xml:space="preserve">
<path fill="#735724" d="M629.325,522.08c3.492-0.502,9.698,4.828,9.564,8.826c-0.064,2.02,0.295,3.842,0.762,5.646
	c0.609,2.377,0.112,4.51-1.573,5.867c-5.012,4.033-9.725,8.691-16.503,9.768c-1.699,0.269-1.793,2.337-3.277,2.812
	c-1.04-2.557-3.565-4.316-3.892-7.252c2.554-3.33,6.285-4.531,10.08-5.748c5.104-1.637,6.571-6.426,3.457-10.775
	C628.758,528.229,631.512,525.529,629.325,522.08z"/>
<path fill="#C0982A" d="M627.943,531.222c3.114,4.353,1.647,9.142-3.457,10.775c-3.795,1.217-7.526,2.418-10.08,5.748
	c-2.457-4.135-1.151-7.148,2.888-9.158C621.208,536.638,624.733,534.169,627.943,531.222z"/>
<g>
	<path fill="currentColor" d="M126.84,638.354c-0.013-3.827-0.025-7.653-0.038-11.479c0.077-1.82,0.222-3.643,0.222-5.465
		c0.028-76.729,0.063-153.455,0.048-230.183c-0.004-23.291-0.153-46.583-0.235-69.874c0.074-15.847-1.71-31.693-0.002-47.537
		c0.079-0.652,0.229-1.309,0.228-1.965c-0.07-47.06-0.148-94.118-0.258-141.177c-0.003-1.451,0.369-3.006-0.604-4.344
		c0.036-0.456,0.072-0.912,0.105-1.365c1.495-0.052,2.992-0.155,4.489-0.153c33.162,0.041,66.324,0.135,99.485,0.135
		c94.658,0.002,189.314-0.039,283.972-0.051c83.99-0.011,167.98-0.001,251.972-0.01c42.829-0.004,85.657,0.021,128.486-0.125
		c3.729-0.013,4.881,0.955,4.777,4.714c-0.134,4.774-0.703,9.621,0.505,14.369c-1.905,6.915-1.042,14.001-0.666,20.935
		c0.245,4.53,0.287,9.027,0.249,13.54c-0.039,1.493-0.106,2.99-0.106,4.488c-0.016,98.556-0.026,197.112-0.009,295.667
		c0,1.786-0.454,3.664,0.549,5.365c-1.147,2.661-0.938,5.399-0.677,8.207c1.025,11.063,0.313,22.161,0.091,33.223
		c-0.073,3.656,0.544,7.193,0.487,10.822c-0.215,13.597-0.572,27.188-0.195,40.795c0.271,9.787-0.424,19.601-0.591,29.398
		c-0.101,5.93-0.09,11.861-0.003,17.791c1.286,87.945,0.453,175.895,0.818,263.844c0.009,1.832-0.18,3.688,0.037,5.494
		c0.535,4.475-1.535,5.732-5.746,5.691c-19.317-0.197-38.641-0.224-57.959-0.224c-62.481-0.002-124.967,0.058-187.447,0.047
		c-122.133-0.016-244.267-0.088-366.397-0.084c-49.972,0.002-99.945,0.095-149.917,0.314c-4.174,0.018-5.796-0.635-5.58-5.316
		c0.4-8.641-0.007-17.317-0.079-25.979c0.072-1.318,0.208-2.644,0.207-3.965c-0.013-49.74-0.026-99.48-0.068-149.224
		C126.969,689.24,126.892,663.796,126.84,638.354z M892.67,893.277c0.229-4.121,0.656-8.242,0.659-12.361
		c0.029-43.826-0.021-87.65-0.027-131.476c-0.041-204.293-0.088-408.586-0.03-612.879c0.004-4.129-0.619-5.609-5.311-5.589
		c-51.712,0.23-103.426,0.188-155.14,0.197c-32.106,0.006-64.213-0.033-96.319-0.038c-22.723-0.004-45.445,0.018-68.169,0.024
		c-13.547,0.004-27.095,0.004-40.642-0.001c-13.892-0.004-27.778-0.079-41.669-0.012c-36.94,0.177-73.894-0.655-110.818,0.943
		c-5.675,0.246-11.229-0.677-16.844-0.967c-9.486-0.491-18.884,1.287-28.35,0.905c-5.783-0.233-11.559-0.86-17.339-0.884
		c-22.216-0.09-44.433-0.002-66.648,0.01c-21.226,0.012-42.452,0.018-63.678,0.014c-14.83-0.003-29.661-0.067-44.491,0.015
		c-1.651,0.009-3.704-1.011-4.982,1.063c-1.047,2.386-0.594,4.913-0.605,7.372c-0.068,13.829-0.063,27.658-0.062,41.488
		c0.008,133.294,0.026,266.587,0.028,399.882c0.001,98.972-0.031,197.941,0.01,296.914c0.002,4.943-0.668,9.945,0.648,14.845
		c1.344,1.063,2.894,0.5,4.365,0.551c1.641,0.146,3.283,0.418,4.924,0.42c55.972,0.07,111.943,0.146,167.915,0.156
		c77.465,0.018,154.932,0.012,232.396-0.063c9.806-0.01,19.628,0.426,29.421-0.492c1.115,0.002,2.229,0.005,3.344,0.007
		c2.14,0.155,4.279,0.452,6.419,0.454c95.55,0.072,191.102,0.16,286.649,0.099C876.432,893.869,884.586,894.621,892.67,893.277z"/>
	<path fill="currentColor" d="M899.993,143.847c-1.208-4.748-0.638-9.595-0.505-14.369c0.104-3.759-1.047-4.727-4.777-4.714
		c-42.829,0.146-85.657,0.121-128.486,0.125c-83.989,0.009-167.979-0.001-251.972,0.01c-94.657,0.012-189.313,0.053-283.972,0.051
		c-33.162,0-66.324-0.094-99.485-0.135c-1.498-0.002-2.995,0.102-4.489,0.153c1.317-1.565,3.109-0.894,4.686-0.894
		c159.665,0.002,319.329,0.051,478.994,0.063c94.665,0.007,189.33,0.011,283.995-0.194c5.249-0.011,6.719,1.464,6.237,6.421
		C899.788,134.823,900.042,139.35,899.993,143.847z"/>
	<path fill="currentColor" d="M900.009,483.844c-1.003-1.701-0.549-3.579-0.549-5.364c-0.021-98.558-0.007-197.112,0.009-295.668
		c0-1.498,0.067-2.995,0.106-4.488c0.961,1.172,0.56,2.56,0.56,3.85c0.021,99.895,0.021,199.789,0.019,299.686
		C900.152,482.518,900.059,483.181,900.009,483.844z"/>
	<path fill="currentColor" d="M126.837,321.355c0.083,23.291,0.231,46.583,0.235,69.874c0.015,76.728-0.02,153.454-0.048,230.183
		c0,1.822-0.145,3.645-0.222,5.465c-1.125-1.68-0.591-3.568-0.591-5.352c-0.013-98.275,0.002-196.552,0.047-294.825
		C126.259,324.92,125.699,323.031,126.837,321.355z"/>
	<path fill="currentColor" d="M126.84,638.354c0.052,25.441,0.129,50.886,0.151,76.328c0.042,49.74,0.055,99.48,0.068,149.224
		c0,1.321-0.135,2.646-0.207,3.965c-1.104-1.494-0.639-3.223-0.64-4.842c-0.018-73.277-0.009-146.558,0.028-219.834
		C126.242,641.58,125.734,639.851,126.84,638.354z"/>
	<path fill="currentColor" d="M126.201,126.333c0.974,1.338,0.601,2.893,0.604,4.344c0.11,47.059,0.188,94.117,0.258,141.177
		c0.001,0.656-0.149,1.313-0.228,1.965c-0.959-1.161-0.604-2.548-0.605-3.841c-0.071-47.386-0.123-94.771-0.17-142.158
		C126.06,127.324,126.152,126.829,126.201,126.333z"/>
	<path fill="currentColor" d="M132.875,132.243c0.054,28.477,0.153,56.952,0.156,85.428c0.025,223.866,0.032,447.731,0.038,671.596
		c0,1.162-0.11,2.322-0.171,3.48c-1.319-4.9-0.648-9.902-0.651-14.848c-0.042-98.974-0.009-197.943-0.01-296.914
		c-0.002-133.295-0.021-266.589-0.028-399.883c-0.001-13.83-0.006-27.659,0.062-41.488
		C132.281,137.156,131.828,134.629,132.875,132.243z"/>
	<path fill="currentColor" d="M137.26,893.294c22.31-0.07,44.62-0.199,66.929-0.205c121.09-0.033,242.179-0.037,363.269-0.037
		c1.489,0,2.979,0.172,4.463,0.265c-9.799,0.918-19.621,0.481-29.427,0.491c-77.465,0.074-154.93,0.08-232.396,0.064
		c-55.972-0.012-111.941-0.086-167.915-0.156C140.542,893.712,138.901,893.441,137.26,893.294z"/>
	<path fill="currentColor" d="M575.258,893.322c14.489-0.09,28.979-0.254,43.467-0.258c90.492-0.025,180.983-0.021,271.478-0.013
		c0.826,0,1.649,0.146,2.474,0.224c-8.088,1.346-16.242,0.594-24.348,0.6c-95.55,0.064-191.102-0.025-286.649-0.098
		C579.538,893.775,577.398,893.479,575.258,893.322z"/>
	<path fill="currentColor" d="M629.325,522.08c-2.97-6.455-10.001-8.207-14.771-12.646c-9.345-8.691-15.837-18.858-19.359-31.089
		c-2.428-8.416-0.313-16.618,0.667-24.881c2.434-20.498,3.479-40.708-11.196-58.069c-2.685,2.325-1.624,5.815-2.317,8.623
		c-4.21,17.061-12.013,32.079-24.377,44.563c-11.732,11.846-26.581,18.276-42.093,23.493c-12.104,4.071-23.455,9.734-32.766,18.596
		c-11.46,10.904-17.955,24.444-20.089,40.198c-3.033,22.412,1.146,43.088,13.921,61.896c7.819,11.517,18.603,18.134,32.689,19.785
		c-2.372,2.502-5.391,0.978-7.925,1.654c-8.383,2.248-16.796,2.775-25.368,0.879c-5.704-1.262-6.985,0.025-9.312,5.486
		c-6.151,14.446-10.766,29.604-20.819,42.229c-11.425,14.344-25.336,24.211-43.697,27.313c-10.978,1.854-21.059,0.256-30.736-7.095
		c8.4-4.313,11.067-11.87,11.224-20.022c0.287-15.119-7.202-26.137-21.123-32.937c-10.388-5.071-21.754-6.545-32.592-9.918
		c-25.977-8.086-41.835-26.295-51.86-50.563c-4.255-10.301-6.81-21.127-7.226-32.201c-0.8-21.307,5.969-40.526,17.396-58.323
		c8.201-12.77,18.176-24.326,25.285-37.854c6.114-11.638,10.58-23.807,13.306-36.612c4.623-21.723,6.172-44.021,12.012-65.515
		c6.906-25.435,16.853-49.49,33.672-70.139c11.689-14.353,25.643-26.05,41.624-35.593c15.271-9.118,31.64-15.234,48.645-19.657
		c10.502-2.731,21.315-4.517,32.285-4.577c15.914-0.089,31.801-0.191,47.557,2.854c40.94,7.911,78.696,23.991,114.096,45.487
		c19.895,12.081,37.915,26.762,50.214,47.247c8.412,14.012,12.019,28.821,10.06,45.319c-1.178,9.922-4.155,18.8-9.272,27.16
		c-0.938,1.53-2.041,3.59-3.806,3.381c-1.777-0.212-0.854-2.55-1.199-3.912c-2.255-8.89-5.353-17.428-10.493-25.25
		c1.477,8.956,3.258,17.875,4.355,26.877c1.635,13.374,1.975,26.853,0.565,40.255c-0.979,9.303-3.333,18.466-4.188,27.772
		c-0.455,4.955,0.912,10.054,2.666,14.923c4.705,13.06,12.143,24.398,21.402,34.584c2.543,2.796,5.745,4.98,8.482,7.613
		c5.044,4.849,5.222,11.426,0.675,16.725c-3.282,3.824-7.254,6.693-11.832,8.729c-10.295,4.572-11.989,10.705-7.04,20.512
		c0.743,1.476,1.593,2.896,2.306,4.379c2.149,4.482,1.07,7.814-3.317,10.377c-3.527,2.06-7.061,4.109-10.818,6.295
		c3.531,2.748,7.598,4.73,7.361,9.966c-0.099,2.129-0.477,3.856-2.156,5.274c-1.396,1.179-2.533,2.67-3.963,3.799
		c-7.052,5.563-8.052,12.531-5.572,20.775c2.854,9.484,2.794,18.703-3.191,27.396c-4.929,7.153-12.317,9.379-20.007,11.313
		c-10.71,2.695-21.675,1.563-32.526,2.176c-14.986,0.847-29.616,3.228-42.041,12.781c-13.938,10.721-23.674,24.646-31.41,40.219
		c-10.58,21.298-14.073,43.904-12.025,67.328c1.286,14.717,6.741,28.263,14.249,41.138c-3.569-3.41-7.531-6.507-10.601-10.318
		c-3.137-3.896-6.868-7.182-10.04-10.982c-7.252-8.69-14.572-17.348-21.399-26.369c-11.501-15.192-19.939-32.112-22.119-51.092
		c-2.061-17.951,1.565-35.246,11.445-50.905c7.335-11.625,16.412-21.4,28.756-27.613c10.568-5.32,22.172-5.998,33.773-6.18
		c8.089-0.128,16.164,0.432,24.078-2.388c7.736-2.756,13.033-9.901,10.933-20.237c-0.875-4.302-1.296-8.697-2.202-13.027
		c-0.955-4.566,1.178-8.428,4.537-11.435c5.98-5.35,5.718-7.973-1.45-12.315c-0.405-0.246-0.676-0.721-0.896-0.963
		c4.383-3.855,11.439-5.658,9.937-13.767c1.484-0.477,1.578-2.543,3.277-2.813c6.778-1.074,11.491-5.732,16.503-9.766
		c1.688-1.357,2.186-3.49,1.573-5.867c-0.466-1.808-0.826-3.629-0.761-5.648C639.023,526.908,632.817,521.578,629.325,522.08z"/>
</g>
<path fill="currentColor" d="M124.342,690.246c-0.015-6.445-0.029-12.893-0.044-19.334c0.988-3.416,0.581-6.93,0.583-10.396
	c0.013-16.473-0.054-32.943-0.128-49.416c-0.067-14.957,0.528-29.92-0.437-44.865c-0.084-19.271-0.22-38.541-0.243-57.813
	c-0.04-33.403-0.041-66.806,0.001-100.209c0.028-22.099,0.158-44.196,0.243-66.289c0.116-1.142,0.332-2.287,0.334-3.434
	c0.056-31.458,0.145-62.916,0.105-94.374c-0.02-15.956-0.278-31.911-0.429-47.866c0.018-22.265,0.056-44.528,0.024-66.792
	c-0.003-2.521-0.185-4.472,3.486-4.212c14.248,1.008,28.547-0.556,42.764,0.275c13.485,0.789,26.938,0.438,40.401,0.515
	c28.754,0.165,57.517,0.408,86.261-0.141c11.631-0.223,23.268-0.507,34.899-0.473c14.229,0.041,28.459,0.597,42.688,0.592
	c15.465-0.005,30.938-0.835,46.39-0.491c14.131,0.313,28.268,0.882,42.389,0.51c56.105-1.48,112.216-0.463,168.323-0.64
	c49.92-0.157,99.841-0.042,149.762-0.056c36.254-0.01,72.508-0.05,108.762-0.041c9.512,0.003,8.7-1.146,8.7,8.403
	c-0.01,93.479-0.033,186.958-0.053,280.438c-0.012,57.806-0.046,115.611-0.032,173.417c0.017,62.955,0.118,125.91,0.103,188.865
	c-0.012,41.641-0.165,83.279-0.252,124.916c-1.163-0.031-2.329-0.088-3.494-0.088c-102.455-0.02-204.909-0.037-307.364-0.049
	c-122.444-0.016-244.889-0.033-367.333-0.029c-31.815,0-63.63,0.082-95.444,0.125c-0.141-0.193-0.327-0.322-0.555-0.383
	c0.034-0.828,0.091-1.658,0.091-2.488c-0.03-56.432-0.041-112.863-0.115-169.295C124.709,716.17,124.476,703.207,124.342,690.246z
	 M891.817,515.848c0.044-17.47,0.127-34.938,0.126-52.406c0-87.396-0.016-174.79-0.04-262.185
	c-0.006-22.297-0.068-44.595-0.105-66.892c-0.033-2.001-1.489-1.279-2.518-1.285c-15.812-0.099-31.62-0.267-47.432-0.253
	c-27.111,0.023-54.224,0.211-81.336,0.242c-39.923,0.047-79.846,0.056-119.77,0.007c-24.725-0.03-49.448-0.269-74.172-0.278
	c-19.95-0.009-39.9,0.259-59.852,0.267c-24.265,0.01-48.528-0.125-72.794-0.198c-1.309-0.139-2.616-0.398-3.925-0.399
	c-31.445-0.034-62.891-0.048-94.336-0.034c-1.478,0.001-2.953,0.278-4.43,0.427c-12.97,0.074-25.938,0.223-38.906,0.209
	c-51.293-0.056-102.586-0.093-153.877-0.357c-4.993-0.026-6.703,1.002-6.646,6.375c0.319,30.487,0.281,60.979,0.269,91.47
	c-0.045,106.465-0.158,212.93-0.19,319.395c-0.024,79.475,0.033,158.949,0.061,238.424c0.012,33.654,0.117,67.313-0.037,100.967
	c-0.018,4.025,1.183,4.934,4.985,4.855c14.821-0.293,29.647-0.268,44.472-0.359c27.316,0.059,54.632,0.156,81.948,0.16
	c20.818,0,41.636-0.121,62.454-0.188c0.875,0.004,1.751,0.008,2.626,0.012c1.491,0.078,2.981,0.221,4.474,0.223
	c44.158,0.02,88.315,0.049,132.475,0.018c26.485-0.02,52.971-0.141,79.456-0.217c6.211,0.338,12.421,0.428,18.63-0.033
	c8.317,0.084,16.634,0.246,24.951,0.234c29.132-0.043,58.263-0.146,87.396-0.229c1.872-0.012,3.743-0.021,5.616-0.031
	c1.824,0.084,3.648,0.24,5.474,0.24c44.328,0.008,88.655,0.006,132.983-0.012c22.498-0.008,44.997-0.127,67.493,0.016
	c3.71,0.021,5.088-0.947,4.755-4.74c-0.35-3.973-0.232-7.99-0.232-11.99c-0.001-73.15,0.016-146.305,0.017-219.457
	c0.001-23.488-0.031-46.979-0.048-70.471c-0.234-1.604-0.67-3.207-0.674-4.811c-0.057-20.633-0.066-41.266-0.029-61.896
	C891.13,519.059,891.577,517.453,891.817,515.848z"/>
</svg>
