<svg version="1.1" id="Layer_1" xmlns="http://www.w3.org/2000/svg" xmlns:xlink="http://www.w3.org/1999/xlink" x="0px" y="0px"
	 width="1024.191px" height="1024.19px" viewBox="0 0 1024.191 1024.19" enable-background="new 0 0 1024.191 1024.19"
	 xml:space="preserve">
<path fill-rule="evenodd" clip-rule="evenodd" fill="#333C5D" d="M126.84,638.354c-0.013-3.827-0.025-7.653-0.038-11.478
	c0.077-1.819,0.222-3.643,0.222-5.465c0.028-76.728,0.063-153.454,0.048-230.182c-0.004-23.291-0.153-46.583-0.235-69.874
	c0.074-15.847-1.71-31.693-0.002-47.537c0.079-0.652,0.229-1.309,0.228-1.965c-0.07-47.06-0.148-94.118-0.258-141.177
	c-0.003-1.451,0.369-3.006-0.604-4.344c0.036-0.456,0.072-0.912,0.105-1.365c1.495-0.052,2.992-0.155,4.489-0.153
	c33.162,0.041,66.324,0.135,99.485,0.135c94.657,0.002,189.314-0.039,283.972-0.051c83.99-0.011,167.98-0.001,251.972-0.01
	c42.829-0.004,85.657,0.021,128.486-0.125c3.73-0.013,4.881,0.955,4.777,4.714c-0.132,4.774-0.703,9.621,0.505,14.369
	c-1.905,6.915-1.042,14.001-0.666,20.935c0.245,4.53,0.287,9.027,0.249,13.54c-0.039,1.493-0.106,2.99-0.106,4.488
	c-0.016,98.556-0.028,197.112-0.009,295.669c0,1.786-0.454,3.664,0.549,5.365c-1.149,2.661-0.938,5.399-0.677,8.207
	c1.025,11.063,0.313,22.161,0.091,33.222c-0.073,3.657,0.544,7.195,0.487,10.824c-0.215,13.594-0.572,27.187-0.195,40.795
	c0.271,9.786-0.424,19.598-0.591,29.398c-0.101,5.929-0.09,11.861-0.003,17.79c1.286,87.945,0.453,175.896,0.819,263.844
	c0.008,1.833-0.179,3.688,0.038,5.494c0.535,4.475-1.537,5.733-5.747,5.691c-19.318-0.196-38.64-0.221-57.959-0.222
	c-62.482-0.002-124.966,0.057-187.448,0.048c-122.133-0.017-244.265-0.088-366.397-0.084c-49.972,0.002-99.945,0.092-149.917,0.313
	c-4.174,0.019-5.796-0.634-5.58-5.316c0.4-8.641-0.007-17.318-0.079-25.978c0.072-1.319,0.208-2.643,0.207-3.965
	c-0.013-49.741-0.026-99.481-0.068-149.223C126.969,689.239,126.892,663.797,126.84,638.354z M892.67,893.277
	c0.229-4.121,0.656-8.242,0.659-12.362c0.029-43.825-0.019-87.649-0.027-131.474c-0.041-204.293-0.088-408.587-0.03-612.88
	c0.002-4.129-0.621-5.609-5.311-5.589c-51.712,0.23-103.426,0.188-155.14,0.197c-32.106,0.006-64.213-0.033-96.319-0.038
	c-22.723-0.004-45.445,0.018-68.169,0.024c-13.547,0.004-27.095,0.004-40.642-0.001c-13.89-0.004-27.778-0.079-41.667-0.012
	c-36.942,0.177-73.894-0.655-110.82,0.943c-5.675,0.246-11.229-0.677-16.844-0.967c-9.486-0.491-18.882,1.287-28.348,0.905
	c-5.783-0.233-11.559-0.86-17.339-0.884c-22.216-0.09-44.433-0.002-66.648,0.01c-21.226,0.012-42.452,0.018-63.678,0.014
	c-14.83-0.003-29.661-0.067-44.491,0.015c-1.651,0.009-3.704-1.011-4.982,1.063c-1.047,2.386-0.594,4.913-0.605,7.372
	c-0.068,13.829-0.063,27.658-0.062,41.488c0.008,133.294,0.026,266.588,0.028,399.883c0.001,98.971-0.031,197.942,0.01,296.913
	c0.002,4.945-0.668,9.947,0.648,14.845c1.344,1.063,2.894,0.499,4.365,0.551c1.641,0.146,3.283,0.418,4.924,0.42
	c55.972,0.07,111.943,0.145,167.915,0.156c77.465,0.017,154.93,0.011,232.395-0.063c9.806-0.01,19.628,0.425,29.421-0.493
	c1.115,0.002,2.229,0.004,3.344,0.006c2.14,0.158,4.279,0.453,6.419,0.455c95.55,0.073,191.1,0.162,286.649,0.098
	C876.432,893.868,884.586,894.621,892.67,893.277z"/>
<path fill-rule="evenodd" clip-rule="evenodd" fill="#E9D094" d="M899.993,143.847c-1.208-4.748-0.637-9.595-0.505-14.369
	c0.104-3.759-1.047-4.727-4.777-4.714c-42.829,0.146-85.657,0.121-128.486,0.125c-83.991,0.009-167.981-0.001-251.972,0.01
	c-94.657,0.012-189.314,0.053-283.972,0.051c-33.162,0-66.324-0.094-99.485-0.135c-1.498-0.002-2.995,0.102-4.489,0.153
	c1.317-1.565,3.109-0.894,4.686-0.894c159.665,0.002,319.329,0.051,478.994,0.063c94.665,0.007,189.33,0.011,283.995-0.194
	c5.249-0.011,6.719,1.464,6.239,6.421C899.788,134.823,900.042,139.35,899.993,143.847z"/>
<path fill-rule="evenodd" clip-rule="evenodd" fill="#E9D094" d="M900.009,483.844c-1.003-1.701-0.549-3.579-0.549-5.365
	c-0.02-98.557-0.007-197.113,0.009-295.669c0-1.498,0.067-2.995,0.106-4.488c0.961,1.172,0.56,2.56,0.56,3.85
	c0.021,99.895,0.021,199.789,0.017,299.684C900.152,482.518,900.059,483.181,900.009,483.844z"/>
<path fill-rule="evenodd" clip-rule="evenodd" fill="#E9D094" d="M126.837,321.355c0.083,23.291,0.231,46.583,0.235,69.874
	c0.015,76.728-0.02,153.454-0.048,230.182c0,1.822-0.145,3.646-0.222,5.465c-1.125-1.68-0.591-3.568-0.591-5.352
	c-0.013-98.274,0.002-196.55,0.047-294.824C126.259,324.92,125.699,323.031,126.837,321.355z"/>
<path fill-rule="evenodd" clip-rule="evenodd" fill="#E9D094" d="M126.84,638.354c0.052,25.443,0.129,50.886,0.151,76.329
	c0.042,49.741,0.055,99.481,0.068,149.223c0,1.322-0.135,2.646-0.207,3.965c-1.104-1.495-0.639-3.224-0.64-4.842
	c-0.018-73.278-0.009-146.557,0.028-219.835C126.242,641.579,125.734,639.851,126.84,638.354z"/>
<path fill-rule="evenodd" clip-rule="evenodd" fill="#E9D094" d="M126.201,126.333c0.974,1.338,0.601,2.893,0.604,4.344
	c0.11,47.059,0.188,94.117,0.258,141.177c0.001,0.656-0.149,1.313-0.228,1.965c-0.959-1.161-0.604-2.548-0.605-3.841
	c-0.071-47.386-0.123-94.771-0.17-142.158C126.06,127.324,126.152,126.829,126.201,126.333z"/>
<path fill-rule="evenodd" clip-rule="evenodd" fill="none" d="M132.875,132.243c1.278-2.074,3.331-1.055,4.982-1.063
	c14.83-0.082,29.661-0.018,44.491-0.015c21.226,0.004,42.452-0.002,63.678-0.014c22.215-0.012,44.432-0.1,66.648-0.01
	c5.78,0.023,11.556,0.65,17.339,0.884c9.466,0.382,18.861-1.396,28.348-0.905c5.614,0.29,11.169,1.213,16.844,0.967
	c36.927-1.599,73.878-0.767,110.82-0.943c13.889-0.067,27.777,0.008,41.667,0.012c13.547,0.005,27.095,0.005,40.642,0.001
	c22.724-0.007,45.446-0.028,68.169-0.024c32.106,0.005,64.213,0.044,96.319,0.038c51.714-0.009,103.428,0.033,155.14-0.197
	c4.689-0.021,5.313,1.46,5.311,5.589c-0.058,204.293-0.011,408.587,0.03,612.88c0.009,43.824,0.057,87.648,0.027,131.474
	c-0.003,4.12-0.43,8.241-0.655,12.359c-0.822-0.078-1.647-0.221-2.474-0.221c-90.492-0.008-180.983-0.016-271.476,0.011
	c-14.489,0.004-28.978,0.167-43.467,0.258c-1.114-0.003-2.229-0.005-3.338-0.008c-1.484-0.091-2.974-0.263-4.463-0.263
	c-121.09,0.001-242.179,0.005-363.269,0.037c-22.31,0.007-44.62,0.135-66.929,0.206c-1.472-0.052-3.021,0.512-4.362-0.548
	c0.061-1.157,0.171-2.318,0.171-3.479c-0.005-223.865-0.012-447.73-0.038-671.597C133.028,189.195,132.929,160.72,132.875,132.243z
	 M627.943,531.223c-3.21,2.947-6.734,5.415-10.649,7.364c-4.039,2.01-5.345,5.024-2.887,9.154c0.323,2.94,2.851,4.699,3.891,7.257
	c1.505,8.107-5.554,9.91-9.937,13.766c0.22,0.243,0.489,0.716,0.896,0.962c7.168,4.345,7.431,6.969,1.45,12.317
	c-3.36,3.006-5.492,6.866-4.537,11.433c0.906,4.331,1.327,8.728,2.202,13.028c2.102,10.336-3.195,17.483-10.933,20.239
	c-7.914,2.817-15.989,2.26-24.078,2.387c-11.603,0.181-23.205,0.857-33.773,6.178c-12.344,6.214-21.421,15.989-28.756,27.614
	c-9.88,15.661-13.506,32.956-11.446,50.906c2.179,18.978,10.619,35.897,22.12,51.093c6.827,9.021,14.147,17.677,21.399,26.369
	c3.172,3.802,6.904,7.086,10.04,10.982c3.068,3.813,7.03,6.908,10.601,10.318c-7.508-12.874-12.963-26.42-14.249-41.137
	c-2.048-23.423,1.445-46.03,12.025-67.327c7.737-15.575,17.474-29.499,31.41-40.219c12.425-9.557,27.055-11.937,42.041-12.782
	c10.854-0.611,21.818,0.52,32.528-2.175c7.688-1.935,15.078-4.157,20.006-11.312c5.986-8.691,6.046-17.911,3.192-27.395
	c-2.479-8.244-1.479-15.214,5.572-20.776c1.43-1.128,2.567-2.62,3.963-3.798c1.682-1.419,2.06-3.147,2.156-5.276
	c0.236-5.235-3.83-7.217-7.361-9.964c3.76-2.187,7.291-4.237,10.818-6.296c4.39-2.562,5.469-5.894,3.319-10.376
	c-0.713-1.486-1.563-2.906-2.306-4.379c-4.949-9.808-3.255-15.94,7.04-20.513c4.578-2.033,8.55-4.902,11.832-8.727
	c4.547-5.3,4.369-11.877-0.674-16.726c-2.738-2.633-5.94-4.817-8.483-7.613c-9.262-10.186-16.697-21.526-21.402-34.584
	c-1.754-4.869-3.121-9.968-2.666-14.923c0.854-9.307,3.211-18.47,4.188-27.772c1.407-13.402,1.068-26.881-0.565-40.255
	c-1.1-9.002-2.881-17.921-4.357-26.877c5.143,7.822,8.24,16.36,10.493,25.25c0.346,1.362-0.578,3.7,1.201,3.912
	c1.763,0.209,2.866-1.851,3.804-3.381c5.118-8.36,8.097-17.238,9.274-27.16c1.959-16.498-1.647-31.308-10.06-45.319
	c-12.299-20.485-30.319-35.166-50.214-47.247c-35.397-21.496-73.153-37.576-114.094-45.487c-15.756-3.045-31.643-2.942-47.557-2.854
	c-10.97,0.061-21.783,1.846-32.285,4.577c-17.005,4.423-33.374,10.539-48.645,19.657c-15.981,9.543-29.933,21.24-41.624,35.593
	c-16.819,20.648-26.764,44.704-33.672,70.139c-5.839,21.494-7.387,43.792-12.01,65.515c-2.726,12.806-7.191,24.977-13.306,36.612
	c-7.109,13.53-17.084,25.087-25.285,37.856c-11.428,17.797-18.196,37.017-17.396,58.322c0.416,11.075,2.971,21.9,7.226,32.201
	c10.025,24.271,25.886,42.48,51.86,50.565c10.838,3.373,22.204,4.845,32.592,9.918c13.921,6.799,21.41,17.815,21.123,32.936
	c-0.154,8.151-2.821,15.708-11.224,20.024c9.68,7.349,19.761,8.947,30.738,7.093c18.361-3.103,32.272-12.97,43.697-27.313
	c10.056-12.626,14.668-27.78,20.819-42.229c2.325-5.46,3.607-6.747,9.312-5.485c8.572,1.896,16.985,1.368,25.368-0.879
	c2.534-0.68,5.553,0.847,7.925-1.654c-14.089-1.654-24.87-8.271-32.691-19.786c-12.774-18.809-16.954-39.484-13.92-61.896
	c2.133-15.755,8.628-29.294,20.088-40.198c9.311-8.859,20.661-14.524,32.766-18.596c15.512-5.217,30.358-11.647,42.093-23.493
	c12.364-12.483,20.167-27.502,24.377-44.563c0.693-2.808-0.367-6.298,2.317-8.623c14.677,17.361,13.63,37.571,11.196,58.069
	c-0.98,8.263-3.093,16.465-0.667,24.881c3.524,12.229,10.017,22.396,19.361,31.089c4.769,4.437,11.8,6.188,14.77,12.645
	C631.512,525.528,628.758,528.229,627.943,531.223z"/>
<path fill-rule="evenodd" clip-rule="evenodd" fill="#E9D094" d="M132.875,132.243c0.054,28.477,0.153,56.952,0.156,85.428
	c0.025,223.866,0.032,447.731,0.038,671.597c0,1.161-0.11,2.322-0.171,3.479c-1.319-4.9-0.648-9.902-0.651-14.848
	c-0.042-98.971-0.009-197.942-0.01-296.913c-0.002-133.295-0.021-266.589-0.028-399.883c-0.001-13.83-0.006-27.659,0.062-41.488
	C132.281,137.156,131.828,134.629,132.875,132.243z"/>
<path fill-rule="evenodd" clip-rule="evenodd" fill="#E9D094" d="M137.26,893.295c22.31-0.071,44.62-0.199,66.929-0.206
	c121.09-0.032,242.179-0.036,363.269-0.037c1.489,0,2.979,0.172,4.463,0.263c-9.799,0.919-19.621,0.484-29.427,0.494
	c-77.465,0.073-154.93,0.079-232.395,0.063c-55.972-0.012-111.943-0.086-167.915-0.156
	C140.542,893.713,138.901,893.441,137.26,893.295z"/>
<path fill-rule="evenodd" clip-rule="evenodd" fill="#E9D094" d="M575.258,893.321c14.489-0.09,28.978-0.253,43.467-0.257
	c90.492-0.026,180.983-0.019,271.476-0.011c0.826,0,1.651,0.143,2.474,0.221c-8.088,1.347-16.242,0.594-24.348,0.6
	c-95.55,0.064-191.1-0.024-286.649-0.098C579.538,893.774,577.398,893.479,575.258,893.321z"/>
<path fill-rule="evenodd" clip-rule="evenodd" fill="#333C5D" d="M629.325,522.08c-2.97-6.456-10.001-8.208-14.77-12.645
	c-9.345-8.693-15.837-18.86-19.361-31.089c-2.426-8.416-0.313-16.618,0.667-24.881c2.434-20.498,3.48-40.708-11.196-58.069
	c-2.685,2.325-1.624,5.815-2.317,8.623c-4.21,17.061-12.013,32.079-24.377,44.563c-11.734,11.846-26.581,18.276-42.093,23.493
	c-12.104,4.071-23.455,9.736-32.766,18.596c-11.46,10.904-17.955,24.443-20.088,40.198c-3.034,22.412,1.146,43.088,13.92,61.896
	c7.821,11.516,18.603,18.132,32.691,19.786c-2.372,2.501-5.391,0.975-7.925,1.654c-8.383,2.247-16.796,2.775-25.368,0.879
	c-5.704-1.262-6.986,0.025-9.312,5.485c-6.151,14.449-10.764,29.604-20.819,42.229c-11.425,14.344-25.336,24.211-43.697,27.313
	c-10.978,1.854-21.059,0.256-30.738-7.093c8.402-4.316,11.069-11.873,11.224-20.024c0.287-15.12-7.202-26.137-21.123-32.936
	c-10.388-5.073-21.754-6.545-32.592-9.918c-25.975-8.085-41.835-26.295-51.86-50.565c-4.255-10.301-6.81-21.126-7.226-32.201
	c-0.8-21.306,5.969-40.525,17.396-58.322c8.201-12.77,18.176-24.326,25.285-37.856c6.114-11.636,10.58-23.807,13.306-36.612
	c4.623-21.723,6.171-44.021,12.01-65.515c6.908-25.435,16.853-49.49,33.672-70.139c11.691-14.353,25.643-26.05,41.624-35.593
	c15.271-9.118,31.64-15.234,48.645-19.657c10.502-2.731,21.315-4.517,32.285-4.577c15.914-0.089,31.801-0.191,47.557,2.854
	c40.94,7.911,78.696,23.991,114.094,45.487c19.895,12.081,37.915,26.762,50.214,47.247c8.412,14.012,12.019,28.821,10.06,45.319
	c-1.178,9.922-4.156,18.8-9.274,27.16c-0.938,1.53-2.041,3.59-3.804,3.381c-1.779-0.212-0.855-2.55-1.201-3.912
	c-2.253-8.89-5.351-17.428-10.493-25.25c1.477,8.956,3.258,17.875,4.357,26.877c1.634,13.374,1.973,26.853,0.565,40.255
	c-0.977,9.303-3.333,18.466-4.188,27.772c-0.455,4.955,0.912,10.054,2.666,14.923c4.705,13.058,12.141,24.398,21.402,34.584
	c2.543,2.796,5.745,4.98,8.483,7.613c5.043,4.849,5.221,11.426,0.674,16.726c-3.282,3.824-7.254,6.693-11.832,8.727
	c-10.295,4.572-11.989,10.705-7.04,20.513c0.743,1.473,1.593,2.893,2.306,4.379c2.149,4.482,1.07,7.814-3.319,10.376
	c-3.527,2.059-7.059,4.109-10.818,6.296c3.531,2.747,7.598,4.729,7.361,9.964c-0.097,2.129-0.475,3.857-2.156,5.276
	c-1.396,1.178-2.533,2.67-3.963,3.798c-7.052,5.563-8.052,12.532-5.572,20.776c2.854,9.483,2.794,18.703-3.192,27.395
	c-4.928,7.154-12.318,9.377-20.006,11.312c-10.71,2.694-21.675,1.563-32.528,2.175c-14.986,0.846-29.616,3.226-42.041,12.782
	c-13.937,10.72-23.673,24.644-31.41,40.219c-10.58,21.297-14.073,43.904-12.025,67.327c1.286,14.717,6.741,28.263,14.249,41.137
	c-3.57-3.41-7.532-6.505-10.601-10.318c-3.136-3.896-6.868-7.181-10.04-10.982c-7.252-8.692-14.572-17.348-21.399-26.369
	c-11.501-15.195-19.941-32.115-22.12-51.093c-2.06-17.95,1.566-35.245,11.446-50.906c7.335-11.625,16.412-21.4,28.756-27.614
	c10.568-5.32,22.171-5.997,33.773-6.178c8.089-0.127,16.164,0.431,24.078-2.387c7.737-2.756,13.034-9.903,10.933-20.239
	c-0.875-4.301-1.296-8.697-2.202-13.028c-0.955-4.566,1.177-8.427,4.537-11.433c5.98-5.349,5.718-7.973-1.45-12.317
	c-0.406-0.246-0.676-0.719-0.896-0.962c4.383-3.855,11.441-5.658,9.937-13.766c1.484-0.476,1.578-2.543,3.277-2.812
	c6.778-1.075,11.491-5.732,16.503-9.766c1.688-1.358,2.185-3.49,1.573-5.867c-0.465-1.806-0.826-3.628-0.76-5.648
	C639.023,526.908,632.817,521.578,629.325,522.08z"/>
<path fill-rule="evenodd" clip-rule="evenodd" fill="#735724" d="M629.325,522.08c3.492-0.502,9.698,4.828,9.566,8.825
	c-0.066,2.021,0.295,3.843,0.76,5.648c0.611,2.377,0.114,4.509-1.573,5.867c-5.012,4.033-9.725,8.69-16.503,9.766
	c-1.699,0.269-1.793,2.336-3.277,2.812c-1.04-2.558-3.567-4.316-3.892-7.253c2.554-3.329,6.285-4.531,10.08-5.747
	c5.106-1.637,6.573-6.426,3.457-10.775C628.758,528.229,631.512,525.528,629.325,522.08z"/>
<path fill-rule="evenodd" clip-rule="evenodd" fill="#C0982A" d="M627.943,531.223c3.116,4.35,1.649,9.139-3.457,10.775
	c-3.795,1.216-7.526,2.418-10.08,5.747c-2.457-4.134-1.151-7.148,2.888-9.158C621.208,536.638,624.733,534.17,627.943,531.223z"/>
</svg>
