<svg version="1.1" id="Layer_1" xmlns="http://www.w3.org/2000/svg" xmlns:xlink="http://www.w3.org/1999/xlink" x="0px" y="0px"
	 width="1024.191px" height="1024.191px" viewBox="0 0 1024.191 1024.191" enable-background="new 0 0 1024.191 1024.191"
	 xml:space="preserve">
<path fill-rule="evenodd" clip-rule="evenodd" fill="currentColor"  d="M898.285,125.306c0.037,32.158,0.101,64.315,0.105,96.474
	c0.016,109.822-0.001,219.645,0.017,329.467c0.019,114.487,0.044,228.976,0.178,343.463c0.005,3.915-1,4.912-4.962,4.908
	c-106.487-0.123-212.976-0.098-319.463-0.103c-112.2-0.006-224.401-0.016-336.602-0.027c-35.663-0.003-71.326-0.111-106.988,0.096
	c-4.396,0.025-5.022-1.318-5.017-5.27c0.15-103.99,0.212-207.98,0.198-311.97c-0.019-144.653-0.1-289.306-0.21-433.959
	c-0.005-6.442,0.623-12.896-0.772-19.344c-1.219-5.634,3.399-3.763,6.115-4.202c1.289,0.169,2.583,0.484,3.879,0.486
	c74.787,0.095,149.574,0.218,224.361,0.223c107.268,0.006,214.535-0.072,321.803-0.122
	C753.38,125.392,825.833,125.346,898.285,125.306z M711.518,494.153c-0.103,0.29-0.04,0.539,0.188,0.746
	c-0.06,1.134-2.724,1.709-1.035,3.019c2.676,2.075,2.321,5.063,3.004,7.759c-1.608-0.126-2.633-1.183-3.629-2.281
	c-0.772-0.852-1.617-1.995-2.828-1.511c-1.614,0.645-1.692,2.195-1.306,4.112c1.788-0.993,3.343-1.495,4.85,0.651
	c1.183,1.686,2.143,0.041,2.851-1.05c1.445,0.144,2.531,1.218,1.59,2.263c-2.178,2.415-0.164,3.546,1.104,4.855
	c2.568,2.654,2.735,6.16,0.435,8.095c-1.441,1.212-5.5,4.878-7.49-1.176c-0.932,4.113,0.57,5.421,4.24,5.993
	c2.437,0.38,7.229-2.079,6.539,3.924c-0.027,0.231,0.677,0.813,0.991,0.778c4.086-0.444,3.024,1.571,1.179,2.966
	c-1.623,1.228-1.542,1.854-0.188,2.92c0.701,0.552,1.386,1.712,0.405,1.876c-4.309,0.72-0.354,3.319-1.495,5.443
	c-1.355-2.282-2.902-4.199-3.556,0.028c-0.235,1.524-1.477,0.587-2.361,0.254c-1.168-0.439-2.167-1.753-3.563-0.863
	c-0.8,3.233,2.679,2.638,3.769,4.01c-0.731,2.295-3.749,2.306-4.457,6.178c4.59-5.179,8.37-0.654,12.347-0.91
	c0.614-0.039,2.046,1.246,1.658,2.666c-0.278,1.021-0.949,1.85-2.181,1.476c-2.685-0.815-2.825,1.257-2.837,2.779
	c-0.022,2.784-0.942,3.568-3.604,2.56c-0.834-0.316-2.276-0.271-2.852,0.254c-0.974,0.888,0.125,1.689,0.813,2.39
	c0.311,0.316,0.507,0.745,0.756,1.124c-5.187,2.082-1.771,5.525-0.55,9.577c-3.112-2.323-5.24-4.02-8.304-3.598
	c0.841-1.944,3.676-0.556,3.301-2.823c-0.089-0.539-1.725-0.822-2.649-1.224c-0.47,1.453-3.462,1.437-2.283,3.808
	c0.612,1.231-0.597,3.624,2.171,3.525c-0.727,6.148,3.003,4.359,6.108,3.518c0.539,3.896,2.657,8.338-3.083,10.368
	c-0.237-2.771-1.639-3.537-3.92-1.993c-1.476,0.997-2.666,2.408-4.035,3.573c-1.244,1.058-1.93,2.164-0.938,3.779
	c0.33,0.538,0.424,1.422,1.257,1.174c1.327-0.396,2.201-1.44,2.664-2.701c0.879-2.39,1.723-4.718,5.046-3.907
	c1.165,3.597-1.64,6.093-2.614,9.083c-0.291,0.894-1.764,1.332-2.613,0.686c-3.056-2.325-3.498,0.582-5.001,2.42
	c6.404-3.024,6.616,3.285,9.268,6.879c0.615-2.783-2.112-4.04,0.147-5.822c1.406,1.286,2.8,3.694,1.458,4.499
	c-3.238,1.941-2.85,5.005-3.153,7.614c-0.456,3.935-4.515,4.092-6.144,6.974c2.275-2.272,4.444-0.82,6.602-0.289l-0.063-0.077
	c0.955,1.347,2.428,2.578,2.759,4.063c0.729,3.269-0.14,7.196,5.072,7.596c1.224,0.094,0.611,1.613-0.037,2.413
	c-1.641,2.023,0.089,2.976,1.31,3.991c1.132,0.942,2.546,0.204,3.093-0.509c1.589-2.072-2.739-0.882-1.772-2.858
	c5.163,0.744,5.17,0.748,3.093,4.817c-0.351,0.688,0.112,1.197,0.2,1.792c0.293,1.989-4.192,7.262-5.893,7.013
	c-1.189-0.174-2.513-1.668-3.42,0.201c-0.7,1.442-0.444,2.921,0.864,4.079c0.418,0.369,1.589,0.919,0.778,1.36
	c-3.969,2.161-1.412,5.104-0.926,8.057c-3.684-5.059-8.086,2.915-11.313-1.527c-1.551,2.777,1.895,3.052,1.788,4.862
	c-0.997,1.284-3.198,0.023-3.802,2.066c3.097,1.924,4.423-0.112,6.168-2.308c2.443-3.071,4.966,2.356,7.628,0.353
	c0.749-0.563,0.373-3.303,2.371-1.282c0.768,0.776,1.791,2.219,1.526,2.908c-0.588,1.528-2.313,1.496-3.816,1.251
	c-1.716-0.28-3.425-0.6-5.547-0.975c1.492,3.117,0.957,6.358-1.819,6.322c-7.939-0.104-2.091,2.994-1.86,5.196
	c1.518-0.986,0.066-4.463,2.949-2.966c3.312,1.72,6.699,3.81,3.44,9.77c1.669-1.343,2.084-1.922,2.619-2.07
	c5.241-1.459,5.396-1.901,1.75-5.915c-0.664-0.73-1.575-1.238-2.226-1.978c-1.072-1.217-1.47-2.794-0.458-4.072
	c0.991-1.253,2.525-0.788,3.559,0.138c1.677,1.504,4.056,2.063,4.997,4.62c1.378,3.741,0.752,7.767,0.3,11.154
	c-0.628,4.696-0.312,9.154,3.812,10.994c1.031,0.461,2.558,1.14,2.456-0.802c-0.05-0.965-1.545-2.094,0.486-2.312
	c1.28-0.138,2.348,0.585,2.694,2.277c0.738,3.599-1.836,7.061-0.243,10.699c0.258,0.589-0.815,1.37-1.697,1.535
	c-0.992,0.187-2.298,0.342-2.506-0.858c-0.424-2.437-2.917-4.526-1.437-7.526c-1.477,4.991-4.568,9.246-4.868,14.482l0.078-0.065
	c-3.868,0.331-4.104,4.508-6.813,6.256c2.612,0.154,4.782,4.215,7.575,0.366c0.465-0.64,2.215,0.465,2.07,1.417
	c-0.928,6.101,4.818,6.425,7.762,7.426c2.939,1,2.64,2.202,3.156,4.144c-2.586,0.255-3.375-2.575-5.611-2.353
	c-0.58,0.059-1.771-1.442-1.891-0.367c-0.567,5.077-3.641,0.893-5.557,1.737c0.968,0.775-1.298,2.777,1.924,3.046
	c2.706,0.226-0.938,3.051,0.717,4.308c2.545-3.41,2.63-3.188,6.464-3.913c3.074-0.582,3.607,3.112,6.165,3.063l-0.078-0.079
	c-0.204,0.797,2.113,2.088-0.256,2.341c-1.548,0.166-3.13,0.809-2.926,1.973c0.788,4.487-1.593,4.814-4.82,4.035
	c-1.727-0.417-2.572,0.503-3.223,1.632c-0.794,1.377,0.969,1.906,1.297,2.949c2.697-1.066,2.789,0.837,3.309,2.664
	c0.688,2.417-1.577,3.013-3.252,4.771c4.849-1.489,5.264-1.961,6.397-6.71c1.361,0.516,1.848,3.269,3.986,1.716
	c0.797-0.579,1.346-1.237,0.443-1.909c-3.28-2.439,0.243-4.682,0.011-7.105c1.076,1.154,2.677,3.067,2.329,3.537
	c-1.761,2.375,3.364,6.68-2.263,7.767c-1.213,0.234-3.058-0.267-3.479,1.287c-0.449,1.658,1.517,2.393,2.222,3.653
	c1.556,2.784,3.071-0.826,5.03,0.182c-0.829,2.78-1.931,4.991-5.414,5.108c-0.974,0.032,0.642,2.725-1.459,1.893
	c-1.47-0.582-1.32-2.026-0.929-3.421c0.245-0.874,1.341-1.67,0.43-2.735c-1.943,0.168-1.19,1.037-3.003,2.609
	c-5.121,4.442,1.246,3.919,2.138,5.617c0.302,0.574,2.617,0.479,1.879,1.53c-3.991,5.678,2.37,2.292,3.413,3.478
	c-2.932,2.475-5.557,4.883-8.87,1.215c0.433-1.977,2.12-4.207-0.06-5.855c-2.051-1.553-2.868,1.56-5.001,1.968
	c4.16-1.363,1.952,4.442,5.139,3.815c-0.808,3.208-1.216,6.325,2.402,8.918c1.511-6.202,6.427-2.929,10.056-3.799
	c-0.296,0.713-0.825,1.546-1.19,1.479c-6.017-1.1-7.757,3.106-9.392,7.451c-0.402,1.07-1.055,1.931-2.162,1.139
	c-1.59-1.138-2.646-0.267-3.31,0.854c-1.383,2.338-3.782,2.361-7.45,2.788c3.504,1.156,4.936,2.57,6.076,4.461
	c2.365,3.916,3.365,3.924,5.807-0.156c0.614-1.028,2.525-2.034,1.2-3.817c-0.368,0.075-0.753,0.046-0.981,0.221
	c-1.02,0.779-1.956,2.178-3.356,0.894c-0.47-0.43-0.653-1.635-0.415-2.28c0.585-1.579,1.932-0.681,3.002-0.589
	c2.048,0.178,3.891-0.275,5.645-1.419c0.586-0.382,0.963-2.1,2.268-0.675c0.797,0.871,1.71,1.592,1.631,2.914
	c-0.1,1.651-1.467,0.96-2.264,1.102c-0.811,0.144-1.919-0.072-1.36,1.182c2.88,6.463-1.59,6.152-5.951,6.046
	c4.933,3.536,4.9,5.646,0.86,9.839c-1.945,2.02-4.987,3.807-2.932,7.866c0.795,1.569-0.194,4.186-3.232,4.948
	c0-1.065,0.009-1.873-0.002-2.68c-0.011-0.777,0.323-1.667-0.663-2.145c-2.458,2.743-1.136,7.892,2.467,8.297
	c2.89,0.325,4.54,1.642,4.773,4.079c0.313,3.274-3.278,1.379-4.715,2.593c1.403,2.266,6.836-0.376,5.186,5.519
	c1.376-1.035,1.927-2.037,2.665-2.873c0.881-0.999,2.37-0.459,2.563,0.212c0.456,1.602,3.063,2.116,2.662,2.838
	c-2.707,4.88-2.952,10.103-2.441,15.564c-3.914-1.211-5.362-4.023-6.859-7.064c-1.143-2.322,1.898-3.711,0.66-6.014
	c-0.441-0.821,0.477-2.365-1.531-1.959c-1.4,0.284-1.344,0.8-0.617,1.999c1.008,1.663-1.18,2.324-1.468,1.745
	c-1.099-2.209-3.715-3.621-3.749-6.244c-0.035-2.627-0.42-3.267-2.582-2.25c-2.675,1.258-4.873,2.946-3.199,6.563
	c1.442-1.731,2.545-3.453,4.783-0.435c2.549,3.438-0.567,3.693-2.473,4.583c1.604,1.696,2.902,1.603,4.422,0.821
	c2.332-1.2,2.598,1.388,3.717,2.308c0.636,0.522,1.392,1.723-0.318,2.161c-0.783,0.201-1.767,0.108-1.421,1.377
	c0.311,1.14,0.928,1.438,2.212,1.184c2.167-0.431,3.487,0.319,1.718,2.539c-1.787,2.24,1.724,2.771,1.298,4.538
	c-1.256-0.054-3.299-1.659-3.431,0.027c-0.262,3.354,3.746,2.116,5.067,4.259c1.345-2.038,0.366-4.936,4.724-5.652
	c-4.302,3.221-1.333,5.02,0.397,7.431c-2.735,0-5.008,0.271-7.163-0.116c-1.044-0.188-1.75-2.192-3.163-0.465
	c-1.586,1.938,2.241,1.53,1.333,3.408c-4.377-1.219-2.819-5.355-4.055-8.193c-1.226,1.781-1.528,4.319-4.321,4.232
	c0.117-4.546-3.079-9.444-6.539-10.099c1.782,2.267,1.79,2.27,0.451,5.617c-0.384,0.961-0.68,2.497,0.344,2.522
	c2.342,0.059,4.312-0.271,1.897,2.791c4.333,1.723,1.253,2.958-0.207,4.429c-0.192,0.193,0.399,1.672,0.587,1.663
	c3.994-0.187,6.774,5.611,11.59,1.563c-0.47,2.435-2.735,2.856-2.659,4.785c0.04,1.007-0.196,2.116-1.69,1.643
	c-1.076-0.342-1.377-0.719-0.725-2.047c0.685-1.395-0.996-1.324-1.869-1.423c-0.848-0.096-1.607,0.197-1.96,1.158
	c-1.198,3.263-2.434,4.491-5.371,4.613c-1.337,0.056-2.211,0.401-2.934,1.409c0.697-2.556-1.413-2.404-2.833-3.037
	c-2.363-1.053-5.386-0.323-7.271-1.602c-3.438-2.33-4.318-0.922-4.899,2.149c-0.355,1.878-0.657,3.765-1.013,5.823
	c0.822-0.353,1.456-0.89,2.015-0.821c3.161,0.388,6.792,3.855,8.958-1.687c0.26-0.666,1.345,0.671,2.066,0.742
	c1.327,0.131-0.145,3.438,2.26,1.957c1.344-0.828,0.88-2.248,0.609-3.505c3.96,4.84,9.434,3.65,14.615,3.701
	c15.273,0.149,30.546,0.756,45.819,0.016c2.708-0.742,5.355,0.276,8.043,0.272c36.488-0.053,72.977-0.128,109.464-0.028
	c3.51,0.009,4.046-1.263,3.989-4.335c-0.185-9.994-0.093-19.993-0.093-29.989c-0.001-241.256,0.001-482.511-0.021-723.766
	c0-1.449,0.503-3.012-0.567-4.339c-1.64-1.273-3.535-0.576-5.289-0.576c-98.653-0.009-197.308,0.061-295.961,0.047
	c-150.979-0.022-301.957-0.103-452.936-0.118c-1.924,0-3.979-0.599-5.791,0.643c-1.214,2.869-0.637,5.893-0.639,8.835
	c-0.041,105.647-0.035,211.294-0.037,316.94c-0.001,61.321,0.014,122.642-0.049,183.963c-0.004,3.876,0.159,5.506,4.657,2.996
	c13.578-7.576,26.649-15.968,39.874-24.109c17.723-10.91,35.689-21.479,52.902-33.151c15.146-10.271,30.957-19.5,45.902-30.062
	c6.639-4.691,13.57-8.977,20.124-13.78c14.854-10.887,29.382-22.226,44.383-32.901c9.096-6.474,17.478-13.796,25.602-21.295
	c7.441-6.869,15.193-13.429,22.314-20.707c8.286-8.469,17.64-15.889,26.483-23.816c7.894-7.076,15.654-14.302,23.595-21.323
	c16.097-14.236,32.351-28.295,48.396-42.588c11.316-10.08,22.36-20.465,33.588-30.646c17.46-15.832,34.971-31.608,52.463-47.405
	c10.67-9.637,21.037-19.643,32.122-28.777c8.173-6.733,15.994-13.854,24.065-20.689c3.488-2.954,4.318-1.431,5.654,1.82
	c3.844,9.359,4.532,19.44,6.738,29.148c3.699,16.277,5.731,32.917,9.484,49.212c0.196,2.832-1.506,3.039-3.777,3.043
	c-11.473,0.018-22.945,0.219-34.419,0.261c-17.4,0.063-34.776,0.733-52.147,1.869c0.809,0.223,1.621,0.331,2.434,0.341
	c27.442,0.318,54.885,0.609,82.326,0.966c2.429,0.031,5.019-0.723,7.245,0.973c0.051,1.162-0.047,2.353,0.175,3.48
	c2.715,13.789,5.763,27.52,8.132,41.367c1.759,10.279,4.963,20.174,7.398,30.256c3.174,13.144,6.957,26.222,12.322,38.729
	c0.677,1.577,0.718,4.119,2.828,4.013c2.008-0.101,0.541-2.737,1.528-3.913c1.587,0.147,1.026-0.741,1.159-1.76
	c0.419-3.214,1.301-6.351,5.262-7.027c3.822,7.794,7.646,15.587,11.469,23.381c-0.098,4.764,0.869,9.806,3.431,13.266
	c1.881,2.541,2.528,3.934,2.112,6.948C706.938,491.281,707.903,494.362,711.518,494.153z M683.387,893.001
	c2.675,1.032,5.522-1.01,8.222,0.438c0.691,0.372,1.737,0.108,1.84-0.992c0.12-1.299-0.561-1.773-1.834-1.401
	c-1.901,0.556-3.308-0.043-3.773-2.011c-0.524-2.22,1.386-1.994,2.667-2.636c2.412-1.209,3.592-3.183,2.122-6.586
	c-1.834,2.133-3.397,3.768-5.982,1.092c-0.996-1.032-3.782,0.552-2.577,2.503C686.294,887.007,683.617,889.793,683.387,893.001z
	 M715.148,555.127c-1.105-0.62-1.91-0.644-2.183-0.009c-0.523,1.221-0.982,2.078-2.181,0.686c-0.881-1.022-3.747-1.018-2.734-2.748
	c2.187-3.734,0.27-7.426,0.57-11.235c-2.066,3.289-0.988,7.928-4.558,10.443c0.752,0.629,1.806,1.114,2.189,1.919
	c0.743,1.558,3.479,1.92,2.718,4.209c-0.363,1.092-1.414,2.124,0.06,2.922c1.462,0.792,2.52-0.215,3.271-1.398
	C713.3,558.34,714.213,556.71,715.148,555.127z M711.189,540.339c1.776-2.093,2.4-5.713,6.265-3.871
	c0.511,0.243,0.803-0.679,1.01-1.37c0.584-1.951,0.898-3.337-1.54-4.53c-2.433-1.189-4.533-2.7-7.227-0.952
	c-0.806,0.523-1.245,1.488-0.447,2.045C712.459,533.9,711.61,536.983,711.189,540.339z M698.39,872.456
	c3.921,4.084,2.19,6.105-2,7.104c-1.161,0.276-2.034,0.771-1.548,1.934c0.602,1.436,1.671,0.596,2.404-0.001
	c2.523-2.051,5.491,1.195,8.06-0.713c0.287-0.213,1.457,0.528,0.637,1.146c-2.281,1.716,0.305,1.829,0.741,1.888
	c1.37,0.185,2.945-0.209,2.785-1.93c-0.169-1.809-1.363-2.955-3.466-2.554c-5.196,0.992-4.665-1.829-3.389-5.127
	c0.221-0.571,0.461-1.136,0.817-2.009C701.781,872.279,700.542,872.344,698.39,872.456z M716.263,646.326
	c-1.444-1.297,2.143-4.966-3.124-4.936c-0.807,0.004-4.832-1.314-2.849-4.393c0.66-1.025,2.45-1.484,1.349-3.066
	c-1.166-1.675-2.247,0.261-3.393,0.38c-0.966,0.101-1.916,0.355-2.706,0.51C707.396,639.998,709.861,644.616,716.263,646.326z
	 M710.611,816.602c-0.081,0.624-0.022,2.014,0.767,3.416c1.458,2.59,3.196,0.118,4.775,0.385c0.953,0.16,2.272-0.022,2.262-1.282
	c-0.019-2.074-2.187-0.874-3.006-1.656c-1.131-1.079-4.47-1-2.382-4.02c0.621-0.9,0.921-2.02-0.354-2.383
	c-1.083-0.309-1.796,0.792-2.016,1.749C710.444,813.741,710.611,814.758,710.611,816.602z M708.422,695.204
	c0.979-1.755,2.913-2.189,2.373-5.479c-0.424-2.588-4.788-4.841-1.559-8.177c0.479-0.495-1.263-1.295-1.638-0.642
	c-0.938,1.63-2.254,4.935-2.026,5.061C709.555,688.177,708.002,691.903,708.422,695.204z M705.685,585.628
	c-2.882-3.881-1.563-7.792-4.342-10.58C696.866,580.322,697.23,581.544,705.685,585.628z M696.219,624.316
	c1.109,2.594,1.887,3.765,2.068,5.021c0.182,1.247-0.562,2.896,1.376,3.096c1.586,0.163,3.323,0.076,4.604-1.173
	c0.448-0.438,0.908-1.102,0.93-1.679c0.027-0.765-0.784-1.12-1.438-0.909C700.435,629.748,699.38,626.53,696.219,624.316z
	 M724.57,771.923c0.144-1.992-0.198-3.444,0.376-4.148c2.558-3.13-0.222-4.758-1.644-6.774c-0.373-0.53-0.96-1.151-1.635-0.626
	c-0.44,0.345-0.931,1.46-0.813,1.564C723.644,764.4,722.102,768.418,724.57,771.923z M705.149,547.786
	c-3.698-1.268-4.808-2.808-3.936-6.105c0.445-1.683,4.288-3.303,1.687-4.345c-3.027-1.211-1.424,3.241-2.946,4.531
	c-0.249,0.211-0.502,0.479-0.618,0.774C698.045,545.928,700.033,548.165,705.149,547.786z M712.991,773.783
	c3.556,1.336,4.746,5.051,7.841,7.531C718.76,773.643,718.021,772.91,712.991,773.783z M692.472,535.294
	c0.492-2.125,3.776-1.19,3.674-3.621c-2,0.312-1.184-3.436-2.831-2.436C691.33,530.442,692.126,533.002,692.472,535.294z
	 M722.353,854.244c-1.211,2.764-3.348,4.216-3.159,6.661c0.055,0.71,1.394,0.578,2.144,0.111
	C723.767,859.502,723.653,857.394,722.353,854.244z"/>
<path fill-rule="evenodd" clip-rule="evenodd" fill="#F3CE87" d="M711.705,494.899c4.738,7.322,6.837,15.797,9.558,23.86
	c8.242,24.428,18.007,48.203,28.88,71.535c1.741,3.735,3.35,7.848,7.088,10.951c0.946-4.634-1.841-8.442-0.997-12.616
	c0.264-1.307-0.06-2.736,1.406-3.314c1.398-0.552,2.044,0.837,2.789,1.618c4.934,5.173,8.393,11.424,11.991,17.484
	c1.384,2.33,4.31,3.344,4.7,6.147c0.388,2.777,1.657,4.772,3.672,6.765c1.827,1.808,2.846,4.488-1.739,6.339
	c5.2-1.178,6.995,1.527,8.411,4.685c1.562,3.482,3.332,6.908,3.539,10.841c0.017,0.303,0.186,0.838,0.337,0.857
	c6.973,0.915,3.752,7.177,5.391,10.939c-1.025-1.4-2.003-2.84-3.093-4.188c-0.79-0.976-1.679-2.343-3.095-0.855
	c-1.123,1.181-0.827,2.401,0.364,3.459c0.621,0.552,1.107,1.279,1.783,1.741c4.229,2.89,5.497,6.07,1.204,9.994
	c-0.296,0.271-0.223,0.944-0.322,1.431c-0.791,0.175-2.258,0.307-2.271,0.531c-0.208,3.298-1.207,4.082-4.198,2.033
	c-1.303-0.893-1.815,1.083-2.232,1.997c-0.653,1.432-2.182,2.728-1.382,4.522c0.409,0.917,1.822,0.936,2.004,0.182
	c1.318-5.499,4.815-3.195,7.897-2.336c0.916,0.255,1.97,1.148,2.526-0.197c0.321-0.778,0.605-2.214-0.55-2.586
	c-2.331-0.752-1.64-2.542-1.747-4.1c2.118,1.221,3.338,5.196,6.797,1.52c0.167,2.859-1.659,4.192-2.555,6.872
	c3.61-2.52,6.894,2.059,10.52-1.842c-0.188,4.116-0.702,6.242-4.687,4.639c-1.388-0.558-2.963-1.683-4.635-0.167
	c-0.975,0.883-2.188,1.193-0.666,2.857c1.98,2.166,2.385,4.721-0.368,7.334c-0.896-0.935-0.027-2.981-1.939-3.589
	c-1.384,1.92-3.423,3.897-0.257,5.964c2.374,1.55,4.264,0.419,5.253-2.102c0.427-1.091,0.657-2.522,2.131-2.269
	c2.06,0.354,1.381,2.427,1.688,3.715c0.379,1.594-0.269,2.897-2.344,2.915c-1.008,0.008-6.906,7.859-6.528,7.979
	c3.547,1.125,2.125,3.39,1.66,5.678c-0.686,3.378-1.741,4.707-4.781,1.823c-1.385-1.313-3.25-1.566-5.252-1.172
	c3.62,3.639,6.174,8.308,11.564,10.289c0.167-4.131,1.987-6.938,6.315-7.505l0.072,0.046c0.821,1.041,1.72,2.031,2.441,3.138
	c0.684,1.047,0.007,1.878-0.743,2.598c-0.743,0.713-1.509,1.402-2.52,0.393c-0.729-0.728-1.169-2.465-2.597-0.955
	c-0.974,1.029-0.461,2.149,0.294,3.154c1.457,1.94,0.704,2.644-1.453,2.6c-0.855-0.018-2.076-0.881-2.34,0.771
	c-0.175,1.096,0.294,1.837,1.388,2.33c2.737,1.237,2.054,2.773,0.453,4.619c-2.932,3.379-0.817,7.211-0.501,10.792
	c0.141,1.593,1.851,1.661,3.121,0.534c1.369-1.215,2.392-0.561,3.394,0.534c0.745,0.813,0.487,1.583-0.199,2.147
	c-0.89,0.731-1.311,2.176-3.222,1.024c-2.902-1.746-4.454,0.002-4.423,2.935c0.022,2.153-2.883,5.044,1.512,6.476
	c0.779,0.254-0.813,3.374-1.194,3.144c-4.699-2.832-2.482,5.238-6.095,3.753c0.088,0.613-0.016,1.362,0.304,1.811
	c0.676,0.949,1.438,0.994,2.467,0.122c1.48-1.254,2.93-1.739,2.346,1.251c-0.057,0.287-0.086,0.769,0.071,0.882
	c2.967,2.125,5.139,6.746,4.776,12.621c-0.193,3.134,1.477,5.09,2.325,8.153c2.447-3.095-0.409-5.598,0.328-8.095
	c0.32-1.085-1.342-3,0.78-3.24c2.031-0.23,0.222,1.853,0.988,2.692c0.514,0.563,1.089,1.538,0.94,2.161
	c-0.751,3.141,0.512,4.352,3.529,4.068c2.247-0.211,2.656,1.578,2.368,2.853c-0.415,1.833-1.587,0.787-2.967,0.458
	c-5.344-1.275-7.229,2.683-8.85,6.724c0.276,0.132,0.659,0.453,0.814,0.366c1.089-0.607,3.581,1.072,3.996,2.474
	c0.869,2.938,3.068,6.379-2.909,5.885c1.723-5.183,0.971-5.971-6.038-6.335c5.495,3.228,0.573,7.016-0.217,9.822
	c-0.889,3.151-1.939,5.144,1.127,7.356c2.321,1.675,0.845,4.325,0.929,6.402c0.07,1.719-1.592,0.967-2.357-0.116
	c-0.707-0.997-1.455-0.608-2.1-0.073c-0.277,0.23-0.367,1.194-0.354,1.197c4.319,1.294,0.931,4.578,1.533,6.676
	c1.855,0.593,2.878-3.114,4.314-0.935c1.305,1.98,1.97,4.603,2.185,7.007c0.15,1.679-1.318,2.909-3.39,2.834
	c-1.404-0.051-2.976,0.396-2.861,2.037c0.097,1.402,1.066,2.82,2.559,3.335c1.475,0.509,2.854,0.606,3.306-1.607
	c0.246-1.203,1.826-2.23,2.623-1.008c2.343,3.594,6.481,4.765,9.986,7.385c-2.35,1.063-3.463-1.281-5.134-0.674
	c-0.635,2.858-1.086,5.776-1.969,8.557c-0.599,1.885-0.575,3.794,1.263,4.114c3.092,0.539,0.826-2.425,1.727-3.472
	c0.203-0.236,0.406-0.473,0.677-0.787c1.047,0.855,0.609,2.339,1.626,3.327c1.428,1.39-0.036,2.806-0.924,3.867
	c-1.08,1.292-2.088,0.602-3.377-0.267c-6.39-4.3-8.63-3.554-11.848,3.501c-0.426,0.935-0.052,1.736,0.415,2.267
	c4.469,5.076,1.22,6.973-3.36,8.367c-0.766-0.843-2.327-1.891-2.171-2.496c1.392-5.398-2.921-3.24-5.198-4.559
	c0.338,2.349,3.177,2.068,2.949,4.121c-1.084,0.848-2.125-0.979-3.518,0.368c2.042,2.102,4.746,3.561,6.295,7.116
	c0.786-2.103,1.233-3.299,1.681-4.495c2.45,3.312,1.332,5.919-4.622,8.6c3.928-0.352,6.569-0.077,4.558,4.148
	c-2.07-0.798-3.997-1.794-6.461,0.242c-2.618,2.165-6.358-1.24-6.573-5.35c-0.087-1.664,1.576-2.442,1.4-4.328
	c-2.028,0.827-3.891,1.587-6.23,2.541c4.235,1.938,5.715,4.232,2.048,7.727c-2.762,2.63,2.322,3.073,1.541,5.569
	c-1.821-0.01-3.689,0.14-5.302-1.311c-1.233-1.11-2.513-2.55-4.299-1.099c-1.807,1.468-0.794,2.907,0.319,4.293
	c0.679,0.844,0.699,1.835,0.308,2.834c-15.277,0.74-30.55,0.134-45.823-0.016c-5.182-0.051-10.655,1.139-14.614-3.7l0.107-0.021
	c0.723-1.008,1.597-1.354,2.934-1.409c2.938-0.122,4.173-1.351,5.371-4.613c0.353-0.961,1.112-1.254,1.96-1.158
	c0.873,0.099,2.554,0.028,1.869,1.423c-0.652,1.328-0.352,1.705,0.725,2.047c1.494,0.474,1.73-0.636,1.69-1.643
	c-0.076-1.929,2.189-2.351,2.659-4.785c-4.815,4.049-7.596-1.749-11.59-1.563c-0.188,0.009-0.779-1.47-0.587-1.663
	c1.46-1.471,4.54-2.706,0.207-4.429c2.414-3.063,0.444-2.732-1.897-2.791c-1.023-0.025-0.728-1.562-0.344-2.522
	c1.339-3.348,1.331-3.351-0.451-5.617c3.46,0.654,6.656,5.553,6.539,10.099c2.793,0.087,3.096-2.451,4.321-4.232
	c1.235,2.838-0.322,6.975,4.055,8.193c0.908-1.878-2.919-1.471-1.333-3.408c1.413-1.728,2.119,0.277,3.163,0.465
	c2.155,0.387,4.428,0.116,7.163,0.116c-1.73-2.411-4.699-4.21-0.397-7.431c-4.357,0.717-3.379,3.614-4.724,5.652
	c-1.321-2.143-5.329-0.905-5.067-4.259c0.132-1.687,2.175-0.081,3.431-0.027c0.426-1.767-3.085-2.298-1.298-4.538
	c1.77-2.22,0.449-2.97-1.718-2.539c-1.284,0.255-1.901-0.044-2.212-1.184c-0.346-1.269,0.638-1.176,1.421-1.377
	c1.71-0.438,0.954-1.639,0.318-2.161c-1.119-0.92-1.385-3.508-3.717-2.308c-1.52,0.781-2.818,0.875-4.422-0.821
	c1.905-0.89,5.021-1.146,2.473-4.583c-2.238-3.019-3.341-1.297-4.783,0.435c-1.674-3.617,0.524-5.306,3.199-6.563
	c2.162-1.017,2.547-0.377,2.582,2.25c0.034,2.623,2.65,4.035,3.749,6.244c0.288,0.579,2.476-0.082,1.468-1.745
	c-0.727-1.199-0.783-1.715,0.617-1.999c2.008-0.406,1.09,1.138,1.531,1.959c1.238,2.303-1.803,3.691-0.66,6.014
	c1.497,3.041,2.945,5.854,6.859,7.064c-0.511-5.462-0.266-10.685,2.441-15.564c0.4-0.722-2.206-1.236-2.662-2.838
	c-0.192-0.671-1.682-1.211-2.563-0.212c-0.738,0.836-1.289,1.838-2.665,2.873c1.65-5.895-3.782-3.253-5.186-5.519
	c1.437-1.214,5.028,0.682,4.715-2.593c-0.233-2.438-1.884-3.754-4.773-4.079c-3.603-0.405-4.925-5.554-2.46-8.299
	c0.979,0.479,0.646,1.369,0.656,2.146c0.011,0.807,0.002,1.614,0.002,2.68c3.038-0.763,4.027-3.379,3.232-4.948
	c-2.056-4.06,0.986-5.847,2.932-7.866c4.04-4.193,4.072-6.303-0.86-9.839c4.361,0.106,8.831,0.417,5.951-6.046
	c-0.559-1.254,0.55-1.038,1.36-1.182c0.797-0.142,2.164,0.55,2.264-1.102c0.079-1.322-0.834-2.043-1.631-2.914
	c-1.305-1.425-1.682,0.293-2.268,0.675c-1.754,1.144-3.597,1.597-5.645,1.419c-1.07-0.092-2.417-0.99-3.002,0.589
	c-0.238,0.646-0.055,1.851,0.415,2.28c1.4,1.284,2.337-0.114,3.356-0.894c0.229-0.175,0.613-0.146,0.981-0.221
	c1.325,1.783-0.586,2.789-1.2,3.817c-2.441,4.08-3.441,4.072-5.807,0.156c-1.141-1.891-2.572-3.305-6.076-4.461
	c3.668-0.427,6.067-0.45,7.45-2.788c0.663-1.12,1.72-1.991,3.31-0.854c1.107,0.792,1.76-0.068,2.162-1.139
	c1.635-4.345,3.375-8.551,9.392-7.451c0.365,0.067,0.895-0.766,1.19-1.479c-3.629,0.87-8.545-2.403-10.056,3.799
	c-3.618-2.593-3.21-5.71-2.402-8.918l-0.079,0.072c3.314,3.668,5.939,1.26,8.871-1.215c-1.043-1.186-7.404,2.2-3.413-3.478
	c0.738-1.051-1.577-0.956-1.879-1.53c-0.892-1.698-7.259-1.175-2.138-5.617c1.813-1.572,1.06-2.441,3.009-2.609
	c0.905,1.065-0.19,1.861-0.436,2.735c-0.392,1.395-0.541,2.839,0.929,3.421c2.101,0.832,0.485-1.86,1.459-1.893
	c3.483-0.117,4.585-2.328,5.414-5.108c-1.959-1.008-3.475,2.603-5.03-0.182c-0.705-1.261-2.671-1.995-2.222-3.653
	c0.421-1.554,2.266-1.053,3.479-1.287c5.627-1.087,0.502-5.392,2.263-7.767c0.348-0.47-1.253-2.383-2.329-3.537
	c0.232,2.424-3.291,4.666-0.011,7.105c0.902,0.672,0.354,1.33-0.443,1.909c-2.139,1.553-2.625-1.2-3.986-1.716
	c-1.134,4.749-1.549,5.221-6.397,6.71c1.675-1.758,3.939-2.354,3.252-4.771c-0.52-1.827-0.611-3.73-3.309-2.664
	c-0.328-1.043-2.091-1.572-1.297-2.949c0.65-1.129,1.496-2.049,3.223-1.632c3.228,0.779,5.608,0.452,4.82-4.035
	c-0.204-1.164,1.378-1.807,2.926-1.973c2.369-0.253,0.052-1.544,0.256-2.341c2.475-0.667,5.961,4.457,7.961-1.894
	c-2.222,0.458-3.897,1.138-5.824-0.209c-2.374-1.659-1.97,0.827-2.059,2.182c-2.558,0.05-3.091-3.645-6.165-3.063
	c-3.834,0.726-3.919,0.503-6.464,3.913c-1.654-1.257,1.989-4.082-0.717-4.308c-3.222-0.269-0.956-2.271-1.924-3.046
	c1.916-0.845,4.989,3.34,5.557-1.737c0.12-1.075,1.311,0.426,1.891,0.367c2.236-0.223,3.025,2.607,5.611,2.353
	c-0.517-1.941-0.217-3.144-3.156-4.144c-2.943-1.001-8.689-1.325-7.762-7.426c0.145-0.952-1.605-2.057-2.07-1.417
	c-2.793,3.849-4.963-0.212-7.575-0.366c2.709-1.748,2.945-5.925,6.813-6.255c-1.763,4.319,1.956,4.555,4.329,5.687
	c0.903,0.431,1.436-0.378,1.813-1.177c0.519-1.097-0.24-1.453-0.986-1.829c-1.742-0.878-3.488-1.745-5.232-2.616
	c0.3-5.236,3.392-9.491,4.868-14.482c-1.48,3,1.013,5.09,1.437,7.526c0.208,1.2,1.514,1.045,2.506,0.858
	c0.882-0.165,1.955-0.946,1.697-1.535c-1.593-3.639,0.981-7.101,0.243-10.699c-0.347-1.692-1.414-2.415-2.694-2.277
	c-2.031,0.218-0.536,1.347-0.486,2.312c0.102,1.941-1.425,1.263-2.456,0.802c-4.123-1.84-4.439-6.298-3.812-10.994
	c0.452-3.388,1.078-7.413-0.3-11.154c-0.941-2.558-3.32-3.116-4.997-4.62c-1.033-0.926-2.567-1.391-3.559-0.138
	c-1.012,1.278-0.614,2.855,0.458,4.072c0.65,0.739,1.562,1.247,2.226,1.978c3.646,4.014,3.491,4.456-1.75,5.915
	c-0.535,0.148-0.95,0.728-2.619,2.07c3.259-5.96-0.129-8.05-3.44-9.77c-2.883-1.497-1.432,1.979-2.949,2.966
	c-0.23-2.202-6.079-5.301,1.86-5.196c2.776,0.036,3.312-3.205,1.819-6.322c2.122,0.375,3.831,0.694,5.547,0.975
	c1.503,0.245,3.229,0.277,3.816-1.251c0.265-0.689-0.759-2.132-1.526-2.908c-1.998-2.021-1.622,0.719-2.371,1.282
	c-2.662,2.004-5.185-3.424-7.628-0.353c-1.745,2.195-3.071,4.231-6.168,2.308c0.604-2.043,2.805-0.782,3.802-2.066
	c0.106-1.811-3.339-2.085-1.788-4.862c3.227,4.442,7.629-3.531,11.313,1.527c-0.486-2.952-3.043-5.896,0.926-8.057
	c0.811-0.441-0.36-0.991-0.778-1.36c-1.309-1.158-1.564-2.637-0.864-4.079c0.907-1.869,2.23-0.375,3.42-0.201
	c1.7,0.249,6.186-5.023,5.893-7.013c-0.088-0.595-0.551-1.104-0.2-1.792c2.077-4.069,2.07-4.073-3.093-4.817
	c-0.967,1.977,3.361,0.786,1.772,2.858c-0.547,0.713-1.961,1.451-3.093,0.509c-1.221-1.016-2.95-1.968-1.31-3.991
	c0.648-0.8,1.261-2.319,0.037-2.413c-5.212-0.399-4.343-4.327-5.072-7.596c-0.331-1.485-1.804-2.717-2.759-4.063
	c4.341,2.321,7.733,2.078,9.364-4.037c-2.437,2.115-4.599,3.756-7.633,2.521c-0.702-0.286-1.345,0.791-1.669,1.594
	c-2.157-0.531-4.326-1.983-6.602,0.289c1.629-2.882,5.688-3.039,6.144-6.974c0.304-2.609-0.085-5.673,3.153-7.614
	c1.342-0.805-0.052-3.213-1.458-4.499c-2.26,1.782,0.468,3.039-0.147,5.822c-2.651-3.594-2.863-9.903-9.268-6.879
	c1.503-1.838,1.945-4.745,5.001-2.42c0.85,0.646,2.322,0.208,2.613-0.686c0.975-2.99,3.779-5.486,2.614-9.083l-0.073,0.074
	c5.74-2.029,3.622-6.472,3.083-10.367c-3.105,0.842-6.835,2.631-6.108-3.518c-2.768,0.099-1.559-2.294-2.171-3.525
	c-1.179-2.371,1.813-2.354,2.283-3.808c0.925,0.401,2.561,0.685,2.649,1.224c0.375,2.268-2.46,0.879-3.301,2.823
	c3.063-0.422,5.191,1.274,8.304,3.598c-1.221-4.052-4.637-7.495,0.55-9.577c-0.249-0.379-0.445-0.808-0.756-1.124
	c-0.688-0.7-1.786-1.502-0.813-2.39c0.575-0.525,2.018-0.57,2.852-0.254c2.661,1.009,3.581,0.225,3.604-2.56
	c0.012-1.522,0.152-3.595,2.837-2.779c1.231,0.374,1.902-0.455,2.181-1.476c0.388-1.42-1.044-2.705-1.658-2.666
	c-3.977,0.256-7.757-4.269-12.347,0.91c0.708-3.872,3.726-3.883,4.457-6.178c-1.09-1.372-4.568-0.776-3.769-4.01
	c1.396-0.89,2.396,0.424,3.563,0.863c0.885,0.333,2.126,1.271,2.361-0.254c0.653-4.228,2.2-2.311,3.556-0.028
	c1.141-2.124-2.813-4.724,1.495-5.443c0.98-0.164,0.296-1.324-0.405-1.876c-1.354-1.066-1.436-1.692,0.188-2.92
	c1.846-1.395,2.907-3.41-1.179-2.966c-0.314,0.034-1.019-0.547-0.991-0.778c0.69-6.003-4.103-3.544-6.539-3.924
	c-3.67-0.572-5.172-1.88-4.24-5.993c1.99,6.054,6.049,2.388,7.49,1.176c2.301-1.935,2.134-5.44-0.435-8.095
	c-1.269-1.31-3.282-2.44-1.104-4.855c0.941-1.045-0.145-2.119-1.59-2.263l0.063,0.08c-0.684-2.698-0.329-5.686-3.005-7.761
	C708.981,496.608,711.646,496.033,711.705,494.899z M794.678,731.873c-5.182,2.424-2.971,7.724-5.056,11.49
	c-0.565,1.021-2.069,3.193,0.053,3.59c1.233,0.23,3.812,1.513,4.67-0.707c0.4-1.034,3.382-2.754-0.141-4.117
	c-1.225-0.474-1.612-2.193-0.285-3.343C796.544,736.514,795.063,734.047,794.678,731.873z M791.246,770.915
	c1.037,1.41,2.961,2.093,3.334,4.035c0.128,0.669,0.476,1.416,1.202,1.246c0.488-0.113,1.261-0.976,1.17-1.291
	c-0.765-2.657,0.372-4.348,2.426-5.855c1.448-1.063-0.002-1.957-0.475-2.894c-0.809-1.603-2.564-1.943-3.924-2.618
	c-0.456-0.227-1.514,1.626-0.976,2.83C795.287,769.238,791.886,769.192,791.246,770.915z M789.299,802.884
	c1.354-3.615,2.068-6.625,5.721-6.88c0.545-0.038,1.026-1.221,1.506-1.896c0.446-0.63,0.485-1.268-0.346-1.565
	c-0.394-0.142-1.225-0.134-1.288,0.028c-1.385,3.57-3.412,1.231-5.196,0.565c-0.979-0.366-1.89-0.627-2.827-0.008
	c-0.651,0.431-0.924,1.264-0.37,1.656C788.958,796.525,788.314,799.438,789.299,802.884z M790.38,720.427
	c-1.586-0.478-2.84-0.197-3.476,1.19c-0.468,1.022,0.402,2.576,1.027,2.269c2.171-1.071,3.504,3.364,5.583,0.683
	c0.675-0.87,1.757-2.223,1.488-2.882C794.11,719.488,791.705,721.389,790.38,720.427z M786.594,689.356
	c1.124-0.595,2.05-0.786,2.148-1.184c1.026-4.118,1.08-8.521,3.816-12.114c0.762-1-0.024-1.51-0.847-1.757
	c-1.264-0.379-2.688,0.066-2.684,1.322C789.045,680.148,787.565,684.408,786.594,689.356z M783.8,714.164
	c-1.497,1.786,0.083,2.917,1.783,2.992c2.213,0.098,2.004-2.312,2.479-3.746c0.757-2.285-1.277-3.186-2.726-3.231
	C782.256,710.082,784.258,712.475,783.8,714.164z M736.996,731.913c-0.532,2.223,0.676,3.341,1.313,4.582
	c0.451,0.881,1.202,2.29,2.615,1.146c0.827-0.67,2.313-0.898,2.2-2.361c-0.091-1.179-1.1-1.377-2.084-1.674
	C739.741,733.214,738.519,732.566,736.996,731.913z M791.088,813.914c1.619-1.788,4.393-1.961,5.438-4.847
	c-2.589,0.919-4.212-1.201-6.513-1.004C789.814,810.164,792.737,811.522,791.088,813.914z M731.201,721.472
	c-0.341-0.627-0.461-1.191-0.803-1.411c-0.862-0.554-1.664-0.24-1.872,0.734c-0.475,2.232-3.788,2.95-3.015,5.752
	c0.077,0.277,1.126,0.591,1.164,0.531C727.97,725.046,729.268,723.024,731.201,721.472z M796.159,778.559
	c0,1.738,0.003,2.813-0.001,3.886c-0.012,2.826,1.97,4.646,2.826,2.889C800.251,782.736,798.404,780.846,796.159,778.559z"/>
<path fill-rule="evenodd" clip-rule="evenodd" fill="#F3CE87" d="M649.754,332.952c1.004,2.627,3.065,2.802,5.551,2.793
	c26.626-0.093,53.254-0.176,79.88-0.046c9.767,0.047,19.503,1.271,29.926,0.904c-2.842,2.258-5.541,1.906-8.122,1.911
	c-33.118,0.063-66.235,0.075-99.354,0.192c-2.125,0.007-4.791-1.163-6.22,1.701c-2.227-1.699-4.816-0.945-7.245-0.977
	c-27.441-0.356-54.884-0.647-82.326-0.966c-0.813-0.01-1.625-0.118-2.434-0.341c17.371-1.136,34.747-1.807,52.147-1.869
	c11.474-0.042,22.946-0.243,34.419-0.261C648.248,335.991,649.95,335.784,649.754,332.952z"/>
<path fill-rule="evenodd" clip-rule="evenodd" fill="#F3CE87" d="M710.968,889.74l-0.107,0.021c0.27,1.256,0.733,2.676-0.61,3.504
	c-2.404,1.481-0.933-1.826-2.26-1.957c-0.722-0.071-1.807-1.408-2.066-0.742c-2.166,5.542-5.797,2.074-8.958,1.687
	c-0.559-0.068-1.192,0.469-2.015,0.821c0.355-2.059,0.657-3.945,1.013-5.823c0.581-3.071,1.462-4.479,4.899-2.149
	c1.886,1.278,4.908,0.549,7.271,1.602C709.555,887.336,711.665,887.185,710.968,889.74z"/>
<path fill-rule="evenodd" clip-rule="evenodd" fill="#F3CE87" d="M683.387,893.001c0.23-3.208,2.907-5.994,0.684-9.593
	c-1.205-1.951,1.581-3.535,2.577-2.503c2.585,2.676,4.148,1.041,5.982-1.092c1.47,3.403,0.29,5.377-2.122,6.586
	c-1.281,0.642-3.191,0.416-2.667,2.636c0.466,1.968,1.872,2.566,3.773,2.011c1.273-0.372,1.954,0.103,1.834,1.401
	c-0.103,1.101-1.148,1.364-1.84,0.992C688.909,891.991,686.062,894.033,683.387,893.001z"/>
<path fill-rule="evenodd" clip-rule="evenodd" fill="#F3CE87" d="M698.39,872.456c2.152-0.112,3.392-0.177,5.042-0.263
	c-0.356,0.873-0.597,1.438-0.817,2.009c-1.276,3.298-1.808,6.119,3.389,5.127c2.103-0.401,3.297,0.745,3.466,2.554
	c0.16,1.721-1.415,2.114-2.785,1.93c-0.437-0.059-3.022-0.172-0.741-1.888c0.82-0.617-0.35-1.358-0.637-1.146
	c-2.568,1.908-5.536-1.338-8.06,0.713c-0.733,0.597-1.803,1.437-2.404,0.001c-0.486-1.162,0.387-1.657,1.548-1.934
	C700.58,878.562,702.311,876.54,698.39,872.456z"/>
</svg>
