<svg version="1.1" id="Layer_1" xmlns="http://www.w3.org/2000/svg" xmlns:xlink="http://www.w3.org/1999/xlink" x="0px" y="0px"
	 width="1024.191px" height="1024.191px" viewBox="0 0 1024.191 1024.191" enable-background="new 0 0 1024.191 1024.191"
	 xml:space="preserve">
<path fill="currentColor" d="M898.285,125.306c0.037,32.158,0.101,64.315,0.104,96.474c0.017,109.822-0.001,219.645,0.018,329.467
	c0.019,114.487,0.044,228.976,0.178,343.463c0.005,3.915-1,4.912-4.962,4.908c-106.487-0.123-212.977-0.098-319.463-0.104
	c-112.2-0.006-224.401-0.016-336.602-0.026c-35.663-0.003-71.326-0.111-106.988,0.096c-4.396,0.025-5.022-1.318-5.017-5.27
	c0.15-103.99,0.212-207.98,0.198-311.971c-0.019-144.652-0.1-289.306-0.21-433.959c-0.005-6.442,0.623-12.896-0.772-19.344
	c-1.219-5.634,3.399-3.763,6.115-4.202c1.289,0.169,2.583,0.484,3.879,0.486c74.787,0.095,149.574,0.218,224.361,0.223
	c107.268,0.006,214.535-0.072,321.803-0.122C753.38,125.392,825.833,125.346,898.285,125.306z M711.518,494.153
	c-0.103,0.29-0.039,0.539,0.188,0.746c-0.06,1.134-2.724,1.709-1.035,3.019c2.676,2.075,2.321,5.063,3.004,7.759
	c-1.607-0.126-2.633-1.183-3.629-2.28c-0.771-0.853-1.617-1.995-2.828-1.512c-1.614,0.646-1.691,2.195-1.306,4.112
	c1.788-0.993,3.343-1.495,4.85,0.651c1.184,1.686,2.144,0.041,2.852-1.051c1.444,0.145,2.53,1.219,1.59,2.264
	c-2.178,2.415-0.164,3.546,1.104,4.854c2.568,2.654,2.735,6.16,0.436,8.096c-1.441,1.212-5.5,4.878-7.49-1.177
	c-0.932,4.113,0.57,5.421,4.24,5.993c2.437,0.38,7.229-2.079,6.539,3.924c-0.027,0.231,0.677,0.813,0.991,0.778
	c4.086-0.444,3.023,1.571,1.179,2.966c-1.623,1.229-1.542,1.854-0.188,2.92c0.701,0.552,1.387,1.712,0.405,1.876
	c-4.309,0.72-0.354,3.319-1.495,5.443c-1.354-2.282-2.901-4.199-3.556,0.028c-0.235,1.523-1.478,0.587-2.361,0.254
	c-1.168-0.439-2.167-1.753-3.563-0.863c-0.801,3.232,2.679,2.638,3.769,4.01c-0.73,2.295-3.749,2.307-4.457,6.178
	c4.59-5.179,8.37-0.653,12.347-0.909c0.614-0.039,2.047,1.245,1.658,2.666c-0.277,1.021-0.948,1.85-2.181,1.476
	c-2.685-0.814-2.825,1.257-2.837,2.779c-0.022,2.784-0.942,3.567-3.604,2.56c-0.834-0.315-2.275-0.271-2.852,0.254
	c-0.974,0.889,0.125,1.689,0.813,2.391c0.312,0.315,0.508,0.745,0.757,1.124c-5.188,2.082-1.771,5.524-0.551,9.577
	c-3.111-2.323-5.239-4.021-8.304-3.599c0.841-1.943,3.676-0.556,3.301-2.823c-0.089-0.538-1.725-0.821-2.648-1.224
	c-0.47,1.453-3.462,1.438-2.283,3.808c0.612,1.231-0.597,3.624,2.171,3.525c-0.727,6.148,3.003,4.359,6.108,3.519
	c0.539,3.896,2.656,8.338-3.083,10.367c-0.237-2.771-1.64-3.537-3.92-1.992c-1.477,0.996-2.666,2.407-4.035,3.572
	c-1.244,1.059-1.931,2.164-0.938,3.779c0.33,0.538,0.424,1.422,1.257,1.174c1.327-0.396,2.201-1.439,2.664-2.701
	c0.879-2.39,1.724-4.718,5.047-3.906c1.164,3.597-1.641,6.093-2.614,9.083c-0.291,0.894-1.765,1.331-2.613,0.686
	c-3.056-2.325-3.498,0.582-5.001,2.42c6.404-3.024,6.616,3.285,9.268,6.879c0.615-2.783-2.111-4.04,0.147-5.822
	c1.406,1.286,2.8,3.694,1.458,4.499c-3.238,1.941-2.85,5.006-3.153,7.614c-0.456,3.936-4.515,4.092-6.144,6.975
	c2.275-2.272,4.443-0.82,6.602-0.289l-0.063-0.077c0.955,1.347,2.428,2.578,2.759,4.063c0.729,3.27-0.14,7.196,5.072,7.597
	c1.224,0.094,0.61,1.612-0.037,2.413c-1.642,2.022,0.089,2.976,1.31,3.99c1.133,0.942,2.546,0.204,3.094-0.509
	c1.589-2.072-2.739-0.882-1.772-2.857c5.163,0.743,5.17,0.747,3.093,4.816c-0.351,0.688,0.112,1.197,0.2,1.792
	c0.293,1.989-4.192,7.262-5.893,7.014c-1.189-0.175-2.514-1.669-3.42,0.2c-0.7,1.442-0.444,2.921,0.863,4.079
	c0.418,0.369,1.589,0.919,0.778,1.36c-3.969,2.161-1.412,5.104-0.926,8.057c-3.685-5.059-8.086,2.915-11.313-1.526
	c-1.551,2.776,1.896,3.052,1.788,4.861c-0.997,1.284-3.197,0.023-3.802,2.066c3.097,1.924,4.423-0.112,6.168-2.309
	c2.443-3.07,4.966,2.356,7.628,0.354c0.749-0.563,0.373-3.303,2.371-1.282c0.768,0.776,1.791,2.219,1.526,2.908
	c-0.589,1.528-2.313,1.496-3.816,1.251c-1.716-0.28-3.425-0.6-5.547-0.975c1.492,3.116,0.957,6.357-1.819,6.321
	c-7.938-0.104-2.091,2.994-1.859,5.196c1.518-0.986,0.065-4.463,2.948-2.966c3.313,1.72,6.699,3.81,3.44,9.77
	c1.669-1.343,2.084-1.922,2.619-2.069c5.241-1.459,5.396-1.901,1.75-5.915c-0.664-0.73-1.575-1.238-2.227-1.979
	c-1.071-1.217-1.47-2.794-0.458-4.071c0.991-1.254,2.525-0.788,3.56,0.138c1.677,1.504,4.056,2.063,4.997,4.62
	c1.378,3.74,0.752,7.767,0.3,11.153c-0.628,4.696-0.313,9.154,3.813,10.994c1.03,0.461,2.558,1.141,2.455-0.802
	c-0.05-0.965-1.545-2.094,0.486-2.313c1.28-0.138,2.348,0.586,2.694,2.277c0.737,3.6-1.836,7.062-0.243,10.699
	c0.258,0.589-0.815,1.37-1.697,1.535c-0.992,0.187-2.298,0.342-2.506-0.858c-0.424-2.437-2.917-4.526-1.437-7.526
	c-1.478,4.991-4.568,9.246-4.868,14.482l0.078-0.064c-3.868,0.33-4.104,4.508-6.813,6.256c2.612,0.153,4.782,4.215,7.575,0.365
	c0.465-0.64,2.215,0.466,2.07,1.417c-0.929,6.102,4.817,6.426,7.762,7.427c2.939,1,2.64,2.202,3.156,4.144
	c-2.586,0.255-3.375-2.575-5.611-2.353c-0.58,0.059-1.771-1.442-1.891-0.367c-0.567,5.077-3.642,0.893-5.558,1.736
	c0.968,0.775-1.298,2.777,1.924,3.047c2.706,0.226-0.938,3.051,0.718,4.308c2.545-3.41,2.63-3.188,6.464-3.913
	c3.073-0.582,3.606,3.112,6.165,3.063l-0.078-0.079c-0.204,0.797,2.113,2.088-0.256,2.341c-1.548,0.166-3.13,0.809-2.927,1.973
	c0.788,4.487-1.593,4.814-4.819,4.035c-1.728-0.417-2.572,0.503-3.224,1.632c-0.794,1.377,0.97,1.906,1.298,2.949
	c2.696-1.066,2.788,0.837,3.309,2.664c0.688,2.417-1.577,3.013-3.252,4.771c4.849-1.488,5.264-1.961,6.396-6.71
	c1.361,0.517,1.849,3.27,3.986,1.717c0.797-0.579,1.346-1.237,0.443-1.909c-3.28-2.439,0.242-4.683,0.011-7.105
	c1.076,1.154,2.677,3.067,2.329,3.537c-1.761,2.375,3.364,6.68-2.264,7.768c-1.213,0.233-3.058-0.268-3.479,1.286
	c-0.449,1.658,1.517,2.394,2.222,3.653c1.557,2.784,3.071-0.826,5.03,0.183c-0.829,2.779-1.931,4.99-5.414,5.107
	c-0.974,0.032,0.643,2.725-1.459,1.893c-1.47-0.581-1.32-2.025-0.929-3.421c0.245-0.874,1.341-1.67,0.43-2.734
	c-1.942,0.168-1.189,1.037-3.003,2.608c-5.121,4.442,1.246,3.919,2.138,5.617c0.303,0.574,2.617,0.479,1.88,1.53
	c-3.991,5.678,2.369,2.292,3.412,3.478c-2.932,2.476-5.557,4.884-8.869,1.216c0.433-1.978,2.119-4.207-0.061-5.855
	c-2.051-1.553-2.868,1.561-5.001,1.968c4.16-1.362,1.952,4.442,5.139,3.815c-0.808,3.208-1.216,6.325,2.402,8.918
	c1.511-6.202,6.427-2.929,10.056-3.799c-0.296,0.713-0.824,1.546-1.189,1.479c-6.018-1.1-7.757,3.106-9.393,7.451
	c-0.401,1.07-1.055,1.931-2.162,1.139c-1.59-1.138-2.646-0.267-3.31,0.854c-1.383,2.338-3.782,2.361-7.45,2.788
	c3.504,1.156,4.937,2.57,6.076,4.461c2.365,3.916,3.365,3.924,5.807-0.156c0.614-1.028,2.525-2.034,1.2-3.816
	c-0.368,0.074-0.753,0.046-0.98,0.221c-1.021,0.779-1.956,2.178-3.356,0.894c-0.47-0.43-0.653-1.635-0.415-2.279
	c0.585-1.579,1.933-0.682,3.002-0.59c2.048,0.179,3.892-0.274,5.646-1.419c0.586-0.382,0.963-2.1,2.268-0.675
	c0.797,0.871,1.71,1.592,1.631,2.914c-0.1,1.651-1.467,0.96-2.264,1.103c-0.811,0.144-1.919-0.072-1.36,1.182
	c2.88,6.463-1.59,6.152-5.95,6.046c4.933,3.536,4.899,5.646,0.859,9.839c-1.945,2.021-4.986,3.808-2.932,7.866
	c0.795,1.569-0.194,4.186-3.232,4.948c0-1.065,0.009-1.873-0.002-2.681c-0.011-0.776,0.323-1.667-0.663-2.145
	c-2.458,2.743-1.136,7.892,2.467,8.297c2.891,0.325,4.54,1.643,4.773,4.079c0.313,3.274-3.278,1.379-4.715,2.593
	c1.403,2.267,6.836-0.376,5.186,5.52c1.376-1.035,1.927-2.037,2.665-2.873c0.881-0.999,2.37-0.459,2.563,0.212
	c0.456,1.602,3.063,2.116,2.662,2.838c-2.707,4.88-2.952,10.103-2.441,15.563c-3.914-1.211-5.362-4.022-6.859-7.063
	c-1.143-2.322,1.898-3.711,0.66-6.014c-0.44-0.821,0.478-2.365-1.531-1.959c-1.399,0.283-1.344,0.8-0.616,1.999
	c1.008,1.662-1.181,2.323-1.469,1.744c-1.099-2.209-3.715-3.62-3.749-6.243c-0.034-2.628-0.42-3.268-2.582-2.25
	c-2.675,1.258-4.872,2.945-3.198,6.563c1.441-1.731,2.545-3.453,4.783-0.435c2.549,3.438-0.567,3.692-2.474,4.583
	c1.604,1.695,2.902,1.603,4.422,0.82c2.332-1.2,2.599,1.389,3.717,2.309c0.637,0.521,1.393,1.723-0.317,2.161
	c-0.783,0.2-1.768,0.107-1.421,1.377c0.311,1.14,0.928,1.438,2.212,1.184c2.167-0.431,3.486,0.319,1.718,2.539
	c-1.787,2.24,1.724,2.771,1.298,4.538c-1.256-0.054-3.299-1.659-3.431,0.027c-0.263,3.354,3.746,2.115,5.066,4.259
	c1.346-2.038,0.366-4.937,4.725-5.652c-4.302,3.221-1.333,5.021,0.396,7.432c-2.734,0-5.008,0.271-7.163-0.116
	c-1.044-0.188-1.75-2.192-3.163-0.466c-1.586,1.938,2.241,1.53,1.333,3.408c-4.377-1.219-2.818-5.354-4.055-8.192
	c-1.226,1.78-1.528,4.318-4.321,4.231c0.117-4.546-3.079-9.443-6.539-10.099c1.782,2.267,1.79,2.27,0.451,5.617
	c-0.384,0.961-0.68,2.497,0.345,2.521c2.342,0.06,4.312-0.271,1.896,2.791c4.333,1.724,1.253,2.958-0.207,4.429
	c-0.192,0.193,0.399,1.673,0.587,1.663c3.994-0.187,6.774,5.611,11.59,1.563c-0.47,2.435-2.734,2.855-2.659,4.785
	c0.04,1.007-0.195,2.116-1.689,1.643c-1.076-0.342-1.377-0.719-0.725-2.047c0.685-1.395-0.996-1.324-1.869-1.423
	c-0.849-0.096-1.607,0.197-1.96,1.158c-1.198,3.263-2.435,4.491-5.371,4.612c-1.337,0.057-2.211,0.401-2.935,1.409
	c0.697-2.556-1.413-2.403-2.833-3.037c-2.362-1.053-5.386-0.322-7.271-1.602c-3.438-2.33-4.318-0.922-4.899,2.149
	c-0.354,1.878-0.657,3.765-1.013,5.822c0.822-0.353,1.456-0.89,2.015-0.82c3.161,0.388,6.792,3.854,8.958-1.688
	c0.261-0.666,1.346,0.671,2.066,0.742c1.327,0.131-0.146,3.438,2.26,1.957c1.344-0.828,0.88-2.248,0.609-3.505
	c3.96,4.84,9.434,3.649,14.615,3.7c15.272,0.149,30.546,0.757,45.818,0.017c2.708-0.742,5.355,0.276,8.043,0.271
	c36.488-0.053,72.978-0.128,109.464-0.027c3.511,0.009,4.046-1.264,3.989-4.335c-0.185-9.994-0.093-19.993-0.093-29.989
	c-0.001-241.256,0.001-482.511-0.021-723.766c0-1.449,0.503-3.012-0.566-4.339c-1.641-1.273-3.535-0.576-5.289-0.576
	c-98.653-0.009-197.309,0.061-295.961,0.047c-150.979-0.022-301.958-0.103-452.937-0.118c-1.924,0-3.979-0.599-5.791,0.643
	c-1.214,2.869-0.637,5.893-0.639,8.835c-0.041,105.647-0.035,211.294-0.037,316.94c-0.001,61.321,0.014,122.642-0.049,183.963
	c-0.004,3.876,0.159,5.506,4.657,2.996c13.578-7.576,26.649-15.968,39.874-24.109c17.723-10.91,35.689-21.479,52.902-33.15
	c15.146-10.271,30.957-19.5,45.902-30.063c6.639-4.69,13.57-8.977,20.124-13.78c14.854-10.887,29.382-22.226,44.383-32.9
	c9.096-6.475,17.479-13.796,25.602-21.295c7.441-6.869,15.193-13.43,22.314-20.707c8.286-8.47,17.64-15.89,26.483-23.816
	c7.894-7.076,15.653-14.302,23.595-21.323c16.097-14.236,32.351-28.295,48.396-42.588c11.316-10.08,22.36-20.465,33.589-30.646
	c17.46-15.832,34.971-31.608,52.463-47.405c10.67-9.637,21.037-19.643,32.122-28.777c8.173-6.733,15.993-13.854,24.064-20.689
	c3.488-2.954,4.318-1.431,5.654,1.82c3.844,9.359,4.532,19.44,6.737,29.148c3.699,16.277,5.731,32.917,9.484,49.212
	c0.196,2.832-1.506,3.039-3.777,3.043c-11.473,0.018-22.944,0.219-34.419,0.261c-17.399,0.063-34.775,0.733-52.146,1.869
	c0.809,0.223,1.621,0.331,2.434,0.341c27.442,0.318,54.886,0.609,82.326,0.966c2.429,0.031,5.02-0.723,7.245,0.973
	c0.051,1.162-0.047,2.353,0.175,3.48c2.715,13.789,5.764,27.52,8.132,41.367c1.76,10.279,4.964,20.174,7.398,30.256
	c3.174,13.144,6.957,26.222,12.322,38.729c0.677,1.577,0.718,4.119,2.828,4.013c2.008-0.101,0.541-2.736,1.527-3.913
	c1.587,0.147,1.026-0.74,1.159-1.76c0.419-3.214,1.301-6.351,5.262-7.027c3.822,7.795,7.646,15.588,11.47,23.382
	c-0.099,4.764,0.869,9.806,3.431,13.266c1.881,2.541,2.528,3.934,2.112,6.948C706.938,491.281,707.903,494.362,711.518,494.153z
	 M683.387,893.001c2.676,1.032,5.522-1.01,8.223,0.438c0.69,0.372,1.736,0.108,1.84-0.991c0.12-1.3-0.562-1.773-1.834-1.401
	c-1.901,0.556-3.309-0.043-3.773-2.011c-0.523-2.22,1.387-1.994,2.667-2.636c2.412-1.209,3.592-3.184,2.122-6.586
	c-1.834,2.133-3.396,3.768-5.981,1.092c-0.996-1.032-3.782,0.552-2.577,2.503C686.294,887.007,683.617,889.793,683.387,893.001z
	 M715.148,555.127c-1.105-0.62-1.91-0.644-2.184-0.009c-0.522,1.221-0.981,2.078-2.181,0.686c-0.881-1.021-3.747-1.018-2.734-2.748
	c2.188-3.733,0.271-7.426,0.57-11.234c-2.066,3.289-0.988,7.928-4.558,10.442c0.752,0.63,1.806,1.114,2.188,1.919
	c0.743,1.559,3.479,1.92,2.718,4.209c-0.362,1.093-1.414,2.124,0.061,2.923c1.462,0.792,2.52-0.216,3.271-1.398
	C713.3,558.34,714.213,556.71,715.148,555.127z M711.189,540.339c1.775-2.093,2.399-5.713,6.265-3.871
	c0.511,0.243,0.803-0.679,1.01-1.37c0.584-1.95,0.898-3.337-1.54-4.529c-2.433-1.189-4.533-2.7-7.227-0.952
	c-0.807,0.522-1.245,1.487-0.447,2.045C712.459,533.9,711.61,536.983,711.189,540.339z M698.39,872.456
	c3.921,4.084,2.19,6.104-2,7.104c-1.161,0.276-2.033,0.771-1.548,1.935c0.603,1.436,1.671,0.596,2.404-0.001
	c2.523-2.051,5.491,1.195,8.06-0.713c0.287-0.213,1.457,0.527,0.638,1.146c-2.281,1.716,0.305,1.829,0.74,1.889
	c1.37,0.185,2.945-0.209,2.785-1.931c-0.169-1.809-1.362-2.955-3.466-2.554c-5.196,0.992-4.665-1.829-3.389-5.127
	c0.221-0.571,0.461-1.136,0.816-2.009C701.781,872.279,700.542,872.344,698.39,872.456z M716.263,646.326
	c-1.443-1.297,2.144-4.966-3.124-4.937c-0.807,0.004-4.832-1.313-2.849-4.393c0.66-1.025,2.45-1.484,1.349-3.066
	c-1.166-1.675-2.247,0.262-3.393,0.381c-0.966,0.101-1.916,0.354-2.706,0.51C707.396,639.998,709.861,644.616,716.263,646.326z
	 M710.611,816.602c-0.081,0.624-0.022,2.015,0.767,3.416c1.458,2.591,3.196,0.118,4.775,0.386c0.953,0.16,2.271-0.022,2.262-1.282
	c-0.019-2.074-2.187-0.874-3.006-1.656c-1.131-1.079-4.47-1-2.382-4.02c0.621-0.9,0.921-2.021-0.354-2.384
	c-1.083-0.309-1.796,0.793-2.016,1.75C710.444,813.741,710.611,814.758,710.611,816.602z M708.422,695.204
	c0.979-1.755,2.913-2.189,2.373-5.479c-0.424-2.588-4.788-4.841-1.559-8.177c0.479-0.495-1.264-1.295-1.639-0.642
	c-0.938,1.63-2.254,4.935-2.025,5.061C709.555,688.177,708.002,691.903,708.422,695.204z M705.685,585.628
	c-2.882-3.881-1.563-7.792-4.342-10.58C696.866,580.322,697.23,581.544,705.685,585.628z M696.219,624.316
	c1.109,2.594,1.888,3.765,2.068,5.021c0.182,1.247-0.563,2.896,1.376,3.096c1.586,0.163,3.323,0.076,4.604-1.173
	c0.448-0.438,0.908-1.102,0.931-1.679c0.026-0.765-0.784-1.12-1.438-0.909C700.435,629.748,699.38,626.53,696.219,624.316z
	 M724.57,771.923c0.144-1.992-0.198-3.443,0.376-4.147c2.558-3.131-0.223-4.759-1.645-6.774c-0.373-0.53-0.96-1.151-1.635-0.626
	c-0.44,0.345-0.931,1.46-0.813,1.564C723.644,764.4,722.102,768.418,724.57,771.923z M705.149,547.786
	c-3.698-1.269-4.809-2.809-3.937-6.105c0.445-1.683,4.288-3.303,1.688-4.345c-3.027-1.211-1.425,3.241-2.946,4.531
	c-0.249,0.211-0.502,0.479-0.618,0.773C698.045,545.928,700.033,548.165,705.149,547.786z M712.991,773.783
	c3.556,1.336,4.746,5.051,7.841,7.531C718.76,773.643,718.021,772.91,712.991,773.783z M692.472,535.294
	c0.492-2.125,3.776-1.189,3.675-3.621c-2,0.313-1.185-3.436-2.831-2.436C691.33,530.442,692.126,533.002,692.472,535.294z
	 M722.354,854.244c-1.212,2.764-3.349,4.216-3.159,6.661c0.055,0.71,1.394,0.578,2.144,0.11
	C723.767,859.502,723.653,857.394,722.354,854.244z"/>
<path fill="#F3CE87" d="M711.705,494.899c4.738,7.321,6.837,15.797,9.558,23.859c8.242,24.428,18.007,48.203,28.88,71.535
	c1.741,3.735,3.351,7.848,7.089,10.951c0.945-4.634-1.842-8.442-0.997-12.616c0.264-1.307-0.061-2.736,1.405-3.314
	c1.398-0.552,2.044,0.837,2.789,1.618c4.935,5.173,8.394,11.424,11.991,17.484c1.384,2.33,4.311,3.344,4.7,6.146
	c0.388,2.777,1.657,4.772,3.672,6.766c1.827,1.808,2.846,4.487-1.739,6.339c5.2-1.178,6.995,1.526,8.411,4.685
	c1.563,3.482,3.332,6.908,3.539,10.842c0.018,0.303,0.187,0.838,0.337,0.856c6.974,0.915,3.752,7.177,5.392,10.939
	c-1.025-1.4-2.003-2.841-3.094-4.188c-0.79-0.976-1.679-2.343-3.095-0.854c-1.123,1.181-0.827,2.4,0.364,3.459
	c0.621,0.552,1.106,1.278,1.783,1.74c4.229,2.891,5.497,6.07,1.204,9.994c-0.297,0.271-0.224,0.944-0.322,1.432
	c-0.791,0.175-2.258,0.307-2.271,0.53c-0.208,3.299-1.207,4.082-4.197,2.033c-1.304-0.893-1.815,1.083-2.232,1.997
	c-0.653,1.433-2.182,2.729-1.382,4.522c0.409,0.917,1.821,0.936,2.004,0.182c1.317-5.499,4.814-3.195,7.896-2.336
	c0.916,0.255,1.971,1.148,2.526-0.197c0.321-0.777,0.605-2.214-0.55-2.586c-2.331-0.752-1.641-2.542-1.747-4.1
	c2.118,1.221,3.338,5.195,6.797,1.52c0.167,2.859-1.659,4.192-2.555,6.872c3.609-2.52,6.894,2.06,10.52-1.842
	c-0.188,4.116-0.702,6.242-4.687,4.639c-1.389-0.558-2.963-1.683-4.636-0.167c-0.975,0.884-2.188,1.193-0.666,2.857
	c1.98,2.166,2.386,4.721-0.367,7.334c-0.896-0.936-0.027-2.981-1.939-3.589c-1.384,1.92-3.423,3.896-0.257,5.964
	c2.374,1.55,4.264,0.419,5.253-2.102c0.427-1.092,0.657-2.522,2.131-2.27c2.061,0.354,1.381,2.427,1.688,3.715
	c0.379,1.594-0.27,2.897-2.345,2.915c-1.008,0.008-6.905,7.859-6.527,7.979c3.547,1.125,2.125,3.39,1.659,5.678
	c-0.686,3.378-1.74,4.707-4.78,1.823c-1.386-1.313-3.25-1.566-5.252-1.172c3.619,3.639,6.174,8.308,11.563,10.288
	c0.167-4.131,1.987-6.938,6.315-7.505l0.072,0.046c0.82,1.041,1.72,2.031,2.44,3.139c0.685,1.047,0.007,1.878-0.743,2.598
	c-0.743,0.713-1.509,1.402-2.52,0.394c-0.729-0.729-1.169-2.466-2.598-0.955c-0.974,1.028-0.461,2.148,0.295,3.153
	c1.456,1.94,0.703,2.645-1.453,2.601c-0.855-0.019-2.076-0.881-2.341,0.771c-0.175,1.097,0.294,1.837,1.389,2.33
	c2.736,1.237,2.054,2.773,0.453,4.619c-2.933,3.379-0.817,7.211-0.501,10.792c0.141,1.593,1.851,1.661,3.121,0.534
	c1.368-1.215,2.392-0.562,3.394,0.534c0.745,0.813,0.487,1.583-0.199,2.146c-0.89,0.731-1.311,2.176-3.222,1.024
	c-2.902-1.746-4.454,0.002-4.423,2.935c0.021,2.153-2.883,5.044,1.512,6.477c0.779,0.254-0.813,3.374-1.194,3.144
	c-4.698-2.832-2.481,5.238-6.095,3.753c0.088,0.613-0.016,1.362,0.304,1.812c0.677,0.948,1.438,0.993,2.468,0.121
	c1.479-1.254,2.93-1.738,2.346,1.252c-0.057,0.286-0.086,0.769,0.071,0.882c2.967,2.125,5.139,6.746,4.775,12.621
	c-0.192,3.134,1.478,5.09,2.325,8.152c2.447-3.095-0.409-5.598,0.328-8.095c0.32-1.085-1.342-3,0.78-3.24
	c2.031-0.229,0.222,1.854,0.987,2.692c0.515,0.563,1.09,1.538,0.94,2.161c-0.751,3.141,0.512,4.352,3.529,4.067
	c2.247-0.211,2.655,1.578,2.367,2.854c-0.414,1.833-1.587,0.787-2.967,0.458c-5.344-1.275-7.229,2.683-8.85,6.724
	c0.276,0.132,0.659,0.453,0.814,0.366c1.089-0.607,3.58,1.072,3.995,2.474c0.869,2.938,3.068,6.38-2.908,5.886
	c1.723-5.184,0.971-5.972-6.038-6.335c5.494,3.228,0.572,7.016-0.218,9.821c-0.889,3.151-1.938,5.145,1.128,7.356
	c2.32,1.675,0.845,4.325,0.929,6.402c0.069,1.719-1.592,0.967-2.357-0.116c-0.707-0.997-1.455-0.608-2.1-0.073
	c-0.277,0.229-0.367,1.194-0.354,1.197c4.319,1.294,0.932,4.578,1.533,6.676c1.855,0.593,2.878-3.114,4.314-0.935
	c1.305,1.979,1.97,4.603,2.185,7.007c0.15,1.679-1.317,2.909-3.39,2.834c-1.404-0.052-2.977,0.396-2.861,2.037
	c0.097,1.401,1.066,2.819,2.56,3.335c1.475,0.509,2.854,0.605,3.306-1.607c0.246-1.203,1.826-2.229,2.623-1.008
	c2.343,3.594,6.48,4.765,9.986,7.385c-2.351,1.063-3.464-1.281-5.135-0.674c-0.635,2.858-1.086,5.776-1.969,8.557
	c-0.599,1.886-0.575,3.794,1.263,4.114c3.093,0.539,0.826-2.425,1.728-3.472c0.203-0.236,0.406-0.474,0.677-0.787
	c1.047,0.854,0.609,2.339,1.626,3.327c1.428,1.39-0.036,2.806-0.924,3.867c-1.08,1.292-2.088,0.602-3.377-0.268
	c-6.391-4.3-8.63-3.554-11.848,3.501c-0.427,0.936-0.053,1.736,0.414,2.268c4.47,5.075,1.221,6.973-3.359,8.366
	c-0.767-0.843-2.327-1.891-2.171-2.495c1.392-5.398-2.921-3.24-5.198-4.56c0.338,2.349,3.177,2.068,2.949,4.121
	c-1.084,0.848-2.125-0.979-3.519,0.368c2.042,2.102,4.746,3.561,6.295,7.116c0.786-2.104,1.233-3.3,1.682-4.495
	c2.45,3.312,1.332,5.919-4.622,8.6c3.928-0.352,6.568-0.077,4.558,4.148c-2.07-0.798-3.997-1.794-6.461,0.242
	c-2.618,2.164-6.358-1.24-6.573-5.351c-0.087-1.664,1.576-2.442,1.4-4.328c-2.028,0.827-3.891,1.587-6.23,2.541
	c4.235,1.938,5.716,4.232,2.049,7.728c-2.763,2.63,2.321,3.072,1.541,5.568c-1.821-0.01-3.689,0.141-5.303-1.311
	c-1.232-1.11-2.513-2.55-4.299-1.1c-1.807,1.469-0.794,2.907,0.319,4.294c0.679,0.844,0.698,1.835,0.308,2.834
	c-15.277,0.739-30.55,0.134-45.823-0.017c-5.182-0.051-10.654,1.139-14.613-3.7l0.106-0.021c0.724-1.008,1.598-1.354,2.935-1.409
	c2.938-0.122,4.173-1.351,5.37-4.613c0.354-0.961,1.112-1.254,1.961-1.157c0.873,0.099,2.554,0.027,1.868,1.423
	c-0.651,1.328-0.352,1.705,0.726,2.047c1.494,0.474,1.729-0.636,1.689-1.644c-0.075-1.929,2.189-2.351,2.659-4.784
	c-4.814,4.049-7.596-1.749-11.59-1.563c-0.188,0.009-0.779-1.47-0.587-1.663c1.46-1.471,4.54-2.706,0.207-4.429
	c2.414-3.063,0.443-2.732-1.897-2.791c-1.022-0.025-0.728-1.563-0.344-2.522c1.339-3.348,1.331-3.351-0.451-5.616
	c3.46,0.653,6.656,5.553,6.539,10.099c2.793,0.087,3.097-2.451,4.321-4.232c1.235,2.838-0.322,6.976,4.055,8.193
	c0.908-1.878-2.919-1.471-1.333-3.408c1.413-1.728,2.119,0.277,3.163,0.465c2.155,0.388,4.428,0.116,7.163,0.116
	c-1.729-2.411-4.699-4.21-0.396-7.431c-4.357,0.717-3.38,3.614-4.725,5.651c-1.32-2.143-5.329-0.904-5.066-4.259
	c0.132-1.687,2.175-0.081,3.431-0.026c0.426-1.768-3.085-2.299-1.298-4.538c1.77-2.221,0.449-2.971-1.718-2.539
	c-1.284,0.255-1.901-0.044-2.212-1.185c-0.347-1.269,0.638-1.176,1.421-1.377c1.71-0.438,0.954-1.639,0.317-2.161
	c-1.119-0.92-1.385-3.508-3.717-2.308c-1.52,0.781-2.817,0.875-4.422-0.821c1.905-0.89,5.021-1.146,2.473-4.583
	c-2.237-3.019-3.341-1.297-4.782,0.436c-1.675-3.617,0.523-5.307,3.198-6.563c2.162-1.017,2.547-0.377,2.582,2.25
	c0.034,2.623,2.65,4.035,3.749,6.244c0.288,0.579,2.477-0.082,1.469-1.745c-0.728-1.199-0.783-1.715,0.616-1.999
	c2.009-0.406,1.091,1.138,1.531,1.959c1.238,2.303-1.803,3.691-0.66,6.015c1.497,3.041,2.945,5.854,6.859,7.063
	c-0.511-5.462-0.267-10.685,2.44-15.563c0.4-0.723-2.205-1.236-2.661-2.839c-0.192-0.671-1.683-1.211-2.563-0.212
	c-0.738,0.836-1.289,1.838-2.665,2.873c1.65-5.895-3.782-3.253-5.186-5.519c1.437-1.214,5.027,0.682,4.715-2.593
	c-0.233-2.438-1.884-3.755-4.773-4.079c-3.603-0.405-4.925-5.555-2.46-8.3c0.979,0.479,0.646,1.369,0.656,2.146
	c0.011,0.807,0.002,1.614,0.002,2.68c3.038-0.763,4.027-3.379,3.232-4.947c-2.057-4.061,0.985-5.848,2.932-7.866
	c4.04-4.193,4.072-6.304-0.86-9.839c4.361,0.105,8.831,0.417,5.951-6.047c-0.559-1.254,0.55-1.037,1.36-1.182
	c0.797-0.142,2.164,0.55,2.264-1.102c0.079-1.322-0.834-2.043-1.631-2.914c-1.305-1.425-1.682,0.293-2.268,0.675
	c-1.755,1.144-3.598,1.597-5.646,1.419c-1.07-0.092-2.417-0.99-3.002,0.589c-0.238,0.646-0.055,1.852,0.415,2.28
	c1.4,1.284,2.337-0.114,3.355-0.895c0.229-0.175,0.613-0.146,0.981-0.221c1.325,1.783-0.586,2.789-1.2,3.817
	c-2.44,4.08-3.44,4.071-5.807,0.155c-1.141-1.891-2.572-3.305-6.076-4.461c3.668-0.427,6.067-0.449,7.45-2.787
	c0.663-1.12,1.72-1.991,3.31-0.854c1.107,0.792,1.761-0.068,2.162-1.139c1.635-4.346,3.375-8.552,9.393-7.451
	c0.364,0.067,0.895-0.767,1.189-1.479c-3.629,0.87-8.545-2.402-10.056,3.8c-3.618-2.594-3.21-5.71-2.402-8.919l-0.079,0.072
	c3.314,3.668,5.939,1.26,8.871-1.215c-1.043-1.186-7.403,2.2-3.413-3.478c0.738-1.052-1.577-0.956-1.879-1.53
	c-0.892-1.698-7.259-1.175-2.138-5.617c1.813-1.572,1.06-2.441,3.009-2.609c0.905,1.065-0.19,1.861-0.436,2.735
	c-0.393,1.396-0.541,2.839,0.929,3.421c2.101,0.832,0.485-1.859,1.459-1.893c3.482-0.117,4.585-2.328,5.414-5.108
	c-1.959-1.008-3.475,2.604-5.03-0.182c-0.705-1.261-2.671-1.995-2.222-3.653c0.421-1.554,2.266-1.053,3.479-1.287
	c5.627-1.087,0.502-5.392,2.264-7.767c0.348-0.47-1.253-2.383-2.329-3.537c0.231,2.424-3.291,4.666-0.011,7.104
	c0.901,0.672,0.354,1.33-0.443,1.909c-2.139,1.553-2.625-1.2-3.986-1.716c-1.134,4.749-1.549,5.221-6.396,6.71
	c1.675-1.758,3.938-2.354,3.252-4.771c-0.521-1.827-0.611-3.73-3.31-2.664c-0.328-1.043-2.091-1.572-1.297-2.949
	c0.65-1.129,1.496-2.049,3.224-1.632c3.228,0.778,5.607,0.452,4.819-4.035c-0.204-1.164,1.378-1.808,2.927-1.974
	c2.368-0.253,0.052-1.544,0.256-2.341c2.475-0.667,5.961,4.457,7.961-1.894c-2.223,0.458-3.897,1.138-5.824-0.209
	c-2.374-1.659-1.97,0.827-2.059,2.182c-2.559,0.05-3.092-3.645-6.165-3.063c-3.834,0.726-3.919,0.503-6.465,3.913
	c-1.653-1.257,1.989-4.082-0.717-4.309c-3.222-0.269-0.956-2.271-1.924-3.046c1.916-0.845,4.989,3.34,5.557-1.736
	c0.12-1.075,1.312,0.426,1.892,0.366c2.236-0.223,3.024,2.607,5.611,2.354c-0.518-1.941-0.218-3.145-3.156-4.145
	c-2.943-1.001-8.689-1.324-7.763-7.426c0.146-0.952-1.604-2.057-2.069-1.417c-2.793,3.85-4.963-0.212-7.575-0.366
	c2.709-1.748,2.945-5.925,6.813-6.255c-1.763,4.319,1.956,4.555,4.329,5.688c0.903,0.431,1.437-0.378,1.813-1.178
	c0.519-1.097-0.24-1.452-0.986-1.828c-1.742-0.879-3.488-1.745-5.231-2.616c0.3-5.236,3.392-9.491,4.867-14.482
	c-1.479,3,1.014,5.09,1.438,7.526c0.208,1.2,1.514,1.045,2.506,0.857c0.882-0.165,1.955-0.945,1.697-1.534
	c-1.594-3.64,0.98-7.102,0.243-10.699c-0.348-1.692-1.414-2.415-2.694-2.277c-2.031,0.218-0.536,1.347-0.486,2.313
	c0.103,1.94-1.425,1.263-2.456,0.802c-4.123-1.84-4.438-6.298-3.812-10.994c0.452-3.388,1.078-7.413-0.3-11.154
	c-0.941-2.558-3.32-3.115-4.997-4.619c-1.033-0.927-2.567-1.392-3.56-0.139c-1.012,1.278-0.614,2.855,0.458,4.072
	c0.65,0.739,1.563,1.247,2.227,1.978c3.646,4.015,3.49,4.456-1.75,5.915c-0.535,0.148-0.95,0.729-2.619,2.07
	c3.259-5.96-0.129-8.05-3.44-9.77c-2.883-1.497-1.432,1.979-2.948,2.966c-0.23-2.202-6.079-5.302,1.859-5.196
	c2.776,0.036,3.313-3.205,1.819-6.322c2.122,0.375,3.831,0.694,5.547,0.976c1.503,0.245,3.229,0.276,3.815-1.251
	c0.266-0.689-0.759-2.133-1.525-2.908c-1.998-2.021-1.622,0.719-2.371,1.282c-2.662,2.004-5.186-3.425-7.628-0.354
	c-1.745,2.195-3.071,4.231-6.168,2.308c0.604-2.043,2.805-0.781,3.802-2.065c0.106-1.812-3.339-2.085-1.788-4.862
	c3.228,4.442,7.629-3.531,11.313,1.527c-0.486-2.952-3.043-5.896,0.926-8.057c0.811-0.441-0.36-0.991-0.778-1.36
	c-1.309-1.158-1.563-2.637-0.864-4.079c0.907-1.869,2.23-0.375,3.42-0.201c1.7,0.249,6.187-5.022,5.894-7.013
	c-0.088-0.595-0.551-1.104-0.2-1.792c2.077-4.069,2.07-4.073-3.093-4.817c-0.967,1.978,3.361,0.786,1.771,2.858
	c-0.547,0.713-1.961,1.451-3.093,0.509c-1.221-1.016-2.95-1.968-1.31-3.991c0.647-0.8,1.261-2.318,0.037-2.413
	c-5.212-0.398-4.344-4.327-5.072-7.596c-0.331-1.485-1.804-2.717-2.759-4.063c4.341,2.321,7.732,2.078,9.363-4.036
	c-2.437,2.114-4.599,3.756-7.633,2.521c-0.702-0.286-1.345,0.791-1.669,1.594c-2.157-0.53-4.326-1.982-6.602,0.289
	c1.629-2.882,5.688-3.039,6.144-6.974c0.304-2.609-0.085-5.673,3.153-7.614c1.342-0.805-0.052-3.213-1.458-4.499
	c-2.26,1.782,0.468,3.039-0.147,5.822c-2.65-3.594-2.862-9.903-9.268-6.879c1.503-1.838,1.945-4.745,5.001-2.42
	c0.85,0.646,2.322,0.208,2.613-0.687c0.975-2.99,3.778-5.485,2.613-9.083l-0.072,0.074c5.739-2.029,3.621-6.472,3.083-10.367
	c-3.105,0.842-6.835,2.631-6.108-3.518c-2.768,0.099-1.559-2.294-2.171-3.525c-1.179-2.371,1.813-2.354,2.283-3.808
	c0.925,0.4,2.561,0.685,2.648,1.224c0.375,2.269-2.46,0.879-3.301,2.823c3.063-0.422,5.191,1.273,8.304,3.598
	c-1.221-4.052-4.637-7.495,0.551-9.577c-0.25-0.379-0.445-0.808-0.757-1.124c-0.688-0.699-1.786-1.502-0.813-2.39
	c0.575-0.525,2.018-0.57,2.852-0.254c2.661,1.009,3.581,0.225,3.604-2.561c0.012-1.521,0.151-3.595,2.837-2.778
	c1.23,0.374,1.901-0.455,2.181-1.477c0.389-1.42-1.044-2.705-1.658-2.666c-3.977,0.256-7.757-4.269-12.347,0.91
	c0.708-3.872,3.727-3.883,4.457-6.178c-1.09-1.372-4.568-0.776-3.769-4.01c1.396-0.891,2.396,0.424,3.563,0.862
	c0.885,0.333,2.126,1.271,2.361-0.254c0.652-4.228,2.2-2.311,3.556-0.028c1.142-2.123-2.813-4.724,1.495-5.442
	c0.98-0.164,0.296-1.324-0.405-1.876c-1.354-1.066-1.436-1.692,0.188-2.92c1.846-1.396,2.907-3.41-1.18-2.966
	c-0.313,0.033-1.019-0.548-0.99-0.778c0.689-6.003-4.104-3.544-6.539-3.924c-3.67-0.572-5.172-1.88-4.24-5.993
	c1.99,6.054,6.049,2.388,7.49,1.176c2.301-1.935,2.134-5.439-0.436-8.095c-1.269-1.311-3.281-2.44-1.104-4.855
	c0.94-1.045-0.146-2.118-1.59-2.263l0.063,0.08c-0.684-2.698-0.329-5.686-3.005-7.761
	C708.981,496.608,711.646,496.033,711.705,494.899z M794.678,731.873c-5.182,2.424-2.971,7.724-5.056,11.49
	c-0.565,1.021-2.069,3.192,0.053,3.59c1.233,0.229,3.813,1.513,4.67-0.707c0.4-1.034,3.382-2.754-0.141-4.117
	c-1.226-0.474-1.612-2.192-0.285-3.343C796.544,736.514,795.063,734.047,794.678,731.873z M791.246,770.915
	c1.037,1.41,2.961,2.093,3.334,4.035c0.128,0.669,0.476,1.416,1.202,1.246c0.487-0.113,1.261-0.977,1.17-1.291
	c-0.766-2.657,0.372-4.349,2.426-5.855c1.448-1.063-0.002-1.957-0.475-2.894c-0.81-1.604-2.564-1.943-3.925-2.618
	c-0.455-0.228-1.514,1.626-0.976,2.83C795.287,769.238,791.886,769.192,791.246,770.915z M789.299,802.884
	c1.354-3.615,2.068-6.625,5.721-6.88c0.546-0.038,1.026-1.221,1.507-1.896c0.445-0.631,0.484-1.269-0.347-1.565
	c-0.394-0.142-1.225-0.134-1.288,0.028c-1.385,3.569-3.411,1.23-5.195,0.564c-0.979-0.366-1.891-0.627-2.827-0.008
	c-0.651,0.431-0.924,1.264-0.37,1.656C788.958,796.525,788.314,799.438,789.299,802.884z M790.38,720.427
	c-1.586-0.478-2.84-0.197-3.476,1.19c-0.469,1.021,0.401,2.576,1.026,2.269c2.171-1.07,3.504,3.364,5.583,0.684
	c0.676-0.87,1.758-2.224,1.488-2.883C794.11,719.488,791.705,721.389,790.38,720.427z M786.594,689.356
	c1.124-0.596,2.05-0.786,2.148-1.185c1.025-4.118,1.08-8.521,3.815-12.114c0.763-1-0.023-1.51-0.847-1.757
	c-1.264-0.379-2.688,0.066-2.684,1.322C789.045,680.148,787.565,684.408,786.594,689.356z M783.8,714.164
	c-1.497,1.786,0.083,2.917,1.783,2.992c2.213,0.098,2.004-2.313,2.479-3.746c0.757-2.285-1.277-3.187-2.727-3.231
	C782.256,710.082,784.258,712.475,783.8,714.164z M736.996,731.913c-0.532,2.223,0.676,3.341,1.313,4.582
	c0.451,0.881,1.202,2.29,2.615,1.146c0.827-0.67,2.313-0.897,2.2-2.36c-0.091-1.18-1.1-1.377-2.084-1.674
	C739.741,733.214,738.519,732.566,736.996,731.913z M791.088,813.914c1.619-1.788,4.394-1.961,5.438-4.847
	c-2.589,0.919-4.212-1.201-6.514-1.004C789.814,810.164,792.737,811.522,791.088,813.914z M731.201,721.472
	c-0.341-0.627-0.461-1.19-0.803-1.411c-0.862-0.554-1.664-0.239-1.872,0.734c-0.476,2.232-3.788,2.95-3.016,5.752
	c0.077,0.277,1.126,0.591,1.164,0.531C727.97,725.046,729.268,723.024,731.201,721.472z M796.159,778.559
	c0,1.738,0.003,2.813-0.001,3.887c-0.012,2.825,1.97,4.646,2.826,2.889C800.251,782.736,798.404,780.846,796.159,778.559z"/>
<path fill="#F3CE87" d="M649.754,332.952c1.004,2.627,3.065,2.802,5.551,2.793c26.626-0.093,53.254-0.176,79.881-0.046
	c9.767,0.047,19.503,1.271,29.926,0.904c-2.842,2.258-5.541,1.906-8.122,1.911c-33.118,0.063-66.235,0.075-99.354,0.192
	c-2.125,0.007-4.791-1.163-6.22,1.701c-2.227-1.699-4.815-0.945-7.245-0.977c-27.44-0.356-54.884-0.647-82.326-0.966
	c-0.813-0.01-1.625-0.118-2.434-0.341c17.371-1.136,34.747-1.807,52.146-1.869c11.475-0.042,22.946-0.243,34.42-0.261
	C648.248,335.991,649.95,335.784,649.754,332.952z"/>
<path fill="#F3CE87" d="M710.968,889.74l-0.106,0.021c0.27,1.256,0.732,2.676-0.61,3.504c-2.404,1.481-0.933-1.825-2.26-1.957
	c-0.722-0.07-1.808-1.407-2.066-0.741c-2.166,5.542-5.797,2.073-8.958,1.687c-0.559-0.068-1.191,0.469-2.015,0.821
	c0.354-2.06,0.657-3.945,1.013-5.823c0.581-3.071,1.462-4.479,4.899-2.148c1.886,1.277,4.908,0.549,7.271,1.602
	C709.555,887.336,711.665,887.185,710.968,889.74z"/>
<path fill="#F3CE87" d="M683.387,893.001c0.23-3.208,2.907-5.994,0.685-9.593c-1.205-1.951,1.581-3.535,2.577-2.503
	c2.585,2.676,4.147,1.041,5.981-1.092c1.47,3.402,0.29,5.377-2.122,6.586c-1.281,0.642-3.19,0.416-2.667,2.636
	c0.466,1.968,1.872,2.565,3.773,2.011c1.272-0.372,1.954,0.104,1.834,1.401c-0.104,1.101-1.148,1.363-1.84,0.991
	C688.909,891.991,686.063,894.033,683.387,893.001z"/>
<path fill="#F3CE87" d="M698.39,872.456c2.152-0.112,3.393-0.177,5.042-0.263c-0.355,0.873-0.597,1.438-0.816,2.009
	c-1.276,3.298-1.809,6.119,3.389,5.127c2.104-0.401,3.297,0.745,3.466,2.554c0.16,1.722-1.415,2.114-2.785,1.931
	c-0.437-0.06-3.021-0.173-0.74-1.889c0.819-0.617-0.351-1.357-0.638-1.146c-2.567,1.907-5.536-1.338-8.06,0.713
	c-0.733,0.597-1.803,1.437-2.404,0.001c-0.485-1.162,0.388-1.657,1.548-1.935C700.58,878.562,702.311,876.54,698.39,872.456z"/>
<path fill="currentColor" d="M124.342,690.246c-0.015-6.445-0.029-12.893-0.044-19.334c0.988-3.416,0.581-6.93,0.583-10.396
	c0.013-16.473-0.054-32.943-0.128-49.416c-0.067-14.957,0.528-29.92-0.437-44.865c-0.084-19.271-0.22-38.541-0.243-57.813
	c-0.04-33.403-0.041-66.806,0.001-100.209c0.028-22.099,0.158-44.196,0.243-66.289c0.116-1.142,0.332-2.287,0.334-3.434
	c0.056-31.458,0.145-62.916,0.105-94.374c-0.02-15.956-0.278-31.911-0.429-47.866c0.018-22.265,0.056-44.528,0.024-66.792
	c-0.003-2.521-0.185-4.472,3.486-4.212c14.248,1.008,28.547-0.556,42.764,0.275c13.485,0.789,26.938,0.438,40.401,0.515
	c28.754,0.165,57.517,0.408,86.261-0.141c11.631-0.223,23.268-0.507,34.899-0.473c14.229,0.041,28.459,0.597,42.688,0.592
	c15.465-0.005,30.938-0.835,46.39-0.491c14.131,0.313,28.268,0.882,42.389,0.51c56.105-1.48,112.216-0.463,168.323-0.64
	c49.92-0.157,99.841-0.042,149.762-0.056c36.254-0.01,72.508-0.05,108.762-0.041c9.512,0.003,8.7-1.146,8.7,8.403
	c-0.01,93.479-0.033,186.958-0.053,280.438c-0.012,57.806-0.046,115.611-0.032,173.417c0.017,62.955,0.118,125.91,0.103,188.865
	c-0.012,41.641-0.165,83.279-0.252,124.916c-1.163-0.031-2.329-0.088-3.494-0.088c-102.455-0.02-204.909-0.037-307.364-0.049
	c-122.444-0.016-244.889-0.033-367.333-0.029c-31.815,0-63.63,0.082-95.444,0.125c-0.141-0.193-0.327-0.322-0.555-0.383
	c0.034-0.828,0.091-1.658,0.091-2.488c-0.03-56.432-0.041-112.863-0.115-169.295C124.709,716.17,124.476,703.207,124.342,690.246z
	 M891.817,515.848c0.044-17.47,0.127-34.938,0.126-52.406c0-87.396-0.016-174.79-0.04-262.185
	c-0.006-22.297-0.068-44.595-0.105-66.892c-0.033-2.001-1.489-1.279-2.518-1.285c-15.812-0.099-31.62-0.267-47.432-0.253
	c-27.111,0.023-54.224,0.211-81.336,0.242c-39.923,0.047-79.846,0.056-119.77,0.007c-24.725-0.03-49.448-0.269-74.172-0.278
	c-19.95-0.009-39.9,0.259-59.852,0.267c-24.265,0.01-48.528-0.125-72.794-0.198c-1.309-0.139-2.616-0.398-3.925-0.399
	c-31.445-0.034-62.891-0.048-94.336-0.034c-1.478,0.001-2.953,0.278-4.43,0.427c-12.97,0.074-25.938,0.223-38.906,0.209
	c-51.293-0.056-102.586-0.093-153.877-0.357c-4.993-0.026-6.703,1.002-6.646,6.375c0.319,30.487,0.281,60.979,0.269,91.47
	c-0.045,106.465-0.158,212.93-0.19,319.395c-0.024,79.475,0.033,158.949,0.061,238.424c0.012,33.654,0.117,67.313-0.037,100.967
	c-0.018,4.025,1.183,4.934,4.985,4.855c14.821-0.293,29.647-0.268,44.472-0.359c27.316,0.059,54.632,0.156,81.948,0.16
	c20.818,0,41.636-0.121,62.454-0.188c0.875,0.004,1.751,0.008,2.626,0.012c1.491,0.078,2.981,0.221,4.474,0.223
	c44.158,0.02,88.315,0.049,132.475,0.018c26.485-0.02,52.971-0.141,79.456-0.217c6.211,0.338,12.421,0.428,18.63-0.033
	c8.317,0.084,16.634,0.246,24.951,0.234c29.132-0.043,58.263-0.146,87.396-0.229c1.872-0.012,3.743-0.021,5.616-0.031
	c1.824,0.084,3.648,0.24,5.474,0.24c44.328,0.008,88.655,0.006,132.983-0.012c22.498-0.008,44.997-0.127,67.493,0.016
	c3.71,0.021,5.088-0.947,4.755-4.74c-0.35-3.973-0.232-7.99-0.232-11.99c-0.001-73.15,0.016-146.305,0.017-219.457
	c0.001-23.488-0.031-46.979-0.048-70.471c-0.234-1.604-0.67-3.207-0.674-4.811c-0.057-20.633-0.066-41.266-0.029-61.896
	C891.13,519.059,891.577,517.453,891.817,515.848z"/>
</svg>
