<svg version="1.1" id="Layer_1" xmlns="http://www.w3.org/2000/svg" xmlns:xlink="http://www.w3.org/1999/xlink" x="0px" y="0px"
	 width="1024.191px" height="1024.191px" viewBox="0 0 1024.191 1024.191" enable-background="new 0 0 1024.191 1024.191"
	 xml:space="preserve">
<path fill="currentColor" d="M124.342,690.246c-0.015-6.445-0.029-12.893-0.044-19.334c0.988-3.416,0.581-6.93,0.583-10.396
	c0.013-16.473-0.054-32.943-0.128-49.416c-0.067-14.957,0.528-29.92-0.437-44.865c-0.084-19.271-0.22-38.541-0.243-57.812
	c-0.04-33.403-0.041-66.806,0.001-100.209c0.028-22.099,0.158-44.196,0.243-66.289c0.116-1.142,0.332-2.287,0.334-3.434
	c0.056-31.458,0.145-62.916,0.105-94.374c-0.02-15.956-0.278-31.911-0.429-47.866c0.018-22.265,0.056-44.528,0.024-66.792
	c-0.003-2.521-0.185-4.472,3.486-4.212c14.248,1.008,28.547-0.556,42.764,0.275c13.485,0.789,26.938,0.438,40.401,0.515
	c28.754,0.165,57.517,0.408,86.261-0.141c11.631-0.223,23.268-0.507,34.899-0.473c14.229,0.041,28.459,0.597,42.688,0.592
	c15.465-0.005,30.938-0.835,46.39-0.491c14.131,0.313,28.268,0.882,42.389,0.51c56.105-1.48,112.216-0.463,168.323-0.64
	c49.92-0.157,99.841-0.042,149.762-0.056c36.254-0.01,72.508-0.05,108.762-0.041c9.512,0.003,8.7-1.146,8.7,8.403
	c-0.01,93.479-0.033,186.958-0.053,280.438c-0.012,57.806-0.046,115.61-0.032,173.417c0.017,62.955,0.118,125.91,0.103,188.865
	c-0.012,41.641-0.165,83.279-0.252,124.916c-1.163-0.031-2.329-0.088-3.494-0.088c-102.455-0.02-204.909-0.037-307.364-0.049
	c-122.444-0.016-244.889-0.033-367.333-0.029c-31.815,0-63.63,0.082-95.444,0.125c-0.141-0.193-0.327-0.322-0.555-0.383
	c0.034-0.828,0.091-1.658,0.091-2.488c-0.03-56.432-0.041-112.863-0.115-169.295C124.709,716.169,124.476,703.207,124.342,690.246z
	 M891.817,515.847c0.044-17.469,0.127-34.937,0.126-52.406c0-87.396-0.016-174.79-0.04-262.185
	c-0.006-22.297-0.068-44.595-0.105-66.892c-0.033-2.001-1.489-1.279-2.518-1.285c-15.812-0.099-31.62-0.267-47.432-0.253
	c-27.111,0.023-54.224,0.211-81.336,0.242c-39.923,0.047-79.846,0.056-119.77,0.007c-24.725-0.03-49.448-0.269-74.172-0.278
	c-19.95-0.009-39.9,0.259-59.852,0.267c-24.265,0.01-48.528-0.125-72.794-0.198c-1.309-0.139-2.616-0.398-3.925-0.399
	c-31.445-0.034-62.891-0.048-94.336-0.034c-1.478,0.001-2.953,0.278-4.43,0.427c-12.97,0.074-25.938,0.223-38.906,0.209
	c-51.293-0.056-102.586-0.093-153.877-0.357c-4.993-0.026-6.703,1.002-6.646,6.375c0.319,30.487,0.281,60.979,0.269,91.47
	c-0.045,106.465-0.158,212.93-0.19,319.395c-0.024,79.475,0.033,158.949,0.061,238.424c0.012,33.654,0.117,67.313-0.037,100.967
	c-0.018,4.025,1.183,4.934,4.985,4.855c14.821-0.293,29.647-0.268,44.472-0.359c27.316,0.059,54.632,0.156,81.948,0.16
	c20.818,0,41.636-0.121,62.454-0.188c0.875,0.004,1.751,0.008,2.626,0.012c1.491,0.078,2.981,0.221,4.474,0.223
	c44.158,0.02,88.315,0.049,132.475,0.018c26.485-0.02,52.971-0.141,79.456-0.217c6.211,0.338,12.421,0.428,18.63-0.033
	c8.317,0.084,16.634,0.246,24.951,0.234c29.132-0.043,58.263-0.146,87.396-0.229c1.872-0.012,3.743-0.021,5.616-0.031
	c1.824,0.084,3.648,0.24,5.474,0.24c44.328,0.008,88.655,0.006,132.983-0.012c22.498-0.008,44.997-0.127,67.493,0.016
	c3.71,0.021,5.088-0.947,4.755-4.74c-0.35-3.973-0.232-7.99-0.232-11.99c-0.001-73.15,0.016-146.305,0.017-219.457
	c0.001-23.488-0.031-46.979-0.048-70.471c-0.234-1.604-0.67-3.207-0.674-4.811c-0.057-20.633-0.066-41.266-0.029-61.896
	C891.13,519.058,891.577,517.453,891.817,515.847z"/>
<g>
	<path fill-rule="evenodd" clip-rule="evenodd" fill="currentColor" d="M386.942,899.515c-13.229,0.574-26.457,1.103-39.674-0.014
		c-1.536-0.083-3.082-0.24-4.627-0.24c-55.909,0.003-111.817,0.004-167.726,0.046c-15.72,0.012-31.44,0.152-47.16,0.233
		c-1.075-2.709-0.456-5.533-0.459-8.292c-0.116-121.176-0.211-242.352-0.261-363.527c-0.051-123.201-0.055-246.401-0.071-369.603
		c0-8.732,0.185-17.468,0.051-26.199c-0.046-3,0.789-3.871,3.899-3.867c70.179,0.105,140.357,0.098,210.536,0.096
		c106.828-0.003,213.656-0.021,320.484-0.025c77.821-0.004,155.642-0.002,233.462,0.019c1.37,0.001,2.82-0.372,4.098,0.484
		c-0.086,2.635-0.241,5.278-0.24,7.92c0.024,122.411,0.097,244.822,0.089,367.232c-0.007,128.494-0.091,256.987-0.125,385.48
		c-0.001,3.104,0.197,6.206,0.303,9.31c-0.294,0.377-0.587,0.755-0.872,1.128c-2.153-0.146-4.315-0.416-6.479-0.416
		c-74.365-0.014-148.731-0.017-223.097,0.016c-19.787,0.01-39.575,0.144-59.362,0.22c-20.015,1.051-40.052,0.803-60.069,0.507
		c-10.135-0.149-20.268,0.284-30.439-0.348c-7.294-0.452-14.762-0.466-22.14-0.169c-14.144-0.066-28.296-0.194-42.449-0.184
		C432.056,899.339,409.499,899.447,386.942,899.515z M894.796,131.463c-8.527-0.99-17.091-0.476-25.632-0.478
		c-102.606-0.021-205.212,0.084-307.818,0.085c-132.39,0.001-264.78-0.071-397.17-0.077c-10.87,0-21.74,0.263-32.61,0.404
		c-1.464,1.78-0.793,3.899-0.793,5.846c-0.029,179.201,0,358.4-0.11,537.601c-0.002,4.281,1.729,5.455,5.323,5.328
		c4.021-0.142,8.036-0.496,12.058-0.662c12.32-0.506,24.613,0.656,36.969,0.158c17.21-0.692,34.468-0.215,51.706-0.215
		c45.772,0.001,91.546,0.015,137.319,0.022c14.192,0.002,28.384,0.021,42.576-0.033c1.595-0.006,3.635,0.802,3.596-2.463
		c-0.197-16.372-0.151-32.748-0.19-49.123c-0.002-1.047,0.365-2.071-0.574-3.049c-6.708-6.97-8.975-16.137-11.946-24.892
		c-0.986-2.906-1.904-5.501-3.809-8.081c-1.831-2.479-3.36-5.891-1.708-9.524c0.968-2.13,0.426-4.184-1.036-6.095
		c-1.021-1.337-1.631-2.884-1.665-4.714c-0.154-8.727-0.106-17.477-0.781-26.168c-0.577-7.419,2.143-14.786,0.04-22.155
		c-1.173-4.114-1.551-8.208,0.177-12.249c1.823-4.263,2.7-8.532,0.779-13.029c-0.279-0.654-0.324-1.73,0.031-2.285
		c3.025-4.715,1.512-9.936,1.782-14.944c0.134-2.483-0.372-5.068,0.138-7.451c1.848-8.639,2.382-17.401,2.746-26.169
		c0.104-2.526,0.324-4.768,1.576-7.022c3.363-6.06,3.932-12.4,2.323-19.229c-1.264-5.366-0.607-10.865,2.144-15.826
		c1.017-1.835,1.063-3.757,1.511-5.667c1.366-5.819-1.047-12.55,4.279-17.539c0.825-0.773,1.518-2.908,1.269-4.757
		c-0.59-4.369,0.036-8.583,1.883-12.638c1.997-4.381,1.696-9.261,2.777-13.85c0.556-2.36,1.468-4.772,3.893-5.194
		c2.582-0.449,2.882,2.391,3.622,4.095c2.596,5.989,2.081,12.669,3.901,18.801c1.334,4.495-0.339,9.14,3.177,13.829
		c3.997,5.332,4.256,12.812,2.743,19.693c-0.936,4.257-0.44,8.225,1.188,12.184c4.805,11.682,5.511,24.109,6.687,36.471
		c0.668,7.021,0.294,14.155,1.96,21.06c1.539,6.378,2.686,12.704,0.845,19.224c-0.541,1.915-0.759,3.892-0.877,5.923
		c-0.316,5.382,2.814,9.924,3.29,15.182c0.29,3.206-1.613,6.124-0.513,9.106c3.406,9.225,1.615,18.754,1.688,28.142
		c0.063,8.292-1.834,16.467-2.531,24.705c-0.403,4.771,0.683,9.606,0.032,14.573c-0.909,6.948-3.585,13.383-5.817,19.76
		c-2.091,5.976-4.306,12.607-9.733,17.042c-1.197,0.979-0.735,2.63-0.729,3.993c0.063,15.511,0.249,31.022,0.179,46.532
		c-0.015,3.12,0.895,3.874,3.949,3.851c21.677-0.158,43.356-0.222,65.033-0.043c3.657,0.028,4.372-1.102,4.33-4.448
		c-0.21-16.986-0.209-33.974-0.252-50.96c-0.015-5.64-0.607-10.581-3.81-16.011c-5.637-9.557-9.541-20.218-12.265-31.168
		c-0.527-2.119-0.3-4.534-2.26-6.388c-4.216-3.987-5.788-9.313-4.911-14.8c0.684-4.27-0.025-7.864-1.999-11.43
		c-0.948-1.712-1.312-3.584-1.067-5.399c0.687-5.1-0.931-9.817-2.193-14.57c-0.744-2.799-0.534-5.436-0.098-8.215
		c0.927-5.908,2.565-11.777,0.673-17.857c-0.95-3.049-0.964-6.178-0.473-9.492c0.834-5.634,2.03-11.303,1.077-17.118
		c-0.771-4.694-1.404-9.438-1.656-14.184c-0.502-9.451,4.927-17.997,4.339-27.551c-0.303-4.906,2.114-9.745,1.142-14.696
		c-1.795-9.139-1.106-18.205,1.079-27.077c2.052-8.334,4.491-16.971,4.025-25.205c-0.831-14.67,2.096-28.757,3.951-42.979
		c1.654-12.675,5.415-25.057,4.229-38.084c-0.262-2.891,1.089-5.691,3.366-7.789c2.774-2.555,4.62-6.013,4.216-9.458
		c-0.958-8.175,1.057-15.8,2.729-23.592c1.412-6.583,2.21-13.301,4.518-19.671c1.401-3.872,3.215-4.214,5.672-0.921
		c2.619,3.511,4.376,7.857,4.564,11.913c0.645,13.884,8.083,26.548,6.922,40.678c-0.058,0.698,0.476,1.436,0.692,2.167
		c2.123,7.165,3.038,14.442,2.813,21.954c-0.185,6.186-2.79,12.566,0.823,18.575c5.147,8.557,4.885,18.058,4.896,27.515
		c0.002,1.532,0.23,3.002,0.455,4.516c1.702,11.535,5.691,22.722,5.224,34.598c-0.206,5.227-0.069,10.369,1.371,15.599
		c1.723,6.251,2.155,12.911,0.209,19.271c-1.535,5.021-1.551,10.053-0.728,15.011c1.153,6.949,3.705,13.733,2.817,20.898
		c-0.857,6.917,0.612,13.564,2.156,20.121c1.083,4.604,1.948,9.196,1.269,13.759c-0.948,6.364-0.708,12.696-0.715,19.054
		c-0.002,0.915-0.044,1.919-0.407,2.73c-2.607,5.824-1.939,12.015-1.121,17.888c0.497,3.563,0.292,6.777-0.788,9.866
		c-1.214,3.47-1.781,6.658-0.746,10.297c0.619,2.177,0.74,4.774,0.186,6.954c-1.996,7.855-2.717,16.052-4.832,23.724
		c-3.444,12.498-7.699,25.005-15.676,35.659c-0.95,1.27-1.045,2.496-1.043,3.908c0.022,19.338,0.122,38.678-0.049,58.015
		c-0.031,3.532,0.947,4.446,4.426,4.414c21.365-0.192,42.732-0.229,64.099-0.118c3.6,0.018,4.374-1.298,4.48-4.63
		c0.496-15.731-1.19-31.417-0.835-47.138c0.025-1.062,0.009-2.008-0.839-2.979c-5.83-6.683-8.143-15.062-10.829-23.22
		c-0.998-3.031-1.549-6.062-3.875-8.622c-1.842-2.024-2.788-4.908-2.352-7.798c0.556-3.676-0.761-6.84-1.713-10.276
		c-1.627-5.869-2.678-12.293-2.378-18.105c0.344-6.666-0.554-13.342,0.394-20.008c0.939-6.602-0.459-13.244-0.795-19.865
		c-0.207-4.082,3.289-7.383,2.639-10.911c-1.179-6.398,1.024-12.345,1.086-18.523c0.066-6.634-0.368-13.26,1.39-19.862
		c2.994-11.241-0.314-23.638,6.121-34.32c0.335-0.557-0.051-1.525-0.033-2.301c0.217-9.913-2.584-20.129,3.185-29.498
		c0.729-1.186,0.522-3.035,0.508-4.575c-0.051-5.585-0.438-11.188,3.679-15.85c0.739-0.836,1.289-2.353,1.101-3.407
		c-0.848-4.745,0.691-9.053,1.867-13.49c1.405-5.305,2.433-10.709,3.78-16.031c0.306-1.208,0.563-2.799,2.517-2.838
		c1.941-0.038,2.861,1.124,3.301,2.693c0.86,3.083,2.446,5.88,2.704,9.236c0.375,4.866,0.245,10.319,2.441,14.379
		c4.209,7.778,4.506,16.171,6.107,24.392c0.174,0.888,0.434,1.853,0.263,2.704c-1.539,7.664-1.431,15.048,3.201,21.809
		c0.501,0.731,0.855,1.672,0.953,2.551c1.295,11.599,2.254,23.245,3.908,34.791c0.745,5.202,0.048,10.462,1.468,15.622
		c1.755,6.378,3.021,12.885,0.745,19.48c-1.201,3.479-1.478,7.399-0.289,10.54c1.604,4.238,2.431,8.525,3.092,12.882
		c1.205,7.95,1.883,15.844,0.754,24c-0.774,5.589-2.058,11.495-1.09,17.028c0.805,4.604,0.968,8.897-0.375,13.17
		c-0.874,2.781-0.836,5.487-0.754,8.251c0.348,11.726-3.906,22.256-8.17,32.851c-2.139,5.315-4.542,10.346-8.424,14.615
		c-0.439,0.483-0.462,1.44-0.494,2.186c-0.273,6.199-0.422,12.402-0.768,18.597c-0.545,9.812,1.14,19.559,0.767,29.349
		c-0.132,3.47,1.809,3.206,4.122,3.218c57.51,0.304,115.021-0.637,172.533,0.589c14.115,0.302,28.291,0.326,42.465-0.426
		c15.396-0.815,30.874-0.448,46.304-0.055c4.618,0.117,9.195-0.342,13.786-0.112c1.91,0.095,2.713-0.463,2.74-2.594
		c0.084-6.517,0.593-13.028,0.622-19.544c0.044-9.946-0.183-19.888-0.544-29.837c-0.488-13.43-0.186-26.89,0.534-40.335
		c0.813-15.195-0.159-30.408-0.078-45.621c0.341-64.647,0.177-129.299,0.089-193.95c-0.022-16.418-1.18-32.87-0.414-49.24
		c0.484-10.363-0.186-20.678,0.225-31.029c0.542-13.645,0.606-27.356-0.331-41.063c-0.684-9.984,0.147-20.06,0.42-30.097
		c0.503-18.546,0.173-37.115,0.209-55.675C896.244,137.377,895.918,134.361,894.796,131.463z M790.923,697.002
		c-195.962-7.941-391.437-7.929-580.2-2.425C399.431,701.165,594.893,703.944,790.923,697.002z"/>
	<path fill-rule="evenodd" clip-rule="evenodd" fill="#D9A75A" d="M899.521,898.57c-0.105-3.104-0.304-6.206-0.303-9.31
		c0.034-128.493,0.118-256.986,0.125-385.48c0.008-122.411-0.064-244.822-0.089-367.232c-0.001-2.642,0.154-5.285,0.24-7.92
		c0.979,9.613,0.438,19.248,0.441,28.863c0.067,174.842,0.075,349.685,0.063,524.527c-0.006,71.122-0.09,142.244-0.154,213.366
		C899.843,896.446,899.634,897.507,899.521,898.57z"/>
	<path fill-rule="evenodd" clip-rule="evenodd" fill="#D9A75A" d="M609.711,899.517c19.787-0.076,39.575-0.21,59.362-0.22
		c74.365-0.032,148.731-0.029,223.097-0.016c2.163,0,4.325,0.27,6.479,0.416c-15.579,0.112-31.148,0.312-46.719,0.313
		c-78.438,0.009-156.876-0.029-235.313-0.084C614.317,899.925,611.966,900.41,609.711,899.517z"/>
	<path fill-rule="evenodd" clip-rule="evenodd" fill="#D9A75A" d="M127.755,899.541c15.72-0.081,31.44-0.222,47.16-0.233
		c55.909-0.042,111.817-0.043,167.726-0.046c1.545,0,3.092,0.157,4.627,0.24c-10.72,0.862-21.45,0.383-32.167,0.399
		c-61.413,0.095-122.826,0.06-184.24,0.043C129.831,899.943,128.685,900.457,127.755,899.541z"/>
	<path fill-rule="evenodd" clip-rule="evenodd" fill="#D9A75A" d="M386.942,899.515c22.557-0.068,45.114-0.176,67.671-0.191
		c14.153-0.011,28.306,0.117,42.449,0.184c-3.993,0.93-8.044,0.427-12.052,0.433c-31.79,0.052-63.581-0.007-95.37-0.053
		C388.741,899.885,387.841,899.645,386.942,899.515z"/>
	<path fill-rule="evenodd" clip-rule="evenodd" fill="#D9A75A" d="M790.923,697.002c-196.03,6.941-391.492,4.162-580.2-2.425
		C399.486,689.074,594.961,689.061,790.923,697.002z"/>
	<path fill-rule="evenodd" clip-rule="evenodd" fill="#D9A75A" d="M894.796,131.463c-15.884,0.083-31.768,0.237-47.652,0.24
		c-159.5,0.032-319.001,0.046-478.5,0.048c-77.8,0-155.601-0.038-233.401-0.072c-1.232,0-2.465-0.181-3.687-0.28
		c10.88-0.143,21.75-0.406,32.621-0.406c132.39,0.006,264.78,0.079,397.17,0.077c102.606-0.001,205.212-0.105,307.818-0.085
		C877.705,130.987,886.269,130.474,894.796,131.463z"/>
</g>
</svg>
