<svg version="1.1" id="Layer_1" xmlns="http://www.w3.org/2000/svg" xmlns:xlink="http://www.w3.org/1999/xlink" x="0px" y="0px"
	 width="1024.191px" height="1024.191px" viewBox="0 0 1024.191 1024.191" enable-background="new 0 0 1024.191 1024.191"
	 xml:space="preserve">
<path fill-rule="evenodd" clip-rule="evenodd" fill="currentColor" d="M303.968,898.374c-21.249-0.001-42.497-0.002-63.74-0.003
	c-1.176-0.854-2.547-0.555-3.839-0.559c-13.413-0.034-26.83-0.227-40.238,0.026c-10.392,0.195-20.807-0.813-31.177,0.534
	c-11.818,0.06-23.641-0.04-35.453,0.271c-3.904,0.103-4.858-0.94-4.853-4.896c0.136-98.796,0.131-197.592,0.116-296.388
	c-0.015-90.796-0.099-181.593-0.102-272.389c-0.002-65.307,0.143-130.612,0-195.918c-0.011-5.132,1.139-7.327,6.396-6.275
	c0.642,0.128,1.329,0.029,1.987,0.035c1.667,1.138,3.554,0.545,5.324,0.547c51.33,0.054,102.659,0.071,153.988,0.072
	c105.826,0.001,211.652-0.007,317.479-0.05c1.767-0.001,3.661,0.615,5.316-0.591c2.627,0.004,5.255,0.009,7.875,0.014
	c0.813,0.819,1.86,0.544,2.827,0.545c56.996,0.041,113.992,0.073,170.988,0.088c1.125,0,2.355,0.316,3.313-0.642
	c1.617,0.002,3.235,0.003,4.847,0.005c9.045,1.191,18.099,0.99,27.153,0.02c3.956-0.006,7.911-0.011,11.859-0.017
	c6.71,0.903,13.429,1.021,20.147,0.019c7.415,1.448,14.927,0.189,22.38,0.8c3.721,0.304,7.479,0.202,11.17-0.569
	c-0.033,23.309-0.071,46.622-0.09,69.935c-0.056,72.145-0.137,144.288-0.146,216.433c-0.01,76.975,0.06,153.948,0.078,230.923
	c0.018,70.979-0.004,141.956,0.033,212.935c0.007,14.647,0.192,29.296,0.296,43.943c-0.205,0.253-0.433,0.482-0.679,0.686
	c-24.797-0.034-49.6-0.088-74.403-0.056c-2.282,0.003-4.649-0.531-6.871,0.508c-43.256,0.006-86.512,0.012-129.76,0.017
	c-10.933-1.172-21.908-0.35-32.864-0.511c-7.786-0.114-15.606-0.596-23.375,0.518c-55.579-0.003-111.159-0.006-166.731-0.009
	c-6.744-0.792-13.495-0.936-20.246,0.005c-14.253-0.003-28.507-0.006-42.754-0.008c-10.085-0.973-20.177-0.748-30.268,0.004
	c-11.24,0.006-22.48,0.012-33.714,0.018C325.487,897.438,314.728,897.563,303.968,898.374z M890.829,598.026
	c-0.003-3.61-0.006-7.222-0.009-10.832c0.94-1.361,0.521-2.913,0.522-4.367c0.026-62.152,0.023-124.305-0.007-186.457
	c0-1.454,0.441-3.005-0.51-4.365c0.002-45.258,0.004-90.515,0.006-135.772c1.086-9.409,0.865-18.817-0.009-28.226
	c-0.045-31.262-0.158-62.524-0.045-93.785c0.014-3.726-0.857-5.281-4.638-4.456c-15.032-0.491-30.064-0.354-45.097,0.033
	c-3.298-0.009-6.595-0.018-9.893-0.026c-18.022-0.464-36.046-0.545-54.068,0.024c-1.324-0.009-2.647-0.018-3.972-0.026
	c-1.649-0.106-3.298-0.305-4.947-0.305c-136.225-0.005-272.449-0.004-408.675,0.028c-16.805,0.004-33.609,0.186-50.414,0.284
	c-1.984,0.008-3.969,0.017-5.954,0.024c-0.816-0.103-1.633-0.296-2.449-0.295c-54.93,0.019-109.86,0.048-164.79,0.115
	c-1.244,0.001-2.687-0.552-3.72,0.722c-1.01,1.528-0.532,3.247-0.533,4.868c-0.032,91.308-0.048,182.615-0.032,273.923
	c0.016,90.623,0.099,181.247,0.096,271.871c-0.002,67.981-0.1,135.963-0.114,203.944c0,1.947-0.55,3.996,0.549,5.86
	c5.873,1.643,11.852,0.568,17.768,0.574c123.101,0.118,246.201,0.18,369.302,0.197c121.935,0.018,243.87-0.021,365.805-0.076
	c1.75-0.001,3.649,0.698,5.272-0.612c0.966-2.073,0.445-4.267,0.447-6.396c0.055-56.104,0.073-112.206,0.098-168.31
	c0.968-10.061,1.017-20.121,0.025-30.183c-0.006-2.277-0.012-4.555-0.019-6.832c0.861-1.007,0.533-2.226,0.535-3.354
	c0.038-24.649,0.059-49.298,0.05-73.946C891.412,600.584,891.759,599.195,890.829,598.026z"/>
<path fill-rule="evenodd" clip-rule="evenodd" fill="currentColor" d="M510.684,791.401c-4.402,0.003-8.804,0.006-13.201,0.009
	c-7.185-0.79-14.396-0.804-21.613-0.63c-4.479-0.353-8.965-0.229-13.449-0.295c-8.859-0.132-17.698-0.821-26.52-1.869
	c-8.271-0.981-16.652-1.063-24.904-2.149c-7.722-1.016-15.494-1.823-23.151-3.108c-12.629-2.119-25.238-4.461-37.64-7.837
	c-15.307-4.167-30.39-8.69-43.58-17.96c-6.301-4.428-8.035-9.053-5.196-16.181c7.255-18.209,14.53-36.418,20.322-55.151
	c7.978-25.796,16.286-51.504,22.452-77.824c2.977-12.703,6.048-25.375,7.538-38.391c0.553-4.824,2.135-9.535,2.052-14.473
	c1.578-8.149,0.687-16.257-0.781-24.394c-0.057,0.768-0.113,1.535-0.17,2.304c-2.242,13.298-5.408,26.388-9.246,39.302
	c-8.068,27.152-17.271,53.926-26.86,80.58c-7.425,20.641-15.708,40.97-22.465,61.856c-1.132,3.498-3.66,5.529-7.889,5.464
	c-13.56-0.208-25.57-5.648-37.8-10.526c-17.224-6.869-33.444-15.58-48.181-26.8c-5.42-4.127-10.752-8.45-14.852-14.309
	c-3.651-5.216-3.508-10.146-1.436-15.215c8.325-20.359,17.076-40.544,25.418-60.896c9.856-24.045,19.362-48.233,29.188-72.291
	c9.63-23.578,19.726-46.97,29.15-70.629c9.908-24.87,20.849-49.322,29.953-74.521c2.752-7.618,6.86-14.748,9.605-22.368
	c5.041-13.992,16.597-20.328,29.127-25.205c22.555-8.776,45.668-16.145,67.724-26.166c9.524-4.327,19.04-8.956,26.564-16.689
	c1.354-1.391,2.38-3.009,4.016-5.084c4.537,12.881,15.579,18.956,25.088,26.288c17.347,13.375,29.899,30.046,37.746,50.447
	c4.253,11.057,7.781,22.285,9.942,33.939c0.227,1.225,0.812,2.383,1.288,3.734c0.461-0.425,0.822-0.605,0.816-0.774
	c-0.628-19.33-1.209-38.659-8.548-56.994c-6.884-17.197-19.008-29.868-34.146-40.009c-8.554-5.73-17.628-10.681-25.109-17.991
	c-5.147-5.03-6.814-11.017-6.09-17.73c0.552-5.114,4.609-8.022,8.604-10.517c8.993-5.618,19.354-6.961,29.501-8.55
	c14.092-2.207,28.335-3.436,42.605-3.059c18.476,0.488,36.851,2.184,54.575,7.934c6.533,2.12,12.437,5.47,15.762,11.805
	c2.861,5.45,1.163,12.718-3.422,17.757c-6.318,6.945-14.09,11.954-21.993,16.806c-19.558,12.007-34.734,27.614-41.289,50.288
	c-2.608,9.022-4.452,18.188-4.55,27.619c-0.056,5.318-1.61,10.527-1.063,15.879c0.123,1.21,0.285,2.416,1.011,3.683
	c1.761-6.184,3.536-12.277,5.086-18.384c6.212-24.481,18.093-45.506,37.205-62.126c6.09-5.296,12.907-9.754,19.4-14.586
	c5.236-3.897,8.608-9.389,12.284-14.864c11.196,13.634,26.796,19.522,41.979,26.007c20.267,8.656,41.305,15.303,61.681,23.745
	c14.327,5.936,22.519,16.429,28.034,29.984c14.577,35.819,29.195,71.622,43.683,107.478c16.945,41.938,33.751,83.935,50.655,125.89
	c7.835,19.445,15.458,38.986,23.785,58.221c3.709,8.568,2.165,15.123-4.087,21.46c-8.313,8.426-17.993,15.019-28.198,20.727
	c-19.589,10.958-40.089,19.854-62.038,25.049c-3.515,0.832-7.089,1.317-10.588,2.338c-3.642,1.062-8.24-1.953-9.811-6.172
	c-3.054-8.2-5.9-16.478-8.864-24.713c-7.583-21.072-15.677-41.978-22.654-63.248c-9.044-27.574-18.179-55.154-24.34-83.585
	c-0.837-3.864-2.08-7.638-3.173-11.581c0,8.194-0.678,16.458,0.148,24.568c1.48,14.547,3.64,29.056,6.872,43.331
	c5.028,22.198,10.108,44.384,16.662,66.216c7.511,25.021,16.073,49.649,25.934,73.838c3.329,8.167,1.554,13.454-5.652,18.341
	c-10.987,7.45-23.447,11.332-35.979,15.165c-11.933,3.651-24.173,5.979-36.33,8.549c-10.169,2.149-20.658,2.75-30.978,4.237
	c-12.187,1.757-24.497,1.98-36.705,3.212c-8.771,0.885-17.536,0.265-26.253,1.204C532.462,791.006,521.573,791.203,510.684,791.401z
	"/>
<path fill-rule="evenodd" clip-rule="evenodd" fill="#F5E3AB" d="M352.842,533.452c0.057-0.769,0.113-1.536,0.17-2.304
	c1.468,8.137,2.359,16.244,0.781,24.394c-0.053-5.606-0.078-11.209-0.179-16.812C353.583,536.951,354.015,535.075,352.842,533.452z"
	/>
<path fill-rule="evenodd" clip-rule="evenodd" fill="#F3CE87" d="M535.673,469.639c-0.605,0.75-1.07,1.399-1.608,1.98
	c-6.664,7.188-13.371,14.334-19.98,21.57c-1.305,1.429-2.016,1.625-3.435,0.045c-6.659-7.413-13.401-14.754-20.254-21.989
	c-1.471-1.554-1.021-2.277,0.2-3.56c6.647-6.974,13.217-14.022,19.779-21.076c1.303-1.399,2.229-2.076,3.917-0.197
	c6.437,7.166,13.057,14.168,19.604,21.233C534.446,468.239,534.973,468.852,535.673,469.639z"/>
<path fill-rule="evenodd" clip-rule="evenodd" fill="#F3CE87" d="M535.673,585.995c-0.605,0.75-1.07,1.399-1.608,1.98
	c-6.664,7.188-13.371,14.334-19.98,21.57c-1.305,1.429-2.016,1.625-3.435,0.045c-6.659-7.413-13.401-14.754-20.254-21.989
	c-1.471-1.554-1.021-2.277,0.2-3.56c6.647-6.974,13.217-14.022,19.779-21.076c1.303-1.399,2.229-2.076,3.917-0.197
	c6.437,7.166,13.057,14.168,19.604,21.233C534.446,584.595,534.973,585.208,535.673,585.995z"/>
<path fill-rule="evenodd" clip-rule="evenodd" fill="#F3CE87" d="M535.673,702.351c-0.605,0.75-1.07,1.399-1.608,1.98
	c-6.664,7.188-13.371,14.334-19.98,21.57c-1.305,1.429-2.016,1.625-3.435,0.045c-6.659-7.413-13.401-14.754-20.254-21.989
	c-1.471-1.554-1.021-2.277,0.2-3.56c6.647-6.974,13.217-14.022,19.779-21.076c1.303-1.399,2.229-2.076,3.917-0.197
	c6.437,7.166,13.057,14.168,19.604,21.233C534.446,700.95,534.973,701.563,535.673,702.351z"/>
</svg>
