<svg version="1.1" id="Layer_1" xmlns="http://www.w3.org/2000/svg" xmlns:xlink="http://www.w3.org/1999/xlink" x="0px" y="0px"
	 width="1024.191px" height="1024.191px" viewBox="0 0 1024.191 1024.191" enable-background="new 0 0 1024.191 1024.191"
	 xml:space="preserve">
<path fill="currentColor" d="M303.968,898.374c-21.249-0.001-42.497-0.002-63.74-0.003c-1.176-0.854-2.547-0.555-3.839-0.56
	c-13.413-0.033-26.83-0.227-40.238,0.026c-10.392,0.195-20.807-0.813-31.177,0.534c-11.818,0.06-23.641-0.04-35.453,0.271
	c-3.904,0.104-4.858-0.939-4.853-4.896c0.136-98.796,0.131-197.592,0.116-296.388c-0.015-90.796-0.099-181.593-0.102-272.389
	c-0.002-65.307,0.143-130.612,0-195.918c-0.011-5.132,1.139-7.327,6.396-6.275c0.642,0.128,1.329,0.029,1.987,0.035
	c1.667,1.138,3.554,0.545,5.324,0.547c51.33,0.054,102.659,0.071,153.988,0.072c105.826,0.001,211.652-0.007,317.479-0.05
	c1.768-0.001,3.661,0.615,5.316-0.591c2.627,0.004,5.255,0.009,7.875,0.014c0.813,0.819,1.86,0.544,2.827,0.545
	c56.996,0.041,113.992,0.073,170.988,0.088c1.125,0,2.354,0.316,3.313-0.642c1.617,0.002,3.235,0.003,4.847,0.005
	c9.045,1.191,18.1,0.99,27.153,0.02c3.956-0.006,7.911-0.011,11.859-0.017c6.71,0.903,13.429,1.021,20.146,0.019
	c7.415,1.448,14.927,0.189,22.38,0.8c3.722,0.304,7.479,0.202,11.17-0.569c-0.032,23.309-0.07,46.622-0.09,69.935
	c-0.056,72.145-0.137,144.288-0.146,216.433c-0.011,76.975,0.06,153.948,0.078,230.923c0.018,70.979-0.005,141.956,0.032,212.936
	c0.008,14.646,0.192,29.296,0.297,43.942c-0.205,0.253-0.434,0.482-0.68,0.687c-24.797-0.034-49.6-0.088-74.402-0.057
	c-2.282,0.003-4.649-0.53-6.871,0.509c-43.256,0.006-86.513,0.012-129.761,0.017c-10.933-1.172-21.907-0.35-32.863-0.511
	c-7.786-0.114-15.606-0.597-23.375,0.518c-55.579-0.003-111.159-0.006-166.731-0.009c-6.744-0.792-13.495-0.936-20.246,0.005
	c-14.253-0.003-28.507-0.006-42.754-0.008c-10.085-0.973-20.177-0.748-30.268,0.004c-11.24,0.006-22.48,0.012-33.714,0.018
	C325.487,897.438,314.728,897.563,303.968,898.374z M890.829,598.026c-0.003-3.61-0.006-7.223-0.009-10.832
	c0.939-1.361,0.521-2.913,0.521-4.367c0.026-62.152,0.023-124.305-0.007-186.457c0-1.454,0.441-3.005-0.51-4.365
	c0.002-45.258,0.004-90.515,0.006-135.772c1.086-9.409,0.865-18.817-0.009-28.226c-0.045-31.262-0.158-62.524-0.045-93.785
	c0.014-3.726-0.857-5.281-4.639-4.456c-15.031-0.491-30.063-0.354-45.097,0.033c-3.298-0.009-6.595-0.018-9.893-0.026
	c-18.022-0.464-36.047-0.545-54.068,0.024c-1.324-0.009-2.647-0.018-3.972-0.026c-1.649-0.106-3.299-0.305-4.947-0.305
	c-136.225-0.005-272.449-0.004-408.675,0.028c-16.806,0.004-33.609,0.186-50.414,0.284c-1.984,0.008-3.97,0.017-5.954,0.024
	c-0.816-0.103-1.633-0.296-2.449-0.295c-54.93,0.019-109.86,0.048-164.79,0.115c-1.244,0.001-2.687-0.552-3.72,0.722
	c-1.01,1.528-0.532,3.247-0.533,4.868c-0.032,91.308-0.048,182.615-0.032,273.923c0.016,90.623,0.099,181.247,0.096,271.871
	c-0.002,67.981-0.1,135.963-0.114,203.944c0,1.947-0.55,3.996,0.549,5.859c5.873,1.644,11.852,0.568,17.768,0.574
	c123.101,0.118,246.201,0.181,369.302,0.197c121.935,0.018,243.87-0.021,365.805-0.076c1.75-0.001,3.649,0.698,5.272-0.611
	c0.966-2.073,0.444-4.268,0.446-6.396c0.056-56.104,0.073-112.206,0.099-168.31c0.968-10.062,1.017-20.121,0.024-30.184
	c-0.006-2.276-0.012-4.555-0.019-6.832c0.861-1.007,0.533-2.226,0.535-3.354c0.038-24.649,0.059-49.298,0.05-73.946
	C891.412,600.584,891.759,599.195,890.829,598.026z"/>
<path fill="currentColor" d="M510.684,791.401c-4.401,0.003-8.804,0.006-13.2,0.009c-7.186-0.79-14.396-0.804-21.613-0.63
	c-4.479-0.354-8.965-0.229-13.449-0.295c-8.859-0.133-17.698-0.821-26.52-1.869c-8.271-0.981-16.652-1.063-24.904-2.149
	c-7.722-1.016-15.494-1.823-23.151-3.107c-12.629-2.119-25.237-4.461-37.64-7.837c-15.307-4.167-30.39-8.69-43.58-17.961
	c-6.301-4.428-8.035-9.053-5.196-16.181c7.255-18.209,14.53-36.418,20.322-55.151c7.978-25.796,16.286-51.504,22.452-77.823
	c2.977-12.703,6.048-25.375,7.538-38.392c0.553-4.823,2.135-9.534,2.052-14.473c1.578-8.149,0.687-16.257-0.781-24.394
	c-0.057,0.768-0.112,1.534-0.17,2.304c-2.242,13.298-5.408,26.388-9.246,39.302c-8.067,27.152-17.271,53.926-26.859,80.58
	c-7.426,20.641-15.708,40.97-22.465,61.856c-1.132,3.498-3.66,5.528-7.889,5.464c-13.56-0.208-25.57-5.648-37.8-10.526
	c-17.224-6.869-33.444-15.58-48.181-26.8c-5.42-4.127-10.752-8.45-14.852-14.31c-3.651-5.216-3.508-10.146-1.436-15.215
	c8.325-20.358,17.076-40.544,25.418-60.896c9.856-24.045,19.362-48.233,29.188-72.291c9.63-23.578,19.726-46.97,29.15-70.629
	c9.908-24.87,20.849-49.322,29.953-74.521c2.752-7.618,6.859-14.748,9.604-22.368c5.041-13.992,16.598-20.328,29.127-25.205
	c22.556-8.776,45.668-16.145,67.725-26.166c9.523-4.327,19.04-8.956,26.563-16.689c1.354-1.391,2.38-3.009,4.017-5.084
	c4.536,12.881,15.578,18.956,25.088,26.288c17.347,13.375,29.898,30.046,37.746,50.447c4.253,11.057,7.78,22.285,9.941,33.939
	c0.228,1.225,0.813,2.383,1.288,3.734c0.461-0.425,0.822-0.605,0.816-0.774c-0.628-19.33-1.209-38.659-8.548-56.994
	c-6.885-17.197-19.009-29.868-34.146-40.009c-8.554-5.73-17.628-10.681-25.109-17.991c-5.146-5.03-6.813-11.017-6.09-17.73
	c0.553-5.114,4.609-8.022,8.604-10.517c8.993-5.618,19.354-6.961,29.501-8.55c14.092-2.207,28.335-3.436,42.604-3.059
	c18.477,0.488,36.852,2.184,54.575,7.934c6.533,2.12,12.438,5.47,15.762,11.805c2.861,5.45,1.163,12.718-3.422,17.757
	c-6.317,6.945-14.09,11.954-21.992,16.806c-19.559,12.007-34.734,27.614-41.289,50.288c-2.608,9.022-4.452,18.188-4.551,27.619
	c-0.056,5.318-1.609,10.527-1.063,15.879c0.123,1.21,0.285,2.416,1.011,3.683c1.761-6.184,3.536-12.277,5.086-18.384
	c6.212-24.481,18.093-45.506,37.205-62.126c6.09-5.296,12.907-9.754,19.4-14.586c5.235-3.897,8.607-9.389,12.284-14.864
	c11.195,13.634,26.796,19.522,41.979,26.007c20.268,8.656,41.305,15.303,61.681,23.745c14.327,5.936,22.52,16.429,28.034,29.984
	c14.577,35.819,29.195,71.622,43.684,107.478c16.944,41.938,33.751,83.936,50.654,125.891c7.835,19.444,15.458,38.985,23.785,58.221
	c3.709,8.568,2.165,15.123-4.087,21.46c-8.313,8.426-17.993,15.02-28.198,20.727c-19.589,10.959-40.089,19.854-62.038,25.05
	c-3.515,0.832-7.089,1.316-10.588,2.338c-3.642,1.062-8.24-1.953-9.811-6.172c-3.055-8.2-5.9-16.479-8.864-24.713
	c-7.583-21.072-15.677-41.979-22.654-63.248c-9.044-27.574-18.179-55.154-24.34-83.585c-0.837-3.864-2.08-7.639-3.173-11.581
	c0,8.193-0.678,16.458,0.148,24.567c1.479,14.547,3.64,29.057,6.872,43.331c5.027,22.198,10.107,44.384,16.661,66.216
	c7.512,25.021,16.073,49.649,25.935,73.838c3.329,8.168,1.554,13.454-5.652,18.342c-10.986,7.449-23.447,11.332-35.979,15.165
	c-11.934,3.65-24.173,5.979-36.33,8.549c-10.169,2.148-20.658,2.75-30.979,4.237c-12.187,1.757-24.497,1.979-36.705,3.212
	c-8.771,0.885-17.536,0.265-26.253,1.203C532.462,791.006,521.573,791.203,510.684,791.401z"/>
<path fill="#F5E3AB" d="M352.842,533.452c0.058-0.77,0.113-1.536,0.17-2.304c1.469,8.137,2.359,16.243,0.781,24.394
	c-0.053-5.606-0.078-11.209-0.179-16.813C353.583,536.951,354.015,535.075,352.842,533.452z"/>
<path fill="#F3CE87" d="M535.673,469.639c-0.604,0.75-1.07,1.399-1.607,1.98c-6.664,7.188-13.371,14.334-19.98,21.57
	c-1.305,1.429-2.016,1.625-3.435,0.045c-6.659-7.413-13.401-14.754-20.254-21.989c-1.472-1.554-1.021-2.277,0.199-3.561
	c6.647-6.974,13.218-14.021,19.779-21.075c1.303-1.399,2.229-2.076,3.917-0.197c6.438,7.166,13.057,14.168,19.604,21.233
	C534.446,468.239,534.973,468.852,535.673,469.639z"/>
<path fill="#F3CE87" d="M535.673,585.995c-0.604,0.75-1.07,1.398-1.607,1.979c-6.664,7.188-13.371,14.334-19.98,21.57
	c-1.305,1.429-2.016,1.625-3.435,0.045c-6.659-7.413-13.401-14.754-20.254-21.989c-1.472-1.554-1.021-2.276,0.199-3.56
	c6.647-6.974,13.218-14.022,19.779-21.076c1.303-1.398,2.229-2.076,3.917-0.197c6.438,7.166,13.057,14.168,19.604,21.233
	C534.446,584.595,534.973,585.208,535.673,585.995z"/>
<path fill="#F3CE87" d="M535.673,702.351c-0.604,0.75-1.07,1.399-1.607,1.98c-6.664,7.188-13.371,14.334-19.98,21.57
	c-1.305,1.429-2.016,1.625-3.435,0.045c-6.659-7.413-13.401-14.754-20.254-21.989c-1.472-1.554-1.021-2.277,0.199-3.56
	c6.647-6.975,13.218-14.022,19.779-21.076c1.303-1.399,2.229-2.076,3.917-0.197c6.438,7.166,13.057,14.168,19.604,21.232
	C534.446,700.95,534.973,701.563,535.673,702.351z"/>
<path fill="currentColor" d="M124.342,690.246c-0.015-6.445-0.029-12.893-0.044-19.334c0.988-3.416,0.581-6.93,0.583-10.396
	c0.013-16.473-0.054-32.943-0.128-49.416c-0.067-14.957,0.528-29.92-0.437-44.865c-0.084-19.271-0.22-38.541-0.243-57.813
	c-0.04-33.403-0.041-66.806,0.001-100.209c0.028-22.099,0.158-44.196,0.243-66.289c0.116-1.142,0.332-2.287,0.334-3.434
	c0.056-31.458,0.145-62.916,0.105-94.374c-0.02-15.956-0.278-31.911-0.429-47.866c0.018-22.265,0.056-44.528,0.024-66.792
	c-0.003-2.521-0.185-4.472,3.486-4.212c14.248,1.008,28.547-0.556,42.764,0.275c13.485,0.789,26.938,0.438,40.401,0.515
	c28.754,0.165,57.517,0.408,86.261-0.141c11.631-0.223,23.268-0.507,34.899-0.473c14.229,0.041,28.459,0.597,42.688,0.592
	c15.465-0.005,30.938-0.835,46.39-0.491c14.131,0.313,28.268,0.882,42.389,0.51c56.105-1.48,112.216-0.463,168.323-0.64
	c49.92-0.157,99.841-0.042,149.762-0.056c36.254-0.01,72.508-0.05,108.762-0.041c9.512,0.003,8.7-1.146,8.7,8.403
	c-0.01,93.479-0.033,186.958-0.053,280.438c-0.012,57.806-0.046,115.611-0.032,173.417c0.017,62.955,0.118,125.91,0.103,188.865
	c-0.012,41.641-0.165,83.279-0.252,124.916c-1.163-0.031-2.329-0.088-3.494-0.088c-102.455-0.02-204.909-0.037-307.364-0.049
	c-122.444-0.016-244.889-0.033-367.333-0.029c-31.815,0-63.63,0.082-95.444,0.125c-0.141-0.193-0.327-0.322-0.555-0.383
	c0.034-0.828,0.091-1.658,0.091-2.488c-0.03-56.432-0.041-112.863-0.115-169.295C124.709,716.17,124.476,703.207,124.342,690.246z
	 M891.817,515.848c0.044-17.47,0.127-34.938,0.126-52.406c0-87.396-0.016-174.79-0.04-262.185
	c-0.006-22.297-0.068-44.595-0.105-66.892c-0.033-2.001-1.489-1.279-2.518-1.285c-15.812-0.099-31.62-0.267-47.432-0.253
	c-27.111,0.023-54.224,0.211-81.336,0.242c-39.923,0.047-79.846,0.056-119.77,0.007c-24.725-0.03-49.448-0.269-74.172-0.278
	c-19.95-0.009-39.9,0.259-59.852,0.267c-24.265,0.01-48.528-0.125-72.794-0.198c-1.309-0.139-2.616-0.398-3.925-0.399
	c-31.445-0.034-62.891-0.048-94.336-0.034c-1.478,0.001-2.953,0.278-4.43,0.427c-12.97,0.074-25.938,0.223-38.906,0.209
	c-51.293-0.056-102.586-0.093-153.877-0.357c-4.993-0.026-6.703,1.002-6.646,6.375c0.319,30.487,0.281,60.979,0.269,91.47
	c-0.045,106.465-0.158,212.93-0.19,319.395c-0.024,79.475,0.033,158.949,0.061,238.424c0.012,33.654,0.117,67.313-0.037,100.967
	c-0.018,4.025,1.183,4.934,4.985,4.855c14.821-0.293,29.647-0.268,44.472-0.359c27.316,0.059,54.632,0.156,81.948,0.16
	c20.818,0,41.636-0.121,62.454-0.188c0.875,0.004,1.751,0.008,2.626,0.012c1.491,0.078,2.981,0.221,4.474,0.223
	c44.158,0.02,88.315,0.049,132.475,0.018c26.485-0.02,52.971-0.141,79.456-0.217c6.211,0.338,12.421,0.428,18.63-0.033
	c8.317,0.084,16.634,0.246,24.951,0.234c29.132-0.043,58.263-0.146,87.396-0.229c1.872-0.012,3.743-0.021,5.616-0.031
	c1.824,0.084,3.648,0.24,5.474,0.24c44.328,0.008,88.655,0.006,132.983-0.012c22.498-0.008,44.997-0.127,67.493,0.016
	c3.71,0.021,5.088-0.947,4.755-4.74c-0.35-3.973-0.232-7.99-0.232-11.99c-0.001-73.15,0.016-146.305,0.017-219.457
	c0.001-23.488-0.031-46.979-0.048-70.471c-0.234-1.604-0.67-3.207-0.674-4.811c-0.057-20.633-0.066-41.266-0.029-61.896
	C891.13,519.059,891.577,517.453,891.817,515.848z"/>
</svg>
