<svg version="1.1" id="Layer_1" xmlns="http://www.w3.org/2000/svg" xmlns:xlink="http://www.w3.org/1999/xlink" x="0px" y="0px"
	 width="1024.191px" height="1024.191px" viewBox="0 0 1024.191 1024.191" enable-background="new 0 0 1024.191 1024.191"
	 xml:space="preserve">
<path fill="currentColor" d="M556.377,733.869c-48.099,0-85.678-2.424-105.895-6.823c-14.778-3.205-27.333-8.976-3.514-18.25
	c24.746-9.632,73.253-22.439,208.477-22.612c1.915-0.008,4.502-0.016,6.988-0.016c59.498,0,88.864,3.307,103.025,6.077
	c14.387,2.809,27.879,7.973,10.364,16.601c-29.835,14.728-116.567,24.786-215.897,25.018l-3.258,0.004L556.377,733.869
	L556.377,733.869z"/>
<path fill="currentColor" d="M124.342,690.246c-0.015-6.445-0.029-12.894-0.044-19.334c0.988-3.416,0.581-6.93,0.583-10.396
	c0.013-16.473-0.054-32.942-0.128-49.416c-0.067-14.957,0.528-29.92-0.437-44.864c-0.084-19.271-0.22-38.541-0.243-57.813
	c-0.04-33.403-0.041-66.806,0.001-100.209c0.028-22.099,0.158-44.196,0.243-66.289c0.116-1.142,0.332-2.287,0.334-3.434
	c0.056-31.458,0.145-62.916,0.105-94.374c-0.02-15.956-0.278-31.911-0.429-47.866c0.018-22.265,0.056-44.528,0.024-66.792
	c-0.003-2.521-0.185-4.472,3.486-4.212c14.248,1.008,28.547-0.556,42.764,0.275c13.485,0.789,26.938,0.438,40.401,0.515
	c28.754,0.165,57.517,0.408,86.261-0.141c11.63-0.223,23.268-0.507,34.899-0.473c14.229,0.041,28.459,0.597,42.688,0.592
	c15.466-0.005,30.938-0.835,46.391-0.491c14.131,0.313,28.268,0.882,42.389,0.51c56.105-1.48,112.216-0.463,168.323-0.64
	c49.92-0.157,99.841-0.042,149.762-0.056c36.254-0.01,72.508-0.05,108.762-0.041c9.513,0.003,8.7-1.146,8.7,8.403
	c-0.01,93.479-0.033,186.958-0.053,280.438c-0.012,57.806-0.046,115.611-0.032,173.417c0.018,62.955,0.118,125.91,0.104,188.865
	c-0.013,41.641-0.165,83.279-0.252,124.916c-1.163-0.031-2.329-0.088-3.494-0.088c-102.455-0.021-204.909-0.037-307.364-0.049
	c-122.444-0.017-244.889-0.033-367.333-0.029c-31.815,0-63.63,0.082-95.444,0.125c-0.141-0.193-0.327-0.322-0.555-0.383
	c0.034-0.828,0.091-1.658,0.091-2.488c-0.03-56.432-0.041-112.863-0.115-169.295C124.709,716.17,124.476,703.207,124.342,690.246z
	 M891.817,515.848c0.044-17.47,0.127-34.938,0.126-52.405c0-87.396-0.017-174.791-0.04-262.186
	c-0.006-22.297-0.068-44.595-0.105-66.892c-0.033-2.001-1.489-1.279-2.518-1.285c-15.813-0.099-31.62-0.267-47.433-0.253
	c-27.11,0.023-54.224,0.211-81.336,0.242c-39.923,0.047-79.846,0.056-119.77,0.007c-24.726-0.03-49.448-0.269-74.172-0.278
	c-19.95-0.009-39.9,0.259-59.853,0.267c-24.265,0.01-48.527-0.125-72.794-0.198c-1.309-0.139-2.616-0.398-3.925-0.399
	c-31.445-0.034-62.891-0.048-94.336-0.034c-1.479,0.001-2.953,0.278-4.43,0.427c-12.971,0.074-25.938,0.223-38.906,0.209
	c-51.293-0.056-102.586-0.093-153.877-0.357c-4.993-0.026-6.703,1.002-6.646,6.375c0.319,30.487,0.281,60.979,0.269,91.47
	c-0.045,106.465-0.158,212.93-0.19,319.395c-0.024,79.475,0.033,158.949,0.061,238.424c0.012,33.654,0.117,67.313-0.037,100.967
	c-0.018,4.025,1.183,4.935,4.985,4.855c14.821-0.293,29.647-0.269,44.472-0.359c27.316,0.06,54.632,0.156,81.948,0.16
	c20.818,0,41.636-0.121,62.454-0.188c0.875,0.005,1.751,0.009,2.626,0.013c1.491,0.078,2.981,0.221,4.475,0.223
	c44.158,0.021,88.314,0.049,132.475,0.019c26.485-0.021,52.972-0.142,79.456-0.218c6.211,0.339,12.421,0.429,18.63-0.032
	c8.317,0.084,16.634,0.245,24.951,0.233c29.132-0.043,58.263-0.146,87.396-0.229c1.872-0.013,3.742-0.021,5.615-0.031
	c1.824,0.084,3.648,0.24,5.475,0.24c44.328,0.008,88.655,0.006,132.982-0.013c22.498-0.008,44.997-0.127,67.493,0.017
	c3.71,0.021,5.088-0.947,4.755-4.74c-0.35-3.973-0.231-7.99-0.231-11.99c-0.001-73.149,0.016-146.305,0.017-219.457
	c0.001-23.487-0.031-46.979-0.048-70.471c-0.234-1.604-0.67-3.207-0.674-4.812c-0.057-20.633-0.066-41.266-0.029-61.896
	C891.13,519.059,891.577,517.453,891.817,515.848z"/>
<path fill="currentColor" d="M513.57,405.397c-75.359,0.403-93.688,24.826-100.129,104.51c-5.991,74.442,33.008,109.977,95.598,108.911
	c67.57-1.143,102.863-47.126,103.2-118.272C612.613,432.049,579.324,403.02,513.57,405.397z"/>
<path fill="#E9D094" d="M506.362,733.869c-62.646,0-117.878-22.543-155.623-63.471c-27.56-29.807-58.883-83.484-51.918-169.758
	c7.246-89.588,37.202-208.721,212.877-210.331c2.472-0.075,5.823-0.141,9.062-0.141c77.494,0,124.318,30.752,149.95,56.524
	c26.024,26.127,56.992,74.161,56.562,154.416c-0.655,136.994-87.529,230.551-216.303,232.705l-4.231,0.037L506.362,733.869
	L506.362,733.869z"/>
<path fill="currentColor" d="M506.362,657.181c-41.527,0-75.846-13.405-99.268-38.757c-17.131-18.572-36.546-53.041-31.866-111.605
	c7.133-88.081,32.035-139.194,138.154-139.821c1.779-0.075,4.588-0.14,7.396-0.14c41.059,0,73.205,11.412,95.578,33.916
	c22.936,23.048,34.451,56.674,34.244,99.951c-0.412,95.008-54.427,154.958-140.888,156.418L506.362,657.181z"/>
</svg>
