<svg version="1.1" id="Layer_1" xmlns="http://www.w3.org/2000/svg" xmlns:xlink="http://www.w3.org/1999/xlink" x="0px" y="0px"
	 width="1024.191px" height="1024.191px" viewBox="0 0 1024.191 1024.191" enable-background="new 0 0 1024.191 1024.191"
	 xml:space="preserve">
<g>
	<path fill="currentColor" d="M124.976,512.407c0-61.493,0.045-122.986-0.013-184.479c-0.061-65.659-0.18-131.318-0.428-196.978
		c-0.016-4.178,0.642-5.761,5.33-5.755c122.656,0.16,245.311,0.172,367.966,0.178c131.152,0.007,262.306-0.021,393.458-0.026
		c7.068-0.001,7.056,0.029,7.059,6.949c0.064,161.814,0.16,323.63,0.188,485.444c0.015,91.489-0.077,182.979-0.144,274.472
		c-0.008,10.211,0.063,8.162-8.408,8.164c-86.983,0.021-173.968-0.018-260.95-0.049c-74.323-0.027-148.646-0.076-222.969-0.096
		c-53.318-0.015-106.639,0.004-159.957,0.011c-38.488,0.006-76.977-0.075-115.463,0.141c-4.84,0.027-5.798-1.677-5.792-6.015
		c0.09-66.826,0.048-133.652,0.043-200.479c-0.004-60.493-0.001-120.986-0.001-181.48
		C124.921,512.407,124.948,512.407,124.976,512.407z M634.458,131.115c-2.578-0.136-3.712-0.264-4.843-0.245
		c-46.656,0.787-93.316,0.348-139.976,0.371c-116.984,0.06-233.971,0.056-350.956,0.113c-8.894,0.004-7.868-0.582-7.874,7.761
		c-0.077,115.824-0.152,231.648-0.141,347.473c0.013,132.317,0.116,264.635,0.169,396.952c0.004,10.799-0.032,10.868,10.708,10.871
		c148.48,0.033,296.961,0.063,445.44,0.057c81.155-0.005,162.313-0.081,243.469-0.134c18.997-0.013,37.994-0.137,56.991-0.025
		c3.708,0.021,5.167-1.172,4.807-4.897c-0.353-3.644-0.09-7.364-0.672-10.958c-0.338-2.088,1.711-6.692-2.878-5.629
		c-3.291,0.763-4.152-3.854-7.389-1.86c-4.309,2.653-9.122,2.902-14.058,1.828c-1.051-0.229-2.362-0.146-3.115,1.038
		c-1.688,2.655-1.75,2.784-4.034,1.627c-2.205-1.117-4.659-1.611-6.657-0.563c-3.996,2.096-7.916,1.52-11.075-0.713
		c-2.867-2.024-6.158-2.164-9.123-3.53c-2.978-1.373-6.142,2.536-9.581,0.902c0.106,1.637-0.207,2.778-2.182,1.713
		c-1.324-0.715-1.657-1.939-1.709-3.372c-0.03-0.86,1.254-1.734-0.396-2.898c-2.557,6.026-8.231,5.783-12.453,4.145
		c-6.403-2.486-12.636-2.643-18.932-1.476c-3.877,0.719-5.438-0.13-5.312-4.249c-6.523,6.083-10.515,6.506-17.692,2.244
		c-3.675-2.184-10.287-1.02-13.546,2.248c-1.077,1.079-2.72,3.152-4.014,1.304c-1.985-2.841-4.687-2.454-7.33-3.256
		c-2.907-0.883-7.341,1.479-8.726-3.559c-0.247-0.899-1.668-1.132-2.878,0.049c-6.604,6.44-14.521,2.347-21.583,1.595
		c-2.773-0.296-6.082-1.754-9.268-1.63c-1.844,0.072-3.366-0.596-4.951-0.843c-4.896-0.764-9.906-3.613-14.865-1.153
		c-3.658,1.815-6.326,0.589-9.617-0.894c-6.993-3.148-14.106-0.997-20.844,1.232c-1.698,0.563-1.437,0.502-2.571-0.542
		c-2.869-2.638-7.759-1.114-10.481-4.521c-0.008-0.011-0.31,0.142-0.388,0.271c-1.987,3.289-2.864,2.485-3.702-0.763
		c-0.211-0.82-2.046-1.482-3.479-1.197c0.962,4.856,1.019,4.05-4.142,3.696c-2.692-0.186-6.292-2.614-9.021,0.779
		c-0.467,0.581-1.902,0.719-2.805,0.56c-5.72-1.005-11.117-4.319-17.262-2.301c-0.393,0.129-0.999-0.146-1.416-0.388
		c-6.362-3.704-13.865-2.723-20.575-5.014c-1.299-0.443-2.556,0.449-3.813,0.667c-4.555,0.785-9.185,1.659-13.763,1.55
		c-1.955-0.047-3.431-0.35-4.821,1.151c-0.674,0.727-1.783,1.894-2.477,1.185c-3.126-3.197-7.563-1.493-11.016-3.253
		c-2.392-1.219-4.737-2.638-6.813,0.644c-0.701,1.106-1.789,0.544-2.468-0.36c-1.544-2.057-2.832-2.25-3.837,0.423
		c-0.25,0.665-0.688,1.227-1.46,0.965c-0.972-0.329-1.066-1.138-0.798-2.026c0.268-0.876,1.371-1.621,0.255-2.891
		c-1.809,0.183-2.35,2.023-3.488,3.064c-1.194,1.092-2.31,2.135-3.741,0.438c-2.504-2.965-6.032-0.781-8.994-1.805
		c-2.418-0.834-5.765-4.209-7.512,1.124c-0.02,0.058-1.69-0.104-2.178-0.583c-1.606-1.581-3.365-1.039-5.146-0.693
		c-2.673,0.52-5.708,0.824-7.813-0.563c-3.604-2.377-6.361-2.584-9.37,0.681c-0.939,1.02-2.351,0.501-3.723,0.025
		c-4.761-1.651-10.205-0.15-14.722-3.238c-2.896-1.979-7.501,0.901-9.584-2.492c-1.869-3.042-2.688-3.509-4.401-0.202
		c-0.485,0.938-1.604,1.39-2.604,1.048c-4.502-1.538-8.769,0.415-12.994,1.163c-2.923,0.518-6.441,0.396-7.43-1.161
		c-2.67-4.21-8.693-2.035-10.17-6.566c-2.878,0.979,0.524,3.292-1.566,4.313c-4.959-4.762-4.959-4.762-7.244,1.437
		c-1.639-4.484-4.348-2.518-7.144-1.34c-3.271,1.377-6.32,0.318-8.651-2.064c-1.804-1.843-3.493-2.994-6.024-1.817
		c-1.071,0.497-2.031,1.146-3.149,0.03c-3.417-3.413-7.74-3.02-11.988-2.65c-1.441,0.125-2.927,1.136-4.11-0.429
		c-0.465-0.613-0.088-1.299,0.442-1.746c1.217-1.026,2.266-2.769,4.232-1.384c1.304,0.92,2.814,1.263,3.112-0.558
		c0.851-5.189,4.779-5.224,8.496-5.257c8.649-0.076,17.605-0.696,25.691-2.386c10.212-2.134,20.316-4.153,30.707-4.995
		c4.108-0.333,6.372-2.048,6.302-6.979c-0.34-23.815-0.35-47.64-0.355-71.46c-0.02-64.636,0.038-129.271,0.039-193.905
		c0-52.139-0.064-104.276-0.051-156.415c0.016-49.141,0.114-98.281,0.1-147.423c-0.001-2.638,0.709-4.266,3.123-5.576
		c15.071-8.183,30.102-16.448,45.08-24.801c44.372-24.744,88.729-49.516,133.05-74.348
		C622.361,138.721,628.207,135.901,634.458,131.115z M647.752,784.577c3.648-190.728,6.09-381.454,1.021-572.19
		C643.051,403.111,645.393,593.845,647.752,784.577z M380.793,839.751c2.265-0.48,2.751-2.172,2.694-4.131
		c-0.028-0.967-0.287-2.494-1.542-1.896c-1.693,0.809-3.685,2.025-4.363,3.584C377.09,838.438,379.217,839.455,380.793,839.751z"/>
	<path fill="#F3CE87" d="M315.929,795.213c-2.538,6.163-3.77,12.299-5.152,18.37c-0.7,3.073-0.899,6.262-1.594,9.338
		c-1.149,5.104-0.593,9.249,5.071,11.277c1.159,0.415,2.805,0.908,2.471,2.66c-0.309,1.618-1.869,1.59-3.178,1.848
		c-3.979,0.785-7.974,0.185-11.951,0.117c-4.055-0.067-4.208-3.071-3.876-6.08c1.483-13.434,0.188-26.864-0.045-40.292
		c-0.107-6.143-1.567-12.217-1.272-18.41c0.055-1.149-0.011-2.619-1.398-2.907c-4.728-0.979-4.042-4.552-3.959-7.861
		c0.36-14.326,1.762-28.571,3.901-42.722c1.37-9.063,3.97-17.493,13.582-21.819c3.882-1.748,4.206-5.308,2.044-9.33
		c-3.325-6.191-4.367-12.778,0.409-18.766c4.688-5.876,11.001-7.744,18.349-6.039c9.138,2.12,14.504,11.817,11.456,21.049
		c-1.998,6.053-5.044,11.275-11.938,12.92c-2.024,0.482-3.322,2.134-1.203,3.424c7.568,4.606,7.368,12.202,7.787,19.414
		c0.802,13.791,3.533,27.414,3.396,41.28c-0.031,3.187-0.004,6.302-1.194,9.334c-1.288,3.28-1.93,6.65-1.51,10.244
		c0.916,7.841-3.988,14.629-4.133,22.353c-0.132,6.98-0.938,13.947-1.202,20.931c-0.171,4.484,7.622,11.259,12.13,10.261
		c2.517-0.558,4.78-0.657,7.265-0.324c1.29,0.172,3.473-1.383,3.398,1.029c-0.066,2.22-2.201,4.36-4.506,3.587
		c-7.742-2.596-15.562-0.379-23.317-0.886c-5.304-0.347-6.837-1.822-6.269-7.04c1.072-9.868-1.221-19.557-1.821-29.338
		C317.524,800.479,318.327,797.806,315.929,795.213z"/>
</g>
<path fill="#C0982A" d="M647.752,784.577c3.648-190.728,6.09-381.454,1.021-572.19C643.051,403.111,645.393,593.845,647.752,784.577
	z"/>
<path fill="currentColor" d="M124.342,690.246c-0.015-6.445-0.029-12.893-0.044-19.334c0.988-3.416,0.581-6.93,0.583-10.396
	c0.013-16.473-0.054-32.943-0.128-49.416c-0.067-14.957,0.528-29.92-0.437-44.865c-0.084-19.271-0.22-38.541-0.243-57.813
	c-0.04-33.403-0.041-66.806,0.001-100.209c0.028-22.099,0.158-44.196,0.243-66.289c0.116-1.142,0.332-2.287,0.334-3.434
	c0.056-31.458,0.145-62.916,0.105-94.374c-0.02-15.956-0.278-31.911-0.429-47.866c0.018-22.265,0.056-44.528,0.024-66.792
	c-0.003-2.521-0.185-4.472,3.486-4.212c14.248,1.008,28.547-0.556,42.764,0.275c13.485,0.789,26.938,0.438,40.401,0.515
	c28.754,0.165,57.517,0.408,86.261-0.141c11.631-0.223,23.268-0.507,34.899-0.473c14.229,0.041,28.459,0.597,42.688,0.592
	c15.465-0.005,30.938-0.835,46.39-0.491c14.131,0.313,28.268,0.882,42.389,0.51c56.105-1.48,112.216-0.463,168.323-0.64
	c49.92-0.157,99.841-0.042,149.762-0.056c36.254-0.01,72.508-0.05,108.762-0.041c9.512,0.003,8.7-1.146,8.7,8.403
	c-0.01,93.479-0.033,186.958-0.053,280.438c-0.012,57.806-0.046,115.611-0.032,173.417c0.017,62.955,0.118,125.91,0.103,188.865
	c-0.012,41.641-0.165,83.279-0.252,124.916c-1.163-0.031-2.329-0.088-3.494-0.088c-102.455-0.02-204.909-0.037-307.364-0.049
	c-122.444-0.016-244.889-0.033-367.333-0.029c-31.815,0-63.63,0.082-95.444,0.125c-0.141-0.193-0.327-0.322-0.555-0.383
	c0.034-0.828,0.091-1.658,0.091-2.488c-0.03-56.432-0.041-112.863-0.115-169.295C124.709,716.17,124.476,703.207,124.342,690.246z
	 M891.817,515.848c0.044-17.47,0.127-34.938,0.126-52.406c0-87.396-0.016-174.79-0.04-262.185
	c-0.006-22.297-0.068-44.595-0.105-66.892c-0.033-2.001-1.489-1.279-2.518-1.285c-15.812-0.099-31.62-0.267-47.432-0.253
	c-27.111,0.023-54.224,0.211-81.336,0.242c-39.923,0.047-79.846,0.056-119.77,0.007c-24.725-0.03-49.448-0.269-74.172-0.278
	c-19.95-0.009-39.9,0.259-59.852,0.267c-24.265,0.01-48.528-0.125-72.794-0.198c-1.309-0.139-2.616-0.398-3.925-0.399
	c-31.445-0.034-62.891-0.048-94.336-0.034c-1.478,0.001-2.953,0.278-4.43,0.427c-12.97,0.074-25.938,0.223-38.906,0.209
	c-51.293-0.056-102.586-0.093-153.877-0.357c-4.993-0.026-6.703,1.002-6.646,6.375c0.319,30.487,0.281,60.979,0.269,91.47
	c-0.045,106.465-0.158,212.93-0.19,319.395c-0.024,79.475,0.033,158.949,0.061,238.424c0.012,33.654,0.117,67.313-0.037,100.967
	c-0.018,4.025,1.183,4.934,4.985,4.855c14.821-0.293,29.647-0.268,44.472-0.359c27.316,0.059,54.632,0.156,81.948,0.16
	c20.818,0,41.636-0.121,62.454-0.188c0.875,0.004,1.751,0.008,2.626,0.012c1.491,0.078,2.981,0.221,4.474,0.223
	c44.158,0.02,88.315,0.049,132.475,0.018c26.485-0.02,52.971-0.141,79.456-0.217c6.211,0.338,12.421,0.428,18.63-0.033
	c8.317,0.084,16.634,0.246,24.951,0.234c29.132-0.043,58.263-0.146,87.396-0.229c1.872-0.012,3.743-0.021,5.616-0.031
	c1.824,0.084,3.648,0.24,5.474,0.24c44.328,0.008,88.655,0.006,132.983-0.012c22.498-0.008,44.997-0.127,67.493,0.016
	c3.71,0.021,5.088-0.947,4.755-4.74c-0.35-3.973-0.232-7.99-0.232-11.99c-0.001-73.15,0.016-146.305,0.017-219.457
	c0.001-23.488-0.031-46.979-0.048-70.471c-0.234-1.604-0.67-3.207-0.674-4.811c-0.057-20.633-0.066-41.266-0.029-61.896
	C891.13,519.059,891.577,517.453,891.817,515.848z"/>
</svg>
