<svg version="1.1" id="Layer_1" xmlns="http://www.w3.org/2000/svg" xmlns:xlink="http://www.w3.org/1999/xlink" x="0px" y="0px"
	 width="1024.191px" height="1024.191px" viewBox="0 0 1024.191 1024.191" enable-background="new 0 0 1024.191 1024.191"
	 xml:space="preserve">
<g>
	<path fill-rule="evenodd" clip-rule="evenodd" fill="currentColor" d="M124.976,512.407c0-61.493,0.045-122.986-0.013-184.479
		c-0.061-65.659-0.18-131.318-0.428-196.978c-0.016-4.178,0.642-5.761,5.33-5.755c122.656,0.16,245.311,0.172,367.966,0.178
		c131.152,0.007,262.306-0.021,393.458-0.026c7.068-0.001,7.056,0.029,7.059,6.949c0.064,161.814,0.16,323.63,0.187,485.444
		c0.015,91.49-0.077,182.98-0.143,274.472c-0.008,10.211,0.063,8.162-8.409,8.164c-86.983,0.021-173.967-0.018-260.95-0.049
		c-74.323-0.027-148.646-0.076-222.969-0.096c-53.318-0.014-106.638,0.004-159.956,0.011c-38.488,0.006-76.977-0.075-115.463,0.141
		c-4.84,0.027-5.798-1.677-5.792-6.015c0.09-66.826,0.048-133.652,0.043-200.479c-0.004-60.493-0.001-120.987-0.001-181.481
		C124.921,512.407,124.948,512.407,124.976,512.407z M634.458,131.115c-2.578-0.136-3.712-0.264-4.843-0.245
		c-46.656,0.787-93.316,0.348-139.975,0.371c-116.985,0.06-233.971,0.056-350.956,0.113c-8.894,0.004-7.868-0.582-7.874,7.761
		c-0.077,115.824-0.152,231.648-0.141,347.473c0.013,132.317,0.116,264.635,0.169,396.952c0.004,10.799-0.032,10.868,10.708,10.871
		c148.48,0.033,296.961,0.064,445.44,0.057c81.156-0.005,162.313-0.081,243.469-0.134c18.997-0.013,37.994-0.137,56.991-0.025
		c3.708,0.021,5.167-1.172,4.807-4.898c-0.353-3.643-0.09-7.364-0.672-10.958c-0.338-2.088,1.711-6.692-2.878-5.629
		c-3.291,0.763-4.152-3.854-7.389-1.86c-4.308,2.653-9.122,2.902-14.057,1.828c-1.051-0.229-2.362-0.146-3.115,1.038
		c-1.688,2.655-1.75,2.784-4.035,1.627c-2.205-1.117-4.659-1.611-6.657-0.563c-3.996,2.095-7.916,1.519-11.075-0.713
		c-2.867-2.025-6.158-2.164-9.123-3.531c-2.978-1.373-6.142,2.536-9.581,0.903c0.106,1.636-0.207,2.778-2.182,1.713
		c-1.324-0.715-1.657-1.94-1.709-3.373c-0.03-0.86,1.254-1.734-0.396-2.898c-2.557,6.026-8.232,5.783-12.453,4.145
		c-6.404-2.487-12.636-2.643-18.932-1.476c-3.877,0.719-5.439-0.13-5.312-4.249c-6.523,6.083-10.514,6.506-17.692,2.244
		c-3.675-2.183-10.287-1.019-13.546,2.248c-1.077,1.079-2.72,3.153-4.013,1.304c-1.986-2.841-4.687-2.454-7.331-3.256
		c-2.907-0.883-7.34,1.48-8.725-3.559c-0.247-0.899-1.668-1.131-2.878,0.049c-6.604,6.441-14.521,2.347-21.583,1.595
		c-2.774-0.296-6.082-1.754-9.268-1.63c-1.843,0.072-3.366-0.596-4.951-0.843c-4.896-0.763-9.906-3.613-14.865-1.153
		c-3.658,1.815-6.326,0.589-9.617-0.893c-6.993-3.149-14.107-0.998-20.844,1.232c-1.698,0.562-1.437,0.502-2.571-0.542
		c-2.87-2.638-7.759-1.114-10.482-4.522c-0.008-0.01-0.309,0.142-0.387,0.271c-1.988,3.289-2.865,2.485-3.703-0.763
		c-0.211-0.82-2.046-1.482-3.479-1.197c0.962,4.856,1.018,4.05-4.142,3.696c-2.692-0.185-6.292-2.614-9.02,0.78
		c-0.467,0.581-1.903,0.718-2.805,0.559c-5.72-1.005-11.117-4.319-17.262-2.301c-0.392,0.129-0.999-0.145-1.416-0.387
		c-6.362-3.704-13.865-2.723-20.575-5.014c-1.299-0.443-2.555,0.449-3.813,0.667c-4.555,0.785-9.185,1.659-13.763,1.55
		c-1.955-0.047-3.431-0.35-4.821,1.151c-0.674,0.727-1.783,1.894-2.477,1.185c-3.126-3.197-7.563-1.493-11.015-3.253
		c-2.392-1.219-4.738-2.638-6.814,0.643c-0.701,1.107-1.789,0.544-2.468-0.36c-1.544-2.057-2.832-2.25-3.837,0.423
		c-0.25,0.665-0.688,1.226-1.46,0.965c-0.971-0.329-1.066-1.138-0.797-2.027c0.267-0.876,1.371-1.621,0.254-2.89
		c-1.808,0.182-2.349,2.023-3.488,3.064c-1.194,1.092-2.309,2.135-3.741,0.438c-2.504-2.965-6.032-0.782-8.994-1.805
		c-2.418-0.834-5.765-4.209-7.512,1.124c-0.019,0.058-1.69-0.104-2.178-0.583c-1.606-1.581-3.365-1.039-5.146-0.693
		c-2.673,0.519-5.708,0.824-7.813-0.564c-3.604-2.377-6.361-2.584-9.37,0.681c-0.939,1.019-2.35,0.501-3.722,0.025
		c-4.761-1.651-10.205-0.15-14.722-3.238c-2.896-1.98-7.501,0.901-9.584-2.492c-1.869-3.042-2.688-3.509-4.401-0.203
		c-0.486,0.939-1.604,1.39-2.605,1.048c-4.502-1.538-8.768,0.415-12.994,1.163c-2.923,0.518-6.441,0.396-7.43-1.161
		c-2.67-4.21-8.693-2.035-10.17-6.566c-2.878,0.979,0.525,3.292-1.566,4.312c-4.959-4.761-4.959-4.761-7.244,1.437
		c-1.639-4.484-4.348-2.518-7.144-1.34c-3.271,1.377-6.32,0.318-8.651-2.064c-1.804-1.843-3.493-2.995-6.025-1.818
		c-1.071,0.497-2.031,1.147-3.149,0.03c-3.417-3.413-7.74-3.019-11.988-2.65c-1.442,0.125-2.927,1.136-4.111-0.429
		c-0.464-0.613-0.087-1.298,0.443-1.746c1.217-1.026,2.265-2.768,4.232-1.383c1.304,0.919,2.815,1.262,3.113-0.558
		c0.85-5.19,4.779-5.224,8.496-5.257c8.649-0.076,17.605-0.696,25.691-2.386c10.212-2.134,20.316-4.153,30.707-4.995
		c4.108-0.333,6.372-2.048,6.302-6.978c-0.34-23.816-0.35-47.64-0.356-71.46c-0.019-64.636,0.038-129.271,0.039-193.906
		c0-52.138-0.064-104.276-0.05-156.414c0.015-49.141,0.114-98.281,0.099-147.423c-0.001-2.638,0.709-4.266,3.123-5.576
		c15.072-8.183,30.102-16.448,45.08-24.801c44.372-24.744,88.729-49.516,133.05-74.348
		C622.361,138.721,628.207,135.901,634.458,131.115z M647.752,784.577c3.648-190.727,6.09-381.454,1.02-572.19
		C643.051,403.111,645.393,593.845,647.752,784.577z M380.793,839.751c2.265-0.48,2.751-2.172,2.694-4.131
		c-0.028-0.967-0.287-2.494-1.542-1.896c-1.693,0.808-3.684,2.025-4.363,3.584C377.09,838.438,379.217,839.455,380.793,839.751z"/>
	<path fill-rule="evenodd" clip-rule="evenodd" fill="#F3CE87" d="M315.929,795.213c-2.538,6.163-3.77,12.299-5.153,18.37
		c-0.7,3.073-0.899,6.262-1.593,9.338c-1.15,5.103-0.593,9.249,5.071,11.277c1.159,0.415,2.805,0.908,2.471,2.66
		c-0.309,1.619-1.87,1.59-3.178,1.848c-3.979,0.785-7.974,0.185-11.951,0.117c-4.055-0.067-4.209-3.071-3.876-6.08
		c1.483-13.433,0.188-26.864-0.045-40.292c-0.107-6.142-1.567-12.217-1.272-18.41c0.055-1.149-0.011-2.619-1.398-2.907
		c-4.728-0.98-4.042-4.552-3.959-7.862c0.36-14.326,1.762-28.571,3.901-42.721c1.37-9.063,3.97-17.493,13.581-21.82
		c3.882-1.748,4.206-5.307,2.044-9.33c-3.325-6.191-4.367-12.778,0.409-18.765c4.688-5.876,11.001-7.744,18.349-6.039
		c9.138,2.12,14.504,11.817,11.456,21.049c-1.998,6.052-5.044,11.275-11.938,12.919c-2.025,0.483-3.323,2.134-1.203,3.424
		c7.568,4.607,7.368,12.202,7.787,19.414c0.801,13.791,3.533,27.414,3.396,41.281c-0.031,3.186-0.004,6.301-1.194,9.334
		c-1.288,3.28-1.93,6.65-1.51,10.244c0.916,7.84-3.988,14.629-4.133,22.352c-0.132,6.981-0.937,13.948-1.202,20.931
		c-0.171,4.484,7.622,11.259,12.13,10.261c2.517-0.558,4.78-0.658,7.265-0.325c1.29,0.172,3.472-1.382,3.398,1.03
		c-0.066,2.219-2.201,4.36-4.506,3.587c-7.742-2.596-15.561-0.379-23.317-0.886c-5.304-0.347-6.837-1.822-6.269-7.04
		c1.073-9.868-1.22-19.557-1.821-29.338C317.524,800.48,318.327,797.806,315.929,795.213z"/>
</g>
<path fill-rule="evenodd" clip-rule="evenodd" fill="#C0982A" d="M647.752,784.577c3.648-190.727,6.09-381.454,1.02-572.19
	C643.051,403.111,645.393,593.845,647.752,784.577z"/>
</svg>
