<svg version="1.1" id="Layer_1" xmlns="http://www.w3.org/2000/svg" xmlns:xlink="http://www.w3.org/1999/xlink" x="0px" y="0px"
	 width="1024.191px" height="1024.191px" viewBox="0 0 1024.191 1024.191" enable-background="new 0 0 1024.191 1024.191"
	 xml:space="preserve">
<path fill="currentColor" d="M123.342,689.246c-0.015-6.445-0.029-12.894-0.044-19.334c0.988-3.416,0.581-6.93,0.583-10.396
	c0.013-16.473-0.054-32.942-0.128-49.416c-0.067-14.957,0.528-29.92-0.437-44.864c-0.084-19.271-0.22-38.541-0.243-57.813
	c-0.04-33.403-0.041-66.806,0.001-100.209c0.028-22.099,0.158-44.196,0.243-66.289c0.116-1.142,0.332-2.287,0.334-3.434
	c0.056-31.458,0.145-62.916,0.105-94.374c-0.02-15.956-0.278-31.911-0.429-47.866c0.018-22.265,0.056-44.528,0.024-66.792
	c-0.003-2.521-0.185-4.472,3.486-4.212c14.248,1.008,28.547-0.556,42.764,0.275c13.485,0.789,26.938,0.438,40.401,0.515
	c28.754,0.165,57.517,0.408,86.261-0.141c11.63-0.223,23.268-0.507,34.899-0.473c14.229,0.041,28.459,0.597,42.688,0.592
	c15.466-0.005,30.938-0.835,46.391-0.491c14.131,0.313,28.268,0.882,42.389,0.51c56.105-1.48,112.216-0.463,168.323-0.64
	c49.92-0.157,99.841-0.042,149.762-0.056c36.254-0.01,72.508-0.05,108.762-0.041c9.513,0.003,8.7-1.146,8.7,8.403
	c-0.01,93.479-0.033,186.958-0.053,280.438c-0.012,57.806-0.046,115.61-0.032,173.417c0.018,62.955,0.118,125.91,0.104,188.865
	c-0.013,41.641-0.165,83.279-0.252,124.916c-1.163-0.031-2.329-0.088-3.494-0.088c-102.455-0.021-204.909-0.037-307.364-0.049
	c-122.444-0.017-244.889-0.033-367.333-0.029c-31.815,0-63.63,0.082-95.444,0.125c-0.141-0.193-0.327-0.322-0.555-0.383
	c0.034-0.828,0.091-1.658,0.091-2.488c-0.03-56.432-0.041-112.862-0.115-169.295C123.709,715.169,123.476,702.207,123.342,689.246z
	 M890.817,514.847c0.044-17.469,0.127-34.937,0.126-52.405c0-87.396-0.017-174.791-0.04-262.186
	c-0.006-22.297-0.068-44.595-0.105-66.892c-0.033-2.001-1.489-1.279-2.518-1.285c-15.813-0.099-31.62-0.267-47.433-0.253
	c-27.11,0.023-54.224,0.211-81.336,0.242c-39.923,0.047-79.846,0.056-119.77,0.007c-24.726-0.03-49.448-0.269-74.172-0.278
	c-19.95-0.009-39.9,0.259-59.853,0.267c-24.265,0.01-48.527-0.125-72.794-0.198c-1.309-0.139-2.616-0.398-3.925-0.399
	c-31.445-0.034-62.891-0.048-94.336-0.034c-1.479,0.001-2.953,0.278-4.43,0.427c-12.971,0.074-25.938,0.223-38.906,0.209
	c-51.293-0.056-102.586-0.093-153.877-0.357c-4.993-0.026-6.703,1.002-6.646,6.375c0.319,30.487,0.281,60.979,0.269,91.47
	c-0.045,106.465-0.158,212.93-0.19,319.395c-0.024,79.475,0.033,158.949,0.061,238.424c0.012,33.654,0.117,67.313-0.037,100.967
	c-0.018,4.025,1.183,4.935,4.985,4.855c14.821-0.293,29.647-0.269,44.472-0.359c27.316,0.059,54.632,0.156,81.948,0.16
	c20.818,0,41.636-0.121,62.454-0.188c0.875,0.005,1.751,0.009,2.626,0.013c1.491,0.078,2.981,0.221,4.475,0.223
	c44.158,0.021,88.314,0.049,132.475,0.018c26.485-0.02,52.972-0.141,79.456-0.217c6.211,0.338,12.421,0.429,18.63-0.033
	c8.317,0.084,16.634,0.246,24.951,0.234c29.132-0.043,58.263-0.146,87.396-0.229c1.872-0.013,3.742-0.021,5.615-0.031
	c1.824,0.084,3.648,0.24,5.475,0.24c44.328,0.008,88.655,0.006,132.982-0.013c22.498-0.008,44.997-0.127,67.493,0.017
	c3.71,0.021,5.088-0.947,4.755-4.74c-0.35-3.973-0.231-7.99-0.231-11.99c-0.001-73.149,0.016-146.305,0.017-219.457
	c0.001-23.487-0.031-46.979-0.048-70.471c-0.234-1.604-0.67-3.207-0.674-4.811c-0.057-20.634-0.066-41.267-0.029-61.896
	C890.13,518.058,890.577,516.453,890.817,514.847z"/>
<path fill-rule="evenodd" clip-rule="evenodd" fill="currentColor" d="M125.37,901.975c-0.032-68.992-0.067-137.984-0.096-206.978
	c-0.025-56.502-0.061-113.006-0.061-169.508c0-69.361,0.032-138.721,0.052-208.082c0.019-60.302,0.039-120.604,0.064-180.904
	c0.002-4.241-2.001-9.813,0.5-12.363c2.726-2.779,8.381-0.603,12.748-0.876c3.923-0.247,7.892,0.603,11.772-0.481
	c1.551,0.125,3.111,0.347,4.671,0.348c27.846,0.007,55.692,0.026,83.538-0.051c8.836-0.025,17.681,0.52,26.507-0.325
	c1.475,0.831,3.09,0.505,4.646,0.506c70.774,0.018,141.548,0.021,212.323,0.002c1.713,0,3.426-0.272,5.136-0.415
	c14.346,0.1,28.695,0.286,43.044,0.277c20.341-0.014,40.681-0.171,61.021-0.266c2.346,0.144,4.691,0.413,7.038,0.414
	c46.26,0.031,92.52,0.035,138.779,0.021c1.237-0.001,2.475-0.27,3.708-0.412c29.942,0.459,59.888,0.35,89.833-0.014
	c3.587,0.892,7.233,0.37,10.847,0.384c18.515,0.073,37.031,0.108,55.546-0.021c3.021-0.021,4.108,0.668,4.019,3.871
	c-0.186,6.633,0.068,13.28,0.142,19.92c-0.087,1.096-0.251,2.194-0.251,3.292c0.014,40.52,0.061,81.038,0.067,121.556
	c0.024,156.693,0.03,313.386,0.058,470.079c0.01,53.337,0.063,106.675,0.097,160.014c0,0-0.221,0.156-0.219,0.154
	c-1.421,0.021-2.845,0.071-4.269,0.07c-128.936-0.009-257.872-0.011-386.808-0.038c-90.65-0.019-181.301-0.075-271.951-0.088
	c-1.182,0-2.553-0.562-3.513,0.703c-2.563-0.001-5.125-0.003-7.686-0.002c-1.477-1.437-3.304-0.653-4.944-0.658
	C189.61,902.023,157.49,902.006,125.37,901.975z M263.744,811.933c-0.665-0.283-0.947,0.089-1.117,0.652
	c-2.679,0.043-5.447,0.547-8.02,0.048c-11.158-2.164-22.497,0.06-33.65-1.624c-1.496-0.012-3.529-1.271-3.771,1.625
	c-0.307,0.042-0.613,0.085-0.919,0.129c-0.06-0.258-0.218-0.417-0.476-0.479c-1.861-0.667-3.711-0.427-5.558,0.064
	c2.778,2.593,5.854,4.246,9.813,3.11c1.909-0.02,3.816-0.039,5.725-0.059c2.758,0.598,5.428,1.729,8.209-0.407
	c0.908-0.697,2.71-0.229,4.104-0.293c0.322,0.924,0.706,0.997,1.16,0.082c7.622,1.865,15.354,0.502,23.03,0.759
	c1.754,0.06,2.386-1.222,2.607-2.755c0.183-0.23,0.365-0.463,0.547-0.694c-0.234-0.036-0.467-0.073-0.702-0.109
	C264.4,811.966,264.071,811.949,263.744,811.933z M738.6,816.725c-0.604-0.061-1.206-0.12-1.81-0.18l-0.043-0.033
	c-1.661-1.881-3.682-1.046-5.631-0.745c-0.977-0.017-1.952-0.033-2.928-0.05c-0.297-0.195-0.595-0.198-0.895-0.009
	c-11.69-1.874-23.376-3.786-35.293-2.832c-0.761-0.234-1.438-0.089-2.029,0.445l-0.241-0.116l0.166,0.222
	c-0.178,0.357-0.356,0.715-0.534,1.071c-7.139-0.301-14.294,0.778-21.423-0.267c-0.346-0.601-0.695-0.784-1.053-0.009
	c-4.453,0.852-8.951,0.283-13.195-0.701c-6.063-1.406-10.641,3.504-16.448,2.992c-2.561-0.225-5.313-2.569-7.897,0.033
	c-1.905,0.033-3.81,0.065-5.715,0.099c-2.117-0.047-4.465-0.681-6.277,0.038c-1.535,0.609,0.488,0.386,0.68,0.741
	c2.015,1.928,4.456,0.664,6.697,0.895c0.927-0.02,1.854-0.039,2.78-0.059c0.334,0.007,0.667,0.015,1.001,0.023
	c1.223,0.413,2.449,0.4,3.681,0.043c11.094-0.242,22.002,2.027,33.084,2.427c6.727,0.243,13.819-0.369,20.356,2.298
	c1.662,0.678,2.679-0.125,3.792-1.014l0.384,0.184l0.423-0.043c1.636,2.429,4.799,0.205,6.586,2.16
	c-0.06,0.282,0.023,0.512,0.251,0.689c-0.027,0.316-0.055,0.635-0.082,0.953c1.798,2.516,4.391,0.328,6.481,1.097
	c0.707,1.243,1.808,0.888,2.865,0.705c1.9,0.082,3.801,0.164,5.702,0.246c1.147,1.413,2.481,1.302,3.237-0.14
	c0.622-1.186-0.671-0.774-1.268-0.839c-1.87-0.056-3.741-0.111-5.61-0.168c-0.38-1.009-1.14-1.039-2.012-0.782
	c-0.72-0.12-1.44-0.24-2.15-0.36c0.875-0.336,1.749-0.671,2.634-1.005c0.782-0.076,1.563-0.152,2.345-0.229
	c0.761,0.183,0.785-0.29,0.53-0.729c-0.248-0.427-0.701-0.552-1.128-0.118c-0.248-0.23-0.496-0.461-0.745-0.692
	c0.252-0.594,0.577-1.217-0.519-1.255c-1.503-0.691-3.06-0.734-4.649-0.396c1.421-1.507,3.249-0.701,4.866-0.739
	c6.285-0.153,12.574-0.136,18.859-0.18c0.466,0.138,0.933,0.274,1.399,0.412c4.506,0.692,9.011,0.306,13.52-0.012
	c0.657,0.114,1.314,0.229,1.972,0.345c3.516,0.442,7.029,0.505,10.542-0.026c1.01-0.003,2.35,1.016,2.746-0.888
	c1.459,0.244,2.955,0.021,3.917-1.005c1.204-1.283,0.109-1.403-0.971-1.269c-1.852-0.591-3.736-0.684-5.647-0.354
	c-1.587,0.04-3.175,0.08-4.763,0.12c-1.267-0.347-2.535-0.694-3.803-1.042c-1.251-0.321-2.504-0.487-3.76-0.023
	C740.585,816.679,739.593,816.701,738.6,816.725z M608.57,816.605c-1.2,0.01-2.456-0.604-3.613,0.321
	c1.14,0.904,2.382,0.568,3.604,0.406c0.418,0.076,0.787,0.028,0.671-0.513C609.208,816.707,608.802,816.676,608.57,816.605z
	 M277.12,814.529c2.346,0.186,4.714,0.651,8.256-0.77c-3.613,0-5.931,0-8.249,0c-3.363-0.074-6.75-0.831-10.672,0.361
	C270.371,815.223,273.749,814.775,277.12,814.529z M129.843,126.216c-1.332,0.35-0.942,1.47-0.941,2.31
	c0.051,35.864,0.128,71.729,0.202,107.593c-0.001,2.273-0.002,4.546-0.003,6.819c-0.076,43.991-0.202,87.981-0.218,131.972
	c-0.03,79.125-0.014,158.25,0.024,237.375c0.016,33.547,0.135,67.094,0.207,100.641c-0.081,8.224-0.219,16.446-0.23,24.671
	c-0.031,22.319,0.118,44.641-0.111,66.958c-0.046,4.546,1.384,5.753,5.709,5.45c5.959-0.419,11.962-0.599,17.922-0.733
	c40.265-0.907,80.57,0.941,120.814-2.086c10.489-0.789,20.998,1.26,31.484,1.588c16.699,0.523,33.376,1.371,50.064,2
	c22.43,0.847,44.871-0.514,67.309-0.72c0.633-0.006,1.417,0.174,1.866-1.081c-5.429-0.387-10.644-0.752-15.867-1.668
	c-9.374-1.645-18.896-3.168-28.513-3.17c-0.821-0.001-1.99-0.218-1.966-0.961c0.141-4.576-4.086-3.613-6.285-4.675
	c-5.704-2.754-12.071-1.702-18.196-2.05c-3.057-0.174-6.447,0.448-9.295-2.193c2.32-0.858,4.176-1.623,6.079-2.235
	c10.27-3.307,21.329-3.398,31.366-7.693c1.355-0.581,2.862-0.581,4.326-0.741c6.619-0.728,13.094,1.323,19.612,0.658
	c12.865-1.313,25.788-0.625,38.679-1.498c14.292-0.966,28.335,1.831,42.248,4.972c6.48,1.463,12.877,3.69,19.594,0.565
	c1.5-0.699,2.794-1.1,2.19-2.721c-1.344-3.6,0.064-7.054,0.09-10.57c0.088-11.861,0.109-23.726-0.031-35.586
	c-0.058-4.883-0.562-9.763-0.926-14.64c-0.153-2.043,0.241-3.293,2.726-3.232c1.686,0.041,3.388-0.462,5.078-0.746
	c3.021-0.507,4.73,0.131,4.389,3.822c-0.335,3.609-0.068,7.274-0.069,10.915c-0.001,16.621,0.156,33.243-0.129,49.858
	c-0.065,3.816,1.963,4.866,4.495,4.374c4.577-0.892,8.136-0.236,12.702,1.646c9.753,4.022,20.424,5.438,31.183,5.335
	c4.185-0.04,8.498,0.46,12.547,1.51c12.832,3.326,25.999,4.28,39.021,3.78c12.575-0.481,25.179-0.368,37.764-1.359
	c16.403-1.292,32.425,3.182,48.635,4.886c2.785,0.292,6.391-0.66,8.807,2.257c-4.399,0.088-8.655,0.506-12.948,0.306
	c4.179,1.366,8.277,2.494,12.445,2.885c15.457,1.447,30.984,2.336,46.453,3.289c18.526,1.14,37.108,1.718,55.629,3.238
	c8.909,0.732,17.842,1.237,26.722,2.23c16.685,1.864,33.211,5.255,50.155,4.506c3.296-0.145,3.906-1.194,3.766-4.093
	c-0.492-10.162,0.216-20.324,0.084-30.501c-0.355-27.582-0.104-55.172-0.111-82.759c-0.003-11.505,0.78-23.012,0.777-34.484
	c-0.004-22.258,0.886-44.521-0.585-66.801c-0.852-12.888-0.219-25.878,0.618-38.834c0.646-9.974-0.716-19.991,0.005-30.057
	c1.129-15.759-0.721-31.529-0.876-47.305c-0.114-11.601-0.084-23.237,0.396-34.78c0.407-9.768-0.333-19.421-0.281-29.124
	c0.071-13.745,0.457-27.489,0.708-41.233c0.071-1.416,0.203-2.832,0.204-4.247c0.012-22.776,0.035-45.552,0-68.329
	c-0.038-24.192-0.134-48.385-0.205-72.577c-0.493-7.334-0.58-14.668-0.002-22.002c0.078-2.522,0.227-5.044,0.221-7.566
	c-0.052-26.236-0.129-52.472-0.199-78.708c0.234-2.048,0.98-4.427-2.594-4.016c-1.367-1.648-3.25-0.897-4.875-0.898
	c-102.519-0.035-205.038-0.023-307.557-0.018c-124.194,0.008-248.388,0-372.581,0.033
	C182.989,125.976,156.416,126.129,129.843,126.216z M204.8,815.413c2.22,0.078,3.811,0.601,5.412-0.416
	C208.505,813.524,207.016,814.078,204.8,815.413z M291.865,814.129c0.302,0.096,0.563,0.244,0.823,0.242s0.519-0.152,0.778-0.239
	c-0.261-0.088-0.52-0.243-0.781-0.245C292.427,813.884,292.167,814.033,291.865,814.129z M200.937,812.755
	c-0.146,0.188-0.292,0.376-0.438,0.563c0.25,0.104,0.511,0.302,0.749,0.277c0.167-0.017,0.303-0.337,0.452-0.521
	C201.449,812.969,201.198,812.865,200.937,812.755z M722.355,829.314c-0.082-0.096-0.18-0.212-0.278-0.327
	c-0.107,0.105-0.297,0.208-0.303,0.318c-0.004,0.109,0.174,0.229,0.272,0.344C722.148,829.538,722.252,829.427,722.355,829.314z"/>
<path fill-rule="evenodd" clip-rule="evenodd" fill="currentColor" d="M519.972,207.637c1.33,7.169,0.157,14.372,0.209,21.555
	c0.136,18.74,0.096,37.483-0.195,56.221c-0.062,4-1.035,7.812,1.779,11.396c0.849,1.081,0.82,3.271-0.084,4.554
	c-2.232,3.167-1.724,6.569-1.707,10.094c0.108,23.242,0.534,46.501-0.171,69.723c-0.339,11.19-0.082,22.384-0.651,33.56
	c-0.092,1.81,0.091,3.304,1.313,4.802c2.304,2.819,2.805,7.066,1.234,9.368c-3.296,4.833-1.607,9.582-1.627,14.388
	c-0.06,15.104,0.538,30.235-0.198,45.304c-1.016,20.843-0.291,41.674-0.648,62.506c-0.039,2.321,0.145,4.382,1.333,6.709
	c1.442,2.824,1.338,6.537-0.766,9.427c-0.954,1.308-1.646,2.202-0.298,3.508c-0.015,34.383-0.029,68.77-0.043,103.156
	c-6.2,2.528-11.601-0.592-11.597-6.807c0.017-23.105-0.069-46.214,0.229-69.316c0.098-7.594-1.651-15.061-1.021-22.63
	c0.316-3.794,1.226-7.511-1.632-10.899c-0.608-0.721-0.542-2.696,0.015-3.597c2.63-4.254,1.596-8.84,1.594-13.332
	c-0.004-7.238,0.946-14.527,0.682-21.659c-0.497-13.406-0.666-26.8-0.677-40.206c-0.012-13.771,0.063-27.544-0.043-41.314
	c-0.038-4.909,2.021-9.942-1.656-14.72c-1.135-1.476-1.06-5.264,0.07-6.838c3.125-4.357,1.626-8.88,1.628-13.35
	c0.011-32.45-0.03-64.899-0.073-97.349c-0.004-3.393,1.299-6.931-1.671-9.996c-0.733-0.758-0.753-3.042-0.167-4.112
	c4.11-7.498,0.236-15.222,0.759-22.826c0.759-11.025,0.116-22.146,0.125-33.227c0.007-10.336,0.123-20.672,0.09-31.008
	c-0.004-1.474,0.014-2.792,1.049-3.918C511.421,207.178,515.76,206.433,519.972,207.637z"/>
<g>
	<path fill-rule="evenodd" clip-rule="evenodd" fill="#C0982A" d="M686.326,751.637c-10.033,3.997-20.259,7.756-30.893,9.329
		c-18.644,2.76-37.298,3.838-56.161-0.093c-9.844-2.051-18.929-5.114-27.613-9.886c-1-0.549-1.917-1.046-2.313-2.382
		c2.537-1.292,4.88,0.271,7.091,0.782c5.815,1.349,11.657,0.854,17.428,0.537c3.678-0.201,6.722-2.773,7.901-6.517
		c1.245-3.95-0.862-6.945-3.627-9.493c-6.119-5.641-13.613-8.881-21.143-12.082c-18.928-8.051-38.885-10.09-59.049-8.725
		c-19.971,1.353-39.493,5.936-58.759,11.386c-11.414,3.229-22.531,7.486-34.266,9.599c-16.42,2.956-32.781,4.367-49.51,1.949
		c-9.822-1.419-19.38-3.64-28.738-6.567c-5.549-1.737-9.99-2.987-16.247-0.945c-6.891,2.25-15.005,1.056-22.479-0.462
		c-12.39-2.516-24.441-6.692-32.011-17.188c-5.886-8.16-13.937-14.581-19.445-24.29c5.934,0.591,10.509,2.62,15.411,3.134
		c5.365,0.562,10.669-0.05,15.929,0.159c7.942,0.315,13.446-3.979,19.614-7.499c6.392-3.649,13.235-6.536,18.847-11.451
		c5.704-4.996,12.254-7.22,20.101-6.312c-1.403,4.087-2.59,8.064-2.937,12.298c-0.911,11.126,5.831,17.545,13.634,23.707
		c11.01,8.693,29.001,7.236,38.507,0.708c7.538-5.177,10.647-12.104,6.852-20.514c-2.611-5.783-12.166-9.971-19.525-8.378
		c-8.525,1.846-11.92,5.121-11.926,11.505c-0.005,5.762,2.438,7.904,8.288,7.286c0.779-0.083,1.566-0.082,2.512-0.342
		c-2.425-0.824-3.549-2.927-4.532-4.819c-2.177-4.191,0.314-8.421,5.055-9.018c1.406-0.177,2.845-0.128,4.269-0.124
		c7.336,0.016,10,1.79,11.645,7.722c1.28,4.613-1.419,11.188-5.941,13.866c-14.286,8.462-37.612,1.321-41.42-15.539
		c-2.039-9.032,1.822-18.218,8.769-23.872c14.765-12.017,31.782-14.825,50.611-12.905c22.639,2.309,42.449,11.758,62.366,21.333
		c11.778,5.662,24.164,9.674,36.401,14.092c13.241,4.781,26.746,8.715,40.548,11.574c0.554,1.06,0.993,2.638-0.841,2.044
		c-4.013-1.299-7.572-0.241-10.971,1.487c-2.013,1.024-3.161,0.402-4.492-0.911c-1.896-1.87-3.984-2.331-6.419-0.858
		c-1.616,0.978-2.119,2.278-1.671,3.995c0.749,2.865,3.222,3.164,5.563,3.551c0.765,0.127,1.734,0.258,2.336-0.09
		c2.987-1.729,6.59-0.437,9.564-2.072c1.481-0.814,2.353,0.162,3.666,0.773c2.773,1.289,2.918,4.978,5.644,5.727
		c2.739,0.752,5.38,1.4,7.869,2.938c1.646,1.016,3.67,0.554,5.121-1.137c1.592-1.852-0.284-2.86-0.991-4.078
		c-1.854-3.189-5.279-4.35-8.207-6.159c-0.911-0.563-2.083-1.226-1.831-2.503c0.244-1.236,1.537-0.716,2.383-0.93
		c18.341,4.251,35.538,11.34,51.047,21.979c6.476,4.442,13.136,9.473,13.5,18.67c0.031,0.797,0.121,1.826,1.046,1.863
		c6.625,0.265,10.775,5.515,16.274,8.055c5.771,2.667,11.442,4.806,17.9,3.569c2.815,1.711,5.835,0.592,8.772,0.639
		c6.034,0.1,12.066,2.091,18.101,0.074C684.77,749.212,685.465,750.53,686.326,751.637z M303.616,707.262
		c1.282-0.308,2.563-0.616,3.847-0.925c1.748-0.479,5.105,1.491,4.844-1.998c-0.261-3.484-7.141-7.678-10.824-7.474
		c-1.797,0.101-0.914,1.1-0.673,1.895c-0.371-0.009-0.742-0.019-1.114-0.027c-1.391,1.556-0.729,3.055,0.126,4.553
		c-0.032,0.336-0.063,0.673-0.095,1.01c-1.74,1.186-3.48,2.371-5.829,3.971C297.811,709.796,300.654,707.854,303.616,707.262z
		 M433.44,695.869c1.148,4.007,2.952,6.029,4.976,6.392c6.513,1.165,13.01,0.508,18.213-4.048c4.811-4.211,5.769-9.744,4.175-15.903
		c-2.503-9.671-10.354-12.331-18.05-5.987c11.072,2.412,16.316,7.595,14.421,14.533c-0.765,2.8-1.82,5.337-4.755,7.18
		C445.98,702.08,440.124,701.175,433.44,695.869z M371.997,720.59c2.617,0.603,5.132-0.732,7.791-0.938
		c1.393-0.108,2.387-0.75,2.659-2.229c0.271-1.479-0.648-2.128-1.665-3.032c-3.904-3.475-9.055-2.674-13.544-4.069
		c-1.661-0.517-4.366,0.254-5.278,2.297c-0.964,2.157,0.769,3.83,2.163,5.337C366.214,720.215,368.849,720.997,371.997,720.59z
		 M500.843,700.404c2.651,0.222,7.191-3.373,7.697-5.983c0.163-0.84,0.049-1.484-0.529-2.134
		c-3.501-3.937-14.417-2.325-16.477,2.447c-0.889,2.062,1.476,6.114,3.425,5.573C497.041,699.729,498.926,699.552,500.843,700.404z
		 M437.188,666.461c0.753-3.095-0.925-3.773-3.333-3.802c-2.977-0.036-8.349,4.92-8.444,7.806c-0.078,2.335,4.033,6.346,6.603,6.442
		C435.736,677.049,437.112,674.225,437.188,666.461z M612.594,749.615c4.207,0.926,7.056,4.623,11.427,3.31
		c1.766-0.531,3.663-1.309,5.388-1.09c1.429,0.183,2.419,0.712,2.761-1.093c0.252-1.332-0.003-2.897-1.399-3.154
		c-3.083-0.567-5.235-6.02-9.3-1.776c-0.644,0.672-1.281-0.342-1.642-1.1c-0.839-1.763-2.124-0.9-2.324,0.11
		C616.981,747.46,614.164,747.504,612.594,749.615z M405.681,722.496c4.669,0.143,11.943-5.687,12.568-10.06
		c0.134-0.938-0.368-1.855-1.135-1.655c-5.377,1.408-10.535,3.278-13.517,8.506C402.262,721.629,403.461,722.422,405.681,722.496z
		 M425.723,708.358c1.872-0.809,4.126-1.32,4.934-3.647c0.338-0.971-0.802-1.329-1.52-1.169c-2.331,0.518-5.16,0.538-6.357,2.871
		C422.297,707.353,424.426,707.805,425.723,708.358z M432.277,685.473c-0.209,0.182-0.451,0.392-0.692,0.6
		c0.259,0.095,0.544,0.306,0.769,0.254c0.287-0.067,0.525-0.346,0.784-0.533C432.882,685.698,432.625,685.603,432.277,685.473z"/>
	<path fill-rule="evenodd" clip-rule="evenodd" fill="#C0982A" d="M721.883,655.073c-3.354-2.081-7.078-1.095-10.548-0.895
		c-16.646,0.96-32.396,4.489-45.522,15.931c-3.332,2.904-8.209,1.21-12.268,0.941c-7.608-0.503-13.714-4.283-17.646-10.922
		c-4.975-8.399-1.69-16.021,6.113-21.481c8.067-5.644,17.317-9.104,27.59-9.229c5.914-0.071,11.958,1.261,17.771-0.957
		c5.81,1.95,10.416,5.005,12.86,11.146c0.979,2.459,3.62,4.463,7.004,6.4c-2.206-3.564-4.115-6.174-5.528-9.029
		c-2.989-6.039-7.728-8.809-14.389-8.454c-1.756-2.149-1.214-4.271,0.053-6.406c7.297-12.305,18.808-15.739,31.123-15.417
		c1.626,0.041,2.3,1.022,2.729,2.163c5.501,14.625,17.704,20.946,31.437,25.229c2.21,0.688,2.813,1.165,1.367,3.051
		c-3.045,2.353-2.43,5.117-0.833,7.933c2.05,3.62,5.065,2.271,8.04,0.878c-0.744,5.396,0.345,6.46,5.401,6.24
		c1.552-0.066,2.975-0.666,4.641-0.457c2.438,0.305,5.041-1.144,4.044-3.595c-0.714-1.756-0.601-6.525-5.229-4.544
		c-1.393-2.239-2.355-4.873-5.333-5.627c-1.102-0.279-2.322-0.771-1.893-2.153c0.344-1.104,1.633-0.648,2.493-0.638
		c8.271,0.106,16.135-1.446,23.827-4.657c10.548-4.402,18.095-15.737,15.809-26.192c-2.208-10.094-10.68-18.585-24.037-18.629
		c-6.522-0.021-12.589,0.769-17.939,5.378c-6.784,5.845-5.723,16.346,3.649,19.482c5.283,1.769,10.826,1.74,15.946-1.146
		c2.164-1.22,3.123-3.108,2.496-5.58c-0.359-1.414-1.441-1.962-2.873-1.941c-1.493,0.021-1.641,0.977-1.862,2.181
		c-0.935,5.066-4.469,6.499-8.887,3.698c-0.132-0.084-0.283-0.136-0.422-0.21c-3.46-1.839-6.904-4.329-6.4-8.439
		c0.503-4.109,4.049-6.823,7.993-7.89c7.568-2.048,15.578-2.513,22.08,4.465c7.059,7.576,5.091,22.078-3.256,28.253
		c-14.92,11.036-45.293,9.115-58.28-4.103c-5.176-5.268-9.489-10.643-10.845-18.11c-1.491-8.208,1.602-15.203,6.204-21.315
		c9.949-13.214,24.317-19.401,40.108-20.996c20.4-2.063,40.339,0.57,57.508,13.204c7.658,5.636,13.015,13.166,14.112,23.052
		c0.287,2.586,1.011,4.612,3.762,5.842c8.467,3.784,11.453,11.396,12.247,19.789c1.391,14.694-5.105,25.727-17.121,33.803
		c-11.65,7.831-24.346,12.213-38.458,13.45c-7.941,0.696-15.61,0.674-23.334-0.944c-0.985-0.206-1.949-0.378-2.643,0.39
		c-2.067,2.288-4.977,2.432-7.657,3.172c-1.902-1.513-4.422-2.283-5.612-4.657c-1.146-1.737-2.88-2.043-4.773-1.959
		c-0.957-0.317-1.913-0.637-2.87-0.956c-0.314-0.963-1.153-0.89-1.914-0.97l0.08,0.052c-0.631-1.351-1.896-0.839-2.934-1.002
		l0.086,0.053c-8.093-5.453-17.332-6.325-26.699-6.689C722.262,655.063,722.072,655.068,721.883,655.073z M782.311,575.199
		c1.921-2.438,1.235-4.225-1.275-5.752c-4.8-2.919-14.018-0.061-16.272,5.096c-0.829,1.897,0.177,3.624,1.605,3.844
		c4.061,0.627,8.079,3.051,12.334,0.814C780.642,578.531,781.404,576.801,782.311,575.199z M818.77,604.628
		c4.707,1.238,7.357-1.271,8.486-5.368c1.058-3.836-0.572-7.117-3.704-9.438c-1.433-1.061-1.94-1.841-1.651-3.82
		c0.457-3.135-2.164-4.85-4.653-5.732c-3.17-1.125-5.409,1.334-7.327,3.306c-1.976,2.031-1.405,5.088,0.469,6.397
		c4.268,2.985,3.66,7.768,4.865,11.711C815.977,604.045,815.321,606.125,818.77,604.628z M666.496,649.727
		c2.514,1.651,3.296-0.274,4.06-1.339c0.892-1.242,1.424-2.631,2.756-3.664c2.185-1.695,2.439-3.964,0.639-6.184
		c-1.868-2.302-3.698-4.763-7.314-2.916c-3.456,1.766-3.697,3.313-0.658,5.837c0.935,0.776,2.521,1.171,1.875,2.784
		c-0.552,1.381-2,1.404-3.273,1.311c-2.603-0.194-4.936,0.449-7.22,1.717c-2.625,1.455-3.498,4.054-2.932,6.373
		c0.679,2.779,3.501,1.627,5.602,1.543c1.635-0.065,2.488-0.563,2.865-2.357C663.307,650.861,664.978,649.966,666.496,649.727z
		 M815.888,629.39c-3.966-1.35-6.09-1.225-6.707,0.641c-1.027,3.105,1.401,4.501,3.404,6.003c0.49,0.368,1.099,0.627,1.692,0.806
		c6.41,1.931,16.271-1.342,20.293-6.842c2.088-2.855,1.181-5.691-0.685-8.247c-0.973-1.332-2.587-1.021-3.958-0.717
		c-1.251,0.278-0.96,1.286-0.812,2.267c1.15,7.594-2.259,11.483-10.06,11.764c-2.037,0.073-3.779-0.149-4.914-1.997
		C812.914,631.063,815.903,630.895,815.888,629.39z M742.257,602.587c1.711-0.836,3.307-1.825,5.038-2.414
		c2.684-0.913,6.287-2.255,5.466-4.986c-0.824-2.743-5.037-3.01-7.864-2.565c-2.965,0.467-5.324,2.681-3.759,6.076
		C741.73,599.98,741.279,601.432,742.257,602.587z"/>
	<path fill-rule="evenodd" clip-rule="evenodd" fill="#C0982A" d="M371.966,611.315c5.363-1.983,10.983-1.045,16.338-0.66
		c12.088,0.87,23.154,5.44,33.107,12.244c5.919,4.046,10.002,9.636,11.618,17.003c0.826,3.769-0.393,2.706-2.635,2.107
		c-11.852-3.16-23.765-5.969-36.205-4.96c-15.886,1.289-30.189,6.353-41.971,17.461c-3.344,3.151-9.964,7.273-14.223,7.9
		c-7.723,1.138-13.289,6.061-19.207,10.359c-10.159,7.38-21.759,10.079-33.995,10.738c-7.938,0.429-15.791,1.875-23.805-0.705
		c-9.463-3.045-18.808-5.949-25.985-13.341c-0.955-0.982-2.35-1.537-3.542-2.29c-0.084-1.432-1.255-1.954-2.144-2.821
		c-3.776-3.685-6.935-7.818-8.292-13.064c-4.432-7.687-6.207-16.079-6.614-24.837c-0.008-0.921-0.016-1.842-0.024-2.762
		c2.524-1.916,2.64-5.176,4.129-7.7c2.818-4.778,6.565-7.792,11.724-9.312c0.979-0.287,1.896-0.735,1.973-1.758
		c0.613-8.134,6.138-12.978,12-17.313c13.074-9.67,27.963-11.848,45.012-9.836c-16.161,14.378-19.439,29.518-4.566,45.959
		c2.552,1.591,5.104,3.181,7.656,4.771c-0.041,3.109,2.578,3.689,4.626,4.601c2.244,0.998,4.832,1.208,6.762,2.947
		c-0.256,1.653,0.64,3.409-2.83,3.347c-2.955-0.054-5.074,3.251-5.606,6.492c-0.222,1.348,0.499,2.946,1.805,3.645
		c1.305,0.698,2.313-0.505,3.313-1.238c1.218-0.891,1.985-3.012,3.783-2.354c2.907,1.062,4.375-0.736,6.064-2.353
		c3.405-1.947,2.991-4.535,0.696-7.403c6.846-0.24,13.28,0.648,19.326-2.007c3.896,0.208,7.67-0.301,11.262-1.899
		c1.9,2.025,3.529,0.291,4.92-0.607c6.192-4.002,12.779-7.469,18.015-12.817c-0.501,1.883,1.775,3.906-0.363,5.745
		c-0.947,0.815-2.042,1.981-0.585,3.126c1.17,0.918,2.218,3.148,3.753,2.351c4.586-2.385,9.967-1.864,14.487-4.359
		c1.162-0.642,1.808-1.211,1.354-2.508c-1.023-2.923-1.621-5.877-5.205-7.331C375.724,614.995,372.367,614.819,371.966,611.315z
		 M269.033,649.795c4.215,2.901,11.333,1.559,13.901-2.623c3.623-5.9,1.993-12.128-3.93-15.856
		c-4.828-3.04-10.203-2.439-15.479-3.117c-6.107-0.785-11.078,1.058-14.442,5.438c-4.24,5.52-5.946,12.227-3,19.063
		c1.098,2.545,3.945,4.237,6.697,2.924c3.333-1.593,0.488-3.738-0.409-5.43c-3.862-7.277-2.64-12.225,4.148-17.025
		c6.499-4.597,13.064-2.986,19.61-0.375c4.729,1.889,5.483,6.119,4.519,10.271c-0.867,3.729-4.002,5.811-7.94,6.252
		C271.479,649.453,270.174,648.979,269.033,649.795z M349.075,639.723c0.139-1.174-0.406-2.354-1.578-2.441
		c-3.879-0.285-7.877-1.146-11.592,0.515c-1.216,0.544-1.862,2.889-1.208,3.716c1.598,2.021,2.726,4.984,6.372,4.469
		C345.014,645.423,348.702,644.825,349.075,639.723z M268.239,600.836c-0.441-0.726-0.985-1.001-1.583-0.689
		c-0.306,0.161-0.681,0.739-0.597,0.986c0.212,0.633,0.846,0.859,1.455,0.565C267.836,601.541,268.023,601.104,268.239,600.836z"/>
	<path fill-rule="evenodd" clip-rule="evenodd" fill="#C0982A" d="M229.555,524.008c5.49-0.395,10.954-0.967,16.482-0.992
		c11.38-0.053,21.944,2.675,30.643,10.027c7.682,6.492,12.333,18.175,2.601,29.1c-4.313,4.841-9.408,7.976-15.623,9.928
		c-15.478,4.861-26.597,14.908-35.219,28.699c-7.062,11.295-18.626,14.129-31.365,11.772c-4.23-0.782-8.201,0.685-12.52,0.192
		c-11.009-1.255-19.643-5.95-26.156-14.62c-10.706-14.256-8.204-26.736,1.539-38.558c5.314-6.448,13.401-9.572,22.114-9.862
		c1.896-0.063,3.794-0.043,5.691-0.062c1.389-0.009,2.175,1.075,3.234,1.699c4.71,2.776,7.348,8.847,13.857,8.75
		c3.835,2.474,8.036,2.61,12.364,1.936l-0.104,0.146c0.123,0.684,0.245,1.367,0.367,2.051c0.161-0.006,0.321-0.012,0.482-0.017
		c0.111-0.712,0.222-1.423,0.333-2.133c0.633-0.314,1.267-0.628,1.899-0.942c4.189-0.305,7.482-2.643,10.196-5.412
		c2.151-2.195,4.014-5.257,0.159-7.976c-0.538-1.297-1.462-2.003-2.913-1.903c-1.276-0.938-2.552-1.877-3.828-2.814
		c-1.689-0.741-1.807-2.28-1.932-3.813c0.039-1.901,0.078-3.802,0.117-5.703c0.211-3.413,3.244-5.056,4.791-7.631l-0.08,0.069
		c0.35-0.335,0.7-0.671,1.049-1.007C228.34,524.624,228.948,524.315,229.555,524.008z M204.905,584.772
		c-0.024,1.061-0.371,2.234,0.978,2.818c0.269-0.357,0.682-0.677,0.783-1.076c1.251-4.968-3.026-8.886-10.731-10.205
		c-7.336-1.257-10.99,1.464-11.939,8.487c-1.744,1.231-1.762,3.092-2.032,4.98c-0.703,4.921,3.56,7.408,5.197,11.163
		c1.315,3.015,2.35,0.98,3.474-0.1c0.296,0.356-0.365,1.55,0.739,1.068c0.411-0.18,1.158-1.195,0.159-1.929
		c-1.44-3.217-6.279-3.444-6.669-7.585c0.011-0.632,0.022-1.264,0.034-1.895c0.005-1.591,0.011-3.181,0.017-4.771
		c-0.009-0.32-0.018-0.64-0.026-0.961c0.505-3.32,2.528-5.148,5.725-5.823c0.63,0.028,1.26,0.056,1.89,0.084
		c2.215,0.036,4.431,0.073,6.646,0.109c0.332-0.045,0.663-0.089,0.995-0.133c2.35,0.355,3.492,2.194,4.763,3.875
		C204.906,583.512,204.906,584.143,204.905,584.772z M258.951,553.438c-1.376-1.603-2.877-0.899-4.746-0.404
		c1.399,1.941,2.968,3.389,3.023,5.731c0.027,1.13,0.401,1.122,1.733-0.566C258.958,556.612,258.954,555.025,258.951,553.438z
		 M263.856,549.654c0,0.609-1.317,1.48,0.051,1.765c1.441,0.3,2.672-0.561,3.559-1.74c0.938-1.247,0.863-2.45,0.104-3.855
		c-2.349-4.349-6.076-2.688-9.506-2.473c2.073,0.936,4.506,1.145,5.736,3.441C263.819,547.745,263.837,548.699,263.856,549.654z
		 M164.054,565.92c-1.194,0.277-3.882,0.098-3.428,2.637c0.279,1.563-0.815,5.615,3.52,4.324c1.541-0.459,2.179,0.978,3.264,1.329
		c3.026,0.981,5.536,0.291,6.663-3.054c0.691-2.051,0.472-3.875-2.032-4.327C169.593,566.389,167.09,566.251,164.054,565.92z
		 M217.622,576.315c-2.525-0.165-3.149,1.016-3.204,3.622C216.104,578.733,217.296,578.041,217.622,576.315z M201.411,592.061
		c-0.028-0.119-0.018-0.296-0.093-0.347c-0.113-0.077-0.331-0.14-0.424-0.081c-0.362,0.229-0.312,0.465,0.121,0.574
		C201.127,592.235,201.278,592.113,201.411,592.061z"/>
	<path fill-rule="evenodd" clip-rule="evenodd" fill="#C0982A" d="M753.832,663.612c0.957,0.319,1.913,0.639,2.87,0.956
		c1.192,1.625,2.894,2.011,4.773,1.959c1.19,2.374,3.71,3.145,5.612,4.657c0.277,2.487-0.438,4.617-2.061,6.547
		c-0.992,1.18-1.263,2.857-0.008,3.837c1.684,1.315,0.837-1.475,1.912-1.496c0.776-0.016,1.587-0.293,2.32-0.145
		c5.012,1.013,11.416,8.716,12.125,13.917c1.335,9.789-3.192,16.535-10.649,22.058c-6.813,5.046-14.848,5.987-22.802,7.653
		c-6.997,1.467-13.763-0.179-20.631-0.088c-3.087-1.115-6.238-1.911-9.549-1.917c0.095-1.089-0.364-1.532-1.446-1.989
		c-9.313-3.934-17.714-9.212-25.052-16.302c-3.096-2.99-7.118-5.029-10.752-7.452c-3.369-2.245-6.409-4.284-7.711-8.832
		c-2.119-7.408,0.004-15.68,6.459-19.421c2.896-1.678,5.951-2.474,7.636,2.346c1.432-8.188,8.34-8.793,14.042-11.033
		c6.739-2.646,14.202-1.267,20.96-3.794c0.19-0.005,0.38-0.011,0.569-0.018c4.528,1.337,9.012,2.858,13.598,3.956
		c4.333,1.039,8.488,3.022,13.102,2.733l-0.086-0.053c0.624,1.372,1.887,0.872,2.934,1.002l-0.08-0.052
		C752.201,663.665,753.039,663.596,753.832,663.612z M758.646,694.938c-0.028-0.633-0.057-1.267-0.086-1.9
		c0.003-0.317,0.005-0.633,0.008-0.949c0.226-0.138,0.951,0.07,0.411-0.596c-0.117,0.219-0.234,0.438-0.352,0.656
		c-1.851,0.646-4.62,0.037-5.145,2.58c-0.438,2.116,2.342,1.866,3.336,3.064c-0.021,0.316-0.04,0.632-0.06,0.948
		c-0.007,0.646-0.013,1.291-0.018,1.937c0.018,0.632,0.035,1.263,0.053,1.894c-0.021,1.991,0.59,2.335,1.874,0.688
		c1.918-2.461,0.606-4.902-0.095-7.341C758.599,695.592,758.623,695.265,758.646,694.938z M706.304,676.748
		c1.053,0.054,2.144,0.479,3.543-0.665c-1.457,0-2.492,0-3.527,0c-0.446,0.071-1.093-0.348-1.225,0.498
		C705.498,676.637,705.901,676.692,706.304,676.748z M716.968,683.502c0.301,0.986,0.602,1.973,0.902,2.958
		c-0.023,0.937-0.048,1.871-0.071,2.807c-0.313,0.646-0.626,1.293-0.939,1.938c-0.437,0.08-0.873,0.16-1.311,0.24
		c0.122,0.171,0.243,0.342,0.365,0.514c0.294-0.275,0.588-0.552,0.882-0.827c4.549-1.254,5.994-4.65,5.766-8.884
		c-0.29-5.354-5.103-3.735-8.531-5.539c1.124,2.432,3.311,3.553,2.907,5.879C716.842,682.896,716.853,683.201,716.968,683.502z
		 M698.357,683.078c-0.823-1.513-2.252-1.896-3.492-2.396c-1.631-0.656-2.995-2.5-5.049-1.507c-0.679,0.327-0.348,1.132,0.072,1.575
		c1.653,1.747,3.026,4.09,6.046,3.294C696.753,683.83,697.519,683.419,698.357,683.078z M708.548,692.588
		c-2.683,0.341-4.051-2.729-6.976-2.802C703.106,693.474,705.662,693.461,708.548,692.588z M742.209,702.175
		c2.891,1.703,4.723,2.012,6.61-0.182C746.709,701.378,744.882,701.422,742.209,702.175z"/>
	<path fill-rule="evenodd" clip-rule="evenodd" fill="#C0982A" d="M672.078,315.074c9.499,3.854,18.263,9.131,27.078,14.263
		c16.051,9.344,30.907,20.491,45.271,32.161c14.64,11.894,27.778,25.339,39.813,40.061c17.534,21.452,31.986,44.678,43.278,69.795
		c7.627,16.963,13.035,34.843,16.504,53.186c0.681,3.6,2.713,6.646,3.22,10.265c0.215,1.534,2.016,1.927,3.335,2.34
		c10.65,3.327,13.745,6.47,13.418,13.769c-0.326,7.264-6.714,14.552-15.178,15.526c-4.752,0.548-5.872,2.317-5.787,6.411
		c0.031,1.512-0.64,3.04-1.086,4.979c-2.979-2.81-7.579-3.999-6.396-9.367c0.141-0.64-0.14-1.119-0.968-1.235
		c-7.775-1.092-13.692-6.698-21.088-8.726c-3.468-0.952-6.893-1.899-10.525-2.326c-8.101-0.951-14.357-7.526-14.672-15.81
		c-0.229-6.067,8.599-13.45,15.483-13.441c3.432,0.005,6.875-0.476,10.318,0.56c2.294,0.69,5.265-2.911,5.356-6.051
		c0.203-6.99-2.052-13.624-3.194-20.395c-3.488-20.689-10.578-40.357-19.9-59.03c-9.182-18.394-20.534-35.499-33.646-51.489
		c-11.467-13.983-24.307-26.55-37.882-38.286c-14.961-12.932-31.183-24.302-48.846-33.427c-1.8-0.929-3.803-1.64-4.61-3.788
		C671.608,315.037,671.843,315.055,672.078,315.074z M843.283,548.752c-0.104,0.274-0.183,0.556-0.235,0.845
		c-1.34,0.503-2.679,1.004-4.334,1.625c1.308,0.267,2.335,0.252,3.122,0.679c2.544,1.377,4.154-0.05,4.878-2.022
		c0.946-2.576-0.442-4.765-2.925-5.571c-2.021-0.656-0.596,0.88-0.568,1.492C843.241,546.783,843.263,547.768,843.283,548.752z
		 M814.678,541.118c-0.032-0.329-0.064-0.659-0.098-0.988c0.111-1.475-0.643-2.122-1.995-1.725
		c-0.891,0.261-1.766,0.926-1.491,2.077c0.406,1.702,1.606,0.968,2.618,0.722c0.027,0.72-0.23,1.509,0.737,2.239
		C814.536,542.563,814.606,541.841,814.678,541.118z M779.921,404.533c-0.497,1.322,0.381,1.907,0.896,2.621
		c10.994,15.211,20.446,31.301,27.726,48.631c6.751,16.067,12.56,32.421,15.664,49.649c0.808,4.473,1.703,8.895,1.884,13.463
		c0.13,3.274,3.901,5.862,7.656,4.95c3.289-0.8,1.427-3.367,1.065-5.327c-0.51-2.775-0.82-5.594-1.456-8.338
		c-8.788-37.951-26.428-71.656-49.471-102.741C782.973,406.209,782.027,404.534,779.921,404.533z"/>
	<path fill-rule="evenodd" clip-rule="evenodd" fill="#C0982A" d="M292.315,628.5c-2.551-1.591-5.104-3.181-7.656-4.771
		c-0.635-6.42,5.095-2.397,7.394-4.524c-2.666-3.013-7.225-3.37-9.381-7.088c-4.31-7.435-3.659-18.214,2.231-25.016
		c8.099-9.354,18.426-14.282,30.877-14.574c10.542-0.247,21.134-0.354,30.742,4.799c8.276,4.438,15.392,10.199,19.025,19.38
		c1.797,4.541,2.506,8.998,0.772,13.668c-3.18,0.64-5.508,2.614-8.012,4.563c-6.437,5.008-9.196,13.514-16.789,17.341
		c-3.592,1.599-7.367,2.107-11.262,1.899c-2.832-3.757-6.336-1.065-9.522-0.909C310.898,633.747,301.495,631.839,292.315,628.5z
		 M317.935,607.599c0.28,0.82,0.566,0.844,0.862,0.01c0-0.651,0-1.302-0.001-1.952c-0.326-0.886-0.623-0.807-0.896,0.027
		C317.912,606.322,317.924,606.961,317.935,607.599z M301.628,600.886c0.082-0.314,0.067-0.623-0.042-0.927
		c1.223-3.752,4.026-5.383,7.755-5.768c0.629,0.014,1.259,0.026,1.889,0.041c1.258-0.416,3.033,1.406,3.854-0.894
		c-6.834-2.49-14.97,1.344-16.89,8.088c-0.712,2.504-0.674,5.059,1.799,6.767c2.1,1.449,4.252,3.074,7.282,0.999
		c-2.19-1.42-5.354-1.222-5.62-4.443c0.016-0.315,0.032-0.63,0.047-0.944C301.677,602.831,301.653,601.858,301.628,600.886z
		 M339.816,601.72c0.077-2.349,0.048-4.797-3.234-4.496c-2.008,0.184-4.545,0.86-4.309,3.421c0.259,2.8,1.491,6.275,4.472,6.522
		C339.438,607.39,339.727,604.126,339.816,601.72z M320.065,594.729l0.233,0.157l0.032-0.252L320.065,594.729z"/>
	<path fill-rule="evenodd" clip-rule="evenodd" fill="#C0982A" d="M229.555,524.008c-0.607,0.308-1.214,0.616-1.821,0.924
		c-0.35,0.336-0.7,0.672-1.049,1.007l0.08-0.069c-5.888,2.521-9.608,9.935-7.46,15.347c0.706,1.781,1.908,3.929,4.485,1.801
		c1.276,0.938,2.552,1.876,3.828,2.814c0.625,0.655,1.25,1.313,1.877,1.967c0.031,0.296,0.062,0.593,0.095,0.889
		c0.021,0.964,0.042,1.928,0.063,2.892c0.021,0.313,0.042,0.627,0.063,0.939c-0.146,1.611-1.275,2.241-2.559,3
		c-4.258,2.517-8.811,3.72-13.725,3.679c-1.12-0.212-2.193-0.25-2.971,0.803c-1.875,0.027-3.75,0.056-5.625,0.083
		c-6.509,0.097-9.147-5.974-13.857-8.75c-1.059-0.624-1.846-1.708-3.234-1.699c-5.544-3.098-7.056-12.75-1.451-17.422
		c7.157-5.966,8.615-13.441,10.278-21.817c5.327-26.813,16.309-51.459,29.922-75.109c7.778-13.512,16.602-26.332,26.584-38.075
		c8.912-10.484,17.929-21.008,28.326-30.343c15.346-13.776,31.697-26.067,48.973-37.15c18.892-12.121,38.818-22.264,59.958-30.033
		c8.75-3.217,17.404-6.62,26.453-8.922c1.062-0.27,2.017-0.591,3.448,0.416c-6.396,2.326-12.474,4.553-18.562,6.75
		c-29.36,10.59-56.421,25.452-81.12,44.465c-19.269,14.833-35.856,32.375-50.854,51.539c-15.781,20.165-28.045,42.193-37.623,65.879
		c-7.333,18.133-11.352,37.001-13.725,56.296c-0.452,3.68,2.625,3.835,5.063,4.099C226.159,520.499,228.864,520.533,229.555,524.008
		z M258.033,400.493c1.418-0.61,2.497-1.48,2.837-3.767c-1.799,1.197-2.938,2.039-2.769,3.833c-0.318,0.046-0.636,0.092-0.953,0.138
		c-1.54,0.307-2.369,1.553-3.208,2.644c-11.984,15.568-21.977,32.363-30.857,49.863c-5.059,9.969-8.607,20.525-12.387,30.979
		c-3.838,10.615-6.258,21.634-8.14,32.772c-0.258,1.524-0.26,2.584,1.172,3.021c3.592,1.097,7.401-1.674,7.784-5.526
		c2.429-24.425,10.595-47.211,20.66-69.297c7.021-15.408,15.929-29.859,25.74-43.704
		C257.953,401.131,257.993,400.812,258.033,400.493z M263.981,392.437l0.314,0.188l0.029-0.317L263.981,392.437z"/>
	<path fill-rule="evenodd" clip-rule="evenodd" fill="#C0982A" d="M717.746,721.551c3.311,0.006,6.462,0.802,9.549,1.917
		c0.915,1.932-0.073,3.354-1.4,4.516c-11.756,10.273-24.765,18.469-39.568,23.654c-0.861-1.107-1.557-2.426-3.396-1.811
		c-6.034,2.017-12.066,0.025-18.101-0.074c-2.938-0.047-5.957,1.072-8.772-0.639c-4.044-2.882-9.222-2.436-13.533-4.711
		c-5.301-2.8-9.714-6.388-12.233-11.881c-2.711-5.912,0.189-11.976,6.439-13.75c5.969-1.695,11.82-4.124,18.295-2.001
		c1.792,0.587,3.94,0.089,7.003,0.089c-10.298-8.564-20.766-14.545-32.08-19.099c-21.013-8.46-43.118-12.776-65.227-17.027
		c-2.549-0.49-4.617-1.854-7.345-2.524c1.98-2.427,3.838-0.246,5.578-0.277c10.698-0.196,21.36,0.872,31.934,2.07
		c10.817,1.226,21.715,2.099,32.394,4.767c8.951,2.236,17.875,4.443,26.722,7.114c11.428,3.449,21.66,8.953,31.262,15.841
		c8.756,6.282,18.525,10.444,28.709,13.712C715.125,721.806,716.484,721.528,717.746,721.551z M673.188,729.126
		c-0.021,0.961-0.04,1.921-0.06,2.882c0.014,0.319,0.027,0.639,0.041,0.959c-2.145,3.229-5.713,4.459-9.055,6.307
		c6.205,0.012,12.502-4.293,12.875-8.656c0.411-4.819-1.659-7.84-6.114-8.798c0.779,1.843,1.536,3.636,2.294,5.428
		C673.177,727.874,673.183,728.5,673.188,729.126z"/>
	<path fill-rule="evenodd" clip-rule="evenodd" fill="#C0982A" d="M221.027,651.287c1.357,5.246,4.516,9.38,8.292,13.064
		c0.888,0.867,2.059,1.39,2.144,2.821c-7.938,3.525-19.441,0.327-24.438-6.984c-3.685-5.392-7.123-10.883-3.163-17.777
		c0.991-1.728,1.681-3.442,3.95-3.433c2.148,0.01,2.165,1.929,2.718,3.319c0.753,1.894,1.396,3.835,2.222,5.696
		C214.418,651.744,217.021,653.327,221.027,651.287z"/>
	<path fill-rule="evenodd" clip-rule="evenodd" fill="#C0982A" d="M519.972,207.637c-4.212-1.204-8.551-0.459-12.816-0.832
		c-2.379-4.297-0.778-8.949-1.155-13.422c-0.225-2.659-0.205-5.36-0.041-8.026c0.235-3.81,3.839-6.252,8.455-6.164
		c4.23,0.081,6.074,2.811,6.131,6.318C520.664,192.882,520.198,200.261,519.972,207.637z"/>
	<path fill-rule="evenodd" clip-rule="evenodd" fill="#C0982A" d="M214.388,623.688c0.008,0.92,0.016,1.841,0.024,2.762
		c-3.948,0.465-5.367-2.497-6.823-5.211c-0.93-1.734-1.486-3.67-2.751-6.895C209.483,617.241,212.688,619.634,214.388,623.688z"/>
</g>
</svg>
