<svg version="1.1" id="Layer_1" xmlns="http://www.w3.org/2000/svg" xmlns:xlink="http://www.w3.org/1999/xlink" x="0px" y="0px"
	 width="1024.191px" height="1024.191px" viewBox="0 0 1024.191 1024.191" enable-background="new 0 0 1024.191 1024.191"
	 xml:space="preserve">
<path fill="currentColor" d="M899.785,875.526c-0.086,8.007-0.173,16.015-0.258,24.021c-25.991,0.042-51.983,0.123-77.976,0.121
	c-206.109-0.012-412.221-0.03-618.33-0.071c-26.156-0.005-52.312-0.15-78.467-0.231c-0.058-97.308-0.12-194.613-0.171-291.92
	c-0.019-36.324-0.012-72.647-0.011-108.973c0-9.685,0.157-19.371-0.005-29.053c-0.153-9.122-0.933-18.24-0.896-27.357
	c0.058-13.781,0.853-27.562,0.871-41.343c0.12-91.996,0.117-183.993,0.153-275.988c7.321-0.036,14.642-0.09,21.963-0.107
	c26.289-0.063,52.577-0.115,78.866-0.172c23.381-0.002,46.762-0.004,70.143-0.007c9.616-0.002,19.233-0.004,28.852-0.006
	c1.72-0.003,3.438-0.005,5.155-0.007c15.614,0.006,31.229,0.012,46.845,0.018c4.386-0.003,8.771-0.005,13.154-0.007
	c26.28,0.002,52.563,0.004,78.844,0.006c0.719,0.002,1.437,0.004,2.152,0.007c9.283-0.005,18.567-0.009,27.852-0.013
	c1.716-0.001,3.431-0.003,5.146-0.005c8.318,0.066,16.637,0.198,24.956,0.187c25.301-0.035,50.603-0.127,75.904-0.197
	c3.38,0.005,6.761,0.009,10.14,0.013c1.658,0.068,3.317,0.196,4.977,0.196c93.298,0.001,186.597-0.008,279.896-0.017
	c0,0,0.034,0.034,0.033,0.034c0.063,67.476,0.13,134.952,0.193,202.429c0.061,62.811,0.118,125.622,0.178,188.433
	c0.002,1.386,0.003,2.771,0.004,4.154c-0.045,3.664-0.128,7.329-0.13,10.994c-0.068,93.302-0.142,186.604-0.182,279.905
	C899.625,832.222,899.732,853.874,899.785,875.526z M746.683,733.558c-0.272-0.241-0.547-0.483-0.818-0.727
	c-0.064,0.264-0.129,0.526-0.192,0.79c-0.193,0.244-0.289,0.521-0.287,0.833c-1.61-0.289-3.223-0.578-4.835-0.867
	c0.051-0.304-0.052-0.543-0.307-0.717c0.092-1.188,0.183-2.377,0.278-3.563l0.444-0.032l-0.036-0.35
	c1.335-2.576,0.823-3.835-2.305-3.226c-0.345-0.067-0.688-0.135-1.032-0.203c-0.523-0.584-1.049-1.169-1.572-1.754
	c-0.199,0.136-0.398,0.271-0.6,0.404c0.265,0.832,0.529,1.663,0.796,2.494l-0.354,0.028c-0.316-0.04-0.598,0.042-0.842,0.246
	c-1.897-1.891-3.797-3.781-5.694-5.672c0.299-0.154,0.435-0.399,0.405-0.733l0.351-0.175l-0.045-0.348
	c0.194-0.93,0.389-1.858,0.583-2.787c-0.138-0.186-0.304-0.337-0.498-0.456c-1.165-0.664-2.33-1.327-3.495-1.991
	c-2.237-1.707-4.344-3.639-6.753-5.051c-1.868-1.095-4.007-2.699-6.133,0.149c-2.911,3.901-8.655,3.559-11.105-0.479
	c-0.842-2.506-1.683-5.01-2.356-7.021c-2.401-0.643-4.485-1.198-6.569-1.757c-0.785-0.387-1.57-0.772-2.352-1.156l-0.148-0.389
	l-0.399-0.027c-0.398-0.118-0.797-0.236-1.193-0.354c-0.002-0.232-0.108-0.398-0.318-0.498l-0.012-0.257l-0.249,0.06
	c-1.099-0.053-2.197-0.104-3.296-0.159c-0.087,0.478-0.173,0.953-0.259,1.431c1.678,0.479,3.354,0.959,5.033,1.438
	c0.685,0.375,1.367,0.751,2.052,1.126c1.427,1.521,2.854,3.041,4.249,4.528c-0.225,0.177-0.813,0.646-1.401,1.111
	c-2.395,0.445-4.79,0.893-7.185,1.339c-0.763,0.01-1.523,0.021-2.285,0.03c-0.434,0.269-0.865,0.537-1.298,0.806
	c-0.994-0.816-1.989-1.634-2.983-2.451l-0.061,0.084c0.512-0.677,1.022-1.354,1.535-2.03l0.021-0.252l-0.209,0.131
	c-0.758-0.21-1.515-0.42-2.271-0.63c-1.943-2.351-3.887-4.702-5.81-7.028c-3.553,2.146-8.753,1.36-12.916-1.852
	c0.545-0.189,1.091-0.382,1.637-0.57c-0.573-0.37-1.147-0.74-1.723-1.11c-0.4-0.027-0.802-0.054-1.203-0.081
	c-0.716-0.883-1.406-1.788-2.153-2.644c-1.11-1.271-2.035-2.984-3.445-3.657c-2.729-1.301-5.742-2.007-8.637-2.96
	c-0.055-0.234-0.106-0.47-0.16-0.703c-0.233,0.224-0.467,0.447-0.7,0.671c-2.159-1.838-5.062-3.276-6.313-5.602
	c-2.084-3.873-8.233-7.02-12.005-5.126l-0.299-0.018c-0.197-0.224-0.434-0.392-0.7-0.498l-0.063-0.36l-0.365,0.054
	c0.179-1.027,0.357-2.056,0.499-2.867c-1.993-0.873-3.76-1.647-5.527-2.421c0.166-0.213,0.368-0.409,0.481-0.646
	c0.041-0.088-0.099-0.374-0.202-0.401c-1.665-0.46-3.396-0.744-4.999-1.359c-4.813-1.847-9.577-3.82-14.36-5.744
	c-0.364-0.263-0.729-0.523-1.095-0.787c-0.778-0.139-1.557-0.276-2.332-0.415l-0.19-0.393l-0.192,0.392
	c-0.791-0.658-1.581-1.316-2.372-1.977c-0.027-0.622-0.054-1.244-0.081-1.867c-0.499,0.108-0.997,0.217-1.496,0.324
	c-0.754-0.11-1.509-0.222-2.264-0.332c-0.369-0.869-0.494-2.083-1.149-2.545c-2.592-1.83-5.218-3.707-8.075-5.043
	c-5.005-2.337-10.083-5.615-15.326-6.032c-5.438-0.433-9.495-2.302-13.843-5.016c-3.371-2.104-7.42-3.12-11.166-4.62l-0.037-0.274
	l-0.042,0.272c-0.96-0.103-1.919-0.204-2.879-0.307l-0.214-0.265l-0.313,0.134c-0.113-0.543-0.229-1.085-0.342-1.628l-0.001-0.302
	l-0.307,0.033c-11.97-3.912-23.938-7.824-35.908-11.737l0.085-0.181l-0.182,0.061c-0.959-0.29-1.918-0.58-2.877-0.871l-0.025-0.311
	l-0.039,0.31c-6.616-1.546-13.188-3.316-19.857-4.584c-10.127-1.925-19.958-5.261-30.494-5.336
	c-5.563-0.039-11.074-2.231-16.675-2.749c-16.699-1.539-33.425-2.8-50.151-4.024c-7.401-0.543-14.838-1.146-22.242-0.989
	c-8.605,0.182-17.197,1.133-25.789,1.817c-4.078,0.325-8.138,0.912-12.218,1.202c-6.9,0.49-13.833,0.641-20.713,1.321
	c-4.341,0.431-8.611,1.567-12.906,2.386c-0.262-0.191-0.523-0.386-0.785-0.578c-0.266,0.133-0.461,0.331-0.589,0.599
	c-3.676,0.781-7.326,1.724-11.033,2.306c-4.756,0.747-10.869-0.398-14.019,2.177c-4.335,3.547-8.744,3.547-13.38,4.577
	c-4.312,0.96-8.477,2.582-12.707,3.912c-0.07-0.176-0.134-0.354-0.192-0.535c-1.476-0.021-2.951-0.046-4.427-0.067
	c0.053,0.457,0.105,0.915,0.158,1.372c-0.198,0.161-0.334,0.364-0.41,0.608c-3.69,0.349-7.464,0.33-11.047,1.147
	c-3.361,0.768-6.458,2.62-9.782,3.635c-6.188,1.889-12.603,3.114-18.661,5.335c-13.281,4.867-23.711,15.136-37.164,19.875
	c-6.235,2.196-12.303,5.09-18.051,8.362c-2.952,1.681-5.668,4.195-5.399,8.714c0.577,9.686,0.713,19.403,0.81,29.109
	c0.126,12.733,0.042,25.471,0.045,38.205c0.003,10.737,0.086,21.478-0.016,32.214c-0.19,20.098-0.532,40.193-0.708,60.292
	c-0.038,4.284,0.358,8.574,0.555,12.841c-0.013,8.371-0.026,16.743-0.039,25.114c0.009,9.51,0.018,19.02,0.026,28.529
	c2.292,0.197,4.584,0.567,6.876,0.568c100.995,0.063,201.989,0.118,302.984,0.123c84.162,0.004,168.323-0.07,252.485-0.08
	c63.829-0.008,127.659,0.044,191.488,0.013c2.544-0.001,5.088-0.588,7.632-0.9c0.152-0.57,0.305-1.142,0.456-1.712
	c-0.077-13.581-0.154-27.164-0.231-40.746c-0.063-6.946-0.2-13.895-0.168-20.84c0.056-12.24,0.216-24.481,0.332-36.724
	c-0.012-8.391-0.023-16.78-0.035-25.171c-0.148-5.805-0.637-11.627-0.328-17.407c0.211-3.959-1.336-6.803-3.647-9.572
	c0.067-0.113,0.216-0.263,0.187-0.334c-0.097-0.224-0.261-0.418-0.396-0.624c-2.677-0.225-5.631-1.453-7.292,2.009l0.032-0.033
	c-2.048,1.343-4.096,2.686-6.145,4.028c-0.618,0.016-1.236,0.03-1.854,0.046l0.018,0.007c-0.367-0.204-0.735-0.408-1.104-0.611
	c-0.533-0.039-1.065-0.078-1.604-0.118c-0.524-0.028-1.05-0.06-1.573-0.09c-0.389-0.064-0.775-0.131-1.162-0.196
	c-0.229-0.21-0.379-0.464-0.455-0.761c0.646-1.201,1.292-2.4,1.95-3.625c-4.701-1.928-4.701-1.928-9.665,3.798
	c-0.116,0.866-0.233,1.732-0.351,2.599c-0.158,0.395-0.317,0.789-0.477,1.184l-0.198,0.185l0.122,0.24
	c-0.179,0.141-0.324,0.309-0.437,0.506c-2.957,0.411-5.914,0.824-10.009,1.396c-0.06,0.197-0.546,1.791-1.03,3.385
	c-4.067,1.47-0.289,4.138-0.937,6.127c-0.22,0.151-0.438,0.304-0.658,0.453c0.317,0.228,0.635,0.452,0.951,0.678
	c0.082,0.571,0.164,1.143,0.246,1.714c-0.217,0.264-0.202,0.513,0.044,0.749c-0.509,0.091-1.017,0.183-1.524,0.272
	c-0.357-0.246-0.716-0.492-1.072-0.738c-1.593,0.565-3.187,1.132-5.265,1.869c-1.234-0.944-3.227-2.444-5.191-3.978
	c-2.016-1.57-4.004-3.173-6.005-4.763c-0.296-0.295-0.592-0.591-0.889-0.886c-0.515-0.842-1.029-1.683-1.545-2.523
	c-2.036-2.948-4.705-7.536-8.079-5.378c-4.972,3.181-6.277-1.312-9.169-2.438c0.401-0.915,0.805-1.83,0.773-1.762
	c-2.258-0.947-3.874-1.777-5.588-2.272c-0.711-0.206-1.629,0.303-2.452,0.485l-0.224-0.109l0.087,0.231
	c-1.854,0.174-3.705,0.347-5.557,0.52c-3.496,0.485-3.99,2.86-1.314,6.302l-0.271,0.062l0.246,0.129
	c-0.25,0.165-0.453,0.376-0.607,0.633c-3.62-0.149-7.272,0.47-10.86-0.45c-1.543-3.094-3.543-1.766-5.529-0.571
	c-0.688,0-1.377,0-2.063,0c0,0.157,0,0.315,0,0.474c0.688,0,1.377,0,2.065,0c-1.587,2.347-3.173,4.691-4.759,7.037
	c-1.008-0.914-2.016-1.829-3.023-2.744c-1.022-1.207-2.047-2.414-2.98-3.517c0.61-0.561,1.404-1.289,2.182-2.002
	c-2.996-2.733-5.448-3.207-8.286,0.17c-0.68,0.809-3.779,0.043-5.518-0.638c-1.517-0.595-2.68-2.088-4-3.184
	c0.044-0.779,0.089-1.558,0.133-2.337l0.273,0.146l0.025-0.274c0.771-0.987,1.541-1.975,3.332-4.271
	c-2.751,0-4.288,0.107-5.798-0.048c-0.734-0.074-1.42-0.644-2.128-0.988c0.254-0.363,0.508-0.727,0.762-1.089
	c-0.264-0.356-0.526-0.714-0.791-1.069L746.683,733.558z M633.642,528.489l0.058,0.053c-0.364-0.276-0.729-0.553-1.094-0.829
	c-0.673,0-1.344-0.001-2.016-0.002c-0.367,0.275-0.733,0.552-1.103,0.827l0.05-0.05c-0.281,0.367-0.563,0.734-0.846,1.104
	c-0.17,0.251-0.226,0.525-0.168,0.823c-0.002,0.425-0.004,0.85-0.005,1.274l-0.034-0.032c0.678,0.693,1.354,1.39,2.033,2.084
	l-0.033-0.052c0.754-0.013,1.508-0.023,2.262-0.036c0.311-0.331,0.622-0.662,0.934-0.993l-0.02,0.02
	c0.335-0.303,0.67-0.604,1.005-0.906c0.008-0.764,0.016-1.525,0.022-2.287l0.038,0.035
	C634.365,529.177,634.003,528.833,633.642,528.489z M411.474,406.672c0.371,0.267,0.741,0.533,1.112,0.801
	c0.419-0.991,0.838-1.981,1.257-2.972c-0.489,0.004-0.978,0.007-1.467,0.011c-0.285,0.298-0.57,0.596-0.855,0.895
	c-0.004,0.433-0.009,0.866-0.013,1.299L411.474,406.672z M406.432,324.686c0.37,0.34,0.739,0.68,1.108,1.02l-0.034-0.037
	c1.059,0.001,2.116,0.002,3.175,0.004l-0.021,0.027c0.346-0.348,0.691-0.695,1.038-1.043l-0.029,0.023
	c0.003-1.06,0.005-2.119,0.007-3.179l0.037,0.026c-0.353-0.347-0.706-0.693-1.06-1.04l0.032,0.032
	c-1.101-0.001-2.199-0.002-3.301-0.003c-0.282,0.305-0.564,0.61-0.848,0.916c-0.274,0.385-0.548,0.769-0.822,1.153
	c-0.008,0.337-0.016,0.675-0.021,1.013c0.268,0.386,0.535,0.772,0.805,1.158L406.432,324.686z M820.667,741.629
	c0.361-0.975,0.723-1.949,1.085-2.924c0.57-0.113,1.143-0.228,2.938-0.582c-1.847-0.347-2.449-0.459-3.052-0.571
	c-0.674-0.303-1.348-0.604-2.021-0.906c-2.052-0.066-5.148-1.151-2.902,2.975c0.379,0.684,0.758,1.367,1.136,2.05l0.039,0.308
	l0.22-0.051c0.84-0.087,1.68-0.175,2.52-0.263L820.667,741.629z M637.005,318.919c-0.387-0.617-0.773-1.233-1.161-1.851
	c-0.207,0.627-0.414,1.254-0.621,1.881c0.309,0.375,0.614,0.751,0.922,1.126C636.432,319.69,636.719,319.304,637.005,318.919z
	 M374.666,246.699c0.281-0.368,0.562-0.735,0.843-1.104c0.17-0.247,0.226-0.519,0.164-0.813c0-0.459,0-0.917-0.001-1.375
	c0.063-0.296,0.007-0.566-0.17-0.812c-0.303-0.308-0.605-0.616-0.908-0.924c-1.328,0.026-2.657,0.054-3.985,0.08
	c-0.033,1.648-0.066,3.297-0.101,4.945l-0.016-0.013c1.397-0.002,2.796-0.003,4.192-0.005L374.666,246.699z M659.438,281.584
	c-0.61-0.643-1.221-1.286-1.83-1.93c-0.178,0.891-0.354,1.78-0.528,2.671C657.864,282.078,658.65,281.831,659.438,281.584z
	 M367.675,449.504l0.023,0.008c-1.201-3.071-2.764-4.346-5.241-1.052v0.008c0.007,1.496,0.015,2.993,0.021,4.49
	c1.332-0.126,2.664-0.251,3.996-0.376c0.401-0.592,0.804-1.184,1.204-1.775C367.678,450.372,367.676,449.938,367.675,449.504z
	 M778.795,744.638c1.952-1.519,4.088-2.857,5.801-4.61c1.496-1.532,2.518-3.53,3.747-5.322c-1.92-0.918-3.839-1.835-5.759-2.753
	c-0.24,0.395-0.479,0.789-0.72,1.184c0.506,0.932,1.012,1.862,1.968,3.621c-2.36,0.866-4.6,1.567-6.73,2.51
	c-1.564,0.692-2.988,1.701-4.477,2.569c1.309,0.646,2.624,1.275,3.92,1.945c0.414,0.215,0.775,0.534,1.16,0.807
	c0.072,0.276,0.146,0.552,0.218,0.827C778.214,745.155,778.505,744.896,778.795,744.638z M371.573,179.181
	c10.442,0.084,20.887,0.249,31.33,0.235c21.061-0.028,42.121-0.153,63.182-0.239c0.677,0.013,1.354,0.026,2.03,0.039
	c20.652-0.005,41.308-0.011,61.962-0.016c13.021-0.008,26.041-0.017,39.062-0.024c1.484,0.103,2.97,0.295,4.454,0.295
	c94.384-0.039,188.77-0.081,283.153-0.161c11.788-0.01,23.576-0.223,35.365-0.342c0.265-0.313,0.529-0.627,0.796-0.941
	c0.059-15.327,0.116-30.654,0.175-45.981c-0.048-0.289-0.216-0.463-0.501-0.524c-1.718-0.271-3.435-0.776-5.152-0.776
	c-120.256-0.03-240.512-0.013-360.767-0.014c-129.251-0.001-258.502-0.021-387.752,0.014c-2.382,0-4.763,0.569-7.145,0.872
	c-0.289,0.156-0.493,0.387-0.613,0.692c0.017,9.185,0.035,18.369,0.052,27.553c-0.113,5.63-0.339,11.263-0.229,16.889
	c0.019,0.953,1.485,2.692,2.283,2.692c7.948,0.002,15.895-0.285,23.843-0.491c15.421,0.166,30.842,0.438,46.263,0.469
	c18.751,0.036,37.502-0.132,56.253-0.211c10.143-0.022,20.285-0.044,30.428-0.066c1.035,0.022,2.069,0.044,3.088,0.073
	C319.279,179.204,345.426,179.192,371.573,179.181z M754.737,618.481c-2.471-5.3-5.411-5.521-11.02-0.827
	c-2.42,3.508-1.814,6.555,1.768,8.683c3.411,2.026,9.157,0.653,10.299-2.612C756.291,622.276,755.137,620.247,754.737,618.481z
	 M793.175,365.493c-3.78-0.25-6.124,1.564-6.589,5.116c-0.445,3.403,2.839,6.772,6.359,5.869c2.231-0.574,5.014-3.187,5.514-5.354
	C799.202,367.9,797.345,365.051,793.175,365.493z M311.608,260.457c-3.93,0.021-4.886,1.295-5.222,5.451
	c-0.313,3.883,1.721,5.736,4.986,5.681c3.525-0.06,5.365-2.458,5.383-6.169C316.774,261.847,315.038,260.333,311.608,260.457z
	 M676.474,404.991c-0.58,4.158,2.002,4.618,5.107,4.791c3.799,0.212,5.434-2.37,4.896-5.132c-0.379-1.958-2.961-4.578-4.891-4.897
	C678.475,399.239,675.883,401.114,676.474,404.991z M572.053,290.79c-1.253-0.884-2.85-2.806-4.747-3.175
	c-3.396-0.659-6.038,1.438-5.619,4.866c0.232,1.894,2.609,4.785,4.269,4.967C568.882,297.769,571.414,295.744,572.053,290.79z
	 M249.438,454.732c3.944,0.391,6.15-2.447,5.819-5.104c-0.228-1.82-3.718-4.151-5.988-4.45c-1.347-0.178-4.186,2.979-4.498,4.936
	C244.373,452.604,246.061,455.166,249.438,454.732z M559.009,424.326c2.094-2.81,4.033-4.42,4.388-6.326
	c0.165-0.885-2.719-3.194-4.284-3.258c-1.146-0.047-3.187,2.42-3.371,3.943C555.572,420.064,557.376,421.684,559.009,424.326z
	 M735.271,280.13c-0.594-0.615-1.188-1.229-1.779-1.845c-0.669,0.857-1.338,1.715-2.007,2.572c0.349,0.284,0.696,0.567,1.047,0.852
	C733.444,281.183,734.357,280.656,735.271,280.13z M228.352,344.228c-0.318,0.737-0.661,1.212-0.67,1.692
	c-0.004,0.222,0.844,0.722,0.962,0.635c0.396-0.296,0.749-0.767,0.879-1.237C229.572,345.141,228.968,344.782,228.352,344.228z
	 M617.784,605.787c-0.412-0.487-0.646-1.021-0.972-1.081c-0.358-0.069-0.802,0.292-1.206,0.466c0.316,0.443,0.576,0.958,0.986,1.284
	C616.71,606.548,617.264,606.09,617.784,605.787z M438.284,259.372c-0.393,1.102-0.657,1.524-0.653,1.945
	c0.002,0.327,0.34,0.652,0.528,0.978c0.343-0.295,0.772-0.539,0.989-0.909C439.246,261.219,438.919,260.802,438.284,259.372z
	 M728.227,349.393c0.103-0.104,0.282-0.208,0.283-0.313s-0.179-0.21-0.278-0.315c-0.104,0.154-0.207,0.309-0.312,0.463
	C728.021,349.281,728.121,349.334,728.227,349.393z M857.45,739.063c-0.106-0.12-0.214-0.24-0.321-0.36
	c-0.116,0.111-0.231,0.223-0.349,0.334c0.163,0.123,0.326,0.245,0.489,0.367C857.33,739.291,857.391,739.177,857.45,739.063z
	 M682.389,701.938c-0.103-0.063-0.236-0.197-0.302-0.171c-0.133,0.059-0.228,0.201-0.339,0.311c0.208,0.067,0.416,0.134,0.624,0.2
	C682.378,702.164,682.383,702.051,682.389,701.938z M855.396,739.94c-0.114-0.059-0.23-0.115-0.347-0.174
	c-0.006,0.219-0.013,0.436-0.02,0.652c0.119-0.051,0.268-0.075,0.346-0.162C855.431,740.197,855.388,740.05,855.396,739.94z"/>
<path fill="#EAC766" d="M569.139,179.176c12.274-0.194,24.549-0.555,36.823-0.557c93.901-0.016,187.802,0.037,281.703,0.082
	c1.486,0.001,2.973,0.168,4.452,0.263c-11.795,0.123-23.583,0.336-35.371,0.346c-94.385,0.08-188.771,0.122-283.153,0.161
	C572.107,179.471,570.623,179.278,569.139,179.176z"/>
<path fill="#EAC766" d="M157.101,178.951c17.742-0.098,35.483-0.281,53.225-0.271c16.431,0.01,32.862,0.228,49.292,0.354
	c0-0.001,0,0.175,0,0.175c-18.751,0.079-37.502,0.247-56.253,0.211C187.943,179.39,172.522,179.117,157.101,178.951z"/>
<path fill="#EAC766" d="M371.574,179.012c11.952-0.122,23.902-0.313,35.854-0.35c17.945-0.055,35.891-0.014,53.835,0.029
	c1.612,0.004,3.225,0.322,4.827,0.49c-21.066,0.081-42.128,0.206-63.188,0.234c-10.443,0.014-20.888-0.151-31.33-0.235
	C371.574,179.181,371.574,179.012,371.574,179.012z"/>
<path fill="#EAC766" d="M371.574,179.012c0,0,0,0.169-0.001,0.169c-26.147,0.012-52.294,0.023-78.433,0.032
	c6.593-0.195,13.177-0.558,19.76-0.546C332.458,178.703,352.016,178.886,371.574,179.012z"/>
<path fill="#EAC766" d="M468.115,179.216c8.918-0.188,17.836-0.538,26.754-0.522c11.741,0.021,23.481,0.33,35.216,0.511
	C509.423,179.205,488.769,179.211,468.115,179.216z"/>
<path fill="#EAC766" d="M892.907,178.026c0.056-15.333,0.111-30.666,0.172-45.991C893.023,147.372,892.966,162.699,892.907,178.026z
	"/>
<path fill="#C0982A" d="M743.719,617.654c-0.18,3.756-0.124,7.593,4.906,7.813c4.598,0.203,6.09-2.888,6.112-6.986
	c0.398,1.766,1.554,3.795,1.047,5.242c-1.142,3.267-6.888,4.64-10.299,2.612C741.903,624.209,741.299,621.162,743.719,617.654z"/>
<path fill="#EAC766" d="M893.115,890.979c-0.078-13.59-0.156-27.179-0.233-40.758C892.961,863.813,893.038,877.396,893.115,890.979z
	"/>
<path fill="#EAC766" d="M259.617,179.209c0,0,0-0.176,0-0.175c10.148,0.039,20.297,0.078,30.437,0.112
	C279.902,179.165,269.76,179.187,259.617,179.209z"/>
<path fill="#EAC766" d="M131.729,892.629c-0.114,0.213-0.29,0.329-0.533,0.344c-0.012-9.517-0.021-19.025-0.03-28.533
	c0,0.002,0.119,0.154,0.119,0.154C131.432,873.939,131.581,883.284,131.729,892.629z"/>
<path fill="#C0982A" d="M131.152,132.309c0.017,9.191,0.035,18.383,0.052,27.563C131.187,150.678,131.169,141.493,131.152,132.309z"
	/>
<path fill="#C0982A" d="M893.048,792.669c-0.012-8.398-0.022-16.798-0.035-25.185C893.023,775.889,893.036,784.278,893.048,792.669z
	"/>
<path fill="#C0982A" d="M131.284,864.594c0,0-0.119-0.152-0.119-0.155c0.014-8.372,0.027-16.744,0.04-25.104
	C131.231,847.761,131.258,856.177,131.284,864.594z"/>
<path fill="#EAC766" d="M595.532,656.375c-1.256,0.335-2.513,0.671-3.769,1.008c0.73-0.85,1.46-1.7,2.19-2.551
	c0.499-0.107,0.997-0.216,1.496-0.324C595.479,655.131,595.505,655.753,595.532,656.375z"/>
<path fill="#EAC766" d="M688.229,708.793c-0.852,0.265-1.701,0.529-2.555,0.793c0.008-0.283,0.099-0.538,0.271-0.763
	C686.706,708.813,687.468,708.803,688.229,708.793z"/>
<path fill="#C0982A" d="M739.645,729.389c0.434-0.154,0.866-0.311,1.293-0.464c-0.008,0.002,0.028,0.352,0.028,0.352
	s-0.443,0.032-0.447,0.03c-0.003-0.003-0.433,0.107-0.433,0.107L739.645,729.389z"/>
<path fill="currentColor" d="M661.953,695.601c-0.038-0.382-0.075-0.763-0.112-1.144c0.582,0.191,1.166,0.382,1.749,0.572
	C663.044,695.219,662.498,695.41,661.953,695.601z"/>
<path fill="#EAC766" d="M663.59,695.029c-0.583-0.19-1.167-0.381-1.749-0.572c0-0.001-0.452-0.024-0.452-0.022
	c0.167-0.164,0.326-0.337,0.479-0.516C662.441,694.289,663.016,694.659,663.59,695.029z"/>
<path fill="#EAC766" d="M627.251,673.817c0,0.381,0,0.762,0,1.143c-0.103,0.003-0.204,0.005-0.306,0.008c0-0.391,0-0.781,0.003-1.17
	C626.952,673.801,627.251,673.817,627.251,673.817z"/>
<path fill="#EAC766" d="M539.173,630.937c-0.204,0.155-0.408,0.312-0.612,0.467c-0.111-0.177-0.225-0.354-0.336-0.528
	c0.142-0.024,0.282-0.049,0.424-0.07c0,0.002,0.313-0.132,0.313-0.132L539.173,630.937z"/>
<path fill="#EAC766" d="M728.225,349.39c-0.104-0.056-0.203-0.108-0.305-0.161c0.104-0.155,0.207-0.31,0.311-0.464
	c0.102,0.105,0.28,0.211,0.279,0.315S728.328,349.288,728.225,349.39z"/>
<path fill="currentColor" d="M287.99,605.235c-0.453,0.003-0.905,0.005-1.358,0.008c0.128-0.268,0.323-0.466,0.592-0.598
	C287.48,604.845,287.734,605.041,287.99,605.235z"/>
<path fill="#C0982A" d="M287.99,605.235c-0.256-0.194-0.51-0.392-0.767-0.59c0.259,0.191,0.521,0.386,0.778,0.578
	C287.998,605.225,287.99,605.235,287.99,605.235z"/>
<polygon fill="#C0982A" points="499.117,616.181 499.049,616.18 499.091,615.87 "/>
<polygon fill="#C0982A" points="502.09,617.172 501.991,617.049 502.175,616.991 "/>
<path fill="currentColor" d="M889.036,740.519c-0.196-0.292-0.268-0.61-0.211-0.958c0.137,0.206,0.301,0.4,0.396,0.624
	C889.252,740.256,889.104,740.404,889.036,740.519z"/>
<polygon fill="#EAC766" points="683.138,705.231 682.945,705.305 682.946,705.109 683.158,704.979 "/>
<path fill="#C0982A" d="M818.165,741.512c0,0-0.053,0.428-0.055,0.421s-0.222,0.045-0.222,0.045s-0.039-0.309-0.038-0.308
	c0.001,0,0.03-0.239,0.029-0.24C817.879,741.43,818.165,741.512,818.165,741.512z"/>
<path fill="#EAC766" d="M690.809,699.027l0.4,0.027c0,0,0.148,0.389,0.146,0.388s0.021,0.361,0.022,0.361
	c-0.188-0.174-0.405-0.215-0.646-0.121c0,0-0.246-0.244-0.245-0.243C690.585,699.295,690.691,699.157,690.809,699.027z"/>
<path fill="currentColor" d="M735.862,726.672l0.354-0.028c0.268,0.022,0.511,0.108,0.731,0.256c-0.178,0.369-0.352,0.743-0.524,1.118l-0.229-0.141
	l-0.137,0.231c-0.309-0.312-0.617-0.621-0.922-0.93C735.41,727.051,735.649,726.881,735.862,726.672z"/>
<path fill="#C0982A" d="M735.862,726.672c-0.213,0.209-0.452,0.379-0.727,0.508c-0.006-0.003-0.239-0.055-0.239-0.055
	s0.123-0.215,0.123-0.211C735.266,726.714,735.546,726.632,735.862,726.672z"/>
<polygon fill="#EAC766" points="689.297,698.176 689.04,698.248 689.031,697.977 689.285,697.919 "/>
<path fill="#EAC766" d="M729.326,721.246l-0.294,0.166c0,0-0.332-0.066-0.331-0.063c0.269-0.258,0.536-0.519,0.804-0.778
	l0.229-0.059C729.761,720.847,729.625,721.092,729.326,721.246z"/>
<path fill="#C0982A" d="M729.7,719.723c0,0,0.345,0.265,0.341,0.267s0.041,0.35,0.041,0.35s-0.351,0.175-0.351,0.174
	c0.001,0-0.228,0.059-0.228,0.059C729.561,720.285,729.626,720.003,729.7,719.723z"/>
<path fill="currentColor" d="M730.62,717.203c-0.464,0.01-0.929,0.02-1.388,0.03c0.006,0.002,0.23-0.188,0.23-0.188l-0.278-0.1
	c0.294-0.148,0.605-0.216,0.937-0.199C730.316,716.866,730.482,717.019,730.62,717.203z"/>
<path fill="currentColor" d="M681.663,707.178c-0.212-0.242-0.424-0.482-0.638-0.722c-0.001,0.003,0.218-0.013,0.218-0.013
	c0.229,0.224,0.349,0.495,0.358,0.815C681.604,707.262,681.663,707.178,681.663,707.178z"/>
<polygon fill="#C0982A" points="542.131,631.244 542.049,631.242 542.094,630.97 "/>
<polygon fill="#EAC766" points="538.306,629.178 538.002,629.207 537.995,628.906 538.305,628.876 "/>
<path fill="#C0982A" d="M231.033,618.983c0.099-0.163,0.242-0.271,0.426-0.32c-0.001,0,0.129,0.347,0.129,0.346
	s-0.175,0.217-0.175,0.217c-0.26,0.174-0.542,0.288-0.849,0.349l0.059,0.021C230.698,619.349,230.835,619.146,231.033,618.983z"/>
<path fill="currentColor" d="M234.595,618.767c0.234-0.362,0.468-0.727,0.704-1.088c0.06,0.183,0.124,0.36,0.194,0.536
	c0.006,0.27-0.082,0.503-0.257,0.698c0.004-0.004-0.271-0.294-0.271-0.294L234.595,618.767z"/>
<path fill="#EAC766" d="M625.579,673.421c0.017-0.179,0.097-0.323,0.242-0.429c0.002,0.003,0.366-0.051,0.366-0.051
	s0.063,0.36,0.06,0.357s-0.316,0.165-0.316,0.165L625.579,673.421z"/>
<polygon fill="#C0982A" points="597.904,658.352 598.097,657.96 598.287,658.353 598.414,658.574 598.229,658.751 597.964,658.752 
	597.777,658.575 "/>
<path fill="#EAC766" d="M234.595,618.767l0.371-0.146c0,0,0.274,0.29,0.271,0.294c-0.223,0.274-0.442,0.544-0.662,0.814
	C234.581,619.407,234.588,619.087,234.595,618.767z"/>
<path fill="#EAC766" d="M231.413,619.226c0,0,0.174-0.218,0.175-0.217c0.331,0.461,0.661,0.922,0.992,1.381
	c0.001-0.001-0.369,0.047-0.369,0.047s-0.357-0.108-0.36-0.107C231.703,619.962,231.558,619.594,231.413,619.226z"/>
<path fill="#EAC766" d="M736.423,728.018c0.174-0.375,0.349-0.749,0.524-1.118c0.146-0.137,0.318-0.188,0.517-0.146
	c0.091,0.22,0.112,0.446,0.063,0.68c0.19,0.287,0.196,0.577,0.015,0.87c0,0-0.056,0.434-0.057,0.434
	c-0.293-0.162-0.587-0.324-0.88-0.486C736.605,728.247,736.423,728.018,736.423,728.018z"/>
<path fill="#C0982A" d="M736.423,728.018c0,0,0.183,0.229,0.183,0.23l-0.371,0.095c0,0-0.185-0.249-0.18-0.242
	c0.004,0.009,0.141-0.224,0.141-0.224L736.423,728.018z"/>
<path fill="#EAC766" d="M684.638,709.636c0.296,0.009,0.594,0.013,0.89,0.01C685.23,709.643,684.934,709.639,684.638,709.636z"/>
<path fill="#EAC766" d="M681.243,706.443c0,0-0.219,0.016-0.218,0.013c-0.189-0.19-0.246-0.412-0.166-0.668
	C681.189,705.906,681.316,706.124,681.243,706.443z"/>
<path fill="currentColor" d="M231.413,619.226c0.145,0.368,0.29,0.736,0.438,1.104c-0.427-0.252-0.856-0.504-1.287-0.756
	C230.871,619.514,231.153,619.398,231.413,619.226z"/>
<path fill="#EAC766" d="M597.964,658.752c0,0,0.268-0.002,0.267-0.001C598.14,658.752,598.052,658.752,597.964,658.752z"/>
<path fill="#EAC766" d="M633.68,532.66c-1.003-0.539-2.005-1.079-3.008-1.619c0.358-0.415,0.717-0.831,1.076-1.246
	c0.637,0.962,1.273,1.923,1.912,2.885L633.68,532.66z"/>
<path fill="#EAC766" d="M409.23,322.348c-0.12,0.277-0.181,0.707-0.38,0.786c-0.197,0.078-0.534-0.195-0.813-0.313
	c0.119-0.276,0.178-0.709,0.375-0.786C408.615,321.956,408.952,322.228,409.23,322.348z"/>
<path fill="#EAC766" d="M729.186,716.945l0.278,0.1c0,0-0.226,0.19-0.23,0.188c-0.006-0.001-0.315-0.097-0.315-0.097
	L729.186,716.945z"/>
<path fill="currentColor" d="M737.541,728.302c0.183-0.293,0.177-0.583-0.015-0.87C737.531,727.721,737.536,728.011,737.541,728.302z"/>
<path fill="#EAC766" d="M818.165,741.512c0,0-0.286-0.082-0.284-0.082c-0.041-0.342,0.114-0.523,0.466-0.543
	C818.408,741.132,818.349,741.34,818.165,741.512z"/>
<g>
	<path fill="#E9D094" d="M791.777,382.627c-3.15,0-6.194-1.411-8.354-3.87c-2.188-2.493-3.204-5.747-2.788-8.926
		c0.824-6.294,5.481-10.361,11.864-10.361c0.187,0,0.375,0.003,0.566,0.01c0.321-0.022,0.637-0.033,0.94-0.033
		c3.459,0,6.447,1.361,8.412,3.832c1.973,2.479,2.659,5.83,1.886,9.192c-1.002,4.341-5.336,8.652-9.866,9.818
		C793.565,382.514,792.67,382.627,791.777,382.627z"/>
	<path fill="#E9D094" d="M749.046,631.479c-0.225,0-0.455-0.006-0.688-0.017c-4.103-0.181-6.528-1.936-7.841-3.375
		c-3.139-3.439-2.913-8.176-2.791-10.72l0.126-2.629l2.02-1.688c3.917-3.276,7.081-4.739,10.257-4.739
		c2.962,0,7.11,1.324,10.049,7.638l0.567,1.216l-0.006,1.346C760.685,628.083,754.406,631.479,749.046,631.479z"/>
	<polygon fill="#E9D094" points="356.387,433.664 379.547,457.379 356.512,459.547 	"/>
	<polygon fill="#E9D094" points="358.412,438.6 375.191,455.782 358.502,457.352 	"/>
	<path fill="#E9D094" d="M351.933,452.469l5.73-7.614c2.163-2.875,4.663-4.334,7.43-4.334c2.524,0,5.995,1.182,8.194,6.807
		l3.999,10.228L351.933,452.469z"/>
	<path fill="#E9D094" d="M355.442,451.133l3.817-5.077c0.658-0.874,2.66-3.535,5.833-3.535c2.766,0,4.896,1.862,6.331,5.534
		l2.666,6.819L355.442,451.133z"/>
	
		<rect x="364.099" y="238.237" transform="matrix(0.0201 -0.9998 0.9998 0.0201 118.9485 609.8333)" fill="#E9D094" width="12.946" height="11.999"/>
	
		<rect x="368.097" y="240.235" transform="matrix(0.0199 -0.9998 0.9998 0.0199 118.9934 609.8612)" fill="#E9D094" width="4.946" height="8.001"/>
	<polygon fill="#E9D094" points="653.977,267.103 670.404,284.426 649.23,291.081 	"/>
	<polygon fill="#E9D094" points="653.683,278.875 655.189,271.284 662.337,278.829 666.752,283.478 651.849,288.162 	"/>
	<polygon fill="#E9D094" points="366.495,240.69 378.68,240.676 378.693,252.676 366.495,252.69 	"/>
	<rect x="370.497" y="242.683" fill="#E9D094" width="4.19" height="8"/>
	
		<rect x="403.092" y="320.083" transform="matrix(9.765186e-004 -1 1 9.765186e-004 83.0226 734.4435)" fill="#E9D094" width="12" height="11.174"/>
	
		<rect x="405.092" y="324.083" transform="matrix(9.765186e-004 -1 1 9.765186e-004 83.0226 734.4435)" fill="#E9D094" width="8" height="3.174"/>
	<polygon fill="#E9D094" points="405.662,328.667 405.682,317.491 417.682,317.509 417.662,328.694 	"/>
	<polygon fill="#E9D094" points="407.669,324.672 407.675,321.494 415.675,321.505 415.669,324.691 	"/>
	
		<rect x="403.035" y="314.868" transform="matrix(9.765186e-004 -1 1 9.765186e-004 88.1178 729.2401)" fill="#E9D094" width="12" height="11.301"/>
	
		<rect x="405.036" y="318.868" transform="matrix(8.544484e-004 -1 1 8.544484e-004 88.1682 729.2797)" fill="#E9D094" width="8" height="3.301"/>
	
		<rect x="623.506" y="527.235" transform="matrix(0.7156 -0.6986 0.6986 0.7156 -193.0558 591.2637)" fill="#E9D094" width="12.002" height="10.915"/>
	
		<rect x="625.507" y="531.237" transform="matrix(0.7156 -0.6985 0.6985 0.7156 -193.0607 591.2152)" fill="#E9D094" width="8" height="2.915"/>
	<polygon fill="#E9D094" points="628.625,535.717 628.729,525.517 640.727,525.496 640.626,535.831 	"/>
	<polygon fill="#E9D094" points="630.665,531.736 630.688,529.489 638.688,529.521 638.665,531.813 	"/>
	<polygon fill="#E9D094" points="626.392,527.754 636.649,527.59 636.843,539.589 626.579,539.753 	"/>
	
		<rect x="630.454" y="529.673" transform="matrix(0.9999 -0.016 0.016 0.9999 -8.4406 10.1525)" fill="#E9D094" width="2.263" height="8"/>
	<polygon fill="#E9D094" points="367.511,243.023 376.07,234.613 382.581,241.242 374.029,249.659 	"/>
	
		<rect x="371.037" y="241.503" transform="matrix(0.7132 -0.7009 0.7009 0.7132 -62.1834 332.3071)" fill="#E9D094" width="8" height="1.295"/>
	<polygon fill="#E9D094" points="369.676,248.783 369.669,239.413 381.669,239.399 381.676,248.783 	"/>
	<polygon fill="#E9D094" points="371.673,244.783 371.672,243.408 379.672,243.399 379.673,244.783 	"/>
	<polygon fill="#E9D094" points="367.469,246.234 373.174,238.77 382.701,246.067 377.004,253.52 	"/>
	<polygon fill="#E9D094" points="371.487,244.271 372.333,243.165 378.684,248.029 377.845,249.127 	"/>
	<polygon fill="#E9D094" points="403.597,321.969 412,313.402 418.775,320.052 410.36,328.607 	"/>
	<polygon fill="#E9D094" points="407.853,323.343 413.454,317.631 414.518,318.675 408.908,324.379 	"/>
	
		<rect x="401.409" y="315.99" transform="matrix(0.5806 -0.8142 0.8142 0.5806 -91.833 465.7072)" fill="#E9D094" width="9.416" height="12"/>
	
		<rect x="405.442" y="317.997" transform="matrix(0.5807 -0.8141 0.8141 0.5807 -91.8422 465.6773)" fill="#E9D094" width="1.416" height="8.001"/>
	
		<rect x="400.105" y="319.472" transform="matrix(0.8212 -0.5706 0.5706 0.8212 -112.3748 289.6696)" fill="#E9D094" width="12.002" height="9.411"/>
	
		<rect x="402.078" y="323.467" transform="matrix(0.8211 -0.5707 0.5707 0.8211 -112.3841 289.7391)" fill="#E9D094" width="8" height="1.415"/>
	<polygon fill="#E9D094" points="399.43,326.397 407.545,317.558 414.547,324 406.42,332.827 	"/>
	<polygon fill="#E9D094" points="403.726,327.632 409.137,321.739 410.25,322.762 404.831,328.648 	"/>
	<polygon fill="#E9D094" points="403.584,324.304 410.266,317.59 418.774,326.052 412.093,332.765 	"/>
	
		<rect x="410.45" y="321.207" transform="matrix(0.7056 -0.7086 0.7086 0.7056 -109.3929 387.1024)" fill="#E9D094" width="1.473" height="8"/>
	<polygon fill="#E9D094" points="408.333,398.541 417.794,398.472 417.891,410.472 408.417,410.541 	"/>
	<polygon fill="#E9D094" points="412.345,400.512 413.811,400.501 413.875,408.501 412.401,408.512 	"/>
	<polygon fill="#E9D094" points="405.473,410.66 405.557,401.352 417.557,401.46 417.473,410.755 	"/>
	<polygon fill="#E9D094" points="407.509,406.678 407.521,405.37 415.521,405.442 415.509,406.741 	"/>
	<polygon fill="#E9D094" points="404.726,409.208 411.729,399.461 419.341,404.944 412.323,414.675 	"/>
	<polygon fill="#E9D094" points="409.14,409.92 413.808,403.423 414.925,404.228 410.247,410.717 	"/>
	<rect x="361.671" y="445.501" transform="matrix(1 -0.0044 0.0044 1 -1.9746 1.6201)" fill="#E9D094" width="12" height="9.304"/>
	<rect x="363.681" y="449.493" transform="matrix(1 -0.0044 0.0044 1 -1.9746 1.6201)" fill="#E9D094" width="8" height="1.303"/>
	<polygon fill="#E9D094" points="622.688,526.141 630.188,520.51 637.39,530.108 629.891,535.739 	"/>
	
		<rect x="629.3" y="524.132" transform="matrix(0.7997 -0.6005 0.6005 0.7997 -190.9067 484.0856)" fill="#E9D094" width="1.378" height="8.002"/>
	<polygon fill="#E9D094" points="625.79,530.077 633.043,520.516 640.513,526.178 633.26,535.739 	"/>
	
		<rect x="629.151" y="527.42" transform="matrix(0.6045 -0.7966 0.7966 0.6045 -170.2771 713.2549)" fill="#E9D094" width="8" height="1.372"/>
	<polygon fill="#E9D094" points="621.499,529.108 627.208,521.667 636.735,528.962 631.015,536.421 	"/>
	<polygon fill="#E9D094" points="625.52,527.153 626.361,526.056 632.713,530.921 631.863,532.028 	"/>
	<polygon fill="#E9D094" points="626.607,530.085 634.87,521.386 641.765,527.927 633.491,536.622 	"/>
	
		<rect x="630.153" y="528.271" transform="matrix(0.6887 -0.7251 0.7251 0.6887 -186.1516 624.4918)" fill="#E9D094" width="8" height="1.502"/>
	<polygon fill="#E9D094" points="622.507,535.67 622.536,526.4 634.535,526.43 634.507,535.711 	"/>
	<polygon fill="#E9D094" points="624.52,531.68 624.523,530.406 632.523,530.424 632.52,531.707 	"/>
	<path fill="#E9D094" d="M311.232,277.59c-3.267,0-6.148-1.176-8.117-3.311c-1.437-1.555-3.071-4.354-2.708-8.854
		c0.378-4.673,1.941-10.887,11.104-10.971c0.129-0.004,0.303-0.007,0.472-0.007c4.042,0,6.485,1.604,7.822,2.948
		c1.357,1.363,2.972,3.868,2.95,8.054c-0.034,7.146-4.566,12.025-11.282,12.138l-0.221,0.002L311.232,277.59L311.232,277.59z"/>
	<path fill="#E9D094" d="M682.012,415.794c-0.249,0-0.504-0.007-0.764-0.021c-1.99-0.111-6.128-0.342-8.807-3.597
		c-1.565-1.903-2.239-4.311-2.006-7.164c-0.259-3.021,0.573-5.81,2.365-7.898c1.911-2.222,4.68-3.445,7.795-3.445
		c0.649,0,1.313,0.055,1.971,0.164c4.362,0.721,8.944,5.243,9.803,9.677c0.609,3.142-0.139,6.278-2.053,8.601
		C688.357,414.486,685.408,415.794,682.012,415.794z"/>
	<path fill="#E9D094" d="M566.543,303.481c-0.412,0-0.83-0.023-1.243-0.068c-4.747-0.521-9.042-5.91-9.567-10.2
		c-0.384-3.132,0.482-6.072,2.438-8.279c1.964-2.218,4.775-3.439,7.918-3.439c0.779,0,1.574,0.078,2.362,0.23
		c2.939,0.572,5.014,2.387,6.385,3.587c0.258,0.225,0.493,0.441,0.685,0.579l2.947,2.08l-0.463,3.587
		C577.056,298.912,572.664,303.481,566.543,303.481z"/>
	<path fill="#E9D094" d="M248.704,460.781c-3.036,0-5.744-1.214-7.624-3.417c-1.896-2.226-2.711-5.212-2.235-8.197
		c0.643-4.025,5.255-9.996,10.311-9.996c0.309,0,0.608,0.021,0.9,0.06c4.132,0.544,10.485,4.296,11.154,9.654
		c0.368,2.951-0.562,5.935-2.551,8.187c-2.106,2.385-5.126,3.697-8.502,3.697c-0.214,0-0.431-0.005-0.651-0.016
		C249.233,460.771,248.965,460.781,248.704,460.781z"/>
	<path fill="#E9D094" d="M553.904,427.479c-0.429-0.692-0.905-1.34-1.366-1.966c-1.405-1.907-3.153-4.278-2.754-7.554
		c0.446-3.67,4.382-9.218,9.295-9.218l0.183,0.002c3.898,0.157,7.219,3.102,8.443,4.637c1.779,2.235,1.847,4.345,1.589,5.721
		c-0.53,2.853-2.188,4.822-3.792,6.727c-0.578,0.686-1.124,1.334-1.683,2.084l-5.276,7.077L553.904,427.479z"/>
	<path fill="#E9D094" d="M368.373,252.688l-3.988,0.006l0.065-3.188l-10.82-8.797l10.998-0.015l0.097-4.825l12.335-0.247
		l3.042,3.094l0.269,0.372c0.356,0.496,0.646,1.029,0.86,1.588l8.481-0.006l-10.565,10.048l-1.495,1.96l-1.263,0.001l-0.128,6.389
		L368.373,252.688z"/>
	<path fill="#E9D094" d="M627.979,539.729l-1.398,0.022l-0.023-1.479l-2.542-2.604l-1.509-0.006l0.005-1.535l-1.037-1.063
		l1.046-1.079l0.004-1.248c-0.07-0.904,0.028-1.792,0.294-2.639l-0.402-0.975l2.599-2.599l0.237-0.312l3.342-2.508l6.032,0.005
		l0.998,0.757l0.354-0.002l1.809,1.68l1.456,1.385l1.485,0.015l-0.014,1.386l1.027,0.979l-1.047,1.116l-0.053,5.438l-2.77,2.498
		l-2.49,2.65l-5.525,0.088l-1.052,0.875L627.979,539.729z"/>
	<polygon fill="#E9D094" points="405.159,331.666 403.5,331.664 403.501,330.142 401.93,328.697 399.653,325.422 399.758,320.606 
		401.874,317.639 404.602,314.692 407.257,314.517 413.14,314.521 416.185,317.51 417.682,317.513 417.68,318.977 418.556,319.836 
		417.676,320.886 417.668,325.116 418.644,326.183 417.665,327.167 417.662,328.691 416.15,328.688 414.675,330.17 414.673,331.675 
		413.179,331.673 412.282,332.574 411.238,331.671 407.393,331.668 406.337,332.75 	"/>
	<polygon fill="#E9D094" points="356.457,450.912 356.457,441.157 363.627,442.576 368.255,443.504 368.646,443.504 
		369.241,443.702 373.652,444.586 373.688,452.637 367.316,462.031 	"/>
	<polygon fill="#E9D094" points="723.139,281.8 733.014,269.144 744.919,281.494 731.949,288.97 	"/>
	<polygon fill="#E9D094" points="409.583,412.705 409.076,412.705 407.614,411.287 405.481,409.755 405.542,402.977 409.8,398.529 
		422.924,398.431 415.182,416.741 	"/>
	<polygon fill="#E9D094" points="650.499,280.878 659.208,272.624 666.539,280.354 657.838,288.619 	"/>
	<path fill="#E9D094" d="M228.603,352.565c-2.632,0-4.546-1.711-5.07-2.235c-1.231-1.253-1.879-2.848-1.85-4.516
		c0.031-1.686,0.638-2.905,1.001-3.634c0.064-0.128,0.114-0.225,0.161-0.334l3.311-7.669l6.21,5.592
		c0.102,0.092,0.209,0.174,0.302,0.248c3.087,2.444,3.135,5.098,2.638,6.898c-0.48,1.728-1.599,3.347-3.072,4.447l-1.571,1.174
		l-2.031,0.029H228.603z"/>
	<path fill="#E9D094" d="M433.059,265.46c-0.396-0.551-1.415-1.995-1.428-4.106c-0.014-1.444,0.431-2.548,0.727-3.279
		c0.084-0.21,0.174-0.432,0.273-0.713l5.036-14.166l6.101,13.742c0.203,0.458,0.368,0.786,0.487,1.025
		c0.439,0.88,1.771,3.548,0.074,6.452c-0.751,1.287-1.745,2.043-2.222,2.407l-2.543-3.091l2.455,3.157l-5.426,4.671L433.059,265.46z
		"/>
	<polygon fill="#E9D094" points="639.785,310.432 652.005,310.212 639.255,327.326 625.594,310.666 	"/>
	<g>
		<path fill="#C0982A" d="M791.777,378.627c-1.999,0-3.947-0.915-5.347-2.508c-1.429-1.628-2.096-3.731-1.829-5.769
			c0.564-4.308,3.518-6.88,7.898-6.88c0.208,0,0.42,0.006,0.636,0.017c0.302-0.027,0.592-0.04,0.872-0.04
			c2.215,0,4.091,0.824,5.282,2.322c1.209,1.52,1.616,3.636,1.117,5.805c-0.66,2.86-3.915,6.057-6.965,6.841
			C792.896,378.556,792.335,378.627,791.777,378.627z"/>
		<path fill="#C0982A" d="M749.046,627.479c-0.166,0-0.336-0.005-0.509-0.013c-2.194-0.097-3.898-0.794-5.064-2.073
			c-1.863-2.044-1.888-4.99-1.752-7.835l0.042-0.876l0.673-0.563c3.148-2.635,5.521-3.811,7.691-3.811c3.94,0,5.81,4.01,6.423,5.326
			l0.189,0.406l-0.002,0.449C756.692,626.603,751.344,627.479,749.046,627.479z"/>
		<polygon fill="#C0982A" points="360.435,443.534 370.833,454.182 360.491,455.155 		"/>
		<path fill="#C0982A" d="M362.457,448.468c1.339,1.371,2.679,2.742,4.019,4.114c-1.332,0.125-2.663,0.25-3.995,0.376
			C362.472,451.461,362.464,449.964,362.457,448.468z"/>
		<path fill="#C0982A" d="M358.949,449.797l1.91-2.538c1.386-1.842,2.771-2.738,4.233-2.738c2.802,0,4.057,3.209,4.468,4.263
			l1.333,3.41L358.949,449.797z"/>
		<path fill="#C0982A" d="M367.698,449.512c-1.747-0.351-3.494-0.7-5.241-1.051C364.936,445.166,366.497,446.439,367.698,449.512z"
			/>
		
			<rect x="368.098" y="242.235" transform="matrix(0.0201 -0.9998 0.9998 0.0201 118.9227 609.8124)" fill="#C0982A" width="4.946" height="4"/>
		<path fill="#C0982A" d="M370.607,241.753c-0.033,1.648-0.066,3.297-0.101,4.945C370.541,245.05,370.574,243.401,370.607,241.753z"
			/>
		<polygon fill="#C0982A" points="656.398,275.469 663.095,282.531 654.464,285.243 		"/>
		<path fill="#C0982A" d="M659.438,281.584c-0.786,0.247-1.572,0.494-2.358,0.741c0.176-0.891,0.352-1.78,0.528-2.671
			C658.216,280.298,658.826,280.941,659.438,281.584z"/>
		<rect x="370.497" y="244.683" fill="#C0982A" width="4.188" height="4"/>
		<path fill="#C0982A" d="M370.492,246.686c1.397-0.002,2.796-0.004,4.192-0.005C373.288,246.683,371.891,246.684,370.492,246.686z"
			/>
		<rect x="407.506" y="323.669" fill="#C0982A" width="3.174" height="4"/>
		<path fill="#C0982A" d="M407.506,325.668c1.059,0.001,2.116,0.002,3.174,0.003C409.622,325.67,408.563,325.669,407.506,325.668z"
			/>
		<rect x="410.1" y="321.104" transform="matrix(0.0018 -1 1 0.0018 87.8268 734.1978)" fill="#C0982A" width="3.179" height="4"/>
		<path fill="#C0982A" d="M411.669,324.68c0.002-1.06,0.004-2.119,0.006-3.179C411.674,322.561,411.672,323.62,411.669,324.68z"/>
		<rect x="407.386" y="318.518" fill="#C0982A" width="3.301" height="4"/>
		<path fill="#C0982A" d="M410.688,320.52c-1.101-0.001-2.2-0.002-3.302-0.003C408.486,320.518,409.586,320.519,410.688,320.52z"/>
		
			<rect x="627.507" y="531.233" transform="matrix(0.7156 -0.6985 0.6985 0.7156 -193.0575 591.2178)" fill="#C0982A" width="4.001" height="2.914"/>
		<path fill="#C0982A" d="M628.484,531.657c0.678,0.693,1.355,1.389,2.033,2.084C629.84,533.047,629.162,532.352,628.484,531.657z"
			/>
		<polygon fill="#C0982A" points="632.665,531.755 632.688,529.51 636.688,529.503 636.665,531.793 		"/>
		<path fill="#C0982A" d="M634.665,531.772c0.007-0.764,0.015-1.524,0.021-2.287C634.681,530.247,634.673,531.01,634.665,531.772z"
			/>
		
			<rect x="630.454" y="531.672" transform="matrix(0.9999 -0.016 0.016 0.9999 -8.4442 10.1569)" fill="#C0982A" width="2.262" height="4.001"/>
		<path fill="#C0982A" d="M630.484,533.689c0.754-0.013,1.508-0.024,2.262-0.036C631.992,533.666,631.238,533.678,630.484,533.689z"
			/>
		
			<rect x="373.038" y="241.505" transform="matrix(0.7132 -0.701 0.701 0.7132 -62.1765 332.3456)" fill="#C0982A" width="4" height="1.295"/>
		<path fill="#C0982A" d="M375.502,242.597c-0.303-0.308-0.604-0.616-0.907-0.924C374.896,241.98,375.199,242.289,375.502,242.597z"
			/>
		<rect x="373.672" y="243.406" fill="#C0982A" width="4" height="1.375"/>
		<path fill="#C0982A" d="M375.673,244.783c0-0.458-0.001-0.917-0.001-1.375C375.673,243.866,375.673,244.324,375.673,244.783z"/>
		
			<rect x="374.381" y="244.149" transform="matrix(0.6071 -0.7947 0.7947 0.6071 -48.2213 394.779)" fill="#C0982A" width="1.39" height="4"/>
		<path fill="#C0982A" d="M374.666,246.699c0.281-0.368,0.562-0.735,0.843-1.103C375.228,245.964,374.947,246.331,374.666,246.699z"
			/>
		
			<rect x="409.203" y="320.273" transform="matrix(0.7002 -0.7139 0.7139 0.7002 -105.9135 389.7903)" fill="#C0982A" width="4" height="1.487"/>
		<path fill="#C0982A" d="M411.713,321.527c-0.353-0.347-0.706-0.693-1.06-1.04C411.007,320.834,411.36,321.181,411.713,321.527z"/>
		
			<rect x="405.442" y="319.998" transform="matrix(0.5807 -0.8141 0.8141 0.5807 -91.8423 465.6774)" fill="#C0982A" width="1.416" height="4"/>
		<path fill="#C0982A" d="M406.538,321.433c-0.274,0.385-0.548,0.769-0.822,1.153C405.99,322.201,406.264,321.817,406.538,321.433z"
			/>
		
			<rect x="404.108" y="323.465" transform="matrix(0.8212 -0.5706 0.5706 0.8212 -112.3726 289.6934)" fill="#C0982A" width="4" height="1.412"/>
		<path fill="#C0982A" d="M405.693,323.599c0.269,0.386,0.535,0.771,0.805,1.158C406.229,324.371,405.961,323.984,405.693,323.599z"
			/>
		
			<rect x="404.996" y="324.438" transform="matrix(0.6763 -0.7366 0.7366 0.6763 -107.8021 405.0617)" fill="#C0982A" width="4" height="1.509"/>
		<path fill="#C0982A" d="M406.432,324.686c0.37,0.34,0.739,0.68,1.108,1.02C407.171,325.365,406.802,325.025,406.432,324.686z"/>
		
			<rect x="410.45" y="323.207" transform="matrix(0.7053 -0.7089 0.7089 0.7053 -109.3639 387.3468)" fill="#C0982A" width="1.472" height="4.001"/>
		<path fill="#C0982A" d="M410.66,325.699c0.346-0.348,0.691-0.695,1.038-1.043C411.353,325.004,411.006,325.352,410.66,325.699z"/>
		<rect x="412.377" y="402.484" transform="matrix(1 -0.0073 0.0073 1 -2.9531 3.0382)" fill="#C0982A" width="1.466" height="4"/>
		<path fill="#C0982A" d="M413.843,404.501c-0.487,0.004-0.978,0.008-1.466,0.011C412.865,404.508,413.354,404.505,413.843,404.501z
			"/>
		<rect x="410.843" y="404.071" transform="matrix(0.0097 -1 1 0.0097 1.433 813.5891)" fill="#C0982A" width="1.303" height="4"/>
		<path fill="#C0982A" d="M411.521,405.406c-0.005,0.433-0.009,0.865-0.013,1.299C411.512,406.272,411.517,405.839,411.521,405.406z
			"/>
		<polygon fill="#C0982A" points="410.307,408.296 412.641,405.047 413.756,405.851 411.416,409.095 		"/>
		<path fill="#C0982A" d="M411.474,406.672c0.371,0.267,0.741,0.533,1.112,0.801C412.215,407.205,411.845,406.938,411.474,406.672z"
			/>
		<rect x="365.67" y="449.501" transform="matrix(1 -0.0044 0.0044 1 -1.9746 1.6201)" fill="#C0982A" width="4" height="1.304"/>
		<path fill="#C0982A" d="M367.68,450.807c-0.002-0.435-0.004-0.867-0.006-1.303C367.676,449.938,367.678,450.372,367.68,450.807z"
			/>
		
			<rect x="629.3" y="526.132" transform="matrix(0.7996 -0.6006 0.6006 0.7996 -190.9126 484.2013)" fill="#C0982A" width="1.379" height="4"/>
		<path fill="#C0982A" d="M630.59,527.711c-0.367,0.275-0.733,0.552-1.102,0.827C629.855,528.263,630.223,527.986,630.59,527.711z"
			/>
		
			<rect x="631.133" y="527.419" transform="matrix(0.6044 -0.7967 0.7967 0.6044 -170.2556 713.3588)" fill="#C0982A" width="4.001" height="1.372"/>
		<path fill="#C0982A" d="M633.698,528.542c-0.364-0.276-0.729-0.553-1.095-0.829C632.969,527.989,633.334,528.266,633.698,528.542z
			"/>
		<polygon fill="#C0982A" points="627.105,528.372 627.949,527.272 631.125,529.704 630.277,530.81 		"/>
		<path fill="#C0982A" d="M629.537,528.488c-0.281,0.366-0.563,0.734-0.846,1.103C628.974,529.224,629.256,528.854,629.537,528.488z
			"/>
		
			<rect x="632.154" y="528.272" transform="matrix(0.6886 -0.7252 0.7252 0.6886 -186.1351 624.6371)" fill="#C0982A" width="4" height="1.5"/>
		<path fill="#C0982A" d="M634.727,529.521c-0.36-0.344-0.724-0.687-1.085-1.029C634.003,528.833,634.365,529.177,634.727,529.521z"
			/>
		<rect x="626.521" y="530.415" fill="#C0982A" width="4" height="1.273"/>
		<path fill="#C0982A" d="M628.523,530.415c-0.001,0.425-0.002,0.849-0.005,1.273C628.521,531.265,628.521,530.84,628.523,530.415z"
			/>
		<path fill="#C0982A" d="M311.232,273.59c-2.166,0-3.956-0.699-5.177-2.022c-0.894-0.969-1.907-2.766-1.662-5.821
			c0.372-4.594,1.67-7.26,7.206-7.293c0.092-0.004,0.239-0.007,0.385-0.007c2.142,0,3.819,0.595,4.986,1.769
			c1.196,1.202,1.797,2.956,1.786,5.213c-0.022,4.956-2.839,8.083-7.349,8.159L311.232,273.59z"/>
		<path fill="#C0982A" d="M682.012,411.794c-0.177,0-0.356-0.005-0.542-0.015c-2.116-0.118-4.496-0.391-5.938-2.145
			c-0.946-1.15-1.299-2.668-1.074-4.633c-0.324-2.647,0.563-4.328,1.381-5.281c1.137-1.322,2.827-2.051,4.76-2.051
			c0.433,0,0.874,0.037,1.316,0.11c2.75,0.455,5.982,3.67,6.529,6.491c0.382,1.967-0.062,3.898-1.213,5.296
			C686.045,411.003,684.191,411.794,682.012,411.794z"/>
		<path fill="#C0982A" d="M566.543,299.481c-0.266,0-0.535-0.015-0.807-0.044c-2.722-0.298-5.706-4.034-6.035-6.711
			c-0.241-1.977,0.278-3.802,1.463-5.141c1.193-1.348,2.941-2.09,4.923-2.09c0.523,0,1.063,0.053,1.601,0.157
			c1.88,0.366,3.34,1.644,4.513,2.67c0.376,0.329,0.729,0.639,1.006,0.833l0.985,0.695l-0.154,1.195
			C573.355,296.328,570.555,299.481,566.543,299.481z"/>
		<path fill="#C0982A" d="M248.704,456.781c-1.846,0-3.473-0.715-4.58-2.014c-1.136-1.332-1.62-3.144-1.328-4.971
			c0.398-2.492,3.626-6.626,6.36-6.626c0.128,0,0.253,0.008,0.375,0.024c2.84,0.374,7.33,3.136,7.71,6.185
			c0.226,1.813-0.35,3.65-1.58,5.042c-1.336,1.513-3.291,2.346-5.504,2.346c-0.226,0-0.457-0.008-0.693-0.025
			C249.203,456.768,248.949,456.781,248.704,456.781z"/>
		<path fill="#C0982A" d="M557.308,425.377c-0.513-0.83-1.063-1.577-1.55-2.237c-1.186-1.608-2.21-2.999-2.003-4.697
			c0.262-2.148,2.858-5.702,5.324-5.702l0.114,0.002c2.034,0.083,4.416,1.917,5.384,3.131c0.672,0.844,0.937,1.682,0.785,2.492
			c-0.339,1.818-1.534,3.24-2.92,4.885c-0.591,0.7-1.2,1.425-1.83,2.271l-1.76,2.358L557.308,425.377z"/>
		<path fill="#C0982A" d="M369.786,248.687l-1.318,0.002l0.021-1.054l-3.617-2.941l3.676-0.005l0.1-4.897l6.77-0.135l1.619,1.646
			l0.089,0.124c0.454,0.63,0.645,1.381,0.548,2.14l0.001,1.062c0.002,0.017,0.004,0.033,0.005,0.05l2.017-0.001l-3.535,3.362
			l-0.489,0.641l-3.202,0.003l-0.043,2.139L369.786,248.687z"/>
		<path fill="#C0982A" d="M630.488,533.972l-1.402,1.166l-2.033-2.083l1.324-1.366l-1.857-0.009l0.005-1.123
			c-0.087-0.736,0.086-1.452,0.507-2.08l0.172-0.229l-0.073-0.178l0.9-0.9l0.063-0.083l1.832-1.375l3.354,0.003l1.014,0.77
			l0.127-0.001l0.644,0.598l1.045,0.993l-1.326,1.415l1.908,0.02l-0.03,3.164l-1.588,1.433l-1.444,1.537l-3.109,0.051
			L630.488,533.972z"/>
		<polygon fill="#C0982A" points="407.504,327.668 407.506,325.822 406.186,327.176 404.962,326.051 403.681,324.208 
			403.73,321.925 404.983,320.168 406.455,318.578 407.388,318.517 411.504,318.52 413.115,320.102 411.942,321.501 
			413.675,321.505 413.669,324.684 411.848,324.68 413.116,326.066 412.078,327.109 410.68,325.9 410.678,327.671 		"/>
		<polygon fill="#C0982A" points="360.457,449.282 360.457,446.026 362.851,446.5 367.858,447.504 367.998,447.504 368.212,447.575 
			369.667,447.867 369.683,451.417 366.756,455.732 		"/>
		<polygon fill="#C0982A" points="728.703,281.171 733.332,275.238 738.486,280.585 732.338,284.129 		"/>
		<polygon fill="#C0982A" points="410.875,408.705 410.697,408.705 410.188,408.21 409.5,407.716 409.528,404.598 411.52,402.517 
			416.871,402.477 413.451,410.563 		"/>
		
			<rect x="656.534" y="279.319" transform="matrix(0.7258 -0.6879 0.6879 0.7258 -12.5014 529.9295)" fill="#C0982A" width="4" height="2.658"/>
		<path fill="#C0982A" d="M228.603,348.565c-1.183,0-2.23-1.052-2.241-1.063c-0.575-0.585-0.687-1.203-0.68-1.617
			c0.014-0.782,0.316-1.387,0.582-1.921c0.079-0.159,0.167-0.333,0.251-0.529l1.104-2.557l2.07,1.864
			c0.187,0.167,0.372,0.313,0.531,0.439c0.564,0.447,1.615,1.279,1.23,2.67c-0.243,0.874-0.844,1.735-1.61,2.307l-0.533,0.398
			L228.603,348.565z"/>
		<path fill="#C0982A" d="M436.431,263.301c-0.027-0.046-0.063-0.09-0.096-0.136c-0.262-0.363-0.699-0.97-0.704-1.835
			c-0.006-0.662,0.208-1.195,0.437-1.759c0.092-0.229,0.206-0.509,0.333-0.868l1.679-4.722l2.034,4.581
			c0.235,0.531,0.426,0.913,0.564,1.19c0.339,0.679,0.804,1.609,0.198,2.645c-0.353,0.604-0.838,0.974-1.192,1.244
			c-0.074,0.057-0.149,0.112-0.219,0.172l-1.827,1.572L436.431,263.301z"/>
		<polygon fill="#C0982A" points="634.462,317.717 634.389,313.64 640.864,318.464 634.56,323.634 		"/>
	</g>
</g>
<path fill="currentColor" d="M124.342,690.246c-0.015-6.445-0.029-12.893-0.044-19.334c0.988-3.416,0.581-6.93,0.583-10.396
	c0.013-16.473-0.054-32.943-0.128-49.416c-0.067-14.957,0.528-29.92-0.437-44.865c-0.084-19.271-0.22-38.541-0.243-57.813
	c-0.04-33.403-0.041-66.806,0.001-100.209c0.028-22.099,0.158-44.196,0.243-66.289c0.116-1.142,0.332-2.287,0.334-3.434
	c0.056-31.458,0.145-62.916,0.105-94.374c-0.02-15.956-0.278-31.911-0.429-47.866c0.018-22.265,0.056-44.528,0.024-66.792
	c-0.003-2.521-0.185-4.472,3.486-4.212c14.248,1.008,28.547-0.556,42.764,0.275c13.485,0.789,26.938,0.438,40.401,0.515
	c28.754,0.165,57.517,0.408,86.261-0.141c11.631-0.223,23.268-0.507,34.899-0.473c14.229,0.041,28.459,0.597,42.688,0.592
	c15.465-0.005,30.938-0.835,46.39-0.491c14.131,0.313,28.268,0.882,42.389,0.51c56.105-1.48,112.216-0.463,168.323-0.64
	c49.92-0.157,99.841-0.042,149.762-0.056c36.254-0.01,72.508-0.05,108.762-0.041c9.512,0.003,8.7-1.146,8.7,8.403
	c-0.01,93.479-0.033,186.958-0.053,280.438c-0.012,57.806-0.046,115.611-0.032,173.417c0.017,62.955,0.118,125.91,0.103,188.865
	c-0.012,41.641-0.165,83.279-0.252,124.916c-1.163-0.031-2.329-0.088-3.494-0.088c-102.455-0.02-204.909-0.037-307.364-0.049
	c-122.444-0.016-244.889-0.033-367.333-0.029c-31.815,0-63.63,0.082-95.444,0.125c-0.141-0.193-0.327-0.322-0.555-0.383
	c0.034-0.828,0.091-1.658,0.091-2.488c-0.03-56.432-0.041-112.863-0.115-169.295C124.709,716.17,124.476,703.207,124.342,690.246z
	 M891.817,515.848c0.044-17.47,0.127-34.938,0.126-52.406c0-87.396-0.016-174.79-0.04-262.185
	c-0.006-22.297-0.068-44.595-0.105-66.892c-0.033-2.001-1.489-1.279-2.518-1.285c-15.812-0.099-31.62-0.267-47.432-0.253
	c-27.111,0.023-54.224,0.211-81.336,0.242c-39.923,0.047-79.846,0.056-119.77,0.007c-24.725-0.03-49.448-0.269-74.172-0.278
	c-19.95-0.009-39.9,0.259-59.852,0.267c-24.265,0.01-48.528-0.125-72.794-0.198c-1.309-0.139-2.616-0.398-3.925-0.399
	c-31.445-0.034-62.891-0.048-94.336-0.034c-1.478,0.001-2.953,0.278-4.43,0.427c-12.97,0.074-25.938,0.223-38.906,0.209
	c-51.293-0.056-102.586-0.093-153.877-0.357c-4.993-0.026-6.703,1.002-6.646,6.375c0.319,30.487,0.281,60.979,0.269,91.47
	c-0.045,106.465-0.158,212.93-0.19,319.395c-0.024,79.475,0.033,158.949,0.061,238.424c0.012,33.654,0.117,67.313-0.037,100.967
	c-0.018,4.025,1.183,4.934,4.985,4.855c14.821-0.293,29.647-0.268,44.472-0.359c27.316,0.059,54.632,0.156,81.948,0.16
	c20.818,0,41.636-0.121,62.454-0.188c0.875,0.004,1.751,0.008,2.626,0.012c1.491,0.078,2.981,0.221,4.474,0.223
	c44.158,0.02,88.315,0.049,132.475,0.018c26.485-0.02,52.971-0.141,79.456-0.217c6.211,0.338,12.421,0.428,18.63-0.033
	c8.317,0.084,16.634,0.246,24.951,0.234c29.132-0.043,58.263-0.146,87.396-0.229c1.872-0.012,3.743-0.021,5.616-0.031
	c1.824,0.084,3.648,0.24,5.474,0.24c44.328,0.008,88.655,0.006,132.983-0.012c22.498-0.008,44.997-0.127,67.493,0.016
	c3.71,0.021,5.088-0.947,4.755-4.74c-0.35-3.973-0.232-7.99-0.232-11.99c-0.001-73.15,0.016-146.305,0.017-219.457
	c0.001-23.488-0.031-46.979-0.048-70.471c-0.234-1.604-0.67-3.207-0.674-4.811c-0.057-20.633-0.066-41.266-0.029-61.896
	C891.13,519.059,891.577,517.453,891.817,515.848z"/>
</svg>
