<svg version="1.1" id="Layer_1" xmlns="http://www.w3.org/2000/svg" xmlns:xlink="http://www.w3.org/1999/xlink" x="0px" y="0px"
	 width="1024.191px" height="1024.19px" viewBox="0 0 1024.191 1024.19" enable-background="new 0 0 1024.191 1024.19"
	 xml:space="preserve">
<path fill-rule="evenodd" clip-rule="evenodd" fill="#333C5D" d="M899.98,185.837c-0.042,2.903-0.064,5.808-0.13,8.711
	c-0.242,10.793-0.685,21.586-0.679,32.378c0.003,6.289,0.861,12.563,0.649,18.886c-0.349,10.387-1.161,20.819-0.578,31.165
	c1.266,22.464,0.682,44.924,0.373,67.366c-0.132,9.542-0.259,19.165-0.08,28.656c0.133,7.027-1.438,14.077,0.097,21.211
	c0.837,3.895-0.536,8.216-0.499,12.341c0.155,17.292,0.579,34.582,0.671,51.874c0.042,7.895-1.041,15.828-0.549,23.678
	c0.495,7.896,0.425,15.768,0.499,23.646c0.045,4.793-0.955,9.633-0.57,14.377c1.053,13.008-0.307,25.996,0.43,39.042
	c0.921,16.311-0.367,32.754-0.309,49.114c0.085,23.794,0.587,47.593,0.502,71.393c-0.019,5.464-0.836,10.939-0.644,16.387
	c0.745,21.115,1.027,42.239,0.54,63.351c-0.284,12.359,0.136,24.693,0.133,37.038c-0.003,14.081,0.525,28.186-0.111,42.236
	c-0.683,15.066,1.199,30.13-0.512,45.185c-0.442,3.892,0.237,7.931,0.591,11.885c0.317,3.55-1.138,4.485-4.606,4.461
	c-19.655-0.139-39.314-0.157-58.97,0.026c-12.217,0.113-24.465,0.518-36.646,0.398c-12.249-0.12-24.514-0.231-36.769-0.278
	c-8.15,0.014-16.307,0.027-24.462,0.041c-15.104,0.143-30.259,0.478-45.307,0.228c-21.943-0.364-43.884-0.047-65.821-0.367
	c-14.994-0.219-29.994-0.079-44.991-0.078c-86.2,0.008-172.401,0.024-258.602,0.034c-10.884,0.001-21.775-0.264-32.65,0.042
	c-11.8,0.332-23.625-0.531-35.364,0.162c-9.686,0.572-19.361,0.169-29.017,0.382c-8.877,0.195-17.864-0.614-26.818-0.605
	c-22.884,0.023-45.769-0.085-68.652,0.071c-3.832,0.026-5.025-0.875-5.021-4.94c0.12-125.477,0.107-250.953,0.096-376.43
	c-0.009-108.813-0.056-217.626-0.054-326.438c0-22.49,0.138-44.981,0.208-67.469c19.482-0.057,38.967-0.117,58.452-0.177
	c2.516,0.004,5.032,0.007,7.544,0.011c10.82-0.002,21.643-0.005,32.467-0.007c11.18,0,22.359,0,33.535,0
	c14.147,0.003,28.3,0.005,42.451,0.007c1.189-0.005,2.38-0.009,3.565-0.013c1.154,0.074,2.313,0.213,3.471,0.213
	c46.331,0.02,92.661,0.054,138.991,0.022c23.991-0.016,47.981-0.148,71.972-0.229c3.185-0.008,6.368-0.015,9.548-0.021
	c14.822,0.006,29.649,0.012,44.476,0.018c1.174-0.006,2.347-0.011,3.517-0.017c9.48,0.003,18.964,0.005,28.447,0.007
	c1.194,0.003,2.389,0.005,3.578,0.007c12.485,0.07,24.975,0.209,37.464,0.197c28.986-0.027,57.973-0.128,86.959-0.199
	c1.193,0,2.386,0.001,3.575,0.001c8.479,0.003,16.963,0.007,25.447,0.01c2.513,0,5.024,0,7.533,0
	c20.146-0.002,40.294-0.004,60.442-0.006c0.862-0.009,1.725-0.018,2.583-0.027c22.187,0.059,44.377,0.117,66.568,0.175
	c2.253,5.009-0.574,10.258,0.751,15.374c0.563,2.172,0.15,4.597,0.182,6.902c-0.921,6.422-0.517,12.896-0.393,19.331
	C899.607,172.992,898.535,179.454,899.98,185.837z M133.387,626.365c-0.072,1.322-0.207,2.645-0.207,3.967
	c-0.022,41.226-0.058,82.451-0.03,123.677c0.014,20.272,0.149,40.545,0.23,60.818c-0.004,3.841-0.009,7.682-0.013,11.522
	c0,13.491,0,26.982-0.001,40.474c-0.128,8.481-0.499,16.963,0.185,25.438c2.632,1.475,5.493,0.698,8.229,0.698
	c114.461,0.026,228.923-0.012,343.385-0.022c133.789-0.012,267.579-0.003,401.369-0.04c1.757-0.001,3.658,0.627,5.286-0.646
	c0.124-1.644,0.357-3.287,0.358-4.932c0.047-73.319,0.088-146.64,0.097-219.959c0.011-98.148-0.012-196.296-0.009-294.443
	c0.003-78.984-0.003-157.97,0.116-236.954c0.006-3.426-1.055-4.014-4.187-3.997c-25.828,0.142-51.656,0.119-77.485,0.12
	c-217.461,0.009-434.922,0.009-652.384,0.032c-8.15,0.001-16.301,0.221-24.452,0.338c-0.223,0.412-0.641,0.825-0.641,1.238
	c0.023,27.709,0.08,55.418,0.134,83.127c0.007,3.172,0.014,6.344,0.021,9.516c-0.009,16.163-0.019,32.325-0.028,48.488
	c0.001,2.843,0.002,5.685,0.004,8.527c-0.057,29.49-0.151,58.98-0.156,88.472c-0.003,20.991,0.114,41.982,0.177,62.974
	c-0.005,2.52-0.01,5.04-0.016,7.561c0.002,35.154,0.005,70.31,0.008,105.465c-0.003,1.166-0.006,2.331-0.009,3.497
	c-0.001,21.832-0.002,43.664-0.003,65.495C133.372,619.999,133.379,623.182,133.387,626.365z"/>
<path fill-rule="evenodd" clip-rule="evenodd" fill="#E9D094" d="M518.806,124.823c-23.99,0.08-47.98,0.213-71.972,0.229
	c-46.33,0.031-92.66-0.003-138.991-0.022c-1.158,0-2.316-0.139-3.471-0.213c1.319-1.074,2.882-0.622,4.333-0.622
	c68.588-0.014,137.176-0.005,205.763,0.027C515.921,124.222,517.481,123.774,518.806,124.823z"/>
<path fill-rule="evenodd" clip-rule="evenodd" fill="#E9D094" d="M732.794,124.814c-28.986,0.071-57.973,0.172-86.959,0.199
	c-12.489,0.012-24.979-0.127-37.464-0.197c6.062-1.402,12.213-0.605,18.308-0.625c33.763-0.108,67.525-0.042,101.287,0.005
	C729.578,124.199,731.306,123.697,732.794,124.814z"/>
<path fill-rule="evenodd" clip-rule="evenodd" fill="#E9D094" d="M898.944,124.967c-22.191-0.058-44.382-0.116-66.568-0.175
	c0.95-0.208,1.896-0.596,2.842-0.597c20.151-0.03,40.302-0.021,60.453-0.005C896.807,124.191,898.032,123.958,898.944,124.967z"/>
<path fill-rule="evenodd" clip-rule="evenodd" fill="#E9D094" d="M829.792,124.819c-20.148,0.002-40.297,0.004-60.442,0.006
	c0.805-0.787,1.828-0.681,2.814-0.68c18.432,0.016,36.863,0.03,55.295,0.085C828.238,124.232,829.015,124.614,829.792,124.819z"/>
<path fill-rule="evenodd" clip-rule="evenodd" fill="#E9D094" d="M184.81,124.818c-19.485,0.06-38.97,0.12-58.452,0.177
	c0.669-1.015,1.721-0.862,2.697-0.861c17.805,0.015,35.61,0.031,53.415,0.087C183.25,124.224,184.03,124.61,184.81,124.818z"/>
<path fill-rule="evenodd" clip-rule="evenodd" fill="#E9D094" d="M572.83,124.819c-14.826-0.006-29.653-0.012-44.476-0.018
	c6.047-1.418,12.182-0.573,18.257-0.539C555.348,124.312,564.121,123.363,572.83,124.819z"/>
<path fill-rule="evenodd" clip-rule="evenodd" fill="#E9D094" d="M300.807,124.829c-14.151-0.002-28.304-0.004-42.451-0.007
	c6.039-1.449,12.179-0.666,18.245-0.579C284.667,124.359,292.776,123.29,300.807,124.829z"/>
<path fill-rule="evenodd" clip-rule="evenodd" fill="#E9D094" d="M899.98,185.837c-1.445-6.383-0.373-12.845-0.496-19.263
	c-0.124-6.436-0.528-12.909,0.393-19.331C899.911,160.111,899.946,172.974,899.98,185.837z"/>
<path fill-rule="evenodd" clip-rule="evenodd" fill="#E9D094" d="M224.821,124.822c-10.824,0.002-21.647,0.005-32.467,0.007
	C203.179,123.805,214,123.745,224.821,124.822z"/>
<path fill-rule="evenodd" clip-rule="evenodd" fill="#E9D094" d="M604.793,124.81c-9.483-0.002-18.967-0.004-28.447-0.007
	C585.832,123.759,595.313,123.774,604.793,124.81z"/>
<path fill-rule="evenodd" clip-rule="evenodd" fill="#E9D094" d="M761.817,124.825c-8.484-0.003-16.968-0.007-25.447-0.01
	C744.855,123.722,753.336,123.809,761.817,124.825z"/>
<path fill-rule="evenodd" clip-rule="evenodd" fill="#E9D094" d="M738.351,900.404c8.155-0.014,16.312-0.027,24.462-0.041
	C754.659,901.384,746.505,901.343,738.351,900.404z"/>
<path fill-rule="evenodd" clip-rule="evenodd" fill="none" d="M133.369,442.358c0.005-2.521,0.01-5.041,0.016-7.557
	c0.982-1.339,0.581-2.892,0.583-4.349c0.036-46.418,0.061-92.837,0.013-139.255c-0.002-2.605,0.602-5.314-0.616-7.846
	c-0.001-2.843-0.003-5.685-0.004-8.523c1.382-7.215,0.564-14.506,0.524-21.751c-0.05-8.911,0.813-17.852-0.496-26.741
	c-0.007-3.172-0.014-6.344-0.021-9.513c0.196-0.777,0.563-1.56,0.563-2.342c0.002-27.342-0.029-54.685-0.056-82.026
	c8.151-0.117,16.301-0.337,24.452-0.338c217.462-0.023,434.923-0.023,652.384-0.032c25.829-0.001,51.657,0.021,77.485-0.12
	c3.132-0.017,4.192,0.571,4.187,3.997c-0.119,78.984-0.113,157.97-0.116,236.954c-0.003,98.147,0.02,196.295,0.009,294.443
	c-0.009,73.319-0.05,146.64-0.097,219.959c-0.001,1.645-0.234,3.288-0.356,4.93c-0.994-0.053-1.991-0.147-2.988-0.147
	c-86.477,0.006-172.952,0.028-259.429,0.03c-122.466,0.003-244.933-0.021-367.398-0.007c-42.819,0.005-85.637,0.089-128.456,0.136
	c-0.683-8.475-0.313-16.956-0.185-25.434c1.115-1.844,0.611-3.891,0.561-5.822c-0.303-11.551,0.783-23.124-0.56-34.655
	c0.004-3.841,0.009-7.682,0.013-11.519c0.929-1.169,0.574-2.552,0.574-3.849c0.017-59.92,0.021-119.839-0.007-179.758
	c-0.001-1.62,0.462-3.339-0.56-4.859c-0.007-3.184-0.015-6.366-0.022-9.546c0.196-0.779,0.563-1.563,0.564-2.347
	c0.034-20.266,0.036-40.531,0.006-60.798c-0.001-0.785-0.369-1.569-0.566-2.354c0.003-1.166,0.006-2.331,0.009-3.493
	c0.903-1.172,0.584-2.554,0.585-3.851c0.013-32.755,0.004-65.51-0.013-98.265C133.948,444.572,134.189,443.366,133.369,442.358z
	 M647.204,278.229c-0.992-0.064-1.99-0.229-2.976-0.177c-4.652,0.25-5.639,1.783-3.615,6.084c0.831,1.769,0.058,2.758-0.855,3.985
	c-2.149,2.891-5.407,4.063-8.439,5.593c-1.287,0.466-2.549,0.393-3.908,0.16c-10.818-1.851-21.134-5.598-31.693-8.408
	c-31.3-8.331-63.041-13.438-95.454-14.165c-17.122-0.384-34.192,0.263-51.265,1.718c-20.771,1.771-41.331,4.841-61.589,9.634
	c-37.106,8.781-72.584,22.078-106.545,39.43c-12.525,6.399-24.388,13.917-36.332,21.301c-0.862,0.533-2.355,1.246-1.917,2.406
	c0.452,1.195,1.678,0.888,2.955,0.433c8.438-3.012,17.312-3.542,26.139-4.076c12.532-0.758,24.765,1.331,36.741,4.825
	c9.075,2.647,17.709,6.398,25.258,12.232c2.218,1.714,3.826,4.772,6.242,5.528c2.771,0.866,3.809-3.147,6.162-4.541
	c8.325-4.931,16.643-9.877,24.975-14.804c17.909-10.589,36.695-19.229,56.182-26.422c18.648-6.885,37.682-12.403,57.027-17.029
	c21.154-5.06,42.588-8.007,64.194-9.758c14.504-1.176,29.089-0.549,43.61,0.003c3.682,0.141,7.688,0.334,11.411,1.578
	c-2.825,0.358-5.634,0.468-8.433,0.34c-14.149-0.644-28.19,1.002-42.205,2.367c-21.356,2.082-42.332,6.67-63.056,12.043
	c-42.092,10.912-82.928,25.348-121.785,45.118c-11.175,5.686-21.671,12.725-33.578,16.998c1.184,1.926,3.088,1.333,4.829,1.477
	c3.944,0.325,7.833-0.335,11.874,0.431c8.626,1.635,17.041,3.916,25.329,6.685c18.672,6.237,36.056,14.969,51.987,26.648
	c10.556,7.738,20.239,16.279,28.466,26.501c9.357,11.627,19.085,22.949,20.323,38.866c0.243,3.125,1.662,0.937,2.527-0.018
	c1.063-0.383,1.848-1.065,2.293-2.116c17.688-3.897,35.6-3.104,53.592-3.053c-7.987,13.838-15.698,27.267-23.476,40.656
	c-16.677,28.706-33.43,57.368-50.072,86.095c-14.998,25.89-30.02,51.77-46.112,76.999c-8.438,13.229-17.164,26.22-27.163,38.437
	c-8.437,10.308-17.235,20.037-28.549,26.906c-10.188,6.187-18.906,7.43-28.212,0.008c-8.193-6.535-7.86-15.275-5.885-24.279
	c0.998-4.551,4.146-8.138,6.051-12.289c1.839-4.009,0.372-8.078-4.049-10.317c-3.252-1.647-7.638-2.931-9.863,0.543
	c-6.433,10.042-11.446,20.687-10.374,33.26c1.898,22.283,21.883,35.516,39.972,36.8c14.359,1.019,28.858,0.072,43.296-0.002
	c16.791,0.063,33.582,0.179,50.373,0.174c22.78-0.007,45.56-0.106,68.34-0.167c14.797,0.144,29.595,0.287,44.392,0.43
	c11.051,1.453,22.073,0.518,33.107,0.296c-1.256-1.894-2.745-1.511-4.202-1.332c-2.997,0.027-5.902-0.799-8.837-1.07
	c-16.12-1.493-32.249-3-48.407-3.941c-16.729-0.975-33.491-1.496-50.246-1.877c-24.954-0.568-49.909-0.558-74.853,0.676
	c-7.953,0.394-15.925-0.398-23.89,0.898c-4.062,0.662-8.319,0.116-13.993,0.116c11.688-5.428,20.471-12.264,28.086-20.604
	c13.602-14.899,25.049-31.425,35.873-48.37c24.823-38.861,46.937-79.317,69.8-119.33c17.96-31.43,35.714-62.978,53.598-94.451
	c0.596-1.049,0.681-2.038,3.069-1.679c22.394,3.365,43.501,10.7,63.865,20.241c15.312,7.173,29.851,15.767,42.479,27.166
	c11.199,10.107,23.245,19.615,27.809,35.048c0.205,0.692,0.632,2.059,2.266,1.595c0.543-3.392-1.483-6.706-0.599-10.22
	c1.358-5.395,0.538-10.849,0.253-16.31c-0.248-4.753-0.934-9.579,0.464-14.302c0.042-7.447,0.28-14.9,0.067-22.341
	c-0.184-6.401,0.761-12.857-0.747-19.207c-0.397-8.454-0.765-16.91-1.203-25.361c-0.327-6.286-0.482-12.598-1.183-18.846
	c-1.442-12.879-2.943-25.763-4.9-38.571c-1.775-11.618-3.635-23.225-6.446-34.688c-1.602-6.529-4.409-12.806-4.39-19.711
	c17.4,40.907,23.484,84.15,26.104,128.109c-0.071,7.215-0.768,14.447,0.57,21.625c0.004,0.819,0.007,1.639,0.01,2.459
	c-1.378,6.518-0.672,13.096-0.569,19.656c-0.697,8.851-0.8,17.806-2.326,26.511c-0.845,4.819,0.531,9.988-2.167,14.471
	c-0.439,0.729-1.866,0.97-1.08,2.25c0.632,1.028,1.756,1.047,2.688,0.833c6.404-1.465,12.769-0.263,19.177-0.141
	c12.373,0.236,24.392,2.402,36.189,5.546c18.506,4.931,36.172,12.072,51.648,23.678c8.723,6.542,16.51,14.091,21.567,23.966
	c0.593,1.159,0.549,2.936,2.206,2.646c2.282-0.398,1.144-2.219,0.977-3.59c-1.953-15.989-5.933-31.513-9.857-47.12
	c-8.156-32.436-19.591-63.633-33.889-93.754c-15.955-33.613-36.32-64.423-60.367-92.902c-14.72-17.435-30.95-33.129-49.112-46.813
	c-7.836-5.903-15.299-12.227-22.899-18.398C658.4,292.12,660.771,284.205,647.204,278.229z"/>
<path fill-rule="evenodd" clip-rule="evenodd" fill="#E9D094" d="M133.55,892.261c42.818-0.047,85.637-0.131,128.456-0.136
	c122.466-0.014,244.933,0.01,367.398,0.007c86.477-0.002,172.952-0.024,259.429-0.03c0.997,0,1.994,0.095,2.988,0.147
	c-1.63,1.274-3.531,0.646-5.288,0.647c-133.79,0.037-267.58,0.028-401.369,0.04c-114.462,0.011-228.924,0.049-343.385,0.022
	C139.043,892.959,136.182,893.735,133.55,892.261z"/>
<path fill-rule="evenodd" clip-rule="evenodd" fill="#E9D094" d="M133.387,626.365c1.022,1.521,0.559,3.239,0.56,4.859
	c0.027,59.919,0.024,119.838,0.007,179.758c0,1.297,0.355,2.68-0.574,3.849c-0.081-20.277-0.216-40.55-0.23-60.822
	c-0.028-41.226,0.008-82.451,0.03-123.677C133.18,629.01,133.314,627.688,133.387,626.365z"/>
<path fill-rule="evenodd" clip-rule="evenodd" fill="#E9D094" d="M133.364,283.353c1.218,2.531,0.613,5.24,0.616,7.846
	c0.048,46.418,0.023,92.837-0.013,139.255c-0.001,1.457,0.4,3.01-0.583,4.349c-0.063-20.995-0.18-41.986-0.177-62.978
	C133.213,342.333,133.308,312.843,133.364,283.353z"/>
<path fill-rule="evenodd" clip-rule="evenodd" fill="#E9D094" d="M133.369,442.358c0.82,1.008,0.579,2.214,0.58,3.354
	c0.018,32.755,0.026,65.51,0.013,98.265c0,1.297,0.318,2.679-0.585,3.851C133.375,512.668,133.372,477.513,133.369,442.358z"/>
<path fill-rule="evenodd" clip-rule="evenodd" fill="#E9D094" d="M133.874,132.456c0.027,27.342,0.059,54.685,0.056,82.026
	c0,0.782-0.367,1.564-0.563,2.342c-0.054-27.712-0.11-55.421-0.134-83.13C133.233,133.281,133.651,132.868,133.874,132.456z"/>
<path fill-rule="evenodd" clip-rule="evenodd" fill="#E9D094" d="M133.368,551.32c0.197,0.785,0.565,1.569,0.566,2.354
	c0.03,20.267,0.028,40.532-0.006,60.798c-0.001,0.784-0.368,1.567-0.564,2.347C133.365,594.984,133.367,573.152,133.368,551.32z"/>
<path fill-rule="evenodd" clip-rule="evenodd" fill="#E9D094" d="M133.388,226.337c1.31,8.89,0.446,17.83,0.496,26.741
	c0.04,7.245,0.858,14.536-0.524,21.751C133.37,258.662,133.379,242.5,133.388,226.337z"/>
<path fill-rule="evenodd" clip-rule="evenodd" fill="#E9D094" d="M133.366,826.35c1.343,11.531,0.256,23.104,0.56,34.655
	c0.05,1.932,0.555,3.979-0.561,5.822C133.366,853.332,133.366,839.841,133.366,826.35z"/>
<path fill-rule="evenodd" clip-rule="evenodd" fill="#333C5D" d="M650.053,302.156c7.601,6.172,15.063,12.495,22.899,18.398
	c18.162,13.684,34.393,29.378,49.112,46.813c24.047,28.479,44.412,59.289,60.367,92.902c14.298,30.121,25.732,61.318,33.889,93.754
	c3.925,15.607,7.904,31.131,9.857,47.12c0.167,1.371,1.306,3.191-0.977,3.59c-1.657,0.289-1.613-1.487-2.206-2.646
	c-5.058-9.875-12.845-17.424-21.567-23.966c-15.477-11.605-33.143-18.747-51.648-23.678c-11.798-3.144-23.816-5.31-36.189-5.546
	c-6.408-0.122-12.772-1.324-19.177,0.141c-0.932,0.214-2.056,0.195-2.688-0.833c-0.786-1.28,0.641-1.521,1.08-2.25
	c2.698-4.482,1.322-9.651,2.167-14.471c1.526-8.705,1.629-17.66,2.325-26.507c1.077-6.525,0.73-13.096,0.57-19.66
	c-0.003-0.82-0.006-1.64-0.01-2.456c0.228-7.218,0.551-14.442-0.57-21.628c-2.62-43.959-8.704-87.202-26.104-128.109
	c-0.02,6.905,2.788,13.182,4.39,19.711c2.812,11.463,4.671,23.069,6.446,34.688c1.957,12.809,3.458,25.692,4.9,38.571
	c0.7,6.248,0.855,12.56,1.183,18.846c0.438,8.451,0.806,16.907,1.203,25.357c-0.053,2.805-0.276,5.622-0.126,8.418
	c0.596,11.038-0.579,22.118,0.806,33.134c-1.397,4.723-0.712,9.549-0.464,14.302c0.285,5.461,1.105,10.915-0.253,16.31
	c-0.885,3.514,1.142,6.828,0.599,10.22c-1.634,0.464-2.061-0.902-2.266-1.595c-4.563-15.433-16.609-24.94-27.809-35.048
	c-12.629-11.399-27.168-19.993-42.479-27.166c-20.364-9.541-41.472-16.876-63.865-20.241c-2.389-0.359-2.474,0.63-3.069,1.679
	c-17.884,31.474-35.638,63.021-53.598,94.451c-22.863,40.013-44.977,80.469-69.8,119.33c-10.824,16.945-22.271,33.471-35.873,48.37
	c-7.615,8.341-16.397,15.177-28.086,20.604c5.674,0,9.932,0.546,13.993-0.116c7.965-1.297,15.937-0.505,23.89-0.898
	c24.943-1.233,49.898-1.244,74.853-0.676c16.755,0.381,33.517,0.902,50.246,1.877c16.158,0.941,32.287,2.448,48.407,3.941
	c2.935,0.271,5.84,1.098,8.833,1.07c-1.587,1.834-3.708,1.027-5.603,1.042c-7.766,0.061-15.532,0.007-23.299-0.006
	c-14.797-0.143-29.595-0.286-44.388-0.429c-0.801-0.14-1.606-0.4-2.413-0.402c-24.642-0.085-49.284-0.287-73.925-0.154
	c-14.125,0.076-28.267-0.611-42.379,0.549c-14.438,0.074-28.937,1.021-43.296,0.002c-18.089-1.284-38.073-14.517-39.972-36.8
	c-1.072-12.573,3.941-23.218,10.374-33.26c2.226-3.474,6.611-2.19,9.863-0.543c4.421,2.239,5.888,6.309,4.049,10.317
	c-1.904,4.151-5.053,7.738-6.051,12.289c-1.976,9.004-2.309,17.744,5.885,24.279c9.306,7.422,18.024,6.179,28.212-0.008
	c11.313-6.869,20.112-16.599,28.549-26.906c9.999-12.217,18.725-25.208,27.163-38.437c16.093-25.229,31.114-51.109,46.112-76.999
	c16.643-28.727,33.396-57.389,50.072-86.095c7.777-13.39,15.488-26.818,23.476-40.656c-17.992-0.052-35.903-0.845-53.592,3.053
	c-0.101-0.866,0.229-1.489,0.77-2.22c13.986-18.896,27.448-38.171,41.688-56.892c7.244-9.522,14.518-18.985,22.315-28.057
	c4.928-5.731,9.492-11.787,14.601-17.349c8.373-9.116,16.718-18.31,25.747-26.751c4.648-4.346,9.23-8.695,13.827-13.266
	c-1.595-0.804-2.142,0.337-2.868,0.874c-12.562,9.284-23.62,20.281-34.886,31.012c-12.37,11.783-23.641,24.628-34.699,37.642
	c-10.459,12.307-20.357,25.051-29.445,38.408c-6.932,10.188-13.924,20.365-19.005,31.637c-0.896,1.988-4.517,4.571-0.338,7.077
	c-0.865,0.954-2.284,3.143-2.527,0.018c-1.238-15.917-10.966-27.239-20.323-38.866c-8.227-10.222-17.91-18.763-28.466-26.501
	c-15.932-11.68-33.315-20.411-51.987-26.648c-8.288-2.769-16.703-5.05-25.329-6.685c-4.041-0.766-7.93-0.105-11.874-0.431
	c-1.741-0.144-3.646,0.449-4.829-1.477c11.907-4.273,22.403-11.313,33.578-16.998c38.857-19.771,79.693-34.206,121.785-45.118
	c20.724-5.373,41.699-9.961,63.056-12.043c14.015-1.365,28.056-3.011,42.205-2.367c2.799,0.128,5.607,0.019,8.433-0.34
	c-3.723-1.244-7.729-1.438-11.411-1.578c-14.521-0.552-29.106-1.179-43.61-0.003c-21.606,1.751-43.04,4.698-64.194,9.758
	c-19.346,4.626-38.379,10.145-57.027,17.029c-19.486,7.193-38.272,15.833-56.182,26.422c-8.332,4.927-16.649,9.873-24.975,14.804
	c-2.354,1.394-3.392,5.407-6.162,4.541c-2.416-0.756-4.024-3.814-6.242-5.528c-7.549-5.834-16.183-9.585-25.258-12.232
	c-11.977-3.494-24.209-5.583-36.741-4.825c-8.827,0.534-17.7,1.064-26.139,4.076c-1.276,0.455-2.502,0.763-2.955-0.433
	c-0.438-1.16,1.055-1.873,1.917-2.406c11.944-7.384,23.806-14.901,36.332-21.301c33.961-17.352,69.438-30.648,106.545-39.43
	c20.258-4.793,40.818-7.863,61.589-9.634c17.072-1.455,34.143-2.102,51.265-1.718c32.413,0.728,64.154,5.834,95.454,14.165
	c10.56,2.811,20.875,6.558,31.693,8.408c1.359,0.232,2.621,0.306,3.905-0.157c4.817-0.028,7.613,4.174,11.729,5.617
	C645.165,300.81,647.366,302.089,650.053,302.156z"/>
<path fill-rule="evenodd" clip-rule="evenodd" fill="none" d="M479.791,471.216c-4.179-2.506-0.559-5.089,0.338-7.077
	c5.081-11.271,12.073-21.449,19.005-31.637c9.088-13.357,18.986-26.102,29.445-38.408c11.059-13.014,22.329-25.858,34.699-37.642
	c11.266-10.73,22.324-21.728,34.886-31.012c0.727-0.537,1.273-1.678,2.868-0.874c-4.597,4.57-9.179,8.92-13.827,13.266
	c-9.029,8.441-17.374,17.635-25.747,26.751c-5.108,5.562-9.673,11.617-14.601,17.349c-7.798,9.071-15.071,18.534-22.315,28.057
	c-14.24,18.721-27.702,37.995-41.688,56.892c-0.541,0.73-0.87,1.354-0.77,2.22C481.638,470.15,480.853,470.833,479.791,471.216z"/>
<path fill-rule="evenodd" clip-rule="evenodd" fill="#735724" d="M650.053,302.156c-2.688-0.067-4.889-1.347-7.01-2.822
	c7.244-8.012,7.738-12.639,1.755-16.934c0.498-1.556,2.365-2.351,2.405-4.171C660.771,284.205,658.4,292.12,650.053,302.156z"/>
<path fill-rule="evenodd" clip-rule="evenodd" fill="#C0982A" d="M647.204,278.229c-0.04,1.82-1.907,2.615-2.405,4.171
	c5.983,4.295,5.489,8.922-1.755,16.934c-4.115-1.442-6.911-5.645-11.729-5.616c3.035-1.533,6.293-2.705,8.442-5.596
	c0.913-1.228,1.687-2.217,0.855-3.985c-2.023-4.301-1.037-5.834,3.615-6.084C645.213,278,646.211,278.165,647.204,278.229z"/>
<path fill-rule="evenodd" clip-rule="evenodd" fill="#E9D094" d="M391.239,758.862c14.112-1.16,28.254-0.473,42.379-0.549
	c24.641-0.133,49.283,0.069,73.925,0.154c0.807,0.002,1.612,0.263,2.413,0.402c-22.784,0.06-45.563,0.159-68.344,0.166
	C424.821,759.041,408.03,758.925,391.239,758.862z"/>
<path fill-rule="evenodd" clip-rule="evenodd" fill="#E9D094" d="M689.986,511.849c-1.385-11.016-0.21-22.096-0.806-33.134
	c-0.15-2.796,0.073-5.613,0.126-8.418c1.508,6.354,0.563,12.81,0.747,19.211C690.266,496.948,690.028,504.401,689.986,511.849z"/>
<path fill-rule="evenodd" clip-rule="evenodd" fill="#E9D094" d="M554.343,759.299c7.767,0.013,15.533,0.066,23.299,0.006
	c1.895-0.015,4.016,0.792,5.603-1.042c1.461-0.179,2.95-0.562,4.206,1.332C576.417,759.816,565.394,760.752,554.343,759.299z"/>
<path fill-rule="evenodd" clip-rule="evenodd" fill="#E9D094" d="M697.289,461.233c1.121,7.186,0.798,14.41,0.57,21.628
	C696.521,475.681,697.217,468.448,697.289,461.233z"/>
<path fill-rule="evenodd" clip-rule="evenodd" fill="#E9D094" d="M697.869,485.317c0.16,6.564,0.507,13.135-0.57,19.66
	C697.197,498.413,696.491,491.835,697.869,485.317z"/>
</svg>
