<svg version="1.1" id="Layer_1" xmlns="http://www.w3.org/2000/svg" xmlns:xlink="http://www.w3.org/1999/xlink" x="0px" y="0px"
	 width="1024.191px" height="1024.191px" viewBox="0 0 1024.191 1024.191" enable-background="new 0 0 1024.191 1024.191"
	 xml:space="preserve">
<path fill-rule="evenodd" clip-rule="evenodd" fill="currentColor" d="M899.785,875.526c-0.086,8.007-0.173,16.015-0.258,24.021
	c-25.991,0.042-51.983,0.123-77.975,0.121c-206.11-0.012-412.221-0.03-618.33-0.071c-26.156-0.005-52.312-0.151-78.467-0.232
	c-0.058-97.307-0.12-194.613-0.171-291.92c-0.019-36.324-0.012-72.647-0.011-108.972c0-9.685,0.157-19.371-0.005-29.053
	c-0.153-9.122-0.933-18.24-0.896-27.357c0.058-13.782,0.853-27.562,0.871-41.343c0.12-91.996,0.117-183.993,0.153-275.988
	c7.321-0.036,14.642-0.09,21.963-0.107c26.289-0.063,52.577-0.115,78.866-0.172c23.381-0.002,46.762-0.004,70.143-0.007
	c9.616-0.002,19.233-0.004,28.852-0.006c1.719-0.003,3.438-0.005,5.155-0.007c15.614,0.006,31.229,0.012,46.845,0.018
	c4.385-0.003,8.77-0.005,13.154-0.007c26.28,0.002,52.562,0.004,78.844,0.006c0.718,0.002,1.436,0.004,2.152,0.007
	c9.283-0.005,18.567-0.009,27.852-0.013c1.715-0.001,3.43-0.003,5.145-0.005c8.318,0.066,16.637,0.198,24.956,0.187
	c25.301-0.035,50.603-0.127,75.904-0.197c3.38,0.005,6.761,0.009,10.14,0.013c1.658,0.068,3.317,0.196,4.977,0.196
	c93.298,0.001,186.596-0.008,279.895-0.017c0,0,0.034,0.034,0.033,0.034c0.064,67.476,0.13,134.952,0.194,202.429
	c0.06,62.811,0.118,125.622,0.177,188.433c0.002,1.385,0.003,2.771,0.004,4.154c-0.045,3.664-0.128,7.329-0.13,10.994
	c-0.068,93.302-0.141,186.604-0.181,279.905C899.625,832.222,899.732,853.874,899.785,875.526z M746.683,733.558
	c-0.273-0.242-0.547-0.484-0.819-0.727c-0.064,0.264-0.129,0.526-0.192,0.79c-0.193,0.244-0.289,0.521-0.287,0.833
	c-1.611-0.289-3.223-0.578-4.835-0.867c0.051-0.304-0.052-0.543-0.307-0.717c0.092-1.188,0.183-2.377,0.279-3.562l0.444-0.033
	l-0.036-0.349c1.335-2.576,0.823-3.835-2.305-3.226c-0.345-0.067-0.688-0.135-1.032-0.203c-0.524-0.584-1.049-1.169-1.572-1.754
	c-0.2,0.136-0.399,0.271-0.6,0.405c0.265,0.832,0.529,1.663,0.796,2.494l-0.354,0.028c-0.316-0.04-0.597,0.042-0.841,0.246
	c-1.898-1.891-3.797-3.781-5.695-5.672c0.299-0.154,0.435-0.399,0.405-0.733l0.351-0.175l-0.045-0.348
	c0.194-0.929,0.389-1.858,0.583-2.787c-0.138-0.185-0.304-0.337-0.498-0.456c-1.165-0.664-2.33-1.327-3.495-1.991
	c-2.237-1.707-4.344-3.639-6.753-5.051c-1.868-1.095-4.007-2.699-6.133,0.15c-2.911,3.901-8.655,3.558-11.105-0.479
	c-0.842-2.506-1.683-5.01-2.357-7.02c-2.401-0.643-4.485-1.199-6.569-1.757c-0.785-0.387-1.57-0.773-2.352-1.157l-0.148-0.388
	l-0.4-0.028c-0.398-0.118-0.796-0.236-1.193-0.354c-0.002-0.232-0.108-0.398-0.318-0.498l-0.012-0.257l-0.249,0.06
	c-1.099-0.053-2.197-0.105-3.296-0.159c-0.087,0.477-0.173,0.953-0.259,1.43c1.678,0.479,3.355,0.959,5.033,1.439
	c0.685,0.375,1.368,0.751,2.052,1.126c1.427,1.521,2.854,3.041,4.249,4.528c-0.224,0.177-0.813,0.645-1.401,1.111
	c-2.395,0.446-4.79,0.893-7.185,1.339c-0.762,0.01-1.523,0.021-2.285,0.03c-0.433,0.269-0.865,0.537-1.298,0.806
	c-0.994-0.816-1.989-1.634-2.983-2.451l-0.061,0.084c0.512-0.677,1.023-1.354,1.535-2.03l0.021-0.252l-0.209,0.131
	c-0.758-0.21-1.515-0.42-2.271-0.63c-1.943-2.351-3.886-4.702-5.809-7.029c-3.553,2.146-8.753,1.361-12.916-1.851
	c0.545-0.19,1.091-0.382,1.637-0.571c-0.574-0.37-1.148-0.74-1.723-1.11c-0.4-0.027-0.802-0.054-1.203-0.081
	c-0.716-0.883-1.406-1.788-2.153-2.644c-1.111-1.271-2.036-2.984-3.446-3.657c-2.729-1.301-5.742-2.007-8.637-2.96
	c-0.054-0.234-0.106-0.469-0.16-0.703c-0.233,0.224-0.467,0.447-0.7,0.671c-2.159-1.838-5.061-3.276-6.312-5.602
	c-2.084-3.873-8.234-7.019-12.005-5.126l-0.299-0.017c-0.197-0.224-0.434-0.392-0.7-0.498l-0.063-0.361l-0.365,0.054
	c0.179-1.027,0.357-2.055,0.499-2.867c-1.993-0.873-3.76-1.647-5.527-2.421c0.166-0.213,0.368-0.409,0.481-0.646
	c0.041-0.088-0.099-0.374-0.202-0.402c-1.665-0.46-3.396-0.744-4.999-1.359c-4.813-1.847-9.577-3.82-14.36-5.744
	c-0.365-0.263-0.729-0.524-1.095-0.787c-0.778-0.139-1.557-0.277-2.332-0.415l-0.191-0.393l-0.192,0.392
	c-0.791-0.659-1.581-1.317-2.372-1.977c-0.027-0.622-0.054-1.244-0.081-1.867c-0.499,0.108-0.997,0.217-1.496,0.324
	c-0.754-0.11-1.509-0.222-2.264-0.332c-0.369-0.869-0.494-2.083-1.149-2.545c-2.592-1.83-5.218-3.707-8.076-5.043
	c-5.004-2.337-10.083-5.615-15.326-6.032c-5.438-0.433-9.495-2.302-13.843-5.016c-3.371-2.103-7.419-3.12-11.166-4.62l-0.037-0.274
	l-0.042,0.272c-0.96-0.102-1.919-0.204-2.879-0.306l-0.213-0.265l-0.313,0.134c-0.113-0.543-0.228-1.085-0.342-1.628l-0.001-0.302
	l-0.306,0.033c-11.97-3.912-23.939-7.824-35.909-11.737l0.085-0.181l-0.181,0.061c-0.959-0.29-1.918-0.58-2.877-0.871l-0.026-0.311
	l-0.039,0.31c-6.616-1.546-13.188-3.317-19.857-4.584c-10.127-1.925-19.958-5.261-30.494-5.336
	c-5.563-0.039-11.074-2.232-16.675-2.749c-16.699-1.539-33.425-2.8-50.151-4.025c-7.402-0.543-14.838-1.146-22.243-0.989
	c-8.605,0.182-17.197,1.133-25.789,1.818c-4.078,0.325-8.137,0.912-12.217,1.202c-6.901,0.49-13.833,0.64-20.713,1.321
	c-4.341,0.431-8.611,1.567-12.906,2.386c-0.262-0.192-0.523-0.386-0.785-0.578c-0.266,0.132-0.461,0.331-0.589,0.598
	c-3.676,0.782-7.326,1.724-11.033,2.306c-4.756,0.747-10.869-0.399-14.019,2.177c-4.335,3.547-8.744,3.546-13.38,4.577
	c-4.312,0.96-8.477,2.582-12.707,3.912c-0.07-0.176-0.134-0.354-0.192-0.535c-1.476-0.022-2.951-0.046-4.427-0.068
	c0.053,0.457,0.105,0.915,0.158,1.372c-0.198,0.162-0.334,0.365-0.41,0.609c-3.69,0.348-7.464,0.33-11.047,1.147
	c-3.361,0.768-6.458,2.62-9.782,3.635c-6.188,1.889-12.603,3.114-18.661,5.335c-13.281,4.867-23.711,15.136-37.164,19.875
	c-6.235,2.196-12.303,5.09-18.051,8.362c-2.952,1.681-5.668,4.196-5.399,8.714c0.577,9.686,0.713,19.403,0.81,29.11
	c0.126,12.733,0.042,25.47,0.045,38.205c0.003,10.737,0.086,21.477-0.016,32.213c-0.19,20.098-0.532,40.194-0.708,60.292
	c-0.038,4.285,0.358,8.575,0.555,12.841c-0.013,8.371-0.026,16.743-0.039,25.114c0.009,9.51,0.018,19.02,0.026,28.53
	c2.292,0.197,4.584,0.567,6.876,0.568c100.995,0.063,201.989,0.118,302.984,0.123c84.162,0.004,168.324-0.07,252.486-0.08
	c63.829-0.008,127.659,0.044,191.488,0.013c2.544-0.001,5.088-0.588,7.632-0.901c0.152-0.57,0.305-1.141,0.456-1.711
	c-0.077-13.582-0.154-27.165-0.232-40.747c-0.062-6.946-0.2-13.894-0.168-20.839c0.056-12.241,0.216-24.482,0.333-36.724
	c-0.012-8.391-0.024-16.78-0.036-25.171c-0.148-5.805-0.636-11.627-0.328-17.407c0.211-3.959-1.336-6.803-3.647-9.572
	c0.067-0.114,0.216-0.263,0.186-0.334c-0.096-0.224-0.26-0.418-0.396-0.624c-2.677-0.225-5.631-1.454-7.292,2.008l0.032-0.033
	c-2.048,1.343-4.096,2.686-6.144,4.028c-0.619,0.016-1.237,0.031-1.855,0.046l0.018,0.007c-0.368-0.204-0.736-0.408-1.104-0.611
	c-0.533-0.039-1.065-0.078-1.603-0.118c-0.525-0.029-1.05-0.06-1.574-0.09c-0.388-0.065-0.775-0.131-1.162-0.196
	c-0.228-0.21-0.379-0.464-0.455-0.761c0.646-1.201,1.292-2.401,1.95-3.625c-4.701-1.928-4.701-1.928-9.665,3.798
	c-0.116,0.866-0.233,1.732-0.35,2.598c-0.159,0.395-0.318,0.789-0.477,1.184l-0.198,0.184l0.122,0.241
	c-0.179,0.14-0.324,0.308-0.437,0.505c-2.957,0.412-5.914,0.825-10.008,1.396c-0.06,0.197-0.546,1.791-1.031,3.385
	c-4.067,1.47-0.289,4.137-0.936,6.127c-0.22,0.151-0.438,0.303-0.658,0.453c0.317,0.227,0.634,0.452,0.951,0.678
	c0.082,0.571,0.164,1.142,0.246,1.713c-0.217,0.264-0.202,0.513,0.044,0.749c-0.509,0.091-1.017,0.183-1.525,0.273
	c-0.357-0.246-0.715-0.492-1.072-0.738c-1.593,0.565-3.186,1.131-5.264,1.869c-1.235-0.945-3.227-2.445-5.192-3.978
	c-2.015-1.57-4.004-3.173-6.005-4.762c-0.296-0.295-0.592-0.591-0.888-0.886c-0.515-0.842-1.03-1.683-1.545-2.524
	c-2.037-2.948-4.705-7.536-8.079-5.378c-4.972,3.181-6.278-1.311-9.169-2.437c0.401-0.915,0.804-1.83,0.773-1.762
	c-2.258-0.947-3.874-1.777-5.588-2.272c-0.711-0.206-1.629,0.302-2.452,0.485l-0.224-0.109l0.087,0.231
	c-1.853,0.174-3.705,0.347-5.556,0.52c-3.496,0.485-3.991,2.86-1.315,6.301l-0.271,0.062l0.246,0.129
	c-0.25,0.165-0.453,0.376-0.608,0.633c-3.62-0.15-7.272,0.469-10.86-0.451c-1.543-3.093-3.543-1.765-5.529-0.571
	c-0.688,0-1.377,0-2.064,0c0,0.157,0,0.315,0,0.474c0.688,0,1.377,0,2.066,0c-1.587,2.346-3.173,4.691-4.759,7.037
	c-1.008-0.914-2.016-1.829-3.023-2.744c-1.023-1.207-2.047-2.414-2.981-3.517c0.61-0.56,1.404-1.289,2.182-2.002
	c-2.996-2.733-5.449-3.207-8.286,0.17c-0.68,0.809-3.78,0.043-5.518-0.638c-1.517-0.594-2.68-2.087-4-3.183
	c0.044-0.779,0.089-1.558,0.133-2.337l0.273,0.146l0.026-0.274c0.771-0.987,1.541-1.975,3.332-4.271
	c-2.751,0-4.288,0.108-5.798-0.047c-0.735-0.075-1.42-0.644-2.128-0.989c0.254-0.363,0.508-0.726,0.762-1.089
	c-0.264-0.356-0.527-0.713-0.791-1.069L746.683,733.558z M633.642,528.489l0.057,0.053c-0.364-0.276-0.729-0.553-1.094-0.829
	c-0.672,0-1.343-0.001-2.015-0.002c-0.367,0.275-0.734,0.552-1.103,0.827l0.05-0.05c-0.281,0.367-0.563,0.735-0.846,1.104
	c-0.169,0.251-0.225,0.525-0.168,0.823c-0.001,0.425-0.003,0.85-0.004,1.274l-0.035-0.032c0.678,0.694,1.355,1.39,2.034,2.084
	l-0.034-0.052c0.754-0.012,1.508-0.023,2.262-0.036c0.311-0.331,0.622-0.662,0.934-0.993l-0.02,0.02
	c0.335-0.303,0.67-0.605,1.005-0.907c0.008-0.763,0.016-1.525,0.023-2.287l0.038,0.035
	C634.365,529.177,634.003,528.833,633.642,528.489z M411.474,406.672c0.371,0.267,0.741,0.533,1.112,0.801
	c0.419-0.991,0.838-1.981,1.257-2.972c-0.489,0.004-0.978,0.007-1.467,0.011c-0.285,0.298-0.57,0.596-0.855,0.895
	c-0.004,0.433-0.009,0.866-0.013,1.299L411.474,406.672z M406.432,324.686c0.37,0.34,0.739,0.68,1.108,1.02l-0.034-0.037
	c1.058,0.001,2.116,0.002,3.175,0.004l-0.021,0.027c0.346-0.348,0.692-0.695,1.038-1.043l-0.029,0.023
	c0.003-1.06,0.005-2.119,0.007-3.179l0.037,0.026c-0.353-0.347-0.706-0.693-1.06-1.04l0.033,0.032
	c-1.101-0.001-2.2-0.002-3.301-0.003c-0.282,0.305-0.565,0.61-0.848,0.916c-0.274,0.385-0.548,0.769-0.822,1.153
	c-0.008,0.337-0.016,0.675-0.022,1.013c0.268,0.386,0.536,0.772,0.805,1.158L406.432,324.686z M820.667,741.629
	c0.361-0.975,0.723-1.949,1.085-2.924c0.57-0.113,1.142-0.227,2.938-0.582c-1.846-0.347-2.449-0.459-3.051-0.571
	c-0.674-0.303-1.348-0.605-2.021-0.907c-2.052-0.066-5.148-1.151-2.902,2.975c0.379,0.684,0.758,1.367,1.136,2.05l0.039,0.308
	l0.219-0.051c0.84-0.087,1.68-0.175,2.52-0.263L820.667,741.629z M637.005,318.919c-0.387-0.617-0.774-1.233-1.161-1.851
	c-0.207,0.627-0.414,1.254-0.621,1.881c0.308,0.375,0.614,0.751,0.922,1.126C636.432,319.69,636.719,319.304,637.005,318.919z
	 M374.666,246.699c0.281-0.368,0.562-0.735,0.843-1.104c0.17-0.247,0.225-0.519,0.164-0.813c0-0.459,0-0.917-0.001-1.375
	c0.063-0.296,0.007-0.566-0.17-0.812c-0.303-0.308-0.605-0.616-0.908-0.924c-1.328,0.026-2.657,0.054-3.986,0.08
	c-0.033,1.648-0.066,3.297-0.1,4.945l-0.016-0.013c1.398-0.002,2.796-0.003,4.193-0.005L374.666,246.699z M659.437,281.584
	c-0.61-0.643-1.22-1.286-1.83-1.93c-0.177,0.891-0.353,1.78-0.528,2.671C657.864,282.078,658.65,281.831,659.437,281.584z
	 M367.675,449.504l0.023,0.008c-1.201-3.072-2.763-4.346-5.241-1.052v0.008c0.007,1.496,0.015,2.993,0.022,4.49
	c1.332-0.126,2.664-0.251,3.996-0.376c0.401-0.592,0.803-1.184,1.204-1.775C367.678,450.372,367.676,449.938,367.675,449.504z
	 M778.795,744.638c1.952-1.519,4.088-2.858,5.801-4.611c1.496-1.532,2.517-3.53,3.747-5.322c-1.92-0.918-3.839-1.835-5.759-2.753
	c-0.24,0.395-0.479,0.789-0.72,1.184c0.506,0.931,1.012,1.862,1.968,3.621c-2.36,0.866-4.6,1.567-6.731,2.51
	c-1.564,0.692-2.988,1.701-4.476,2.569c1.309,0.646,2.624,1.275,3.92,1.945c0.414,0.215,0.775,0.535,1.16,0.807
	c0.072,0.276,0.146,0.552,0.218,0.827C778.214,745.155,778.505,744.896,778.795,744.638z M371.573,179.181
	c10.443,0.084,20.887,0.249,31.33,0.235c21.061-0.028,42.121-0.153,63.182-0.239c0.677,0.013,1.354,0.026,2.03,0.039
	c20.653-0.005,41.308-0.011,61.962-0.016c13.021-0.008,26.041-0.017,39.062-0.024c1.484,0.103,2.969,0.295,4.454,0.295
	c94.384-0.039,188.769-0.081,283.153-0.161c11.788-0.01,23.576-0.223,35.365-0.342c0.265-0.313,0.53-0.627,0.796-0.941
	c0.059-15.327,0.116-30.654,0.175-45.981c-0.048-0.289-0.216-0.463-0.501-0.524c-1.718-0.271-3.435-0.776-5.152-0.776
	c-120.256-0.03-240.512-0.013-360.767-0.014c-129.251-0.001-258.502-0.021-387.752,0.014c-2.382,0-4.763,0.569-7.145,0.872
	c-0.289,0.156-0.493,0.387-0.613,0.692c0.017,9.185,0.035,18.369,0.052,27.553c-0.113,5.63-0.339,11.263-0.229,16.889
	c0.019,0.953,1.485,2.692,2.283,2.692c7.948,0.002,15.895-0.285,23.843-0.491c15.421,0.166,30.842,0.438,46.263,0.469
	c18.751,0.036,37.502-0.132,56.253-0.211c10.143-0.022,20.285-0.044,30.428-0.066c1.035,0.022,2.069,0.044,3.088,0.073
	C319.279,179.204,345.426,179.192,371.573,179.181z M754.737,618.481c-2.47-5.299-5.411-5.52-11.019-0.827
	c-2.42,3.508-1.815,6.555,1.767,8.683c3.411,2.026,9.158,0.653,10.299-2.612C756.291,622.276,755.137,620.247,754.737,618.481z
	 M793.175,365.493c-3.78-0.25-6.124,1.564-6.589,5.116c-0.445,3.403,2.839,6.772,6.359,5.869c2.232-0.574,5.014-3.187,5.514-5.354
	C799.202,367.9,797.345,365.051,793.175,365.493z M311.608,260.457c-3.929,0.021-4.885,1.295-5.221,5.451
	c-0.313,3.883,1.72,5.736,4.986,5.681c3.525-0.06,5.365-2.458,5.383-6.169C316.774,261.847,315.038,260.333,311.608,260.457z
	 M676.474,404.991c-0.58,4.158,2.002,4.618,5.107,4.791c3.799,0.212,5.434-2.37,4.897-5.132c-0.379-1.958-2.961-4.578-4.891-4.897
	C678.475,399.239,675.883,401.114,676.474,404.991z M572.053,290.79c-1.253-0.884-2.85-2.806-4.747-3.175
	c-3.396-0.659-6.038,1.438-5.619,4.866c0.232,1.894,2.609,4.785,4.268,4.967C568.882,297.769,571.414,295.744,572.053,290.79z
	 M249.438,454.732c3.944,0.391,6.15-2.447,5.819-5.104c-0.228-1.82-3.718-4.151-5.988-4.45c-1.347-0.178-4.186,2.979-4.498,4.935
	C244.373,452.604,246.061,455.166,249.438,454.732z M559.009,424.326c2.094-2.809,4.033-4.42,4.388-6.326
	c0.165-0.885-2.719-3.194-4.285-3.258c-1.146-0.047-3.186,2.42-3.371,3.943C555.572,420.064,557.376,421.684,559.009,424.326z
	 M735.271,280.13c-0.593-0.615-1.187-1.229-1.779-1.845c-0.669,0.857-1.338,1.715-2.007,2.572c0.349,0.284,0.697,0.567,1.047,0.852
	C733.444,281.183,734.357,280.656,735.271,280.13z M228.352,344.228c-0.318,0.737-0.661,1.212-0.67,1.692
	c-0.004,0.222,0.844,0.722,0.962,0.635c0.396-0.296,0.749-0.767,0.879-1.237C229.572,345.141,228.968,344.782,228.352,344.228z
	 M617.784,605.787c-0.412-0.487-0.646-1.02-0.972-1.081c-0.358-0.069-0.801,0.292-1.206,0.466c0.317,0.443,0.577,0.958,0.987,1.284
	C616.71,606.548,617.264,606.09,617.784,605.787z M438.284,259.372c-0.392,1.102-0.657,1.524-0.653,1.945
	c0.002,0.327,0.34,0.652,0.528,0.978c0.343-0.295,0.773-0.539,0.989-0.909C439.246,261.219,438.919,260.802,438.284,259.372z
	 M728.227,349.393c0.102-0.104,0.282-0.208,0.283-0.313s-0.179-0.21-0.279-0.315c-0.104,0.154-0.207,0.309-0.311,0.463
	C728.021,349.281,728.121,349.334,728.227,349.393z M857.45,739.063c-0.106-0.12-0.214-0.24-0.321-0.36
	c-0.116,0.111-0.232,0.223-0.349,0.334c0.163,0.123,0.326,0.245,0.489,0.367C857.33,739.291,857.391,739.177,857.45,739.063z
	 M682.389,701.938c-0.103-0.063-0.237-0.197-0.302-0.17c-0.133,0.058-0.228,0.201-0.339,0.31c0.208,0.067,0.416,0.134,0.624,0.2
	C682.378,702.164,682.383,702.051,682.389,701.938z M855.397,739.94c-0.115-0.058-0.231-0.115-0.347-0.173
	c-0.006,0.218-0.013,0.435-0.02,0.652c0.119-0.051,0.268-0.075,0.346-0.162C855.431,740.197,855.388,740.05,855.397,739.94z"/>
<path fill-rule="evenodd" clip-rule="evenodd" fill="#EAC766" d="M569.139,179.176c12.274-0.194,24.549-0.555,36.823-0.557
	c93.901-0.016,187.802,0.037,281.703,0.082c1.486,0.001,2.973,0.168,4.452,0.263c-11.795,0.123-23.583,0.336-35.371,0.346
	c-94.385,0.08-188.77,0.122-283.153,0.161C572.107,179.471,570.623,179.278,569.139,179.176z"/>
<path fill-rule="evenodd" clip-rule="evenodd" fill="#EAC766" d="M157.101,178.951c17.742-0.098,35.483-0.281,53.225-0.271
	c16.431,0.01,32.862,0.228,49.292,0.354c0-0.001,0,0.175,0,0.175c-18.751,0.079-37.502,0.247-56.253,0.211
	C187.943,179.39,172.522,179.117,157.101,178.951z"/>
<path fill-rule="evenodd" clip-rule="evenodd" fill="#EAC766" d="M371.574,179.012c11.952-0.122,23.903-0.313,35.855-0.35
	c17.945-0.055,35.89-0.014,53.835,0.029c1.612,0.004,3.224,0.322,4.827,0.49c-21.067,0.081-42.128,0.206-63.188,0.234
	c-10.443,0.014-20.887-0.151-31.33-0.235C371.574,179.181,371.574,179.012,371.574,179.012z"/>
<path fill-rule="evenodd" clip-rule="evenodd" fill="#EAC766" d="M371.574,179.012c0,0,0,0.169-0.001,0.169
	c-26.147,0.012-52.294,0.023-78.433,0.032c6.593-0.195,13.177-0.558,19.76-0.546C332.458,178.703,352.016,178.886,371.574,179.012z"
	/>
<path fill-rule="evenodd" clip-rule="evenodd" fill="#EAC766" d="M468.115,179.216c8.918-0.188,17.836-0.538,26.754-0.522
	c11.741,0.021,23.482,0.33,35.216,0.511C509.423,179.205,488.769,179.211,468.115,179.216z"/>
<path fill-rule="evenodd" clip-rule="evenodd" fill="#EAC766" d="M892.907,178.026c0.056-15.333,0.112-30.666,0.172-45.991
	C893.023,147.372,892.966,162.699,892.907,178.026z"/>
<path fill-rule="evenodd" clip-rule="evenodd" fill="#C0982A" d="M743.719,617.654c-0.18,3.756-0.124,7.593,4.906,7.814
	c4.598,0.203,6.09-2.888,6.112-6.987c0.399,1.766,1.554,3.795,1.047,5.243c-1.141,3.266-6.888,4.639-10.299,2.612
	C741.903,624.209,741.299,621.162,743.719,617.654z"/>
<path fill-rule="evenodd" clip-rule="evenodd" fill="#EAC766" d="M893.115,890.979c-0.078-13.589-0.156-27.178-0.233-40.757
	C892.961,863.813,893.038,877.396,893.115,890.979z"/>
<path fill-rule="evenodd" clip-rule="evenodd" fill="#EAC766" d="M259.617,179.209c0,0,0-0.176,0-0.175
	c10.148,0.039,20.297,0.078,30.437,0.112C279.902,179.165,269.76,179.187,259.617,179.209z"/>
<path fill-rule="evenodd" clip-rule="evenodd" fill="#EAC766" d="M131.729,892.629c-0.114,0.213-0.29,0.329-0.533,0.344
	c-0.012-9.517-0.021-19.026-0.03-28.534c0,0.002,0.119,0.155,0.119,0.155C131.432,873.939,131.581,883.284,131.729,892.629z"/>
<path fill-rule="evenodd" clip-rule="evenodd" fill="#C0982A" d="M131.152,132.309c0.017,9.191,0.035,18.383,0.052,27.563
	C131.187,150.678,131.169,141.493,131.152,132.309z"/>
<path fill-rule="evenodd" clip-rule="evenodd" fill="#C0982A" d="M893.048,792.669c-0.012-8.398-0.023-16.798-0.035-25.185
	C893.023,775.889,893.036,784.278,893.048,792.669z"/>
<path fill-rule="evenodd" clip-rule="evenodd" fill="#C0982A" d="M131.284,864.594c0,0-0.119-0.153-0.119-0.155
	c0.014-8.373,0.027-16.745,0.04-25.105C131.231,847.761,131.258,856.177,131.284,864.594z"/>
<path fill-rule="evenodd" clip-rule="evenodd" fill="#EAC766" d="M595.532,656.375c-1.256,0.335-2.512,0.671-3.768,1.008
	c0.73-0.85,1.46-1.7,2.19-2.551c0.499-0.107,0.997-0.216,1.496-0.324C595.479,655.131,595.505,655.753,595.532,656.375z"/>
<path fill-rule="evenodd" clip-rule="evenodd" fill="#EAC766" d="M688.229,708.793c-0.852,0.265-1.702,0.529-2.555,0.793
	c0.008-0.283,0.098-0.538,0.27-0.763C686.706,708.813,687.468,708.803,688.229,708.793z"/>
<path fill-rule="evenodd" clip-rule="evenodd" fill="#C0982A" d="M739.645,729.389c0.433-0.155,0.866-0.311,1.292-0.464
	c-0.007,0.002,0.029,0.351,0.029,0.351s-0.444,0.033-0.447,0.031c-0.003-0.003-0.433,0.107-0.433,0.107L739.645,729.389z"/>
<path fill-rule="evenodd" clip-rule="evenodd" fill="currentColor" d="M661.953,695.601c-0.038-0.382-0.075-0.763-0.112-1.144
	c0.582,0.191,1.166,0.382,1.749,0.572C663.044,695.219,662.498,695.41,661.953,695.601z"/>
<path fill-rule="evenodd" clip-rule="evenodd" fill="#EAC766" d="M663.59,695.029c-0.583-0.19-1.167-0.381-1.749-0.572
	c0-0.001-0.452-0.024-0.452-0.022c0.167-0.165,0.326-0.337,0.479-0.516C662.441,694.289,663.016,694.659,663.59,695.029z"/>
<path fill-rule="evenodd" clip-rule="evenodd" fill="#EAC766" d="M627.251,673.817c0,0.381,0,0.762,0,1.143
	c-0.103,0.003-0.204,0.005-0.306,0.008c0-0.391,0-0.782,0.003-1.17C626.952,673.801,627.251,673.817,627.251,673.817z"/>
<path fill-rule="evenodd" clip-rule="evenodd" fill="#EAC766" d="M539.173,630.937c-0.204,0.155-0.408,0.311-0.612,0.466
	c-0.112-0.176-0.225-0.353-0.336-0.528c0.141-0.024,0.282-0.049,0.423-0.07c0,0.002,0.313-0.132,0.313-0.132L539.173,630.937z"/>
<path fill-rule="evenodd" clip-rule="evenodd" fill="#EAC766" d="M728.225,349.39c-0.104-0.056-0.204-0.108-0.305-0.161
	c0.104-0.155,0.207-0.31,0.311-0.464c0.101,0.105,0.28,0.211,0.279,0.315S728.328,349.288,728.225,349.39z"/>
<path fill-rule="evenodd" clip-rule="evenodd" fill="currentColor" d="M287.99,605.235c-0.453,0.003-0.905,0.005-1.358,0.008
	c0.128-0.267,0.323-0.466,0.592-0.597C287.48,604.845,287.734,605.041,287.99,605.235z"/>
<path fill-rule="evenodd" clip-rule="evenodd" fill="#C0982A" d="M287.99,605.235c-0.256-0.194-0.51-0.391-0.767-0.589
	c0.259,0.191,0.521,0.385,0.778,0.578C287.998,605.225,287.99,605.235,287.99,605.235z"/>
<polygon fill-rule="evenodd" clip-rule="evenodd" fill="#C0982A" points="499.117,616.181 499.049,616.18 499.091,615.87 "/>
<polygon fill-rule="evenodd" clip-rule="evenodd" fill="#C0982A" points="502.09,617.172 501.991,617.049 502.175,616.991 "/>
<path fill-rule="evenodd" clip-rule="evenodd" fill="currentColor" d="M889.036,740.519c-0.196-0.292-0.267-0.611-0.211-0.958
	c0.137,0.206,0.301,0.4,0.396,0.624C889.252,740.256,889.104,740.404,889.036,740.519z"/>
<polygon fill-rule="evenodd" clip-rule="evenodd" fill="#EAC766" points="683.138,705.231 682.945,705.305 682.946,705.109 
	683.158,704.979 "/>
<path fill-rule="evenodd" clip-rule="evenodd" fill="#C0982A" d="M818.165,741.512c0,0-0.053,0.427-0.055,0.421
	c-0.002-0.007-0.221,0.044-0.221,0.044s-0.039-0.308-0.038-0.307c0.001,0,0.03-0.239,0.029-0.24
	C817.879,741.43,818.165,741.512,818.165,741.512z"/>
<path fill-rule="evenodd" clip-rule="evenodd" fill="#EAC766" d="M690.809,699.027l0.4,0.028c0,0,0.148,0.388,0.146,0.387
	s0.021,0.362,0.023,0.362c-0.189-0.174-0.405-0.215-0.646-0.121c0,0-0.246-0.245-0.245-0.244
	C690.585,699.295,690.691,699.157,690.809,699.027z"/>
<path fill-rule="evenodd" clip-rule="evenodd" fill="currentColor" d="M735.862,726.672c0,0,0.354-0.028,0.354-0.028
	c0.267,0.022,0.511,0.108,0.731,0.255c-0.177,0.37-0.351,0.744-0.524,1.119l-0.229-0.141l-0.136,0.231
	c-0.309-0.311-0.618-0.621-0.922-0.929C735.41,727.051,735.649,726.881,735.862,726.672z"/>
<path fill-rule="evenodd" clip-rule="evenodd" fill="#C0982A" d="M735.862,726.672c-0.213,0.209-0.452,0.379-0.726,0.508
	c-0.006-0.003-0.24-0.055-0.24-0.055s0.124-0.215,0.124-0.211C735.266,726.714,735.546,726.632,735.862,726.672z"/>
<polygon fill-rule="evenodd" clip-rule="evenodd" fill="#EAC766" points="689.297,698.176 689.04,698.248 689.031,697.977 
	689.285,697.919 "/>
<path fill-rule="evenodd" clip-rule="evenodd" fill="#EAC766" d="M729.326,721.246l-0.294,0.166c0,0-0.332-0.066-0.331-0.063
	c0.269-0.258,0.536-0.519,0.804-0.779l0.228-0.058C729.761,720.847,729.625,721.092,729.326,721.246z"/>
<path fill-rule="evenodd" clip-rule="evenodd" fill="#C0982A" d="M729.7,719.723c0,0,0.345,0.264,0.341,0.266s0.041,0.35,0.041,0.35
	s-0.351,0.175-0.351,0.174c0.001,0-0.227,0.058-0.227,0.058C729.561,720.285,729.626,720.003,729.7,719.723z"/>
<path fill-rule="evenodd" clip-rule="evenodd" fill="currentColor" d="M730.62,717.203c-0.464,0.01-0.929,0.02-1.388,0.03
	c0.006,0.002,0.231-0.188,0.231-0.188l-0.278-0.1c0.294-0.148,0.605-0.216,0.936-0.199
	C730.316,716.866,730.482,717.019,730.62,717.203z"/>
<path fill-rule="evenodd" clip-rule="evenodd" fill="currentColor" d="M681.663,707.178c-0.212-0.242-0.424-0.483-0.638-0.722
	c-0.001,0.003,0.218-0.013,0.218-0.013c0.229,0.224,0.349,0.495,0.359,0.816C681.603,707.262,681.663,707.178,681.663,707.178z"/>
<polygon fill-rule="evenodd" clip-rule="evenodd" fill="#C0982A" points="542.131,631.244 542.049,631.242 542.094,630.97 "/>
<polygon fill-rule="evenodd" clip-rule="evenodd" fill="#EAC766" points="538.306,629.178 538.002,629.207 537.995,628.906 
	538.305,628.876 "/>
<path fill-rule="evenodd" clip-rule="evenodd" fill="#C0982A" d="M231.033,618.983c0.099-0.163,0.242-0.271,0.426-0.32
	c-0.001,0,0.129,0.347,0.129,0.346c0-0.001-0.175,0.217-0.175,0.217c-0.26,0.173-0.542,0.288-0.849,0.348l0.059,0.021
	C230.698,619.349,230.835,619.146,231.033,618.983z"/>
<path fill-rule="evenodd" clip-rule="evenodd" fill="currentColor" d="M234.595,618.767c0.234-0.363,0.468-0.727,0.704-1.088
	c0.06,0.182,0.124,0.36,0.194,0.536c0.006,0.269-0.082,0.503-0.257,0.698c0.004-0.004-0.271-0.294-0.271-0.294L234.595,618.767z"/>
<path fill-rule="evenodd" clip-rule="evenodd" fill="#EAC766" d="M625.579,673.421c0.017-0.179,0.097-0.323,0.242-0.429
	c0.002,0.003,0.367-0.051,0.367-0.051s0.063,0.361,0.059,0.358s-0.316,0.165-0.316,0.165L625.579,673.421z"/>
<polygon fill-rule="evenodd" clip-rule="evenodd" fill="#C0982A" points="597.904,658.352 598.097,657.96 598.287,658.353 
	598.414,658.574 598.229,658.751 597.964,658.752 597.777,658.575 "/>
<path fill-rule="evenodd" clip-rule="evenodd" fill="#EAC766" d="M234.595,618.767l0.371-0.147c0,0,0.274,0.29,0.271,0.294
	c-0.223,0.274-0.442,0.544-0.662,0.814C234.581,619.407,234.588,619.087,234.595,618.767z"/>
<path fill-rule="evenodd" clip-rule="evenodd" fill="#EAC766" d="M231.413,619.226c0,0,0.174-0.218,0.175-0.217
	c0.331,0.461,0.661,0.922,0.992,1.381c0.001-0.001-0.369,0.046-0.369,0.046s-0.357-0.108-0.36-0.107
	C231.703,619.962,231.558,619.594,231.413,619.226z"/>
<path fill-rule="evenodd" clip-rule="evenodd" fill="#EAC766" d="M736.423,728.018c0.174-0.375,0.348-0.749,0.524-1.119
	c0.147-0.136,0.319-0.187,0.517-0.146c0.091,0.22,0.112,0.446,0.063,0.68c0.191,0.287,0.197,0.577,0.015,0.87
	c0,0-0.056,0.433-0.057,0.433c-0.293-0.162-0.587-0.324-0.88-0.486C736.605,728.247,736.423,728.018,736.423,728.018z"/>
<path fill-rule="evenodd" clip-rule="evenodd" fill="#C0982A" d="M736.423,728.018c0,0,0.183,0.229,0.182,0.23l-0.371,0.095
	c0,0-0.184-0.249-0.179-0.242c0.004,0.008,0.14-0.224,0.14-0.224L736.423,728.018z"/>
<path fill-rule="evenodd" clip-rule="evenodd" fill="#EAC766" d="M684.638,709.636c0.296,0.009,0.593,0.012,0.889,0.01
	C685.23,709.643,684.934,709.639,684.638,709.636z"/>
<path fill-rule="evenodd" clip-rule="evenodd" fill="#EAC766" d="M681.243,706.443c0,0-0.219,0.016-0.218,0.013
	c-0.189-0.19-0.246-0.412-0.166-0.668C681.189,705.906,681.316,706.124,681.243,706.443z"/>
<path fill-rule="evenodd" clip-rule="evenodd" fill="currentColor" d="M231.413,619.226c0.145,0.368,0.29,0.736,0.438,1.103
	c-0.427-0.252-0.856-0.504-1.287-0.756C230.871,619.514,231.153,619.398,231.413,619.226z"/>
<path fill-rule="evenodd" clip-rule="evenodd" fill="#EAC766" d="M597.964,658.752c0,0,0.267-0.002,0.266-0.001
	C598.14,658.752,598.052,658.752,597.964,658.752z"/>
<path fill-rule="evenodd" clip-rule="evenodd" fill="#EAC766" d="M633.68,532.66c-1.003-0.539-2.005-1.079-3.008-1.619
	c0.358-0.415,0.717-0.831,1.076-1.246c0.637,0.962,1.274,1.923,1.912,2.885L633.68,532.66z"/>
<path fill-rule="evenodd" clip-rule="evenodd" fill="#EAC766" d="M409.23,322.348c-0.12,0.277-0.18,0.707-0.379,0.786
	c-0.198,0.078-0.535-0.195-0.813-0.313c0.119-0.276,0.178-0.709,0.375-0.786C408.615,321.956,408.952,322.228,409.23,322.348z"/>
<path fill-rule="evenodd" clip-rule="evenodd" fill="#EAC766" d="M729.186,716.945l0.278,0.1c0,0-0.226,0.19-0.231,0.188
	c-0.005-0.001-0.315-0.096-0.315-0.096L729.186,716.945z"/>
<path fill-rule="evenodd" clip-rule="evenodd" fill="currentColor" d="M737.541,728.302c0.183-0.293,0.177-0.583-0.015-0.87
	C737.531,727.721,737.536,728.011,737.541,728.302z"/>
<path fill-rule="evenodd" clip-rule="evenodd" fill="#EAC766" d="M818.165,741.512c0,0-0.286-0.082-0.284-0.082
	c-0.041-0.342,0.114-0.524,0.466-0.543C818.408,741.132,818.349,741.34,818.165,741.512z"/>
<g>
	<path fill-rule="evenodd" clip-rule="evenodd" fill="#E9D094" d="M791.777,382.627c-3.15,0-6.194-1.411-8.353-3.87
		c-2.188-2.493-3.204-5.747-2.788-8.926c0.824-6.294,5.481-10.361,11.864-10.361c0.187,0,0.375,0.003,0.566,0.01
		c0.322-0.022,0.637-0.033,0.941-0.033c3.459,0,6.447,1.361,8.412,3.832c1.973,2.479,2.659,5.83,1.886,9.192
		c-1.002,4.341-5.336,8.652-9.866,9.818C793.565,382.514,792.67,382.627,791.777,382.627z"/>
	<path fill-rule="evenodd" clip-rule="evenodd" fill="#E9D094" d="M749.046,631.479c-0.225,0-0.455-0.005-0.689-0.016
		c-4.102-0.181-6.528-1.936-7.84-3.375c-3.139-3.44-2.913-8.176-2.791-10.72l0.126-2.629l2.019-1.688
		c3.917-3.277,7.081-4.74,10.257-4.74c2.962,0,7.11,1.325,10.049,7.638l0.567,1.216l-0.006,1.346
		C760.685,628.083,754.406,631.479,749.046,631.479z"/>
	<polygon fill-rule="evenodd" clip-rule="evenodd" fill="#E9D094" points="356.387,433.664 379.547,457.379 356.512,459.547 	"/>
	<polygon fill-rule="evenodd" clip-rule="evenodd" fill="#E9D094" points="358.412,438.6 375.191,455.782 358.502,457.352 	"/>
	<path fill-rule="evenodd" clip-rule="evenodd" fill="#E9D094" d="M351.933,452.469l5.73-7.615c2.163-2.875,4.663-4.333,7.43-4.333
		c2.524,0,5.995,1.181,8.194,6.806l3.999,10.228L351.933,452.469z"/>
	<path fill-rule="evenodd" clip-rule="evenodd" fill="#E9D094" d="M355.442,451.133l3.818-5.077c0.658-0.874,2.66-3.535,5.833-3.535
		c2.765,0,4.895,1.862,6.331,5.534l2.666,6.819L355.442,451.133z"/>
	
		<rect x="364.085" y="238.226" transform="matrix(-0.0201 0.9998 -0.9998 -0.0201 622.197 -121.338)" fill-rule="evenodd" clip-rule="evenodd" fill="#E9D094" width="12.946" height="11.999"/>
	
		<rect x="368.084" y="240.226" transform="matrix(-0.0201 0.9998 -0.9998 -0.0201 622.196 -121.3387)" fill-rule="evenodd" clip-rule="evenodd" fill="#E9D094" width="4.946" height="8"/>
	<polygon fill-rule="evenodd" clip-rule="evenodd" fill="#E9D094" points="653.977,267.103 670.404,284.426 649.23,291.081 	"/>
	<polygon fill-rule="evenodd" clip-rule="evenodd" fill="#E9D094" points="653.683,278.875 655.189,271.284 662.337,278.829 
		666.752,283.478 651.849,288.162 	"/>
	<polygon fill-rule="evenodd" clip-rule="evenodd" fill="#E9D094" points="366.495,240.69 378.68,240.676 378.693,252.676 
		366.495,252.69 	"/>
	<rect x="370.497" y="242.683" fill-rule="evenodd" clip-rule="evenodd" fill="#E9D094" width="4.19" height="8"/>
	
		<rect x="403.093" y="320.083" transform="matrix(-9.766060e-004 1 -1 -9.766060e-004 735.1616 -83.1051)" fill-rule="evenodd" clip-rule="evenodd" fill="#E9D094" width="12" height="11.174"/>
	
		<rect x="405.093" y="324.083" transform="matrix(-9.766060e-004 1 -1 -9.766060e-004 735.1616 -83.1051)" fill-rule="evenodd" clip-rule="evenodd" fill="#E9D094" width="8" height="3.174"/>
	<polygon fill-rule="evenodd" clip-rule="evenodd" fill="#E9D094" points="405.662,328.667 405.682,317.491 417.682,317.509 
		417.662,328.694 	"/>
	<polygon fill-rule="evenodd" clip-rule="evenodd" fill="#E9D094" points="407.669,324.672 407.675,321.494 415.675,321.505 
		415.669,324.691 	"/>
	
		<rect x="403.036" y="314.868" transform="matrix(-9.766060e-004 1 -1 -9.766060e-004 729.9535 -88.2049)" fill-rule="evenodd" clip-rule="evenodd" fill="#E9D094" width="12" height="11.301"/>
	
		<rect x="405.036" y="318.868" transform="matrix(-8.545358e-004 1 -1 -8.545358e-004 729.9036 -88.244)" fill-rule="evenodd" clip-rule="evenodd" fill="#E9D094" width="8" height="3.301"/>
	
		<rect x="623.501" y="527.243" transform="matrix(-0.7156 0.6985 -0.6985 -0.7156 1452.0703 474.1859)" fill-rule="evenodd" clip-rule="evenodd" fill="#E9D094" width="12.002" height="10.915"/>
	
		<rect x="625.503" y="531.243" transform="matrix(-0.7156 0.6985 -0.6985 -0.7156 1452.071 474.1869)" fill-rule="evenodd" clip-rule="evenodd" fill="#E9D094" width="8" height="2.915"/>
	<polygon fill-rule="evenodd" clip-rule="evenodd" fill="#E9D094" points="628.625,535.717 628.728,525.517 640.727,525.496 
		640.626,535.831 	"/>
	<polygon fill-rule="evenodd" clip-rule="evenodd" fill="#E9D094" points="630.665,531.736 630.688,529.489 638.688,529.521 
		638.665,531.813 	"/>
	<polygon fill-rule="evenodd" clip-rule="evenodd" fill="#E9D094" points="626.392,527.754 636.649,527.59 636.843,539.589 
		626.579,539.753 	"/>
	
		<rect x="630.487" y="529.671" transform="matrix(-0.9999 0.016 -0.016 -0.9999 1271.6794 1057.1843)" fill-rule="evenodd" clip-rule="evenodd" fill="#E9D094" width="2.262" height="8"/>
	<polygon fill-rule="evenodd" clip-rule="evenodd" fill="#E9D094" points="367.511,243.023 376.07,234.613 382.581,241.242 
		374.029,249.659 	"/>
	
		<rect x="371.046" y="241.485" transform="matrix(-0.7133 0.7009 -0.7009 -0.7133 812.2679 151.9944)" fill-rule="evenodd" clip-rule="evenodd" fill="#E9D094" width="8" height="1.295"/>
	<polygon fill-rule="evenodd" clip-rule="evenodd" fill="#E9D094" points="369.676,248.783 369.669,239.413 381.669,239.399 
		381.676,248.783 	"/>
	<polygon fill-rule="evenodd" clip-rule="evenodd" fill="#E9D094" points="371.673,244.783 371.672,243.408 379.672,243.399 
		379.673,244.783 	"/>
	<polygon fill-rule="evenodd" clip-rule="evenodd" fill="#E9D094" points="367.469,246.234 373.174,238.77 382.701,246.067 
		377.004,253.52 	"/>
	<polygon fill-rule="evenodd" clip-rule="evenodd" fill="#E9D094" points="371.487,244.271 372.333,243.165 378.684,248.029 
		377.845,249.127 	"/>
	<polygon fill-rule="evenodd" clip-rule="evenodd" fill="#E9D094" points="403.597,321.969 412,313.402 418.775,320.052 
		410.36,328.607 	"/>
	<polygon fill-rule="evenodd" clip-rule="evenodd" fill="#E9D094" points="407.853,323.343 413.454,317.631 414.518,318.675 
		408.908,324.379 	"/>
	
		<rect x="401.419" y="316.009" transform="matrix(-0.5806 0.8142 -0.8142 -0.5806 904.0938 178.28)" fill-rule="evenodd" clip-rule="evenodd" fill="#E9D094" width="9.416" height="12"/>
	
		<rect x="405.419" y="318.009" transform="matrix(-0.5805 0.8142 -0.8142 -0.5805 904.0866 178.2551)" fill-rule="evenodd" clip-rule="evenodd" fill="#E9D094" width="1.416" height="8.001"/>
	
		<rect x="400.093" y="319.472" transform="matrix(-0.8212 0.5706 -0.5706 -0.8212 924.5667 358.6755)" fill-rule="evenodd" clip-rule="evenodd" fill="#E9D094" width="12.002" height="9.412"/>
	
		<rect x="402.095" y="323.469" transform="matrix(-0.8212 0.5707 -0.5707 -0.8212 924.5707 358.6304)" fill-rule="evenodd" clip-rule="evenodd" fill="#E9D094" width="8" height="1.415"/>
	<polygon fill-rule="evenodd" clip-rule="evenodd" fill="#E9D094" points="399.43,326.397 407.545,317.558 414.547,324 
		406.42,332.827 	"/>
	<polygon fill-rule="evenodd" clip-rule="evenodd" fill="#E9D094" points="403.726,327.632 409.137,321.739 410.25,322.762 
		404.831,328.648 	"/>
	<polygon fill-rule="evenodd" clip-rule="evenodd" fill="#E9D094" points="403.584,324.304 410.266,317.59 418.774,326.052 
		412.093,332.765 	"/>
	
		<rect x="410.443" y="321.178" transform="matrix(-0.7054 0.7088 -0.7088 -0.7054 931.7181 263.144)" fill-rule="evenodd" clip-rule="evenodd" fill="#E9D094" width="1.472" height="8"/>
	<polygon fill-rule="evenodd" clip-rule="evenodd" fill="#E9D094" points="408.333,398.541 417.794,398.472 417.891,410.472 
		408.417,410.541 	"/>
	<polygon fill-rule="evenodd" clip-rule="evenodd" fill="#E9D094" points="412.345,400.512 413.811,400.501 413.875,408.501 
		412.401,408.512 	"/>
	<polygon fill-rule="evenodd" clip-rule="evenodd" fill="#E9D094" points="405.473,410.66 405.557,401.352 417.557,401.46 
		417.473,410.755 	"/>
	<polygon fill-rule="evenodd" clip-rule="evenodd" fill="#E9D094" points="407.509,406.678 407.521,405.37 415.521,405.442 
		415.509,406.741 	"/>
	<polygon fill-rule="evenodd" clip-rule="evenodd" fill="#E9D094" points="404.726,409.208 411.729,399.461 419.341,404.944 
		412.323,414.675 	"/>
	<polygon fill-rule="evenodd" clip-rule="evenodd" fill="#E9D094" points="409.14,409.92 413.808,403.423 414.925,404.228 
		410.247,410.717 	"/>
	
		<rect x="361.677" y="445.504" transform="matrix(-1 0.0044 -0.0044 -1 737.3281 898.6905)" fill-rule="evenodd" clip-rule="evenodd" fill="#E9D094" width="12" height="9.303"/>
	
		<rect x="363.677" y="449.504" transform="matrix(-1 0.0045 -0.0045 -1 737.3829 898.6454)" fill-rule="evenodd" clip-rule="evenodd" fill="#E9D094" width="8" height="1.303"/>
	<polygon fill-rule="evenodd" clip-rule="evenodd" fill="#E9D094" points="622.688,526.141 630.188,520.51 637.39,530.108 
		629.891,535.739 	"/>
	
		<rect x="629.35" y="524.124" transform="matrix(-0.7997 0.6005 -0.6005 -0.7997 1450.9701 572.1352)" fill-rule="evenodd" clip-rule="evenodd" fill="#E9D094" width="1.378" height="8.001"/>
	<polygon fill-rule="evenodd" clip-rule="evenodd" fill="#E9D094" points="625.79,530.077 633.043,520.516 640.513,526.178 
		633.26,535.739 	"/>
	
		<rect x="629.151" y="527.441" transform="matrix(-0.6045 0.7966 -0.7966 -0.6045 1436.5963 342.9913)" fill-rule="evenodd" clip-rule="evenodd" fill="#E9D094" width="8" height="1.372"/>
	<polygon fill-rule="evenodd" clip-rule="evenodd" fill="#E9D094" points="621.499,529.108 627.208,521.667 636.735,528.962 
		631.015,536.421 	"/>
	<polygon fill-rule="evenodd" clip-rule="evenodd" fill="#E9D094" points="625.52,527.153 626.361,526.056 632.713,530.921 
		631.863,532.028 	"/>
	<polygon fill-rule="evenodd" clip-rule="evenodd" fill="#E9D094" points="626.607,530.085 634.87,521.386 641.765,527.927 
		633.491,536.622 	"/>
	
		<rect x="630.184" y="528.255" transform="matrix(-0.6887 0.7251 -0.7251 -0.6887 1454.4982 433.5018)" fill-rule="evenodd" clip-rule="evenodd" fill="#E9D094" width="8" height="1.502"/>
	<polygon fill-rule="evenodd" clip-rule="evenodd" fill="#E9D094" points="622.507,535.67 622.536,526.4 634.535,526.43 
		634.507,535.711 	"/>
	<polygon fill-rule="evenodd" clip-rule="evenodd" fill="#E9D094" points="624.52,531.68 624.523,530.406 632.523,530.424 
		632.52,531.707 	"/>
	<path fill-rule="evenodd" clip-rule="evenodd" fill="#E9D094" d="M311.232,277.59c-3.266,0-6.148-1.176-8.117-3.311
		c-1.436-1.555-3.071-4.354-2.708-8.854c0.378-4.673,1.942-10.887,11.105-10.971c0.129-0.004,0.302-0.007,0.471-0.007
		c4.042,0,6.486,1.604,7.823,2.948c1.357,1.363,2.971,3.868,2.95,8.054c-0.034,7.146-4.567,12.025-11.282,12.138l-0.221,0.002
		H311.232z"/>
	<path fill-rule="evenodd" clip-rule="evenodd" fill="#E9D094" d="M682.012,415.794c-0.249,0-0.504-0.007-0.764-0.021
		c-1.99-0.111-6.128-0.342-8.807-3.597c-1.565-1.903-2.239-4.311-2.005-7.164c-0.259-3.021,0.573-5.81,2.365-7.898
		c1.911-2.222,4.679-3.445,7.795-3.445c0.649,0,1.313,0.055,1.97,0.164c4.363,0.721,8.945,5.243,9.803,9.677
		c0.61,3.142-0.138,6.278-2.053,8.601C688.357,414.486,685.408,415.794,682.012,415.794z"/>
	<path fill-rule="evenodd" clip-rule="evenodd" fill="#E9D094" d="M566.543,303.481c-0.412,0-0.83-0.023-1.243-0.068
		c-4.747-0.521-9.042-5.91-9.568-10.2c-0.383-3.132,0.483-6.072,2.438-8.279c1.964-2.218,4.775-3.439,7.918-3.439
		c0.779,0,1.574,0.078,2.362,0.23c2.94,0.572,5.014,2.387,6.385,3.587c0.258,0.225,0.493,0.441,0.684,0.579l2.948,2.08l-0.463,3.587
		C577.056,298.912,572.664,303.481,566.543,303.481z"/>
	<path fill-rule="evenodd" clip-rule="evenodd" fill="#E9D094" d="M248.704,460.781c-3.036,0-5.744-1.214-7.624-3.417
		c-1.896-2.225-2.711-5.212-2.235-8.197c0.643-4.025,5.255-9.996,10.311-9.996c0.309,0,0.608,0.021,0.9,0.059
		c4.132,0.544,10.485,4.296,11.154,9.655c0.368,2.951-0.562,5.934-2.551,8.186c-2.106,2.385-5.126,3.698-8.502,3.698
		c-0.214,0-0.431-0.005-0.651-0.016C249.233,460.771,248.965,460.781,248.704,460.781z"/>
	<path fill-rule="evenodd" clip-rule="evenodd" fill="#E9D094" d="M553.904,427.479c-0.428-0.692-0.905-1.339-1.366-1.965
		c-1.405-1.908-3.153-4.279-2.754-7.554c0.447-3.67,4.382-9.218,9.295-9.218l0.183,0.002c3.898,0.157,7.219,3.102,8.443,4.637
		c1.779,2.235,1.847,4.345,1.589,5.721c-0.53,2.853-2.188,4.822-3.792,6.727c-0.578,0.686-1.124,1.334-1.683,2.084l-5.276,7.077
		L553.904,427.479z"/>
	<path fill-rule="evenodd" clip-rule="evenodd" fill="#E9D094" d="M368.373,252.688l-3.988,0.006l0.065-3.188l-10.82-8.797
		l10.998-0.015l0.097-4.825l12.335-0.247l3.042,3.094l0.268,0.372c0.357,0.496,0.646,1.029,0.861,1.588l8.481-0.006l-10.565,10.048
		l-1.496,1.96l-1.262,0.001l-0.128,6.389L368.373,252.688z"/>
	<path fill-rule="evenodd" clip-rule="evenodd" fill="#E9D094" d="M627.979,539.73l-1.399,0.022l-0.023-1.48l-2.542-2.604
		l-1.509-0.006l0.005-1.535l-1.037-1.063l1.045-1.079l0.004-1.248c-0.07-0.904,0.029-1.792,0.294-2.638l-0.402-0.975l2.599-2.599
		l0.237-0.311l3.342-2.508l6.032,0.005l0.998,0.757l0.354-0.002l1.808,1.679l1.456,1.385l1.486,0.015l-0.014,1.386l1.027,0.978
		l-1.047,1.116l-0.052,5.438l-2.77,2.498l-2.49,2.65l-5.526,0.088l-1.051,0.875L627.979,539.73z"/>
	<polygon fill-rule="evenodd" clip-rule="evenodd" fill="#E9D094" points="405.159,331.666 403.5,331.664 403.501,330.142 
		401.93,328.697 399.653,325.422 399.758,320.606 401.874,317.639 404.602,314.692 407.257,314.517 413.14,314.521 416.185,317.51 
		417.682,317.513 417.68,318.977 418.556,319.836 417.676,320.886 417.668,325.116 418.644,326.183 417.665,327.167 
		417.662,328.691 416.15,328.688 414.675,330.17 414.673,331.675 413.179,331.673 412.282,332.574 411.238,331.671 407.393,331.668 
		406.337,332.75 	"/>
	<polygon fill-rule="evenodd" clip-rule="evenodd" fill="#E9D094" points="356.457,450.912 356.457,441.157 363.627,442.576 
		368.255,443.504 368.646,443.504 369.241,443.702 373.652,444.586 373.688,452.637 367.316,462.031 	"/>
	<polygon fill-rule="evenodd" clip-rule="evenodd" fill="#E9D094" points="723.139,281.8 733.014,269.144 744.919,281.494 
		731.949,288.97 	"/>
	<polygon fill-rule="evenodd" clip-rule="evenodd" fill="#E9D094" points="409.583,412.705 409.076,412.705 407.614,411.287 
		405.481,409.755 405.542,402.977 409.8,398.529 422.924,398.431 415.182,416.741 	"/>
	<polygon fill-rule="evenodd" clip-rule="evenodd" fill="#E9D094" points="650.499,280.878 659.208,272.624 666.539,280.354 
		657.838,288.619 	"/>
	<path fill-rule="evenodd" clip-rule="evenodd" fill="#E9D094" d="M228.603,352.565c-2.632,0-4.546-1.711-5.07-2.235
		c-1.231-1.253-1.879-2.848-1.85-4.516c0.031-1.686,0.638-2.905,1.001-3.634c0.064-0.128,0.114-0.225,0.161-0.334l3.311-7.669
		l6.21,5.592c0.102,0.092,0.209,0.174,0.302,0.248c3.087,2.444,3.135,5.098,2.638,6.898c-0.48,1.728-1.599,3.347-3.072,4.447
		l-1.571,1.174l-2.031,0.029H228.603z"/>
	<path fill-rule="evenodd" clip-rule="evenodd" fill="#E9D094" d="M433.059,265.46c-0.397-0.551-1.415-1.995-1.428-4.106
		c-0.014-1.444,0.431-2.548,0.726-3.279c0.084-0.21,0.174-0.432,0.274-0.713l5.036-14.166l6.101,13.742
		c0.203,0.458,0.368,0.786,0.487,1.025c0.439,0.88,1.771,3.548,0.074,6.452c-0.751,1.287-1.745,2.043-2.222,2.407l-2.543-3.091
		l2.456,3.157l-5.426,4.671L433.059,265.46z"/>
	<polygon fill-rule="evenodd" clip-rule="evenodd" fill="#E9D094" points="639.785,310.432 652.005,310.212 639.255,327.326 
		625.594,310.666 	"/>
	<g>
		<path fill-rule="evenodd" clip-rule="evenodd" fill="#C0982A" d="M791.777,378.627c-1.999,0-3.947-0.915-5.346-2.508
			c-1.429-1.628-2.096-3.731-1.829-5.769c0.564-4.308,3.517-6.88,7.898-6.88c0.208,0,0.42,0.006,0.636,0.017
			c0.301-0.027,0.592-0.04,0.872-0.04c2.215,0,4.091,0.824,5.282,2.322c1.209,1.52,1.616,3.636,1.117,5.805
			c-0.66,2.86-3.915,6.057-6.965,6.841C792.896,378.556,792.335,378.627,791.777,378.627z"/>
		<path fill-rule="evenodd" clip-rule="evenodd" fill="#C0982A" d="M749.046,627.479c-0.166,0-0.336-0.004-0.509-0.012
			c-2.194-0.097-3.898-0.794-5.064-2.073c-1.864-2.044-1.888-4.991-1.752-7.835l0.042-0.876l0.673-0.563
			c3.148-2.635,5.521-3.81,7.691-3.81c3.94,0,5.81,4.009,6.423,5.326l0.189,0.406l-0.002,0.449
			C756.692,626.603,751.344,627.479,749.046,627.479z"/>
		<polygon fill-rule="evenodd" clip-rule="evenodd" fill="#C0982A" points="360.435,443.534 370.833,454.182 360.491,455.155 		"/>
		<path fill-rule="evenodd" clip-rule="evenodd" fill="#C0982A" d="M362.457,448.468c1.339,1.371,2.679,2.742,4.019,4.114
			c-1.332,0.125-2.664,0.25-3.996,0.376C362.472,451.461,362.464,449.964,362.457,448.468z"/>
		<path fill-rule="evenodd" clip-rule="evenodd" fill="#C0982A" d="M358.949,449.797l1.91-2.538
			c1.386-1.842,2.771-2.738,4.234-2.738c2.802,0,4.056,3.208,4.468,4.262l1.333,3.41L358.949,449.797z"/>
		<path fill-rule="evenodd" clip-rule="evenodd" fill="#C0982A" d="M367.698,449.512c-1.747-0.351-3.494-0.7-5.241-1.051
			C364.936,445.166,366.497,446.439,367.698,449.512z"/>
		
			<rect x="368.084" y="242.226" transform="matrix(-0.0201 0.9998 -0.9998 -0.0201 622.196 -121.3387)" fill-rule="evenodd" clip-rule="evenodd" fill="#C0982A" width="4.946" height="4"/>
		<path fill-rule="evenodd" clip-rule="evenodd" fill="#C0982A" d="M370.607,241.753c-0.033,1.648-0.066,3.297-0.1,4.945
			C370.541,245.05,370.574,243.401,370.607,241.753z"/>
		<polygon fill-rule="evenodd" clip-rule="evenodd" fill="#C0982A" points="656.398,275.469 663.095,282.531 654.464,285.243 		"/>
		<path fill-rule="evenodd" clip-rule="evenodd" fill="#C0982A" d="M659.437,281.584c-0.786,0.247-1.572,0.494-2.358,0.741
			c0.176-0.891,0.352-1.78,0.528-2.671C658.216,280.298,658.826,280.941,659.437,281.584z"/>
		<rect x="370.497" y="244.683" fill-rule="evenodd" clip-rule="evenodd" fill="#C0982A" width="4.189" height="4"/>
		<path fill-rule="evenodd" clip-rule="evenodd" fill="#C0982A" d="M370.492,246.686c1.398-0.002,2.796-0.004,4.193-0.005
			C373.288,246.683,371.891,246.684,370.492,246.686z"/>
		<rect x="407.506" y="323.669" fill-rule="evenodd" clip-rule="evenodd" fill="#C0982A" width="3.174" height="4"/>
		<path fill-rule="evenodd" clip-rule="evenodd" fill="#C0982A" d="M407.506,325.668c1.058,0.001,2.116,0.002,3.174,0.003
			C409.622,325.67,408.563,325.669,407.506,325.668z"/>
		
			<rect x="410.083" y="321.089" transform="matrix(-0.0018 1 -1 -0.0018 735.5195 -87.9863)" fill-rule="evenodd" clip-rule="evenodd" fill="#C0982A" width="3.179" height="4"/>
		<path fill-rule="evenodd" clip-rule="evenodd" fill="#C0982A" d="M411.669,324.68c0.002-1.06,0.004-2.119,0.006-3.179
			C411.674,322.561,411.672,323.62,411.669,324.68z"/>
		<rect x="407.386" y="318.518" fill-rule="evenodd" clip-rule="evenodd" fill="#C0982A" width="3.301" height="4"/>
		<path fill-rule="evenodd" clip-rule="evenodd" fill="#C0982A" d="M410.687,320.52c-1.1-0.001-2.2-0.002-3.301-0.003
			C408.486,320.518,409.586,320.519,410.687,320.52z"/>
		
			<rect x="627.501" y="531.243" transform="matrix(-0.7156 0.6985 -0.6985 -0.7156 1452.0699 474.1839)" fill-rule="evenodd" clip-rule="evenodd" fill="#C0982A" width="4.001" height="2.914"/>
		<path fill-rule="evenodd" clip-rule="evenodd" fill="#C0982A" d="M628.484,531.657c0.678,0.694,1.356,1.389,2.034,2.084
			C629.84,533.047,629.162,532.352,628.484,531.657z"/>
		<polygon fill-rule="evenodd" clip-rule="evenodd" fill="#C0982A" points="632.665,531.755 632.688,529.51 636.688,529.503 
			636.665,531.793 		"/>
		<path fill-rule="evenodd" clip-rule="evenodd" fill="#C0982A" d="M634.665,531.772c0.007-0.763,0.015-1.524,0.022-2.287
			C634.681,530.247,634.673,531.01,634.665,531.772z"/>
		
			<rect x="630.485" y="531.671" transform="matrix(-0.9999 0.016 -0.016 -0.9999 1271.6765 1057.1853)" fill-rule="evenodd" clip-rule="evenodd" fill="#C0982A" width="2.262" height="4.001"/>
		<path fill-rule="evenodd" clip-rule="evenodd" fill="#C0982A" d="M630.484,533.689c0.754-0.012,1.508-0.024,2.262-0.036
			C631.992,533.666,631.238,533.678,630.484,533.689z"/>
		
			<rect x="373.047" y="241.486" transform="matrix(-0.7133 0.7009 -0.7009 -0.7133 812.2704 151.9957)" fill-rule="evenodd" clip-rule="evenodd" fill="#C0982A" width="4" height="1.295"/>
		<path fill-rule="evenodd" clip-rule="evenodd" fill="#C0982A" d="M375.502,242.597c-0.303-0.308-0.604-0.616-0.907-0.924
			C374.896,241.98,375.199,242.289,375.502,242.597z"/>
		<rect x="373.672" y="243.406" fill-rule="evenodd" clip-rule="evenodd" fill="#C0982A" width="4" height="1.375"/>
		<path fill-rule="evenodd" clip-rule="evenodd" fill="#C0982A" d="M375.673,244.783c0-0.458-0.001-0.917-0.001-1.375
			C375.673,243.866,375.673,244.324,375.673,244.783z"/>
		
			<rect x="374.392" y="244.149" transform="matrix(-0.6073 0.7945 -0.7945 -0.6073 798.4318 97.6288)" fill-rule="evenodd" clip-rule="evenodd" fill="#C0982A" width="1.39" height="4"/>
		<path fill-rule="evenodd" clip-rule="evenodd" fill="#C0982A" d="M374.666,246.699c0.281-0.368,0.562-0.735,0.843-1.103
			C375.228,245.964,374.947,246.331,374.666,246.699z"/>
		
			<rect x="409.184" y="320.265" transform="matrix(-0.7002 0.7139 -0.7139 -0.7002 928.2816 252.2419)" fill-rule="evenodd" clip-rule="evenodd" fill="#C0982A" width="4" height="1.487"/>
		<path fill-rule="evenodd" clip-rule="evenodd" fill="#C0982A" d="M411.713,321.527c-0.353-0.347-0.706-0.693-1.06-1.04
			C411.007,320.834,411.36,321.181,411.713,321.527z"/>
		
			<rect x="405.419" y="320.009" transform="matrix(-0.5805 0.8142 -0.8142 -0.5805 904.0866 178.2551)" fill-rule="evenodd" clip-rule="evenodd" fill="#C0982A" width="1.416" height="4"/>
		<path fill-rule="evenodd" clip-rule="evenodd" fill="#C0982A" d="M406.538,321.433c-0.274,0.385-0.548,0.769-0.822,1.153
			C405.99,322.201,406.264,321.817,406.538,321.433z"/>
		
			<rect x="404.095" y="323.471" transform="matrix(-0.8212 0.5706 -0.5706 -0.8212 924.5687 358.6678)" fill-rule="evenodd" clip-rule="evenodd" fill="#C0982A" width="4" height="1.412"/>
		<path fill-rule="evenodd" clip-rule="evenodd" fill="#C0982A" d="M405.693,323.599c0.269,0.386,0.536,0.771,0.805,1.158
			C406.229,324.371,405.961,323.984,405.693,323.599z"/>
		
			<rect x="404.987" y="324.442" transform="matrix(-0.6763 0.7366 -0.7366 -0.6763 921.7813 245.3366)" fill-rule="evenodd" clip-rule="evenodd" fill="#C0982A" width="4" height="1.509"/>
		<path fill-rule="evenodd" clip-rule="evenodd" fill="#C0982A" d="M406.432,324.686c0.37,0.34,0.739,0.68,1.108,1.02
			C407.171,325.365,406.802,325.025,406.432,324.686z"/>
		
			<rect x="410.443" y="323.178" transform="matrix(-0.7054 0.7088 -0.7088 -0.7054 931.7181 263.144)" fill-rule="evenodd" clip-rule="evenodd" fill="#C0982A" width="1.472" height="4"/>
		<path fill-rule="evenodd" clip-rule="evenodd" fill="#C0982A" d="M410.66,325.699c0.346-0.348,0.692-0.695,1.038-1.043
			C411.353,325.004,411.006,325.352,410.66,325.699z"/>
		
			<rect x="412.377" y="402.506" transform="matrix(-1 0.0073 -0.0073 -1 829.173 805.9744)" fill-rule="evenodd" clip-rule="evenodd" fill="#C0982A" width="1.466" height="4"/>
		<path fill-rule="evenodd" clip-rule="evenodd" fill="#C0982A" d="M413.843,404.501c-0.488,0.004-0.978,0.008-1.466,0.011
			C412.865,404.508,413.354,404.505,413.843,404.501z"/>
		
			<rect x="410.863" y="404.058" transform="matrix(-0.009 1 -1 -0.009 821.2563 -1.789)" fill-rule="evenodd" clip-rule="evenodd" fill="#C0982A" width="1.303" height="4"/>
		<path fill-rule="evenodd" clip-rule="evenodd" fill="#C0982A" d="M411.521,405.406c-0.004,0.433-0.008,0.865-0.012,1.299
			C411.512,406.272,411.517,405.839,411.521,405.406z"/>
		<polygon fill-rule="evenodd" clip-rule="evenodd" fill="#C0982A" points="410.307,408.296 412.641,405.047 413.756,405.851 
			411.416,409.095 		"/>
		<path fill-rule="evenodd" clip-rule="evenodd" fill="#C0982A" d="M411.474,406.672c0.371,0.267,0.741,0.533,1.112,0.801
			C412.215,407.205,411.845,406.938,411.474,406.672z"/>
		
			<rect x="365.677" y="449.504" transform="matrix(-1 0.0044 -0.0044 -1 737.3281 898.6905)" fill-rule="evenodd" clip-rule="evenodd" fill="#C0982A" width="4" height="1.303"/>
		<path fill-rule="evenodd" clip-rule="evenodd" fill="#C0982A" d="M367.68,450.807c-0.002-0.435-0.004-0.868-0.006-1.303
			C367.676,449.938,367.678,450.372,367.68,450.807z"/>
		
			<rect x="629.35" y="526.125" transform="matrix(-0.7997 0.6005 -0.6005 -0.7997 1450.9701 572.1352)" fill-rule="evenodd" clip-rule="evenodd" fill="#C0982A" width="1.378" height="4"/>
		<path fill-rule="evenodd" clip-rule="evenodd" fill="#C0982A" d="M630.59,527.711c-0.367,0.275-0.734,0.552-1.102,0.827
			C629.855,528.263,630.223,527.986,630.59,527.711z"/>
		
			<rect x="631.151" y="527.441" transform="matrix(-0.6044 0.7967 -0.7967 -0.6044 1436.569 342.8727)" fill-rule="evenodd" clip-rule="evenodd" fill="#C0982A" width="4.001" height="1.372"/>
		<path fill-rule="evenodd" clip-rule="evenodd" fill="#C0982A" d="M633.698,528.542c-0.364-0.276-0.729-0.553-1.094-0.829
			C632.969,527.989,633.334,528.266,633.698,528.542z"/>
		<polygon fill-rule="evenodd" clip-rule="evenodd" fill="#C0982A" points="627.105,528.372 627.949,527.272 631.125,529.704 
			630.277,530.81 		"/>
		<path fill-rule="evenodd" clip-rule="evenodd" fill="#C0982A" d="M629.537,528.488c-0.281,0.367-0.563,0.735-0.846,1.103
			C628.974,529.224,629.256,528.855,629.537,528.488z"/>
		
			<rect x="632.184" y="528.256" transform="matrix(-0.6887 0.7251 -0.7251 -0.6887 1454.4982 433.5018)" fill-rule="evenodd" clip-rule="evenodd" fill="#C0982A" width="4" height="1.5"/>
		<path fill-rule="evenodd" clip-rule="evenodd" fill="#C0982A" d="M634.727,529.521c-0.361-0.344-0.724-0.687-1.085-1.03
			C634.003,528.833,634.365,529.177,634.727,529.521z"/>
		<rect x="626.521" y="530.415" fill-rule="evenodd" clip-rule="evenodd" fill="#C0982A" width="4" height="1.273"/>
		<path fill-rule="evenodd" clip-rule="evenodd" fill="#C0982A" d="M628.523,530.415c-0.001,0.425-0.002,0.849-0.004,1.273
			C628.521,531.265,628.522,530.84,628.523,530.415z"/>
		<path fill-rule="evenodd" clip-rule="evenodd" fill="#C0982A" d="M311.232,273.59c-2.166,0-3.956-0.699-5.176-2.022
			c-0.894-0.969-1.908-2.766-1.662-5.821c0.372-4.594,1.669-7.26,7.206-7.293c0.091-0.004,0.239-0.007,0.384-0.007
			c2.142,0,3.82,0.595,4.987,1.769c1.196,1.202,1.797,2.956,1.786,5.213c-0.023,4.956-2.839,8.083-7.349,8.159L311.232,273.59z"/>
		<path fill-rule="evenodd" clip-rule="evenodd" fill="#C0982A" d="M682.012,411.794c-0.177,0-0.357-0.005-0.542-0.015
			c-2.117-0.118-4.496-0.391-5.939-2.145c-0.946-1.15-1.299-2.668-1.074-4.633c-0.324-2.647,0.563-4.328,1.381-5.281
			c1.137-1.322,2.827-2.051,4.76-2.051c0.432,0,0.874,0.037,1.316,0.11c2.75,0.455,5.983,3.67,6.529,6.491
			c0.382,1.967-0.061,3.898-1.213,5.296C686.045,411.003,684.191,411.794,682.012,411.794z"/>
		<path fill-rule="evenodd" clip-rule="evenodd" fill="#C0982A" d="M566.543,299.481c-0.266,0-0.535-0.015-0.807-0.044
			c-2.721-0.298-5.706-4.034-6.035-6.711c-0.241-1.977,0.278-3.802,1.463-5.141c1.193-1.348,2.941-2.09,4.923-2.09
			c0.523,0,1.062,0.053,1.6,0.157c1.88,0.366,3.34,1.644,4.513,2.67c0.376,0.329,0.73,0.639,1.006,0.833l0.985,0.695l-0.154,1.195
			C573.355,296.328,570.555,299.481,566.543,299.481z"/>
		<path fill-rule="evenodd" clip-rule="evenodd" fill="#C0982A" d="M248.704,456.781c-1.846,0-3.473-0.715-4.58-2.013
			c-1.136-1.332-1.62-3.144-1.328-4.971c0.398-2.492,3.626-6.626,6.36-6.626c0.128,0,0.253,0.008,0.375,0.024
			c2.84,0.374,7.33,3.136,7.71,6.185c0.226,1.813-0.35,3.65-1.58,5.042c-1.336,1.513-3.291,2.346-5.504,2.346
			c-0.226,0-0.457-0.008-0.693-0.026C249.203,456.768,248.949,456.781,248.704,456.781z"/>
		<path fill-rule="evenodd" clip-rule="evenodd" fill="#C0982A" d="M557.308,425.377c-0.513-0.83-1.063-1.577-1.55-2.237
			c-1.186-1.609-2.21-2.999-2.003-4.697c0.262-2.148,2.858-5.702,5.324-5.702l0.114,0.002c2.035,0.083,4.416,1.917,5.384,3.131
			c0.672,0.844,0.937,1.682,0.785,2.492c-0.338,1.818-1.534,3.24-2.92,4.885c-0.59,0.7-1.2,1.425-1.83,2.27l-1.759,2.359
			L557.308,425.377z"/>
		<path fill-rule="evenodd" clip-rule="evenodd" fill="#C0982A" d="M369.786,248.687l-1.318,0.002l0.021-1.054l-3.617-2.941
			l3.676-0.005l0.099-4.897l6.77-0.135l1.619,1.646l0.089,0.124c0.454,0.63,0.645,1.381,0.548,2.14l0.001,1.062
			c0.002,0.017,0.004,0.033,0.005,0.05l2.016-0.001l-3.535,3.362l-0.489,0.641l-3.202,0.003l-0.043,2.139L369.786,248.687z"/>
		<path fill-rule="evenodd" clip-rule="evenodd" fill="#C0982A" d="M630.488,533.972l-1.402,1.166l-2.033-2.083l1.324-1.367
			l-1.857-0.008l0.004-1.123c-0.087-0.737,0.086-1.452,0.507-2.08l0.172-0.23l-0.073-0.178l0.9-0.9l0.063-0.083l1.832-1.375
			l3.353,0.003l1.014,0.769l0.127-0.001l0.644,0.598l1.044,0.993l-1.326,1.415l1.908,0.02l-0.03,3.164l-1.588,1.433l-1.444,1.537
			l-3.109,0.05L630.488,533.972z"/>
		<polygon fill-rule="evenodd" clip-rule="evenodd" fill="#C0982A" points="407.504,327.668 407.506,325.822 406.186,327.176 
			404.962,326.051 403.681,324.208 403.73,321.925 404.983,320.168 406.455,318.578 407.388,318.517 411.504,318.52 
			413.115,320.102 411.942,321.501 413.675,321.505 413.669,324.684 411.848,324.68 413.116,326.066 412.078,327.109 410.68,325.9 
			410.678,327.671 		"/>
		<polygon fill-rule="evenodd" clip-rule="evenodd" fill="#C0982A" points="360.457,449.282 360.457,446.026 362.851,446.5 
			367.858,447.504 367.998,447.504 368.212,447.575 369.667,447.867 369.683,451.417 366.756,455.732 		"/>
		<polygon fill-rule="evenodd" clip-rule="evenodd" fill="#C0982A" points="728.703,281.171 733.332,275.238 738.486,280.585 
			732.338,284.129 		"/>
		<polygon fill-rule="evenodd" clip-rule="evenodd" fill="#C0982A" points="410.875,408.705 410.697,408.705 410.187,408.21 
			409.5,407.716 409.528,404.598 411.52,402.517 416.871,402.477 413.451,410.563 		"/>
		
			<rect x="656.521" y="279.289" transform="matrix(-0.7258 0.6879 -0.6879 -0.7258 1329.5256 31.3235)" fill-rule="evenodd" clip-rule="evenodd" fill="#C0982A" width="4" height="2.658"/>
		<path fill-rule="evenodd" clip-rule="evenodd" fill="#C0982A" d="M228.603,348.565c-1.183,0-2.23-1.052-2.241-1.063
			c-0.575-0.585-0.687-1.203-0.68-1.617c0.014-0.782,0.316-1.387,0.582-1.921c0.079-0.159,0.167-0.333,0.251-0.529l1.104-2.557
			l2.07,1.864c0.187,0.167,0.372,0.313,0.531,0.439c0.564,0.447,1.615,1.279,1.23,2.67c-0.243,0.874-0.844,1.735-1.61,2.307
			l-0.533,0.398L228.603,348.565z"/>
		<path fill-rule="evenodd" clip-rule="evenodd" fill="#C0982A" d="M436.431,263.301c-0.028-0.046-0.063-0.09-0.096-0.136
			c-0.262-0.363-0.699-0.97-0.704-1.835c-0.006-0.662,0.208-1.195,0.436-1.759c0.092-0.229,0.206-0.509,0.333-0.868l1.679-4.722
			l2.034,4.581c0.236,0.531,0.426,0.913,0.565,1.19c0.339,0.679,0.803,1.609,0.198,2.645c-0.353,0.604-0.838,0.974-1.192,1.244
			c-0.075,0.057-0.15,0.112-0.219,0.172l-1.827,1.572L436.431,263.301z"/>
		<polygon fill-rule="evenodd" clip-rule="evenodd" fill="#C0982A" points="634.462,317.717 634.389,313.64 640.864,318.464 
			634.56,323.634 		"/>
	</g>
</g>
</svg>
