<svg version="1.1" id="Layer_1" xmlns="http://www.w3.org/2000/svg" xmlns:xlink="http://www.w3.org/1999/xlink" x="0px" y="0px"
	 width="1024.191px" height="1024.191px" viewBox="0 0 1024.191 1024.191" enable-background="new 0 0 1024.191 1024.191"
	 xml:space="preserve">
<path fill="currentColor" d="M899.98,185.837c-0.044,2.903-0.064,5.808-0.132,8.711c-0.24,10.793-0.685,21.586-0.679,32.378
	c0.003,6.289,0.861,12.563,0.649,18.886c-0.351,10.387-1.161,20.819-0.578,31.165c1.266,22.464,0.682,44.924,0.373,67.366
	c-0.134,9.542-0.261,19.165-0.08,28.656c0.133,7.027-1.438,14.077,0.097,21.211c0.837,3.895-0.536,8.216-0.499,12.341
	c0.155,17.292,0.579,34.582,0.671,51.874c0.042,7.896-1.041,15.828-0.549,23.678c0.495,7.896,0.425,15.77,0.499,23.646
	c0.045,4.793-0.955,9.633-0.57,14.377c1.055,13.008-0.307,25.996,0.432,39.041c0.921,16.311-0.367,32.754-0.311,49.115
	c0.085,23.793,0.587,47.592,0.502,71.393c-0.019,5.463-0.836,10.939-0.644,16.387c0.745,21.115,1.025,42.238,0.54,63.353
	c-0.284,12.359,0.136,24.693,0.133,37.037c-0.003,14.082,0.525,28.186-0.111,42.235c-0.683,15.066,1.199,30.132-0.512,45.187
	c-0.442,3.891,0.237,7.93,0.591,11.885c0.317,3.549-1.138,4.484-4.604,4.461c-19.655-0.139-39.314-0.155-58.972,0.025
	c-12.217,0.113-24.465,0.518-36.646,0.397c-12.249-0.118-24.515-0.229-36.771-0.276c-8.148,0.014-16.307,0.024-24.462,0.041
	c-15.104,0.143-30.259,0.477-45.307,0.227c-21.943-0.362-43.884-0.047-65.821-0.364c-14.994-0.222-29.994-0.08-44.991-0.078
	c-86.198,0.008-172.399,0.022-258.602,0.032c-10.884,0-21.775-0.264-32.65,0.041c-11.8,0.332-23.625-0.528-35.364,0.162
	c-9.686,0.572-19.361,0.17-29.017,0.384c-8.877,0.194-17.864-0.613-26.818-0.605c-22.884,0.023-45.769-0.084-68.652,0.072
	c-3.832,0.024-5.025-0.875-5.021-4.941c0.12-125.477,0.107-250.953,0.096-376.43c-0.009-108.813-0.056-217.625-0.054-326.438
	c0-22.49,0.138-44.981,0.208-67.469c19.482-0.057,38.967-0.117,58.452-0.177c2.516,0.004,5.032,0.007,7.544,0.011
	c10.82-0.002,21.643-0.005,32.467-0.007c11.18,0,22.359,0,33.535,0c14.147,0.003,28.3,0.005,42.451,0.007
	c1.189-0.005,2.38-0.009,3.565-0.013c1.152,0.074,2.313,0.213,3.471,0.213c46.331,0.02,92.661,0.054,138.991,0.022
	c23.991-0.016,47.979-0.148,71.972-0.229c3.187-0.008,6.368-0.015,9.548-0.021c14.822,0.006,29.649,0.012,44.478,0.018
	c1.174-0.006,2.347-0.011,3.517-0.017c9.48,0.003,18.964,0.005,28.447,0.007c1.194,0.003,2.389,0.005,3.578,0.007
	c12.483,0.07,24.975,0.209,37.464,0.197c28.986-0.027,57.973-0.128,86.959-0.199c1.193,0,2.386,0.001,3.575,0.001
	c8.479,0.003,16.963,0.007,25.445,0.01c2.515,0,5.024,0,7.533,0c20.146-0.002,40.294-0.004,60.442-0.006
	c0.862-0.009,1.725-0.018,2.583-0.027c22.187,0.059,44.377,0.117,66.568,0.175c2.253,5.009-0.574,10.258,0.75,15.374
	c0.563,2.172,0.149,4.597,0.183,6.902c-0.921,6.422-0.519,12.896-0.395,19.331C899.607,172.992,898.535,179.454,899.98,185.837z
	 M133.387,626.365c-0.072,1.321-0.207,2.645-0.207,3.967c-0.022,41.227-0.058,82.451-0.03,123.678
	c0.014,20.271,0.149,40.545,0.23,60.818c-0.004,3.84-0.009,7.682-0.013,11.521c0,13.49,0,26.982-0.001,40.476
	c-0.128,8.479-0.499,16.963,0.185,25.438c2.632,1.476,5.493,0.697,8.229,0.697c114.461,0.027,228.923-0.012,343.385-0.021
	c133.789-0.012,267.579-0.004,401.369-0.038c1.757-0.003,3.658,0.627,5.286-0.646c0.124-1.645,0.355-3.287,0.356-4.932
	c0.047-73.32,0.088-146.642,0.099-219.959c0.011-98.148-0.014-196.297-0.011-294.444c0.003-78.984-0.003-157.97,0.116-236.954
	c0.006-3.426-1.055-4.014-4.187-3.997c-25.828,0.142-51.656,0.119-77.485,0.12c-217.461,0.009-434.922,0.009-652.384,0.032
	c-8.15,0.001-16.301,0.221-24.452,0.338c-0.223,0.412-0.641,0.825-0.641,1.238c0.023,27.709,0.08,55.418,0.134,83.127
	c0.007,3.172,0.014,6.344,0.021,9.516c-0.009,16.163-0.019,32.325-0.028,48.488c0.001,2.843,0.002,5.685,0.004,8.527
	c-0.057,29.49-0.151,58.98-0.156,88.472c-0.003,20.991,0.114,41.982,0.177,62.974c-0.005,2.521-0.01,5.04-0.016,7.563
	c0.002,35.152,0.005,70.31,0.008,105.464c-0.003,1.166-0.006,2.332-0.009,3.498c-0.001,21.832-0.002,43.664-0.003,65.494
	C133.372,620,133.379,623.181,133.387,626.365z"/>
<path fill="currentColor" d="M518.806,124.823c-23.988,0.08-47.979,0.213-71.972,0.229c-46.33,0.031-92.66-0.003-138.991-0.022
	c-1.157,0-2.314-0.139-3.471-0.213c1.319-1.074,2.882-0.622,4.333-0.622c68.588-0.014,137.176-0.005,205.763,0.027
	C515.921,124.222,517.481,123.774,518.806,124.823z"/>
<path fill="currentColor" d="M732.794,124.814c-28.986,0.071-57.973,0.172-86.959,0.199c-12.489,0.012-24.979-0.127-37.464-0.197
	c6.062-1.402,12.213-0.605,18.308-0.625c33.765-0.108,67.525-0.042,101.287,0.005C729.578,124.199,731.306,123.697,732.794,124.814z
	"/>
<path fill="currentColor" d="M898.944,124.967c-22.191-0.058-44.384-0.116-66.568-0.175c0.95-0.208,1.896-0.596,2.842-0.597
	c20.151-0.03,40.302-0.021,60.453-0.005C896.807,124.191,898.032,123.958,898.944,124.967z"/>
<path fill="currentColor" d="M829.792,124.819c-20.148,0.002-40.297,0.004-60.442,0.006c0.807-0.787,1.828-0.681,2.814-0.68
	c18.432,0.016,36.863,0.03,55.295,0.085C828.238,124.232,829.015,124.614,829.792,124.819z"/>
<path fill="currentColor" d="M184.81,124.818c-19.485,0.06-38.97,0.12-58.452,0.177c0.669-1.015,1.721-0.862,2.697-0.861
	c17.805,0.015,35.61,0.031,53.415,0.087C183.25,124.224,184.03,124.61,184.81,124.818z"/>
<path fill="currentColor" d="M572.83,124.819c-14.826-0.006-29.653-0.012-44.477-0.018c6.048-1.418,12.183-0.573,18.258-0.539
	C555.348,124.312,564.121,123.363,572.83,124.819z"/>
<path fill="currentColor" d="M300.807,124.829c-14.149-0.002-28.304-0.004-42.451-0.007c6.039-1.449,12.179-0.666,18.245-0.579
	C284.667,124.359,292.776,123.29,300.807,124.829z"/>
<path fill="currentColor" d="M899.98,185.837c-1.445-6.383-0.373-12.845-0.496-19.263c-0.124-6.436-0.528-12.909,0.393-19.331
	C899.911,160.111,899.946,172.974,899.98,185.837z"/>
<path fill="currentColor" d="M224.821,124.822c-10.824,0.002-21.647,0.005-32.467,0.007C203.179,123.805,214,123.745,224.821,124.822z"/>
<path fill="currentColor" d="M604.793,124.81c-9.482-0.002-18.967-0.004-28.447-0.007C585.832,123.759,595.313,123.774,604.793,124.81z"/>
<path fill="currentColor" d="M761.817,124.825c-8.484-0.003-16.97-0.007-25.447-0.01C744.855,123.722,753.336,123.809,761.817,124.825z"/>
<path fill="currentColor" d="M738.351,900.404c8.155-0.015,16.313-0.027,24.462-0.041C754.659,901.384,746.505,901.343,738.351,900.404z"/>
<path fill="currentColor" d="M133.55,892.261c42.818-0.047,85.637-0.131,128.456-0.137c122.466-0.014,244.935,0.01,367.398,0.008
	c86.477-0.002,172.951-0.022,259.429-0.031c0.997,0,1.994,0.097,2.988,0.148c-1.63,1.273-3.531,0.645-5.288,0.646
	c-133.79,0.037-267.58,0.027-401.369,0.039c-114.462,0.013-228.924,0.052-343.385,0.023
	C139.043,892.958,136.182,893.736,133.55,892.261z"/>
<path fill="currentColor" d="M133.387,626.365c1.022,1.521,0.559,3.239,0.56,4.858c0.027,59.918,0.024,119.838,0.007,179.759
	c0,1.297,0.355,2.68-0.574,3.85c-0.081-20.277-0.216-40.551-0.23-60.822c-0.028-41.227,0.008-82.451,0.03-123.678
	C133.18,629.009,133.314,627.689,133.387,626.365z"/>
<path fill="currentColor" d="M133.364,283.353c1.218,2.531,0.613,5.24,0.616,7.846c0.048,46.418,0.023,92.837-0.013,139.255
	c-0.001,1.457,0.4,3.01-0.583,4.349c-0.063-20.995-0.18-41.986-0.177-62.978C133.213,342.333,133.308,312.843,133.364,283.353z"/>
<path fill="currentColor" d="M133.369,442.358c0.82,1.008,0.579,2.214,0.58,3.354c0.018,32.755,0.026,65.51,0.013,98.264c0,1.3,0.318,2.681-0.585,3.853
	C133.375,512.667,133.372,477.513,133.369,442.358z"/>
<path fill="currentColor" d="M133.874,132.456c0.027,27.342,0.059,54.685,0.056,82.026c0,0.782-0.367,1.564-0.563,2.342
	c-0.054-27.712-0.11-55.421-0.134-83.13C133.233,133.281,133.651,132.868,133.874,132.456z"/>
<path fill="currentColor" d="M133.368,551.32c0.197,0.784,0.565,1.567,0.566,2.354c0.03,20.269,0.028,40.533-0.006,60.799
	c-0.001,0.783-0.368,1.566-0.564,2.349C133.365,594.984,133.367,573.152,133.368,551.32z"/>
<path fill="currentColor" d="M133.388,226.337c1.31,8.89,0.446,17.83,0.496,26.741c0.04,7.245,0.858,14.536-0.524,21.751
	C133.37,258.662,133.379,242.5,133.388,226.337z"/>
<path fill="currentColor" d="M133.366,826.349c1.343,11.531,0.256,23.105,0.56,34.656c0.05,1.932,0.555,3.979-0.561,5.822
	C133.366,853.332,133.366,839.841,133.366,826.349z"/>
<path fill="currentColor" d="M650.053,302.156c7.603,6.172,15.063,12.495,22.899,18.398c18.162,13.684,34.393,29.378,49.112,46.813
	c24.047,28.479,44.41,59.289,60.365,92.9c14.298,30.121,25.732,61.319,33.891,93.755c3.925,15.606,7.902,31.131,9.855,47.118
	c0.167,1.371,1.308,3.191-0.977,3.593c-1.657,0.289-1.613-1.488-2.206-2.646c-5.06-9.875-12.845-17.424-21.567-23.967
	c-15.477-11.605-33.143-18.746-51.646-23.678c-11.799-3.146-23.816-5.312-36.189-5.545c-6.408-0.123-12.771-1.324-19.177,0.141
	c-0.933,0.213-2.057,0.195-2.688-0.834c-0.785-1.279,0.643-1.521,1.08-2.25c2.698-4.482,1.322-9.65,2.167-14.471
	c1.526-8.705,1.63-17.66,2.325-26.508c1.077-6.523,0.73-13.096,0.57-19.658c-0.003-0.82-0.006-1.642-0.01-2.456
	c0.228-7.22,0.551-14.442-0.57-21.628c-2.62-43.959-8.704-87.202-26.104-128.109c-0.02,6.905,2.788,13.182,4.392,19.711
	c2.812,11.463,4.671,23.069,6.445,34.688c1.956,12.809,3.457,25.692,4.899,38.571c0.7,6.248,0.854,12.562,1.183,18.848
	c0.438,8.449,0.808,16.905,1.203,25.355c-0.053,2.805-0.274,5.622-0.126,8.418c0.598,11.038-0.579,22.118,0.808,33.134
	c-1.397,4.724-0.712,9.55-0.464,14.304c0.283,5.461,1.104,10.914-0.255,16.309c-0.885,3.514,1.144,6.828,0.601,10.221
	c-1.634,0.464-2.063-0.901-2.268-1.596c-4.563-15.432-16.607-24.938-27.809-35.047c-12.629-11.4-27.168-19.994-42.479-27.167
	c-20.362-9.541-41.472-16.876-63.863-20.241c-2.391-0.357-2.476,0.63-3.069,1.679c-17.884,31.476-35.638,63.022-53.598,94.452
	c-22.863,40.015-44.979,80.47-69.8,119.33c-10.824,16.945-22.271,33.472-35.873,48.369c-7.615,8.342-16.397,15.178-28.086,20.605
	c5.674,0,9.932,0.545,13.991-0.117c7.967-1.297,15.938-0.504,23.892-0.898c24.941-1.231,49.896-1.244,74.853-0.676
	c16.755,0.381,33.519,0.902,50.246,1.877c16.158,0.941,32.287,2.449,48.407,3.941c2.935,0.271,5.84,1.098,8.833,1.069
	c-1.587,1.834-3.708,1.027-5.604,1.041c-7.766,0.063-15.53,0.009-23.299-0.006c-14.797-0.143-29.595-0.285-44.388-0.428
	c-0.801-0.141-1.606-0.4-2.413-0.402c-24.642-0.086-49.284-0.287-73.925-0.153c-14.125,0.075-28.269-0.611-42.379,0.549
	c-14.438,0.074-28.938,1.021-43.296,0.002c-18.091-1.283-38.073-14.519-39.974-36.799c-1.071-12.574,3.941-23.22,10.374-33.263
	c2.228-3.473,6.611-2.188,9.863-0.543c4.421,2.24,5.888,6.312,4.049,10.318c-1.904,4.15-5.053,7.738-6.051,12.289
	c-1.978,9.004-2.311,17.744,5.885,24.279c9.306,7.422,18.024,6.178,28.212-0.011c11.313-6.868,20.112-16.598,28.549-26.903
	c9.999-12.22,18.727-25.209,27.163-38.438c16.095-25.229,31.114-51.108,46.112-77c16.643-28.727,33.396-57.389,50.072-86.094
	c7.775-13.391,15.486-26.818,23.476-40.656c-17.992-0.052-35.902-0.845-53.592,3.053c-0.101-0.864,0.229-1.487,0.77-2.22
	c13.986-18.896,27.448-38.171,41.688-56.892c7.244-9.522,14.518-18.985,22.313-28.057c4.93-5.731,9.492-11.787,14.603-17.349
	c8.373-9.116,16.718-18.31,25.747-26.751c4.646-4.346,9.229-8.695,13.827-13.266c-1.597-0.804-2.144,0.337-2.868,0.874
	c-12.563,9.284-23.62,20.281-34.886,31.012c-12.37,11.783-23.643,24.628-34.699,37.642c-10.459,12.307-20.357,25.051-29.445,38.408
	c-6.932,10.188-13.924,20.365-19.005,31.637c-0.896,1.988-4.517,4.571-0.338,7.077c-0.865,0.954-2.284,3.144-2.527,0.019
	c-1.236-15.917-10.966-27.238-20.321-38.865c-8.229-10.223-17.91-18.763-28.468-26.501c-15.932-11.68-33.313-20.411-51.985-26.648
	c-8.288-2.769-16.703-5.05-25.329-6.685c-4.041-0.766-7.93-0.105-11.874-0.431c-1.741-0.144-3.646,0.449-4.829-1.477
	c11.907-4.273,22.403-11.313,33.578-16.998c38.855-19.771,79.691-34.206,121.785-45.118c20.724-5.373,41.697-9.961,63.056-12.043
	c14.015-1.365,28.056-3.011,42.205-2.367c2.799,0.128,5.606,0.019,8.433-0.34c-3.723-1.244-7.729-1.438-11.411-1.578
	c-14.521-0.552-29.104-1.179-43.608-0.003c-21.606,1.751-43.04,4.698-64.194,9.758c-19.346,4.626-38.379,10.145-57.026,17.029
	c-19.485,7.193-38.271,15.833-56.183,26.422c-8.332,4.927-16.647,9.873-24.975,14.804c-2.354,1.394-3.394,5.407-6.162,4.541
	c-2.416-0.756-4.024-3.814-6.242-5.528c-7.549-5.834-16.183-9.585-25.258-12.232c-11.977-3.494-24.209-5.583-36.741-4.825
	c-8.827,0.534-17.7,1.064-26.139,4.076c-1.276,0.455-2.502,0.763-2.955-0.433c-0.438-1.16,1.055-1.873,1.917-2.406
	c11.944-7.384,23.806-14.901,36.332-21.301c33.961-17.352,69.438-30.648,106.545-39.43c20.258-4.793,40.817-7.863,61.589-9.634
	c17.072-1.455,34.143-2.102,51.265-1.718c32.413,0.728,64.154,5.834,95.454,14.165c10.562,2.811,20.875,6.558,31.693,8.408
	c1.357,0.232,2.621,0.306,3.905-0.157c4.815-0.028,7.611,4.174,11.729,5.617C645.165,300.81,647.366,302.089,650.053,302.156z"/>
<path fill="#735724" d="M650.053,302.156c-2.688-0.067-4.889-1.347-7.01-2.822c7.244-8.012,7.738-12.639,1.755-16.934
	c0.498-1.556,2.365-2.351,2.405-4.171C660.771,284.205,658.4,292.12,650.053,302.156z"/>
<path fill="#C0982A" d="M647.204,278.229c-0.04,1.82-1.907,2.615-2.405,4.171c5.983,4.295,5.489,8.922-1.755,16.934
	c-4.115-1.442-6.911-5.645-11.729-5.616c3.035-1.533,6.295-2.705,8.442-5.596c0.913-1.228,1.688-2.217,0.855-3.985
	c-2.023-4.301-1.037-5.834,3.613-6.084C645.213,278,646.211,278.165,647.204,278.229z"/>
<path fill="currentColor" d="M391.239,758.863c14.11-1.16,28.254-0.476,42.379-0.55c24.641-0.135,49.283,0.068,73.925,0.152
	c0.807,0.002,1.612,0.264,2.413,0.402c-22.784,0.061-45.563,0.16-68.344,0.166C424.821,759.041,408.03,758.925,391.239,758.863z"/>
<path fill="currentColor" d="M689.986,511.849c-1.387-11.016-0.21-22.096-0.808-33.134c-0.148-2.796,0.073-5.613,0.126-8.418
	c1.51,6.354,0.563,12.812,0.747,19.211C690.266,496.948,690.028,504.401,689.986,511.849z"/>
<path fill="currentColor" d="M554.343,759.298c7.769,0.014,15.533,0.066,23.299,0.006c1.896-0.014,4.018,0.793,5.604-1.041
	c1.461-0.18,2.95-0.563,4.206,1.332C576.417,759.816,565.394,760.751,554.343,759.298z"/>
<path fill="currentColor" d="M697.289,461.233c1.121,7.186,0.798,14.408,0.57,21.628C696.521,475.681,697.217,468.448,697.289,461.233z"/>
<path fill="currentColor" d="M697.869,485.317c0.16,6.563,0.507,13.135-0.57,19.658C697.197,498.413,696.491,491.835,697.869,485.317z"/>
<path fill="currentColor" d="M124.342,690.246c-0.015-6.445-0.029-12.893-0.044-19.334c0.988-3.416,0.581-6.93,0.583-10.396
	c0.013-16.473-0.054-32.943-0.128-49.416c-0.067-14.957,0.528-29.92-0.437-44.865c-0.084-19.271-0.22-38.541-0.243-57.813
	c-0.04-33.403-0.041-66.806,0.001-100.209c0.028-22.099,0.158-44.196,0.243-66.289c0.116-1.142,0.332-2.287,0.334-3.434
	c0.056-31.458,0.145-62.916,0.105-94.374c-0.02-15.956-0.278-31.911-0.429-47.866c0.018-22.265,0.056-44.528,0.024-66.792
	c-0.003-2.521-0.185-4.472,3.486-4.212c14.248,1.008,28.547-0.556,42.764,0.275c13.485,0.789,26.938,0.438,40.401,0.515
	c28.754,0.165,57.517,0.408,86.261-0.141c11.631-0.223,23.268-0.507,34.899-0.473c14.229,0.041,28.459,0.597,42.688,0.592
	c15.465-0.005,30.938-0.835,46.39-0.491c14.131,0.313,28.268,0.882,42.389,0.51c56.105-1.48,112.216-0.463,168.323-0.64
	c49.92-0.157,99.841-0.042,149.762-0.056c36.254-0.01,72.508-0.05,108.762-0.041c9.512,0.003,8.7-1.146,8.7,8.403
	c-0.01,93.479-0.033,186.958-0.053,280.438c-0.012,57.806-0.046,115.611-0.032,173.417c0.017,62.955,0.118,125.91,0.103,188.865
	c-0.012,41.641-0.165,83.279-0.252,124.916c-1.163-0.031-2.329-0.088-3.494-0.088c-102.455-0.02-204.909-0.037-307.364-0.049
	c-122.444-0.016-244.889-0.033-367.333-0.029c-31.815,0-63.63,0.082-95.444,0.125c-0.141-0.193-0.327-0.322-0.555-0.383
	c0.034-0.828,0.091-1.658,0.091-2.488c-0.03-56.432-0.041-112.863-0.115-169.295C124.709,716.17,124.476,703.207,124.342,690.246z
	 M891.817,515.848c0.044-17.47,0.127-34.938,0.126-52.406c0-87.396-0.016-174.79-0.04-262.185
	c-0.006-22.297-0.068-44.595-0.105-66.892c-0.033-2.001-1.489-1.279-2.518-1.285c-15.812-0.099-31.62-0.267-47.432-0.253
	c-27.111,0.023-54.224,0.211-81.336,0.242c-39.923,0.047-79.846,0.056-119.77,0.007c-24.725-0.03-49.448-0.269-74.172-0.278
	c-19.95-0.009-39.9,0.259-59.852,0.267c-24.265,0.01-48.528-0.125-72.794-0.198c-1.309-0.139-2.616-0.398-3.925-0.399
	c-31.445-0.034-62.891-0.048-94.336-0.034c-1.478,0.001-2.953,0.278-4.43,0.427c-12.97,0.074-25.938,0.223-38.906,0.209
	c-51.293-0.056-102.586-0.093-153.877-0.357c-4.993-0.026-6.703,1.002-6.646,6.375c0.319,30.487,0.281,60.979,0.269,91.47
	c-0.045,106.465-0.158,212.93-0.19,319.395c-0.024,79.475,0.033,158.949,0.061,238.424c0.012,33.654,0.117,67.313-0.037,100.967
	c-0.018,4.025,1.183,4.934,4.985,4.855c14.821-0.293,29.647-0.268,44.472-0.359c27.316,0.059,54.632,0.156,81.948,0.16
	c20.818,0,41.636-0.121,62.454-0.188c0.875,0.004,1.751,0.008,2.626,0.012c1.491,0.078,2.981,0.221,4.474,0.223
	c44.158,0.02,88.315,0.049,132.475,0.018c26.485-0.02,52.971-0.141,79.456-0.217c6.211,0.338,12.421,0.428,18.63-0.033
	c8.317,0.084,16.634,0.246,24.951,0.234c29.132-0.043,58.263-0.146,87.396-0.229c1.872-0.012,3.743-0.021,5.616-0.031
	c1.824,0.084,3.648,0.24,5.474,0.24c44.328,0.008,88.655,0.006,132.983-0.012c22.498-0.008,44.997-0.127,67.493,0.016
	c3.71,0.021,5.088-0.947,4.755-4.74c-0.35-3.973-0.232-7.99-0.232-11.99c-0.001-73.15,0.016-146.305,0.017-219.457
	c0.001-23.488-0.031-46.979-0.048-70.471c-0.234-1.604-0.67-3.207-0.674-4.811c-0.057-20.633-0.066-41.266-0.029-61.896
	C891.13,519.059,891.577,517.453,891.817,515.848z"/>
</svg>
