<svg version="1.1" id="Layer_1" xmlns="http://www.w3.org/2000/svg" xmlns:xlink="http://www.w3.org/1999/xlink" x="0px" y="0px"
	 width="1024.191px" height="1024.191px" viewBox="0 0 1024.191 1024.191" enable-background="new 0 0 1024.191 1024.191"
	 xml:space="preserve">
<path fill="currentColor" d="M125.342,689.246c-0.015-6.445-0.029-12.893-0.044-19.334c0.988-3.416,0.581-6.93,0.583-10.396
	c0.013-16.473-0.054-32.943-0.128-49.416c-0.067-14.957,0.528-29.92-0.437-44.865c-0.084-19.271-0.22-38.541-0.243-57.812
	c-0.04-33.403-0.041-66.806,0.001-100.209c0.028-22.099,0.158-44.196,0.243-66.289c0.116-1.142,0.332-2.287,0.334-3.434
	c0.056-31.458,0.145-62.916,0.105-94.374c-0.02-15.956-0.278-31.911-0.429-47.866c0.018-22.265,0.056-44.528,0.024-66.792
	c-0.003-2.521-0.185-4.472,3.486-4.212c14.248,1.008,28.547-0.556,42.764,0.275c13.485,0.789,26.938,0.438,40.401,0.515
	c28.754,0.165,57.517,0.408,86.261-0.141c11.631-0.223,23.268-0.507,34.899-0.473c14.229,0.041,28.459,0.597,42.688,0.592
	c15.465-0.005,30.938-0.835,46.39-0.491c14.131,0.313,28.268,0.882,42.389,0.51c56.105-1.48,112.216-0.463,168.323-0.64
	c49.92-0.157,99.841-0.042,149.762-0.056c36.254-0.01,72.508-0.05,108.762-0.041c9.512,0.003,8.7-1.146,8.7,8.403
	c-0.01,93.479-0.033,186.958-0.053,280.438c-0.012,57.806-0.046,115.61-0.032,173.417c0.017,62.955,0.118,125.91,0.103,188.865
	c-0.012,41.641-0.165,83.279-0.252,124.916c-1.163-0.031-2.329-0.088-3.494-0.088c-102.455-0.02-204.909-0.037-307.364-0.049
	c-122.444-0.016-244.889-0.033-367.333-0.029c-31.815,0-63.63,0.082-95.444,0.125c-0.141-0.193-0.327-0.322-0.555-0.383
	c0.034-0.828,0.091-1.658,0.091-2.488c-0.03-56.432-0.041-112.863-0.115-169.295C125.709,715.169,125.476,702.207,125.342,689.246z
	 M892.817,514.847c0.044-17.469,0.127-34.937,0.126-52.406c0-87.396-0.016-174.79-0.04-262.185
	c-0.006-22.297-0.068-44.595-0.105-66.892c-0.033-2.001-1.489-1.279-2.518-1.285c-15.812-0.099-31.62-0.267-47.432-0.253
	c-27.111,0.023-54.224,0.211-81.336,0.242c-39.923,0.047-79.846,0.056-119.77,0.007c-24.725-0.03-49.448-0.269-74.172-0.278
	c-19.95-0.009-39.9,0.259-59.852,0.267c-24.265,0.01-48.528-0.125-72.794-0.198c-1.309-0.139-2.616-0.398-3.925-0.399
	c-31.445-0.034-62.891-0.048-94.336-0.034c-1.478,0.001-2.953,0.278-4.43,0.427c-12.97,0.074-25.938,0.223-38.906,0.209
	c-51.293-0.056-102.586-0.093-153.877-0.357c-4.993-0.026-6.703,1.002-6.646,6.375c0.319,30.487,0.281,60.979,0.269,91.47
	c-0.045,106.465-0.158,212.93-0.19,319.395c-0.024,79.475,0.033,158.949,0.061,238.424c0.012,33.654,0.117,67.313-0.037,100.967
	c-0.018,4.025,1.183,4.934,4.985,4.855c14.821-0.293,29.647-0.268,44.472-0.359c27.316,0.059,54.632,0.156,81.948,0.16
	c20.818,0,41.636-0.121,62.454-0.188c0.875,0.004,1.751,0.008,2.626,0.012c1.491,0.078,2.981,0.221,4.474,0.223
	c44.158,0.02,88.315,0.049,132.475,0.018c26.485-0.02,52.971-0.141,79.456-0.217c6.211,0.338,12.421,0.428,18.63-0.033
	c8.317,0.084,16.634,0.246,24.951,0.234c29.132-0.043,58.263-0.146,87.396-0.229c1.872-0.012,3.743-0.021,5.616-0.031
	c1.824,0.084,3.648,0.24,5.474,0.24c44.328,0.008,88.655,0.006,132.983-0.012c22.498-0.008,44.997-0.127,67.493,0.016
	c3.71,0.021,5.088-0.947,4.755-4.74c-0.35-3.973-0.232-7.99-0.232-11.99c-0.001-73.15,0.016-146.305,0.017-219.457
	c0.001-23.488-0.031-46.979-0.048-70.471c-0.234-1.604-0.67-3.207-0.674-4.811c-0.057-20.633-0.066-41.266-0.029-61.896
	C892.13,518.058,892.577,516.453,892.817,514.847z"/>
<path fill-rule="evenodd" clip-rule="evenodd" fill="currentColor" d="M127.717,897.254c-0.836-10.539-0.5-21.102-0.506-31.651
	c-0.056-97.3-0.043-194.599-0.065-291.898c-0.006-24.714,0.011-49.427-0.133-74.14c-0.082-14.026-0.532-28.05-0.68-42.076
	c-0.04-3.844,0.412-7.694,0.639-11.533c0.08-1.224,0.229-2.454,0.229-3.684c0.012-42.053,0.028-84.107-0.001-126.161
	c-0.009-13.644-0.14-27.287-0.215-40.93c-0.229-11.229-0.492-22.458-0.673-33.687c-0.092-5.722,0.841-11.388,0.792-17.138
	c-0.174-20.598,0.397-41.212-0.254-61.791c-0.304-9.601,0.964-19.136,0.196-28.684c-0.346-4.292,0.835-5.707,5.514-5.699
	c89.398,0.146,178.797,0.076,268.195,0.071c148.325-0.01,296.648-0.007,444.97-0.006c15.859,0,31.719,0.097,47.575-0.036
	c3.134-0.027,3.878,1.012,3.854,4.004c-0.151,20.037-0.129,40.075-0.152,60.113c-0.051,40.711-0.134,81.422-0.128,122.133
	c0.008,45.686,0.146,91.373,0.146,137.06c-0.001,110.981-0.046,221.964-0.077,332.944c-0.01,35.915-0.027,71.83-0.064,107.744
	c-0.002,1.696-0.237,3.392-0.359,5.082c-55.778-0.06-111.561-0.141-167.343-0.161c-85.929-0.032-171.859-0.035-257.789-0.024
	c-20.345,0.002-40.691,0.107-61.036,0.164c-8.386,0-16.772,0-25.151,0c-1.533-0.087-3.072-0.249-4.612-0.249
	c-46.416,0.016-92.832,0.039-139.247,0.083C203.467,897.139,165.592,897.203,127.717,897.254z M130.431,132.321
	c-1.061,10.059-0.297,20.142-0.301,30.208c-0.031,111.92,0.03,223.84,0.099,335.76c0.001,1.506-0.461,3.101,0.43,4.541
	c1.305,2.591,3.742,2.433,6.029,2.331c10.854-0.486,21.706,0.156,32.464,1.15c9.95,0.919,19.961,0.966,29.884,2.486
	c7.713,1.182,15.633,0.983,23.373,2.042c9.226,1.262,18.494,2.414,27.721,3.373c14.473,1.502,28.768,4.051,43.118,6.181
	c13.979,2.077,27.872,4.856,41.827,7.199c13.041,2.188,26.095,4.458,39.344,7.941c-2.789,2.138-5.528,1.245-8.033,1.272
	c-9.903,0.111-19.834-0.191-29.651,1.366c-12.755,2.021-25.473,4.208-38.452,4.216c-9.224,0.005-18.371,1.531-27.621,1.436
	c0.605,0.378,1.207,0.514,1.807,0.516c20.115,0.071,40.232-0.05,60.343,0.256c12.783,0.192,25.575,0.761,38.33,1.633
	c11.552,0.788,23.128,0.909,34.685,1.688c9.372,0.633,18.734,1.491,28.086,2.254c11.695,0.952,23.485,2.07,34.911,4.585
	c11.773,2.591,23.887,3.433,35.407,7.318c12.693,4.281,25.901,6.571,38.979,9.332c9.5,2.006,19.051,3.813,28.246,6.908
	c-3.928,1.434-7.903,1.619-11.914,1.455c-12.031-0.489-24.063-0.418-36.094,0.015c-19.213,0.691-37.801,5.966-56.861,7.784
	c-10.727,1.021-21.414,2.563-32.227,2.456c-2.61-0.025-5.219-0.004-8.413-0.004c1.848,2.576,3.725,1.813,5.283,1.82
	c11.312,0.057,22.608,0.229,33.927-0.627c13.753-1.039,27.565,0.004,41.376-0.861c19.496-1.223,39.063-0.437,58.613-1.03
	c31.678-0.964,63.409-0.067,95.117-0.165c9.279-0.029,18.655,2.792,27.845-0.67c-32.116-1.623-64.411-0.974-96.17-7.214
	c2.356-0.518,4.728-0.206,6.992-0.569c13.5-2.156,27.175-2.632,40.72-4.474c12.765-1.734,25.555-3.314,38.194-5.76
	c21.478-4.157,42.972-8.035,64.757-10.341c16.126-1.705,32.135-4.502,48.251-6.306c17.105-1.915,34.262-3.421,51.423-4.749
	c12.148-0.94,24.346-1.216,36.512-1.939c4.919-0.293,9.813-0.989,14.721-1.501c1.31-1.305,0.6-2.943,0.602-4.396
	c0.083-35.386,0.136-70.773,0.121-106.16c-0.006-13.489-0.192-26.978-0.298-40.467c-0.024-9.592,0.009-19.168-0.544-28.771
	c-0.61-10.599-0.109-21.261-0.107-31.896c0.006-21.813,0.116-43.628-0.043-65.439c-0.1-13.749,1.135-27.448,0.261-41.256
	c-0.794-12.548,0.611-25.22,0.393-37.827c-0.117-6.784-0.933-13.583-0.486-20.378c0.819-12.479,1.639-24.942-0.633-37.363
	c-4.101-1.146-8.3-0.593-12.443-0.594c-106.822-0.032-213.644-0.006-320.465,0.003c-139.007,0.011-278.016,0.009-417.024,0.056
	c-3.845,0.002-7.728-0.718-11.55,0.311C131.005,131.745,130.718,132.033,130.431,132.321z"/>
<g>
	<path fill-rule="evenodd" clip-rule="evenodd" fill="#C0982A" d="M410.352,897.27c20.345-0.057,40.69-0.162,61.036-0.164
		c85.929-0.011,171.86-0.008,257.789,0.024c55.782,0.021,111.564,0.102,167.343,0.161c-1.48,1.341-3.27,0.641-4.891,0.64
		c-119.104-0.007-238.209-0.051-357.313-0.103c-39.805-0.017-79.611-0.057-119.417-0.12
		C413.387,897.707,411.791,898.169,410.352,897.27z"/>
	<path fill-rule="evenodd" clip-rule="evenodd" fill="#C0982A" d="M127.717,897.254c37.875-0.052,75.75-0.115,113.625-0.15
		c46.416-0.044,92.832-0.067,139.247-0.083c1.54,0,3.08,0.162,4.612,0.249c-9.122,1.041-18.272,0.515-27.402,0.524
		c-75.219,0.077-150.439,0.071-225.658,0.048C130.676,897.841,129.042,898.529,127.717,897.254z"/>
	<path fill-rule="evenodd" clip-rule="evenodd" fill="#C0982A" d="M126.985,275.181c0.075,13.644,0.207,27.287,0.215,40.93
		c0.029,42.053,0.013,84.107,0.001,126.161c0,1.23-0.149,2.46-0.229,3.684c-1.034-6.004-0.461-12.056-0.47-18.072
		c-0.067-49.697-0.002-99.395,0.046-149.091C126.55,277.587,126.178,276.302,126.985,275.181z"/>
	<path fill-rule="evenodd" clip-rule="evenodd" fill="#C0982A" d="M892.774,131.682c-15.843,0.064-31.687,0.179-47.529,0.181
		c-108.354,0.021-216.709,0.028-325.064,0.021c-128.098-0.009-256.196-0.035-384.294-0.07c-1.537-0.001-3.073-0.229-4.602-0.354
		c3.83-1.033,7.712-0.313,11.557-0.314c139.008-0.047,278.017-0.045,417.024-0.056c106.821-0.009,213.643-0.035,320.465-0.003
		C884.475,131.088,888.674,130.536,892.774,131.682z"/>
	<path fill-rule="evenodd" clip-rule="evenodd" fill="#C0982A" d="M130.431,132.321c0.136,9.616,0.386,19.232,0.391,28.848
		c0.056,112.352,0.076,224.703,0.093,337.054c0,1.54-0.166,3.081-0.254,4.613c-0.893-1.446-0.43-3.041-0.431-4.547
		c-0.068-111.92-0.13-223.84-0.099-335.76C130.134,152.463,129.371,142.38,130.431,132.321z"/>
	<path fill-rule="evenodd" clip-rule="evenodd" fill="#C0982A" d="M893.51,545.634c-0.033-26.201-0.081-52.403-0.096-78.603
		c-0.013-22.796,0.003-45.59,0.041-68.385c0.002-1.35-0.438-2.792,0.479-4.042c0.105,13.497,0.292,26.985,0.298,40.475
		c0.015,35.387-0.038,70.774-0.121,106.16C894.109,542.691,894.819,544.33,893.51,545.634z"/>
	<path fill-rule="evenodd" clip-rule="evenodd" fill="#C0982A" d="M542.731,435.766c-26.092,19.899-55.862,32.552-86.404,43.751
		c10.523-2.65,20.742-6.074,30.99-9.496c32.186-10.747,63-24.837,94.146-38.093c35.155-14.961,69.919-30.828,105.606-44.549
		c28.788-11.068,58.229-19.713,88.529-25.338c12.815-2.379,25.786-3.792,38.91-2.968c-13.326,0.472-26.349,2.972-39.316,5.764
		c-35.077,7.551-68.553,19.67-101.267,34.358c-39.68,17.815-79.039,36.377-119.359,52.749c-7.468,3.033-15.017,5.868-23.098,9.015
		c2.748,0.635,4.627-0.489,6.506-1.132c27.184-9.314,54.362-18.646,81.513-28.054c29.523-10.23,59.414-19.197,90.035-25.481
		c24.388-5.004,49.055-7.972,74.001-7.229c24.048,0.716,47.639,4.142,69.876,14.011c5.471,2.428,10.855,5.076,16.072,8.535
		c-1.594,0.768-2.463-0.141-3.371-0.597c-16.867-8.456-34.723-13.013-53.503-14.876c-31.129-3.089-61.6,0.474-91.965,7.061
		c-22.932,4.975-45.579,10.917-67.982,17.848c-0.72,0.223-1.399,0.573-1.945,1.45c7.635-1.851,15.283-3.642,22.9-5.563
		c23.979-6.05,48.203-10.198,72.972-11.603c25.685-1.456,50.939,0.103,75.513,7.934c11.479,3.658,22.555,8.507,32.055,16.36
		c-5.118-2.399-10.103-5.159-15.381-7.13c-18.504-6.91-37.729-10.044-57.453-10.438c-40.285-0.805-79.401,6.499-118.175,16.57
		c-44.682,11.606-88.103,27.345-132.435,40.075c-30.6,8.787-61.672,15.563-93.052,20.975c-35.741,6.163-71.7,9.477-107.982,9.084
		c-1.229-0.013-2.459-0.002-3.756-0.458c88.569-2.887,172.72-26.162,255.592-55.491c-2.819,0.699-5.647,1.369-8.458,2.103
		c-3.002,0.785-5.995,1.61-8.98,2.455c-33.315,9.429-66.731,18.475-100.6,25.723c-7.429,1.59-14.949,3.729-22.45,3.82
		c-22.828,0.278-44.361,8.319-66.899,10.247c-19.628,1.678-39.113,4.948-58.865,5.361c-29.956,0.625-59.913,1.57-89.875,0.632
		c-13.446-0.421-26.876-1.359-40.627-2.08c0.96-1.636,2.285-1.251,3.387-1.211c20.659,0.748,41.258-0.083,61.849-1.858
		c17.169-1.479,34.312-3.122,51.336-5.806c38.994-6.148,77.761-13.263,114.628-28.081c14.52-5.837,28.649-12.479,41.813-21.093
		c-7.22,6.553-15.26,11.938-23.827,16.381c-32.964,17.101-68.316,27.099-104.493,34.544c-5.148,1.06-10.307,2.077-16.21,3.265
		c4.24,0.913,7.62-0.218,10.974-0.646c37.698-4.815,74.578-13.369,110.615-25.342c36.257-12.046,69.707-29.665,100.184-52.733
		c6.97-5.275,13.276-11.428,20.143-16.743c-43.171,45.065-96.111,72.699-156.493,87.089
		C450.116,480.409,497.277,460.436,542.731,435.766z"/>
	<path fill-rule="evenodd" clip-rule="evenodd" fill="#C0982A" d="M359.693,521.327c13.229,0.806,26.426,0.776,39.614,0.512
		c35.972-0.72,71.405-5.804,106.534-13.344c31.574-6.776,62.679-15.447,94.019-23.166c31.031-7.643,62.093-15.423,93.896-18.989
		c36.948-4.142,73.792-4.176,109.624,8.072c7.328,2.505,14.347,5.694,20.873,9.983c-5.784-2.044-11.42-4.455-17.275-6.292
		c-15.686-4.923-31.801-6.918-48.142-7.504c-43.101-1.546-84.96,6.414-126.627,16.232c-35.645,8.399-71.131,17.517-107.108,24.468
		c-24.376,4.71-48.861,8.555-73.605,10.885c-16.566,1.56-33.176,2.146-49.748,2.115
		C387.724,524.273,373.547,524.441,359.693,521.327z"/>
	<path fill-rule="evenodd" clip-rule="evenodd" fill="#C0982A" d="M538.423,486.639c10.064-3.082,20.164-6.05,30.186-9.264
		c27.645-8.865,55.248-17.854,82.88-26.755c31.551-10.163,63.688-17.892,96.76-20.59c20.918-1.707,41.909-0.983,62.478,4.208
		c0.423,0.107,0.823,0.304,1.155,1.034c-5.451-0.612-10.888-1.521-16.356-1.781c-19.437-0.925-38.741,0.449-58.044,2.973
		c-45.959,6.013-89.788,20.402-134.022,33.275c-20.706,6.025-41.544,11.593-62.327,17.353c-0.728,0.202-1.502,0.236-2.254,0.348
		C538.726,487.172,538.574,486.906,538.423,486.639z"/>
	<path fill-rule="evenodd" clip-rule="evenodd" fill="#C0982A" d="M743.014,488.826c-7.438-0.505-14.847-0.645-22.264-0.564
		c-23.231,0.255-45.979,4.352-68.632,8.93c-25.072,5.067-50.057,10.574-75.083,15.867c-1.497,0.316-3.038,0.422-4.714-0.048
		c4.266-1.173,8.51-2.436,12.801-3.507c26.027-6.499,51.74-14.248,78.071-19.545c25.17-5.065,50.436-6.225,75.859-2.228
		C740.397,487.944,741.694,488.455,743.014,488.826z"/>
</g>
</svg>
