<?xml version="1.0" encoding="utf-8"?>
<!-- Generator: Adobe Illustrator 16.0.0, SVG Export Plug-In . SVG Version: 6.00 Build 0)  -->
<!DOCTYPE svg PUBLIC "-//W3C//DTD SVG 1.1//EN" "http://www.w3.org/Graphics/SVG/1.1/DTD/svg11.dtd">
<svg version="1.1" id="Layer_1" xmlns="http://www.w3.org/2000/svg" xmlns:xlink="http://www.w3.org/1999/xlink" x="0px" y="0px"
	 width="500px" height="500px" viewBox="0 0 500 500" enable-background="new 0 0 500 500" xml:space="preserve">
<g>
	<path d="M131.097,444.252c-4.736-2.602-9.395-5.357-13.905-8.226c-36.16-23.016-64.047-54.003-82.885-92.1
		c-17.124-34.628-24.005-71.412-20.453-109.331c2.979-31.821,14.086-62.664,33.013-91.67
		c24.756-37.944,60.099-66.983,105.046-86.313c25.536-10.979,53.137-17.713,82.036-20.015c7.289-0.58,14.609-0.875,21.758-0.875
		c24.059,0,47.607,3.333,70.151,9.919c-11.384,3.911-22.49,7.453-33.977,10.013c-6.531,1.461-10.258,5.75-11.084,12.747
		c-0.694,5.745,1.736,10.366,6.411,12.788c-11.492-1.964-23.22-2.954-35.093-2.954c-5.847,0-11.83,0.24-17.782,0.714
		c-16.121,1.286-31.855,4.275-46.784,8.89c-0.625,0.025-4.145,0.182-4.145,0.182l-1.886,1.295c-0.531,0.365-1.125,0.73-1.839,1.131
		c-3.26,1.154-6.544,2.412-9.777,3.744c-1.021,0.264-2.032,0.505-3.013,0.719l-1.018,0.221l-0.927,0.475
		c-5.556,2.845-11.81,4.343-18.432,5.93c-4.101,0.982-8.341,1.998-12.567,3.38l-4.037,1.271c-5.208,1.641-10.415,3.282-15.631,4.895
		l-0.155,0.048c-3.901,1.204-15.771,4.867-12.866,18.24l1.074,4.944l3.961,0.923c-9.78,9.489-18.48,20.046-25.964,31.516
		c-15.762,24.16-25.02,49.937-27.519,76.617c-2.968,31.686,2.774,62.41,17.068,91.32c15.59,31.529,38.658,57.166,68.564,76.199
		c1.798,1.145,3.64,2.275,5.511,3.385C141.857,426.935,137.691,436.658,131.097,444.252z"/>
	<path d="M367.764,374.944c-0.214-6.405-0.513-12.861-0.802-19.121c-0.119-2.573-0.238-5.146-0.352-7.718
		c-3.367-75.273-4.917-144.61-4.72-211.414c7.729,5.985,14.928,12.675,21.508,19.995c20.138,22.402,32.819,48.492,37.693,77.545
		c5.089,30.324,0.771,59.979-12.836,88.141C398.647,342.266,385.055,359.905,367.764,374.944z"/>
	<path d="M145.694,388.344c-24.66-16.585-43.635-38.627-56.488-65.655c-13.86-29.143-17.954-59.72-12.167-90.884
		c3.001-16.164,8.803-31.46,17.243-45.463l0.438-0.727l0.151-0.438l0.322-0.305l1.836-3.229l0.647-0.954l2.342-3.615
		c5.521-8.699,12.589-17.18,21.647-25.99c2.122-2.063,4.325-4.081,6.658-6.097c7.008,5.766,10.657,13.556,11.118,23.661
		l0.842,18.391C143.315,253.027,146.448,321.22,145.694,388.344z"/>
	<path d="M251.874,474.147c-0.792,0-1.586-0.004-2.38-0.012c0,0-1.347,0.007-1.953,0.007c-9.345,0-18.833-0.56-28.2-1.665
		c-15.396-1.814-30.476-5.056-45.044-9.674c12.466-4.891,24.93-9.786,37.394-14.681l5.47-2.148c0.336-0.132,0.69-0.256,1.043-0.381
		c1.664-0.592,4.898-1.741,7.343-4.346c6.766,0.696,13.595,1.049,20.34,1.049c0.47,0,0.941-0.001,1.411-0.005
		c0.627,0.006,1.892,0.009,1.898,0.009c21.33,0,42.331-3.312,62.42-9.843c40.655-13.211,74.04-37.108,99.225-71.03
		c20.294-27.336,31.771-57.627,34.115-90.032c2.876-39.79-7.269-76.85-30.151-110.151c-14.237-20.723-31.966-37.949-52.742-51.258
		c0.022-2.359,0.046-4.718,0.074-7.077c0.197-15.858,3.922-28.32,11.356-37.893c32.033,17.092,58.728,40.98,79.408,71.079
		c27.446,39.943,39.616,84.367,36.172,132.04c-2.802,38.754-16.58,75.05-40.952,107.88c-30.553,41.147-71.075,70.146-120.441,86.191
		c-24.385,7.923-49.891,11.941-75.804,11.941C251.875,474.147,251.876,474.147,251.874,474.147z"/>
	<path d="M246.875,419.492c-17.156,0-34.044-2.414-50.239-7.178c-1.124-1.79-2.006-4.013-2.633-6.638
		c-1.971-8.259-4.038-17.98-4.417-27.46c-2.21-55.843-4.032-112.592-5.783-167.673c12.909,17.321,24.724,35.734,36.206,53.628
		c2.988,4.656,5.976,9.313,8.984,13.954c5.42,8.369,10.851,16.961,16.102,25.271c20.329,32.166,41.348,65.427,67.472,94.804
		l0.845,0.95c1.811,2.043,3.695,4.169,5.76,6.144c-14.696,6.144-30.361,10.334-46.753,12.493c-8.586,1.132-17.18,1.705-25.539,1.705
		C246.877,419.492,246.876,419.492,246.875,419.492z"/>
	<path d="M322.903,277.138c-1.189-1.659-2.293-3.304-3.359-4.922c-30.611-46.51-60.257-94.8-88.926-141.501
		c-4.802-7.822-9.604-15.644-14.412-23.461c-0.658-1.067-1.347-2.164-2.081-3.268c1.534-0.272,3.086-0.527,4.655-0.765l0.34-0.052
		l0.334-0.081c2.995-0.722,6.164-1.174,9.689-1.384l0.375-0.022l0.371-0.058c5.989-0.924,12.496-1.374,19.893-1.374
		c6.254,0,12.518,0.325,17.277,0.607c5.505,0.327,10.332,0.926,14.758,1.831c1.639,0.334,3.273,0.688,4.907,1.041l2.782,0.597
		l0.418,0.044c5.187,0.547,10.352,2.141,15.819,3.828l1.167,0.359c2.921,0.897,5.908,1.902,8.925,3.002
		c3.639,39.768,5.902,81.22,6.922,126.696C323.045,250.98,322.979,263.695,322.903,277.138z"/>
</g>
</svg>
