<?xml version="1.0" encoding="utf-8"?>
<!-- Generator: Adobe Illustrator 16.0.0, SVG Export Plug-In . SVG Version: 6.00 Build 0)  -->
<!DOCTYPE svg PUBLIC "-//W3C//DTD SVG 1.1//EN" "http://www.w3.org/Graphics/SVG/1.1/DTD/svg11.dtd">
<svg version="1.1" id="Layer_1" xmlns="http://www.w3.org/2000/svg" xmlns:xlink="http://www.w3.org/1999/xlink" x="0px" y="0px"
	 width="500px" height="500px" viewBox="0 0 500 500" enable-background="new 0 0 500 500" xml:space="preserve">
<g>
	<g>
		<path d="M492.339,225.708c-1.56-14.023-7.782-26.248-15.488-37.727c-8.339-12.427-14.602-25.399-13.569-40.892
			c0-2.257-0.004-4.514,0.002-6.772c0.04-17.09-7.249-30.192-21.434-39.604c-4.935-3.274-10.169-6.029-15.583-8.299
			c-15.709-6.589-27.386-17.857-37.628-31.061c-10.731-13.835-24.051-24.029-41.554-27.852c-10.103-2.208-20.337-1.666-30.55-1.288
			c-10.673,0.394-21.146-0.652-31.456-3.561c-11.325-3.194-22.393-7.299-34.151-8.973c-14.626-2.083-28.727-0.638-42.548,4.602
			c-12.051,4.567-22.62,11.792-33.565,18.317c-8.309,4.953-17.315,8.256-26.313,11.341c-5.333,1.83-11.235,2.488-16.885,3.646
			c-5.865,1.201-11.648,2.704-17.275,4.849c-14.098,5.372-23.913,15.249-30.117,28.74c-3.615,7.861-9.708,12.123-17.662,14.794
			c-18.25,6.129-30.864,17.882-35.72,37.066c-2.826,11.164-2.274,22.407-1.059,33.669c1.194,11.063,0.614,21.867-3.103,32.511
			c-3.123,8.945-7.852,17.108-11.688,25.7c-5.699,12.761-9.128,25.922-7.279,39.991c1.957,14.893,8.139,27.509,20.441,36.731
			c3.676,2.757,7.361,5.593,10.579,8.852c7.441,7.535,9.304,17.136,9.05,27.279c-0.167,6.67-0.658,13.318,0.654,19.947
			c2.362,11.935,8.163,21.887,17.575,29.493c8.948,7.232,19.642,10.913,30.665,13.636c6.856,1.693,13.762,3.163,20.223,6.161
			c12.835,5.955,22.489,15.659,31.174,26.472c8.218,10.232,17.009,20.016,28.057,27.12c9.121,5.864,19.295,9.604,30.412,10.385
			c10.821,0.759,21.369-0.124,31.685-3.516c7.485-2.459,14.394-6.278,21.677-9.212c10.112-4.072,20.493-6.141,31.394-3.984
			c6.254,1.237,12.534,2.317,18.934,1.962c5.745-0.319,11.141-1.646,16.102-4.959c5.492-3.666,9.456-8.776,13.937-13.401
			c4.333-4.476,9.27-7.443,15.643-7.873c5.484-0.37,10.995-0.052,16.462-0.88c10.051-1.522,19.158-4.931,27.005-11.722
			c7.345-6.358,11.937-14.661,17.212-22.517c1.998-2.974,3.69-6.218,6.313-8.691c7.301-6.888,16.581-10.801,24.859-16.227
			c10.118-6.633,17.594-15.343,22.81-26.235c5.612-11.718,5.204-23.971,3.612-36.287c-1.5-11.607-0.009-22.579,4.81-33.271
			c5.777-12.819,12.292-25.339,13.382-39.876C492.844,238.035,493.025,231.88,492.339,225.708z M459.66,256.4
			c-4.177,35.335-17.848,66.699-39.769,94.611c-13.782,17.546-29.936,32.528-48.432,44.939
			c-25.08,16.827-52.564,27.693-82.381,32.624c-13.597,2.249-27.271,3.637-41.065,3.387c-28.787-0.521-56.54-5.833-83.033-17.491
			c-18.341-8.07-35.353-18.188-50.672-31.088c-27.15-22.864-47.442-50.646-60.013-83.964c-13.19-34.959-14.893-70.524-5.119-106.479
			c9.757-35.896,28.92-66.199,56.162-91.467c10.053-9.326,21.027-17.383,32.572-24.759c8.223-5.253,17.194-8.953,25.796-13.415
			c6.585-3.415,13.642-5.737,20.558-7.927c11.378-3.604,23.059-6.512,34.968-8.188c11.885-1.671,23.794-2.886,35.828-2.799
			c41.662,0.514,80.336,11.427,115.538,33.845c24.542,15.628,44.938,35.623,60.573,60.243
			c13.513,21.277,23.197,44.131,27.211,69.159C460.977,223.818,461.586,240.101,459.66,256.4z"/>
		<path fill="#FFFFFF" d="M431.17,138.472c-15.636-24.62-36.031-44.615-60.573-60.243c-35.202-22.418-73.876-33.331-115.538-33.845
			c-12.034-0.087-23.943,1.128-35.828,2.799c-11.909,1.675-23.589,4.584-34.968,8.188c-6.916,2.19-13.973,4.512-20.558,7.927
			c-8.602,4.462-17.573,8.162-25.796,13.415c-11.545,7.376-22.519,15.433-32.572,24.759c-27.241,25.268-46.404,55.57-56.162,91.467
			c-9.773,35.955-8.071,71.521,5.119,106.479c12.571,33.318,32.863,61.1,60.013,83.964c15.319,12.9,32.331,23.018,50.672,31.088
			c26.493,11.658,54.247,16.971,83.033,17.491c13.794,0.25,27.469-1.138,41.065-3.387c29.816-4.931,57.301-15.797,82.381-32.624
			c18.496-12.411,34.649-27.394,48.432-44.939c21.921-27.912,35.592-59.276,39.769-94.611c1.926-16.3,1.316-32.582-1.279-48.77
			C454.367,182.603,444.683,159.749,431.17,138.472z"/>
	</g>
	<g>
		<path fill-rule="evenodd" clip-rule="evenodd" d="M251.212,423.472c-8.462,0.065-16.886-0.406-25.283-1.396
			c-31.013-3.657-59.671-13.934-86.003-30.69c-30.498-19.409-53.894-45.296-69.909-77.685c-14.438-29.2-20.362-60.133-17.319-92.62
			c2.646-28.254,12.491-54,27.941-77.68c21.875-33.527,52.014-57.088,88.513-72.783c21.998-9.458,45.052-14.922,68.93-16.825
			c29.262-2.33,57.922,0.836,85.722,10.284c40.79,13.862,74.137,37.945,98.653,73.626c23.139,33.673,33.562,71.005,30.613,111.794
			c-2.445,33.824-14.52,64.24-34.65,91.355c-25.982,34.994-59.931,59.096-101.398,72.573
			C295.631,420.379,273.688,423.681,251.212,423.472z M82.558,152.71c-0.728,0.689-1.17,1.55-1.491,2.485
			c-9.582,15.898-16.053,33.034-19.431,51.227c-6.576,35.412-1.816,69.453,13.631,101.934c16.312,34.299,41.191,61.039,73.86,80.045
			c40.194,23.382,83.672,32.042,129.924,25.947c35.231-4.643,67.086-17.538,95.416-39.051
			c23.802-18.076,42.668-40.243,55.705-67.228c15.195-31.453,20.175-64.454,14.391-98.919
			c-5.542-33.027-19.866-61.985-42.181-86.809c-23.271-25.886-51.996-43.455-85.232-53.668c-6.459-1.986-12.91-4.07-19.686-4.784
			c-2.604-0.556-5.206-1.131-7.814-1.665c-5.58-1.142-11.241-1.77-16.909-2.106c-13.804-0.821-27.614-1.222-41.36,0.9
			c-3.981,0.236-7.921,0.759-11.802,1.694c-13.15,1.997-26,5.129-38.352,10.146c-1.643,0.563-3.383,0.865-4.878,1.825
			c-7.124,2.698-13.974,6.013-20.699,9.548c-16.174,8.5-30.96,18.965-44.086,31.732c-9.111,8.862-17.419,18.376-24.247,29.132
			c-0.831,1.284-1.663,2.567-2.494,3.852c-0.258,0.377-0.516,0.757-0.773,1.136C83.553,150.959,83.056,151.834,82.558,152.71z"/>
		<path fill-rule="evenodd" clip-rule="evenodd" d="M96.612,312.421c1.999-0.268,3.514,1.032,5.179,1.718
			c13.405,5.519,27.396,6.661,41.659,5.648c14.691-1.043,29.37-2.596,44.119-1.399c12.992,1.054,25.709,3.455,37.494,9.328
			c12.158,6.061,21.783,14.678,26.821,27.688c0.099,0.254,0.286,0.473,0.659,1.071c1.748-3.751,3.287-7.329,5.477-10.561
			c7.753-11.445,18.882-18.33,31.686-22.32c16.18-5.041,32.898-6.392,49.814-5.195c12.726,0.898,25.439,2.101,38.227,1.201
			c9.068-0.64,17.896-2.318,26.384-5.631c1-0.39,2.027-0.71,3.053-1.027c0.146-0.044,0.355,0.12,1.276,0.463
			c-6.558,5.078-8.036,13.254-13.46,18.942c-12.241,12.84-27.001,21.389-43.794,26.688c-13.354,4.216-27.194,5.955-40.94,8.195
			c-9.792,1.596-19.492,3.597-28.672,7.551c-3.625,1.563-7.084,3.396-10.05,6.057c-0.62,0.556-1.149,1.452-2.354,0.867
			c2.739-3.845,6.738-5.954,10.745-7.944c9.896-4.916,20.664-6.731,31.42-8.507c16.062-2.65,32.228-4.783,47.453-11.061
			c13.238-5.458,25.101-12.966,35.193-23.167c1.948-1.97,3.812-4.046,5.193-6.616c-1.24-0.422-1.613,0.299-2.06,0.724
			c-13.333,12.679-29.402,20.469-46.686,26.043c-12.836,4.141-26.133,6.241-39.345,8.713c-10.864,2.032-21.31,5.42-31.269,10.196
			c-5.928,2.844-10.636,7.072-13.021,13.404c-0.423,1.122-0.874,1.542-2.065,1.486c-8.34-0.389-16.682-0.597-25.023,0.013
			c-0.751,0.055-1.54,0.208-1.839-0.92c-2.019-7.588-8.327-10.898-14.545-14.05c-12.107-6.137-25.112-9.379-38.458-11.604
			c-20.362-3.395-39.985-9.101-57.943-19.677c-6.296-3.707-12.167-7.949-17.529-12.908c-0.775-0.717-1.393-1.681-2.556-1.882
			l0,0.059c-3.416-3.909-6.833-7.816-10.248-11.725L96.612,312.421z M264.404,368.347c0.914-0.521,1.27-1.412,1.513-2.372
			c-0.64,0.718-1.897,1.061-1.462,2.446c-1.016,0.054-1.119,0.823-1.46,1.712C264.026,369.747,264.336,369.133,264.404,368.347z
			 M121.091,328.514c0.112,0.327-0.008,0.512-0.346,0.438c-0.086-0.019-0.209-0.366-0.155-0.437
			c0.168-0.217,0.424-0.438,0.545,0.065c1.386,1.626,3.323,2.108,5.286,2.439c5.434,0.917,10.9,1.404,16.11,1.073
			c-1.819-0.964-4.116-0.63-6.321-0.951C131.143,330.409,125.924,330.515,121.091,328.514z M243.966,368.653
			c0.027,0.148,0.054,0.296,0.081,0.444c-0.084-0.021-0.168-0.042-0.252-0.063c0.083-0.113,0.166-0.227,0.248-0.341
			c-0.209-0.175-0.539-0.311-0.612-0.531c-2.202-6.603-6.409-11.844-11.361-16.532c-8.968-8.494-20.473-11.804-31.901-14.963
			c-9.201-2.543-18.686-3.876-28.563-4.319c3.385,0.641,6.463,1.245,9.55,1.804c11.395,2.056,22.85,3.803,33.538,8.679
			c10.739,4.898,20.343,11.082,26.412,21.64C241.95,365.937,242.594,367.553,243.966,368.653z M236.887,374.623
			c0.252,0.217,0.504,0.434,0.756,0.651c0.281-0.465,0.202-0.827-0.304-1.067c-3.53-6.172-8.84-10.374-15-13.679
			c-6.754-3.623-14.127-5.389-21.541-6.701c-7.373-1.307-14.691-3.512-22.34-2.671c-0.557,0.062-0.854-0.277-1.197-0.664
			c-0.201-0.228-0.202-0.03,0.053-0.194c0.438-0.281,0.831-0.598,1.308-0.262c0.625,0.44,1.113,0.973,1.982,1.114
			c9.317,1.516,18.38,4.008,27.256,7.199C218.446,362.155,228.739,366.475,236.887,374.623z M352.117,326.859
			c-3.138,1.132-6.18-0.311-9.279-0.357c-9.729-0.145-19.41,0.026-29.048,1.7c-14.465,2.513-28.311,6.548-40.401,15.264
			c-8.493,6.124-14.405,14.125-17.575,24.266c0.397-0.059,0.69-0.021,0.752-0.123c0.351-0.578,0.68-1.176,0.953-1.795
			c4.408-10.023,11.31-17.757,20.719-23.445c8.764-5.299,18.224-8.719,28.066-11.135c12.572-3.085,25.396-3.896,38.314-3.707
			c2.467,0.036,5.067,0.682,7.457-0.591c0.574-0.528,1.262-1.304,1.929-0.381c0.933,1.29,2.202,1.114,3.445,1.133
			c5.798,0.082,11.611,0.193,17.37-0.551c4.861-0.628,9.685-1.579,14.266-3.493c-4.513,0.338-9.003,0.795-13.42,1.634
			c-7.406,1.407-15.068,0.235-22.4,2.331C352.979,327.69,352.504,327.124,352.117,326.859z M173.932,327.502
			c3.892,0.448,7.785,0.884,11.674,1.349c15.01,1.798,29.127,6.262,42.037,14.24c9.293,5.743,16.23,13.524,20.367,23.731
			c0.667,1.646,0.421,3.723,2.188,4.914c0.202,0.135,0.175,0.703,0.126,1.054c-0.013,0.1-0.522,0.252-0.733,0.177
			c-0.601-0.213-0.601-0.748-0.337-1.189c0.876-1.471,0.239-2.837-0.187-4.238c-3.651-11.997-11.451-20.65-22.002-26.974
			c-13.578-8.136-28.536-11.908-44.137-13.409C179.986,326.872,176.99,326.19,173.932,327.502z M266.387,365.391
			c2.444-2.082,4.529-4.559,7.171-6.477c13.533-9.827,29.123-13.884,45.346-15.847c13.124-1.59,26.397-1.669,39.063-3.445
			c-0.355-0.532-1.223-0.636-2.246-0.563c-10.379,0.752-20.77,1.368-31.147,2.158c-14.56,1.109-28.837,3.505-42.068,10.13
			C275.949,354.631,270.095,358.772,266.387,365.391z M233.59,361.105c0.315-0.866-0.466-1.188-0.895-1.622
			c-3.058-3.094-6.451-5.739-10.339-7.735c-10.701-5.49-22.097-8.774-34.005-9.934c-10.896-1.062-21.854-1.505-32.785-2.202
			c-4.415-0.282-8.833-0.518-13.248-0.773c2.492,0.709,5.006,1.054,7.53,1.274c13.292,1.159,26.664,1.504,39.877,3.408
			c15.563,2.245,30.252,6.895,42.573,17.256C232.664,361.084,233.016,361.473,233.59,361.105z M266.732,374.32
			c14.778-13.246,32.727-17.506,50.5-22.223c-3.229-0.578-6.212,0.585-9.266,1.026c-9.652,1.397-19.092,3.604-27.86,8.104
			C273.673,364.532,270.056,367.92,266.732,374.32z M325.572,333.894c-2.229-0.865-3.847,0.189-5.543,0.341
			c-10.822,0.968-21.226,3.734-31.324,7.623c-9.126,3.512-17.258,8.504-23.134,16.611c-0.753,1.04-1.349,2.063-1.515,3.523
			c3.9-5.486,8.575-9.834,14.259-13.118c11.977-6.921,24.896-10.988,38.52-13.058C319.637,335.392,322.563,335.285,325.572,333.894z
			 M171.531,327.42c0.012-0.334,0.024-0.666,0.035-0.998c-18.919-0.054-37.872,0.502-56.627-2.871
			c5.699,2.623,11.594,4.103,17.82,4.061c9.429-0.066,18.857-0.134,28.286-0.188C164.54,327.403,168.036,327.42,171.531,327.42z
			 M382.302,329.642c-7.667,0.751-15.301,1.857-23.01,2.146C367.071,332.264,374.756,331.72,382.302,329.642z M364.799,334.493
			c3.498,0.022,7.114,0.773,10.465-1.008C371.774,333.82,368.286,334.156,364.799,334.493z M263.049,363.844
			c-0.055-0.077-0.138-0.226-0.16-0.219c-0.171,0.066-0.331,0.163-0.494,0.25c0.068,0.064,0.153,0.196,0.199,0.183
			C262.754,364.014,262.899,363.92,263.049,363.844z M263.702,362.761c-0.051-0.063-0.101-0.129-0.151-0.192
			c-0.061,0.055-0.164,0.105-0.17,0.165c-0.005,0.059,0.09,0.126,0.141,0.189C263.581,362.868,263.643,362.815,263.702,362.761z"/>
		<path fill-rule="evenodd" clip-rule="evenodd" d="M228.15,290.148c-4.48-2.58-9.083-4.908-13.937-6.711
			c0.267-0.391-0.039-0.473-0.309-0.504c-0.124-0.014-0.266,0.12-0.4,0.188c0.259,0.087,0.518,0.174,0.776,0.261
			c0.299,1.296,2.257,1.257,2.292,3.215c-4.642-1.658-8.932-3.676-13.142-5.846c-2.237-1.154-4.372-2.52-6.487-3.891
			c-2.189-1.418-4.005-1.158-5.662,0.85c-2.406,2.912-5.116,5.599-6.621,9.244c0.853,0.766,2.276-0.35,3.191,0.843
			c-4.76,5.793-11.672,8.563-18.022,12.438c1.756,0.736,3.186-0.83,4.919-0.014c-1.299,0.767-0.851,3.248-1.7,3.114
			c-3.422-0.538-5.703,4.695-9.586,1.736c1.715-1.176,3.396-2.145,4.626-3.666c0.132-0.303,0.458-0.777,0.365-0.882
			c-0.461-0.521-0.757-0.013-1.063,0.295c-4.508,1.957-7.978,5.731-12.75,7.242c-1.199,0.379-2.308,1.071-4.238,0.541
			c8.652-6.137,18.24-10.211,25.6-17.453c0.265-0.074,0.52-0.219,0.295-0.495c-0.078-0.095-0.444,0.043-0.678,0.074
			c-8.433,4.972-16.528,10.568-25.742,14.108c-3.607,1.386-7.264,2.642-11.016,3.998c-0.055-1.403,1.084-1.39,1.444-2.048
			c0.215-0.254,0.431-0.509,0.646-0.765c-0.463-0.307-0.856-0.181-1.206,0.201c-0.662,0.063-1.329,0.391-2.014-0.047
			c0.915-1.088,2.713-1.015,3.476-2.841c-3.531,0.714-6.72,1.681-9.945,2.565c-4.243,1.165-8.477,2.503-12.941,2.631l0.016,0.073
			c-0.178-1.452,1.04-1.509,1.896-1.757c4.127-1.195,8.278-2.363,12.408-3.474c4.146-1.114,8.341-3.202,12.082-5.729
			c0.278-0.146,0.557-0.293,0.835-0.439c-0.4-0.333-0.806-0.285-1.214-0.015c-5.885,1.437-11.435,4.014-17.609,4.549
			c-8.902,0.77-17.783,0.477-26.698,0.028c5.343-0.433,10.73-0.566,16.02-1.354c17.943-2.672,34.801-8.569,50.55-17.608
			c6.568-3.771,12.893-7.914,18.65-12.83c3.603-3.077,7.399-3.3,11.525-1.634c5.642,2.279,11.274,4.584,16.857,7.002
			c1.481,0.641,2.65,0.696,4.104-0.087c3.56-1.915,6.891-4.154,10.14-6.537c8.868-6.505,17.856-12.845,25.78-20.552
			c3.838-3.731,7.502-3.446,11.703,0.016c8.942,7.368,17.759,14.906,27.682,20.996c2.446,1.501,4.445,2.118,6.87-0.181
			c6.313-5.979,12.638-5.846,20.166-1.218c12.191,7.495,24.86,14.255,38.09,19.852c0.768,0.325,1.684,0.598,2.115,2.221
			c-6.544-2.262-12.588-4.676-18.285-7.941c-0.29-0.094-0.581-0.188-0.87-0.282c-0.212-0.146-0.422-0.291-0.633-0.438
			c-0.036,0.129-0.138,0.343-0.099,0.371c0.251,0.188,0.53,0.655,0.806,0.02c-0.599,0.638,0.134,0.566,0.397,0.746
			c-0.092,0.313,1.42,1.619-0.409,0.829c-4.591-1.985-9.118-4.116-13.649-6.238c-3.727-1.746-7.449-3.5-11.364-4.795
			c-1.586-0.523-3.114-0.591-4.34,0.795c-1.201,1.357-1.035,2.632-0.096,4.194c0.941,1.566,0.615,3.086-1.156,4.248
			c-1.292,0.847-2.347,2.078-3.426,3.214c-0.408,0.432-1.154,0.993-0.379,1.728c2.139,2.025,0.06,2.635-1.198,3.326
			c-1.625,0.896-3.37,1.571-5.062,2.345c-0.817,0.373-1.346,0.324-1.165-0.782c0.264-0.167,0.747-0.253,0.456-0.702
			c-0.271-0.42-0.59-0.071-0.873,0.081c-1.624,1.656-3.509,2.717-5.913,2.594c-0.157-0.173-0.314-0.346-0.472-0.519
			c2.34-2.312,5.635-3.596,7.343-6.929c-1.759,0.22-3.029,1.134-4.2,2.083c-3.065,2.485-6.442,4.447-9.961,6.188
			c-0.716,0.354-1.422,1.421-2.104-0.302c-0.35-0.881-1.366,0.064-2.007,0.392c-0.896,0.461-1.877,1.05-2.644,0.077
			c-0.891-1.129,1.493-0.759,0.769-2.365c-3.722,1.219-7.528,2.517-11.372,3.69c-0.922,0.281-1.933,1.65-2.96,0.103
			c0.194-0.268,0.388-0.536,0.581-0.804c-0.472-0.302-0.846-0.192-1.138,0.266c-2.463,1.232-5.019,2.131-8.449,2.175
			c12.707-8.388,25.681-15.387,37.521-24.063c-2.407-1.318-4.698-2.619-7.043-3.819c-0.48-0.247-1.225-1.285-1.716,0.074
			c0.212-0.141,0.413-0.279,0.614-0.421c-0.118-0.114-0.237-0.229-0.355-0.344c-0.068,0.26-0.137,0.52-0.205,0.777
			c0.161,0.117,0.32,0.232,0.481,0.348c-0.126,0.121-0.244,0.246-0.356,0.378c-6.189-3.594-11.87-7.901-17.388-12.431
			c-6.951-5.705-6.938-5.724-12.992,1.041c-0.255,0.287-0.463,0.617-0.692,0.928c-0.185,0.209-0.369,0.418-0.553,0.627
			c-0.133,0.174-0.413,0.445-0.373,0.507c0.295,0.446,0.537,0.043,0.794-0.103c0.185-0.174,0.369-0.348,0.554-0.523
			c0.806-0.475,1.801-1.188,1.403,0.662c-0.132,0.615-0.883,1.079-1.095,1.701c-0.234,0.685-2.842,1.462-0.061,2.301
			c0.056,0.016-0.088,1.532-0.491,2.099c-3.417,4.782-6.342,10.171-12.984,11.232c-0.395,0.063-0.982,0.65-1.07-0.232
			c-0.048-0.487,0.367-0.861,0.933-0.898c-0.124-0.141-0.24-0.284-0.372-0.416c-0.019-0.018-0.108,0.034-0.166,0.054
			c0.182,0.119,0.364,0.24,0.546,0.36c-1.258-1.136-1.965,0.188-2.722,0.719c-3.822,2.679-3.8,2.71-8.604,2.56
			c2.311-2.913,5.578-4.495,7.963-7.294c-1.432-0.583-2.119,0.42-2.904,0.947c-2.772,1.859-5.502,3.78-8.267,5.651
			c-0.44,0.298-1.043,0.778-1.444,0.066c-0.118-0.209,0.397-0.774,0.869-1.617c-1.643,0.553-3.03,0.538-4.244,1.461
			c8.979,5.535,18.378,10.342,27.206,16.896c-2.85-0.224-4.808-1.592-6.952-2.467c-2.017-0.823-3.777-2.941-6.413-1.2
			c-0.418,0.276-1.677-0.783-2.576-1.156c-1.577-0.654-2.82-2.228-4.806-1.769C228.355,289.951,228.251,290.049,228.15,290.148z"/>
		<path fill-rule="evenodd" clip-rule="evenodd" d="M105.111,157.671c1.475-0.321,2.904-0.761,4.167-1.627
			c0.375-0.016,0.75-0.031,1.124-0.047c0.304,0.409,0.718,0.516,1.2,0.431c1.527,0.671,2.418,1.977,3.246,3.322
			c8.122,13.206,16.166,26.461,24.691,39.414c1.107,1.682,2.295,3.322,4.287,4.945c0-5.028,0.085-9.586-0.018-14.141
			c-0.229-10.19-0.74-20.371-1.673-30.523c-0.279-3.036-0.83-6.026-4.045-7.617c-1.014-0.5-2.035-0.654-3.104-0.792
			c-0.76-0.098-1.312-0.43-1.204-1.333c0.085-0.715,0.271-1.202,1.165-1.402c8.036-1.791,15.47-5.593,23.897-7.174
			c-0.532,1.615-1.727,2.461-2.842,3.19c-4.86,3.178-6.546,7.882-6.613,13.372c-0.236,19.551,0.194,39.088,1.067,58.618
			c0.101,2.256,0.218,4.511,0.288,6.768c0.088,2.814-1.922,6.186-4.293,6.75c-2.566,0.608-3.992-1.159-5.556-2.917
			c-7.731-8.692-13.49-18.73-19.769-28.422c-4.041-6.237-7.928-12.586-12.544-18.435c-0.348-0.441-0.588-1.034-1.325-1.099
			c-0.962,0.732-0.51,1.793-0.481,2.692c0.443,13.949,0.886,27.896,1.438,41.841c0.092,2.319,0.564,4.652,1.105,6.919
			c0.748,3.131,2.737,4.588,5.972,4.589c0.967,0.001,1.975-0.441,2.231,1.072c0.219,1.293-0.718,1.422-1.518,1.736
			c-7.389,2.901-14.777,5.804-22.171,8.692c-0.504,0.197-1.166,0.699-1.547,0.013c-0.252-0.456-0.242-1.171-0.093-1.698
			c0.111-0.395,0.573-0.787,0.975-0.991c7.009-3.562,8.282-10.106,8.376-16.933c0.246-17.872-0.67-35.725-1.482-53.571
			c-0.254-5.564-3.96-8.481-9.153-9.69c-0.325-1.496,0.744-1.806,1.806-2.135c1.576-0.487,3.149-0.985,4.723-1.48
			C99.98,159.176,102.693,158.909,105.111,157.671z"/>
		<path fill-rule="evenodd" clip-rule="evenodd" d="M350.263,209.003c1.886,3.418,4.966,5.459,8.59,6.162
			c3.984,0.771,8.085,1.605,12.205,0.366c0.744-0.225,1.958-0.604,2.234,0.615c0.22,0.968-0.874,1.24-1.569,1.427
			c-10.433,2.8-20.417,2.036-29.483-4.273c-7.179-4.997-12.04-11.783-15.394-19.905c-1.924-4.655-4.852-8.897-6.596-13.694
			c-0.469-1.291-4.755-2.544-5.942-1.919c-0.524,0.277-0.55,0.701-0.542,1.218c0.089,5.295,0.071,10.596,0.264,15.889
			c0.128,3.525,1.301,6.544,4.99,7.933c0.81,0.305,1.81,0.756,1.332,1.892c-0.422,1.002-1.472,0.863-2.34,0.718
			c-5.508-0.916-11.052-1.496-16.623-1.815c-1.369-0.079-2.746-0.023-4.12-0.048c-1.036-0.018-2.049-0.156-2.084-1.506
			c-0.032-1.227,0.698-1.725,1.87-1.759c3.037-0.094,3.989-2.113,4.15-4.702c0.502-8.122,0.319-16.253,0.227-24.384
			c-0.092-8.319-0.309-16.641-0.237-24.958c0.027-3.301-1.274-5.198-4.367-5.993c-0.809-0.207-1.5-0.387-1.383-1.488
			c0.125-1.178,0.854-1.052,1.689-0.989c9.373,0.699,18.784,1.046,28.051,2.795c6.103,1.152,11.19,4.197,15.216,8.883
			c5.178,6.028,5.313,16.663,0.425,22.316c-2.431,2.813-6.077,4.462-11.525,5.168c5.716,7.651,9.787,16.225,14.792,24.237
			c1.77,2.832,3.735,5.519,6.237,7.771L350.263,209.003z M313.502,159.412c0.071,0,0.142-0.001,0.213-0.001
			c0,3.827,0.106,7.657-0.049,11.477c-0.069,1.748,0.431,2.601,2.18,2.663c7.603,0.268,13.534-0.543,15.185-10.508
			c1.579-9.531-4.216-18.246-13.206-19.105c-2.934-0.28-4.273,0.823-4.311,3.708C313.463,151.567,313.502,155.49,313.502,159.412z"
			/>
		<path fill-rule="evenodd" clip-rule="evenodd" d="M211.379,179.335c-0.267,9.605-2.648,20.032-10.583,28.25
			c-5.896,6.107-12.9,10.188-21.959,9.179c-5.372-0.6-9.545-3.341-12.346-7.602c-9.69-14.749-10.385-30.083-1.617-45.477
			c4.727-8.297,11.622-13.863,21.604-14.822c10.065-0.966,18.611,6.212,22.034,14.108
			C210.559,167.692,211.345,172.727,211.379,179.335z M197.967,183.402c0.249-5.698-0.589-11.699-1.834-17.645
			c-0.694-3.309-2.212-6.261-4.601-8.677c-3.233-3.27-7.987-3.754-11.53-1.167c-2.85,2.079-4.923,4.859-5.898,8.224
			c-2.274,7.849-3.596,15.837-2.353,24.036c1.043,6.88,2.025,13.767,6.575,19.516c2.972,3.753,5.567,4.503,9.957,2.687
			c4.089-1.691,5.496-5.481,7.028-8.999C197.732,195.813,197.939,189.797,197.967,183.402z"/>
		<path fill-rule="evenodd" clip-rule="evenodd" d="M350.329,208.959c6.413-4.733,7.511-12.444,10.65-19.012
			c4.263-8.918,6.821-18.559,11.552-27.29c2.895,2.662,3.73,6.983,2.167,10.441c-2.018,4.457-3.83,8.998-5.479,13.609
			c-0.504,1.411-0.4,2.192,0.993,2.77c4.362,1.812,8.938,2.959,13.486,4.127c2.516,0.644,1.132-1.557,0.963-2.226
			c-1.507-5.981-3.161-11.924-4.792-17.874c-0.698-2.55-1.49-5.075-2.16-7.631c-1.574-6.012-5.229-10.207-10.892-12.708
			c-0.713-0.314-2.053-0.266-1.509-1.615c0.452-1.121,1.385-0.329,2.038-0.152c6.257,1.693,12.444,3.608,18.205,6.643
			c1.624,0.857,3.399,0.868,5.081,1.362c1.401,0.412,2.832,0.683,3.794,1.995c-4.003,2.363-4.175,2.913-2.942,7.364
			c4.308,15.571,8.573,31.153,12.874,46.725c0.677,2.45,1.319,4.924,2.207,7.301c1.575,4.218,3.853,7.947,7.979,10.217
			c0.674,0.37,1.261,0.923,1.824,1.457c0.696,0.658,0.517,1.485,0.094,2.161c-0.579,0.919-1.213,0.118-1.753-0.14
			c-3.892-1.866-7.964-3.456-11.603-5.733c-5.322-3.332-11.113-5.321-17.029-7.115c-1.018-0.308-1.848-0.665-1.678-1.959
			c0.196-1.502,1.256-0.818,2.007-0.776c3.825,0.211,5.353-1.227,4.592-5.115c-0.959-4.896-2.416-9.694-3.571-14.555
			c-0.26-1.094-0.968-1.304-1.831-1.588c-5.677-1.866-11.353-3.736-17.006-5.676c-1.373-0.473-2.203-0.325-2.681,1.179
			c-1.724,5.406-5.244,10.337-3.77,16.565c0.406,1.718-1.672,1.356-2.56,1.127c-2.164-0.553-4.348-1.144-6.143-2.694
			c-0.833-0.721-1.658-2.047-3.168-1.14C350.263,209.003,350.329,208.959,350.329,208.959z"/>
		<path fill-rule="evenodd" clip-rule="evenodd" d="M228.796,142.607c-2.656,2.421-3.185,4.85-2.075,7.919
			c3.723,10.304,7.234,20.683,10.868,31.018c0.449,1.275,0.821,2.628,2.035,3.901c1.389-4.524,2.764-8.861,4.049-13.226
			c1.819-6.178,3.598-12.37,5.344-18.57c0.665-2.358,1.238-4.725,1.197-7.231c-0.045-2.708-0.97-4.59-3.834-5.034
			c-0.746-0.114-1.394-0.167-1.275-1.153c0.119-0.974,0.745-1.211,1.644-1.279c4.889-0.364,9.775-0.775,14.66-1.181
			c0.503-0.042,1.027-0.125,1.142,0.537c0.117,0.67,0.287,1.468-0.437,1.871c-6.578,3.658-6.636,10.828-8.666,16.744
			c-3.681,10.721-6.049,21.857-9.544,32.658c-1.26,3.892-2.056,7.933-3.113,11.895c-0.276,1.034-0.649,2.064-1.132,3.018
			c-0.75,1.48-1.942,2.649-3.685,2.474c-1.719-0.174-2.553-1.491-3.138-3.108c-4.941-13.69-10.015-27.334-14.892-41.048
			c-1.278-3.594-2.572-7.165-4.14-10.639c-1.059-2.348-2.626-4.135-5.264-4.719c-0.655-0.145-1.4-0.1-1.421-1.109
			c-0.025-1.147,0.702-1.586,1.625-1.736c3.481-0.567,6.959-1.189,10.461-1.577C222.199,142.701,225.187,141.972,228.796,142.607z"
			/>
		<path fill-rule="evenodd" clip-rule="evenodd" d="M108.683,255.934c9.369-4.957,18.726-9.574,28.399-13.568
			c16.238-6.704,32.719-12.75,49.647-17.408c16.55-4.552,33.316-8.33,50.384-10.38c8.443-1.014,16.962-1.385,25.475-1.822
			c12.671-0.646,25.27-0.091,37.823,1.052c13.756,1.253,27.361,3.6,40.782,7.168c11.967,3.18,23.612,7.185,35.113,11.665
			c10.806,4.211,21.194,9.324,31.124,15.335c0.707,0.429,1.625,0.673,1.969,1.594c-0.914,0.49-1.528-0.205-2.182-0.537
			c-24.258-12.306-49.662-21.45-76.228-27.237c-10.723-2.336-21.601-3.795-32.584-4.671c-12.054-0.961-24.103-1.284-36.154-0.836
			c-11.355,0.42-22.687,1.367-33.923,3.289c-15.578,2.663-31.005,5.965-46.211,10.271c-18.425,5.219-36.269,12.086-54.039,19.154
			c-5.447,2.168-10.853,4.435-16.276,6.658C110.859,256.048,109.945,256.671,108.683,255.934z"/>
		<path fill-rule="evenodd" clip-rule="evenodd" d="M275.377,137.235c4.96-0.098,9.352-0.178,13.727,0.276
			c0.665,0.07,1.735-0.278,1.705,1.031c-0.024,1.091-0.835,1.044-1.622,1.249c-4.077,1.063-4.89,2.517-4.799,6.781
			c0.118,5.56-0.133,11.128-0.12,16.693c0.022,8.81,0.113,17.619,0.22,26.428c0.022,1.841,0.157,3.69,0.389,5.516
			c0.351,2.766,1.534,4.885,4.685,5.119c0.928,0.067,1.479,0.363,1.408,1.414c-0.084,1.267-0.945,1.332-1.879,1.275
			c-3.605-0.217-7.217-0.357-10.809-0.707c-3.546-0.343-7.043,0.147-10.561,0.313c-0.807,0.038-1.608,0.182-1.624-1.039
			c-0.012-0.836,0.341-1.113,1.164-1.325c3.245-0.839,4.583-2.806,4.559-6.356c-0.109-15.273-0.212-30.547-0.31-45.82
			c-0.005-0.781,0.069-1.563,0.096-2.344c0.121-3.404-0.834-4.886-4.058-5.803c-0.946-0.269-1.352-0.542-1.266-1.524
			c0.092-1.061,0.856-0.836,1.505-0.904c1.348-0.139,2.69-0.383,4.041-0.425C273.198,137.044,274.573,137.196,275.377,137.235z"/>
		<path fill-rule="evenodd" clip-rule="evenodd" d="M159.461,147.422c22.532-11.138,46.096-17.355,70.585-20.517
			c11.093-1.433,22.193-2.715,33.376-2.837c8.803-0.096,17.609-0.013,26.421,0.257c16.429,0.506,32.588,2.783,48.607,6.207
			c22.59,4.828,44.093,12.588,64.038,24.376c1.56,0.921,3.491,1.63,4.363,4.15c-14.956-9.2-30.659-15.49-46.926-20.283
			c-18.649-5.494-37.707-9.16-57.118-10.639c-11.827-0.903-23.706-1.43-35.553-0.991c-20.787,0.771-41.397,3.275-61.792,7.499
			c-14.44,2.991-28.582,6.942-42.342,12.252C162.067,147.304,161.01,148.071,159.461,147.422z"/>
		<path fill-rule="evenodd" clip-rule="evenodd" d="M255.252,74.606c1.929,7.04,1.929,7.033,8.892,7.093
			c2.714,0.023,5.427,0.087,8.139,0.132c0.495,0.807-0.232,0.967-0.675,1.278c-2.977,2.08-5.907,4.228-8.945,6.212
			c-1.653,1.079-2.141,2.119-1.357,4.106c1.423,3.61,2.488,7.363,3.835,11.457c-3.827-2.579-7.304-4.785-10.611-7.22
			c-1.363-1.004-2.327-0.967-3.622-0.053c-3.339,2.361-6.744,4.633-10.554,7.235c1.028-3.553,1.914-6.615,2.799-9.677
			c1.475-3.901,1.209-4.563-3.406-7.734c-2.32-1.596-4.709-3.093-7.815-5.124c4.732-0.234,8.6-0.532,12.47-0.57
			c1.986-0.02,3.132-0.451,3.85-2.563c1.376-4.05,3.407-7.877,4.296-12.527c1.1,1.895,0.74,3.985,1.871,5.507
			C254.384,73.08,254.83,73.839,255.252,74.606z"/>
		<path fill-rule="evenodd" clip-rule="evenodd" d="M317.162,95.878c-3.214,2.29-5.747,4.14-8.335,5.911
			c-1.032,0.706-1.352,1.35-0.866,2.646c1.059,2.815,1.872,5.722,2.922,9.018c-3.084-1.969-5.871-3.661-8.555-5.503
			c-1.066-0.731-1.807-0.716-2.857,0.014c-2.486,1.722-5.073,3.298-7.93,5.133c0.308-3.328,1.779-5.977,2.756-8.743
			c0.482-1.369,0.4-2.042-0.817-2.848c-2.584-1.71-5.062-3.584-7.501-6.12c3.065,0,6.133-0.014,9.198,0.006
			c1.295,0.009,2.04-0.319,2.49-1.797c0.872-2.857,2.137-5.596,3.385-8.751c1.16,2.839,2.254,5.277,3.153,7.786
			c0.673,1.875,1.673,2.81,3.82,2.766C310.822,95.338,313.628,95.671,317.162,95.878z"/>
		<path fill-rule="evenodd" clip-rule="evenodd" d="M203.502,85.748c0.245-0.222,0.491-0.443,0.737-0.665
			c1.103,2.824,2.28,5.623,3.273,8.485c0.463,1.336,1.176,1.846,2.556,1.818c3.089-0.064,6.18-0.02,9.27-0.02
			c0.05,0.276,0.099,0.553,0.148,0.83c-2.429,1.729-4.806,3.541-7.309,5.157c-1.39,0.897-1.764,1.737-1.138,3.353
			c1.052,2.714,1.823,5.537,2.853,8.757c-3.044-1.919-5.734-3.458-8.239-5.255c-1.286-0.923-2.115-0.804-3.317,0.063
			c-2.371,1.709-4.874,3.235-7.799,5.147c0.971-3.062,1.605-5.702,2.653-8.165c0.836-1.966,0.217-2.975-1.358-4.048
			c-2.326-1.583-4.519-3.359-6.776-5.686c2.377,0,4.769-0.17,7.127,0.042c3.226,0.291,4.911-1.046,5.274-4.199
			c0.443-1.061,0.886-2.121,1.33-3.182c0.115-0.422,0.23-0.844,0.346-1.266c0,0,0.047-0.153,0.047-0.154
			C203.288,86.421,203.395,86.084,203.502,85.748z"/>
		<path fill-rule="evenodd" clip-rule="evenodd" d="M106.857,323.949c-1.129,0.826,0.014,1.246,0.365,1.703
			c6.943,9.038,15.954,15.644,25.574,21.478c15.749,9.551,33.182,13.953,51.197,16.557c13.216,1.91,26.458,3.753,38.807,9.304
			c3.505,1.575,6.909,3.327,9.786,5.928c0.837,0.758,1.936,1.418,1.775,3.117c-13.569-11.077-30-13.389-46.36-15.894
			c-14.842-2.272-29.698-4.551-43.585-10.643c-14.04-6.157-26.329-14.808-36.405-26.458c-0.641-0.74-1.102-1.649-1.797-2.325
			c-1.383-1.345-0.692-2.072,0.644-2.704C106.856,324.008,106.857,323.949,106.857,323.949z"/>
		<path fill-rule="evenodd" clip-rule="evenodd" d="M396.087,298.215c-0.525,0.61-0.782,1.146-1.346,1.049
			c-10.868-1.879-21.781-3.602-31.825-8.549c-0.652-0.321-1.933-0.312-1.631-1.279c0.375-1.202,1.491-0.432,2.237-0.191
			c8.017,2.582,15.91,5.57,24.161,7.375C390.353,297.202,393.053,297.644,396.087,298.215z"/>
		<path fill-rule="evenodd" clip-rule="evenodd" d="M85.488,306.038c1.449,0.289,2.075,1.499,2.247,2.712
			c0.172,1.209-0.9,2.046-1.995,2.123c-1.519,0.106-2.282-1.091-2.422-2.423C83.172,307.062,84.195,306.393,85.488,306.038z"/>
		<path fill-rule="evenodd" clip-rule="evenodd" d="M137.026,368.757c1.56,0.538,2.821,1.315,3.015,2.964
			c0.131,1.114-0.474,1.912-1.759,1.711c-1.483-0.23-2.609-1.037-2.75-2.588C135.443,369.878,135.871,368.934,137.026,368.757z"/>
		<path fill-rule="evenodd" clip-rule="evenodd" d="M71.505,271.712c-1.451-0.123-2.189-1.153-2.165-2.54
			c0.021-1.236,0.7-2.455,2.131-2.305c1.434,0.152,2.102,1.397,2.145,2.762C73.655,270.872,72.927,271.622,71.505,271.712z"/>
		<path fill-rule="evenodd" clip-rule="evenodd" d="M435.453,258.061c1.325,0.197,2.212,1.002,2.203,2.288
			c-0.008,1.225-0.739,2.328-2.12,2.302c-1.177-0.021-2.009-0.915-2.067-2.082C433.406,259.297,434.099,258.365,435.453,258.061z"/>
		<path fill-rule="evenodd" clip-rule="evenodd" d="M73.39,275.275c1.349,0.489,2.239,1.341,2.218,2.765
			c-0.02,1.348-0.813,2.265-2.2,2.052c-1.412-0.218-2.124-1.262-1.987-2.729C71.533,276.159,72.227,275.461,73.39,275.275z"/>
		<path fill-rule="evenodd" clip-rule="evenodd" d="M81.324,294.882c-0.153,1.257-1.146,1.797-2.199,1.879
			c-1.471,0.112-2.408-0.827-2.439-2.276c-0.025-1.196,0.77-2.083,2.011-2.036C80.12,292.5,80.899,293.52,81.324,294.882z"/>
		<path fill-rule="evenodd" clip-rule="evenodd" d="M76.267,288.727c-1.429-0.387-2.45-1.243-2.406-2.817
			c0.035-1.263,0.945-1.917,2.177-1.815c1.51,0.124,2.25,1.306,2.332,2.577C78.442,287.808,77.527,288.557,76.267,288.727z"/>
		<path fill-rule="evenodd" clip-rule="evenodd" d="M433.911,266.962c1.379,0.189,2.034,1.11,2.023,2.382
			c-0.011,1.258-0.653,2.33-2.035,2.368c-1.167,0.031-2.069-0.701-2.052-1.962C431.867,268.42,432.411,267.31,433.911,266.962z"/>
		<path fill-rule="evenodd" clip-rule="evenodd" d="M426.541,291.854c1.215,0.216,2.206,0.778,2.159,2.039
			c-0.052,1.383-0.864,2.459-2.364,2.494c-1.076,0.024-1.904-0.726-1.944-1.816C424.34,293.141,425.233,292.268,426.541,291.854z"/>
		<path fill-rule="evenodd" clip-rule="evenodd" d="M81.666,302.851c-1.393-0.35-2.007-1.301-2.05-2.548
			c-0.042-1.201,0.607-2.136,1.871-2.14c1.603-0.005,2.138,1.304,2.188,2.583C83.722,301.948,82.725,302.543,81.666,302.851z"/>
		<path fill-rule="evenodd" clip-rule="evenodd" d="M91.549,316.521c-0.108,1.204-0.567,2.236-1.842,2.236
			c-1.521,0.001-2.211-1.199-2.272-2.524c-0.055-1.181,0.845-2.165,1.964-2.071C90.574,314.26,91.396,315.238,91.549,316.521z"/>
		<path fill-rule="evenodd" clip-rule="evenodd" d="M431.665,285.678c-0.209,1.439-0.713,2.461-2.132,2.554
			c-1.183,0.078-2.258-0.356-2.184-1.72c0.07-1.302,0.689-2.536,2.204-2.652C430.827,283.763,431.362,284.744,431.665,285.678z"/>
		<path fill-rule="evenodd" clip-rule="evenodd" d="M72.042,260.527c-0.132,1.169-0.595,2.191-1.849,2.223
			c-1.328,0.032-2.145-0.936-2.281-2.189c-0.137-1.258,0.46-2.473,1.776-2.56C71.218,257.899,71.608,259.337,72.042,260.527z"/>
		<path fill-rule="evenodd" clip-rule="evenodd" d="M434.099,277.373c-0.376,1.346-0.826,2.497-2.271,2.472
			c-1.217-0.022-2.085-0.804-1.973-2.056c0.118-1.304,1.074-2.107,2.381-2.157C433.422,275.588,433.809,276.544,434.099,277.373z"/>
		<path fill-rule="evenodd" clip-rule="evenodd" d="M70.905,251.646c-0.264,1.22-0.945,2.123-2.13,2.127
			c-1.227,0.004-1.948-0.939-1.96-2.137c-0.012-1.18,0.68-2.215,1.859-2.269C70.05,249.306,70.521,250.547,70.905,251.646z"/>
		<path fill-rule="evenodd" clip-rule="evenodd" d="M68.11,245.126c-1.248-0.199-1.999-0.957-2.081-2.145
			c-0.076-1.114,0.649-1.921,1.722-2.055c1.315-0.165,2.06,0.879,2.213,1.929C70.137,244.022,69.263,244.795,68.11,245.126z"/>
		<path fill-rule="evenodd" clip-rule="evenodd" d="M439.374,243.037c-0.28,1.122-0.862,2.066-2.104,1.978
			c-1.191-0.084-1.908-1.01-1.883-2.176c0.027-1.188,0.78-2.031,2.038-1.957C438.664,240.954,439.164,241.912,439.374,243.037z"/>
		<path fill-rule="evenodd" clip-rule="evenodd" d="M436.712,253.669c-1.213-0.247-1.934-0.878-1.938-2.005
			c-0.005-1.188,0.574-2.242,1.831-2.248c1.179-0.005,1.98,0.914,2.036,2.119C438.7,252.855,437.673,253.322,436.712,253.669z"/>
		<path fill-rule="evenodd" clip-rule="evenodd" d="M147.575,375.97c1.455,0.402,2.67,1.235,3.008,2.747
			c0.219,0.983-0.696,1.646-1.624,1.56c-1.465-0.136-2.485-1.126-2.858-2.505C145.833,376.783,146.594,376.229,147.575,375.97z"/>
		<path fill-rule="evenodd" clip-rule="evenodd" d="M130.21,363.575c-0.246,1.05-0.868,1.689-1.867,1.595
			c-1.487-0.141-2.317-1.197-2.288-2.583c0.019-0.925,0.867-1.56,1.908-1.378C129.284,361.44,129.872,362.438,130.21,363.575z"/>
		<path fill-rule="evenodd" clip-rule="evenodd" d="M67.671,231.828c1.093,0.173,1.852,0.848,1.93,1.9
			c0.093,1.257-0.788,2.101-1.961,2.121c-1.095,0.018-1.778-0.901-1.769-1.986C65.879,232.782,66.564,232.073,67.671,231.828z"/>
		<path fill-rule="evenodd" clip-rule="evenodd" d="M437.224,231.849c1.341,0.158,2.166,0.806,2.19,2.058
			c0.022,1.107-0.706,1.963-1.786,1.974c-1.16,0.01-2.06-0.73-2.088-2.01C435.514,232.734,436.298,232.155,437.224,231.849z"/>
		<path fill-rule="evenodd" clip-rule="evenodd" d="M421.318,300.936c0.083-1.249,0.705-2.229,2.063-2.275
			c1.214-0.044,2.011,0.848,2.095,2.005c0.099,1.365-0.839,2.174-2.114,2.285C422.109,303.06,421.418,302.278,421.318,300.936z"/>
		<path fill-rule="evenodd" clip-rule="evenodd" d="M419.979,306.534c1.196,0.239,1.969,0.928,1.817,2.031
			c-0.166,1.225-0.861,2.275-2.36,2.057c-0.934-0.136-1.727-0.7-1.593-1.772C417.998,307.601,418.632,306.65,419.979,306.534z"/>
		<path fill-rule="evenodd" clip-rule="evenodd" d="M437.314,222.674c0.964,0.175,1.703,0.856,1.704,1.923
			c0.001,1.064-0.741,1.94-1.831,1.876c-1.125-0.067-2.091-0.813-1.986-2.086C435.286,223.346,435.972,222.613,437.314,222.674z"/>
		<path fill-rule="evenodd" clip-rule="evenodd" d="M176.583,391.967c-0.126,1.019-0.746,1.627-1.715,1.65
			c-1.257,0.03-2.052-0.823-2.139-1.962c-0.071-0.938,0.67-1.68,1.683-1.643C175.584,390.057,176.401,390.702,176.583,391.967z"/>
		<path fill-rule="evenodd" clip-rule="evenodd" d="M68.333,226.743c-1.115-0.153-1.861-0.8-1.959-1.871
			c-0.098-1.057,0.431-2.036,1.551-2.167c1.283-0.149,2.068,0.822,2.172,1.943C70.194,225.7,69.339,226.378,68.333,226.743z"/>
		<path fill-rule="evenodd" clip-rule="evenodd" d="M79.949,177.674c-0.845-0.344-1.704-0.774-1.646-1.781
			c0.066-1.149,0.73-2.051,1.99-2.03c1.041,0.016,1.545,0.805,1.408,1.787C81.561,176.636,81.032,177.433,79.949,177.674z"/>
		<path fill-rule="evenodd" clip-rule="evenodd" d="M359.785,376.649c-0.482,1.574-1.751,2.288-3.204,2.671
			c-0.666,0.176-1.237-0.507-1.167-1.03c0.225-1.662,1.58-2.413,2.974-2.885C359.172,375.141,359.533,375.936,359.785,376.649z"/>
		<path fill-rule="evenodd" clip-rule="evenodd" d="M157.864,385.428c-1.048-0.295-2.201-0.583-2.282-1.91
			c-0.046-0.769,0.295-1.646,1.297-1.67c1.35-0.03,2.291,0.744,2.47,2.033C159.461,384.702,158.756,385.264,157.864,385.428z"/>
		<path fill-rule="evenodd" clip-rule="evenodd" d="M166.157,386.298c1.091,0.179,1.951,0.807,1.967,2.014
			c0.013,0.964-0.702,1.615-1.703,1.569c-1.205-0.057-1.998-0.795-2.045-2.002C164.335,386.843,165.104,386.396,166.157,386.298z"/>
		<path fill-rule="evenodd" clip-rule="evenodd" d="M377.577,108.738c-0.295,1.043-0.979,1.668-1.941,1.419
			c-1.218-0.315-2.003-1.258-1.979-2.575c0.017-0.948,0.718-1.414,1.615-1.174C376.474,106.728,377.244,107.576,377.577,108.738z"/>
		<path fill-rule="evenodd" clip-rule="evenodd" d="M94.021,325.891c-1.105-0.321-1.955-0.947-1.937-2.202
			c0.014-0.964,0.719-1.872,1.565-1.806c1.109,0.087,1.844,1.082,1.973,2.241C95.743,325.194,95.001,325.666,94.021,325.891z"/>
		<path fill-rule="evenodd" clip-rule="evenodd" d="M124.061,116.82c-0.29-0.384-0.648-0.735-0.855-1.158
			c-0.657-1.348,0.463-1.919,1.248-2.568c0.632-0.523,1.259-0.271,1.799,0.275c0.965,0.977,0.359,1.748-0.323,2.496
			c-0.324,0.353-0.699,0.662-1.05,0.991C124.606,116.843,124.334,116.832,124.061,116.82z"/>
		<path fill-rule="evenodd" clip-rule="evenodd" d="M118.367,355.719c0.325-0.838,0.7-1.723,1.753-1.62
			c1.147,0.11,2.063,0.792,1.992,2.03c-0.049,0.848-0.56,1.736-1.658,1.614C119.297,357.614,118.539,356.932,118.367,355.719z"/>
		<path fill-rule="evenodd" clip-rule="evenodd" d="M109.792,130.312c-0.296-0.562-0.594-1.125-0.892-1.687
			c0.543-0.891,0.903-2.121,2.271-1.854c0.827,0.16,1.38,0.967,1.179,1.78C112.046,129.774,111.246,130.6,109.792,130.312z"/>
		<path fill-rule="evenodd" clip-rule="evenodd" d="M183.526,397.124c-1.07-0.117-1.841-0.712-1.972-1.762
			c-0.12-0.962,0.46-1.679,1.486-1.755c1.162-0.087,1.847,0.714,2,1.691C185.188,396.244,184.485,396.865,183.526,397.124z"/>
		<path fill-rule="evenodd" clip-rule="evenodd" d="M71,215.131c-0.057,1.265-0.607,2.113-1.698,2.171
			c-1.077,0.059-1.865-0.678-1.856-1.806c0.008-1.031,0.528-1.993,1.659-2.068C70.251,213.353,70.714,214.295,71,215.131z"/>
		<path fill-rule="evenodd" clip-rule="evenodd" d="M385.33,115.396c-0.198,0.833-0.646,1.599-1.506,1.494
			c-1.218-0.149-2.195-0.941-2.376-2.204c-0.119-0.84,0.468-1.495,1.44-1.382C384.143,113.453,385.059,114.071,385.33,115.396z"/>
		<path fill-rule="evenodd" clip-rule="evenodd" d="M202.928,401.071c-0.229,1.002-0.859,1.552-1.848,1.549
			c-1.079-0.005-2.03-0.59-2.08-1.626c-0.051-1.048,0.853-1.834,1.926-1.763C201.935,399.299,202.667,400.021,202.928,401.071z"/>
		<path fill-rule="evenodd" clip-rule="evenodd" d="M99.87,334.974c-1.125-0.41-1.888-1.181-1.84-2.338
			c0.035-0.848,0.763-1.357,1.666-1.143c1.036,0.247,1.722,0.955,1.685,2.055C101.351,334.422,100.752,334.9,99.87,334.974z"/>
		<path fill-rule="evenodd" clip-rule="evenodd" d="M333.217,391.307c-0.272,1.034-0.863,1.765-1.97,1.895
			c-1.101,0.128-1.765-0.656-1.828-1.522c-0.096-1.285,0.995-1.903,2.085-2.054C332.573,389.478,332.94,390.419,333.217,391.307z"/>
		<path fill-rule="evenodd" clip-rule="evenodd" d="M315.705,398.129c-0.362,0.997-1.063,1.744-2.124,1.679
			c-0.948-0.059-1.642-0.783-1.477-1.818c0.167-1.062,0.96-1.817,2.016-1.735C315.047,396.325,315.578,397.141,315.705,398.129z"/>
		<path fill-rule="evenodd" clip-rule="evenodd" d="M337.965,387.511c0.103-1.099,0.758-1.812,1.813-1.973
			c0.897-0.138,1.618,0.543,1.673,1.323c0.078,1.103-0.815,1.804-1.813,1.966C338.84,388.956,338.122,388.493,337.965,387.511z"/>
		<path fill-rule="evenodd" clip-rule="evenodd" d="M397.024,130.577c-0.872-0.415-1.821-0.887-1.771-2.013
			c0.042-0.957,0.705-1.703,1.736-1.449c0.969,0.237,1.743,1.017,1.627,2.08C398.539,129.916,398.043,130.649,397.024,130.577z"/>
		<path fill-rule="evenodd" clip-rule="evenodd" d="M431.923,188.365c-0.265,0.873-0.73,1.495-1.687,1.3
			c-1.014-0.207-1.494-0.957-1.364-1.956c0.091-0.696,0.52-1.48,1.273-1.379C431.204,186.472,431.741,187.344,431.923,188.365z"/>
		<path fill-rule="evenodd" clip-rule="evenodd" d="M369.234,102.134c-0.09,0.854-0.575,1.564-1.402,1.566
			c-1.036,0.001-1.869-0.685-1.962-1.768c-0.081-0.93,0.398-1.808,1.473-1.733C368.402,100.273,369.011,101.067,369.234,102.134z"/>
		<path fill-rule="evenodd" clip-rule="evenodd" d="M432.742,195.168c0.975,0.249,1.583,0.919,1.64,1.799
			c0.061,0.951-0.637,1.726-1.565,1.699c-0.897-0.025-1.686-0.784-1.713-1.695C431.075,196.037,431.914,195.519,432.742,195.168z"/>
		<path fill-rule="evenodd" clip-rule="evenodd" d="M190.595,398.397c0.135-1.008,0.721-1.651,1.714-1.6
			c0.9,0.045,1.764,0.533,1.906,1.512c0.15,1.036-0.561,1.688-1.534,1.746C191.602,400.119,190.872,399.495,190.595,398.397z"/>
		<path fill-rule="evenodd" clip-rule="evenodd" d="M269.779,408.61c-1.02-0.127-1.668-0.741-1.606-1.694
			c0.061-0.948,0.84-1.569,1.774-1.587c1.018-0.019,1.597,0.73,1.535,1.695C271.422,407.974,270.781,408.556,269.779,408.61z"/>
		<path fill-rule="evenodd" clip-rule="evenodd" d="M305.195,398.96c0.914,0.12,1.743,0.636,1.695,1.597
			c-0.059,1.217-1.027,1.891-2.213,1.854c-0.969-0.03-1.69-0.708-1.581-1.727C303.215,399.586,304.053,399.064,305.195,398.96z"/>
		<path fill-rule="evenodd" clip-rule="evenodd" d="M115.503,122.766c0.465-2.208,1.451-3.22,3.599-1.571
			C118.68,123.5,117.714,124.559,115.503,122.766z"/>
		<path fill-rule="evenodd" clip-rule="evenodd" d="M353.648,92.031c1.056,0.114,1.97,0.496,2.022,1.661
			c0.035,0.783-0.362,1.615-1.355,1.459c-0.962-0.152-1.905-0.662-2.084-1.713C352.074,92.508,352.78,92.097,353.648,92.031z"/>
		<path fill-rule="evenodd" clip-rule="evenodd" d="M306.449,73.383c-0.179,0.879-0.722,1.548-1.531,1.542
			c-0.918-0.008-1.663-0.63-1.697-1.648c-0.028-0.901,0.562-1.518,1.443-1.469C305.578,71.857,306.29,72.383,306.449,73.383z"/>
		<path fill-rule="evenodd" clip-rule="evenodd" d="M219.493,404.937c-0.18,1.026-0.813,1.617-1.766,1.573
			c-1.072-0.05-1.816-0.705-1.76-1.857c0.047-0.969,0.63-1.659,1.656-1.597C218.741,403.123,219.187,404.006,219.493,404.937z"/>
		<path fill-rule="evenodd" clip-rule="evenodd" d="M110.477,344.745c-0.184,0.914-0.843,1.283-1.694,1.266
			c-1.417-0.027-1.772-1.075-1.804-2.21c-0.02-0.723,0.416-1.496,1.247-1.167C109.177,343.009,110.29,343.421,110.477,344.745z"/>
		<path fill-rule="evenodd" clip-rule="evenodd" d="M369.419,370.104c-0.422,1.122-1.04,1.865-2.121,1.977
			c-0.91,0.094-1.605-0.407-1.558-1.336c0.057-1.141,1.052-1.626,1.992-1.854C368.695,368.658,368.974,369.58,369.419,370.104z"/>
		<path fill-rule="evenodd" clip-rule="evenodd" d="M72.494,205.725c-0.334,0.788-0.535,1.795-1.699,1.644
			c-0.825-0.106-1.526-0.665-1.499-1.548c0.029-0.94,0.534-1.723,1.651-1.639C71.835,204.249,72.313,204.851,72.494,205.725z"/>
		<path fill-rule="evenodd" clip-rule="evenodd" d="M211.326,403.237c-0.293,0.909-0.777,1.698-1.76,1.66
			c-1.063-0.041-1.824-0.761-1.849-1.85c-0.021-0.976,0.671-1.682,1.641-1.632C210.399,401.473,211.01,402.263,211.326,403.237z"/>
		<path fill-rule="evenodd" clip-rule="evenodd" d="M323.01,393.089c1.008,0.137,1.598,0.724,1.601,1.712
			c0.004,1.053-0.816,1.563-1.694,1.641c-0.933,0.084-1.788-0.478-1.768-1.475C321.171,393.92,321.928,393.265,323.01,393.089z"/>
		<path fill-rule="evenodd" clip-rule="evenodd" d="M276.943,406.103c0.195-0.93,0.758-1.563,1.726-1.663
			c0.914-0.094,1.505,0.515,1.643,1.331c0.178,1.049-0.574,1.7-1.472,1.843C277.857,407.768,277.26,407.056,276.943,406.103z"/>
		<path fill-rule="evenodd" clip-rule="evenodd" d="M360.492,96.288c1.185,0.158,2.066,0.64,2.271,1.661
			c0.169,0.846-0.531,1.593-1.313,1.588c-0.988-0.004-1.84-0.677-2.122-1.682C359.045,96.837,359.962,96.637,360.492,96.288z"/>
		<path fill-rule="evenodd" clip-rule="evenodd" d="M102.901,137.338c-0.683-1.207-0.687-2.405,0.833-2.71
			c1.627-0.326,2.287,0.653,1.891,2.27C104.803,137.582,103.949,138.063,102.901,137.338z"/>
		<path fill-rule="evenodd" clip-rule="evenodd" d="M419.049,158.278c-0.055,0.945-0.651,1.588-1.467,1.52
			c-0.898-0.074-1.641-0.764-1.64-1.78c0.001-0.834,0.414-1.64,1.384-1.544C418.298,156.569,418.716,157.437,419.049,158.278z"/>
		<path fill-rule="evenodd" clip-rule="evenodd" d="M332.703,82.516c-0.231,0.775-0.535,1.561-1.507,1.407
			c-0.89-0.14-1.688-0.726-1.722-1.657c-0.035-0.961,0.666-1.654,1.672-1.544C332.094,80.826,332.591,81.563,332.703,82.516z"/>
		<path fill-rule="evenodd" clip-rule="evenodd" d="M409.68,143.118c0.043,0.984-0.39,1.645-1.269,1.71
			c-1.133,0.086-1.823-0.813-2.076-1.704c-0.282-0.992,0.603-1.714,1.458-1.78C408.897,141.258,409.396,142.21,409.68,143.118z"/>
		<path fill-rule="evenodd" clip-rule="evenodd" d="M289.193,404.694c-0.177,0.99-0.811,1.575-1.785,1.565
			c-0.847-0.008-1.554-0.555-1.574-1.431c-0.022-0.962,0.556-1.709,1.591-1.737C288.418,403.064,289.051,403.639,289.193,404.694z"
			/>
		<path fill-rule="evenodd" clip-rule="evenodd" d="M437.763,215.081c-0.111,1.021-0.563,1.841-1.527,1.934
			c-0.954,0.092-1.678-0.591-1.809-1.538c-0.138-0.995,0.454-1.713,1.452-1.816C436.888,213.554,437.454,214.233,437.763,215.081z"
			/>
		<path fill-rule="evenodd" clip-rule="evenodd" d="M253.935,407.68c-0.061,1.096-0.595,1.674-1.472,1.701
			c-0.867,0.028-1.539-0.541-1.602-1.411c-0.075-1.024,0.574-1.707,1.592-1.696C253.351,406.283,253.748,407.021,253.935,407.68z"/>
		<path fill-rule="evenodd" clip-rule="evenodd" d="M425.447,176.966c-0.812-0.205-1.138-0.779-1.076-1.519
			c0.075-0.895,0.854-1.007,1.504-0.987c0.684,0.022,0.985,0.598,0.908,1.24C426.692,176.457,426.211,176.896,425.447,176.966z"/>
		<path fill-rule="evenodd" clip-rule="evenodd" d="M376.136,365.334c-1.166-0.088-1.806-0.736-1.829-1.67
			c-0.026-0.977,0.757-1.582,1.679-1.715c0.865-0.125,1.615,0.378,1.693,1.24C377.778,364.292,376.934,364.88,376.136,365.334z"/>
		<path fill-rule="evenodd" clip-rule="evenodd" d="M217.81,69.62c0.449,0.113,0.898,0.225,1.347,0.336
			c0.632,0.841,0.092,1.513-0.321,2.201c-0.343,0.162-0.686,0.325-1.028,0.487c-1.059-0.461-2.16-0.901-1.262-2.395l0.084-0.075
			C217.023,69.988,217.417,69.804,217.81,69.62z"/>
		<path fill-rule="evenodd" clip-rule="evenodd" d="M348.754,89.526c-0.336,0.826-0.718,1.57-1.669,1.312
			c-0.931-0.253-1.853-0.725-1.828-1.894c0.019-0.869,0.759-1.058,1.452-1.009C347.736,88.008,348.501,88.501,348.754,89.526z"/>
		<path fill-rule="evenodd" clip-rule="evenodd" d="M417.76,315.656c-0.387,0.868-0.687,1.918-1.877,1.912
			c-0.794-0.004-1.117-0.728-1.169-1.444c-0.072-1.018,0.469-1.73,1.456-1.836C417.025,314.195,417.608,314.729,417.76,315.656z"/>
		<path fill-rule="evenodd" clip-rule="evenodd" d="M261.344,406.118c0.861,0.288,1.662,0.711,1.509,1.757
			c-0.117,0.813-0.71,1.4-1.612,1.347c-0.851-0.049-1.502-0.537-1.53-1.422C259.679,406.779,260.38,406.296,261.344,406.118z"/>
		<path fill-rule="evenodd" clip-rule="evenodd" d="M296.109,404.442c-1.211,0.043-1.924-0.614-1.909-1.542
			c0.015-0.926,0.799-1.56,1.808-1.597c0.93-0.034,1.531,0.545,1.568,1.403C297.621,403.698,297.007,404.318,296.109,404.442z"/>
		<path fill-rule="evenodd" clip-rule="evenodd" d="M76.569,188.443c-0.276,0.688-0.528,1.561-1.444,1.546
			c-0.952-0.016-0.829-0.967-0.854-1.574c-0.031-0.727,0.488-1.421,1.163-1.439C76.144,186.957,76.566,187.619,76.569,188.443z"/>
		<path fill-rule="evenodd" clip-rule="evenodd" d="M349.51,382.945c-0.247,0.994-0.915,1.499-1.898,1.501
			c-0.784,0-1.365-0.476-1.331-1.268c0.043-1.024,0.832-1.586,1.743-1.7C348.967,381.36,349.363,382.084,349.51,382.945z"/>
		<path fill-rule="evenodd" clip-rule="evenodd" d="M72.639,195.36c0.841,0.084,1.494,0.552,1.566,1.412
			c0.065,0.776-0.687,1.328-1.285,1.37c-0.779,0.054-1.54-0.492-1.584-1.394C71.299,195.994,71.826,195.512,72.639,195.36z"/>
		<path fill-rule="evenodd" clip-rule="evenodd" d="M157.748,93.084c-0.533-1.215-0.723-2.444,1.024-2.582
			c1.34-0.106,1.939,0.721,1.346,2.092C159.388,93.045,158.702,93.712,157.748,93.084z"/>
		<path fill-rule="evenodd" clip-rule="evenodd" d="M89.74,157.2c0.34,0.991-0.118,1.744-0.729,2.452
			c-1.147,0.119-2.343-0.013-1.988-1.506C87.342,156.804,88.487,156.535,89.74,157.2z"/>
		<path fill-rule="evenodd" clip-rule="evenodd" d="M82.618,167.086c0.182-0.717,0.538-1.397,1.286-1.378
			c0.885,0.022,1.392,0.727,1.265,1.584c-0.102,0.68-0.608,1.301-1.398,1.186C83.066,168.376,82.569,167.892,82.618,167.086z"/>
		<path fill-rule="evenodd" clip-rule="evenodd" d="M411.343,322.592c0.894,0.116,1.479,0.59,1.465,1.276
			c-0.016,0.783-0.533,1.465-1.419,1.563c-0.72,0.08-1.022-0.481-1.073-1.072C410.243,323.512,410.704,322.935,411.343,322.592z"/>
		<path fill-rule="evenodd" clip-rule="evenodd" d="M115.497,350.584c1.004,0.054,1.634,0.677,1.79,1.574
			c0.119,0.686-0.301,1.414-1.109,1.395c-0.941-0.021-1.652-0.657-1.835-1.561C114.191,351.245,114.739,350.765,115.497,350.584z"/>
		<path fill-rule="evenodd" clip-rule="evenodd" d="M339.678,87.295c-0.771-0.205-1.536-0.531-1.598-1.412
			c-0.063-0.927,0.604-1.409,1.479-1.331c0.813,0.073,1.493,0.56,1.458,1.456C340.987,86.738,340.406,87.148,339.678,87.295z"/>
		<path fill-rule="evenodd" clip-rule="evenodd" d="M182.623,79.661c0.646-0.917,1.54-1.156,2.596-0.952
			c1.106,1.249,0.542,2.075-0.747,2.561C182.973,81.835,182.649,80.878,182.623,79.661z"/>
		<path fill-rule="evenodd" clip-rule="evenodd" d="M297.596,71.535c-0.392,0.922-0.936,1.454-1.813,1.249
			c-0.906-0.211-1.633-0.772-1.347-1.826c0.236-0.87,1.04-1.095,1.843-0.922C297.099,70.212,297.548,70.795,297.596,71.535z"/>
		<path fill-rule="evenodd" clip-rule="evenodd" d="M287.434,71.039c-0.438-0.29-0.875-0.581-1.313-0.87
			c-0.109-0.319-0.217-0.638-0.326-0.957c1.88-2.032,2.691-0.949,3.176,1.089C288.458,70.547,287.946,70.793,287.434,71.039z"/>
		<path fill-rule="evenodd" clip-rule="evenodd" d="M391.627,121.772c-0.195,0.665-0.65,1.146-1.261,0.999
			c-1.009-0.242-1.738-0.961-1.647-2.066c0.051-0.606,0.634-1.005,1.304-0.795C390.928,120.196,391.412,120.901,391.627,121.772z"/>
		<path fill-rule="evenodd" clip-rule="evenodd" d="M174.824,84.911c-0.938-1.452-1.024-2.575,1.095-2.852
			C178.38,84.094,176.513,84.468,174.824,84.911z"/>
		<path fill-rule="evenodd" clip-rule="evenodd" d="M313.433,303.114c2.362-0.718,3.738,0.013,5.044,1.1
			C316.85,304.64,315.336,304.433,313.433,303.114z"/>
		<path fill-rule="evenodd" clip-rule="evenodd" d="M208.093,72.749c0.25-0.511,0.5-1.023,0.751-1.535
			c1.074-0.502,1.9-0.13,2.355,0.861c0.288,0.628-0.361,1.023-0.784,1.361C209.347,74.288,208.686,73.599,208.093,72.749z"/>
		<path fill-rule="evenodd" clip-rule="evenodd" d="M434.348,204.375c1.031,0.098,1.582,0.631,1.718,1.441
			c0.158,0.94-0.551,1.505-1.316,1.575c-0.806,0.073-1.449-0.528-1.563-1.376C433.064,205.095,433.737,204.683,434.348,204.375z"/>
		<path fill-rule="evenodd" clip-rule="evenodd" d="M322.802,80.37c-0.669-0.318-1.452-0.646-1.251-1.627
			c0.125-0.611,0.659-1.053,1.292-0.914c0.807,0.178,1.469,0.757,1.339,1.636C324.103,80.001,323.537,80.415,322.802,80.37z"/>
		<path fill-rule="evenodd" clip-rule="evenodd" d="M192.127,78.512c-0.277-0.639-1.258-1.067-0.551-1.997
			c0.612-0.807,1.348-1.044,2.28-0.63C194.831,77.782,193.667,78.271,192.127,78.512z"/>
		<path fill-rule="evenodd" clip-rule="evenodd" d="M315.114,76.053c-0.192,0.769-0.718,1.209-1.462,1.096
			c-0.688-0.104-1.33-0.574-1.284-1.346c0.045-0.77,0.721-1.201,1.427-1.118C314.488,74.765,314.945,75.33,315.114,76.053z"/>
		<path fill-rule="evenodd" clip-rule="evenodd" d="M404.359,136.046c-0.205,0.902-0.632,1.513-1.396,1.387
			c-0.896-0.148-1.639-0.731-1.586-1.771c0.034-0.63,0.556-1.035,1.188-1.063C403.646,134.551,403.952,135.429,404.359,136.046z"/>
		<path fill-rule="evenodd" clip-rule="evenodd" d="M201.864,303.326c-1.731,0.554-2.942,0.423-4.734-0.599
			C199.082,302.261,200.351,301.945,201.864,303.326z"/>
		<path fill-rule="evenodd" clip-rule="evenodd" d="M414.178,150.501c-0.164,0.71-0.493,1.315-1.269,1.352
			c-1.038,0.048-1.604-0.648-1.682-1.578c-0.06-0.725,0.449-1.313,1.207-1.353C413.474,148.868,413.901,149.634,414.178,150.501z"/>
		<path fill-rule="evenodd" clip-rule="evenodd" d="M385.489,356.451c-0.332,0.731-0.819,1.358-1.706,1.347
			c-0.652-0.007-1.13-0.496-1.09-1.135c0.054-0.853,0.594-1.512,1.481-1.538C384.931,355.104,385.418,355.615,385.489,356.451z"/>
		<path fill-rule="evenodd" clip-rule="evenodd" d="M244.413,407.646c0.022,0.706-0.384,1.188-0.958,1.24
			c-0.823,0.075-1.513-0.366-1.558-1.268c-0.032-0.636,0.478-1.031,1.106-1.078C243.787,406.48,244.187,406.994,244.413,407.646z"/>
		<path fill-rule="evenodd" clip-rule="evenodd" d="M422.221,165.89c0.559,0.22,1.005,0.613,1.009,1.258
			c0.004,0.592-0.478,0.866-0.993,0.782c-0.504-0.083-0.874-0.48-0.882-1.034C421.348,166.361,421.586,165.951,422.221,165.89z"/>
		<path fill-rule="evenodd" clip-rule="evenodd" d="M234.382,405.744c0.687,0.256,1.325,0.662,1.23,1.426
			c-0.093,0.739-0.731,1.219-1.495,1.069c-0.574-0.113-1.159-0.595-1.121-1.219C233.041,406.286,233.618,405.846,234.382,405.744z"
			/>
		<path fill-rule="evenodd" clip-rule="evenodd" fill="#1D2046" d="M168.836,99.301c-0.094,0.333-0.116,0.726-0.586,0.756
			c-0.057,0.004-0.175-0.116-0.171-0.171c0.029-0.471,0.423-0.492,0.756-0.587L168.836,99.301z"/>
		<path fill-rule="evenodd" clip-rule="evenodd" d="M118.322,308.531c-0.256-0.032-0.512-0.067-0.768-0.1
			c0.042-0.079,0.083-0.157,0.125-0.235c0.215,0.126,0.431,0.252,0.652,0.393C118.338,308.604,118.322,308.531,118.322,308.531z"/>
		<path fill-rule="evenodd" clip-rule="evenodd" d="M228.46,289.854c0.173,0.138,0.348,0.275,0.521,0.415
			c-0.345,0.422-0.577,0.075-0.832-0.122C228.251,290.049,228.355,289.951,228.46,289.854z"/>
		<path fill-rule="evenodd" clip-rule="evenodd" d="M285.717,269.771c0.169,0.156,0.503,0.417,0.482,0.45
			c-0.301,0.465-0.566,0.099-0.839-0.073C285.473,270.018,285.591,269.893,285.717,269.771z"/>
		<path fill-rule="evenodd" clip-rule="evenodd" d="M293.033,293.165c-0.329,0.188-0.669,0.415-0.98,0.018
			c-0.022-0.026,0.33-0.351,0.509-0.536C292.719,292.819,292.876,292.992,293.033,293.165z"/>
		<path fill-rule="evenodd" clip-rule="evenodd" d="M96.608,312.283c0.043,0.041,0.085,0.083,0.128,0.125
			c-0.039,0.008-0.077,0.014-0.121,0.017C96.612,312.421,96.608,312.283,96.608,312.283z"/>
		<path fill-rule="evenodd" clip-rule="evenodd" d="M201.016,75.807c-0.737-0.143-1.361-0.492-1.279-1.318
			c0.083-0.845,0.636-1.505,1.523-1.499c0.861,0.006,1.55,0.566,1.443,1.481C202.602,75.332,201.9,75.764,201.016,75.807z"/>
		<path fill-rule="evenodd" clip-rule="evenodd" d="M152.914,95.51c-0.502,1.195-0.924,2.409-2.33,2.711
			c-0.979,0.21-1.46-0.501-1.545-1.311c-0.165-1.562,0.991-2.196,2.209-2.606C152.253,93.967,152.536,94.823,152.914,95.51z"/>
		<path fill-rule="evenodd" clip-rule="evenodd" d="M132.755,110.286c-0.815,0.37-1.495,0.002-2.168-0.4
			c-0.482-1.369,0.205-2.21,1.339-2.759c0.654-0.317,1.27-0.186,1.727,0.502C134.518,108.93,133.282,109.479,132.755,110.286z"/>
		<path fill-rule="evenodd" clip-rule="evenodd" d="M100.279,143.102c-0.23,0.884-0.76,1.6-1.699,1.643
			c-0.965,0.044-1.685-0.593-1.663-1.579c0.021-0.916,0.628-1.704,1.593-1.731C99.476,141.409,99.978,142.193,100.279,143.102z"/>
		<path fill-rule="evenodd" clip-rule="evenodd" d="M145.252,101.719c-1.146,0.236-2.292,0.197-2.325-1.276
			c-0.022-1.065,0.992-1.859,1.914-1.833c1.323,0.035,1.686,1.038,1.169,2.27C145.758,101.16,145.505,101.44,145.252,101.719z"/>
		<path fill-rule="evenodd" clip-rule="evenodd" d="M93.814,152.172c-0.462-0.159-0.924-0.318-1.387-0.477
			c-0.477-1.173-0.112-2.081,0.954-2.667c0.657-0.361,1.092,0.187,1.421,0.63C95.795,150.988,94.494,151.468,93.814,152.172z"/>
		<path fill-rule="evenodd" clip-rule="evenodd" d="M167.166,89.027c-0.633,0.218-1.053-0.261-1.554-0.474
			c-0.242-0.787-0.832-1.725,0.473-2.069c0.686-0.18,1.56-0.458,2.123,0.321C169.162,88.125,167.571,88.311,167.166,89.027z"/>
		<path fill-rule="evenodd" clip-rule="evenodd" d="M137.478,106.312c-0.932-0.008-1.612-0.454-1.585-1.32
			c0.036-1.138,1.112-1.479,1.982-1.618c0.715-0.114,1.25,0.59,1.229,1.305C139.075,105.654,138.417,106.194,137.478,106.312z"/>
	</g>
</g>
</svg>
