<svg version="1.1" id="Layer_1" xmlns="http://www.w3.org/2000/svg" xmlns:xlink="http://www.w3.org/1999/xlink" x="0px" y="0px"
	 width="500px" height="500px" viewBox="0 0 500 500" enable-background="new 0 0 500 500" xml:space="preserve">
<g id="Layer_1_1_">
</g>
<g>
	<path d="M350.683,45.725c1.517,0.63,7.946,3.311,13.31,5.663C359.637,49.39,355.2,47.502,350.683,45.725z"/>
	<path d="M350.34,45.582c-0.004,0.001-0.008,0.002-0.012,0.004c0.118,0.046,0.236,0.092,0.354,0.139
		C350.468,45.635,350.34,45.582,350.34,45.582z"/>
	<path d="M151.317,462.893l-12.118-5.464C143.199,459.359,147.237,461.186,151.317,462.893z"/>
	<path d="M151.708,463.069c0.007-0.003,0.015-0.006,0.022-0.009c-0.137-0.057-0.276-0.11-0.413-0.168L151.708,463.069z"/>
	<path d="M371.635,55.041c-0.574-0.481-3.838-1.984-7.643-3.653c2.574,1.182,5.119,2.401,7.636,3.661
		C371.631,55.046,371.633,55.043,371.635,55.041z"/>
	<path d="M132.376,454.352l6.823,3.077c-2.208-1.066-4.404-2.164-6.587-3.298C132.532,454.203,132.457,454.279,132.376,454.352z"/>
	<path d="M358.618,348.458c0.417,9.451,0.908,18.907,1.202,28.362c0.195,6.269-2.094,13.201-5.774,18.674
		c3.063-2.061,6.091-4.207,9.071-6.471c22.365-16.983,40.094-37.812,52.342-63.169c14.278-29.554,18.957-60.562,13.522-92.946
		c-5.206-31.034-18.665-58.243-39.633-81.569c-10.616-11.809-22.45-21.761-35.381-29.989
		C353.438,197.094,355.233,272.789,358.618,348.458z"/>
	<path d="M147.432,168.281c-0.721-15.804-8.098-26.507-19.55-33.344c-4.068,3.281-8.013,6.732-11.795,10.41
		c-8.561,8.327-16.368,17.266-22.783,27.374c-0.781,1.206-1.563,2.412-2.344,3.619c-0.242,0.354-0.484,0.711-0.727,1.067
		c-0.466,0.823-0.933,1.646-1.402,2.469c-0.684,0.647-1.099,1.457-1.401,2.335c-9.003,14.938-15.083,31.039-18.257,48.133
		c-6.179,33.274-1.707,65.261,12.808,95.78c15.327,32.23,38.705,57.354,69.401,75.213c0.633,0.368,1.269,0.723,1.904,1.083
		c0.198-3.187,0.309-6.404,0.353-9.638C154.67,317.886,150.833,243.071,147.432,168.281z"/>
	<path d="M459.496,131.565c-23.136-33.671-52.688-58.915-87.868-76.517c-12.581,12.665-17.258,29.134-17.489,47.764
		c-0.047,3.864-0.081,7.727-0.115,11.59c21.241,12.876,39.423,29.882,54.188,51.373c21.742,31.641,31.536,66.718,28.766,105.044
		c-2.298,31.781-13.645,60.363-32.559,85.84c-24.413,32.882-56.313,55.53-95.275,68.191c-20.102,6.535-40.721,9.639-61.838,9.442
		c-7.952,0.06-15.867-0.382-23.757-1.313c-0.947-0.111-1.886-0.248-2.828-0.373c0.074,4.159-3.433,4.729-6.484,5.922
		c-20.833,8.182-41.666,16.366-62.506,24.532c21.147,8.805,43.366,14.616,66.674,17.363c10.3,1.215,20.634,1.792,31.015,1.713
		c27.573,0.256,54.492-3.795,80.733-12.322c50.871-16.534,92.518-46.103,124.393-89.031c24.695-33.266,39.508-70.578,42.508-112.072
		C500.669,218.672,487.882,172.875,459.496,131.565z"/>
	<path d="M318.544,392.884c-32.396-36.429-56.532-78.493-82.839-119.108c-16.937-26.136-33.23-52.74-52.569-77.254
		c-1.457-1.85-2.463-4.329-5.555-4.604c-4.031,3.065-2.136,7.513-2.016,11.283c1.857,58.452,3.714,116.899,6.027,175.336
		c0.389,9.724,2.361,19.495,4.629,28.998c1.154,4.83,3.019,8.702,5.585,11.677c26.019,8.072,53.282,10.246,81.656,6.507
		c22.761-2.999,44.021-9.663,63.734-20.104C329.228,405.383,324.094,399.118,318.544,392.884z"/>
	<path d="M152.621,410.035c-3.332-1.86-6.628-3.82-9.884-5.893c-28.657-18.237-50.64-42.562-65.688-72.995
		c-13.566-27.438-19.134-56.502-16.274-87.029c2.486-26.548,11.737-50.74,26.254-72.991c9.907-15.185,21.635-28.173,34.951-39.228
		c-3.972-1.753-8.297-3.151-12.906-4.225c-1.362-6.27,3.114-7.571,7.566-8.946c6.605-2.042,13.195-4.129,19.792-6.205
		c10.657-3.486,22.026-4.604,32.158-9.793c1.299-0.283,2.588-0.596,3.866-0.935c3.474-1.443,6.974-2.783,10.502-4.018
		c1.051-0.569,2.087-1.175,3.09-1.864c0.96-0.043,1.92-0.082,2.879-0.121c14.916-4.696,30.287-7.609,46.041-8.865
		c27.495-2.189,54.425,0.786,80.547,9.664c2.225,0.756,4.424,1.548,6.602,2.369c-1.927-8.484-5.881-16.041-15.325-20.714
		c-4.247-2.095-8.529-2.742-13.007-3.318c-3.184-0.414-5.5-1.806-5.043-5.587c0.354-2.996,1.132-5.038,4.879-5.876
		c19.31-4.304,37.795-11.379,56.709-17.881c-3.895-1.526-7.843-2.98-11.856-4.344c-34.104-11.591-69.264-15.474-105.161-12.616
		c-29.292,2.333-57.574,9.037-84.561,20.64C103.974,68.52,67.001,97.424,40.166,138.554c-18.954,29.05-31.032,60.634-34.278,95.296
		c-3.733,39.854,3.534,77.802,21.247,113.623c19.647,39.733,48.349,71.49,85.763,95.303c6.456,4.107,13.03,7.884,19.714,11.355
		C145.438,442.432,150.672,426.883,152.621,410.035z"/>
	<path d="M209.392,111.445c34.039,55.342,67.743,110.888,103.471,165.171c4.642,7.047,9.614,13.923,17.965,20.725
		c0-21.071,0.359-40.172-0.073-59.263c-0.957-42.705-3.104-85.364-7.014-127.909c-0.134-1.454-0.284-2.905-0.463-4.345
		c-4.575-1.794-9.239-3.444-14.016-4.912c-6.07-1.866-12.132-3.824-18.499-4.496c-2.446-0.522-4.892-1.063-7.343-1.564
		c-5.241-1.072-10.562-1.663-15.887-1.979c-12.972-0.771-25.947-1.148-38.864,0.846c-3.74,0.222-7.442,0.713-11.089,1.592
		c-6.351,0.964-12.625,2.217-18.802,3.841C203.423,102.179,206.502,106.752,209.392,111.445z"/>
</g>
<g id="Layer_3">
</g>
</svg>
