<?xml version="1.0" encoding="utf-8"?>
<!-- Generator: Adobe Illustrator 16.0.0, SVG Export Plug-In . SVG Version: 6.00 Build 0)  -->
<!DOCTYPE svg PUBLIC "-//W3C//DTD SVG 1.1//EN" "http://www.w3.org/Graphics/SVG/1.1/DTD/svg11.dtd">
<svg version="1.1" xmlns="http://www.w3.org/2000/svg" xmlns:xlink="http://www.w3.org/1999/xlink" x="0px" y="0px" width="500px"
	 height="500px" viewBox="0 0 500 500" enable-background="new 0 0 500 500" xml:space="preserve">
<g id="Layer_1">
</g>
<g id="Layer_2">
	<path fill-rule="evenodd" clip-rule="evenodd" d="M459.496,131.565c-30.076-43.772-70.984-73.317-121.024-90.323
		c-34.104-11.591-69.264-15.474-105.161-12.616c-29.292,2.333-57.574,9.037-84.561,20.64
		C103.974,68.52,67.001,97.424,40.166,138.554c-18.954,29.05-31.032,60.634-34.278,95.296
		c-3.733,39.854,3.534,77.802,21.247,113.623c19.647,39.733,48.349,71.49,85.763,95.302c32.302,20.556,67.46,33.164,105.506,37.649
		c10.3,1.215,20.634,1.792,31.015,1.713c27.573,0.256,54.492-3.795,80.733-12.323c50.871-16.534,92.518-46.102,124.393-89.031
		c24.695-33.265,39.508-70.578,42.508-112.072C500.669,218.672,487.882,172.875,459.496,131.565z M132.376,454.352
		c17.326-15.623,20.943-38.2,21.263-61.57c1.031-74.896-2.806-149.711-6.207-224.501c-1.064-23.314-16.599-35.538-38.359-40.605
		c-1.362-6.27,3.114-7.571,7.566-8.946c6.605-2.042,13.195-4.129,19.792-6.205c10.657-3.486,22.026-4.604,32.158-9.793
		c6.179-1.346,12.172-3.188,17.458-6.817c1.573-0.07,3.144-0.127,4.716-0.197c1.272,1.714,3.007,2.165,5.025,1.804
		c6.4,2.817,10.134,8.288,13.604,13.923c34.039,55.342,67.743,110.888,103.471,165.171c4.642,7.047,9.615,13.923,17.965,20.725
		c0-21.071,0.36-40.172-0.073-59.263c-0.957-42.705-3.104-85.364-7.014-127.909c-1.172-12.723-3.479-25.255-16.951-31.921
		c-4.247-2.095-8.529-2.742-13.007-3.318c-3.184-0.414-5.5-1.806-5.043-5.587c0.354-2.996,1.132-5.038,4.879-5.876
		c19.314-4.305,37.803-11.382,56.721-17.885c0,0,19.797,8.202,21.295,9.459c-12.587,12.666-17.265,29.138-17.496,47.771
		c-0.99,81.931,0.818,163.804,4.479,245.646c0.417,9.451,0.908,18.907,1.202,28.363c0.368,11.789-8.053,25.925-17.989,28.288
		c-10.756,2.55-16.73-4.86-23.287-12.225c-32.395-36.429-56.532-78.493-82.839-119.108c-16.937-26.137-33.23-52.741-52.569-77.255
		c-1.457-1.85-2.463-4.329-5.555-4.604c-4.031,3.065-2.136,7.513-2.016,11.283c1.857,58.452,3.714,116.899,6.027,175.336
		c0.389,9.724,2.361,19.496,4.629,28.998c3.134,13.121,11.475,19.226,25.028,19.232c4.052,0.002,8.275-1.847,9.348,4.487
		c0.921,5.42-3.004,5.963-6.361,7.275c-20.841,8.185-41.681,16.372-62.528,24.541L132.376,454.352z"/>
</g>
<g id="Layer_3">
</g>
</svg>
