<?xml version="1.0" encoding="utf-8"?>
<!-- Generator: Adobe Illustrator 16.0.0, SVG Export Plug-In . SVG Version: 6.00 Build 0)  -->
<!DOCTYPE svg PUBLIC "-//W3C//DTD SVG 1.1//EN" "http://www.w3.org/Graphics/SVG/1.1/DTD/svg11.dtd">
<svg version="1.1" xmlns="http://www.w3.org/2000/svg" xmlns:xlink="http://www.w3.org/1999/xlink" x="0px" y="0px" width="500px"
	 height="500px" viewBox="0 0 500 500" enable-background="new 0 0 500 500" xml:space="preserve">
<g id="Layer_1">
	<path fill-rule="evenodd" clip-rule="evenodd" d="M249.418,482.137c-10.381,0.079-20.715-0.498-31.015-1.713
		c-38.045-4.485-73.204-17.094-105.506-37.649c-37.414-23.812-66.115-55.568-85.763-95.302
		C9.422,311.651,2.155,273.703,5.888,233.85c3.246-34.662,15.324-66.246,34.278-95.296C67.001,97.424,103.974,68.52,148.75,49.266
		c26.986-11.603,55.268-18.306,84.561-20.64c35.897-2.858,71.057,1.025,105.161,12.616c50.04,17.005,90.948,46.55,121.024,90.323
		c28.386,41.309,41.173,87.106,37.556,137.145c-3,41.494-17.813,78.808-42.508,112.072c-31.875,42.93-73.521,72.497-124.393,89.031
		C303.91,478.342,276.991,482.393,249.418,482.137z M54.718,156.073c-0.841,0.796-1.353,1.79-1.723,2.871
		c-11.067,18.364-18.543,38.158-22.445,59.173c-7.596,40.905-2.098,80.227,15.746,117.746
		c18.841,39.621,47.581,70.509,85.318,92.463c46.429,27.009,96.653,37.012,150.079,29.973
		c40.697-5.362,77.494-20.259,110.219-45.108c27.493-20.881,49.286-46.487,64.347-77.657
		c17.553-36.331,23.304-74.452,16.623-114.264c-6.402-38.15-22.948-71.601-48.725-100.276C397.276,91.091,364.095,70.797,325.702,59
		c-7.462-2.293-14.913-4.701-22.74-5.526c-3.007-0.642-6.014-1.306-9.026-1.923c-6.445-1.318-12.984-2.044-19.533-2.433
		c-15.944-0.948-31.897-1.412-47.775,1.04c-4.598,0.272-9.149,0.877-13.633,1.957c-15.19,2.307-30.034,5.925-44.302,11.72
		c-1.897,0.65-3.908,1-5.634,2.108c-8.229,3.117-16.142,6.946-23.91,11.029c-18.683,9.819-35.763,21.908-50.925,36.655
		c-10.525,10.237-20.122,21.228-28.007,33.651c-0.961,1.484-1.921,2.965-2.881,4.45c-0.297,0.436-0.595,0.874-0.893,1.312
		C55.867,154.051,55.292,155.062,54.718,156.073z"/>
</g>
<g id="Layer_2">
	<path fill-rule="evenodd" clip-rule="evenodd" d="M459.496,131.565c-30.076-43.772-70.984-73.317-121.024-90.323
		c-34.104-11.591-69.264-15.474-105.161-12.616c-29.292,2.333-57.574,9.037-84.561,20.64
		C103.974,68.52,67.001,97.424,40.166,138.554c-18.954,29.05-31.032,60.634-34.278,95.296
		c-3.733,39.854,3.534,77.802,21.247,113.623c19.647,39.733,48.349,71.49,85.763,95.302c32.302,20.556,67.46,33.164,105.506,37.649
		c10.3,1.215,20.634,1.792,31.015,1.713c27.573,0.256,54.492-3.795,80.733-12.323c50.871-16.534,92.518-46.102,124.393-89.031
		c24.695-33.265,39.508-70.578,42.508-112.072C500.669,218.672,487.882,172.875,459.496,131.565z M346.871,102.545
		c-14.908,9.751-20.079,24.183-20.289,41.026c-0.725,59.978,0.6,119.914,3.278,179.827c0.306,6.919,0.665,13.842,0.88,20.764
		c0.27,8.631-5.895,18.979-13.169,20.709c-7.874,1.866-12.248-3.559-17.047-8.949c-23.716-26.668-41.386-57.462-60.644-87.194
		c-12.398-19.134-24.326-38.61-38.484-56.556c-1.066-1.354-1.803-3.169-4.066-3.37c-2.951,2.244-1.563,5.5-1.476,8.26
		c1.359,42.79,2.719,85.577,4.412,128.356c0.285,7.118,1.729,14.272,3.389,21.229c2.294,9.605,8.4,14.074,18.322,14.079
		c2.966,0.002,6.058-1.352,6.843,3.285c0.674,3.968-2.2,4.365-4.657,5.326c-22.667,8.901-45.333,17.808-68.015,26.668
		c-1.546,0.602-3.577,2.142-4.747,0.038c-0.772-1.399-0.743-3.592-0.284-5.206c0.341-1.213,1.755-2.416,2.99-3.043
		c21.504-10.929,25.408-31.003,25.695-51.946c0.755-54.828-2.054-109.597-4.544-164.348c-0.779-17.067-12.151-26.016-28.082-29.725
		c-0.997-4.59,2.28-5.542,5.54-6.549c4.835-1.495,9.66-3.023,14.489-4.542c7.801-2.552,16.124-3.371,23.541-7.169
		c4.523-0.985,8.911-2.333,12.78-4.991c1.151-0.051,2.301-0.093,3.452-0.144c0.932,1.255,2.202,1.585,3.679,1.321
		c4.686,2.062,7.418,6.067,9.959,10.192c24.918,40.514,49.592,81.177,75.747,120.915c3.397,5.158,7.039,10.192,13.151,15.172
		c0-15.426,0.264-29.408-0.054-43.384c-0.701-31.262-2.271-62.491-5.135-93.637c-0.857-9.314-2.547-18.488-12.409-23.368
		c-3.109-1.534-6.244-2.007-9.521-2.429c-2.33-0.303-4.026-1.322-3.691-4.09c0.259-2.193,0.828-3.688,3.571-4.302
		c24.65-5.495,47.462-17.158,73.311-22.008C353.959,97.715,350.292,100.31,346.871,102.545z"/>
</g>
<g id="Layer_3" display="none">
	<path display="inline" fill-rule="evenodd" clip-rule="evenodd" d="M147.045,142.507c7.604-0.989,14.977-2.344,21.489-5.016
		c1.931-0.048,3.867-0.096,5.798-0.145c1.567,1.262,3.699,1.59,6.189,1.33c7.877,2.07,12.473,6.095,16.741,10.241
		c41.89,40.718,83.375,81.588,127.346,121.525c5.709,5.185,11.839,10.24,22.11,15.246c0-15.504,0.439-29.556-0.091-43.602
		c-1.186-31.419-3.814-62.809-8.63-94.11c-1.437-9.361-4.276-18.582-20.863-23.485c-5.229-1.542-10.496-2.018-16.004-2.442
		c-3.919-0.301-6.771-1.324-6.211-4.108c0.44-2.206,1.396-3.706,6.01-4.324c41.442-5.521,79.784-17.243,123.247-22.12
		c-2.744,4.98-8.905,7.587-14.659,9.837c-25.067,9.797-33.76,24.302-34.106,41.229c-1.22,60.28,1,120.521,5.504,180.735
		c0.523,6.953,1.13,13.906,1.486,20.867c0.454,8.676-9.912,19.074-22.141,20.81c-13.233,1.876-20.587-3.572-28.652-8.995
		c-39.876-26.802-69.576-57.749-101.957-87.632c-20.839-19.231-40.888-38.809-64.694-56.841c-1.796-1.362-3.036-3.187-6.836-3.387
		c-4.962,2.258-2.628,5.53-2.48,8.299c2.285,43.008,4.569,86.012,7.419,129.009c0.473,7.149,2.909,14.343,5.701,21.332
		c3.855,9.653,14.118,14.148,30.799,14.15c4.99,0.005,10.187-1.36,11.507,3.307c1.128,3.989-3.704,4.383-7.83,5.355
		c-38.106,8.941-76.214,17.894-114.346,26.8c-2.598,0.608-6.013,2.151-7.979,0.038c-1.301-1.404-1.25-3.611-0.48-5.235
		c0.573-1.217,2.957-2.427,5.027-3.055c36.15-10.983,42.711-31.161,43.199-52.207c1.266-55.106-3.456-110.15-7.644-165.174
		c-1.309-17.156-20.423-26.148-47.208-29.875c-1.676-4.611,3.836-5.569,9.316-6.583c8.125-1.5,16.239-3.039,24.356-4.563
		C120.582,147.148,134.578,146.325,147.045,142.507z"/>
</g>
</svg>
